M48
; DRILL file {KiCad (7.0.0)} date Fri May 19 00:06:07 2023
; FORMAT={-:-/ absolute / metric / decimal}
; #@! TF.CreationDate,2023-05-19T00:06:07+02:00
; #@! TF.GenerationSoftware,Kicad,Pcbnew,(7.0.0)
; #@! TF.FileFunction,Plated,1,4,PTH
FMAT,2
METRIC
; #@! TA.AperFunction,Plated,PTH,ViaDrill
T1C0.300
; #@! TA.AperFunction,Plated,PTH,ViaDrill
T2C0.400
; #@! TA.AperFunction,Plated,PTH,ComponentDrill
T3C0.600
; #@! TA.AperFunction,Plated,PTH,ComponentDrill
T4C1.000
%
G90
G05
T1
X104.05Y-90.75
X104.075Y-89.45
X104.2Y-88.1
X104.4Y-86.625
X105.375Y-85.25
X106.25Y-84.4
X107.125Y-83.6
X107.975Y-82.725
X108.275Y-86.05
X108.55Y-84.975
X108.75Y-82.0
X110.35Y-86.125
X110.425Y-84.65
X110.55Y-87.35
X111.3Y-80.625
X111.725Y-88.9
X112.525Y-80.625
X112.6Y-82.95
X113.088Y-87.929
X113.339Y-74.941
X113.35Y-87.125
X113.55Y-72.8
X113.725Y-80.625
X113.725Y-80.625
X113.9Y-77.7
X114.9Y-83.075
X114.925Y-80.625
X114.925Y-80.625
X114.95Y-71.55
X116.0Y-78.8
X116.125Y-80.625
X116.125Y-80.625
X116.525Y-83.025
X116.675Y-84.275
X116.675Y-85.075
X116.7Y-86.65
X117.2Y-71.3
X117.35Y-80.625
X117.6Y-78.0
X118.25Y-83.075
X118.4Y-77.15
X118.5Y-72.25
X118.55Y-80.625
X118.55Y-80.625
X118.935Y-87.75
X119.475Y-73.175
X119.55Y-77.95
X119.75Y-80.625
X119.825Y-82.85
X120.5Y-74.1
X121.075Y-86.025
X123.639Y-76.822
X123.7Y-75.925
X124.537Y-76.862
X143.2Y-82.2
X143.5Y-78.2
X147.7Y-75.95
X147.7Y-77.95
X152.512Y-97.556
T2
X96.35Y-61.7
X96.35Y-109.7
X99.85Y-58.2
X99.85Y-65.2
X99.85Y-106.2
X99.85Y-113.1
X101.25Y-68.6
X101.25Y-70.6
X101.25Y-72.6
X101.25Y-74.6
X101.25Y-76.6
X101.25Y-78.6
X101.25Y-80.6
X101.25Y-82.6
X101.25Y-84.6
X101.25Y-86.6
X101.25Y-88.6
X101.25Y-90.6
X101.25Y-92.6
X101.25Y-94.6
X101.25Y-96.6
X101.25Y-98.6
X101.25Y-100.6
X101.25Y-102.6
X103.35Y-61.7
X103.35Y-109.7
X103.6Y-104.6
X103.9Y-96.205
X104.0Y-84.9
X104.0Y-97.5
X106.05Y-63.1
X107.4Y-72.6
X108.0Y-92.3
X108.0Y-94.3
X108.025Y-87.225
X108.05Y-63.1
X110.05Y-63.1
X111.425Y-78.55
X111.65Y-86.725
X111.95Y-90.05
X112.05Y-63.1
X112.7Y-98.9
X112.75Y-100.55
X114.0Y-92.05
X114.05Y-63.1
X114.853Y-74.937
X115.974Y-94.8
X116.05Y-63.1
X116.225Y-99.25
X116.8Y-97.25
X118.05Y-63.1
X119.7Y-95.3
X119.9Y-71.55
X120.05Y-63.1
X121.3Y-96.4
X121.5Y-66.95
X121.7Y-72.3
X121.8Y-91.4
X122.05Y-63.1
X122.9Y-104.6
X123.05Y-86.45
X123.2Y-66.95
X123.2Y-71.25
X123.9Y-108.2
X124.0Y-74.7
X124.05Y-63.1
X124.05Y-78.95
X124.05Y-78.95
X124.05Y-82.15
X124.55Y-86.45
X124.9Y-66.95
X124.9Y-71.25
X125.8Y-104.9
X125.9Y-108.2
X125.9Y-108.2
X125.93Y-93.607
X126.7Y-100.5
X126.8Y-93.1
X126.8Y-94.1
X127.25Y-75.75
X127.25Y-75.75
X127.25Y-78.95
X127.25Y-78.95
X127.25Y-78.95
X127.25Y-78.95
X127.25Y-82.15
X127.25Y-82.15
X127.9Y-108.2
X127.95Y-108.2
X128.5Y-70.7
X129.95Y-108.2
X130.45Y-75.75
X130.45Y-78.95
X130.45Y-78.95
X130.45Y-82.15
X131.3Y-104.7
X131.812Y-87.013
X131.95Y-84.75
X131.95Y-108.2
X133.1Y-70.3
X133.45Y-73.65
X133.9Y-99.026
X133.95Y-108.2
X133.95Y-108.2
X134.55Y-75.05
X134.85Y-88.75
X134.9Y-98.3
X135.225Y-83.11
X135.225Y-84.51
X135.862Y-104.941
X135.95Y-108.2
X135.95Y-108.2
X136.024Y-98.676
X136.1Y-102.4
X136.625Y-84.51
X137.0Y-93.7
X137.175Y-98.8
X137.95Y-108.2
X137.95Y-108.2
X138.2Y-72.95
X138.35Y-86.7
X138.425Y-84.587
X138.8Y-89.4
X138.9Y-95.9
X139.95Y-79.7
X139.95Y-108.2
X139.95Y-108.2
X140.0Y-71.6
X140.025Y-84.587
X141.25Y-91.6
X141.3Y-97.7
X141.8Y-88.7
X141.95Y-108.2
X142.361Y-97.839
X142.4Y-78.184
X142.9Y-72.5
X143.5Y-97.7
X143.6Y-91.25
X143.95Y-108.2
X144.55Y-78.218
X145.5Y-105.0
X145.6Y-92.8
X145.95Y-108.2
X145.95Y-108.2
X146.0Y-90.4
X146.8Y-88.8
X147.2Y-92.8
X147.45Y-86.0
X147.5Y-72.1
X147.7Y-81.2
X147.95Y-108.2
X148.4Y-105.0
X148.8Y-92.9
X149.0Y-80.0
X149.95Y-63.1
X149.95Y-108.2
X150.15Y-66.5
X150.2Y-104.0
X150.312Y-92.456
X150.312Y-94.156
X150.45Y-81.45
X151.9Y-104.0
X151.95Y-63.1
X151.95Y-108.2
X152.25Y-69.8
X152.25Y-71.8
X152.25Y-73.8
X153.325Y-102.637
X153.325Y-104.037
X153.35Y-66.6
X153.95Y-63.1
X153.95Y-85.95
X153.95Y-87.95
X153.95Y-89.95
X153.95Y-108.2
X154.25Y-69.8
X154.25Y-71.8
X154.25Y-73.8
X154.8Y-96.438
X155.25Y-102.45
X155.3Y-80.322
X155.45Y-104.85
X155.6Y-100.3
X155.95Y-63.1
X155.95Y-82.2
X155.95Y-83.95
X155.95Y-85.95
X155.95Y-87.95
X155.95Y-89.95
X155.95Y-108.2
X156.025Y-75.3
X156.15Y-66.4
X156.25Y-69.8
X156.25Y-71.8
X156.25Y-73.8
X156.8Y-94.3
X157.3Y-103.9
X157.6Y-97.2
X157.75Y-99.9
X157.95Y-63.1
X157.95Y-85.95
X157.95Y-87.95
X157.95Y-89.95
X157.95Y-108.2
X159.298Y-74.898
X159.3Y-80.3
X160.15Y-99.55
X160.25Y-97.15
X160.25Y-102.15
X160.25Y-104.15
X160.4Y-93.0
X161.25Y-61.7
X161.25Y-109.7
X163.35Y-68.6
X163.35Y-70.6
X163.35Y-84.6
X163.35Y-86.6
X163.35Y-88.6
X163.35Y-90.6
X163.35Y-92.6
X163.35Y-94.6
X163.35Y-96.6
X163.35Y-98.6
X163.35Y-100.6
X163.35Y-102.6
X164.75Y-58.3
X164.75Y-65.2
X164.75Y-106.2
X164.75Y-113.2
X168.25Y-61.7
X168.25Y-109.7
T4
X106.94Y-107.7
X109.48Y-107.7
X112.02Y-107.7
X114.56Y-107.7
X117.1Y-107.7
X119.64Y-107.7
X127.8Y-63.7
X130.34Y-63.7
X132.88Y-63.7
X135.42Y-63.7
X139.12Y-63.7
X141.66Y-63.7
X144.2Y-63.7
X146.74Y-63.7
T3
X158.945Y-73.38G85X157.845Y-73.38
G05
X158.945Y-82.02G85X157.845Y-82.02
G05
X162.965Y-73.38G85X162.165Y-73.38
G05
X162.965Y-82.02G85X162.165Y-82.02
G05
T0
M30
