%TF.GenerationSoftware,KiCad,Pcbnew,7.0.7*%
%TF.CreationDate,2023-10-05T10:10:36+02:00*%
%TF.ProjectId,Apollo - DSP,41706f6c-6c6f-4202-9d20-4453502e6b69,rev?*%
%TF.SameCoordinates,Original*%
%TF.FileFunction,Legend,Bot*%
%TF.FilePolarity,Positive*%
%FSLAX46Y46*%
G04 Gerber Fmt 4.6, Leading zero omitted, Abs format (unit mm)*
G04 Created by KiCad (PCBNEW 7.0.7) date 2023-10-05 10:10:36*
%MOMM*%
%LPD*%
G01*
G04 APERTURE LIST*
%ADD10C,0.150000*%
%ADD11C,0.187500*%
G04 APERTURE END LIST*
D10*
X108100000Y-103400000D02*
X108100000Y-105585000D01*
X110630000Y-103422500D02*
X110630000Y-105607500D01*
X115730000Y-103422500D02*
X115730000Y-105607500D01*
X118280000Y-103422500D02*
X118280000Y-105607500D01*
X110630000Y-103422500D02*
X110630000Y-105607500D01*
X105530000Y-103422500D02*
X105530000Y-105607500D01*
X105520000Y-101245000D02*
X120730000Y-101245000D01*
X120730000Y-105615000D01*
X105520000Y-105615000D01*
X105520000Y-101245000D01*
X113180000Y-103422500D02*
X113180000Y-105607500D01*
X115750000Y-103400000D02*
X115750000Y-105585000D01*
X113200000Y-103400000D02*
X113200000Y-105585000D01*
D11*
X111652928Y-104411428D02*
X111617214Y-104340000D01*
X111617214Y-104340000D02*
X111617214Y-104232857D01*
X111617214Y-104232857D02*
X111652928Y-104125714D01*
X111652928Y-104125714D02*
X111724357Y-104054285D01*
X111724357Y-104054285D02*
X111795785Y-104018571D01*
X111795785Y-104018571D02*
X111938642Y-103982857D01*
X111938642Y-103982857D02*
X112045785Y-103982857D01*
X112045785Y-103982857D02*
X112188642Y-104018571D01*
X112188642Y-104018571D02*
X112260071Y-104054285D01*
X112260071Y-104054285D02*
X112331500Y-104125714D01*
X112331500Y-104125714D02*
X112367214Y-104232857D01*
X112367214Y-104232857D02*
X112367214Y-104304285D01*
X112367214Y-104304285D02*
X112331500Y-104411428D01*
X112331500Y-104411428D02*
X112295785Y-104447142D01*
X112295785Y-104447142D02*
X112045785Y-104447142D01*
X112045785Y-104447142D02*
X112045785Y-104304285D01*
X116617214Y-103261428D02*
X116617214Y-103404285D01*
X116617214Y-103404285D02*
X116652928Y-103475714D01*
X116652928Y-103475714D02*
X116724357Y-103547142D01*
X116724357Y-103547142D02*
X116867214Y-103582857D01*
X116867214Y-103582857D02*
X117117214Y-103582857D01*
X117117214Y-103582857D02*
X117260071Y-103547142D01*
X117260071Y-103547142D02*
X117331500Y-103475714D01*
X117331500Y-103475714D02*
X117367214Y-103404285D01*
X117367214Y-103404285D02*
X117367214Y-103261428D01*
X117367214Y-103261428D02*
X117331500Y-103190000D01*
X117331500Y-103190000D02*
X117260071Y-103118571D01*
X117260071Y-103118571D02*
X117117214Y-103082857D01*
X117117214Y-103082857D02*
X116867214Y-103082857D01*
X116867214Y-103082857D02*
X116724357Y-103118571D01*
X116724357Y-103118571D02*
X116652928Y-103190000D01*
X116652928Y-103190000D02*
X116617214Y-103261428D01*
X117331500Y-103868571D02*
X117367214Y-103975714D01*
X117367214Y-103975714D02*
X117367214Y-104154285D01*
X117367214Y-104154285D02*
X117331500Y-104225714D01*
X117331500Y-104225714D02*
X117295785Y-104261428D01*
X117295785Y-104261428D02*
X117224357Y-104297142D01*
X117224357Y-104297142D02*
X117152928Y-104297142D01*
X117152928Y-104297142D02*
X117081500Y-104261428D01*
X117081500Y-104261428D02*
X117045785Y-104225714D01*
X117045785Y-104225714D02*
X117010071Y-104154285D01*
X117010071Y-104154285D02*
X116974357Y-104011428D01*
X116974357Y-104011428D02*
X116938642Y-103939999D01*
X116938642Y-103939999D02*
X116902928Y-103904285D01*
X116902928Y-103904285D02*
X116831500Y-103868571D01*
X116831500Y-103868571D02*
X116760071Y-103868571D01*
X116760071Y-103868571D02*
X116688642Y-103904285D01*
X116688642Y-103904285D02*
X116652928Y-103939999D01*
X116652928Y-103939999D02*
X116617214Y-104011428D01*
X116617214Y-104011428D02*
X116617214Y-104189999D01*
X116617214Y-104189999D02*
X116652928Y-104297142D01*
X117295785Y-105047142D02*
X117331500Y-105011428D01*
X117331500Y-105011428D02*
X117367214Y-104904285D01*
X117367214Y-104904285D02*
X117367214Y-104832857D01*
X117367214Y-104832857D02*
X117331500Y-104725714D01*
X117331500Y-104725714D02*
X117260071Y-104654285D01*
X117260071Y-104654285D02*
X117188642Y-104618571D01*
X117188642Y-104618571D02*
X117045785Y-104582857D01*
X117045785Y-104582857D02*
X116938642Y-104582857D01*
X116938642Y-104582857D02*
X116795785Y-104618571D01*
X116795785Y-104618571D02*
X116724357Y-104654285D01*
X116724357Y-104654285D02*
X116652928Y-104725714D01*
X116652928Y-104725714D02*
X116617214Y-104832857D01*
X116617214Y-104832857D02*
X116617214Y-104904285D01*
X116617214Y-104904285D02*
X116652928Y-105011428D01*
X116652928Y-105011428D02*
X116688642Y-105047142D01*
X109502928Y-103077857D02*
X109502928Y-103435000D01*
X109717214Y-103006428D02*
X108967214Y-103256428D01*
X108967214Y-103256428D02*
X109717214Y-103506428D01*
X109717214Y-103756428D02*
X108967214Y-103756428D01*
X109717214Y-104113571D02*
X108967214Y-104113571D01*
X108967214Y-104113571D02*
X109717214Y-104542142D01*
X109717214Y-104542142D02*
X108967214Y-104542142D01*
X109717214Y-105292142D02*
X109717214Y-104863571D01*
X109717214Y-105077856D02*
X108967214Y-105077856D01*
X108967214Y-105077856D02*
X109074357Y-105006428D01*
X109074357Y-105006428D02*
X109145785Y-104934999D01*
X109145785Y-104934999D02*
X109181500Y-104863571D01*
X119752928Y-102565000D02*
X119752928Y-102922143D01*
X119967214Y-102493571D02*
X119217214Y-102743571D01*
X119217214Y-102743571D02*
X119967214Y-102993571D01*
X119217214Y-103386428D02*
X119217214Y-103529285D01*
X119217214Y-103529285D02*
X119252928Y-103600714D01*
X119252928Y-103600714D02*
X119324357Y-103672142D01*
X119324357Y-103672142D02*
X119467214Y-103707857D01*
X119467214Y-103707857D02*
X119717214Y-103707857D01*
X119717214Y-103707857D02*
X119860071Y-103672142D01*
X119860071Y-103672142D02*
X119931500Y-103600714D01*
X119931500Y-103600714D02*
X119967214Y-103529285D01*
X119967214Y-103529285D02*
X119967214Y-103386428D01*
X119967214Y-103386428D02*
X119931500Y-103315000D01*
X119931500Y-103315000D02*
X119860071Y-103243571D01*
X119860071Y-103243571D02*
X119717214Y-103207857D01*
X119717214Y-103207857D02*
X119467214Y-103207857D01*
X119467214Y-103207857D02*
X119324357Y-103243571D01*
X119324357Y-103243571D02*
X119252928Y-103315000D01*
X119252928Y-103315000D02*
X119217214Y-103386428D01*
X119217214Y-104029285D02*
X119824357Y-104029285D01*
X119824357Y-104029285D02*
X119895785Y-104064999D01*
X119895785Y-104064999D02*
X119931500Y-104100714D01*
X119931500Y-104100714D02*
X119967214Y-104172142D01*
X119967214Y-104172142D02*
X119967214Y-104314999D01*
X119967214Y-104314999D02*
X119931500Y-104386428D01*
X119931500Y-104386428D02*
X119895785Y-104422142D01*
X119895785Y-104422142D02*
X119824357Y-104457856D01*
X119824357Y-104457856D02*
X119217214Y-104457856D01*
X119217214Y-104707856D02*
X119217214Y-105136428D01*
X119967214Y-104922142D02*
X119217214Y-104922142D01*
X106952928Y-103107857D02*
X106952928Y-103465000D01*
X107167214Y-103036428D02*
X106417214Y-103286428D01*
X106417214Y-103286428D02*
X107167214Y-103536428D01*
X107167214Y-103786428D02*
X106417214Y-103786428D01*
X107167214Y-104143571D02*
X106417214Y-104143571D01*
X106417214Y-104143571D02*
X107167214Y-104572142D01*
X107167214Y-104572142D02*
X106417214Y-104572142D01*
X106417214Y-105072142D02*
X106417214Y-105143571D01*
X106417214Y-105143571D02*
X106452928Y-105214999D01*
X106452928Y-105214999D02*
X106488642Y-105250714D01*
X106488642Y-105250714D02*
X106560071Y-105286428D01*
X106560071Y-105286428D02*
X106702928Y-105322142D01*
X106702928Y-105322142D02*
X106881500Y-105322142D01*
X106881500Y-105322142D02*
X107024357Y-105286428D01*
X107024357Y-105286428D02*
X107095785Y-105250714D01*
X107095785Y-105250714D02*
X107131500Y-105214999D01*
X107131500Y-105214999D02*
X107167214Y-105143571D01*
X107167214Y-105143571D02*
X107167214Y-105072142D01*
X107167214Y-105072142D02*
X107131500Y-105000714D01*
X107131500Y-105000714D02*
X107095785Y-104964999D01*
X107095785Y-104964999D02*
X107024357Y-104929285D01*
X107024357Y-104929285D02*
X106881500Y-104893571D01*
X106881500Y-104893571D02*
X106702928Y-104893571D01*
X106702928Y-104893571D02*
X106560071Y-104929285D01*
X106560071Y-104929285D02*
X106488642Y-104964999D01*
X106488642Y-104964999D02*
X106452928Y-105000714D01*
X106452928Y-105000714D02*
X106417214Y-105072142D01*
X115114284Y-102322928D02*
X114757142Y-102322928D01*
X115185713Y-102537214D02*
X114935713Y-101787214D01*
X114935713Y-101787214D02*
X114685713Y-102537214D01*
X114435713Y-102537214D02*
X114435713Y-101787214D01*
X114435713Y-101787214D02*
X114007142Y-102537214D01*
X114007142Y-102537214D02*
X114007142Y-101787214D01*
X113685713Y-102322928D02*
X113328571Y-102322928D01*
X113757142Y-102537214D02*
X113507142Y-101787214D01*
X113507142Y-101787214D02*
X113257142Y-102537214D01*
X112649999Y-102537214D02*
X113007142Y-102537214D01*
X113007142Y-102537214D02*
X113007142Y-101787214D01*
X112257142Y-101787214D02*
X112114285Y-101787214D01*
X112114285Y-101787214D02*
X112042856Y-101822928D01*
X112042856Y-101822928D02*
X111971428Y-101894357D01*
X111971428Y-101894357D02*
X111935713Y-102037214D01*
X111935713Y-102037214D02*
X111935713Y-102287214D01*
X111935713Y-102287214D02*
X111971428Y-102430071D01*
X111971428Y-102430071D02*
X112042856Y-102501500D01*
X112042856Y-102501500D02*
X112114285Y-102537214D01*
X112114285Y-102537214D02*
X112257142Y-102537214D01*
X112257142Y-102537214D02*
X112328571Y-102501500D01*
X112328571Y-102501500D02*
X112399999Y-102430071D01*
X112399999Y-102430071D02*
X112435713Y-102287214D01*
X112435713Y-102287214D02*
X112435713Y-102037214D01*
X112435713Y-102037214D02*
X112399999Y-101894357D01*
X112399999Y-101894357D02*
X112328571Y-101822928D01*
X112328571Y-101822928D02*
X112257142Y-101787214D01*
X111221428Y-101822928D02*
X111292857Y-101787214D01*
X111292857Y-101787214D02*
X111399999Y-101787214D01*
X111399999Y-101787214D02*
X111507142Y-101822928D01*
X111507142Y-101822928D02*
X111578571Y-101894357D01*
X111578571Y-101894357D02*
X111614285Y-101965785D01*
X111614285Y-101965785D02*
X111649999Y-102108642D01*
X111649999Y-102108642D02*
X111649999Y-102215785D01*
X111649999Y-102215785D02*
X111614285Y-102358642D01*
X111614285Y-102358642D02*
X111578571Y-102430071D01*
X111578571Y-102430071D02*
X111507142Y-102501500D01*
X111507142Y-102501500D02*
X111399999Y-102537214D01*
X111399999Y-102537214D02*
X111328571Y-102537214D01*
X111328571Y-102537214D02*
X111221428Y-102501500D01*
X111221428Y-102501500D02*
X111185714Y-102465785D01*
X111185714Y-102465785D02*
X111185714Y-102215785D01*
X111185714Y-102215785D02*
X111328571Y-102215785D01*
X114102928Y-104431428D02*
X114067214Y-104360000D01*
X114067214Y-104360000D02*
X114067214Y-104252857D01*
X114067214Y-104252857D02*
X114102928Y-104145714D01*
X114102928Y-104145714D02*
X114174357Y-104074285D01*
X114174357Y-104074285D02*
X114245785Y-104038571D01*
X114245785Y-104038571D02*
X114388642Y-104002857D01*
X114388642Y-104002857D02*
X114495785Y-104002857D01*
X114495785Y-104002857D02*
X114638642Y-104038571D01*
X114638642Y-104038571D02*
X114710071Y-104074285D01*
X114710071Y-104074285D02*
X114781500Y-104145714D01*
X114781500Y-104145714D02*
X114817214Y-104252857D01*
X114817214Y-104252857D02*
X114817214Y-104324285D01*
X114817214Y-104324285D02*
X114781500Y-104431428D01*
X114781500Y-104431428D02*
X114745785Y-104467142D01*
X114745785Y-104467142D02*
X114495785Y-104467142D01*
X114495785Y-104467142D02*
X114495785Y-104324285D01*
M02*
