%TF.GenerationSoftware,KiCad,Pcbnew,(6.0.4)*%
%TF.CreationDate,2023-02-16T23:06:39+01:00*%
%TF.ProjectId,Apollo - DSP,41706f6c-6c6f-4202-9d20-4453502e6b69,rev?*%
%TF.SameCoordinates,Original*%
%TF.FileFunction,Legend,Top*%
%TF.FilePolarity,Positive*%
%FSLAX46Y46*%
G04 Gerber Fmt 4.6, Leading zero omitted, Abs format (unit mm)*
G04 Created by KiCad (PCBNEW (6.0.4)) date 2023-02-16 23:06:39*
%MOMM*%
%LPD*%
G01*
G04 APERTURE LIST*
%ADD10C,0.187500*%
%ADD11C,0.300000*%
%ADD12C,0.250000*%
%ADD13C,0.150000*%
%ADD14C,0.120000*%
%ADD15C,0.127000*%
%ADD16C,0.200000*%
G04 APERTURE END LIST*
D10*
X88925000Y-124171428D02*
X88889285Y-124242857D01*
X88889285Y-124350000D01*
X88925000Y-124457142D01*
X88996428Y-124528571D01*
X89067857Y-124564285D01*
X89210714Y-124600000D01*
X89317857Y-124600000D01*
X89460714Y-124564285D01*
X89532142Y-124528571D01*
X89603571Y-124457142D01*
X89639285Y-124350000D01*
X89639285Y-124278571D01*
X89603571Y-124171428D01*
X89567857Y-124135714D01*
X89317857Y-124135714D01*
X89317857Y-124278571D01*
X89639285Y-123814285D02*
X88889285Y-123814285D01*
X89639285Y-123385714D01*
X88889285Y-123385714D01*
X89639285Y-123028571D02*
X88889285Y-123028571D01*
X88889285Y-122850000D01*
X88925000Y-122742857D01*
X88996428Y-122671428D01*
X89067857Y-122635714D01*
X89210714Y-122600000D01*
X89317857Y-122600000D01*
X89460714Y-122635714D01*
X89532142Y-122671428D01*
X89603571Y-122742857D01*
X89639285Y-122850000D01*
X89639285Y-123028571D01*
X80300000Y-84639285D02*
X80300000Y-83889285D01*
X80621428Y-83960714D02*
X80657142Y-83925000D01*
X80728571Y-83889285D01*
X80907142Y-83889285D01*
X80978571Y-83925000D01*
X81014285Y-83960714D01*
X81050000Y-84032142D01*
X81050000Y-84103571D01*
X81014285Y-84210714D01*
X80585714Y-84639285D01*
X81050000Y-84639285D01*
X81800000Y-84567857D02*
X81764285Y-84603571D01*
X81657142Y-84639285D01*
X81585714Y-84639285D01*
X81478571Y-84603571D01*
X81407142Y-84532142D01*
X81371428Y-84460714D01*
X81335714Y-84317857D01*
X81335714Y-84210714D01*
X81371428Y-84067857D01*
X81407142Y-83996428D01*
X81478571Y-83925000D01*
X81585714Y-83889285D01*
X81657142Y-83889285D01*
X81764285Y-83925000D01*
X81800000Y-83960714D01*
X82692857Y-84639285D02*
X82692857Y-83889285D01*
X83050000Y-84139285D02*
X83050000Y-84639285D01*
X83050000Y-84210714D02*
X83085714Y-84175000D01*
X83157142Y-84139285D01*
X83264285Y-84139285D01*
X83335714Y-84175000D01*
X83371428Y-84246428D01*
X83371428Y-84639285D01*
X83621428Y-84139285D02*
X83907142Y-84139285D01*
X83728571Y-83889285D02*
X83728571Y-84532142D01*
X83764285Y-84603571D01*
X83835714Y-84639285D01*
X83907142Y-84639285D01*
X84442857Y-84603571D02*
X84371428Y-84639285D01*
X84228571Y-84639285D01*
X84157142Y-84603571D01*
X84121428Y-84532142D01*
X84121428Y-84246428D01*
X84157142Y-84175000D01*
X84228571Y-84139285D01*
X84371428Y-84139285D01*
X84442857Y-84175000D01*
X84478571Y-84246428D01*
X84478571Y-84317857D01*
X84121428Y-84389285D01*
X84800000Y-84639285D02*
X84800000Y-84139285D01*
X84800000Y-84282142D02*
X84835714Y-84210714D01*
X84871428Y-84175000D01*
X84942857Y-84139285D01*
X85014285Y-84139285D01*
X85157142Y-84139285D02*
X85442857Y-84139285D01*
X85264285Y-84639285D02*
X85264285Y-83996428D01*
X85300000Y-83925000D01*
X85371428Y-83889285D01*
X85442857Y-83889285D01*
X86014285Y-84639285D02*
X86014285Y-84246428D01*
X85978571Y-84175000D01*
X85907142Y-84139285D01*
X85764285Y-84139285D01*
X85692857Y-84175000D01*
X86014285Y-84603571D02*
X85942857Y-84639285D01*
X85764285Y-84639285D01*
X85692857Y-84603571D01*
X85657142Y-84532142D01*
X85657142Y-84460714D01*
X85692857Y-84389285D01*
X85764285Y-84353571D01*
X85942857Y-84353571D01*
X86014285Y-84317857D01*
X86692857Y-84603571D02*
X86621428Y-84639285D01*
X86478571Y-84639285D01*
X86407142Y-84603571D01*
X86371428Y-84567857D01*
X86335714Y-84496428D01*
X86335714Y-84282142D01*
X86371428Y-84210714D01*
X86407142Y-84175000D01*
X86478571Y-84139285D01*
X86621428Y-84139285D01*
X86692857Y-84175000D01*
X87300000Y-84603571D02*
X87228571Y-84639285D01*
X87085714Y-84639285D01*
X87014285Y-84603571D01*
X86978571Y-84532142D01*
X86978571Y-84246428D01*
X87014285Y-84175000D01*
X87085714Y-84139285D01*
X87228571Y-84139285D01*
X87300000Y-84175000D01*
X87335714Y-84246428D01*
X87335714Y-84317857D01*
X86978571Y-84389285D01*
X78871428Y-82489285D02*
X79335714Y-82489285D01*
X79085714Y-82775000D01*
X79192857Y-82775000D01*
X79264285Y-82810714D01*
X79300000Y-82846428D01*
X79335714Y-82917857D01*
X79335714Y-83096428D01*
X79300000Y-83167857D01*
X79264285Y-83203571D01*
X79192857Y-83239285D01*
X78978571Y-83239285D01*
X78907142Y-83203571D01*
X78871428Y-83167857D01*
X79550000Y-82489285D02*
X79800000Y-83239285D01*
X80050000Y-82489285D01*
X80228571Y-82489285D02*
X80692857Y-82489285D01*
X80442857Y-82775000D01*
X80550000Y-82775000D01*
X80621428Y-82810714D01*
X80657142Y-82846428D01*
X80692857Y-82917857D01*
X80692857Y-83096428D01*
X80657142Y-83167857D01*
X80621428Y-83203571D01*
X80550000Y-83239285D01*
X80335714Y-83239285D01*
X80264285Y-83203571D01*
X80228571Y-83167857D01*
D11*
X93042857Y-123978571D02*
X93042857Y-122478571D01*
X93614285Y-122478571D01*
X93757142Y-122550000D01*
X93828571Y-122621428D01*
X93900000Y-122764285D01*
X93900000Y-122978571D01*
X93828571Y-123121428D01*
X93757142Y-123192857D01*
X93614285Y-123264285D01*
X93042857Y-123264285D01*
X94471428Y-123907142D02*
X94685714Y-123978571D01*
X95042857Y-123978571D01*
X95185714Y-123907142D01*
X95257142Y-123835714D01*
X95328571Y-123692857D01*
X95328571Y-123550000D01*
X95257142Y-123407142D01*
X95185714Y-123335714D01*
X95042857Y-123264285D01*
X94757142Y-123192857D01*
X94614285Y-123121428D01*
X94542857Y-123050000D01*
X94471428Y-122907142D01*
X94471428Y-122764285D01*
X94542857Y-122621428D01*
X94614285Y-122550000D01*
X94757142Y-122478571D01*
X95114285Y-122478571D01*
X95328571Y-122550000D01*
X96828571Y-123978571D02*
X96328571Y-123264285D01*
X95971428Y-123978571D02*
X95971428Y-122478571D01*
X96542857Y-122478571D01*
X96685714Y-122550000D01*
X96757142Y-122621428D01*
X96828571Y-122764285D01*
X96828571Y-122978571D01*
X96757142Y-123121428D01*
X96685714Y-123192857D01*
X96542857Y-123264285D01*
X95971428Y-123264285D01*
X97400000Y-123550000D02*
X98114285Y-123550000D01*
X97257142Y-123978571D02*
X97757142Y-122478571D01*
X98257142Y-123978571D01*
X98757142Y-123978571D02*
X98757142Y-122478571D01*
X99257142Y-123550000D01*
X99757142Y-122478571D01*
X99757142Y-123978571D01*
D10*
X89035714Y-118603571D02*
X89142857Y-118639285D01*
X89321428Y-118639285D01*
X89392857Y-118603571D01*
X89428571Y-118567857D01*
X89464285Y-118496428D01*
X89464285Y-118425000D01*
X89428571Y-118353571D01*
X89392857Y-118317857D01*
X89321428Y-118282142D01*
X89178571Y-118246428D01*
X89107142Y-118210714D01*
X89071428Y-118175000D01*
X89035714Y-118103571D01*
X89035714Y-118032142D01*
X89071428Y-117960714D01*
X89107142Y-117925000D01*
X89178571Y-117889285D01*
X89357142Y-117889285D01*
X89464285Y-117925000D01*
X90214285Y-118567857D02*
X90178571Y-118603571D01*
X90071428Y-118639285D01*
X90000000Y-118639285D01*
X89892857Y-118603571D01*
X89821428Y-118532142D01*
X89785714Y-118460714D01*
X89750000Y-118317857D01*
X89750000Y-118210714D01*
X89785714Y-118067857D01*
X89821428Y-117996428D01*
X89892857Y-117925000D01*
X90000000Y-117889285D01*
X90071428Y-117889285D01*
X90178571Y-117925000D01*
X90214285Y-117960714D01*
X90535714Y-118639285D02*
X90535714Y-117889285D01*
X90964285Y-118639285D02*
X90642857Y-118210714D01*
X90964285Y-117889285D02*
X90535714Y-118317857D01*
X107282142Y-82289285D02*
X107710714Y-82289285D01*
X107496428Y-83039285D02*
X107496428Y-82289285D01*
X107889285Y-83039285D02*
X108282142Y-82539285D01*
X107889285Y-82539285D02*
X108282142Y-83039285D01*
D11*
X108650000Y-122078571D02*
X108650000Y-121078571D01*
X108650000Y-121221428D02*
X108721428Y-121150000D01*
X108864285Y-121078571D01*
X109078571Y-121078571D01*
X109221428Y-121150000D01*
X109292857Y-121292857D01*
X109292857Y-122078571D01*
X109292857Y-121292857D02*
X109364285Y-121150000D01*
X109507142Y-121078571D01*
X109721428Y-121078571D01*
X109864285Y-121150000D01*
X109935714Y-121292857D01*
X109935714Y-122078571D01*
X110650000Y-122078571D02*
X110650000Y-121078571D01*
X110650000Y-120578571D02*
X110578571Y-120650000D01*
X110650000Y-120721428D01*
X110721428Y-120650000D01*
X110650000Y-120578571D01*
X110650000Y-120721428D01*
X112007142Y-122007142D02*
X111864285Y-122078571D01*
X111578571Y-122078571D01*
X111435714Y-122007142D01*
X111364285Y-121935714D01*
X111292857Y-121792857D01*
X111292857Y-121364285D01*
X111364285Y-121221428D01*
X111435714Y-121150000D01*
X111578571Y-121078571D01*
X111864285Y-121078571D01*
X112007142Y-121150000D01*
X112650000Y-122078571D02*
X112650000Y-121078571D01*
X112650000Y-121364285D02*
X112721428Y-121221428D01*
X112792857Y-121150000D01*
X112935714Y-121078571D01*
X113078571Y-121078571D01*
X113792857Y-122078571D02*
X113650000Y-122007142D01*
X113578571Y-121935714D01*
X113507142Y-121792857D01*
X113507142Y-121364285D01*
X113578571Y-121221428D01*
X113650000Y-121150000D01*
X113792857Y-121078571D01*
X114007142Y-121078571D01*
X114150000Y-121150000D01*
X114221428Y-121221428D01*
X114292857Y-121364285D01*
X114292857Y-121792857D01*
X114221428Y-121935714D01*
X114150000Y-122007142D01*
X114007142Y-122078571D01*
X113792857Y-122078571D01*
X114864285Y-122007142D02*
X115078571Y-122078571D01*
X115435714Y-122078571D01*
X115578571Y-122007142D01*
X115650000Y-121935714D01*
X115721428Y-121792857D01*
X115721428Y-121650000D01*
X115650000Y-121507142D01*
X115578571Y-121435714D01*
X115435714Y-121364285D01*
X115150000Y-121292857D01*
X115007142Y-121221428D01*
X114935714Y-121150000D01*
X114864285Y-121007142D01*
X114864285Y-120864285D01*
X114935714Y-120721428D01*
X115007142Y-120650000D01*
X115150000Y-120578571D01*
X115507142Y-120578571D01*
X115721428Y-120650000D01*
X116364285Y-122078571D02*
X116364285Y-120578571D01*
X116721428Y-120578571D01*
X116935714Y-120650000D01*
X117078571Y-120792857D01*
X117150000Y-120935714D01*
X117221428Y-121221428D01*
X117221428Y-121435714D01*
X117150000Y-121721428D01*
X117078571Y-121864285D01*
X116935714Y-122007142D01*
X116721428Y-122078571D01*
X116364285Y-122078571D01*
D10*
X102635714Y-83789285D02*
X102635714Y-84396428D01*
X102671428Y-84467857D01*
X102707142Y-84503571D01*
X102778571Y-84539285D01*
X102921428Y-84539285D01*
X102992857Y-84503571D01*
X103028571Y-84467857D01*
X103064285Y-84396428D01*
X103064285Y-83789285D01*
X103385714Y-84325000D02*
X103742857Y-84325000D01*
X103314285Y-84539285D02*
X103564285Y-83789285D01*
X103814285Y-84539285D01*
X104492857Y-84539285D02*
X104242857Y-84182142D01*
X104064285Y-84539285D02*
X104064285Y-83789285D01*
X104350000Y-83789285D01*
X104421428Y-83825000D01*
X104457142Y-83860714D01*
X104492857Y-83932142D01*
X104492857Y-84039285D01*
X104457142Y-84110714D01*
X104421428Y-84146428D01*
X104350000Y-84182142D01*
X104064285Y-84182142D01*
X104707142Y-83789285D02*
X105135714Y-83789285D01*
X104921428Y-84539285D02*
X104921428Y-83789285D01*
X105957142Y-84539285D02*
X105957142Y-83789285D01*
X106314285Y-84039285D02*
X106314285Y-84539285D01*
X106314285Y-84110714D02*
X106350000Y-84075000D01*
X106421428Y-84039285D01*
X106528571Y-84039285D01*
X106600000Y-84075000D01*
X106635714Y-84146428D01*
X106635714Y-84539285D01*
X106885714Y-84039285D02*
X107171428Y-84039285D01*
X106992857Y-83789285D02*
X106992857Y-84432142D01*
X107028571Y-84503571D01*
X107100000Y-84539285D01*
X107171428Y-84539285D01*
X107707142Y-84503571D02*
X107635714Y-84539285D01*
X107492857Y-84539285D01*
X107421428Y-84503571D01*
X107385714Y-84432142D01*
X107385714Y-84146428D01*
X107421428Y-84075000D01*
X107492857Y-84039285D01*
X107635714Y-84039285D01*
X107707142Y-84075000D01*
X107742857Y-84146428D01*
X107742857Y-84217857D01*
X107385714Y-84289285D01*
X108064285Y-84539285D02*
X108064285Y-84039285D01*
X108064285Y-84182142D02*
X108100000Y-84110714D01*
X108135714Y-84075000D01*
X108207142Y-84039285D01*
X108278571Y-84039285D01*
X108421428Y-84039285D02*
X108707142Y-84039285D01*
X108528571Y-84539285D02*
X108528571Y-83896428D01*
X108564285Y-83825000D01*
X108635714Y-83789285D01*
X108707142Y-83789285D01*
X109278571Y-84539285D02*
X109278571Y-84146428D01*
X109242857Y-84075000D01*
X109171428Y-84039285D01*
X109028571Y-84039285D01*
X108957142Y-84075000D01*
X109278571Y-84503571D02*
X109207142Y-84539285D01*
X109028571Y-84539285D01*
X108957142Y-84503571D01*
X108921428Y-84432142D01*
X108921428Y-84360714D01*
X108957142Y-84289285D01*
X109028571Y-84253571D01*
X109207142Y-84253571D01*
X109278571Y-84217857D01*
X109957142Y-84503571D02*
X109885714Y-84539285D01*
X109742857Y-84539285D01*
X109671428Y-84503571D01*
X109635714Y-84467857D01*
X109599999Y-84396428D01*
X109599999Y-84182142D01*
X109635714Y-84110714D01*
X109671428Y-84075000D01*
X109742857Y-84039285D01*
X109885714Y-84039285D01*
X109957142Y-84075000D01*
X110564285Y-84503571D02*
X110492857Y-84539285D01*
X110349999Y-84539285D01*
X110278571Y-84503571D01*
X110242857Y-84432142D01*
X110242857Y-84146428D01*
X110278571Y-84075000D01*
X110349999Y-84039285D01*
X110492857Y-84039285D01*
X110564285Y-84075000D01*
X110599999Y-84146428D01*
X110599999Y-84217857D01*
X110242857Y-84289285D01*
X87028571Y-82525000D02*
X86957142Y-82489285D01*
X86850000Y-82489285D01*
X86742857Y-82525000D01*
X86671428Y-82596428D01*
X86635714Y-82667857D01*
X86600000Y-82810714D01*
X86600000Y-82917857D01*
X86635714Y-83060714D01*
X86671428Y-83132142D01*
X86742857Y-83203571D01*
X86850000Y-83239285D01*
X86921428Y-83239285D01*
X87028571Y-83203571D01*
X87064285Y-83167857D01*
X87064285Y-82917857D01*
X86921428Y-82917857D01*
X87385714Y-83239285D02*
X87385714Y-82489285D01*
X87814285Y-83239285D01*
X87814285Y-82489285D01*
X88171428Y-83239285D02*
X88171428Y-82489285D01*
X88350000Y-82489285D01*
X88457142Y-82525000D01*
X88528571Y-82596428D01*
X88564285Y-82667857D01*
X88600000Y-82810714D01*
X88600000Y-82917857D01*
X88564285Y-83060714D01*
X88528571Y-83132142D01*
X88457142Y-83203571D01*
X88350000Y-83239285D01*
X88171428Y-83239285D01*
X76864285Y-119025000D02*
X77221428Y-119025000D01*
X76792857Y-119239285D02*
X77042857Y-118489285D01*
X77292857Y-119239285D01*
X77542857Y-118739285D02*
X77542857Y-119239285D01*
X77542857Y-118810714D02*
X77578571Y-118775000D01*
X77650000Y-118739285D01*
X77757142Y-118739285D01*
X77828571Y-118775000D01*
X77864285Y-118846428D01*
X77864285Y-119239285D01*
X78542857Y-119239285D02*
X78542857Y-118846428D01*
X78507142Y-118775000D01*
X78435714Y-118739285D01*
X78292857Y-118739285D01*
X78221428Y-118775000D01*
X78542857Y-119203571D02*
X78471428Y-119239285D01*
X78292857Y-119239285D01*
X78221428Y-119203571D01*
X78185714Y-119132142D01*
X78185714Y-119060714D01*
X78221428Y-118989285D01*
X78292857Y-118953571D01*
X78471428Y-118953571D01*
X78542857Y-118917857D01*
X79007142Y-119239285D02*
X78935714Y-119203571D01*
X78900000Y-119132142D01*
X78900000Y-118489285D01*
X79400000Y-119239285D02*
X79328571Y-119203571D01*
X79292857Y-119167857D01*
X79257142Y-119096428D01*
X79257142Y-118882142D01*
X79292857Y-118810714D01*
X79328571Y-118775000D01*
X79400000Y-118739285D01*
X79507142Y-118739285D01*
X79578571Y-118775000D01*
X79614285Y-118810714D01*
X79650000Y-118882142D01*
X79650000Y-119096428D01*
X79614285Y-119167857D01*
X79578571Y-119203571D01*
X79507142Y-119239285D01*
X79400000Y-119239285D01*
X80292857Y-118739285D02*
X80292857Y-119346428D01*
X80257142Y-119417857D01*
X80221428Y-119453571D01*
X80150000Y-119489285D01*
X80042857Y-119489285D01*
X79971428Y-119453571D01*
X80292857Y-119203571D02*
X80221428Y-119239285D01*
X80078571Y-119239285D01*
X80007142Y-119203571D01*
X79971428Y-119167857D01*
X79935714Y-119096428D01*
X79935714Y-118882142D01*
X79971428Y-118810714D01*
X80007142Y-118775000D01*
X80078571Y-118739285D01*
X80221428Y-118739285D01*
X80292857Y-118775000D01*
X81221428Y-119239285D02*
X81221428Y-118489285D01*
X81578571Y-118739285D02*
X81578571Y-119239285D01*
X81578571Y-118810714D02*
X81614285Y-118775000D01*
X81685714Y-118739285D01*
X81792857Y-118739285D01*
X81864285Y-118775000D01*
X81900000Y-118846428D01*
X81900000Y-119239285D01*
X120152380Y-87961904D02*
X120961904Y-87961904D01*
X121057142Y-87914285D01*
X121104761Y-87866666D01*
X121152380Y-87771428D01*
X121152380Y-87580952D01*
X121104761Y-87485714D01*
X121057142Y-87438095D01*
X120961904Y-87390476D01*
X120152380Y-87390476D01*
X121104761Y-86961904D02*
X121152380Y-86819047D01*
X121152380Y-86580952D01*
X121104761Y-86485714D01*
X121057142Y-86438095D01*
X120961904Y-86390476D01*
X120866666Y-86390476D01*
X120771428Y-86438095D01*
X120723809Y-86485714D01*
X120676190Y-86580952D01*
X120628571Y-86771428D01*
X120580952Y-86866666D01*
X120533333Y-86914285D01*
X120438095Y-86961904D01*
X120342857Y-86961904D01*
X120247619Y-86914285D01*
X120200000Y-86866666D01*
X120152380Y-86771428D01*
X120152380Y-86533333D01*
X120200000Y-86390476D01*
X120628571Y-85628571D02*
X120676190Y-85485714D01*
X120723809Y-85438095D01*
X120819047Y-85390476D01*
X120961904Y-85390476D01*
X121057142Y-85438095D01*
X121104761Y-85485714D01*
X121152380Y-85580952D01*
X121152380Y-85961904D01*
X120152380Y-85961904D01*
X120152380Y-85628571D01*
X120200000Y-85533333D01*
X120247619Y-85485714D01*
X120342857Y-85438095D01*
X120438095Y-85438095D01*
X120533333Y-85485714D01*
X120580952Y-85533333D01*
X120628571Y-85628571D01*
X120628571Y-85961904D01*
X121057142Y-84390476D02*
X121104761Y-84438095D01*
X121152380Y-84580952D01*
X121152380Y-84676190D01*
X121104761Y-84819047D01*
X121009523Y-84914285D01*
X120914285Y-84961904D01*
X120723809Y-85009523D01*
X120580952Y-85009523D01*
X120390476Y-84961904D01*
X120295238Y-84914285D01*
X120200000Y-84819047D01*
X120152380Y-84676190D01*
X120152380Y-84580952D01*
X120200000Y-84438095D01*
X120247619Y-84390476D01*
X100967857Y-123967857D02*
X100932142Y-124003571D01*
X100825000Y-124039285D01*
X100753571Y-124039285D01*
X100646428Y-124003571D01*
X100575000Y-123932142D01*
X100539285Y-123860714D01*
X100503571Y-123717857D01*
X100503571Y-123610714D01*
X100539285Y-123467857D01*
X100575000Y-123396428D01*
X100646428Y-123325000D01*
X100753571Y-123289285D01*
X100825000Y-123289285D01*
X100932142Y-123325000D01*
X100967857Y-123360714D01*
X101253571Y-124003571D02*
X101360714Y-124039285D01*
X101539285Y-124039285D01*
X101610714Y-124003571D01*
X101646428Y-123967857D01*
X101682142Y-123896428D01*
X101682142Y-123825000D01*
X101646428Y-123753571D01*
X101610714Y-123717857D01*
X101539285Y-123682142D01*
X101396428Y-123646428D01*
X101325000Y-123610714D01*
X101289285Y-123575000D01*
X101253571Y-123503571D01*
X101253571Y-123432142D01*
X101289285Y-123360714D01*
X101325000Y-123325000D01*
X101396428Y-123289285D01*
X101575000Y-123289285D01*
X101682142Y-123325000D01*
X102217857Y-124325000D02*
X102182142Y-124289285D01*
X102110714Y-124182142D01*
X102075000Y-124110714D01*
X102039285Y-124003571D01*
X102003571Y-123825000D01*
X102003571Y-123682142D01*
X102039285Y-123503571D01*
X102075000Y-123396428D01*
X102110714Y-123325000D01*
X102182142Y-123217857D01*
X102217857Y-123182142D01*
X102503571Y-124039285D02*
X102503571Y-123289285D01*
X102789285Y-123289285D01*
X102860714Y-123325000D01*
X102896428Y-123360714D01*
X102932142Y-123432142D01*
X102932142Y-123539285D01*
X102896428Y-123610714D01*
X102860714Y-123646428D01*
X102789285Y-123682142D01*
X102503571Y-123682142D01*
X103682142Y-123967857D02*
X103646428Y-124003571D01*
X103539285Y-124039285D01*
X103467857Y-124039285D01*
X103360714Y-124003571D01*
X103289285Y-123932142D01*
X103253571Y-123860714D01*
X103217857Y-123717857D01*
X103217857Y-123610714D01*
X103253571Y-123467857D01*
X103289285Y-123396428D01*
X103360714Y-123325000D01*
X103467857Y-123289285D01*
X103539285Y-123289285D01*
X103646428Y-123325000D01*
X103682142Y-123360714D01*
X104360714Y-123289285D02*
X104003571Y-123289285D01*
X103967857Y-123646428D01*
X104003571Y-123610714D01*
X104075000Y-123575000D01*
X104253571Y-123575000D01*
X104325000Y-123610714D01*
X104360714Y-123646428D01*
X104396428Y-123717857D01*
X104396428Y-123896428D01*
X104360714Y-123967857D01*
X104325000Y-124003571D01*
X104253571Y-124039285D01*
X104075000Y-124039285D01*
X104003571Y-124003571D01*
X103967857Y-123967857D01*
X104646428Y-124325000D02*
X104682142Y-124289285D01*
X104753571Y-124182142D01*
X104789285Y-124110714D01*
X104825000Y-124003571D01*
X104860714Y-123825000D01*
X104860714Y-123682142D01*
X104825000Y-123503571D01*
X104789285Y-123396428D01*
X104753571Y-123325000D01*
X104682142Y-123217857D01*
X104646428Y-123182142D01*
D12*
X53604761Y-89804761D02*
X53747619Y-89852380D01*
X53985714Y-89852380D01*
X54080952Y-89804761D01*
X54128571Y-89757142D01*
X54176190Y-89661904D01*
X54176190Y-89566666D01*
X54128571Y-89471428D01*
X54080952Y-89423809D01*
X53985714Y-89376190D01*
X53795238Y-89328571D01*
X53700000Y-89280952D01*
X53652380Y-89233333D01*
X53604761Y-89138095D01*
X53604761Y-89042857D01*
X53652380Y-88947619D01*
X53700000Y-88900000D01*
X53795238Y-88852380D01*
X54033333Y-88852380D01*
X54176190Y-88900000D01*
X54461904Y-88852380D02*
X55033333Y-88852380D01*
X54747619Y-89852380D02*
X54747619Y-88852380D01*
X55319047Y-89566666D02*
X55795238Y-89566666D01*
X55223809Y-89852380D02*
X55557142Y-88852380D01*
X55890476Y-89852380D01*
X56080952Y-88852380D02*
X56652380Y-88852380D01*
X56366666Y-89852380D02*
X56366666Y-88852380D01*
X56985714Y-88852380D02*
X56985714Y-89661904D01*
X57033333Y-89757142D01*
X57080952Y-89804761D01*
X57176190Y-89852380D01*
X57366666Y-89852380D01*
X57461904Y-89804761D01*
X57509523Y-89757142D01*
X57557142Y-89661904D01*
X57557142Y-88852380D01*
X57985714Y-89804761D02*
X58128571Y-89852380D01*
X58366666Y-89852380D01*
X58461904Y-89804761D01*
X58509523Y-89757142D01*
X58557142Y-89661904D01*
X58557142Y-89566666D01*
X58509523Y-89471428D01*
X58461904Y-89423809D01*
X58366666Y-89376190D01*
X58176190Y-89328571D01*
X58080952Y-89280952D01*
X58033333Y-89233333D01*
X57985714Y-89138095D01*
X57985714Y-89042857D01*
X58033333Y-88947619D01*
X58080952Y-88900000D01*
X58176190Y-88852380D01*
X58414285Y-88852380D01*
X58557142Y-88900000D01*
X59271428Y-90233333D02*
X59223809Y-90185714D01*
X59128571Y-90042857D01*
X59080952Y-89947619D01*
X59033333Y-89804761D01*
X58985714Y-89566666D01*
X58985714Y-89376190D01*
X59033333Y-89138095D01*
X59080952Y-88995238D01*
X59128571Y-88900000D01*
X59223809Y-88757142D01*
X59271428Y-88709523D01*
X59652380Y-89852380D02*
X59652380Y-88852380D01*
X60033333Y-88852380D01*
X60128571Y-88900000D01*
X60176190Y-88947619D01*
X60223809Y-89042857D01*
X60223809Y-89185714D01*
X60176190Y-89280952D01*
X60128571Y-89328571D01*
X60033333Y-89376190D01*
X59652380Y-89376190D01*
X61223809Y-89757142D02*
X61176190Y-89804761D01*
X61033333Y-89852380D01*
X60938095Y-89852380D01*
X60795238Y-89804761D01*
X60700000Y-89709523D01*
X60652380Y-89614285D01*
X60604761Y-89423809D01*
X60604761Y-89280952D01*
X60652380Y-89090476D01*
X60700000Y-88995238D01*
X60795238Y-88900000D01*
X60938095Y-88852380D01*
X61033333Y-88852380D01*
X61176190Y-88900000D01*
X61223809Y-88947619D01*
X62176190Y-89852380D02*
X61604761Y-89852380D01*
X61890476Y-89852380D02*
X61890476Y-88852380D01*
X61795238Y-88995238D01*
X61700000Y-89090476D01*
X61604761Y-89138095D01*
X62509523Y-88852380D02*
X63128571Y-88852380D01*
X62795238Y-89233333D01*
X62938095Y-89233333D01*
X63033333Y-89280952D01*
X63080952Y-89328571D01*
X63128571Y-89423809D01*
X63128571Y-89661904D01*
X63080952Y-89757142D01*
X63033333Y-89804761D01*
X62938095Y-89852380D01*
X62652380Y-89852380D01*
X62557142Y-89804761D01*
X62509523Y-89757142D01*
X63461904Y-90233333D02*
X63509523Y-90185714D01*
X63604761Y-90042857D01*
X63652380Y-89947619D01*
X63700000Y-89804761D01*
X63747619Y-89566666D01*
X63747619Y-89376190D01*
X63700000Y-89138095D01*
X63652380Y-88995238D01*
X63604761Y-88900000D01*
X63509523Y-88757142D01*
X63461904Y-88709523D01*
D10*
X92682142Y-83003571D02*
X92789285Y-83039285D01*
X92967857Y-83039285D01*
X93039285Y-83003571D01*
X93075000Y-82967857D01*
X93110714Y-82896428D01*
X93110714Y-82825000D01*
X93075000Y-82753571D01*
X93039285Y-82717857D01*
X92967857Y-82682142D01*
X92825000Y-82646428D01*
X92753571Y-82610714D01*
X92717857Y-82575000D01*
X92682142Y-82503571D01*
X92682142Y-82432142D01*
X92717857Y-82360714D01*
X92753571Y-82325000D01*
X92825000Y-82289285D01*
X93003571Y-82289285D01*
X93110714Y-82325000D01*
X93360714Y-82289285D02*
X93539285Y-83039285D01*
X93682142Y-82503571D01*
X93825000Y-83039285D01*
X94003571Y-82289285D01*
X94717857Y-82967857D02*
X94682142Y-83003571D01*
X94575000Y-83039285D01*
X94503571Y-83039285D01*
X94396428Y-83003571D01*
X94325000Y-82932142D01*
X94289285Y-82860714D01*
X94253571Y-82717857D01*
X94253571Y-82610714D01*
X94289285Y-82467857D01*
X94325000Y-82396428D01*
X94396428Y-82325000D01*
X94503571Y-82289285D01*
X94575000Y-82289285D01*
X94682142Y-82325000D01*
X94717857Y-82360714D01*
D11*
X95735714Y-93978571D02*
X95735714Y-92478571D01*
X96307142Y-92478571D01*
X96450000Y-92550000D01*
X96521428Y-92621428D01*
X96592857Y-92764285D01*
X96592857Y-92978571D01*
X96521428Y-93121428D01*
X96450000Y-93192857D01*
X96307142Y-93264285D01*
X95735714Y-93264285D01*
X97450000Y-93978571D02*
X97307142Y-93907142D01*
X97235714Y-93835714D01*
X97164285Y-93692857D01*
X97164285Y-93264285D01*
X97235714Y-93121428D01*
X97307142Y-93050000D01*
X97450000Y-92978571D01*
X97664285Y-92978571D01*
X97807142Y-93050000D01*
X97878571Y-93121428D01*
X97950000Y-93264285D01*
X97950000Y-93692857D01*
X97878571Y-93835714D01*
X97807142Y-93907142D01*
X97664285Y-93978571D01*
X97450000Y-93978571D01*
X98450000Y-92978571D02*
X98735714Y-93978571D01*
X99021428Y-93264285D01*
X99307142Y-93978571D01*
X99592857Y-92978571D01*
X100735714Y-93907142D02*
X100592857Y-93978571D01*
X100307142Y-93978571D01*
X100164285Y-93907142D01*
X100092857Y-93764285D01*
X100092857Y-93192857D01*
X100164285Y-93050000D01*
X100307142Y-92978571D01*
X100592857Y-92978571D01*
X100735714Y-93050000D01*
X100807142Y-93192857D01*
X100807142Y-93335714D01*
X100092857Y-93478571D01*
X101450000Y-93978571D02*
X101450000Y-92978571D01*
X101450000Y-93264285D02*
X101521428Y-93121428D01*
X101592857Y-93050000D01*
X101735714Y-92978571D01*
X101878571Y-92978571D01*
D10*
X109828571Y-82425000D02*
X109757142Y-82389285D01*
X109650000Y-82389285D01*
X109542857Y-82425000D01*
X109471428Y-82496428D01*
X109435714Y-82567857D01*
X109400000Y-82710714D01*
X109400000Y-82817857D01*
X109435714Y-82960714D01*
X109471428Y-83032142D01*
X109542857Y-83103571D01*
X109650000Y-83139285D01*
X109721428Y-83139285D01*
X109828571Y-83103571D01*
X109864285Y-83067857D01*
X109864285Y-82817857D01*
X109721428Y-82817857D01*
X110185714Y-83139285D02*
X110185714Y-82389285D01*
X110614285Y-83139285D01*
X110614285Y-82389285D01*
X110971428Y-83139285D02*
X110971428Y-82389285D01*
X111150000Y-82389285D01*
X111257142Y-82425000D01*
X111328571Y-82496428D01*
X111364285Y-82567857D01*
X111400000Y-82710714D01*
X111400000Y-82817857D01*
X111364285Y-82960714D01*
X111328571Y-83032142D01*
X111257142Y-83103571D01*
X111150000Y-83139285D01*
X110971428Y-83139285D01*
D13*
X54857142Y-83250000D02*
X54771428Y-83207142D01*
X54642857Y-83207142D01*
X54514285Y-83250000D01*
X54428571Y-83335714D01*
X54385714Y-83421428D01*
X54342857Y-83592857D01*
X54342857Y-83721428D01*
X54385714Y-83892857D01*
X54428571Y-83978571D01*
X54514285Y-84064285D01*
X54642857Y-84107142D01*
X54728571Y-84107142D01*
X54857142Y-84064285D01*
X54899999Y-84021428D01*
X54899999Y-83721428D01*
X54728571Y-83721428D01*
X55285714Y-84107142D02*
X55285714Y-83507142D01*
X55285714Y-83207142D02*
X55242857Y-83250000D01*
X55285714Y-83292857D01*
X55328571Y-83250000D01*
X55285714Y-83207142D01*
X55285714Y-83292857D01*
X55585714Y-83507142D02*
X55928571Y-83507142D01*
X55714285Y-83207142D02*
X55714285Y-83978571D01*
X55757142Y-84064285D01*
X55842857Y-84107142D01*
X55928571Y-84107142D01*
X56228571Y-84107142D02*
X56228571Y-83207142D01*
X56228571Y-83635714D02*
X56742857Y-83635714D01*
X56742857Y-84107142D02*
X56742857Y-83207142D01*
X57557142Y-83507142D02*
X57557142Y-84107142D01*
X57171428Y-83507142D02*
X57171428Y-83978571D01*
X57214285Y-84064285D01*
X57299999Y-84107142D01*
X57428571Y-84107142D01*
X57514285Y-84064285D01*
X57557142Y-84021428D01*
X57985714Y-84107142D02*
X57985714Y-83207142D01*
X57985714Y-83550000D02*
X58071428Y-83507142D01*
X58242857Y-83507142D01*
X58328571Y-83550000D01*
X58371428Y-83592857D01*
X58414285Y-83678571D01*
X58414285Y-83935714D01*
X58371428Y-84021428D01*
X58328571Y-84064285D01*
X58242857Y-84107142D01*
X58071428Y-84107142D01*
X57985714Y-84064285D01*
X58799999Y-84021428D02*
X58842857Y-84064285D01*
X58799999Y-84107142D01*
X58757142Y-84064285D01*
X58799999Y-84021428D01*
X58799999Y-84107142D01*
X58799999Y-83550000D02*
X58842857Y-83592857D01*
X58799999Y-83635714D01*
X58757142Y-83592857D01*
X58799999Y-83550000D01*
X58799999Y-83635714D01*
X59785714Y-83207142D02*
X60299999Y-83207142D01*
X60042857Y-84107142D02*
X60042857Y-83207142D01*
X60728571Y-84107142D02*
X60642857Y-84064285D01*
X60599999Y-84021428D01*
X60557142Y-83935714D01*
X60557142Y-83678571D01*
X60599999Y-83592857D01*
X60642857Y-83550000D01*
X60728571Y-83507142D01*
X60857142Y-83507142D01*
X60942857Y-83550000D01*
X60985714Y-83592857D01*
X61028571Y-83678571D01*
X61028571Y-83935714D01*
X60985714Y-84021428D01*
X60942857Y-84064285D01*
X60857142Y-84107142D01*
X60728571Y-84107142D01*
X61414285Y-84107142D02*
X61414285Y-83507142D01*
X61414285Y-83592857D02*
X61457142Y-83550000D01*
X61542857Y-83507142D01*
X61671428Y-83507142D01*
X61757142Y-83550000D01*
X61799999Y-83635714D01*
X61799999Y-84107142D01*
X61799999Y-83635714D02*
X61842857Y-83550000D01*
X61928571Y-83507142D01*
X62057142Y-83507142D01*
X62142857Y-83550000D01*
X62185714Y-83635714D01*
X62185714Y-84107142D01*
X62614285Y-84107142D02*
X62614285Y-83507142D01*
X62614285Y-83592857D02*
X62657142Y-83550000D01*
X62742857Y-83507142D01*
X62871428Y-83507142D01*
X62957142Y-83550000D01*
X62999999Y-83635714D01*
X62999999Y-84107142D01*
X62999999Y-83635714D02*
X63042857Y-83550000D01*
X63128571Y-83507142D01*
X63257142Y-83507142D01*
X63342857Y-83550000D01*
X63385714Y-83635714D01*
X63385714Y-84107142D01*
X63728571Y-83507142D02*
X63942857Y-84107142D01*
X64157142Y-83507142D02*
X63942857Y-84107142D01*
X63857142Y-84321428D01*
X63814285Y-84364285D01*
X63728571Y-84407142D01*
X64457142Y-83292857D02*
X64499999Y-83250000D01*
X64585714Y-83207142D01*
X64799999Y-83207142D01*
X64885714Y-83250000D01*
X64928571Y-83292857D01*
X64971428Y-83378571D01*
X64971428Y-83464285D01*
X64928571Y-83592857D01*
X64414285Y-84107142D01*
X64971428Y-84107142D01*
X65271428Y-83207142D02*
X65871428Y-83207142D01*
X65485714Y-84107142D01*
X66385714Y-83207142D02*
X66471428Y-83207142D01*
X66557142Y-83250000D01*
X66599999Y-83292857D01*
X66642857Y-83378571D01*
X66685714Y-83550000D01*
X66685714Y-83764285D01*
X66642857Y-83935714D01*
X66599999Y-84021428D01*
X66557142Y-84064285D01*
X66471428Y-84107142D01*
X66385714Y-84107142D01*
X66299999Y-84064285D01*
X66257142Y-84021428D01*
X66214285Y-83935714D01*
X66171428Y-83764285D01*
X66171428Y-83550000D01*
X66214285Y-83378571D01*
X66257142Y-83292857D01*
X66299999Y-83250000D01*
X66385714Y-83207142D01*
X67500000Y-83207142D02*
X67071428Y-83207142D01*
X67028571Y-83635714D01*
X67071428Y-83592857D01*
X67157142Y-83550000D01*
X67371428Y-83550000D01*
X67457142Y-83592857D01*
X67500000Y-83635714D01*
X67542857Y-83721428D01*
X67542857Y-83935714D01*
X67500000Y-84021428D01*
X67457142Y-84064285D01*
X67371428Y-84107142D01*
X67157142Y-84107142D01*
X67071428Y-84064285D01*
X67028571Y-84021428D01*
X68099999Y-83207142D02*
X68185714Y-83207142D01*
X68271428Y-83250000D01*
X68314285Y-83292857D01*
X68357142Y-83378571D01*
X68399999Y-83550000D01*
X68399999Y-83764285D01*
X68357142Y-83935714D01*
X68314285Y-84021428D01*
X68271428Y-84064285D01*
X68185714Y-84107142D01*
X68099999Y-84107142D01*
X68014285Y-84064285D01*
X67971428Y-84021428D01*
X67928571Y-83935714D01*
X67885714Y-83764285D01*
X67885714Y-83550000D01*
X67928571Y-83378571D01*
X67971428Y-83292857D01*
X68014285Y-83250000D01*
X68099999Y-83207142D01*
X68742857Y-83292857D02*
X68785714Y-83250000D01*
X68871428Y-83207142D01*
X69085714Y-83207142D01*
X69171428Y-83250000D01*
X69214285Y-83292857D01*
X69257142Y-83378571D01*
X69257142Y-83464285D01*
X69214285Y-83592857D01*
X68699999Y-84107142D01*
X69257142Y-84107142D01*
X61536904Y-80508333D02*
X62132142Y-80508333D01*
X61417857Y-80865476D02*
X61834523Y-79615476D01*
X62251190Y-80865476D01*
X62667857Y-80865476D02*
X62667857Y-79615476D01*
X63144047Y-79615476D01*
X63263095Y-79675000D01*
X63322619Y-79734523D01*
X63382142Y-79853571D01*
X63382142Y-80032142D01*
X63322619Y-80151190D01*
X63263095Y-80210714D01*
X63144047Y-80270238D01*
X62667857Y-80270238D01*
X64155952Y-79615476D02*
X64394047Y-79615476D01*
X64513095Y-79675000D01*
X64632142Y-79794047D01*
X64691666Y-80032142D01*
X64691666Y-80448809D01*
X64632142Y-80686904D01*
X64513095Y-80805952D01*
X64394047Y-80865476D01*
X64155952Y-80865476D01*
X64036904Y-80805952D01*
X63917857Y-80686904D01*
X63858333Y-80448809D01*
X63858333Y-80032142D01*
X63917857Y-79794047D01*
X64036904Y-79675000D01*
X64155952Y-79615476D01*
X65822619Y-80865476D02*
X65227380Y-80865476D01*
X65227380Y-79615476D01*
X66834523Y-80865476D02*
X66239285Y-80865476D01*
X66239285Y-79615476D01*
X67489285Y-79615476D02*
X67727380Y-79615476D01*
X67846428Y-79675000D01*
X67965476Y-79794047D01*
X68025000Y-80032142D01*
X68025000Y-80448809D01*
X67965476Y-80686904D01*
X67846428Y-80805952D01*
X67727380Y-80865476D01*
X67489285Y-80865476D01*
X67370238Y-80805952D01*
X67251190Y-80686904D01*
X67191666Y-80448809D01*
X67191666Y-80032142D01*
X67251190Y-79794047D01*
X67370238Y-79675000D01*
X67489285Y-79615476D01*
X68560714Y-80389285D02*
X69513095Y-80389285D01*
X70108333Y-80865476D02*
X70108333Y-79615476D01*
X70405952Y-79615476D01*
X70584523Y-79675000D01*
X70703571Y-79794047D01*
X70763095Y-79913095D01*
X70822619Y-80151190D01*
X70822619Y-80329761D01*
X70763095Y-80567857D01*
X70703571Y-80686904D01*
X70584523Y-80805952D01*
X70405952Y-80865476D01*
X70108333Y-80865476D01*
X71298809Y-80805952D02*
X71477380Y-80865476D01*
X71775000Y-80865476D01*
X71894047Y-80805952D01*
X71953571Y-80746428D01*
X72013095Y-80627380D01*
X72013095Y-80508333D01*
X71953571Y-80389285D01*
X71894047Y-80329761D01*
X71775000Y-80270238D01*
X71536904Y-80210714D01*
X71417857Y-80151190D01*
X71358333Y-80091666D01*
X71298809Y-79972619D01*
X71298809Y-79853571D01*
X71358333Y-79734523D01*
X71417857Y-79675000D01*
X71536904Y-79615476D01*
X71834523Y-79615476D01*
X72013095Y-79675000D01*
X72548809Y-80865476D02*
X72548809Y-79615476D01*
X73025000Y-79615476D01*
X73144047Y-79675000D01*
X73203571Y-79734523D01*
X73263095Y-79853571D01*
X73263095Y-80032142D01*
X73203571Y-80151190D01*
X73144047Y-80210714D01*
X73025000Y-80270238D01*
X72548809Y-80270238D01*
D10*
X90171428Y-82289285D02*
X90635714Y-82289285D01*
X90385714Y-82575000D01*
X90492857Y-82575000D01*
X90564285Y-82610714D01*
X90600000Y-82646428D01*
X90635714Y-82717857D01*
X90635714Y-82896428D01*
X90600000Y-82967857D01*
X90564285Y-83003571D01*
X90492857Y-83039285D01*
X90278571Y-83039285D01*
X90207142Y-83003571D01*
X90171428Y-82967857D01*
X90850000Y-82289285D02*
X91100000Y-83039285D01*
X91350000Y-82289285D01*
X91528571Y-82289285D02*
X91992857Y-82289285D01*
X91742857Y-82575000D01*
X91850000Y-82575000D01*
X91921428Y-82610714D01*
X91957142Y-82646428D01*
X91992857Y-82717857D01*
X91992857Y-82896428D01*
X91957142Y-82967857D01*
X91921428Y-83003571D01*
X91850000Y-83039285D01*
X91635714Y-83039285D01*
X91564285Y-83003571D01*
X91528571Y-82967857D01*
X89021428Y-113739285D02*
X89021428Y-112989285D01*
X89271428Y-113525000D01*
X89521428Y-112989285D01*
X89521428Y-113739285D01*
X90021428Y-112989285D02*
X90164285Y-112989285D01*
X90235714Y-113025000D01*
X90307142Y-113096428D01*
X90342857Y-113239285D01*
X90342857Y-113489285D01*
X90307142Y-113632142D01*
X90235714Y-113703571D01*
X90164285Y-113739285D01*
X90021428Y-113739285D01*
X89950000Y-113703571D01*
X89878571Y-113632142D01*
X89842857Y-113489285D01*
X89842857Y-113239285D01*
X89878571Y-113096428D01*
X89950000Y-113025000D01*
X90021428Y-112989285D01*
X90628571Y-113703571D02*
X90735714Y-113739285D01*
X90914285Y-113739285D01*
X90985714Y-113703571D01*
X91021428Y-113667857D01*
X91057142Y-113596428D01*
X91057142Y-113525000D01*
X91021428Y-113453571D01*
X90985714Y-113417857D01*
X90914285Y-113382142D01*
X90771428Y-113346428D01*
X90700000Y-113310714D01*
X90664285Y-113275000D01*
X90628571Y-113203571D01*
X90628571Y-113132142D01*
X90664285Y-113060714D01*
X90700000Y-113025000D01*
X90771428Y-112989285D01*
X90950000Y-112989285D01*
X91057142Y-113025000D01*
X91378571Y-113739285D02*
X91378571Y-112989285D01*
D13*
X56819047Y-85052380D02*
X57390476Y-85052380D01*
X57104761Y-86052380D02*
X57104761Y-85052380D01*
X57723809Y-86052380D02*
X57723809Y-85052380D01*
X58152380Y-86052380D02*
X58152380Y-85528571D01*
X58104761Y-85433333D01*
X58009523Y-85385714D01*
X57866666Y-85385714D01*
X57771428Y-85433333D01*
X57723809Y-85480952D01*
X58771428Y-86052380D02*
X58676190Y-86004761D01*
X58628571Y-85957142D01*
X58580952Y-85861904D01*
X58580952Y-85576190D01*
X58628571Y-85480952D01*
X58676190Y-85433333D01*
X58771428Y-85385714D01*
X58914285Y-85385714D01*
X59009523Y-85433333D01*
X59057142Y-85480952D01*
X59104761Y-85576190D01*
X59104761Y-85861904D01*
X59057142Y-85957142D01*
X59009523Y-86004761D01*
X58914285Y-86052380D01*
X58771428Y-86052380D01*
X59533333Y-86052380D02*
X59533333Y-85385714D01*
X59533333Y-85480952D02*
X59580952Y-85433333D01*
X59676190Y-85385714D01*
X59819047Y-85385714D01*
X59914285Y-85433333D01*
X59961904Y-85528571D01*
X59961904Y-86052380D01*
X59961904Y-85528571D02*
X60009523Y-85433333D01*
X60104761Y-85385714D01*
X60247619Y-85385714D01*
X60342857Y-85433333D01*
X60390476Y-85528571D01*
X60390476Y-86052380D01*
X61295238Y-86052380D02*
X61295238Y-85528571D01*
X61247619Y-85433333D01*
X61152380Y-85385714D01*
X60961904Y-85385714D01*
X60866666Y-85433333D01*
X61295238Y-86004761D02*
X61200000Y-86052380D01*
X60961904Y-86052380D01*
X60866666Y-86004761D01*
X60819047Y-85909523D01*
X60819047Y-85814285D01*
X60866666Y-85719047D01*
X60961904Y-85671428D01*
X61200000Y-85671428D01*
X61295238Y-85623809D01*
X61723809Y-86004761D02*
X61819047Y-86052380D01*
X62009523Y-86052380D01*
X62104761Y-86004761D01*
X62152380Y-85909523D01*
X62152380Y-85861904D01*
X62104761Y-85766666D01*
X62009523Y-85719047D01*
X61866666Y-85719047D01*
X61771428Y-85671428D01*
X61723809Y-85576190D01*
X61723809Y-85528571D01*
X61771428Y-85433333D01*
X61866666Y-85385714D01*
X62009523Y-85385714D01*
X62104761Y-85433333D01*
X63342857Y-86052380D02*
X63342857Y-85052380D01*
X63723809Y-85052380D01*
X63819047Y-85100000D01*
X63866666Y-85147619D01*
X63914285Y-85242857D01*
X63914285Y-85385714D01*
X63866666Y-85480952D01*
X63819047Y-85528571D01*
X63723809Y-85576190D01*
X63342857Y-85576190D01*
X64723809Y-86004761D02*
X64628571Y-86052380D01*
X64438095Y-86052380D01*
X64342857Y-86004761D01*
X64295238Y-85909523D01*
X64295238Y-85528571D01*
X64342857Y-85433333D01*
X64438095Y-85385714D01*
X64628571Y-85385714D01*
X64723809Y-85433333D01*
X64771428Y-85528571D01*
X64771428Y-85623809D01*
X64295238Y-85719047D01*
X65200000Y-86052380D02*
X65200000Y-85385714D01*
X65200000Y-85576190D02*
X65247619Y-85480952D01*
X65295238Y-85433333D01*
X65390476Y-85385714D01*
X65485714Y-85385714D01*
X65819047Y-86052380D02*
X65819047Y-85385714D01*
X65819047Y-85576190D02*
X65866666Y-85480952D01*
X65914285Y-85433333D01*
X66009523Y-85385714D01*
X66104761Y-85385714D01*
X66438095Y-86052380D02*
X66438095Y-85385714D01*
X66438095Y-85052380D02*
X66390476Y-85100000D01*
X66438095Y-85147619D01*
X66485714Y-85100000D01*
X66438095Y-85052380D01*
X66438095Y-85147619D01*
D11*
X88423809Y-102316666D02*
X89042857Y-102316666D01*
X88300000Y-102688095D02*
X88733333Y-101388095D01*
X89166666Y-102688095D01*
X89600000Y-101821428D02*
X89600000Y-102688095D01*
X89600000Y-101945238D02*
X89661904Y-101883333D01*
X89785714Y-101821428D01*
X89971428Y-101821428D01*
X90095238Y-101883333D01*
X90157142Y-102007142D01*
X90157142Y-102688095D01*
X91333333Y-102688095D02*
X91333333Y-102007142D01*
X91271428Y-101883333D01*
X91147619Y-101821428D01*
X90900000Y-101821428D01*
X90776190Y-101883333D01*
X91333333Y-102626190D02*
X91209523Y-102688095D01*
X90900000Y-102688095D01*
X90776190Y-102626190D01*
X90714285Y-102502380D01*
X90714285Y-102378571D01*
X90776190Y-102254761D01*
X90900000Y-102192857D01*
X91209523Y-102192857D01*
X91333333Y-102130952D01*
X92138095Y-102688095D02*
X92014285Y-102626190D01*
X91952380Y-102502380D01*
X91952380Y-101388095D01*
X92819047Y-102688095D02*
X92695238Y-102626190D01*
X92633333Y-102564285D01*
X92571428Y-102440476D01*
X92571428Y-102069047D01*
X92633333Y-101945238D01*
X92695238Y-101883333D01*
X92819047Y-101821428D01*
X93004761Y-101821428D01*
X93128571Y-101883333D01*
X93190476Y-101945238D01*
X93252380Y-102069047D01*
X93252380Y-102440476D01*
X93190476Y-102564285D01*
X93128571Y-102626190D01*
X93004761Y-102688095D01*
X92819047Y-102688095D01*
X94366666Y-101821428D02*
X94366666Y-102873809D01*
X94304761Y-102997619D01*
X94242857Y-103059523D01*
X94119047Y-103121428D01*
X93933333Y-103121428D01*
X93809523Y-103059523D01*
X94366666Y-102626190D02*
X94242857Y-102688095D01*
X93995238Y-102688095D01*
X93871428Y-102626190D01*
X93809523Y-102564285D01*
X93747619Y-102440476D01*
X93747619Y-102069047D01*
X93809523Y-101945238D01*
X93871428Y-101883333D01*
X93995238Y-101821428D01*
X94242857Y-101821428D01*
X94366666Y-101883333D01*
X95976190Y-102688095D02*
X95976190Y-101388095D01*
X96471428Y-101388095D01*
X96595238Y-101450000D01*
X96657142Y-101511904D01*
X96719047Y-101635714D01*
X96719047Y-101821428D01*
X96657142Y-101945238D01*
X96595238Y-102007142D01*
X96471428Y-102069047D01*
X95976190Y-102069047D01*
X97461904Y-102688095D02*
X97338095Y-102626190D01*
X97276190Y-102564285D01*
X97214285Y-102440476D01*
X97214285Y-102069047D01*
X97276190Y-101945238D01*
X97338095Y-101883333D01*
X97461904Y-101821428D01*
X97647619Y-101821428D01*
X97771428Y-101883333D01*
X97833333Y-101945238D01*
X97895238Y-102069047D01*
X97895238Y-102440476D01*
X97833333Y-102564285D01*
X97771428Y-102626190D01*
X97647619Y-102688095D01*
X97461904Y-102688095D01*
X98328571Y-101821428D02*
X98576190Y-102688095D01*
X98823809Y-102069047D01*
X99071428Y-102688095D01*
X99319047Y-101821428D01*
X100309523Y-102626190D02*
X100185714Y-102688095D01*
X99938095Y-102688095D01*
X99814285Y-102626190D01*
X99752380Y-102502380D01*
X99752380Y-102007142D01*
X99814285Y-101883333D01*
X99938095Y-101821428D01*
X100185714Y-101821428D01*
X100309523Y-101883333D01*
X100371428Y-102007142D01*
X100371428Y-102130952D01*
X99752380Y-102254761D01*
X100928571Y-102688095D02*
X100928571Y-101821428D01*
X100928571Y-102069047D02*
X100990476Y-101945238D01*
X101052380Y-101883333D01*
X101176190Y-101821428D01*
X101300000Y-101821428D01*
D10*
X82028571Y-120125000D02*
X81957142Y-120089285D01*
X81850000Y-120089285D01*
X81742857Y-120125000D01*
X81671428Y-120196428D01*
X81635714Y-120267857D01*
X81600000Y-120410714D01*
X81600000Y-120517857D01*
X81635714Y-120660714D01*
X81671428Y-120732142D01*
X81742857Y-120803571D01*
X81850000Y-120839285D01*
X81921428Y-120839285D01*
X82028571Y-120803571D01*
X82064285Y-120767857D01*
X82064285Y-120517857D01*
X81921428Y-120517857D01*
X82385714Y-120839285D02*
X82385714Y-120089285D01*
X82814285Y-120839285D01*
X82814285Y-120089285D01*
X83171428Y-120839285D02*
X83171428Y-120089285D01*
X83350000Y-120089285D01*
X83457142Y-120125000D01*
X83528571Y-120196428D01*
X83564285Y-120267857D01*
X83600000Y-120410714D01*
X83600000Y-120517857D01*
X83564285Y-120660714D01*
X83528571Y-120732142D01*
X83457142Y-120803571D01*
X83350000Y-120839285D01*
X83171428Y-120839285D01*
X101771428Y-82289285D02*
X102235714Y-82289285D01*
X101985714Y-82575000D01*
X102092857Y-82575000D01*
X102164285Y-82610714D01*
X102200000Y-82646428D01*
X102235714Y-82717857D01*
X102235714Y-82896428D01*
X102200000Y-82967857D01*
X102164285Y-83003571D01*
X102092857Y-83039285D01*
X101878571Y-83039285D01*
X101807142Y-83003571D01*
X101771428Y-82967857D01*
X102450000Y-82289285D02*
X102700000Y-83039285D01*
X102950000Y-82289285D01*
X103128571Y-82289285D02*
X103592857Y-82289285D01*
X103342857Y-82575000D01*
X103450000Y-82575000D01*
X103521428Y-82610714D01*
X103557142Y-82646428D01*
X103592857Y-82717857D01*
X103592857Y-82896428D01*
X103557142Y-82967857D01*
X103521428Y-83003571D01*
X103450000Y-83039285D01*
X103235714Y-83039285D01*
X103164285Y-83003571D01*
X103128571Y-82967857D01*
X84007142Y-83203571D02*
X84114285Y-83239285D01*
X84292857Y-83239285D01*
X84364285Y-83203571D01*
X84400000Y-83167857D01*
X84435714Y-83096428D01*
X84435714Y-83025000D01*
X84400000Y-82953571D01*
X84364285Y-82917857D01*
X84292857Y-82882142D01*
X84150000Y-82846428D01*
X84078571Y-82810714D01*
X84042857Y-82775000D01*
X84007142Y-82703571D01*
X84007142Y-82632142D01*
X84042857Y-82560714D01*
X84078571Y-82525000D01*
X84150000Y-82489285D01*
X84328571Y-82489285D01*
X84435714Y-82525000D01*
X85185714Y-83167857D02*
X85150000Y-83203571D01*
X85042857Y-83239285D01*
X84971428Y-83239285D01*
X84864285Y-83203571D01*
X84792857Y-83132142D01*
X84757142Y-83060714D01*
X84721428Y-82917857D01*
X84721428Y-82810714D01*
X84757142Y-82667857D01*
X84792857Y-82596428D01*
X84864285Y-82525000D01*
X84971428Y-82489285D01*
X85042857Y-82489285D01*
X85150000Y-82525000D01*
X85185714Y-82560714D01*
X85864285Y-83239285D02*
X85507142Y-83239285D01*
X85507142Y-82489285D01*
X84103571Y-119335714D02*
X84139285Y-119228571D01*
X84139285Y-119050000D01*
X84103571Y-118978571D01*
X84067857Y-118942857D01*
X83996428Y-118907142D01*
X83925000Y-118907142D01*
X83853571Y-118942857D01*
X83817857Y-118978571D01*
X83782142Y-119050000D01*
X83746428Y-119192857D01*
X83710714Y-119264285D01*
X83675000Y-119300000D01*
X83603571Y-119335714D01*
X83532142Y-119335714D01*
X83460714Y-119300000D01*
X83425000Y-119264285D01*
X83389285Y-119192857D01*
X83389285Y-119014285D01*
X83425000Y-118907142D01*
X84139285Y-118585714D02*
X83389285Y-118585714D01*
X83389285Y-118300000D01*
X83425000Y-118228571D01*
X83460714Y-118192857D01*
X83532142Y-118157142D01*
X83639285Y-118157142D01*
X83710714Y-118192857D01*
X83746428Y-118228571D01*
X83782142Y-118300000D01*
X83782142Y-118585714D01*
X84139285Y-117835714D02*
X83389285Y-117835714D01*
X84139285Y-116907142D02*
X83389285Y-116907142D01*
X83639285Y-116550000D02*
X84139285Y-116550000D01*
X83710714Y-116550000D02*
X83675000Y-116514285D01*
X83639285Y-116442857D01*
X83639285Y-116335714D01*
X83675000Y-116264285D01*
X83746428Y-116228571D01*
X84139285Y-116228571D01*
X83639285Y-115978571D02*
X83639285Y-115692857D01*
X83389285Y-115871428D02*
X84032142Y-115871428D01*
X84103571Y-115835714D01*
X84139285Y-115764285D01*
X84139285Y-115692857D01*
X84103571Y-115157142D02*
X84139285Y-115228571D01*
X84139285Y-115371428D01*
X84103571Y-115442857D01*
X84032142Y-115478571D01*
X83746428Y-115478571D01*
X83675000Y-115442857D01*
X83639285Y-115371428D01*
X83639285Y-115228571D01*
X83675000Y-115157142D01*
X83746428Y-115121428D01*
X83817857Y-115121428D01*
X83889285Y-115478571D01*
X84139285Y-114800000D02*
X83639285Y-114800000D01*
X83782142Y-114800000D02*
X83710714Y-114764285D01*
X83675000Y-114728571D01*
X83639285Y-114657142D01*
X83639285Y-114585714D01*
X83639285Y-114442857D02*
X83639285Y-114157142D01*
X84139285Y-114335714D02*
X83496428Y-114335714D01*
X83425000Y-114300000D01*
X83389285Y-114228571D01*
X83389285Y-114157142D01*
X84139285Y-113585714D02*
X83746428Y-113585714D01*
X83675000Y-113621428D01*
X83639285Y-113692857D01*
X83639285Y-113835714D01*
X83675000Y-113907142D01*
X84103571Y-113585714D02*
X84139285Y-113657142D01*
X84139285Y-113835714D01*
X84103571Y-113907142D01*
X84032142Y-113942857D01*
X83960714Y-113942857D01*
X83889285Y-113907142D01*
X83853571Y-113835714D01*
X83853571Y-113657142D01*
X83817857Y-113585714D01*
X84103571Y-112907142D02*
X84139285Y-112978571D01*
X84139285Y-113121428D01*
X84103571Y-113192857D01*
X84067857Y-113228571D01*
X83996428Y-113264285D01*
X83782142Y-113264285D01*
X83710714Y-113228571D01*
X83675000Y-113192857D01*
X83639285Y-113121428D01*
X83639285Y-112978571D01*
X83675000Y-112907142D01*
X84103571Y-112300000D02*
X84139285Y-112371428D01*
X84139285Y-112514285D01*
X84103571Y-112585714D01*
X84032142Y-112621428D01*
X83746428Y-112621428D01*
X83675000Y-112585714D01*
X83639285Y-112514285D01*
X83639285Y-112371428D01*
X83675000Y-112300000D01*
X83746428Y-112264285D01*
X83817857Y-112264285D01*
X83889285Y-112621428D01*
X89021428Y-116239285D02*
X89021428Y-115489285D01*
X89271428Y-116025000D01*
X89521428Y-115489285D01*
X89521428Y-116239285D01*
X89878571Y-116239285D02*
X89878571Y-115489285D01*
X90200000Y-116203571D02*
X90307142Y-116239285D01*
X90485714Y-116239285D01*
X90557142Y-116203571D01*
X90592857Y-116167857D01*
X90628571Y-116096428D01*
X90628571Y-116025000D01*
X90592857Y-115953571D01*
X90557142Y-115917857D01*
X90485714Y-115882142D01*
X90342857Y-115846428D01*
X90271428Y-115810714D01*
X90235714Y-115775000D01*
X90200000Y-115703571D01*
X90200000Y-115632142D01*
X90235714Y-115560714D01*
X90271428Y-115525000D01*
X90342857Y-115489285D01*
X90521428Y-115489285D01*
X90628571Y-115525000D01*
X91092857Y-115489285D02*
X91235714Y-115489285D01*
X91307142Y-115525000D01*
X91378571Y-115596428D01*
X91414285Y-115739285D01*
X91414285Y-115989285D01*
X91378571Y-116132142D01*
X91307142Y-116203571D01*
X91235714Y-116239285D01*
X91092857Y-116239285D01*
X91021428Y-116203571D01*
X90950000Y-116132142D01*
X90914285Y-115989285D01*
X90914285Y-115739285D01*
X90950000Y-115596428D01*
X91021428Y-115525000D01*
X91092857Y-115489285D01*
X73550000Y-120189285D02*
X74014285Y-120189285D01*
X73764285Y-120475000D01*
X73871428Y-120475000D01*
X73942857Y-120510714D01*
X73978571Y-120546428D01*
X74014285Y-120617857D01*
X74014285Y-120796428D01*
X73978571Y-120867857D01*
X73942857Y-120903571D01*
X73871428Y-120939285D01*
X73657142Y-120939285D01*
X73585714Y-120903571D01*
X73550000Y-120867857D01*
X74228571Y-120189285D02*
X74478571Y-120939285D01*
X74728571Y-120189285D01*
X74907142Y-120189285D02*
X75371428Y-120189285D01*
X75121428Y-120475000D01*
X75228571Y-120475000D01*
X75300000Y-120510714D01*
X75335714Y-120546428D01*
X75371428Y-120617857D01*
X75371428Y-120796428D01*
X75335714Y-120867857D01*
X75300000Y-120903571D01*
X75228571Y-120939285D01*
X75014285Y-120939285D01*
X74942857Y-120903571D01*
X74907142Y-120867857D01*
X75657142Y-120725000D02*
X76014285Y-120725000D01*
X75585714Y-120939285D02*
X75835714Y-120189285D01*
X76085714Y-120939285D01*
X89267857Y-121167857D02*
X89232142Y-121203571D01*
X89125000Y-121239285D01*
X89053571Y-121239285D01*
X88946428Y-121203571D01*
X88875000Y-121132142D01*
X88839285Y-121060714D01*
X88803571Y-120917857D01*
X88803571Y-120810714D01*
X88839285Y-120667857D01*
X88875000Y-120596428D01*
X88946428Y-120525000D01*
X89053571Y-120489285D01*
X89125000Y-120489285D01*
X89232142Y-120525000D01*
X89267857Y-120560714D01*
X89553571Y-121203571D02*
X89660714Y-121239285D01*
X89839285Y-121239285D01*
X89910714Y-121203571D01*
X89946428Y-121167857D01*
X89982142Y-121096428D01*
X89982142Y-121025000D01*
X89946428Y-120953571D01*
X89910714Y-120917857D01*
X89839285Y-120882142D01*
X89696428Y-120846428D01*
X89625000Y-120810714D01*
X89589285Y-120775000D01*
X89553571Y-120703571D01*
X89553571Y-120632142D01*
X89589285Y-120560714D01*
X89625000Y-120525000D01*
X89696428Y-120489285D01*
X89875000Y-120489285D01*
X89982142Y-120525000D01*
X90517857Y-121525000D02*
X90482142Y-121489285D01*
X90410714Y-121382142D01*
X90375000Y-121310714D01*
X90339285Y-121203571D01*
X90303571Y-121025000D01*
X90303571Y-120882142D01*
X90339285Y-120703571D01*
X90375000Y-120596428D01*
X90410714Y-120525000D01*
X90482142Y-120417857D01*
X90517857Y-120382142D01*
X90803571Y-121239285D02*
X90803571Y-120489285D01*
X91089285Y-120489285D01*
X91160714Y-120525000D01*
X91196428Y-120560714D01*
X91232142Y-120632142D01*
X91232142Y-120739285D01*
X91196428Y-120810714D01*
X91160714Y-120846428D01*
X91089285Y-120882142D01*
X90803571Y-120882142D01*
X91982142Y-121167857D02*
X91946428Y-121203571D01*
X91839285Y-121239285D01*
X91767857Y-121239285D01*
X91660714Y-121203571D01*
X91589285Y-121132142D01*
X91553571Y-121060714D01*
X91517857Y-120917857D01*
X91517857Y-120810714D01*
X91553571Y-120667857D01*
X91589285Y-120596428D01*
X91660714Y-120525000D01*
X91767857Y-120489285D01*
X91839285Y-120489285D01*
X91946428Y-120525000D01*
X91982142Y-120560714D01*
X92625000Y-120739285D02*
X92625000Y-121239285D01*
X92446428Y-120453571D02*
X92267857Y-120989285D01*
X92732142Y-120989285D01*
X92946428Y-121525000D02*
X92982142Y-121489285D01*
X93053571Y-121382142D01*
X93089285Y-121310714D01*
X93125000Y-121203571D01*
X93160714Y-121025000D01*
X93160714Y-120882142D01*
X93125000Y-120703571D01*
X93089285Y-120596428D01*
X93053571Y-120525000D01*
X92982142Y-120417857D01*
X92946428Y-120382142D01*
X95282142Y-83003571D02*
X95389285Y-83039285D01*
X95567857Y-83039285D01*
X95639285Y-83003571D01*
X95675000Y-82967857D01*
X95710714Y-82896428D01*
X95710714Y-82825000D01*
X95675000Y-82753571D01*
X95639285Y-82717857D01*
X95567857Y-82682142D01*
X95425000Y-82646428D01*
X95353571Y-82610714D01*
X95317857Y-82575000D01*
X95282142Y-82503571D01*
X95282142Y-82432142D01*
X95317857Y-82360714D01*
X95353571Y-82325000D01*
X95425000Y-82289285D01*
X95603571Y-82289285D01*
X95710714Y-82325000D01*
X95960714Y-82289285D02*
X96139285Y-83039285D01*
X96282142Y-82503571D01*
X96425000Y-83039285D01*
X96603571Y-82289285D01*
X96889285Y-83039285D02*
X96889285Y-82289285D01*
X97067857Y-82289285D01*
X97175000Y-82325000D01*
X97246428Y-82396428D01*
X97282142Y-82467857D01*
X97317857Y-82610714D01*
X97317857Y-82717857D01*
X97282142Y-82860714D01*
X97246428Y-82932142D01*
X97175000Y-83003571D01*
X97067857Y-83039285D01*
X96889285Y-83039285D01*
X98328571Y-82325000D02*
X98257142Y-82289285D01*
X98150000Y-82289285D01*
X98042857Y-82325000D01*
X97971428Y-82396428D01*
X97935714Y-82467857D01*
X97900000Y-82610714D01*
X97900000Y-82717857D01*
X97935714Y-82860714D01*
X97971428Y-82932142D01*
X98042857Y-83003571D01*
X98150000Y-83039285D01*
X98221428Y-83039285D01*
X98328571Y-83003571D01*
X98364285Y-82967857D01*
X98364285Y-82717857D01*
X98221428Y-82717857D01*
X98685714Y-83039285D02*
X98685714Y-82289285D01*
X99114285Y-83039285D01*
X99114285Y-82289285D01*
X99471428Y-83039285D02*
X99471428Y-82289285D01*
X99650000Y-82289285D01*
X99757142Y-82325000D01*
X99828571Y-82396428D01*
X99864285Y-82467857D01*
X99900000Y-82610714D01*
X99900000Y-82717857D01*
X99864285Y-82860714D01*
X99828571Y-82932142D01*
X99757142Y-83003571D01*
X99650000Y-83039285D01*
X99471428Y-83039285D01*
D11*
X79442857Y-87078571D02*
X79442857Y-85578571D01*
X79800000Y-85578571D01*
X80014285Y-85650000D01*
X80157142Y-85792857D01*
X80228571Y-85935714D01*
X80300000Y-86221428D01*
X80300000Y-86435714D01*
X80228571Y-86721428D01*
X80157142Y-86864285D01*
X80014285Y-87007142D01*
X79800000Y-87078571D01*
X79442857Y-87078571D01*
X80871428Y-87007142D02*
X81085714Y-87078571D01*
X81442857Y-87078571D01*
X81585714Y-87007142D01*
X81657142Y-86935714D01*
X81728571Y-86792857D01*
X81728571Y-86650000D01*
X81657142Y-86507142D01*
X81585714Y-86435714D01*
X81442857Y-86364285D01*
X81157142Y-86292857D01*
X81014285Y-86221428D01*
X80942857Y-86150000D01*
X80871428Y-86007142D01*
X80871428Y-85864285D01*
X80942857Y-85721428D01*
X81014285Y-85650000D01*
X81157142Y-85578571D01*
X81514285Y-85578571D01*
X81728571Y-85650000D01*
X82371428Y-87078571D02*
X82371428Y-85578571D01*
X82942857Y-85578571D01*
X83085714Y-85650000D01*
X83157142Y-85721428D01*
X83228571Y-85864285D01*
X83228571Y-86078571D01*
X83157142Y-86221428D01*
X83085714Y-86292857D01*
X82942857Y-86364285D01*
X82371428Y-86364285D01*
D10*
X88889285Y-111528571D02*
X88889285Y-111064285D01*
X89175000Y-111314285D01*
X89175000Y-111207142D01*
X89210714Y-111135714D01*
X89246428Y-111100000D01*
X89317857Y-111064285D01*
X89496428Y-111064285D01*
X89567857Y-111100000D01*
X89603571Y-111135714D01*
X89639285Y-111207142D01*
X89639285Y-111421428D01*
X89603571Y-111492857D01*
X89567857Y-111528571D01*
X88889285Y-110850000D02*
X89639285Y-110600000D01*
X88889285Y-110350000D01*
X88889285Y-110171428D02*
X88889285Y-109707142D01*
X89175000Y-109957142D01*
X89175000Y-109850000D01*
X89210714Y-109778571D01*
X89246428Y-109742857D01*
X89317857Y-109707142D01*
X89496428Y-109707142D01*
X89567857Y-109742857D01*
X89603571Y-109778571D01*
X89639285Y-109850000D01*
X89639285Y-110064285D01*
X89603571Y-110135714D01*
X89567857Y-110171428D01*
D11*
X54671428Y-97250000D02*
X55385714Y-97250000D01*
X54528571Y-97678571D02*
X55028571Y-96178571D01*
X55528571Y-97678571D01*
X56028571Y-97678571D02*
X56028571Y-96178571D01*
X56885714Y-97678571D01*
X56885714Y-96178571D01*
X57528571Y-97250000D02*
X58242857Y-97250000D01*
X57385714Y-97678571D02*
X57885714Y-96178571D01*
X58385714Y-97678571D01*
X59600000Y-97678571D02*
X58885714Y-97678571D01*
X58885714Y-96178571D01*
X60385714Y-96178571D02*
X60671428Y-96178571D01*
X60814285Y-96250000D01*
X60957142Y-96392857D01*
X61028571Y-96678571D01*
X61028571Y-97178571D01*
X60957142Y-97464285D01*
X60814285Y-97607142D01*
X60671428Y-97678571D01*
X60385714Y-97678571D01*
X60242857Y-97607142D01*
X60100000Y-97464285D01*
X60028571Y-97178571D01*
X60028571Y-96678571D01*
X60100000Y-96392857D01*
X60242857Y-96250000D01*
X60385714Y-96178571D01*
X62457142Y-96250000D02*
X62314285Y-96178571D01*
X62100000Y-96178571D01*
X61885714Y-96250000D01*
X61742857Y-96392857D01*
X61671428Y-96535714D01*
X61600000Y-96821428D01*
X61600000Y-97035714D01*
X61671428Y-97321428D01*
X61742857Y-97464285D01*
X61885714Y-97607142D01*
X62100000Y-97678571D01*
X62242857Y-97678571D01*
X62457142Y-97607142D01*
X62528571Y-97535714D01*
X62528571Y-97035714D01*
X62242857Y-97035714D01*
D10*
X111167857Y-123567857D02*
X111132142Y-123603571D01*
X111025000Y-123639285D01*
X110953571Y-123639285D01*
X110846428Y-123603571D01*
X110775000Y-123532142D01*
X110739285Y-123460714D01*
X110703571Y-123317857D01*
X110703571Y-123210714D01*
X110739285Y-123067857D01*
X110775000Y-122996428D01*
X110846428Y-122925000D01*
X110953571Y-122889285D01*
X111025000Y-122889285D01*
X111132142Y-122925000D01*
X111167857Y-122960714D01*
X111453571Y-123603571D02*
X111560714Y-123639285D01*
X111739285Y-123639285D01*
X111810714Y-123603571D01*
X111846428Y-123567857D01*
X111882142Y-123496428D01*
X111882142Y-123425000D01*
X111846428Y-123353571D01*
X111810714Y-123317857D01*
X111739285Y-123282142D01*
X111596428Y-123246428D01*
X111525000Y-123210714D01*
X111489285Y-123175000D01*
X111453571Y-123103571D01*
X111453571Y-123032142D01*
X111489285Y-122960714D01*
X111525000Y-122925000D01*
X111596428Y-122889285D01*
X111775000Y-122889285D01*
X111882142Y-122925000D01*
X112417857Y-123925000D02*
X112382142Y-123889285D01*
X112310714Y-123782142D01*
X112275000Y-123710714D01*
X112239285Y-123603571D01*
X112203571Y-123425000D01*
X112203571Y-123282142D01*
X112239285Y-123103571D01*
X112275000Y-122996428D01*
X112310714Y-122925000D01*
X112382142Y-122817857D01*
X112417857Y-122782142D01*
X112703571Y-123639285D02*
X112703571Y-122889285D01*
X112989285Y-122889285D01*
X113060714Y-122925000D01*
X113096428Y-122960714D01*
X113132142Y-123032142D01*
X113132142Y-123139285D01*
X113096428Y-123210714D01*
X113060714Y-123246428D01*
X112989285Y-123282142D01*
X112703571Y-123282142D01*
X113703571Y-123246428D02*
X113810714Y-123282142D01*
X113846428Y-123317857D01*
X113882142Y-123389285D01*
X113882142Y-123496428D01*
X113846428Y-123567857D01*
X113810714Y-123603571D01*
X113739285Y-123639285D01*
X113453571Y-123639285D01*
X113453571Y-122889285D01*
X113703571Y-122889285D01*
X113775000Y-122925000D01*
X113810714Y-122960714D01*
X113846428Y-123032142D01*
X113846428Y-123103571D01*
X113810714Y-123175000D01*
X113775000Y-123210714D01*
X113703571Y-123246428D01*
X113453571Y-123246428D01*
X114346428Y-122889285D02*
X114417857Y-122889285D01*
X114489285Y-122925000D01*
X114525000Y-122960714D01*
X114560714Y-123032142D01*
X114596428Y-123175000D01*
X114596428Y-123353571D01*
X114560714Y-123496428D01*
X114525000Y-123567857D01*
X114489285Y-123603571D01*
X114417857Y-123639285D01*
X114346428Y-123639285D01*
X114275000Y-123603571D01*
X114239285Y-123567857D01*
X114203571Y-123496428D01*
X114167857Y-123353571D01*
X114167857Y-123175000D01*
X114203571Y-123032142D01*
X114239285Y-122960714D01*
X114275000Y-122925000D01*
X114346428Y-122889285D01*
X114846428Y-123925000D02*
X114882142Y-123889285D01*
X114953571Y-123782142D01*
X114989285Y-123710714D01*
X115025000Y-123603571D01*
X115060714Y-123425000D01*
X115060714Y-123282142D01*
X115025000Y-123103571D01*
X114989285Y-122996428D01*
X114953571Y-122925000D01*
X114882142Y-122817857D01*
X114846428Y-122782142D01*
X91146428Y-84539285D02*
X91146428Y-83789285D01*
X91432142Y-83789285D01*
X91503571Y-83825000D01*
X91539285Y-83860714D01*
X91575000Y-83932142D01*
X91575000Y-84039285D01*
X91539285Y-84110714D01*
X91503571Y-84146428D01*
X91432142Y-84182142D01*
X91146428Y-84182142D01*
X91896428Y-84539285D02*
X91896428Y-84039285D01*
X91896428Y-84182142D02*
X91932142Y-84110714D01*
X91967857Y-84075000D01*
X92039285Y-84039285D01*
X92110714Y-84039285D01*
X92467857Y-84539285D02*
X92396428Y-84503571D01*
X92360714Y-84467857D01*
X92325000Y-84396428D01*
X92325000Y-84182142D01*
X92360714Y-84110714D01*
X92396428Y-84075000D01*
X92467857Y-84039285D01*
X92575000Y-84039285D01*
X92646428Y-84075000D01*
X92682142Y-84110714D01*
X92717857Y-84182142D01*
X92717857Y-84396428D01*
X92682142Y-84467857D01*
X92646428Y-84503571D01*
X92575000Y-84539285D01*
X92467857Y-84539285D01*
X93360714Y-84039285D02*
X93360714Y-84646428D01*
X93325000Y-84717857D01*
X93289285Y-84753571D01*
X93217857Y-84789285D01*
X93110714Y-84789285D01*
X93039285Y-84753571D01*
X93360714Y-84503571D02*
X93289285Y-84539285D01*
X93146428Y-84539285D01*
X93075000Y-84503571D01*
X93039285Y-84467857D01*
X93003571Y-84396428D01*
X93003571Y-84182142D01*
X93039285Y-84110714D01*
X93075000Y-84075000D01*
X93146428Y-84039285D01*
X93289285Y-84039285D01*
X93360714Y-84075000D01*
X93717857Y-84467857D02*
X93753571Y-84503571D01*
X93717857Y-84539285D01*
X93682142Y-84503571D01*
X93717857Y-84467857D01*
X93717857Y-84539285D01*
X94646428Y-84539285D02*
X94646428Y-83789285D01*
X95003571Y-84039285D02*
X95003571Y-84539285D01*
X95003571Y-84110714D02*
X95039285Y-84075000D01*
X95110714Y-84039285D01*
X95217857Y-84039285D01*
X95289285Y-84075000D01*
X95325000Y-84146428D01*
X95325000Y-84539285D01*
X95575000Y-84039285D02*
X95860714Y-84039285D01*
X95682142Y-83789285D02*
X95682142Y-84432142D01*
X95717857Y-84503571D01*
X95789285Y-84539285D01*
X95860714Y-84539285D01*
X96396428Y-84503571D02*
X96325000Y-84539285D01*
X96182142Y-84539285D01*
X96110714Y-84503571D01*
X96075000Y-84432142D01*
X96075000Y-84146428D01*
X96110714Y-84075000D01*
X96182142Y-84039285D01*
X96325000Y-84039285D01*
X96396428Y-84075000D01*
X96432142Y-84146428D01*
X96432142Y-84217857D01*
X96075000Y-84289285D01*
X96753571Y-84539285D02*
X96753571Y-84039285D01*
X96753571Y-84182142D02*
X96789285Y-84110714D01*
X96825000Y-84075000D01*
X96896428Y-84039285D01*
X96967857Y-84039285D01*
X97110714Y-84039285D02*
X97396428Y-84039285D01*
X97217857Y-84539285D02*
X97217857Y-83896428D01*
X97253571Y-83825000D01*
X97325000Y-83789285D01*
X97396428Y-83789285D01*
X97967857Y-84539285D02*
X97967857Y-84146428D01*
X97932142Y-84075000D01*
X97860714Y-84039285D01*
X97717857Y-84039285D01*
X97646428Y-84075000D01*
X97967857Y-84503571D02*
X97896428Y-84539285D01*
X97717857Y-84539285D01*
X97646428Y-84503571D01*
X97610714Y-84432142D01*
X97610714Y-84360714D01*
X97646428Y-84289285D01*
X97717857Y-84253571D01*
X97896428Y-84253571D01*
X97967857Y-84217857D01*
X98646428Y-84503571D02*
X98575000Y-84539285D01*
X98432142Y-84539285D01*
X98360714Y-84503571D01*
X98325000Y-84467857D01*
X98289285Y-84396428D01*
X98289285Y-84182142D01*
X98325000Y-84110714D01*
X98360714Y-84075000D01*
X98432142Y-84039285D01*
X98575000Y-84039285D01*
X98646428Y-84075000D01*
X99253571Y-84503571D02*
X99182142Y-84539285D01*
X99039285Y-84539285D01*
X98967857Y-84503571D01*
X98932142Y-84432142D01*
X98932142Y-84146428D01*
X98967857Y-84075000D01*
X99039285Y-84039285D01*
X99182142Y-84039285D01*
X99253571Y-84075000D01*
X99289285Y-84146428D01*
X99289285Y-84217857D01*
X98932142Y-84289285D01*
X77164285Y-120725000D02*
X77521428Y-120725000D01*
X77092857Y-120939285D02*
X77342857Y-120189285D01*
X77592857Y-120939285D01*
X77985714Y-120189285D02*
X78057142Y-120189285D01*
X78128571Y-120225000D01*
X78164285Y-120260714D01*
X78200000Y-120332142D01*
X78235714Y-120475000D01*
X78235714Y-120653571D01*
X78200000Y-120796428D01*
X78164285Y-120867857D01*
X78128571Y-120903571D01*
X78057142Y-120939285D01*
X77985714Y-120939285D01*
X77914285Y-120903571D01*
X77878571Y-120867857D01*
X77842857Y-120796428D01*
X77807142Y-120653571D01*
X77807142Y-120475000D01*
X77842857Y-120332142D01*
X77878571Y-120260714D01*
X77914285Y-120225000D01*
X77985714Y-120189285D01*
X105128571Y-83039285D02*
X104878571Y-82682142D01*
X104700000Y-83039285D02*
X104700000Y-82289285D01*
X104985714Y-82289285D01*
X105057142Y-82325000D01*
X105092857Y-82360714D01*
X105128571Y-82432142D01*
X105128571Y-82539285D01*
X105092857Y-82610714D01*
X105057142Y-82646428D01*
X104985714Y-82682142D01*
X104700000Y-82682142D01*
X105378571Y-83039285D02*
X105771428Y-82539285D01*
X105378571Y-82539285D02*
X105771428Y-83039285D01*
X81389285Y-83203571D02*
X81496428Y-83239285D01*
X81675000Y-83239285D01*
X81746428Y-83203571D01*
X81782142Y-83167857D01*
X81817857Y-83096428D01*
X81817857Y-83025000D01*
X81782142Y-82953571D01*
X81746428Y-82917857D01*
X81675000Y-82882142D01*
X81532142Y-82846428D01*
X81460714Y-82810714D01*
X81425000Y-82775000D01*
X81389285Y-82703571D01*
X81389285Y-82632142D01*
X81425000Y-82560714D01*
X81460714Y-82525000D01*
X81532142Y-82489285D01*
X81710714Y-82489285D01*
X81817857Y-82525000D01*
X82139285Y-83239285D02*
X82139285Y-82489285D01*
X82317857Y-82489285D01*
X82425000Y-82525000D01*
X82496428Y-82596428D01*
X82532142Y-82667857D01*
X82567857Y-82810714D01*
X82567857Y-82917857D01*
X82532142Y-83060714D01*
X82496428Y-83132142D01*
X82425000Y-83203571D01*
X82317857Y-83239285D01*
X82139285Y-83239285D01*
X82853571Y-83025000D02*
X83210714Y-83025000D01*
X82782142Y-83239285D02*
X83032142Y-82489285D01*
X83282142Y-83239285D01*
X79664285Y-120725000D02*
X80021428Y-120725000D01*
X79592857Y-120939285D02*
X79842857Y-120189285D01*
X80092857Y-120939285D01*
X80735714Y-120939285D02*
X80307142Y-120939285D01*
X80521428Y-120939285D02*
X80521428Y-120189285D01*
X80450000Y-120296428D01*
X80378571Y-120367857D01*
X80307142Y-120403571D01*
D13*
%TO.C,C2*%
X103258333Y-100057142D02*
X103210714Y-100104761D01*
X103067857Y-100152380D01*
X102972619Y-100152380D01*
X102829761Y-100104761D01*
X102734523Y-100009523D01*
X102686904Y-99914285D01*
X102639285Y-99723809D01*
X102639285Y-99580952D01*
X102686904Y-99390476D01*
X102734523Y-99295238D01*
X102829761Y-99200000D01*
X102972619Y-99152380D01*
X103067857Y-99152380D01*
X103210714Y-99200000D01*
X103258333Y-99247619D01*
X103639285Y-99247619D02*
X103686904Y-99200000D01*
X103782142Y-99152380D01*
X104020238Y-99152380D01*
X104115476Y-99200000D01*
X104163095Y-99247619D01*
X104210714Y-99342857D01*
X104210714Y-99438095D01*
X104163095Y-99580952D01*
X103591666Y-100152380D01*
X104210714Y-100152380D01*
%TO.C,J7*%
X86366666Y-107772380D02*
X86366666Y-108486666D01*
X86319047Y-108629523D01*
X86223809Y-108724761D01*
X86080952Y-108772380D01*
X85985714Y-108772380D01*
X86747619Y-107772380D02*
X87414285Y-107772380D01*
X86985714Y-108772380D01*
%TO.C,D1*%
X89886904Y-93664880D02*
X89886904Y-92664880D01*
X90125000Y-92664880D01*
X90267857Y-92712500D01*
X90363095Y-92807738D01*
X90410714Y-92902976D01*
X90458333Y-93093452D01*
X90458333Y-93236309D01*
X90410714Y-93426785D01*
X90363095Y-93522023D01*
X90267857Y-93617261D01*
X90125000Y-93664880D01*
X89886904Y-93664880D01*
X91410714Y-93664880D02*
X90839285Y-93664880D01*
X91125000Y-93664880D02*
X91125000Y-92664880D01*
X91029761Y-92807738D01*
X90934523Y-92902976D01*
X90839285Y-92950595D01*
%TO.C,C9*%
X103258333Y-105257142D02*
X103210714Y-105304761D01*
X103067857Y-105352380D01*
X102972619Y-105352380D01*
X102829761Y-105304761D01*
X102734523Y-105209523D01*
X102686904Y-105114285D01*
X102639285Y-104923809D01*
X102639285Y-104780952D01*
X102686904Y-104590476D01*
X102734523Y-104495238D01*
X102829761Y-104400000D01*
X102972619Y-104352380D01*
X103067857Y-104352380D01*
X103210714Y-104400000D01*
X103258333Y-104447619D01*
X103734523Y-105352380D02*
X103925000Y-105352380D01*
X104020238Y-105304761D01*
X104067857Y-105257142D01*
X104163095Y-105114285D01*
X104210714Y-104923809D01*
X104210714Y-104542857D01*
X104163095Y-104447619D01*
X104115476Y-104400000D01*
X104020238Y-104352380D01*
X103829761Y-104352380D01*
X103734523Y-104400000D01*
X103686904Y-104447619D01*
X103639285Y-104542857D01*
X103639285Y-104780952D01*
X103686904Y-104876190D01*
X103734523Y-104923809D01*
X103829761Y-104971428D01*
X104020238Y-104971428D01*
X104115476Y-104923809D01*
X104163095Y-104876190D01*
X104210714Y-104780952D01*
%TO.C,C1*%
X110882142Y-98466666D02*
X110929761Y-98514285D01*
X110977380Y-98657142D01*
X110977380Y-98752380D01*
X110929761Y-98895238D01*
X110834523Y-98990476D01*
X110739285Y-99038095D01*
X110548809Y-99085714D01*
X110405952Y-99085714D01*
X110215476Y-99038095D01*
X110120238Y-98990476D01*
X110025000Y-98895238D01*
X109977380Y-98752380D01*
X109977380Y-98657142D01*
X110025000Y-98514285D01*
X110072619Y-98466666D01*
X110977380Y-97514285D02*
X110977380Y-98085714D01*
X110977380Y-97800000D02*
X109977380Y-97800000D01*
X110120238Y-97895238D01*
X110215476Y-97990476D01*
X110263095Y-98085714D01*
%TO.C,C26*%
X66327142Y-116397857D02*
X66374761Y-116445476D01*
X66422380Y-116588333D01*
X66422380Y-116683571D01*
X66374761Y-116826428D01*
X66279523Y-116921666D01*
X66184285Y-116969285D01*
X65993809Y-117016904D01*
X65850952Y-117016904D01*
X65660476Y-116969285D01*
X65565238Y-116921666D01*
X65470000Y-116826428D01*
X65422380Y-116683571D01*
X65422380Y-116588333D01*
X65470000Y-116445476D01*
X65517619Y-116397857D01*
X65517619Y-116016904D02*
X65470000Y-115969285D01*
X65422380Y-115874047D01*
X65422380Y-115635952D01*
X65470000Y-115540714D01*
X65517619Y-115493095D01*
X65612857Y-115445476D01*
X65708095Y-115445476D01*
X65850952Y-115493095D01*
X66422380Y-116064523D01*
X66422380Y-115445476D01*
X65422380Y-114588333D02*
X65422380Y-114778809D01*
X65470000Y-114874047D01*
X65517619Y-114921666D01*
X65660476Y-115016904D01*
X65850952Y-115064523D01*
X66231904Y-115064523D01*
X66327142Y-115016904D01*
X66374761Y-114969285D01*
X66422380Y-114874047D01*
X66422380Y-114683571D01*
X66374761Y-114588333D01*
X66327142Y-114540714D01*
X66231904Y-114493095D01*
X65993809Y-114493095D01*
X65898571Y-114540714D01*
X65850952Y-114588333D01*
X65803333Y-114683571D01*
X65803333Y-114874047D01*
X65850952Y-114969285D01*
X65898571Y-115016904D01*
X65993809Y-115064523D01*
%TO.C,C21*%
X66619687Y-96099500D02*
X66687031Y-96099500D01*
X66821718Y-96166844D01*
X66889061Y-96234187D01*
X66956405Y-96368874D01*
X66956405Y-96503561D01*
X66922733Y-96604576D01*
X66821718Y-96772935D01*
X66720703Y-96873950D01*
X66552344Y-96974966D01*
X66451329Y-97008637D01*
X66316642Y-97008637D01*
X66181955Y-96941294D01*
X66114611Y-96873950D01*
X66047268Y-96739263D01*
X66047268Y-96671920D01*
X65777893Y-96402546D02*
X65710550Y-96402546D01*
X65609535Y-96368874D01*
X65441176Y-96200515D01*
X65407504Y-96099500D01*
X65407504Y-96032157D01*
X65441176Y-95931141D01*
X65508519Y-95863798D01*
X65643206Y-95796454D01*
X66451329Y-95796454D01*
X66013596Y-95358721D01*
X65340161Y-94685286D02*
X65744222Y-95089347D01*
X65542191Y-94887317D02*
X64835084Y-95594424D01*
X65003443Y-95560752D01*
X65138130Y-95560752D01*
X65239145Y-95594424D01*
%TO.C,C31*%
X105157142Y-115342857D02*
X105204761Y-115390476D01*
X105252380Y-115533333D01*
X105252380Y-115628571D01*
X105204761Y-115771428D01*
X105109523Y-115866666D01*
X105014285Y-115914285D01*
X104823809Y-115961904D01*
X104680952Y-115961904D01*
X104490476Y-115914285D01*
X104395238Y-115866666D01*
X104300000Y-115771428D01*
X104252380Y-115628571D01*
X104252380Y-115533333D01*
X104300000Y-115390476D01*
X104347619Y-115342857D01*
X104252380Y-115009523D02*
X104252380Y-114390476D01*
X104633333Y-114723809D01*
X104633333Y-114580952D01*
X104680952Y-114485714D01*
X104728571Y-114438095D01*
X104823809Y-114390476D01*
X105061904Y-114390476D01*
X105157142Y-114438095D01*
X105204761Y-114485714D01*
X105252380Y-114580952D01*
X105252380Y-114866666D01*
X105204761Y-114961904D01*
X105157142Y-115009523D01*
X105252380Y-113438095D02*
X105252380Y-114009523D01*
X105252380Y-113723809D02*
X104252380Y-113723809D01*
X104395238Y-113819047D01*
X104490476Y-113914285D01*
X104538095Y-114009523D01*
%TO.C,F1*%
X112791666Y-97858571D02*
X112458333Y-97858571D01*
X112458333Y-98382380D02*
X112458333Y-97382380D01*
X112934523Y-97382380D01*
X113839285Y-98382380D02*
X113267857Y-98382380D01*
X113553571Y-98382380D02*
X113553571Y-97382380D01*
X113458333Y-97525238D01*
X113363095Y-97620476D01*
X113267857Y-97668095D01*
%TO.C,C28*%
X58727142Y-119610357D02*
X58774761Y-119657976D01*
X58822380Y-119800833D01*
X58822380Y-119896071D01*
X58774761Y-120038928D01*
X58679523Y-120134166D01*
X58584285Y-120181785D01*
X58393809Y-120229404D01*
X58250952Y-120229404D01*
X58060476Y-120181785D01*
X57965238Y-120134166D01*
X57870000Y-120038928D01*
X57822380Y-119896071D01*
X57822380Y-119800833D01*
X57870000Y-119657976D01*
X57917619Y-119610357D01*
X57917619Y-119229404D02*
X57870000Y-119181785D01*
X57822380Y-119086547D01*
X57822380Y-118848452D01*
X57870000Y-118753214D01*
X57917619Y-118705595D01*
X58012857Y-118657976D01*
X58108095Y-118657976D01*
X58250952Y-118705595D01*
X58822380Y-119277023D01*
X58822380Y-118657976D01*
X58250952Y-118086547D02*
X58203333Y-118181785D01*
X58155714Y-118229404D01*
X58060476Y-118277023D01*
X58012857Y-118277023D01*
X57917619Y-118229404D01*
X57870000Y-118181785D01*
X57822380Y-118086547D01*
X57822380Y-117896071D01*
X57870000Y-117800833D01*
X57917619Y-117753214D01*
X58012857Y-117705595D01*
X58060476Y-117705595D01*
X58155714Y-117753214D01*
X58203333Y-117800833D01*
X58250952Y-117896071D01*
X58250952Y-118086547D01*
X58298571Y-118181785D01*
X58346190Y-118229404D01*
X58441428Y-118277023D01*
X58631904Y-118277023D01*
X58727142Y-118229404D01*
X58774761Y-118181785D01*
X58822380Y-118086547D01*
X58822380Y-117896071D01*
X58774761Y-117800833D01*
X58727142Y-117753214D01*
X58631904Y-117705595D01*
X58441428Y-117705595D01*
X58346190Y-117753214D01*
X58298571Y-117800833D01*
X58250952Y-117896071D01*
%TO.C,C23*%
X74557142Y-111592857D02*
X74604761Y-111640476D01*
X74652380Y-111783333D01*
X74652380Y-111878571D01*
X74604761Y-112021428D01*
X74509523Y-112116666D01*
X74414285Y-112164285D01*
X74223809Y-112211904D01*
X74080952Y-112211904D01*
X73890476Y-112164285D01*
X73795238Y-112116666D01*
X73700000Y-112021428D01*
X73652380Y-111878571D01*
X73652380Y-111783333D01*
X73700000Y-111640476D01*
X73747619Y-111592857D01*
X73747619Y-111211904D02*
X73700000Y-111164285D01*
X73652380Y-111069047D01*
X73652380Y-110830952D01*
X73700000Y-110735714D01*
X73747619Y-110688095D01*
X73842857Y-110640476D01*
X73938095Y-110640476D01*
X74080952Y-110688095D01*
X74652380Y-111259523D01*
X74652380Y-110640476D01*
X73652380Y-110307142D02*
X73652380Y-109688095D01*
X74033333Y-110021428D01*
X74033333Y-109878571D01*
X74080952Y-109783333D01*
X74128571Y-109735714D01*
X74223809Y-109688095D01*
X74461904Y-109688095D01*
X74557142Y-109735714D01*
X74604761Y-109783333D01*
X74652380Y-109878571D01*
X74652380Y-110164285D01*
X74604761Y-110259523D01*
X74557142Y-110307142D01*
%TO.C,R11*%
X60464642Y-121919880D02*
X60131309Y-121443690D01*
X59893214Y-121919880D02*
X59893214Y-120919880D01*
X60274166Y-120919880D01*
X60369404Y-120967500D01*
X60417023Y-121015119D01*
X60464642Y-121110357D01*
X60464642Y-121253214D01*
X60417023Y-121348452D01*
X60369404Y-121396071D01*
X60274166Y-121443690D01*
X59893214Y-121443690D01*
X61417023Y-121919880D02*
X60845595Y-121919880D01*
X61131309Y-121919880D02*
X61131309Y-120919880D01*
X61036071Y-121062738D01*
X60940833Y-121157976D01*
X60845595Y-121205595D01*
X62369404Y-121919880D02*
X61797976Y-121919880D01*
X62083690Y-121919880D02*
X62083690Y-120919880D01*
X61988452Y-121062738D01*
X61893214Y-121157976D01*
X61797976Y-121205595D01*
%TO.C,FB1*%
X105291666Y-99658571D02*
X104958333Y-99658571D01*
X104958333Y-100182380D02*
X104958333Y-99182380D01*
X105434523Y-99182380D01*
X106148809Y-99658571D02*
X106291666Y-99706190D01*
X106339285Y-99753809D01*
X106386904Y-99849047D01*
X106386904Y-99991904D01*
X106339285Y-100087142D01*
X106291666Y-100134761D01*
X106196428Y-100182380D01*
X105815476Y-100182380D01*
X105815476Y-99182380D01*
X106148809Y-99182380D01*
X106244047Y-99230000D01*
X106291666Y-99277619D01*
X106339285Y-99372857D01*
X106339285Y-99468095D01*
X106291666Y-99563333D01*
X106244047Y-99610952D01*
X106148809Y-99658571D01*
X105815476Y-99658571D01*
X107339285Y-100182380D02*
X106767857Y-100182380D01*
X107053571Y-100182380D02*
X107053571Y-99182380D01*
X106958333Y-99325238D01*
X106863095Y-99420476D01*
X106767857Y-99468095D01*
%TO.C,D3*%
X65831904Y-100589880D02*
X65831904Y-99589880D01*
X66070000Y-99589880D01*
X66212857Y-99637500D01*
X66308095Y-99732738D01*
X66355714Y-99827976D01*
X66403333Y-100018452D01*
X66403333Y-100161309D01*
X66355714Y-100351785D01*
X66308095Y-100447023D01*
X66212857Y-100542261D01*
X66070000Y-100589880D01*
X65831904Y-100589880D01*
X66736666Y-99589880D02*
X67355714Y-99589880D01*
X67022380Y-99970833D01*
X67165238Y-99970833D01*
X67260476Y-100018452D01*
X67308095Y-100066071D01*
X67355714Y-100161309D01*
X67355714Y-100399404D01*
X67308095Y-100494642D01*
X67260476Y-100542261D01*
X67165238Y-100589880D01*
X66879523Y-100589880D01*
X66784285Y-100542261D01*
X66736666Y-100494642D01*
%TO.C,R1*%
X90177380Y-100179166D02*
X89701190Y-100512500D01*
X90177380Y-100750595D02*
X89177380Y-100750595D01*
X89177380Y-100369642D01*
X89225000Y-100274404D01*
X89272619Y-100226785D01*
X89367857Y-100179166D01*
X89510714Y-100179166D01*
X89605952Y-100226785D01*
X89653571Y-100274404D01*
X89701190Y-100369642D01*
X89701190Y-100750595D01*
X90177380Y-99226785D02*
X90177380Y-99798214D01*
X90177380Y-99512500D02*
X89177380Y-99512500D01*
X89320238Y-99607738D01*
X89415476Y-99702976D01*
X89463095Y-99798214D01*
%TO.C,C3*%
X101882142Y-100179166D02*
X101929761Y-100226785D01*
X101977380Y-100369642D01*
X101977380Y-100464880D01*
X101929761Y-100607738D01*
X101834523Y-100702976D01*
X101739285Y-100750595D01*
X101548809Y-100798214D01*
X101405952Y-100798214D01*
X101215476Y-100750595D01*
X101120238Y-100702976D01*
X101025000Y-100607738D01*
X100977380Y-100464880D01*
X100977380Y-100369642D01*
X101025000Y-100226785D01*
X101072619Y-100179166D01*
X100977380Y-99845833D02*
X100977380Y-99226785D01*
X101358333Y-99560119D01*
X101358333Y-99417261D01*
X101405952Y-99322023D01*
X101453571Y-99274404D01*
X101548809Y-99226785D01*
X101786904Y-99226785D01*
X101882142Y-99274404D01*
X101929761Y-99322023D01*
X101977380Y-99417261D01*
X101977380Y-99702976D01*
X101929761Y-99798214D01*
X101882142Y-99845833D01*
%TO.C,U4*%
X77938095Y-93752380D02*
X77938095Y-94561904D01*
X77985714Y-94657142D01*
X78033333Y-94704761D01*
X78128571Y-94752380D01*
X78319047Y-94752380D01*
X78414285Y-94704761D01*
X78461904Y-94657142D01*
X78509523Y-94561904D01*
X78509523Y-93752380D01*
X79414285Y-94085714D02*
X79414285Y-94752380D01*
X79176190Y-93704761D02*
X78938095Y-94419047D01*
X79557142Y-94419047D01*
%TO.C,C12*%
X93857142Y-109930357D02*
X93904761Y-109977976D01*
X93952380Y-110120833D01*
X93952380Y-110216071D01*
X93904761Y-110358928D01*
X93809523Y-110454166D01*
X93714285Y-110501785D01*
X93523809Y-110549404D01*
X93380952Y-110549404D01*
X93190476Y-110501785D01*
X93095238Y-110454166D01*
X93000000Y-110358928D01*
X92952380Y-110216071D01*
X92952380Y-110120833D01*
X93000000Y-109977976D01*
X93047619Y-109930357D01*
X93952380Y-108977976D02*
X93952380Y-109549404D01*
X93952380Y-109263690D02*
X92952380Y-109263690D01*
X93095238Y-109358928D01*
X93190476Y-109454166D01*
X93238095Y-109549404D01*
X93047619Y-108597023D02*
X93000000Y-108549404D01*
X92952380Y-108454166D01*
X92952380Y-108216071D01*
X93000000Y-108120833D01*
X93047619Y-108073214D01*
X93142857Y-108025595D01*
X93238095Y-108025595D01*
X93380952Y-108073214D01*
X93952380Y-108644642D01*
X93952380Y-108025595D01*
%TO.C,C33*%
X66227142Y-119497857D02*
X66274761Y-119545476D01*
X66322380Y-119688333D01*
X66322380Y-119783571D01*
X66274761Y-119926428D01*
X66179523Y-120021666D01*
X66084285Y-120069285D01*
X65893809Y-120116904D01*
X65750952Y-120116904D01*
X65560476Y-120069285D01*
X65465238Y-120021666D01*
X65370000Y-119926428D01*
X65322380Y-119783571D01*
X65322380Y-119688333D01*
X65370000Y-119545476D01*
X65417619Y-119497857D01*
X65322380Y-119164523D02*
X65322380Y-118545476D01*
X65703333Y-118878809D01*
X65703333Y-118735952D01*
X65750952Y-118640714D01*
X65798571Y-118593095D01*
X65893809Y-118545476D01*
X66131904Y-118545476D01*
X66227142Y-118593095D01*
X66274761Y-118640714D01*
X66322380Y-118735952D01*
X66322380Y-119021666D01*
X66274761Y-119116904D01*
X66227142Y-119164523D01*
X65322380Y-118212142D02*
X65322380Y-117593095D01*
X65703333Y-117926428D01*
X65703333Y-117783571D01*
X65750952Y-117688333D01*
X65798571Y-117640714D01*
X65893809Y-117593095D01*
X66131904Y-117593095D01*
X66227142Y-117640714D01*
X66274761Y-117688333D01*
X66322380Y-117783571D01*
X66322380Y-118069285D01*
X66274761Y-118164523D01*
X66227142Y-118212142D01*
%TO.C,C7*%
X76157142Y-111516666D02*
X76204761Y-111564285D01*
X76252380Y-111707142D01*
X76252380Y-111802380D01*
X76204761Y-111945238D01*
X76109523Y-112040476D01*
X76014285Y-112088095D01*
X75823809Y-112135714D01*
X75680952Y-112135714D01*
X75490476Y-112088095D01*
X75395238Y-112040476D01*
X75300000Y-111945238D01*
X75252380Y-111802380D01*
X75252380Y-111707142D01*
X75300000Y-111564285D01*
X75347619Y-111516666D01*
X75252380Y-111183333D02*
X75252380Y-110516666D01*
X76252380Y-110945238D01*
%TO.C,C30*%
X106857142Y-121842857D02*
X106904761Y-121890476D01*
X106952380Y-122033333D01*
X106952380Y-122128571D01*
X106904761Y-122271428D01*
X106809523Y-122366666D01*
X106714285Y-122414285D01*
X106523809Y-122461904D01*
X106380952Y-122461904D01*
X106190476Y-122414285D01*
X106095238Y-122366666D01*
X106000000Y-122271428D01*
X105952380Y-122128571D01*
X105952380Y-122033333D01*
X106000000Y-121890476D01*
X106047619Y-121842857D01*
X105952380Y-121509523D02*
X105952380Y-120890476D01*
X106333333Y-121223809D01*
X106333333Y-121080952D01*
X106380952Y-120985714D01*
X106428571Y-120938095D01*
X106523809Y-120890476D01*
X106761904Y-120890476D01*
X106857142Y-120938095D01*
X106904761Y-120985714D01*
X106952380Y-121080952D01*
X106952380Y-121366666D01*
X106904761Y-121461904D01*
X106857142Y-121509523D01*
X105952380Y-120271428D02*
X105952380Y-120176190D01*
X106000000Y-120080952D01*
X106047619Y-120033333D01*
X106142857Y-119985714D01*
X106333333Y-119938095D01*
X106571428Y-119938095D01*
X106761904Y-119985714D01*
X106857142Y-120033333D01*
X106904761Y-120080952D01*
X106952380Y-120176190D01*
X106952380Y-120271428D01*
X106904761Y-120366666D01*
X106857142Y-120414285D01*
X106761904Y-120461904D01*
X106571428Y-120509523D01*
X106333333Y-120509523D01*
X106142857Y-120461904D01*
X106047619Y-120414285D01*
X106000000Y-120366666D01*
X105952380Y-120271428D01*
%TO.C,C20*%
X65690342Y-90603464D02*
X65690342Y-90670808D01*
X65622998Y-90805495D01*
X65555655Y-90872838D01*
X65420968Y-90940182D01*
X65286281Y-90940182D01*
X65185266Y-90906510D01*
X65016907Y-90805495D01*
X64915892Y-90704480D01*
X64814876Y-90536121D01*
X64781205Y-90435106D01*
X64781205Y-90300419D01*
X64848548Y-90165732D01*
X64915892Y-90098388D01*
X65050579Y-90031045D01*
X65117922Y-90031045D01*
X65387296Y-89761670D02*
X65387296Y-89694327D01*
X65420968Y-89593312D01*
X65589327Y-89424953D01*
X65690342Y-89391281D01*
X65757685Y-89391281D01*
X65858701Y-89424953D01*
X65926044Y-89492296D01*
X65993388Y-89626983D01*
X65993388Y-90435106D01*
X66431121Y-89997373D01*
X66161747Y-88852533D02*
X66229090Y-88785190D01*
X66330105Y-88751518D01*
X66397449Y-88751518D01*
X66498464Y-88785190D01*
X66666823Y-88886205D01*
X66835182Y-89054564D01*
X66936197Y-89222922D01*
X66969869Y-89323938D01*
X66969869Y-89391281D01*
X66936197Y-89492296D01*
X66868853Y-89559640D01*
X66767838Y-89593312D01*
X66700495Y-89593312D01*
X66599479Y-89559640D01*
X66431121Y-89458625D01*
X66262762Y-89290266D01*
X66161747Y-89121907D01*
X66128075Y-89020892D01*
X66128075Y-88953548D01*
X66161747Y-88852533D01*
%TO.C,U6*%
X56474880Y-110729404D02*
X57284404Y-110729404D01*
X57379642Y-110681785D01*
X57427261Y-110634166D01*
X57474880Y-110538928D01*
X57474880Y-110348452D01*
X57427261Y-110253214D01*
X57379642Y-110205595D01*
X57284404Y-110157976D01*
X56474880Y-110157976D01*
X56474880Y-109253214D02*
X56474880Y-109443690D01*
X56522500Y-109538928D01*
X56570119Y-109586547D01*
X56712976Y-109681785D01*
X56903452Y-109729404D01*
X57284404Y-109729404D01*
X57379642Y-109681785D01*
X57427261Y-109634166D01*
X57474880Y-109538928D01*
X57474880Y-109348452D01*
X57427261Y-109253214D01*
X57379642Y-109205595D01*
X57284404Y-109157976D01*
X57046309Y-109157976D01*
X56951071Y-109205595D01*
X56903452Y-109253214D01*
X56855833Y-109348452D01*
X56855833Y-109538928D01*
X56903452Y-109634166D01*
X56951071Y-109681785D01*
X57046309Y-109729404D01*
%TO.C,C14*%
X87357142Y-100842857D02*
X87404761Y-100890476D01*
X87452380Y-101033333D01*
X87452380Y-101128571D01*
X87404761Y-101271428D01*
X87309523Y-101366666D01*
X87214285Y-101414285D01*
X87023809Y-101461904D01*
X86880952Y-101461904D01*
X86690476Y-101414285D01*
X86595238Y-101366666D01*
X86500000Y-101271428D01*
X86452380Y-101128571D01*
X86452380Y-101033333D01*
X86500000Y-100890476D01*
X86547619Y-100842857D01*
X87452380Y-99890476D02*
X87452380Y-100461904D01*
X87452380Y-100176190D02*
X86452380Y-100176190D01*
X86595238Y-100271428D01*
X86690476Y-100366666D01*
X86738095Y-100461904D01*
X86785714Y-99033333D02*
X87452380Y-99033333D01*
X86404761Y-99271428D02*
X87119047Y-99509523D01*
X87119047Y-98890476D01*
%TO.C,J1*%
X113397380Y-94133333D02*
X114111666Y-94133333D01*
X114254523Y-94180952D01*
X114349761Y-94276190D01*
X114397380Y-94419047D01*
X114397380Y-94514285D01*
X114397380Y-93133333D02*
X114397380Y-93704761D01*
X114397380Y-93419047D02*
X113397380Y-93419047D01*
X113540238Y-93514285D01*
X113635476Y-93609523D01*
X113683095Y-93704761D01*
%TO.C,C17*%
X70357142Y-90257142D02*
X70309523Y-90304761D01*
X70166666Y-90352380D01*
X70071428Y-90352380D01*
X69928571Y-90304761D01*
X69833333Y-90209523D01*
X69785714Y-90114285D01*
X69738095Y-89923809D01*
X69738095Y-89780952D01*
X69785714Y-89590476D01*
X69833333Y-89495238D01*
X69928571Y-89400000D01*
X70071428Y-89352380D01*
X70166666Y-89352380D01*
X70309523Y-89400000D01*
X70357142Y-89447619D01*
X71309523Y-90352380D02*
X70738095Y-90352380D01*
X71023809Y-90352380D02*
X71023809Y-89352380D01*
X70928571Y-89495238D01*
X70833333Y-89590476D01*
X70738095Y-89638095D01*
X71642857Y-89352380D02*
X72309523Y-89352380D01*
X71880952Y-90352380D01*
%TO.C,C19*%
X71557142Y-83757142D02*
X71509523Y-83804761D01*
X71366666Y-83852380D01*
X71271428Y-83852380D01*
X71128571Y-83804761D01*
X71033333Y-83709523D01*
X70985714Y-83614285D01*
X70938095Y-83423809D01*
X70938095Y-83280952D01*
X70985714Y-83090476D01*
X71033333Y-82995238D01*
X71128571Y-82900000D01*
X71271428Y-82852380D01*
X71366666Y-82852380D01*
X71509523Y-82900000D01*
X71557142Y-82947619D01*
X72509523Y-83852380D02*
X71938095Y-83852380D01*
X72223809Y-83852380D02*
X72223809Y-82852380D01*
X72128571Y-82995238D01*
X72033333Y-83090476D01*
X71938095Y-83138095D01*
X72985714Y-83852380D02*
X73176190Y-83852380D01*
X73271428Y-83804761D01*
X73319047Y-83757142D01*
X73414285Y-83614285D01*
X73461904Y-83423809D01*
X73461904Y-83042857D01*
X73414285Y-82947619D01*
X73366666Y-82900000D01*
X73271428Y-82852380D01*
X73080952Y-82852380D01*
X72985714Y-82900000D01*
X72938095Y-82947619D01*
X72890476Y-83042857D01*
X72890476Y-83280952D01*
X72938095Y-83376190D01*
X72985714Y-83423809D01*
X73080952Y-83471428D01*
X73271428Y-83471428D01*
X73366666Y-83423809D01*
X73414285Y-83376190D01*
X73461904Y-83280952D01*
%TO.C,C35*%
X94257142Y-114042857D02*
X94304761Y-114090476D01*
X94352380Y-114233333D01*
X94352380Y-114328571D01*
X94304761Y-114471428D01*
X94209523Y-114566666D01*
X94114285Y-114614285D01*
X93923809Y-114661904D01*
X93780952Y-114661904D01*
X93590476Y-114614285D01*
X93495238Y-114566666D01*
X93400000Y-114471428D01*
X93352380Y-114328571D01*
X93352380Y-114233333D01*
X93400000Y-114090476D01*
X93447619Y-114042857D01*
X93352380Y-113709523D02*
X93352380Y-113090476D01*
X93733333Y-113423809D01*
X93733333Y-113280952D01*
X93780952Y-113185714D01*
X93828571Y-113138095D01*
X93923809Y-113090476D01*
X94161904Y-113090476D01*
X94257142Y-113138095D01*
X94304761Y-113185714D01*
X94352380Y-113280952D01*
X94352380Y-113566666D01*
X94304761Y-113661904D01*
X94257142Y-113709523D01*
X93352380Y-112185714D02*
X93352380Y-112661904D01*
X93828571Y-112709523D01*
X93780952Y-112661904D01*
X93733333Y-112566666D01*
X93733333Y-112328571D01*
X93780952Y-112233333D01*
X93828571Y-112185714D01*
X93923809Y-112138095D01*
X94161904Y-112138095D01*
X94257142Y-112185714D01*
X94304761Y-112233333D01*
X94352380Y-112328571D01*
X94352380Y-112566666D01*
X94304761Y-112661904D01*
X94257142Y-112709523D01*
%TO.C,R6*%
X76252380Y-85566666D02*
X75776190Y-85900000D01*
X76252380Y-86138095D02*
X75252380Y-86138095D01*
X75252380Y-85757142D01*
X75300000Y-85661904D01*
X75347619Y-85614285D01*
X75442857Y-85566666D01*
X75585714Y-85566666D01*
X75680952Y-85614285D01*
X75728571Y-85661904D01*
X75776190Y-85757142D01*
X75776190Y-86138095D01*
X75252380Y-84709523D02*
X75252380Y-84900000D01*
X75300000Y-84995238D01*
X75347619Y-85042857D01*
X75490476Y-85138095D01*
X75680952Y-85185714D01*
X76061904Y-85185714D01*
X76157142Y-85138095D01*
X76204761Y-85090476D01*
X76252380Y-84995238D01*
X76252380Y-84804761D01*
X76204761Y-84709523D01*
X76157142Y-84661904D01*
X76061904Y-84614285D01*
X75823809Y-84614285D01*
X75728571Y-84661904D01*
X75680952Y-84709523D01*
X75633333Y-84804761D01*
X75633333Y-84995238D01*
X75680952Y-85090476D01*
X75728571Y-85138095D01*
X75823809Y-85185714D01*
%TO.C,C10*%
X100182142Y-109930357D02*
X100229761Y-109977976D01*
X100277380Y-110120833D01*
X100277380Y-110216071D01*
X100229761Y-110358928D01*
X100134523Y-110454166D01*
X100039285Y-110501785D01*
X99848809Y-110549404D01*
X99705952Y-110549404D01*
X99515476Y-110501785D01*
X99420238Y-110454166D01*
X99325000Y-110358928D01*
X99277380Y-110216071D01*
X99277380Y-110120833D01*
X99325000Y-109977976D01*
X99372619Y-109930357D01*
X100277380Y-108977976D02*
X100277380Y-109549404D01*
X100277380Y-109263690D02*
X99277380Y-109263690D01*
X99420238Y-109358928D01*
X99515476Y-109454166D01*
X99563095Y-109549404D01*
X99277380Y-108358928D02*
X99277380Y-108263690D01*
X99325000Y-108168452D01*
X99372619Y-108120833D01*
X99467857Y-108073214D01*
X99658333Y-108025595D01*
X99896428Y-108025595D01*
X100086904Y-108073214D01*
X100182142Y-108120833D01*
X100229761Y-108168452D01*
X100277380Y-108263690D01*
X100277380Y-108358928D01*
X100229761Y-108454166D01*
X100182142Y-108501785D01*
X100086904Y-108549404D01*
X99896428Y-108597023D01*
X99658333Y-108597023D01*
X99467857Y-108549404D01*
X99372619Y-108501785D01*
X99325000Y-108454166D01*
X99277380Y-108358928D01*
%TO.C,J5*%
X112352380Y-80733333D02*
X113066666Y-80733333D01*
X113209523Y-80780952D01*
X113304761Y-80876190D01*
X113352380Y-81019047D01*
X113352380Y-81114285D01*
X112352380Y-79780952D02*
X112352380Y-80257142D01*
X112828571Y-80304761D01*
X112780952Y-80257142D01*
X112733333Y-80161904D01*
X112733333Y-79923809D01*
X112780952Y-79828571D01*
X112828571Y-79780952D01*
X112923809Y-79733333D01*
X113161904Y-79733333D01*
X113257142Y-79780952D01*
X113304761Y-79828571D01*
X113352380Y-79923809D01*
X113352380Y-80161904D01*
X113304761Y-80257142D01*
X113257142Y-80304761D01*
%TO.C,U1*%
X95725595Y-99264880D02*
X95725595Y-100074404D01*
X95773214Y-100169642D01*
X95820833Y-100217261D01*
X95916071Y-100264880D01*
X96106547Y-100264880D01*
X96201785Y-100217261D01*
X96249404Y-100169642D01*
X96297023Y-100074404D01*
X96297023Y-99264880D01*
X97297023Y-100264880D02*
X96725595Y-100264880D01*
X97011309Y-100264880D02*
X97011309Y-99264880D01*
X96916071Y-99407738D01*
X96820833Y-99502976D01*
X96725595Y-99550595D01*
%TO.C,R5*%
X77852380Y-111516666D02*
X77376190Y-111850000D01*
X77852380Y-112088095D02*
X76852380Y-112088095D01*
X76852380Y-111707142D01*
X76900000Y-111611904D01*
X76947619Y-111564285D01*
X77042857Y-111516666D01*
X77185714Y-111516666D01*
X77280952Y-111564285D01*
X77328571Y-111611904D01*
X77376190Y-111707142D01*
X77376190Y-112088095D01*
X76852380Y-110611904D02*
X76852380Y-111088095D01*
X77328571Y-111135714D01*
X77280952Y-111088095D01*
X77233333Y-110992857D01*
X77233333Y-110754761D01*
X77280952Y-110659523D01*
X77328571Y-110611904D01*
X77423809Y-110564285D01*
X77661904Y-110564285D01*
X77757142Y-110611904D01*
X77804761Y-110659523D01*
X77852380Y-110754761D01*
X77852380Y-110992857D01*
X77804761Y-111088095D01*
X77757142Y-111135714D01*
%TO.C,R7*%
X60702083Y-94382380D02*
X60368750Y-93906190D01*
X60130654Y-94382380D02*
X60130654Y-93382380D01*
X60511607Y-93382380D01*
X60606845Y-93430000D01*
X60654464Y-93477619D01*
X60702083Y-93572857D01*
X60702083Y-93715714D01*
X60654464Y-93810952D01*
X60606845Y-93858571D01*
X60511607Y-93906190D01*
X60130654Y-93906190D01*
X61035416Y-93382380D02*
X61702083Y-93382380D01*
X61273511Y-94382380D01*
%TO.C,C11*%
X101882142Y-109930357D02*
X101929761Y-109977976D01*
X101977380Y-110120833D01*
X101977380Y-110216071D01*
X101929761Y-110358928D01*
X101834523Y-110454166D01*
X101739285Y-110501785D01*
X101548809Y-110549404D01*
X101405952Y-110549404D01*
X101215476Y-110501785D01*
X101120238Y-110454166D01*
X101025000Y-110358928D01*
X100977380Y-110216071D01*
X100977380Y-110120833D01*
X101025000Y-109977976D01*
X101072619Y-109930357D01*
X101977380Y-108977976D02*
X101977380Y-109549404D01*
X101977380Y-109263690D02*
X100977380Y-109263690D01*
X101120238Y-109358928D01*
X101215476Y-109454166D01*
X101263095Y-109549404D01*
X101977380Y-108025595D02*
X101977380Y-108597023D01*
X101977380Y-108311309D02*
X100977380Y-108311309D01*
X101120238Y-108406547D01*
X101215476Y-108501785D01*
X101263095Y-108597023D01*
%TO.C,C27*%
X58997142Y-116410357D02*
X59044761Y-116457976D01*
X59092380Y-116600833D01*
X59092380Y-116696071D01*
X59044761Y-116838928D01*
X58949523Y-116934166D01*
X58854285Y-116981785D01*
X58663809Y-117029404D01*
X58520952Y-117029404D01*
X58330476Y-116981785D01*
X58235238Y-116934166D01*
X58140000Y-116838928D01*
X58092380Y-116696071D01*
X58092380Y-116600833D01*
X58140000Y-116457976D01*
X58187619Y-116410357D01*
X58187619Y-116029404D02*
X58140000Y-115981785D01*
X58092380Y-115886547D01*
X58092380Y-115648452D01*
X58140000Y-115553214D01*
X58187619Y-115505595D01*
X58282857Y-115457976D01*
X58378095Y-115457976D01*
X58520952Y-115505595D01*
X59092380Y-116077023D01*
X59092380Y-115457976D01*
X58092380Y-115124642D02*
X58092380Y-114457976D01*
X59092380Y-114886547D01*
%TO.C,J6*%
X72222380Y-123633333D02*
X72936666Y-123633333D01*
X73079523Y-123680952D01*
X73174761Y-123776190D01*
X73222380Y-123919047D01*
X73222380Y-124014285D01*
X72222380Y-122728571D02*
X72222380Y-122919047D01*
X72270000Y-123014285D01*
X72317619Y-123061904D01*
X72460476Y-123157142D01*
X72650952Y-123204761D01*
X73031904Y-123204761D01*
X73127142Y-123157142D01*
X73174761Y-123109523D01*
X73222380Y-123014285D01*
X73222380Y-122823809D01*
X73174761Y-122728571D01*
X73127142Y-122680952D01*
X73031904Y-122633333D01*
X72793809Y-122633333D01*
X72698571Y-122680952D01*
X72650952Y-122728571D01*
X72603333Y-122823809D01*
X72603333Y-123014285D01*
X72650952Y-123109523D01*
X72698571Y-123157142D01*
X72793809Y-123204761D01*
%TO.C,R13*%
X92082380Y-91442857D02*
X91606190Y-91776190D01*
X92082380Y-92014285D02*
X91082380Y-92014285D01*
X91082380Y-91633333D01*
X91130000Y-91538095D01*
X91177619Y-91490476D01*
X91272857Y-91442857D01*
X91415714Y-91442857D01*
X91510952Y-91490476D01*
X91558571Y-91538095D01*
X91606190Y-91633333D01*
X91606190Y-92014285D01*
X92082380Y-90490476D02*
X92082380Y-91061904D01*
X92082380Y-90776190D02*
X91082380Y-90776190D01*
X91225238Y-90871428D01*
X91320476Y-90966666D01*
X91368095Y-91061904D01*
X91082380Y-90157142D02*
X91082380Y-89538095D01*
X91463333Y-89871428D01*
X91463333Y-89728571D01*
X91510952Y-89633333D01*
X91558571Y-89585714D01*
X91653809Y-89538095D01*
X91891904Y-89538095D01*
X91987142Y-89585714D01*
X92034761Y-89633333D01*
X92082380Y-89728571D01*
X92082380Y-90014285D01*
X92034761Y-90109523D01*
X91987142Y-90157142D01*
%TO.C,D6*%
X62096904Y-100589880D02*
X62096904Y-99589880D01*
X62335000Y-99589880D01*
X62477857Y-99637500D01*
X62573095Y-99732738D01*
X62620714Y-99827976D01*
X62668333Y-100018452D01*
X62668333Y-100161309D01*
X62620714Y-100351785D01*
X62573095Y-100447023D01*
X62477857Y-100542261D01*
X62335000Y-100589880D01*
X62096904Y-100589880D01*
X63525476Y-99589880D02*
X63335000Y-99589880D01*
X63239761Y-99637500D01*
X63192142Y-99685119D01*
X63096904Y-99827976D01*
X63049285Y-100018452D01*
X63049285Y-100399404D01*
X63096904Y-100494642D01*
X63144523Y-100542261D01*
X63239761Y-100589880D01*
X63430238Y-100589880D01*
X63525476Y-100542261D01*
X63573095Y-100494642D01*
X63620714Y-100399404D01*
X63620714Y-100161309D01*
X63573095Y-100066071D01*
X63525476Y-100018452D01*
X63430238Y-99970833D01*
X63239761Y-99970833D01*
X63144523Y-100018452D01*
X63096904Y-100066071D01*
X63049285Y-100161309D01*
%TO.C,C13*%
X92157142Y-109942857D02*
X92204761Y-109990476D01*
X92252380Y-110133333D01*
X92252380Y-110228571D01*
X92204761Y-110371428D01*
X92109523Y-110466666D01*
X92014285Y-110514285D01*
X91823809Y-110561904D01*
X91680952Y-110561904D01*
X91490476Y-110514285D01*
X91395238Y-110466666D01*
X91300000Y-110371428D01*
X91252380Y-110228571D01*
X91252380Y-110133333D01*
X91300000Y-109990476D01*
X91347619Y-109942857D01*
X92252380Y-108990476D02*
X92252380Y-109561904D01*
X92252380Y-109276190D02*
X91252380Y-109276190D01*
X91395238Y-109371428D01*
X91490476Y-109466666D01*
X91538095Y-109561904D01*
X91252380Y-108657142D02*
X91252380Y-108038095D01*
X91633333Y-108371428D01*
X91633333Y-108228571D01*
X91680952Y-108133333D01*
X91728571Y-108085714D01*
X91823809Y-108038095D01*
X92061904Y-108038095D01*
X92157142Y-108085714D01*
X92204761Y-108133333D01*
X92252380Y-108228571D01*
X92252380Y-108514285D01*
X92204761Y-108609523D01*
X92157142Y-108657142D01*
%TO.C,C29*%
X63079642Y-104810357D02*
X63127261Y-104857976D01*
X63174880Y-105000833D01*
X63174880Y-105096071D01*
X63127261Y-105238928D01*
X63032023Y-105334166D01*
X62936785Y-105381785D01*
X62746309Y-105429404D01*
X62603452Y-105429404D01*
X62412976Y-105381785D01*
X62317738Y-105334166D01*
X62222500Y-105238928D01*
X62174880Y-105096071D01*
X62174880Y-105000833D01*
X62222500Y-104857976D01*
X62270119Y-104810357D01*
X62270119Y-104429404D02*
X62222500Y-104381785D01*
X62174880Y-104286547D01*
X62174880Y-104048452D01*
X62222500Y-103953214D01*
X62270119Y-103905595D01*
X62365357Y-103857976D01*
X62460595Y-103857976D01*
X62603452Y-103905595D01*
X63174880Y-104477023D01*
X63174880Y-103857976D01*
X63174880Y-103381785D02*
X63174880Y-103191309D01*
X63127261Y-103096071D01*
X63079642Y-103048452D01*
X62936785Y-102953214D01*
X62746309Y-102905595D01*
X62365357Y-102905595D01*
X62270119Y-102953214D01*
X62222500Y-103000833D01*
X62174880Y-103096071D01*
X62174880Y-103286547D01*
X62222500Y-103381785D01*
X62270119Y-103429404D01*
X62365357Y-103477023D01*
X62603452Y-103477023D01*
X62698690Y-103429404D01*
X62746309Y-103381785D01*
X62793928Y-103286547D01*
X62793928Y-103096071D01*
X62746309Y-103000833D01*
X62698690Y-102953214D01*
X62603452Y-102905595D01*
%TO.C,C4*%
X100182142Y-100179166D02*
X100229761Y-100226785D01*
X100277380Y-100369642D01*
X100277380Y-100464880D01*
X100229761Y-100607738D01*
X100134523Y-100702976D01*
X100039285Y-100750595D01*
X99848809Y-100798214D01*
X99705952Y-100798214D01*
X99515476Y-100750595D01*
X99420238Y-100702976D01*
X99325000Y-100607738D01*
X99277380Y-100464880D01*
X99277380Y-100369642D01*
X99325000Y-100226785D01*
X99372619Y-100179166D01*
X99610714Y-99322023D02*
X100277380Y-99322023D01*
X99229761Y-99560119D02*
X99944047Y-99798214D01*
X99944047Y-99179166D01*
%TO.C,U2*%
X110537380Y-91149523D02*
X110537380Y-91667619D01*
X110567857Y-91728571D01*
X110598333Y-91759047D01*
X110659285Y-91789523D01*
X110781190Y-91789523D01*
X110842142Y-91759047D01*
X110872619Y-91728571D01*
X110903095Y-91667619D01*
X110903095Y-91149523D01*
X111177380Y-91210476D02*
X111207857Y-91180000D01*
X111268809Y-91149523D01*
X111421190Y-91149523D01*
X111482142Y-91180000D01*
X111512619Y-91210476D01*
X111543095Y-91271428D01*
X111543095Y-91332380D01*
X111512619Y-91423809D01*
X111146904Y-91789523D01*
X111543095Y-91789523D01*
%TO.C,R10*%
X63752380Y-116410357D02*
X63276190Y-116743690D01*
X63752380Y-116981785D02*
X62752380Y-116981785D01*
X62752380Y-116600833D01*
X62800000Y-116505595D01*
X62847619Y-116457976D01*
X62942857Y-116410357D01*
X63085714Y-116410357D01*
X63180952Y-116457976D01*
X63228571Y-116505595D01*
X63276190Y-116600833D01*
X63276190Y-116981785D01*
X63752380Y-115457976D02*
X63752380Y-116029404D01*
X63752380Y-115743690D02*
X62752380Y-115743690D01*
X62895238Y-115838928D01*
X62990476Y-115934166D01*
X63038095Y-116029404D01*
X62752380Y-114838928D02*
X62752380Y-114743690D01*
X62800000Y-114648452D01*
X62847619Y-114600833D01*
X62942857Y-114553214D01*
X63133333Y-114505595D01*
X63371428Y-114505595D01*
X63561904Y-114553214D01*
X63657142Y-114600833D01*
X63704761Y-114648452D01*
X63752380Y-114743690D01*
X63752380Y-114838928D01*
X63704761Y-114934166D01*
X63657142Y-114981785D01*
X63561904Y-115029404D01*
X63371428Y-115077023D01*
X63133333Y-115077023D01*
X62942857Y-115029404D01*
X62847619Y-114981785D01*
X62800000Y-114934166D01*
X62752380Y-114838928D01*
%TO.C,R12*%
X67627142Y-122082380D02*
X67293809Y-121606190D01*
X67055714Y-122082380D02*
X67055714Y-121082380D01*
X67436666Y-121082380D01*
X67531904Y-121130000D01*
X67579523Y-121177619D01*
X67627142Y-121272857D01*
X67627142Y-121415714D01*
X67579523Y-121510952D01*
X67531904Y-121558571D01*
X67436666Y-121606190D01*
X67055714Y-121606190D01*
X68579523Y-122082380D02*
X68008095Y-122082380D01*
X68293809Y-122082380D02*
X68293809Y-121082380D01*
X68198571Y-121225238D01*
X68103333Y-121320476D01*
X68008095Y-121368095D01*
X68960476Y-121177619D02*
X69008095Y-121130000D01*
X69103333Y-121082380D01*
X69341428Y-121082380D01*
X69436666Y-121130000D01*
X69484285Y-121177619D01*
X69531904Y-121272857D01*
X69531904Y-121368095D01*
X69484285Y-121510952D01*
X68912857Y-122082380D01*
X69531904Y-122082380D01*
%TO.C,Y1*%
X70923809Y-94076190D02*
X70923809Y-94552380D01*
X70590476Y-93552380D02*
X70923809Y-94076190D01*
X71257142Y-93552380D01*
X72114285Y-94552380D02*
X71542857Y-94552380D01*
X71828571Y-94552380D02*
X71828571Y-93552380D01*
X71733333Y-93695238D01*
X71638095Y-93790476D01*
X71542857Y-93838095D01*
%TO.C,C22*%
X70657142Y-100342857D02*
X70704761Y-100390476D01*
X70752380Y-100533333D01*
X70752380Y-100628571D01*
X70704761Y-100771428D01*
X70609523Y-100866666D01*
X70514285Y-100914285D01*
X70323809Y-100961904D01*
X70180952Y-100961904D01*
X69990476Y-100914285D01*
X69895238Y-100866666D01*
X69800000Y-100771428D01*
X69752380Y-100628571D01*
X69752380Y-100533333D01*
X69800000Y-100390476D01*
X69847619Y-100342857D01*
X69847619Y-99961904D02*
X69800000Y-99914285D01*
X69752380Y-99819047D01*
X69752380Y-99580952D01*
X69800000Y-99485714D01*
X69847619Y-99438095D01*
X69942857Y-99390476D01*
X70038095Y-99390476D01*
X70180952Y-99438095D01*
X70752380Y-100009523D01*
X70752380Y-99390476D01*
X69847619Y-99009523D02*
X69800000Y-98961904D01*
X69752380Y-98866666D01*
X69752380Y-98628571D01*
X69800000Y-98533333D01*
X69847619Y-98485714D01*
X69942857Y-98438095D01*
X70038095Y-98438095D01*
X70180952Y-98485714D01*
X70752380Y-99057142D01*
X70752380Y-98438095D01*
%TO.C,C15*%
X74494642Y-105157142D02*
X74447023Y-105204761D01*
X74304166Y-105252380D01*
X74208928Y-105252380D01*
X74066071Y-105204761D01*
X73970833Y-105109523D01*
X73923214Y-105014285D01*
X73875595Y-104823809D01*
X73875595Y-104680952D01*
X73923214Y-104490476D01*
X73970833Y-104395238D01*
X74066071Y-104300000D01*
X74208928Y-104252380D01*
X74304166Y-104252380D01*
X74447023Y-104300000D01*
X74494642Y-104347619D01*
X75447023Y-105252380D02*
X74875595Y-105252380D01*
X75161309Y-105252380D02*
X75161309Y-104252380D01*
X75066071Y-104395238D01*
X74970833Y-104490476D01*
X74875595Y-104538095D01*
X76351785Y-104252380D02*
X75875595Y-104252380D01*
X75827976Y-104728571D01*
X75875595Y-104680952D01*
X75970833Y-104633333D01*
X76208928Y-104633333D01*
X76304166Y-104680952D01*
X76351785Y-104728571D01*
X76399404Y-104823809D01*
X76399404Y-105061904D01*
X76351785Y-105157142D01*
X76304166Y-105204761D01*
X76208928Y-105252380D01*
X75970833Y-105252380D01*
X75875595Y-105204761D01*
X75827976Y-105157142D01*
%TO.C,R3*%
X116933333Y-85852380D02*
X116600000Y-85376190D01*
X116361904Y-85852380D02*
X116361904Y-84852380D01*
X116742857Y-84852380D01*
X116838095Y-84900000D01*
X116885714Y-84947619D01*
X116933333Y-85042857D01*
X116933333Y-85185714D01*
X116885714Y-85280952D01*
X116838095Y-85328571D01*
X116742857Y-85376190D01*
X116361904Y-85376190D01*
X117266666Y-84852380D02*
X117885714Y-84852380D01*
X117552380Y-85233333D01*
X117695238Y-85233333D01*
X117790476Y-85280952D01*
X117838095Y-85328571D01*
X117885714Y-85423809D01*
X117885714Y-85661904D01*
X117838095Y-85757142D01*
X117790476Y-85804761D01*
X117695238Y-85852380D01*
X117409523Y-85852380D01*
X117314285Y-85804761D01*
X117266666Y-85757142D01*
%TO.C,C25*%
X58349642Y-104810357D02*
X58397261Y-104857976D01*
X58444880Y-105000833D01*
X58444880Y-105096071D01*
X58397261Y-105238928D01*
X58302023Y-105334166D01*
X58206785Y-105381785D01*
X58016309Y-105429404D01*
X57873452Y-105429404D01*
X57682976Y-105381785D01*
X57587738Y-105334166D01*
X57492500Y-105238928D01*
X57444880Y-105096071D01*
X57444880Y-105000833D01*
X57492500Y-104857976D01*
X57540119Y-104810357D01*
X57540119Y-104429404D02*
X57492500Y-104381785D01*
X57444880Y-104286547D01*
X57444880Y-104048452D01*
X57492500Y-103953214D01*
X57540119Y-103905595D01*
X57635357Y-103857976D01*
X57730595Y-103857976D01*
X57873452Y-103905595D01*
X58444880Y-104477023D01*
X58444880Y-103857976D01*
X57444880Y-102953214D02*
X57444880Y-103429404D01*
X57921071Y-103477023D01*
X57873452Y-103429404D01*
X57825833Y-103334166D01*
X57825833Y-103096071D01*
X57873452Y-103000833D01*
X57921071Y-102953214D01*
X58016309Y-102905595D01*
X58254404Y-102905595D01*
X58349642Y-102953214D01*
X58397261Y-103000833D01*
X58444880Y-103096071D01*
X58444880Y-103334166D01*
X58397261Y-103429404D01*
X58349642Y-103477023D01*
%TO.C,R2*%
X116458333Y-101982380D02*
X116125000Y-101506190D01*
X115886904Y-101982380D02*
X115886904Y-100982380D01*
X116267857Y-100982380D01*
X116363095Y-101030000D01*
X116410714Y-101077619D01*
X116458333Y-101172857D01*
X116458333Y-101315714D01*
X116410714Y-101410952D01*
X116363095Y-101458571D01*
X116267857Y-101506190D01*
X115886904Y-101506190D01*
X116839285Y-101077619D02*
X116886904Y-101030000D01*
X116982142Y-100982380D01*
X117220238Y-100982380D01*
X117315476Y-101030000D01*
X117363095Y-101077619D01*
X117410714Y-101172857D01*
X117410714Y-101268095D01*
X117363095Y-101410952D01*
X116791666Y-101982380D01*
X117410714Y-101982380D01*
%TO.C,C32*%
X70227142Y-104910357D02*
X70274761Y-104957976D01*
X70322380Y-105100833D01*
X70322380Y-105196071D01*
X70274761Y-105338928D01*
X70179523Y-105434166D01*
X70084285Y-105481785D01*
X69893809Y-105529404D01*
X69750952Y-105529404D01*
X69560476Y-105481785D01*
X69465238Y-105434166D01*
X69370000Y-105338928D01*
X69322380Y-105196071D01*
X69322380Y-105100833D01*
X69370000Y-104957976D01*
X69417619Y-104910357D01*
X69322380Y-104577023D02*
X69322380Y-103957976D01*
X69703333Y-104291309D01*
X69703333Y-104148452D01*
X69750952Y-104053214D01*
X69798571Y-104005595D01*
X69893809Y-103957976D01*
X70131904Y-103957976D01*
X70227142Y-104005595D01*
X70274761Y-104053214D01*
X70322380Y-104148452D01*
X70322380Y-104434166D01*
X70274761Y-104529404D01*
X70227142Y-104577023D01*
X69417619Y-103577023D02*
X69370000Y-103529404D01*
X69322380Y-103434166D01*
X69322380Y-103196071D01*
X69370000Y-103100833D01*
X69417619Y-103053214D01*
X69512857Y-103005595D01*
X69608095Y-103005595D01*
X69750952Y-103053214D01*
X70322380Y-103624642D01*
X70322380Y-103005595D01*
%TO.C,FB2*%
X105291666Y-104758571D02*
X104958333Y-104758571D01*
X104958333Y-105282380D02*
X104958333Y-104282380D01*
X105434523Y-104282380D01*
X106148809Y-104758571D02*
X106291666Y-104806190D01*
X106339285Y-104853809D01*
X106386904Y-104949047D01*
X106386904Y-105091904D01*
X106339285Y-105187142D01*
X106291666Y-105234761D01*
X106196428Y-105282380D01*
X105815476Y-105282380D01*
X105815476Y-104282380D01*
X106148809Y-104282380D01*
X106244047Y-104330000D01*
X106291666Y-104377619D01*
X106339285Y-104472857D01*
X106339285Y-104568095D01*
X106291666Y-104663333D01*
X106244047Y-104710952D01*
X106148809Y-104758571D01*
X105815476Y-104758571D01*
X106767857Y-104377619D02*
X106815476Y-104330000D01*
X106910714Y-104282380D01*
X107148809Y-104282380D01*
X107244047Y-104330000D01*
X107291666Y-104377619D01*
X107339285Y-104472857D01*
X107339285Y-104568095D01*
X107291666Y-104710952D01*
X106720238Y-105282380D01*
X107339285Y-105282380D01*
%TO.C,D4*%
X58596904Y-100589880D02*
X58596904Y-99589880D01*
X58835000Y-99589880D01*
X58977857Y-99637500D01*
X59073095Y-99732738D01*
X59120714Y-99827976D01*
X59168333Y-100018452D01*
X59168333Y-100161309D01*
X59120714Y-100351785D01*
X59073095Y-100447023D01*
X58977857Y-100542261D01*
X58835000Y-100589880D01*
X58596904Y-100589880D01*
X60025476Y-99923214D02*
X60025476Y-100589880D01*
X59787380Y-99542261D02*
X59549285Y-100256547D01*
X60168333Y-100256547D01*
%TO.C,R4*%
X74552380Y-117716666D02*
X74076190Y-118050000D01*
X74552380Y-118288095D02*
X73552380Y-118288095D01*
X73552380Y-117907142D01*
X73600000Y-117811904D01*
X73647619Y-117764285D01*
X73742857Y-117716666D01*
X73885714Y-117716666D01*
X73980952Y-117764285D01*
X74028571Y-117811904D01*
X74076190Y-117907142D01*
X74076190Y-118288095D01*
X73885714Y-116859523D02*
X74552380Y-116859523D01*
X73504761Y-117097619D02*
X74219047Y-117335714D01*
X74219047Y-116716666D01*
%TO.C,J3*%
X106019400Y-114181989D02*
X107163899Y-114181989D01*
X107392799Y-114258289D01*
X107545399Y-114410889D01*
X107621699Y-114639789D01*
X107621699Y-114792389D01*
X106019400Y-113571590D02*
X106019400Y-112579690D01*
X106629800Y-113113790D01*
X106629800Y-112884890D01*
X106706100Y-112732290D01*
X106782400Y-112655990D01*
X106934999Y-112579690D01*
X107316499Y-112579690D01*
X107469099Y-112655990D01*
X107545399Y-112732290D01*
X107621699Y-112884890D01*
X107621699Y-113342690D01*
X107545399Y-113495290D01*
X107469099Y-113571590D01*
%TO.C,C36*%
X83957142Y-106257142D02*
X83909523Y-106304761D01*
X83766666Y-106352380D01*
X83671428Y-106352380D01*
X83528571Y-106304761D01*
X83433333Y-106209523D01*
X83385714Y-106114285D01*
X83338095Y-105923809D01*
X83338095Y-105780952D01*
X83385714Y-105590476D01*
X83433333Y-105495238D01*
X83528571Y-105400000D01*
X83671428Y-105352380D01*
X83766666Y-105352380D01*
X83909523Y-105400000D01*
X83957142Y-105447619D01*
X84290476Y-105352380D02*
X84909523Y-105352380D01*
X84576190Y-105733333D01*
X84719047Y-105733333D01*
X84814285Y-105780952D01*
X84861904Y-105828571D01*
X84909523Y-105923809D01*
X84909523Y-106161904D01*
X84861904Y-106257142D01*
X84814285Y-106304761D01*
X84719047Y-106352380D01*
X84433333Y-106352380D01*
X84338095Y-106304761D01*
X84290476Y-106257142D01*
X85766666Y-105352380D02*
X85576190Y-105352380D01*
X85480952Y-105400000D01*
X85433333Y-105447619D01*
X85338095Y-105590476D01*
X85290476Y-105780952D01*
X85290476Y-106161904D01*
X85338095Y-106257142D01*
X85385714Y-106304761D01*
X85480952Y-106352380D01*
X85671428Y-106352380D01*
X85766666Y-106304761D01*
X85814285Y-106257142D01*
X85861904Y-106161904D01*
X85861904Y-105923809D01*
X85814285Y-105828571D01*
X85766666Y-105780952D01*
X85671428Y-105733333D01*
X85480952Y-105733333D01*
X85385714Y-105780952D01*
X85338095Y-105828571D01*
X85290476Y-105923809D01*
%TO.C,J4*%
X76652380Y-80333333D02*
X77366666Y-80333333D01*
X77509523Y-80380952D01*
X77604761Y-80476190D01*
X77652380Y-80619047D01*
X77652380Y-80714285D01*
X76985714Y-79428571D02*
X77652380Y-79428571D01*
X76604761Y-79666666D02*
X77319047Y-79904761D01*
X77319047Y-79285714D01*
%TO.C,R9*%
X71152380Y-115934166D02*
X70676190Y-116267500D01*
X71152380Y-116505595D02*
X70152380Y-116505595D01*
X70152380Y-116124642D01*
X70200000Y-116029404D01*
X70247619Y-115981785D01*
X70342857Y-115934166D01*
X70485714Y-115934166D01*
X70580952Y-115981785D01*
X70628571Y-116029404D01*
X70676190Y-116124642D01*
X70676190Y-116505595D01*
X71152380Y-115457976D02*
X71152380Y-115267500D01*
X71104761Y-115172261D01*
X71057142Y-115124642D01*
X70914285Y-115029404D01*
X70723809Y-114981785D01*
X70342857Y-114981785D01*
X70247619Y-115029404D01*
X70200000Y-115077023D01*
X70152380Y-115172261D01*
X70152380Y-115362738D01*
X70200000Y-115457976D01*
X70247619Y-115505595D01*
X70342857Y-115553214D01*
X70580952Y-115553214D01*
X70676190Y-115505595D01*
X70723809Y-115457976D01*
X70771428Y-115362738D01*
X70771428Y-115172261D01*
X70723809Y-115077023D01*
X70676190Y-115029404D01*
X70580952Y-114981785D01*
%TO.C,C5*%
X93482142Y-100279166D02*
X93529761Y-100326785D01*
X93577380Y-100469642D01*
X93577380Y-100564880D01*
X93529761Y-100707738D01*
X93434523Y-100802976D01*
X93339285Y-100850595D01*
X93148809Y-100898214D01*
X93005952Y-100898214D01*
X92815476Y-100850595D01*
X92720238Y-100802976D01*
X92625000Y-100707738D01*
X92577380Y-100564880D01*
X92577380Y-100469642D01*
X92625000Y-100326785D01*
X92672619Y-100279166D01*
X92577380Y-99374404D02*
X92577380Y-99850595D01*
X93053571Y-99898214D01*
X93005952Y-99850595D01*
X92958333Y-99755357D01*
X92958333Y-99517261D01*
X93005952Y-99422023D01*
X93053571Y-99374404D01*
X93148809Y-99326785D01*
X93386904Y-99326785D01*
X93482142Y-99374404D01*
X93529761Y-99422023D01*
X93577380Y-99517261D01*
X93577380Y-99755357D01*
X93529761Y-99850595D01*
X93482142Y-99898214D01*
%TO.C,C18*%
X69257142Y-87642857D02*
X69304761Y-87690476D01*
X69352380Y-87833333D01*
X69352380Y-87928571D01*
X69304761Y-88071428D01*
X69209523Y-88166666D01*
X69114285Y-88214285D01*
X68923809Y-88261904D01*
X68780952Y-88261904D01*
X68590476Y-88214285D01*
X68495238Y-88166666D01*
X68400000Y-88071428D01*
X68352380Y-87928571D01*
X68352380Y-87833333D01*
X68400000Y-87690476D01*
X68447619Y-87642857D01*
X69352380Y-86690476D02*
X69352380Y-87261904D01*
X69352380Y-86976190D02*
X68352380Y-86976190D01*
X68495238Y-87071428D01*
X68590476Y-87166666D01*
X68638095Y-87261904D01*
X68780952Y-86119047D02*
X68733333Y-86214285D01*
X68685714Y-86261904D01*
X68590476Y-86309523D01*
X68542857Y-86309523D01*
X68447619Y-86261904D01*
X68400000Y-86214285D01*
X68352380Y-86119047D01*
X68352380Y-85928571D01*
X68400000Y-85833333D01*
X68447619Y-85785714D01*
X68542857Y-85738095D01*
X68590476Y-85738095D01*
X68685714Y-85785714D01*
X68733333Y-85833333D01*
X68780952Y-85928571D01*
X68780952Y-86119047D01*
X68828571Y-86214285D01*
X68876190Y-86261904D01*
X68971428Y-86309523D01*
X69161904Y-86309523D01*
X69257142Y-86261904D01*
X69304761Y-86214285D01*
X69352380Y-86119047D01*
X69352380Y-85928571D01*
X69304761Y-85833333D01*
X69257142Y-85785714D01*
X69161904Y-85738095D01*
X68971428Y-85738095D01*
X68876190Y-85785714D01*
X68828571Y-85833333D01*
X68780952Y-85928571D01*
%TO.C,U7*%
X97127380Y-114136904D02*
X97936904Y-114136904D01*
X98032142Y-114089285D01*
X98079761Y-114041666D01*
X98127380Y-113946428D01*
X98127380Y-113755952D01*
X98079761Y-113660714D01*
X98032142Y-113613095D01*
X97936904Y-113565476D01*
X97127380Y-113565476D01*
X97127380Y-113184523D02*
X97127380Y-112517857D01*
X98127380Y-112946428D01*
%TO.C,C8*%
X110857142Y-102766666D02*
X110904761Y-102814285D01*
X110952380Y-102957142D01*
X110952380Y-103052380D01*
X110904761Y-103195238D01*
X110809523Y-103290476D01*
X110714285Y-103338095D01*
X110523809Y-103385714D01*
X110380952Y-103385714D01*
X110190476Y-103338095D01*
X110095238Y-103290476D01*
X110000000Y-103195238D01*
X109952380Y-103052380D01*
X109952380Y-102957142D01*
X110000000Y-102814285D01*
X110047619Y-102766666D01*
X110380952Y-102195238D02*
X110333333Y-102290476D01*
X110285714Y-102338095D01*
X110190476Y-102385714D01*
X110142857Y-102385714D01*
X110047619Y-102338095D01*
X110000000Y-102290476D01*
X109952380Y-102195238D01*
X109952380Y-102004761D01*
X110000000Y-101909523D01*
X110047619Y-101861904D01*
X110142857Y-101814285D01*
X110190476Y-101814285D01*
X110285714Y-101861904D01*
X110333333Y-101909523D01*
X110380952Y-102004761D01*
X110380952Y-102195238D01*
X110428571Y-102290476D01*
X110476190Y-102338095D01*
X110571428Y-102385714D01*
X110761904Y-102385714D01*
X110857142Y-102338095D01*
X110904761Y-102290476D01*
X110952380Y-102195238D01*
X110952380Y-102004761D01*
X110904761Y-101909523D01*
X110857142Y-101861904D01*
X110761904Y-101814285D01*
X110571428Y-101814285D01*
X110476190Y-101861904D01*
X110428571Y-101909523D01*
X110380952Y-102004761D01*
%TO.C,D5*%
X69331904Y-100589880D02*
X69331904Y-99589880D01*
X69570000Y-99589880D01*
X69712857Y-99637500D01*
X69808095Y-99732738D01*
X69855714Y-99827976D01*
X69903333Y-100018452D01*
X69903333Y-100161309D01*
X69855714Y-100351785D01*
X69808095Y-100447023D01*
X69712857Y-100542261D01*
X69570000Y-100589880D01*
X69331904Y-100589880D01*
X70808095Y-99589880D02*
X70331904Y-99589880D01*
X70284285Y-100066071D01*
X70331904Y-100018452D01*
X70427142Y-99970833D01*
X70665238Y-99970833D01*
X70760476Y-100018452D01*
X70808095Y-100066071D01*
X70855714Y-100161309D01*
X70855714Y-100399404D01*
X70808095Y-100494642D01*
X70760476Y-100542261D01*
X70665238Y-100589880D01*
X70427142Y-100589880D01*
X70331904Y-100542261D01*
X70284285Y-100494642D01*
%TO.C,U3*%
X95663095Y-107839880D02*
X95663095Y-108649404D01*
X95710714Y-108744642D01*
X95758333Y-108792261D01*
X95853571Y-108839880D01*
X96044047Y-108839880D01*
X96139285Y-108792261D01*
X96186904Y-108744642D01*
X96234523Y-108649404D01*
X96234523Y-107839880D01*
X96615476Y-107839880D02*
X97234523Y-107839880D01*
X96901190Y-108220833D01*
X97044047Y-108220833D01*
X97139285Y-108268452D01*
X97186904Y-108316071D01*
X97234523Y-108411309D01*
X97234523Y-108649404D01*
X97186904Y-108744642D01*
X97139285Y-108792261D01*
X97044047Y-108839880D01*
X96758333Y-108839880D01*
X96663095Y-108792261D01*
X96615476Y-108744642D01*
%TO.C,C34*%
X95857142Y-120442857D02*
X95904761Y-120490476D01*
X95952380Y-120633333D01*
X95952380Y-120728571D01*
X95904761Y-120871428D01*
X95809523Y-120966666D01*
X95714285Y-121014285D01*
X95523809Y-121061904D01*
X95380952Y-121061904D01*
X95190476Y-121014285D01*
X95095238Y-120966666D01*
X95000000Y-120871428D01*
X94952380Y-120728571D01*
X94952380Y-120633333D01*
X95000000Y-120490476D01*
X95047619Y-120442857D01*
X94952380Y-120109523D02*
X94952380Y-119490476D01*
X95333333Y-119823809D01*
X95333333Y-119680952D01*
X95380952Y-119585714D01*
X95428571Y-119538095D01*
X95523809Y-119490476D01*
X95761904Y-119490476D01*
X95857142Y-119538095D01*
X95904761Y-119585714D01*
X95952380Y-119680952D01*
X95952380Y-119966666D01*
X95904761Y-120061904D01*
X95857142Y-120109523D01*
X95285714Y-118633333D02*
X95952380Y-118633333D01*
X94904761Y-118871428D02*
X95619047Y-119109523D01*
X95619047Y-118490476D01*
%TO.C,D2*%
X56461904Y-94452380D02*
X56461904Y-93452380D01*
X56700000Y-93452380D01*
X56842857Y-93500000D01*
X56938095Y-93595238D01*
X56985714Y-93690476D01*
X57033333Y-93880952D01*
X57033333Y-94023809D01*
X56985714Y-94214285D01*
X56938095Y-94309523D01*
X56842857Y-94404761D01*
X56700000Y-94452380D01*
X56461904Y-94452380D01*
X57414285Y-93547619D02*
X57461904Y-93500000D01*
X57557142Y-93452380D01*
X57795238Y-93452380D01*
X57890476Y-93500000D01*
X57938095Y-93547619D01*
X57985714Y-93642857D01*
X57985714Y-93738095D01*
X57938095Y-93880952D01*
X57366666Y-94452380D01*
X57985714Y-94452380D01*
%TO.C,J2*%
X94266666Y-85352380D02*
X94266666Y-86066666D01*
X94219047Y-86209523D01*
X94123809Y-86304761D01*
X93980952Y-86352380D01*
X93885714Y-86352380D01*
X94695238Y-85447619D02*
X94742857Y-85400000D01*
X94838095Y-85352380D01*
X95076190Y-85352380D01*
X95171428Y-85400000D01*
X95219047Y-85447619D01*
X95266666Y-85542857D01*
X95266666Y-85638095D01*
X95219047Y-85780952D01*
X94647619Y-86352380D01*
X95266666Y-86352380D01*
%TO.C,C16*%
X85957142Y-86657142D02*
X85909523Y-86704761D01*
X85766666Y-86752380D01*
X85671428Y-86752380D01*
X85528571Y-86704761D01*
X85433333Y-86609523D01*
X85385714Y-86514285D01*
X85338095Y-86323809D01*
X85338095Y-86180952D01*
X85385714Y-85990476D01*
X85433333Y-85895238D01*
X85528571Y-85800000D01*
X85671428Y-85752380D01*
X85766666Y-85752380D01*
X85909523Y-85800000D01*
X85957142Y-85847619D01*
X86909523Y-86752380D02*
X86338095Y-86752380D01*
X86623809Y-86752380D02*
X86623809Y-85752380D01*
X86528571Y-85895238D01*
X86433333Y-85990476D01*
X86338095Y-86038095D01*
X87766666Y-85752380D02*
X87576190Y-85752380D01*
X87480952Y-85800000D01*
X87433333Y-85847619D01*
X87338095Y-85990476D01*
X87290476Y-86180952D01*
X87290476Y-86561904D01*
X87338095Y-86657142D01*
X87385714Y-86704761D01*
X87480952Y-86752380D01*
X87671428Y-86752380D01*
X87766666Y-86704761D01*
X87814285Y-86657142D01*
X87861904Y-86561904D01*
X87861904Y-86323809D01*
X87814285Y-86228571D01*
X87766666Y-86180952D01*
X87671428Y-86133333D01*
X87480952Y-86133333D01*
X87385714Y-86180952D01*
X87338095Y-86228571D01*
X87290476Y-86323809D01*
%TO.C,U5*%
X63787380Y-110691904D02*
X64596904Y-110691904D01*
X64692142Y-110644285D01*
X64739761Y-110596666D01*
X64787380Y-110501428D01*
X64787380Y-110310952D01*
X64739761Y-110215714D01*
X64692142Y-110168095D01*
X64596904Y-110120476D01*
X63787380Y-110120476D01*
X63787380Y-109168095D02*
X63787380Y-109644285D01*
X64263571Y-109691904D01*
X64215952Y-109644285D01*
X64168333Y-109549047D01*
X64168333Y-109310952D01*
X64215952Y-109215714D01*
X64263571Y-109168095D01*
X64358809Y-109120476D01*
X64596904Y-109120476D01*
X64692142Y-109168095D01*
X64739761Y-109215714D01*
X64787380Y-109310952D01*
X64787380Y-109549047D01*
X64739761Y-109644285D01*
X64692142Y-109691904D01*
%TO.C,C24*%
X65597142Y-104810357D02*
X65644761Y-104857976D01*
X65692380Y-105000833D01*
X65692380Y-105096071D01*
X65644761Y-105238928D01*
X65549523Y-105334166D01*
X65454285Y-105381785D01*
X65263809Y-105429404D01*
X65120952Y-105429404D01*
X64930476Y-105381785D01*
X64835238Y-105334166D01*
X64740000Y-105238928D01*
X64692380Y-105096071D01*
X64692380Y-105000833D01*
X64740000Y-104857976D01*
X64787619Y-104810357D01*
X64787619Y-104429404D02*
X64740000Y-104381785D01*
X64692380Y-104286547D01*
X64692380Y-104048452D01*
X64740000Y-103953214D01*
X64787619Y-103905595D01*
X64882857Y-103857976D01*
X64978095Y-103857976D01*
X65120952Y-103905595D01*
X65692380Y-104477023D01*
X65692380Y-103857976D01*
X65025714Y-103000833D02*
X65692380Y-103000833D01*
X64644761Y-103238928D02*
X65359047Y-103477023D01*
X65359047Y-102857976D01*
%TO.C,C6*%
X91782142Y-100279166D02*
X91829761Y-100326785D01*
X91877380Y-100469642D01*
X91877380Y-100564880D01*
X91829761Y-100707738D01*
X91734523Y-100802976D01*
X91639285Y-100850595D01*
X91448809Y-100898214D01*
X91305952Y-100898214D01*
X91115476Y-100850595D01*
X91020238Y-100802976D01*
X90925000Y-100707738D01*
X90877380Y-100564880D01*
X90877380Y-100469642D01*
X90925000Y-100326785D01*
X90972619Y-100279166D01*
X90877380Y-99422023D02*
X90877380Y-99612500D01*
X90925000Y-99707738D01*
X90972619Y-99755357D01*
X91115476Y-99850595D01*
X91305952Y-99898214D01*
X91686904Y-99898214D01*
X91782142Y-99850595D01*
X91829761Y-99802976D01*
X91877380Y-99707738D01*
X91877380Y-99517261D01*
X91829761Y-99422023D01*
X91782142Y-99374404D01*
X91686904Y-99326785D01*
X91448809Y-99326785D01*
X91353571Y-99374404D01*
X91305952Y-99422023D01*
X91258333Y-99517261D01*
X91258333Y-99707738D01*
X91305952Y-99802976D01*
X91353571Y-99850595D01*
X91448809Y-99898214D01*
D14*
%TO.C,C2*%
X103947500Y-97654724D02*
X103947500Y-97145276D01*
X102902500Y-97654724D02*
X102902500Y-97145276D01*
%TO.C,J7*%
X85370000Y-111920000D02*
X85370000Y-124680000D01*
X85370000Y-124680000D02*
X88030000Y-124680000D01*
X85370000Y-109320000D02*
X86700000Y-109320000D01*
X88030000Y-111920000D02*
X88030000Y-124680000D01*
X85370000Y-110650000D02*
X85370000Y-109320000D01*
X85370000Y-111920000D02*
X88030000Y-111920000D01*
%TO.C,D1*%
X90879724Y-94190000D02*
X90370276Y-94190000D01*
X90879724Y-95235000D02*
X90370276Y-95235000D01*
%TO.C,C9*%
X103947500Y-102754724D02*
X103947500Y-102245276D01*
X102902500Y-102754724D02*
X102902500Y-102245276D01*
%TO.C,C1*%
X109347500Y-97654724D02*
X109347500Y-97145276D01*
X108302500Y-97654724D02*
X108302500Y-97145276D01*
%TO.C,C26*%
X66960000Y-115901267D02*
X66960000Y-115608733D01*
X67980000Y-115901267D02*
X67980000Y-115608733D01*
%TO.C,C21*%
X66666546Y-95350358D02*
X66459693Y-95143505D01*
X67387795Y-94629109D02*
X67180942Y-94422256D01*
%TO.C,C31*%
X104277500Y-117745276D02*
X104277500Y-118254724D01*
X105322500Y-117745276D02*
X105322500Y-118254724D01*
%TO.C,F1*%
X111779724Y-97022500D02*
X111270276Y-97022500D01*
X111779724Y-95977500D02*
X111270276Y-95977500D01*
%TO.C,C28*%
X61116267Y-117857500D02*
X60823733Y-117857500D01*
X61116267Y-118877500D02*
X60823733Y-118877500D01*
%TO.C,C23*%
X73577500Y-114304724D02*
X73577500Y-113795276D01*
X74622500Y-114304724D02*
X74622500Y-113795276D01*
%TO.C,R11*%
X60715276Y-119545000D02*
X61224724Y-119545000D01*
X60715276Y-120590000D02*
X61224724Y-120590000D01*
%TO.C,FB1*%
X106379724Y-98822500D02*
X105870276Y-98822500D01*
X106379724Y-97777500D02*
X105870276Y-97777500D01*
%TO.C,D3*%
X66315276Y-101045000D02*
X66824724Y-101045000D01*
X66315276Y-102090000D02*
X66824724Y-102090000D01*
%TO.C,R1*%
X89202500Y-97157776D02*
X89202500Y-97667224D01*
X90247500Y-97157776D02*
X90247500Y-97667224D01*
%TO.C,C3*%
X102047500Y-97667224D02*
X102047500Y-97157776D01*
X101002500Y-97667224D02*
X101002500Y-97157776D01*
%TO.C,U4*%
X74190000Y-90340000D02*
X72850000Y-90340000D01*
X75140000Y-89390000D02*
X74190000Y-89390000D01*
X75140000Y-99610000D02*
X74190000Y-99610000D01*
X84410000Y-89390000D02*
X84410000Y-90340000D01*
X83460000Y-99610000D02*
X84410000Y-99610000D01*
X83460000Y-89390000D02*
X84410000Y-89390000D01*
X74190000Y-89390000D02*
X74190000Y-90340000D01*
X74190000Y-99610000D02*
X74190000Y-98660000D01*
X84410000Y-99610000D02*
X84410000Y-98660000D01*
%TO.C,C12*%
X93647500Y-106342224D02*
X93647500Y-105832776D01*
X92602500Y-106342224D02*
X92602500Y-105832776D01*
%TO.C,C33*%
X68516267Y-118865000D02*
X68223733Y-118865000D01*
X68516267Y-117845000D02*
X68223733Y-117845000D01*
%TO.C,C7*%
X76222500Y-114304724D02*
X76222500Y-113795276D01*
X75177500Y-114304724D02*
X75177500Y-113795276D01*
%TO.C,C30*%
X107022500Y-117745276D02*
X107022500Y-118254724D01*
X105977500Y-117745276D02*
X105977500Y-118254724D01*
%TO.C,C20*%
X67487795Y-91143505D02*
X67280942Y-91350358D01*
X66766546Y-90422256D02*
X66559693Y-90629109D01*
%TO.C,U6*%
X57862500Y-109967500D02*
X57862500Y-113417500D01*
X62982500Y-109967500D02*
X62982500Y-108017500D01*
X57862500Y-109967500D02*
X57862500Y-108017500D01*
X62982500Y-109967500D02*
X62982500Y-111917500D01*
%TO.C,C14*%
X84990000Y-101553733D02*
X84990000Y-101846267D01*
X86010000Y-101553733D02*
X86010000Y-101846267D01*
%TO.C,J1*%
X117855000Y-98270000D02*
X119655000Y-98270000D01*
X123365000Y-89330000D02*
X123365000Y-98270000D01*
X123365000Y-89330000D02*
X121905000Y-89330000D01*
X123365000Y-98270000D02*
X121905000Y-98270000D01*
X117855000Y-89330000D02*
X119655000Y-89330000D01*
%TO.C,C17*%
X72483767Y-88810000D02*
X72191233Y-88810000D01*
X72483767Y-87790000D02*
X72191233Y-87790000D01*
%TO.C,C19*%
X72483767Y-86090000D02*
X72191233Y-86090000D01*
X72483767Y-87110000D02*
X72191233Y-87110000D01*
%TO.C,C35*%
X93352500Y-116320276D02*
X93352500Y-116829724D01*
X94397500Y-116320276D02*
X94397500Y-116829724D01*
%TO.C,R6*%
X76977500Y-85554724D02*
X76977500Y-85045276D01*
X78022500Y-85554724D02*
X78022500Y-85045276D01*
%TO.C,C10*%
X100347500Y-106342224D02*
X100347500Y-105832776D01*
X99302500Y-106342224D02*
X99302500Y-105832776D01*
%TO.C,J5*%
X103870000Y-81330000D02*
X111550000Y-81330000D01*
X103870000Y-78670000D02*
X111550000Y-78670000D01*
X102600000Y-81330000D02*
X101270000Y-81330000D01*
X101270000Y-81330000D02*
X101270000Y-80000000D01*
X103870000Y-81330000D02*
X103870000Y-78670000D01*
X111550000Y-81330000D02*
X111550000Y-78670000D01*
%TO.C,U1*%
X96487500Y-95852500D02*
X95687500Y-95852500D01*
X96487500Y-95852500D02*
X97287500Y-95852500D01*
X96487500Y-98972500D02*
X98287500Y-98972500D01*
X96487500Y-98972500D02*
X95687500Y-98972500D01*
%TO.C,R5*%
X77822500Y-114304724D02*
X77822500Y-113795276D01*
X76777500Y-114304724D02*
X76777500Y-113795276D01*
%TO.C,R7*%
X61123474Y-91977500D02*
X60614026Y-91977500D01*
X61123474Y-93022500D02*
X60614026Y-93022500D01*
%TO.C,C11*%
X101002500Y-106342224D02*
X101002500Y-105832776D01*
X102047500Y-106342224D02*
X102047500Y-105832776D01*
%TO.C,C27*%
X60580000Y-115913767D02*
X60580000Y-115621233D01*
X59560000Y-115913767D02*
X59560000Y-115621233D01*
%TO.C,J6*%
X76370000Y-121970000D02*
X84050000Y-121970000D01*
X76370000Y-124630000D02*
X76370000Y-121970000D01*
X76370000Y-124630000D02*
X84050000Y-124630000D01*
X75100000Y-124630000D02*
X73770000Y-124630000D01*
X84050000Y-124630000D02*
X84050000Y-121970000D01*
X73770000Y-124630000D02*
X73770000Y-123300000D01*
%TO.C,R13*%
X90722500Y-90545276D02*
X90722500Y-91054724D01*
X89677500Y-90545276D02*
X89677500Y-91054724D01*
%TO.C,D6*%
X62580276Y-102090000D02*
X63089724Y-102090000D01*
X62580276Y-101045000D02*
X63089724Y-101045000D01*
%TO.C,C13*%
X90902500Y-106342224D02*
X90902500Y-105832776D01*
X91947500Y-106342224D02*
X91947500Y-105832776D01*
%TO.C,C29*%
X61632500Y-104313767D02*
X61632500Y-104021233D01*
X60612500Y-104313767D02*
X60612500Y-104021233D01*
%TO.C,C4*%
X100347500Y-97667224D02*
X100347500Y-97157776D01*
X99302500Y-97667224D02*
X99302500Y-97157776D01*
D15*
%TO.C,U2*%
X110212500Y-95365000D02*
X111837500Y-95365000D01*
X110212500Y-92235000D02*
X111837500Y-92235000D01*
D16*
X113680000Y-94745000D02*
G75*
G03*
X113680000Y-94745000I-100000J0D01*
G01*
D14*
%TO.C,R10*%
X62392500Y-115512776D02*
X62392500Y-116022224D01*
X61347500Y-115512776D02*
X61347500Y-116022224D01*
%TO.C,R12*%
X68115276Y-120577500D02*
X68624724Y-120577500D01*
X68115276Y-119532500D02*
X68624724Y-119532500D01*
%TO.C,Y1*%
X69100521Y-90629631D02*
X66767068Y-92963084D01*
X71080420Y-92609530D02*
X69100521Y-90629631D01*
%TO.C,C22*%
X69790000Y-96353733D02*
X69790000Y-96646267D01*
X70810000Y-96353733D02*
X70810000Y-96646267D01*
%TO.C,C15*%
X75383767Y-103810000D02*
X75091233Y-103810000D01*
X75383767Y-102790000D02*
X75091233Y-102790000D01*
%TO.C,R3*%
X117354724Y-87622500D02*
X116845276Y-87622500D01*
X117354724Y-86577500D02*
X116845276Y-86577500D01*
%TO.C,C25*%
X58912500Y-104313767D02*
X58912500Y-104021233D01*
X59932500Y-104313767D02*
X59932500Y-104021233D01*
%TO.C,R2*%
X116879724Y-99577500D02*
X116370276Y-99577500D01*
X116879724Y-100622500D02*
X116370276Y-100622500D01*
%TO.C,C32*%
X67860000Y-104313767D02*
X67860000Y-104021233D01*
X68880000Y-104313767D02*
X68880000Y-104021233D01*
%TO.C,FB2*%
X106379724Y-103922500D02*
X105870276Y-103922500D01*
X106379724Y-102877500D02*
X105870276Y-102877500D01*
%TO.C,D4*%
X59080276Y-101045000D02*
X59589724Y-101045000D01*
X59080276Y-102090000D02*
X59589724Y-102090000D01*
%TO.C,R4*%
X76222500Y-117295276D02*
X76222500Y-117804724D01*
X75177500Y-117295276D02*
X75177500Y-117804724D01*
D16*
%TO.C,J3*%
X122600000Y-118425000D02*
X122600000Y-116875000D01*
X122600000Y-118425000D02*
X121650000Y-118425000D01*
X110650000Y-104825000D02*
X108150000Y-104825000D01*
X110650000Y-118425000D02*
X108150000Y-118425000D01*
X122600000Y-106375000D02*
X122600000Y-104825000D01*
X122600000Y-104825000D02*
X121650000Y-104825000D01*
X108150000Y-118425000D02*
X108150000Y-104825000D01*
X122600000Y-106375000D02*
G75*
G03*
X122600000Y-116875000I9038541J-5250000D01*
G01*
X118175000Y-107425000D02*
G75*
G03*
X118175000Y-107425000I-100000J0D01*
G01*
D14*
%TO.C,C36*%
X84453733Y-104810000D02*
X84746267Y-104810000D01*
X84453733Y-103790000D02*
X84746267Y-103790000D01*
%TO.C,J4*%
X81090000Y-78670000D02*
X88770000Y-78670000D01*
X79820000Y-81330000D02*
X78490000Y-81330000D01*
X81090000Y-81330000D02*
X81090000Y-78670000D01*
X81090000Y-81330000D02*
X88770000Y-81330000D01*
X88770000Y-81330000D02*
X88770000Y-78670000D01*
X78490000Y-81330000D02*
X78490000Y-80000000D01*
%TO.C,R9*%
X69792500Y-115512776D02*
X69792500Y-116022224D01*
X68747500Y-115512776D02*
X68747500Y-116022224D01*
%TO.C,C5*%
X92602500Y-97667224D02*
X92602500Y-97157776D01*
X93647500Y-97667224D02*
X93647500Y-97157776D01*
%TO.C,C18*%
X72483767Y-84390000D02*
X72191233Y-84390000D01*
X72483767Y-85410000D02*
X72191233Y-85410000D01*
%TO.C,U7*%
X96935000Y-118125000D02*
X96935000Y-121575000D01*
X96935000Y-118125000D02*
X96935000Y-116175000D01*
X102055000Y-118125000D02*
X102055000Y-120075000D01*
X102055000Y-118125000D02*
X102055000Y-116175000D01*
%TO.C,C8*%
X109322500Y-102754724D02*
X109322500Y-102245276D01*
X108277500Y-102754724D02*
X108277500Y-102245276D01*
%TO.C,D5*%
X69815276Y-101045000D02*
X70324724Y-101045000D01*
X69815276Y-102090000D02*
X70324724Y-102090000D01*
%TO.C,U3*%
X96425000Y-104427500D02*
X97225000Y-104427500D01*
X96425000Y-107547500D02*
X98225000Y-107547500D01*
X96425000Y-104427500D02*
X95625000Y-104427500D01*
X96425000Y-107547500D02*
X95625000Y-107547500D01*
%TO.C,C34*%
X96097500Y-116320276D02*
X96097500Y-116829724D01*
X95052500Y-116320276D02*
X95052500Y-116829724D01*
%TO.C,D2*%
X55708750Y-93235000D02*
X58168750Y-93235000D01*
X55708750Y-91765000D02*
X55708750Y-93235000D01*
X58168750Y-91765000D02*
X55708750Y-91765000D01*
%TO.C,J2*%
X100150000Y-81330000D02*
X100150000Y-78670000D01*
X91200000Y-81330000D02*
X89870000Y-81330000D01*
X92470000Y-81330000D02*
X92470000Y-78670000D01*
X92470000Y-81330000D02*
X100150000Y-81330000D01*
X89870000Y-81330000D02*
X89870000Y-80000000D01*
X92470000Y-78670000D02*
X100150000Y-78670000D01*
%TO.C,C16*%
X86553733Y-87390000D02*
X86846267Y-87390000D01*
X86553733Y-88410000D02*
X86846267Y-88410000D01*
%TO.C,U5*%
X70295000Y-109930000D02*
X70295000Y-107980000D01*
X65175000Y-109930000D02*
X65175000Y-113380000D01*
X70295000Y-109930000D02*
X70295000Y-111880000D01*
X65175000Y-109930000D02*
X65175000Y-107980000D01*
%TO.C,C24*%
X67180000Y-104313767D02*
X67180000Y-104021233D01*
X66160000Y-104313767D02*
X66160000Y-104021233D01*
%TO.C,C6*%
X91947500Y-97667224D02*
X91947500Y-97157776D01*
X90902500Y-97667224D02*
X90902500Y-97157776D01*
%TD*%
M02*
