M48
; DRILL file {KiCad 7.0.7} date Thu Oct  5 10:10:38 2023
; FORMAT={-:-/ absolute / inch / decimal}
; #@! TF.CreationDate,2023-10-05T10:10:38+02:00
; #@! TF.GenerationSoftware,Kicad,Pcbnew,7.0.7
; #@! TF.FileFunction,Plated,1,4,PTH
FMAT,2
INCH
; #@! TA.AperFunction,Plated,PTH,ViaDrill
T1C0.0118
; #@! TA.AperFunction,Plated,PTH,ViaDrill
T2C0.0157
; #@! TA.AperFunction,Plated,PTH,ComponentDrill
T3C0.0236
; #@! TA.AperFunction,Plated,PTH,ComponentDrill
T4C0.0394
%
G90
G05
T1
X4.0748Y-3.8642
X4.2303Y-2.9213
X4.3858Y-3.8228
X4.3878Y-3.0974
X4.3986Y-3.5
X4.4523Y-3.4618
X4.4536Y-3.3075
X4.4538Y-3.3661
X4.4653Y-3.109
X4.4656Y-2.9902
X4.4656Y-3.0295
X4.4656Y-3.0689
X4.4843Y-3.3002
X4.4852Y-3.3661
X4.4931Y-2.9626
X4.4931Y-3.1368
X4.4934Y-2.9623
X4.5207Y-3.1644
X4.5209Y-2.9348
X4.5217Y-3.7717
X4.5482Y-3.1919
X4.5495Y-2.9062
X4.5727Y-3.9388
X4.5846Y-3.8661
X4.5922Y-2.8934
X4.5925Y-3.1919
X4.6201Y-2.9213
X4.6316Y-3.1784
X4.6479Y-2.9491
X4.6594Y-3.1506
X4.6825Y-3.4547
X4.687Y-3.123
X4.689Y-3.7539
X4.7005Y-2.9633
X4.71Y-3.17
X4.7264Y-3.123
X4.7283Y-2.9911
X4.8238Y-2.749
X4.8504Y-3.0787
X4.8677Y-3.0245
X5.1319Y-2.7963
X5.6496Y-3.0787
X5.815Y-2.9941
X5.815Y-3.0689
X5.8406Y-3.1673
T2
X3.7933Y-2.4291
X3.7933Y-4.3189
X3.9311Y-2.2913
X3.9311Y-2.5669
X3.9311Y-4.1811
X3.9311Y-4.4528
X3.9862Y-2.7008
X3.9862Y-2.7795
X3.9862Y-2.8583
X3.9862Y-2.937
X3.9862Y-3.0157
X3.9862Y-3.0945
X3.9862Y-3.1732
X3.9862Y-3.252
X3.9862Y-3.3307
X3.9862Y-3.4094
X3.9862Y-3.4882
X3.9862Y-3.5669
X3.9862Y-3.6457
X3.9862Y-3.7244
X3.9862Y-3.8031
X3.9862Y-3.8819
X3.9862Y-3.9606
X3.9862Y-4.0394
X4.0689Y-2.4291
X4.0689Y-4.3189
X4.0787Y-3.4154
X4.0787Y-3.4941
X4.0787Y-3.4941
X4.0787Y-3.4941
X4.0787Y-3.5728
X4.0906Y-3.7876
X4.1344Y-3.3597
X4.1752Y-2.4843
X4.1905Y-3.3036
X4.2224Y-3.435
X4.2466Y-3.2475
X4.25Y-3.63
X4.2539Y-2.4843
X4.26Y-3.91
X4.2618Y-3.9882
X4.3012Y-3.435
X4.3022Y-3.3563
X4.3031Y-3.1909
X4.3327Y-2.4843
X4.3829Y-3.1909
X4.3996Y-2.8671
X4.4075Y-3.5453
X4.41Y-3.41
X4.4114Y-2.4843
X4.44Y-3.94
X4.4622Y-3.1909
X4.4882Y-3.624
X4.4902Y-2.4843
X4.5247Y-3.0428
X4.5689Y-2.4843
X4.5827Y-2.8209
X4.6476Y-2.4843
X4.7264Y-2.4843
X4.7657Y-3.315
X4.7756Y-3.7953
X4.7953Y-3.5984
X4.8051Y-2.4843
X4.8051Y-2.8986
X4.8445Y-3.4035
X4.8484Y-3.1791
X4.8681Y-3.9355
X4.878Y-4.2598
X4.8809Y-2.9626
X4.9035Y-3.4035
X4.9311Y-3.9355
X4.9331Y-3.0945
X4.9459Y-3.2126
X4.9508Y-3.1516
X4.9528Y-3.7067
X4.9567Y-4.2598
X4.9941Y-3.9395
X4.998Y-3.6811
X5.0098Y-2.9823
X5.0098Y-3.1083
X5.0098Y-3.2343
X5.0354Y-3.6516
X5.0354Y-4.2598
X5.0374Y-4.2598
X5.0787Y-3.4006
X5.1161Y-4.2598
X5.1358Y-2.9823
X5.1358Y-3.1083
X5.1358Y-3.2343
X5.1516Y-3.7382
X5.1594Y-4.0492
X5.1895Y-3.4257
X5.1949Y-3.3366
X5.1949Y-4.2598
X5.2539Y-2.8996
X5.2717Y-3.8987
X5.2736Y-4.2598
X5.2972Y-2.9547
X5.3091Y-3.4941
X5.311Y-3.8701
X5.3199Y-3.4134
X5.3238Y-3.272
X5.3238Y-3.3272
X5.3524Y-4.2598
X5.3553Y-3.8849
X5.3563Y-4.0276
X5.3789Y-3.3272
X5.4006Y-3.8898
X5.4311Y-4.2598
X5.4409Y-2.872
X5.4498Y-3.3302
X5.4921Y-3.4882
X5.5098Y-3.1378
X5.5098Y-4.2598
X5.5128Y-3.3302
X5.53Y-2.8
X5.53Y-2.88
X5.53Y-2.96
X5.5571Y-4.0492
X5.5591Y-3.7244
X5.57Y-2.84
X5.57Y-2.92
X5.5886Y-4.2598
X5.6063Y-3.0781
X5.61Y-2.8
X5.61Y-2.88
X5.65Y-2.84
X5.6673Y-4.2598
X5.689Y-3.4547
X5.69Y-2.8
X5.6909Y-3.0794
X5.72Y-3.64
X5.72Y-3.72
X5.72Y-3.8
X5.7461Y-4.2598
X5.7559Y-3.2362
X5.7559Y-3.4547
X5.76Y-3.68
X5.76Y-3.76
X5.76Y-3.84
X5.8Y-3.64
X5.8Y-3.72
X5.8Y-3.8
X5.8248Y-4.2598
X5.8366Y-2.8268
X5.8366Y-2.9055
X5.84Y-3.68
X5.84Y-3.76
X5.84Y-3.84
X5.877Y-2.8652
X5.88Y-3.64
X5.88Y-3.72
X5.88Y-3.8
X5.9035Y-4.2598
X5.9154Y-2.8268
X5.9154Y-2.9055
X5.92Y-3.68
X5.92Y-3.76
X5.92Y-3.84
X5.9532Y-2.8647
X5.96Y-3.13
X5.96Y-3.64
X5.96Y-3.72
X5.96Y-3.8
X5.97Y-3.46
X5.9823Y-4.2598
X5.9941Y-2.8268
X5.9941Y-2.9055
X6.0Y-3.68
X6.0Y-3.76
X6.0Y-3.84
X6.0344Y-2.8652
X6.04Y-3.64
X6.04Y-3.72
X6.04Y-3.8
X6.061Y-4.2598
X6.0728Y-2.8268
X6.0728Y-2.9055
X6.1107Y-2.8647
X6.1142Y-3.1623
X6.1388Y-3.3661
X6.1388Y-3.4449
X6.1388Y-3.5236
X6.1388Y-3.6024
X6.1388Y-3.6811
X6.1398Y-3.2362
X6.1398Y-3.3051
X6.1398Y-4.2598
X6.1427Y-2.9646
X6.1516Y-2.8268
X6.1516Y-2.9055
X6.1767Y-3.407
X6.1767Y-3.5645
X6.1772Y-3.4833
X6.1772Y-3.6407
X6.2175Y-3.4449
X6.2175Y-3.5236
X6.2175Y-3.6024
X6.2175Y-3.6811
X6.2175Y-3.3661
X6.2185Y-4.2598
X6.2313Y-2.4862
X6.2716Y-2.9487
X6.2717Y-3.1614
X6.3484Y-2.4291
X6.3484Y-4.3189
X6.4311Y-2.7008
X6.4311Y-2.7795
X6.4311Y-3.3307
X6.4311Y-3.4094
X6.4311Y-3.4882
X6.4311Y-3.5669
X6.4311Y-3.6457
X6.4311Y-3.7244
X6.4311Y-3.8031
X6.4311Y-3.8819
X6.4311Y-3.9606
X6.4311Y-4.0394
X6.4862Y-2.2953
X6.4862Y-2.5669
X6.4862Y-4.1811
X6.4862Y-4.4567
X6.624Y-2.4291
X6.624Y-4.3189
T4
X4.2102Y-4.2402
X4.3102Y-4.2402
X4.4102Y-4.2402
X4.5102Y-4.2402
X4.6102Y-4.2402
X4.7102Y-4.2402
X4.9016Y-2.5079
X5.0016Y-2.5079
X5.1016Y-2.5079
X5.2016Y-2.5079
X5.3543Y-2.5079
X5.4543Y-2.5079
X5.5543Y-2.5079
X5.6543Y-2.5079
X5.8071Y-2.5079
X5.9071Y-2.5079
X6.0071Y-2.5079
X6.1071Y-2.5079
T3
G00X6.2577Y-2.889
M15
G01X6.2144Y-2.889
M16
G05
G00X6.2577Y-3.2291
M15
G01X6.2144Y-3.2291
M16
G05
G00X6.4159Y-2.889
M15
G01X6.3844Y-2.889
M16
G05
G00X6.4159Y-3.2291
M15
G01X6.3844Y-3.2291
M16
G05
T0
M30
