%TF.GenerationSoftware,KiCad,Pcbnew,(7.0.0)*%
%TF.CreationDate,2023-05-08T13:38:34+02:00*%
%TF.ProjectId,Apollo - DSP,41706f6c-6c6f-4202-9d20-4453502e6b69,rev?*%
%TF.SameCoordinates,Original*%
%TF.FileFunction,Copper,L2,Inr*%
%TF.FilePolarity,Positive*%
%FSLAX46Y46*%
G04 Gerber Fmt 4.6, Leading zero omitted, Abs format (unit mm)*
G04 Created by KiCad (PCBNEW (7.0.0)) date 2023-05-08 13:38:34*
%MOMM*%
%LPD*%
G01*
G04 APERTURE LIST*
%TA.AperFunction,ComponentPad*%
%ADD10O,2.000000X0.900000*%
%TD*%
%TA.AperFunction,ComponentPad*%
%ADD11O,1.700000X0.900000*%
%TD*%
%TA.AperFunction,ComponentPad*%
%ADD12R,1.700000X1.700000*%
%TD*%
%TA.AperFunction,ComponentPad*%
%ADD13O,1.700000X1.700000*%
%TD*%
%TA.AperFunction,ViaPad*%
%ADD14C,0.800000*%
%TD*%
%TA.AperFunction,ViaPad*%
%ADD15C,0.600000*%
%TD*%
G04 APERTURE END LIST*
D10*
%TO.N,unconnected-(J1-SHIELD-PadS1)*%
%TO.C,J1*%
X146444999Y-81019999D03*
D11*
X150614999Y-81019999D03*
D10*
X146444999Y-72379999D03*
D11*
X150614999Y-72379999D03*
%TD*%
D12*
%TO.N,3.3V*%
%TO.C,J5*%
X127169999Y-62699999D03*
D13*
%TO.N,Rx*%
X129709999Y-62699999D03*
%TO.N,Tx*%
X132249999Y-62699999D03*
%TO.N,GND*%
X134789999Y-62699999D03*
%TD*%
D12*
%TO.N,+3.3VA*%
%TO.C,J6*%
X111099999Y-106749999D03*
D13*
%TO.N,CH0_IN*%
X113639999Y-106749999D03*
%TO.N,CH1_IN*%
X116179999Y-106749999D03*
%TO.N,GND*%
X118719999Y-106749999D03*
%TD*%
D12*
%TO.N,3.3V*%
%TO.C,J2*%
X115849999Y-62699999D03*
D13*
%TO.N,SWCLK*%
X118389999Y-62699999D03*
%TO.N,SWDIO*%
X120929999Y-62699999D03*
%TO.N,GND*%
X123469999Y-62699999D03*
%TD*%
D14*
%TO.N,GND*%
X105400000Y-62100000D03*
X112100000Y-77950000D03*
X151300000Y-87700000D03*
X142512500Y-99581250D03*
X122900000Y-87750000D03*
X92600000Y-97500000D03*
X105400000Y-62100000D03*
X151300000Y-89800000D03*
X107500000Y-62100000D03*
X89300000Y-74150000D03*
X123700000Y-107200000D03*
X123700000Y-107200000D03*
X142300000Y-70800000D03*
X146400000Y-62100000D03*
X106982500Y-96050000D03*
X156300000Y-108700000D03*
X140300000Y-72800000D03*
X87900000Y-64200000D03*
X99400000Y-90600000D03*
X89300000Y-82150000D03*
X92600000Y-101500000D03*
D15*
X106500000Y-81300000D03*
D14*
X111700000Y-62100000D03*
X92600000Y-95500000D03*
X132100000Y-107200000D03*
X118500000Y-81150000D03*
X92600000Y-85500000D03*
X144300000Y-70800000D03*
X101200000Y-62100000D03*
X125800000Y-107200000D03*
X89300000Y-93350000D03*
X92600000Y-103500000D03*
X92600000Y-99500000D03*
X146000000Y-84950000D03*
X89300000Y-78950000D03*
X89300000Y-98150000D03*
X89300000Y-78950000D03*
X89300000Y-86950000D03*
X115300000Y-74750000D03*
X109550000Y-65950000D03*
X115300000Y-81150000D03*
X89300000Y-93350000D03*
X99270000Y-101780000D03*
X144700000Y-107200000D03*
X151300000Y-91900000D03*
X151300000Y-98200000D03*
X144000000Y-86950000D03*
X142200000Y-62100000D03*
X130000000Y-107200000D03*
X101400000Y-81950000D03*
X89300000Y-88550000D03*
X89300000Y-91750000D03*
X95500000Y-73800000D03*
X140300000Y-68800000D03*
X115300000Y-77950000D03*
X103300000Y-62100000D03*
X89300000Y-77350000D03*
X108200000Y-104750000D03*
X84400000Y-60700000D03*
X89300000Y-93350000D03*
X89300000Y-80550000D03*
X106982500Y-92450000D03*
X142600000Y-107200000D03*
X89300000Y-91750000D03*
X142000000Y-84950000D03*
X105400000Y-62100000D03*
X151300000Y-98200000D03*
X87900000Y-112100000D03*
X138400000Y-107200000D03*
X118500000Y-77950000D03*
X84400000Y-108700000D03*
X151300000Y-91900000D03*
X87900000Y-105200000D03*
X151300000Y-96100000D03*
X149300000Y-108700000D03*
X94900000Y-62100000D03*
X134200000Y-107200000D03*
X89300000Y-75750000D03*
X107200000Y-107200000D03*
X112100000Y-77950000D03*
X151300000Y-66300000D03*
X144300000Y-62100000D03*
X151300000Y-68400000D03*
X101200000Y-62100000D03*
X127900000Y-107200000D03*
D15*
X131250000Y-81200000D03*
D14*
X106770000Y-101780000D03*
X89300000Y-96550000D03*
X142475000Y-102706250D03*
X109600000Y-62100000D03*
X105400000Y-62100000D03*
X138000000Y-62100000D03*
X142600000Y-107200000D03*
X103300000Y-62100000D03*
X147347536Y-73897536D03*
X151300000Y-70500000D03*
X109600000Y-62100000D03*
X151300000Y-102400000D03*
X142000000Y-86950000D03*
X149300000Y-60700000D03*
X144300000Y-62100000D03*
X151300000Y-87700000D03*
X146800000Y-107200000D03*
X143875000Y-102706250D03*
X89300000Y-85350000D03*
X89300000Y-94950000D03*
X89300000Y-83750000D03*
X112100000Y-74750000D03*
X151300000Y-68400000D03*
X100900000Y-76250000D03*
X89300000Y-69350000D03*
X106982500Y-89200000D03*
X151300000Y-96100000D03*
X134200000Y-107200000D03*
X151300000Y-94000000D03*
D15*
X131550000Y-77200000D03*
D14*
X92600000Y-91500000D03*
X151300000Y-91900000D03*
X151300000Y-83500000D03*
X87900000Y-57200000D03*
X103200000Y-107200000D03*
X89300000Y-98150000D03*
X130000000Y-107200000D03*
X89300000Y-88550000D03*
X97000000Y-62100000D03*
X144000000Y-88950000D03*
X136300000Y-107200000D03*
X89300000Y-72550000D03*
X140100000Y-62100000D03*
X89300000Y-90150000D03*
X112100000Y-81150000D03*
X97000000Y-62100000D03*
X156300000Y-60700000D03*
X102413864Y-76246187D03*
X142300000Y-72800000D03*
X142300000Y-68800000D03*
X100900000Y-74950000D03*
X144700000Y-107200000D03*
X151300000Y-87700000D03*
X115300000Y-74750000D03*
X151300000Y-100300000D03*
X101200000Y-107200000D03*
X92600000Y-89500000D03*
X151300000Y-96100000D03*
X89300000Y-86950000D03*
X89300000Y-99750000D03*
X98300000Y-81950000D03*
X144000000Y-84950000D03*
X142200000Y-62100000D03*
X115300000Y-77950000D03*
X122600000Y-74050000D03*
X121600000Y-107200000D03*
X146800000Y-107200000D03*
X103300000Y-62100000D03*
X128000000Y-78700000D03*
X99100000Y-62100000D03*
X140100000Y-62100000D03*
X125800000Y-107200000D03*
X109500000Y-91210000D03*
X89300000Y-90150000D03*
X99200000Y-107200000D03*
X152800000Y-112200000D03*
X89300000Y-80550000D03*
X125800000Y-107200000D03*
X108200000Y-101950000D03*
X151300000Y-98200000D03*
X134200000Y-107200000D03*
X151300000Y-100300000D03*
X89300000Y-77350000D03*
X91400000Y-60700000D03*
X89300000Y-75750000D03*
X89300000Y-80550000D03*
X111250000Y-65950000D03*
X94500000Y-81950000D03*
X134150000Y-97600000D03*
X151300000Y-89800000D03*
X142512500Y-91418750D03*
X107500000Y-62100000D03*
X93150000Y-105150000D03*
X152800000Y-105200000D03*
X92600000Y-93500000D03*
X151300000Y-100300000D03*
X135750000Y-80200000D03*
X147350000Y-79300000D03*
X89300000Y-101350000D03*
X138000000Y-62100000D03*
X100900000Y-77650000D03*
X92600000Y-87500000D03*
X115300000Y-81150000D03*
X116800000Y-91600000D03*
X115300000Y-77950000D03*
X108200000Y-98850000D03*
X132100000Y-107200000D03*
X97200000Y-107200000D03*
X144000000Y-81200000D03*
X91000000Y-80500000D03*
X138500000Y-80450000D03*
X89300000Y-67750000D03*
X151300000Y-94000000D03*
X138400000Y-107200000D03*
X95200000Y-107200000D03*
X142000000Y-88950000D03*
X99700000Y-95650000D03*
D15*
X144712500Y-96518750D03*
D14*
X105200000Y-107200000D03*
X91400000Y-108700000D03*
X142512500Y-93118750D03*
X152800000Y-64200000D03*
X146000000Y-88950000D03*
X99770000Y-83680000D03*
X151300000Y-85600000D03*
X140300000Y-70800000D03*
X151300000Y-70500000D03*
X151300000Y-102400000D03*
X89300000Y-74150000D03*
X115300000Y-77950000D03*
X140500000Y-107200000D03*
X111100000Y-91210000D03*
X105000000Y-82050000D03*
X142512500Y-101281250D03*
X144300000Y-72800000D03*
X107500000Y-62100000D03*
X105400000Y-62100000D03*
X119862500Y-86012500D03*
X89300000Y-70950000D03*
X138000000Y-62100000D03*
X89300000Y-101350000D03*
X140500000Y-107200000D03*
X136300000Y-107200000D03*
X144000000Y-82950000D03*
X112950000Y-65950000D03*
X99100000Y-62100000D03*
X107500000Y-62100000D03*
X151300000Y-100300000D03*
X107500000Y-62100000D03*
X127900000Y-107200000D03*
X151300000Y-85600000D03*
X109600000Y-62100000D03*
X146000000Y-86950000D03*
X106970000Y-83680000D03*
X138400000Y-107200000D03*
X118500000Y-74750000D03*
X89300000Y-91750000D03*
X126550000Y-105100000D03*
X144300000Y-68800000D03*
X111100000Y-85450000D03*
X142600000Y-107200000D03*
X130000000Y-107200000D03*
D15*
X135750000Y-76950000D03*
D14*
X118500000Y-77950000D03*
X123450000Y-97600000D03*
X89300000Y-99750000D03*
X92600000Y-83500000D03*
X152800000Y-57300000D03*
D15*
%TO.N,+5V*%
X135750000Y-74950000D03*
D14*
X137050000Y-79000000D03*
%TO.N,3.3V*%
X128075000Y-83587500D03*
X139550000Y-104800000D03*
X126475000Y-83587500D03*
X121500000Y-72650000D03*
X112950000Y-70250000D03*
X120000000Y-83750000D03*
X112600000Y-85450000D03*
X111250000Y-70250000D03*
X123275000Y-83510000D03*
X124675000Y-83510000D03*
X98950000Y-69100000D03*
X99500000Y-80450000D03*
X123275000Y-82110000D03*
X126250000Y-71950000D03*
%TO.N,VAA*%
X106770000Y-100080000D03*
X112600000Y-98800000D03*
X99270000Y-100080000D03*
%TO.N,+5VA*%
X140023148Y-90092668D03*
X102700000Y-88700000D03*
%TO.N,+3.3VA*%
X146900000Y-98400000D03*
X94400000Y-86600000D03*
X101670000Y-83680000D03*
X109600000Y-97887500D03*
%TO.N,CH1_IN*%
X106600000Y-103550000D03*
%TO.N,CH0_IN*%
X99400000Y-103550000D03*
%TO.N,ADC_CH1_IN*%
X107525000Y-81825000D03*
D15*
X104332500Y-85017500D03*
D14*
%TO.N,ADC_CH0_IN*%
X107200000Y-80250000D03*
D15*
X97122500Y-85032500D03*
D14*
%TO.N,Rx*%
X130450000Y-77184347D03*
%TO.N,Tx*%
X132600000Y-77218012D03*
%TO.N,/POW*%
X144075000Y-74300000D03*
X143350000Y-79322500D03*
%TD*%
%TA.AperFunction,Conductor*%
%TO.N,GND*%
G36*
X152820186Y-55703564D02*
G01*
X153052504Y-55713707D01*
X153056132Y-55713921D01*
X153252169Y-55728473D01*
X153259197Y-55729196D01*
X153489283Y-55759487D01*
X153493247Y-55760074D01*
X153687519Y-55792025D01*
X153694276Y-55793329D01*
X153920557Y-55843495D01*
X153924531Y-55844446D01*
X154115544Y-55893610D01*
X154121998Y-55895457D01*
X154232934Y-55930435D01*
X154342723Y-55965052D01*
X154346952Y-55966468D01*
X154383837Y-55979550D01*
X154532989Y-56032450D01*
X154538999Y-56034758D01*
X154752684Y-56123269D01*
X154756944Y-56125128D01*
X154936564Y-56207450D01*
X154942234Y-56210223D01*
X155147177Y-56316909D01*
X155151401Y-56319212D01*
X155323154Y-56417246D01*
X155328392Y-56420407D01*
X155380610Y-56453673D01*
X155523181Y-56544501D01*
X155527374Y-56547292D01*
X155689828Y-56660248D01*
X155694571Y-56663714D01*
X155742636Y-56700596D01*
X155877713Y-56804245D01*
X155881841Y-56807552D01*
X155928166Y-56846293D01*
X156033654Y-56934512D01*
X156037908Y-56938236D01*
X156115932Y-57009732D01*
X156208123Y-57094210D01*
X156212093Y-57098012D01*
X156351986Y-57237905D01*
X156355788Y-57241875D01*
X156511757Y-57412085D01*
X156515492Y-57416351D01*
X156554722Y-57463260D01*
X156642446Y-57568157D01*
X156645753Y-57572285D01*
X156786273Y-57755413D01*
X156789762Y-57760187D01*
X156902693Y-57922605D01*
X156905510Y-57926836D01*
X157029591Y-58121606D01*
X157032752Y-58126844D01*
X157130764Y-58298558D01*
X157133098Y-58302839D01*
X157239768Y-58507750D01*
X157242548Y-58513434D01*
X157324870Y-58693054D01*
X157326736Y-58697331D01*
X157415220Y-58910948D01*
X157417563Y-58917049D01*
X157483530Y-59103046D01*
X157484946Y-59107275D01*
X157554538Y-59327991D01*
X157556393Y-59334472D01*
X157605531Y-59525379D01*
X157606521Y-59529516D01*
X157656662Y-59755690D01*
X157657979Y-59762513D01*
X157689921Y-59956733D01*
X157690513Y-59960734D01*
X157720797Y-60190757D01*
X157721529Y-60197876D01*
X157736070Y-60393762D01*
X157736296Y-60397594D01*
X157746433Y-60629775D01*
X157746539Y-60637139D01*
X157743634Y-60833106D01*
X157743528Y-60836733D01*
X157733372Y-61069370D01*
X157732815Y-61076922D01*
X157712575Y-61271342D01*
X157712174Y-61274742D01*
X157681709Y-61506143D01*
X157680456Y-61513819D01*
X157643154Y-61705050D01*
X157642498Y-61708198D01*
X157591846Y-61936675D01*
X157589872Y-61944413D01*
X157535924Y-62130928D01*
X157535053Y-62133808D01*
X157464471Y-62357665D01*
X157461755Y-62365395D01*
X157391767Y-62545587D01*
X157390724Y-62548186D01*
X157300563Y-62765855D01*
X157297091Y-62773505D01*
X157211849Y-62945823D01*
X157210675Y-62948136D01*
X157101393Y-63158062D01*
X157097160Y-63165556D01*
X156997588Y-63328586D01*
X156996325Y-63330611D01*
X156868511Y-63531239D01*
X156863517Y-63538504D01*
X156750712Y-63690898D01*
X156749402Y-63692637D01*
X156603705Y-63882513D01*
X156597959Y-63889470D01*
X156473283Y-64029878D01*
X156471963Y-64031342D01*
X156309009Y-64209174D01*
X156302528Y-64215745D01*
X156167601Y-64342903D01*
X156166309Y-64344104D01*
X155986738Y-64508650D01*
X155979547Y-64514761D01*
X155836094Y-64627678D01*
X155834865Y-64628632D01*
X155639374Y-64778638D01*
X155631503Y-64784213D01*
X155481818Y-64881840D01*
X155480685Y-64882570D01*
X155269579Y-65017060D01*
X155261069Y-65022025D01*
X155107996Y-65103480D01*
X155106986Y-65104011D01*
X154880251Y-65222042D01*
X154871151Y-65226327D01*
X154718649Y-65290824D01*
X154717787Y-65291185D01*
X154474385Y-65392004D01*
X154464748Y-65395543D01*
X154318630Y-65442542D01*
X154317938Y-65442762D01*
X154055131Y-65525625D01*
X154045018Y-65528357D01*
X153916841Y-65557326D01*
X153916337Y-65557439D01*
X153625736Y-65621864D01*
X153615218Y-65623732D01*
X153536147Y-65634340D01*
X153535840Y-65634381D01*
X153191188Y-65679757D01*
X153180237Y-65680715D01*
X152765721Y-65698813D01*
X152765717Y-65698813D01*
X152750089Y-65699496D01*
X152750000Y-65699459D01*
X152749901Y-65699500D01*
X152749500Y-65699500D01*
X152749500Y-65700500D01*
X152749500Y-103649500D01*
X152749500Y-103650500D01*
X152749901Y-103650500D01*
X152750000Y-103650541D01*
X152750089Y-103650503D01*
X153160676Y-103668430D01*
X153180238Y-103669285D01*
X153191188Y-103670243D01*
X153310991Y-103686015D01*
X153536159Y-103715659D01*
X153615231Y-103726268D01*
X153625715Y-103728130D01*
X153916498Y-103792595D01*
X153916841Y-103792672D01*
X154045043Y-103821647D01*
X154055101Y-103824365D01*
X154318464Y-103907403D01*
X154464759Y-103954459D01*
X154474375Y-103957990D01*
X154718216Y-104058992D01*
X154871177Y-104123683D01*
X154880235Y-104127948D01*
X155107144Y-104246070D01*
X155107891Y-104246462D01*
X155261080Y-104327979D01*
X155269570Y-104332932D01*
X155400129Y-104416108D01*
X155480685Y-104467428D01*
X155481818Y-104468158D01*
X155631515Y-104565793D01*
X155639363Y-104571352D01*
X155689824Y-104610072D01*
X155834865Y-104721366D01*
X155836013Y-104722257D01*
X155979555Y-104835244D01*
X155986738Y-104841348D01*
X156166346Y-105005928D01*
X156167563Y-105007060D01*
X156277314Y-105110491D01*
X156302528Y-105134253D01*
X156308999Y-105140814D01*
X156472037Y-105318738D01*
X156473283Y-105320120D01*
X156597959Y-105460528D01*
X156603696Y-105467474D01*
X156749435Y-105657405D01*
X156750712Y-105659100D01*
X156863517Y-105811494D01*
X156868511Y-105818759D01*
X156996325Y-106019387D01*
X156997588Y-106021412D01*
X157097160Y-106184442D01*
X157101393Y-106191936D01*
X157210675Y-106401862D01*
X157211833Y-106404143D01*
X157257273Y-106496000D01*
X157297091Y-106576493D01*
X157300563Y-106584143D01*
X157390724Y-106801812D01*
X157391767Y-106804411D01*
X157461755Y-106984603D01*
X157464471Y-106992333D01*
X157535053Y-107216190D01*
X157535924Y-107219070D01*
X157589872Y-107405585D01*
X157591846Y-107413323D01*
X157642498Y-107641800D01*
X157643154Y-107644948D01*
X157680456Y-107836179D01*
X157681709Y-107843855D01*
X157712174Y-108075256D01*
X157712575Y-108078656D01*
X157732815Y-108273076D01*
X157733372Y-108280628D01*
X157743528Y-108513265D01*
X157743634Y-108516892D01*
X157746539Y-108712859D01*
X157746433Y-108720223D01*
X157736296Y-108952404D01*
X157736070Y-108956236D01*
X157721529Y-109152122D01*
X157720797Y-109159241D01*
X157690513Y-109389264D01*
X157689921Y-109393265D01*
X157657979Y-109587485D01*
X157656662Y-109594308D01*
X157606521Y-109820482D01*
X157605531Y-109824619D01*
X157556393Y-110015526D01*
X157554538Y-110022007D01*
X157484946Y-110242723D01*
X157483530Y-110246952D01*
X157417563Y-110432949D01*
X157415220Y-110439050D01*
X157326736Y-110652667D01*
X157324870Y-110656944D01*
X157242548Y-110836564D01*
X157239768Y-110842248D01*
X157133098Y-111047159D01*
X157130764Y-111051440D01*
X157032752Y-111223154D01*
X157029591Y-111228392D01*
X156905510Y-111423162D01*
X156902693Y-111427393D01*
X156789762Y-111589811D01*
X156786273Y-111594585D01*
X156645753Y-111777713D01*
X156642446Y-111781841D01*
X156515503Y-111933634D01*
X156511745Y-111937927D01*
X156355788Y-112108123D01*
X156351986Y-112112093D01*
X156212093Y-112251986D01*
X156208123Y-112255788D01*
X156037927Y-112411745D01*
X156033634Y-112415503D01*
X155881841Y-112542446D01*
X155877713Y-112545753D01*
X155694585Y-112686273D01*
X155689811Y-112689762D01*
X155527393Y-112802693D01*
X155523162Y-112805510D01*
X155328392Y-112929591D01*
X155323154Y-112932752D01*
X155151440Y-113030764D01*
X155147159Y-113033098D01*
X154942248Y-113139768D01*
X154936564Y-113142548D01*
X154756944Y-113224870D01*
X154752667Y-113226736D01*
X154539050Y-113315220D01*
X154532949Y-113317563D01*
X154346952Y-113383530D01*
X154342723Y-113384946D01*
X154122007Y-113454538D01*
X154115526Y-113456393D01*
X153924619Y-113505531D01*
X153920482Y-113506521D01*
X153694308Y-113556662D01*
X153687485Y-113557979D01*
X153493265Y-113589921D01*
X153489264Y-113590513D01*
X153259241Y-113620797D01*
X153252122Y-113621529D01*
X153056236Y-113636070D01*
X153052404Y-113636296D01*
X152820223Y-113646433D01*
X152812859Y-113646539D01*
X152616892Y-113643634D01*
X152613265Y-113643528D01*
X152380628Y-113633372D01*
X152373076Y-113632815D01*
X152178656Y-113612575D01*
X152175256Y-113612174D01*
X151943855Y-113581709D01*
X151936179Y-113580456D01*
X151744948Y-113543154D01*
X151741800Y-113542498D01*
X151513323Y-113491846D01*
X151505585Y-113489872D01*
X151319070Y-113435924D01*
X151316190Y-113435053D01*
X151092333Y-113364471D01*
X151084603Y-113361755D01*
X150904411Y-113291767D01*
X150901812Y-113290724D01*
X150684143Y-113200563D01*
X150676493Y-113197091D01*
X150504143Y-113111833D01*
X150501862Y-113110675D01*
X150291936Y-113001393D01*
X150284442Y-112997160D01*
X150121412Y-112897588D01*
X150119387Y-112896325D01*
X149918759Y-112768511D01*
X149911494Y-112763517D01*
X149759100Y-112650712D01*
X149757405Y-112649435D01*
X149567474Y-112503696D01*
X149560528Y-112497959D01*
X149485982Y-112431765D01*
X149420100Y-112373265D01*
X149418738Y-112372037D01*
X149240814Y-112208999D01*
X149234253Y-112202528D01*
X149107095Y-112067601D01*
X149105929Y-112066346D01*
X148941348Y-111886738D01*
X148935244Y-111879555D01*
X148822257Y-111736013D01*
X148821366Y-111734865D01*
X148792320Y-111697012D01*
X148671352Y-111539363D01*
X148665793Y-111531515D01*
X148568158Y-111381818D01*
X148567428Y-111380685D01*
X148432938Y-111169579D01*
X148427979Y-111161080D01*
X148346462Y-111007891D01*
X148346070Y-111007144D01*
X148227948Y-110780235D01*
X148223683Y-110771177D01*
X148158992Y-110618216D01*
X148057990Y-110374375D01*
X148054459Y-110364759D01*
X148007403Y-110218464D01*
X147924365Y-109955101D01*
X147921647Y-109945043D01*
X147892672Y-109816841D01*
X147892559Y-109816337D01*
X147875175Y-109737921D01*
X147828130Y-109525715D01*
X147826268Y-109515231D01*
X147815593Y-109435660D01*
X147810009Y-109393247D01*
X147770243Y-109091187D01*
X147769285Y-109080238D01*
X147768430Y-109060676D01*
X147750503Y-108650089D01*
X147750541Y-108650000D01*
X150744390Y-108650000D01*
X150764804Y-108935428D01*
X150765757Y-108939812D01*
X150765759Y-108939821D01*
X150811953Y-109152169D01*
X150825631Y-109215046D01*
X150925633Y-109483161D01*
X151062774Y-109734315D01*
X151065470Y-109737917D01*
X151065473Y-109737921D01*
X151219717Y-109943966D01*
X151234261Y-109963395D01*
X151436605Y-110165739D01*
X151665685Y-110337226D01*
X151916839Y-110474367D01*
X152184954Y-110574369D01*
X152464572Y-110635196D01*
X152750000Y-110655610D01*
X153035428Y-110635196D01*
X153315046Y-110574369D01*
X153583161Y-110474367D01*
X153834315Y-110337226D01*
X154063395Y-110165739D01*
X154265739Y-109963395D01*
X154437226Y-109734315D01*
X154574367Y-109483161D01*
X154674369Y-109215046D01*
X154735196Y-108935428D01*
X154755610Y-108650000D01*
X154735196Y-108364572D01*
X154674369Y-108084954D01*
X154574367Y-107816839D01*
X154437226Y-107565685D01*
X154265739Y-107336605D01*
X154063395Y-107134261D01*
X154059791Y-107131563D01*
X153837921Y-106965473D01*
X153837917Y-106965470D01*
X153834315Y-106962774D01*
X153583161Y-106825633D01*
X153339007Y-106734568D01*
X153319253Y-106727200D01*
X153319251Y-106727199D01*
X153315046Y-106725631D01*
X153310660Y-106724676D01*
X153310657Y-106724676D01*
X153039821Y-106665759D01*
X153039812Y-106665757D01*
X153035428Y-106664804D01*
X152750000Y-106644390D01*
X152745512Y-106644711D01*
X152469059Y-106664483D01*
X152469057Y-106664483D01*
X152464572Y-106664804D01*
X152460189Y-106665757D01*
X152460178Y-106665759D01*
X152189342Y-106724676D01*
X152189336Y-106724677D01*
X152184954Y-106725631D01*
X152180752Y-106727198D01*
X152180746Y-106727200D01*
X151921045Y-106824064D01*
X151921042Y-106824065D01*
X151916839Y-106825633D01*
X151912895Y-106827786D01*
X151912894Y-106827787D01*
X151669638Y-106960615D01*
X151669632Y-106960618D01*
X151665685Y-106962774D01*
X151662088Y-106965465D01*
X151662078Y-106965473D01*
X151440208Y-107131563D01*
X151440200Y-107131569D01*
X151436605Y-107134261D01*
X151433426Y-107137439D01*
X151433419Y-107137446D01*
X151237446Y-107333419D01*
X151237439Y-107333426D01*
X151234261Y-107336605D01*
X151231569Y-107340200D01*
X151231563Y-107340208D01*
X151065473Y-107562078D01*
X151065465Y-107562088D01*
X151062774Y-107565685D01*
X151060618Y-107569632D01*
X151060615Y-107569638D01*
X150962840Y-107748700D01*
X150925633Y-107816839D01*
X150924065Y-107821042D01*
X150924064Y-107821045D01*
X150827200Y-108080746D01*
X150827198Y-108080752D01*
X150825631Y-108084954D01*
X150824677Y-108089336D01*
X150824676Y-108089342D01*
X150765759Y-108360178D01*
X150765757Y-108360189D01*
X150764804Y-108364572D01*
X150744390Y-108650000D01*
X147750541Y-108650000D01*
X147750500Y-108649901D01*
X147750500Y-108649500D01*
X147750099Y-108649500D01*
X92900500Y-108649500D01*
X92899500Y-108649500D01*
X92899500Y-108649901D01*
X92899459Y-108650000D01*
X92899496Y-108650089D01*
X92898813Y-108665717D01*
X92898813Y-108665721D01*
X92880715Y-109080237D01*
X92879757Y-109091187D01*
X92834406Y-109435660D01*
X92834365Y-109435969D01*
X92823732Y-109515219D01*
X92821864Y-109525736D01*
X92757439Y-109816337D01*
X92757326Y-109816841D01*
X92728357Y-109945018D01*
X92725625Y-109955131D01*
X92642762Y-110217938D01*
X92642542Y-110218630D01*
X92595543Y-110364748D01*
X92592004Y-110374385D01*
X92491185Y-110617787D01*
X92490824Y-110618649D01*
X92426327Y-110771151D01*
X92422042Y-110780251D01*
X92304011Y-111006986D01*
X92303480Y-111007996D01*
X92222025Y-111161069D01*
X92217060Y-111169579D01*
X92082570Y-111380685D01*
X92081840Y-111381818D01*
X91984213Y-111531503D01*
X91978638Y-111539374D01*
X91828632Y-111734865D01*
X91827678Y-111736094D01*
X91714761Y-111879547D01*
X91708650Y-111886738D01*
X91544104Y-112066309D01*
X91542903Y-112067601D01*
X91415745Y-112202528D01*
X91409174Y-112209009D01*
X91231342Y-112371963D01*
X91229878Y-112373283D01*
X91089470Y-112497959D01*
X91082513Y-112503705D01*
X90892637Y-112649402D01*
X90890898Y-112650712D01*
X90738504Y-112763517D01*
X90731239Y-112768511D01*
X90530611Y-112896325D01*
X90528586Y-112897588D01*
X90365556Y-112997160D01*
X90358062Y-113001393D01*
X90148136Y-113110675D01*
X90145823Y-113111849D01*
X89973505Y-113197091D01*
X89965855Y-113200563D01*
X89748186Y-113290724D01*
X89745587Y-113291767D01*
X89565395Y-113361755D01*
X89557665Y-113364471D01*
X89333808Y-113435053D01*
X89330928Y-113435924D01*
X89144413Y-113489872D01*
X89136675Y-113491846D01*
X88908198Y-113542498D01*
X88905050Y-113543154D01*
X88713819Y-113580456D01*
X88706143Y-113581709D01*
X88474742Y-113612174D01*
X88471342Y-113612575D01*
X88276922Y-113632815D01*
X88269370Y-113633372D01*
X88036733Y-113643528D01*
X88033106Y-113643634D01*
X87837139Y-113646539D01*
X87829775Y-113646433D01*
X87597594Y-113636296D01*
X87593762Y-113636070D01*
X87397876Y-113621529D01*
X87390757Y-113620797D01*
X87160734Y-113590513D01*
X87156733Y-113589921D01*
X86962513Y-113557979D01*
X86955690Y-113556662D01*
X86729516Y-113506521D01*
X86725379Y-113505531D01*
X86534472Y-113456393D01*
X86527991Y-113454538D01*
X86307275Y-113384946D01*
X86303046Y-113383530D01*
X86117049Y-113317563D01*
X86110959Y-113315224D01*
X86012065Y-113274261D01*
X85897331Y-113226736D01*
X85893054Y-113224870D01*
X85713434Y-113142548D01*
X85707750Y-113139768D01*
X85502839Y-113033098D01*
X85498558Y-113030764D01*
X85326844Y-112932752D01*
X85321606Y-112929591D01*
X85126836Y-112805510D01*
X85122605Y-112802693D01*
X84960187Y-112689762D01*
X84955413Y-112686273D01*
X84772285Y-112545753D01*
X84768157Y-112542446D01*
X84670924Y-112461131D01*
X84616351Y-112415492D01*
X84612085Y-112411757D01*
X84441875Y-112255788D01*
X84437905Y-112251986D01*
X84298012Y-112112093D01*
X84294210Y-112108123D01*
X84257078Y-112067601D01*
X84138236Y-111937908D01*
X84134512Y-111933654D01*
X84057321Y-111841352D01*
X84007552Y-111781841D01*
X84004245Y-111777713D01*
X83937501Y-111690731D01*
X83863714Y-111594571D01*
X83860248Y-111589828D01*
X83747292Y-111427374D01*
X83744501Y-111423181D01*
X83680878Y-111323313D01*
X83620407Y-111228392D01*
X83617246Y-111223154D01*
X83599838Y-111192656D01*
X83519212Y-111051401D01*
X83516900Y-111047159D01*
X83496458Y-111007891D01*
X83410223Y-110842234D01*
X83407450Y-110836564D01*
X83325128Y-110656944D01*
X83323262Y-110652667D01*
X83234758Y-110438999D01*
X83232450Y-110432989D01*
X83166468Y-110246952D01*
X83165052Y-110242723D01*
X83095460Y-110022007D01*
X83093610Y-110015544D01*
X83044446Y-109824531D01*
X83043495Y-109820557D01*
X82993329Y-109594276D01*
X82992025Y-109587519D01*
X82960074Y-109393247D01*
X82959485Y-109389264D01*
X82948170Y-109303318D01*
X82929196Y-109159197D01*
X82928473Y-109152169D01*
X82913921Y-108956132D01*
X82913707Y-108952504D01*
X82903564Y-108720186D01*
X82903459Y-108712898D01*
X82904391Y-108650000D01*
X85894390Y-108650000D01*
X85914804Y-108935428D01*
X85915757Y-108939812D01*
X85915759Y-108939821D01*
X85961953Y-109152169D01*
X85975631Y-109215046D01*
X86075633Y-109483161D01*
X86212774Y-109734315D01*
X86215470Y-109737917D01*
X86215473Y-109737921D01*
X86369717Y-109943966D01*
X86384261Y-109963395D01*
X86586605Y-110165739D01*
X86815685Y-110337226D01*
X87066839Y-110474367D01*
X87334954Y-110574369D01*
X87614572Y-110635196D01*
X87900000Y-110655610D01*
X88185428Y-110635196D01*
X88465046Y-110574369D01*
X88733161Y-110474367D01*
X88984315Y-110337226D01*
X89213395Y-110165739D01*
X89415739Y-109963395D01*
X89587226Y-109734315D01*
X89724367Y-109483161D01*
X89824369Y-109215046D01*
X89885196Y-108935428D01*
X89905610Y-108650000D01*
X89885196Y-108364572D01*
X89824369Y-108084954D01*
X89724367Y-107816839D01*
X89632522Y-107648638D01*
X109741500Y-107648638D01*
X109741859Y-107651985D01*
X109741860Y-107651988D01*
X109747168Y-107701367D01*
X109747169Y-107701373D01*
X109748011Y-107709201D01*
X109750762Y-107716578D01*
X109750763Y-107716580D01*
X109795962Y-107837763D01*
X109795964Y-107837766D01*
X109799111Y-107846204D01*
X109804508Y-107853414D01*
X109804510Y-107853417D01*
X109830389Y-107887987D01*
X109886739Y-107963261D01*
X109893950Y-107968659D01*
X109929671Y-107995400D01*
X110003796Y-108050889D01*
X110140799Y-108101989D01*
X110201362Y-108108500D01*
X111995269Y-108108500D01*
X111998638Y-108108500D01*
X112059201Y-108101989D01*
X112196204Y-108050889D01*
X112313261Y-107963261D01*
X112400889Y-107846204D01*
X112444998Y-107727943D01*
X112481530Y-107675904D01*
X112538820Y-107648328D01*
X112602282Y-107652238D01*
X112655755Y-107686638D01*
X112676526Y-107709201D01*
X112716760Y-107752906D01*
X112894424Y-107891189D01*
X113092426Y-107998342D01*
X113097355Y-108000034D01*
X113097357Y-108000035D01*
X113198895Y-108034892D01*
X113305365Y-108071444D01*
X113527431Y-108108500D01*
X113747358Y-108108500D01*
X113752569Y-108108500D01*
X113974635Y-108071444D01*
X114187574Y-107998342D01*
X114385576Y-107891189D01*
X114563240Y-107752906D01*
X114715722Y-107587268D01*
X114804518Y-107451354D01*
X114850030Y-107409457D01*
X114910000Y-107394271D01*
X114969970Y-107409457D01*
X115015481Y-107451354D01*
X115104278Y-107587268D01*
X115107806Y-107591100D01*
X115253227Y-107749069D01*
X115253231Y-107749073D01*
X115256760Y-107752906D01*
X115434424Y-107891189D01*
X115632426Y-107998342D01*
X115637355Y-108000034D01*
X115637357Y-108000035D01*
X115738895Y-108034892D01*
X115845365Y-108071444D01*
X116067431Y-108108500D01*
X116287358Y-108108500D01*
X116292569Y-108108500D01*
X116514635Y-108071444D01*
X116727574Y-107998342D01*
X116925576Y-107891189D01*
X117103240Y-107752906D01*
X117255722Y-107587268D01*
X117344817Y-107450896D01*
X117390328Y-107409001D01*
X117450297Y-107393814D01*
X117510267Y-107409000D01*
X117555781Y-107450898D01*
X117641822Y-107582592D01*
X117648210Y-107590799D01*
X117793567Y-107748700D01*
X117801211Y-107755737D01*
X117970588Y-107887568D01*
X117979281Y-107893247D01*
X118168042Y-107995400D01*
X118177559Y-107999575D01*
X118380557Y-108069264D01*
X118390627Y-108071814D01*
X118452461Y-108082132D01*
X118463598Y-108081556D01*
X118466000Y-108070664D01*
X118974000Y-108070664D01*
X118976401Y-108081556D01*
X118987538Y-108082132D01*
X119049372Y-108071814D01*
X119059442Y-108069264D01*
X119262440Y-107999575D01*
X119271957Y-107995400D01*
X119460718Y-107893247D01*
X119469411Y-107887568D01*
X119638788Y-107755737D01*
X119646432Y-107748700D01*
X119791789Y-107590799D01*
X119798177Y-107582593D01*
X119915568Y-107402913D01*
X119920511Y-107393778D01*
X120006729Y-107197223D01*
X120010099Y-107187408D01*
X120053013Y-107017943D01*
X120053248Y-107006565D01*
X120042160Y-107004000D01*
X118990590Y-107004000D01*
X118977506Y-107007506D01*
X118974000Y-107020590D01*
X118974000Y-108070664D01*
X118466000Y-108070664D01*
X118466000Y-106479410D01*
X118974000Y-106479410D01*
X118977506Y-106492493D01*
X118990590Y-106496000D01*
X120042160Y-106496000D01*
X120053248Y-106493434D01*
X120053013Y-106482056D01*
X120010099Y-106312591D01*
X120006729Y-106302776D01*
X119920511Y-106106221D01*
X119915568Y-106097086D01*
X119798177Y-105917406D01*
X119791789Y-105909200D01*
X119646432Y-105751299D01*
X119638788Y-105744262D01*
X119469411Y-105612431D01*
X119460718Y-105606752D01*
X119271957Y-105504599D01*
X119262440Y-105500424D01*
X119059442Y-105430735D01*
X119049372Y-105428185D01*
X118987538Y-105417867D01*
X118976401Y-105418443D01*
X118974000Y-105429336D01*
X118974000Y-106479410D01*
X118466000Y-106479410D01*
X118466000Y-105429336D01*
X118463598Y-105418443D01*
X118452461Y-105417867D01*
X118390627Y-105428185D01*
X118380557Y-105430735D01*
X118177559Y-105500424D01*
X118168042Y-105504599D01*
X117979281Y-105606752D01*
X117970588Y-105612431D01*
X117801211Y-105744262D01*
X117793567Y-105751299D01*
X117648210Y-105909200D01*
X117641816Y-105917415D01*
X117555780Y-106049101D01*
X117510267Y-106090999D01*
X117450297Y-106106185D01*
X117390328Y-106090998D01*
X117344816Y-106049101D01*
X117255722Y-105912732D01*
X117136680Y-105783419D01*
X117106772Y-105750930D01*
X117106767Y-105750925D01*
X117103240Y-105747094D01*
X116925576Y-105608811D01*
X116920997Y-105606333D01*
X116920994Y-105606331D01*
X116732159Y-105504139D01*
X116732156Y-105504137D01*
X116727574Y-105501658D01*
X116722650Y-105499967D01*
X116722642Y-105499964D01*
X116519565Y-105430248D01*
X116519559Y-105430246D01*
X116514635Y-105428556D01*
X116509498Y-105427698D01*
X116509495Y-105427698D01*
X116297706Y-105392357D01*
X116297703Y-105392356D01*
X116292569Y-105391500D01*
X116067431Y-105391500D01*
X116062297Y-105392356D01*
X116062293Y-105392357D01*
X115850504Y-105427698D01*
X115850498Y-105427699D01*
X115845365Y-105428556D01*
X115840443Y-105430245D01*
X115840434Y-105430248D01*
X115637357Y-105499964D01*
X115637344Y-105499969D01*
X115632426Y-105501658D01*
X115627847Y-105504135D01*
X115627840Y-105504139D01*
X115439005Y-105606331D01*
X115438997Y-105606336D01*
X115434424Y-105608811D01*
X115430313Y-105612010D01*
X115430311Y-105612012D01*
X115260878Y-105743888D01*
X115260872Y-105743893D01*
X115256760Y-105747094D01*
X115253237Y-105750919D01*
X115253227Y-105750930D01*
X115107806Y-105908899D01*
X115107802Y-105908902D01*
X115104278Y-105912732D01*
X115101430Y-105917090D01*
X115101427Y-105917095D01*
X115015483Y-106048643D01*
X114969969Y-106090542D01*
X114910000Y-106105728D01*
X114850031Y-106090542D01*
X114804517Y-106048643D01*
X114747044Y-105960674D01*
X114715722Y-105912732D01*
X114596680Y-105783419D01*
X114566772Y-105750930D01*
X114566767Y-105750925D01*
X114563240Y-105747094D01*
X114385576Y-105608811D01*
X114380997Y-105606333D01*
X114380994Y-105606331D01*
X114192159Y-105504139D01*
X114192156Y-105504137D01*
X114187574Y-105501658D01*
X114182650Y-105499967D01*
X114182642Y-105499964D01*
X113979565Y-105430248D01*
X113979559Y-105430246D01*
X113974635Y-105428556D01*
X113969498Y-105427698D01*
X113969495Y-105427698D01*
X113757706Y-105392357D01*
X113757703Y-105392356D01*
X113752569Y-105391500D01*
X113527431Y-105391500D01*
X113522297Y-105392356D01*
X113522293Y-105392357D01*
X113310504Y-105427698D01*
X113310498Y-105427699D01*
X113305365Y-105428556D01*
X113300443Y-105430245D01*
X113300434Y-105430248D01*
X113097357Y-105499964D01*
X113097344Y-105499969D01*
X113092426Y-105501658D01*
X113087847Y-105504135D01*
X113087840Y-105504139D01*
X112899005Y-105606331D01*
X112898997Y-105606336D01*
X112894424Y-105608811D01*
X112890313Y-105612010D01*
X112890311Y-105612012D01*
X112720878Y-105743888D01*
X112720872Y-105743893D01*
X112716760Y-105747094D01*
X112713237Y-105750920D01*
X112713226Y-105750931D01*
X112655754Y-105813362D01*
X112602281Y-105847761D01*
X112538820Y-105851671D01*
X112481530Y-105824095D01*
X112444998Y-105772056D01*
X112404037Y-105662236D01*
X112404036Y-105662235D01*
X112400889Y-105653796D01*
X112369923Y-105612431D01*
X112318659Y-105543950D01*
X112313261Y-105536739D01*
X112306049Y-105531340D01*
X112203417Y-105454510D01*
X112203414Y-105454508D01*
X112196204Y-105449111D01*
X112187766Y-105445964D01*
X112187763Y-105445962D01*
X112066580Y-105400763D01*
X112066578Y-105400762D01*
X112059201Y-105398011D01*
X112051373Y-105397169D01*
X112051367Y-105397168D01*
X112001988Y-105391860D01*
X112001985Y-105391859D01*
X111998638Y-105391500D01*
X110201362Y-105391500D01*
X110198015Y-105391859D01*
X110198011Y-105391860D01*
X110148632Y-105397168D01*
X110148625Y-105397169D01*
X110140799Y-105398011D01*
X110133423Y-105400761D01*
X110133419Y-105400763D01*
X110012236Y-105445962D01*
X110012230Y-105445965D01*
X110003796Y-105449111D01*
X109996588Y-105454506D01*
X109996582Y-105454510D01*
X109893950Y-105531340D01*
X109893946Y-105531343D01*
X109886739Y-105536739D01*
X109881343Y-105543946D01*
X109881340Y-105543950D01*
X109804510Y-105646582D01*
X109804506Y-105646588D01*
X109799111Y-105653796D01*
X109795965Y-105662230D01*
X109795962Y-105662236D01*
X109750763Y-105783419D01*
X109750761Y-105783423D01*
X109748011Y-105790799D01*
X109747169Y-105798625D01*
X109747168Y-105798632D01*
X109744431Y-105824095D01*
X109741500Y-105851362D01*
X109741500Y-107648638D01*
X89632522Y-107648638D01*
X89587226Y-107565685D01*
X89415739Y-107336605D01*
X89213395Y-107134261D01*
X89209791Y-107131563D01*
X88987921Y-106965473D01*
X88987917Y-106965470D01*
X88984315Y-106962774D01*
X88733161Y-106825633D01*
X88489007Y-106734568D01*
X88469253Y-106727200D01*
X88469251Y-106727199D01*
X88465046Y-106725631D01*
X88460660Y-106724676D01*
X88460657Y-106724676D01*
X88189821Y-106665759D01*
X88189812Y-106665757D01*
X88185428Y-106664804D01*
X87900000Y-106644390D01*
X87895512Y-106644711D01*
X87619059Y-106664483D01*
X87619057Y-106664483D01*
X87614572Y-106664804D01*
X87610189Y-106665757D01*
X87610178Y-106665759D01*
X87339342Y-106724676D01*
X87339336Y-106724677D01*
X87334954Y-106725631D01*
X87330752Y-106727198D01*
X87330746Y-106727200D01*
X87071045Y-106824064D01*
X87071042Y-106824065D01*
X87066839Y-106825633D01*
X87062895Y-106827786D01*
X87062894Y-106827787D01*
X86819638Y-106960615D01*
X86819632Y-106960618D01*
X86815685Y-106962774D01*
X86812088Y-106965465D01*
X86812078Y-106965473D01*
X86590208Y-107131563D01*
X86590200Y-107131569D01*
X86586605Y-107134261D01*
X86583426Y-107137439D01*
X86583419Y-107137446D01*
X86387446Y-107333419D01*
X86387439Y-107333426D01*
X86384261Y-107336605D01*
X86381569Y-107340200D01*
X86381563Y-107340208D01*
X86215473Y-107562078D01*
X86215465Y-107562088D01*
X86212774Y-107565685D01*
X86210618Y-107569632D01*
X86210615Y-107569638D01*
X86112840Y-107748700D01*
X86075633Y-107816839D01*
X86074065Y-107821042D01*
X86074064Y-107821045D01*
X85977200Y-108080746D01*
X85977198Y-108080752D01*
X85975631Y-108084954D01*
X85974677Y-108089336D01*
X85974676Y-108089342D01*
X85915759Y-108360178D01*
X85915757Y-108360189D01*
X85914804Y-108364572D01*
X85894390Y-108650000D01*
X82904391Y-108650000D01*
X82906364Y-108516882D01*
X82906470Y-108513265D01*
X82916629Y-108280579D01*
X82917179Y-108273126D01*
X82937438Y-108078522D01*
X82937807Y-108075394D01*
X82968296Y-107843811D01*
X82969534Y-107836224D01*
X83006868Y-107644829D01*
X83007478Y-107641904D01*
X83058162Y-107413281D01*
X83060113Y-107405632D01*
X83114111Y-107218946D01*
X83114905Y-107216321D01*
X83185541Y-106992290D01*
X83188227Y-106984646D01*
X83258267Y-106804319D01*
X83259235Y-106801909D01*
X83349451Y-106584105D01*
X83352884Y-106576543D01*
X83438243Y-106403988D01*
X83439244Y-106402016D01*
X83548612Y-106191922D01*
X83552829Y-106184456D01*
X83652498Y-106021269D01*
X83653580Y-106019535D01*
X83781513Y-105818719D01*
X83786453Y-105811533D01*
X83899378Y-105658976D01*
X83900445Y-105657560D01*
X84046329Y-105467440D01*
X84052016Y-105460555D01*
X84176863Y-105319954D01*
X84177818Y-105318895D01*
X84341026Y-105140785D01*
X84347445Y-105134278D01*
X84482581Y-105006923D01*
X84483500Y-105006069D01*
X84663280Y-104841330D01*
X84670417Y-104835265D01*
X84715219Y-104800000D01*
X138636496Y-104800000D01*
X138656458Y-104989928D01*
X138658495Y-104996200D01*
X138658497Y-104996205D01*
X138713430Y-105165271D01*
X138713433Y-105165278D01*
X138715473Y-105171556D01*
X138810960Y-105336944D01*
X138884342Y-105418443D01*
X138928499Y-105467485D01*
X138938747Y-105478866D01*
X139093248Y-105591118D01*
X139267712Y-105668794D01*
X139454513Y-105708500D01*
X139638884Y-105708500D01*
X139645487Y-105708500D01*
X139832288Y-105668794D01*
X140006752Y-105591118D01*
X140161253Y-105478866D01*
X140289040Y-105336944D01*
X140384527Y-105171556D01*
X140443542Y-104989928D01*
X140463504Y-104800000D01*
X140443542Y-104610072D01*
X140384527Y-104428444D01*
X140289040Y-104263056D01*
X140161253Y-104121134D01*
X140155911Y-104117253D01*
X140155908Y-104117250D01*
X140075476Y-104058813D01*
X140006752Y-104008882D01*
X139832288Y-103931206D01*
X139825835Y-103929834D01*
X139825831Y-103929833D01*
X139651943Y-103892872D01*
X139651940Y-103892871D01*
X139645487Y-103891500D01*
X139454513Y-103891500D01*
X139448060Y-103892871D01*
X139448056Y-103892872D01*
X139274168Y-103929833D01*
X139274161Y-103929835D01*
X139267712Y-103931206D01*
X139261682Y-103933890D01*
X139261681Y-103933891D01*
X139099278Y-104006197D01*
X139099275Y-104006198D01*
X139093248Y-104008882D01*
X139087907Y-104012762D01*
X139087906Y-104012763D01*
X138944091Y-104117250D01*
X138944083Y-104117256D01*
X138938747Y-104121134D01*
X138934330Y-104126039D01*
X138934325Y-104126044D01*
X138825901Y-104246462D01*
X138810960Y-104263056D01*
X138807661Y-104268769D01*
X138807658Y-104268774D01*
X138764341Y-104343802D01*
X138715473Y-104428444D01*
X138713434Y-104434718D01*
X138713430Y-104434728D01*
X138658497Y-104603794D01*
X138658495Y-104603801D01*
X138656458Y-104610072D01*
X138636496Y-104800000D01*
X84715219Y-104800000D01*
X84814128Y-104722145D01*
X84814920Y-104721530D01*
X85010660Y-104571334D01*
X85018459Y-104565810D01*
X85168311Y-104468073D01*
X85169158Y-104467527D01*
X85380451Y-104332919D01*
X85388897Y-104327991D01*
X85542273Y-104246375D01*
X85542626Y-104246189D01*
X85769783Y-104127938D01*
X85778802Y-104123691D01*
X85931852Y-104058964D01*
X86175640Y-103957984D01*
X86185224Y-103954464D01*
X86331659Y-103907364D01*
X86594910Y-103824361D01*
X86604943Y-103821650D01*
X86733167Y-103792669D01*
X87024292Y-103728128D01*
X87034759Y-103726269D01*
X87113956Y-103715644D01*
X87458811Y-103670242D01*
X87469760Y-103669285D01*
X87899910Y-103650503D01*
X87900000Y-103650541D01*
X87900099Y-103650500D01*
X87900500Y-103650500D01*
X87900500Y-103649500D01*
X87900500Y-103550000D01*
X98486496Y-103550000D01*
X98487186Y-103556565D01*
X98497132Y-103651201D01*
X98506458Y-103739928D01*
X98508495Y-103746200D01*
X98508497Y-103746205D01*
X98563430Y-103915271D01*
X98563433Y-103915278D01*
X98565473Y-103921556D01*
X98625623Y-104025739D01*
X98644718Y-104058813D01*
X98660960Y-104086944D01*
X98788747Y-104228866D01*
X98794089Y-104232747D01*
X98794091Y-104232749D01*
X98829050Y-104258148D01*
X98943248Y-104341118D01*
X99117712Y-104418794D01*
X99304513Y-104458500D01*
X99488884Y-104458500D01*
X99495487Y-104458500D01*
X99682288Y-104418794D01*
X99856752Y-104341118D01*
X100011253Y-104228866D01*
X100139040Y-104086944D01*
X100234527Y-103921556D01*
X100293542Y-103739928D01*
X100313504Y-103550000D01*
X105686496Y-103550000D01*
X105687186Y-103556565D01*
X105697132Y-103651201D01*
X105706458Y-103739928D01*
X105708495Y-103746200D01*
X105708497Y-103746205D01*
X105763430Y-103915271D01*
X105763433Y-103915278D01*
X105765473Y-103921556D01*
X105825623Y-104025739D01*
X105844718Y-104058813D01*
X105860960Y-104086944D01*
X105988747Y-104228866D01*
X105994089Y-104232747D01*
X105994091Y-104232749D01*
X106029050Y-104258148D01*
X106143248Y-104341118D01*
X106317712Y-104418794D01*
X106504513Y-104458500D01*
X106688884Y-104458500D01*
X106695487Y-104458500D01*
X106882288Y-104418794D01*
X107056752Y-104341118D01*
X107211253Y-104228866D01*
X107339040Y-104086944D01*
X107434527Y-103921556D01*
X107493542Y-103739928D01*
X107513504Y-103550000D01*
X107493542Y-103360072D01*
X107434527Y-103178444D01*
X107339040Y-103013056D01*
X107211253Y-102871134D01*
X107205911Y-102867253D01*
X107205908Y-102867250D01*
X107128057Y-102810688D01*
X107056752Y-102758882D01*
X106882288Y-102681206D01*
X106875835Y-102679834D01*
X106875831Y-102679833D01*
X106701943Y-102642872D01*
X106701940Y-102642871D01*
X106695487Y-102641500D01*
X106504513Y-102641500D01*
X106498060Y-102642871D01*
X106498056Y-102642872D01*
X106324168Y-102679833D01*
X106324161Y-102679835D01*
X106317712Y-102681206D01*
X106311682Y-102683890D01*
X106311681Y-102683891D01*
X106149278Y-102756197D01*
X106149275Y-102756198D01*
X106143248Y-102758882D01*
X106137907Y-102762762D01*
X106137906Y-102762763D01*
X105994091Y-102867250D01*
X105994083Y-102867256D01*
X105988747Y-102871134D01*
X105984330Y-102876039D01*
X105984325Y-102876044D01*
X105865379Y-103008148D01*
X105860960Y-103013056D01*
X105857661Y-103018769D01*
X105857658Y-103018774D01*
X105768777Y-103172721D01*
X105765473Y-103178444D01*
X105763434Y-103184718D01*
X105763430Y-103184728D01*
X105708497Y-103353794D01*
X105708495Y-103353801D01*
X105706458Y-103360072D01*
X105686496Y-103550000D01*
X100313504Y-103550000D01*
X100293542Y-103360072D01*
X100234527Y-103178444D01*
X100139040Y-103013056D01*
X100011253Y-102871134D01*
X100005911Y-102867253D01*
X100005908Y-102867250D01*
X99928057Y-102810688D01*
X99856752Y-102758882D01*
X99682288Y-102681206D01*
X99675835Y-102679834D01*
X99675831Y-102679833D01*
X99501943Y-102642872D01*
X99501940Y-102642871D01*
X99495487Y-102641500D01*
X99304513Y-102641500D01*
X99298060Y-102642871D01*
X99298056Y-102642872D01*
X99124168Y-102679833D01*
X99124161Y-102679835D01*
X99117712Y-102681206D01*
X99111682Y-102683890D01*
X99111681Y-102683891D01*
X98949278Y-102756197D01*
X98949275Y-102756198D01*
X98943248Y-102758882D01*
X98937907Y-102762762D01*
X98937906Y-102762763D01*
X98794091Y-102867250D01*
X98794083Y-102867256D01*
X98788747Y-102871134D01*
X98784330Y-102876039D01*
X98784325Y-102876044D01*
X98665379Y-103008148D01*
X98660960Y-103013056D01*
X98657661Y-103018769D01*
X98657658Y-103018774D01*
X98568777Y-103172721D01*
X98565473Y-103178444D01*
X98563434Y-103184718D01*
X98563430Y-103184728D01*
X98508497Y-103353794D01*
X98508495Y-103353801D01*
X98506458Y-103360072D01*
X98486496Y-103550000D01*
X87900500Y-103550000D01*
X87900500Y-100080000D01*
X98356496Y-100080000D01*
X98376458Y-100269928D01*
X98378495Y-100276200D01*
X98378497Y-100276205D01*
X98433430Y-100445271D01*
X98433433Y-100445278D01*
X98435473Y-100451556D01*
X98530960Y-100616944D01*
X98658747Y-100758866D01*
X98813248Y-100871118D01*
X98987712Y-100948794D01*
X99174513Y-100988500D01*
X99358884Y-100988500D01*
X99365487Y-100988500D01*
X99552288Y-100948794D01*
X99726752Y-100871118D01*
X99881253Y-100758866D01*
X100009040Y-100616944D01*
X100104527Y-100451556D01*
X100163542Y-100269928D01*
X100183504Y-100080000D01*
X105856496Y-100080000D01*
X105876458Y-100269928D01*
X105878495Y-100276200D01*
X105878497Y-100276205D01*
X105933430Y-100445271D01*
X105933433Y-100445278D01*
X105935473Y-100451556D01*
X106030960Y-100616944D01*
X106158747Y-100758866D01*
X106313248Y-100871118D01*
X106487712Y-100948794D01*
X106674513Y-100988500D01*
X106858884Y-100988500D01*
X106865487Y-100988500D01*
X107052288Y-100948794D01*
X107226752Y-100871118D01*
X107381253Y-100758866D01*
X107509040Y-100616944D01*
X107604527Y-100451556D01*
X107663542Y-100269928D01*
X107683504Y-100080000D01*
X107663542Y-99890072D01*
X107604527Y-99708444D01*
X107509040Y-99543056D01*
X107381253Y-99401134D01*
X107375911Y-99397253D01*
X107375908Y-99397250D01*
X107285032Y-99331225D01*
X107226752Y-99288882D01*
X107052288Y-99211206D01*
X107045835Y-99209834D01*
X107045831Y-99209833D01*
X106871943Y-99172872D01*
X106871940Y-99172871D01*
X106865487Y-99171500D01*
X106674513Y-99171500D01*
X106668060Y-99172871D01*
X106668056Y-99172872D01*
X106494168Y-99209833D01*
X106494161Y-99209835D01*
X106487712Y-99211206D01*
X106481682Y-99213890D01*
X106481681Y-99213891D01*
X106319278Y-99286197D01*
X106319275Y-99286198D01*
X106313248Y-99288882D01*
X106307907Y-99292762D01*
X106307906Y-99292763D01*
X106164091Y-99397250D01*
X106164083Y-99397256D01*
X106158747Y-99401134D01*
X106154330Y-99406039D01*
X106154325Y-99406044D01*
X106035379Y-99538148D01*
X106030960Y-99543056D01*
X106027661Y-99548769D01*
X106027658Y-99548774D01*
X105958365Y-99668794D01*
X105935473Y-99708444D01*
X105933434Y-99714718D01*
X105933430Y-99714728D01*
X105878497Y-99883794D01*
X105878495Y-99883801D01*
X105876458Y-99890072D01*
X105856496Y-100080000D01*
X100183504Y-100080000D01*
X100163542Y-99890072D01*
X100104527Y-99708444D01*
X100009040Y-99543056D01*
X99881253Y-99401134D01*
X99875911Y-99397253D01*
X99875908Y-99397250D01*
X99785032Y-99331225D01*
X99726752Y-99288882D01*
X99552288Y-99211206D01*
X99545835Y-99209834D01*
X99545831Y-99209833D01*
X99371943Y-99172872D01*
X99371940Y-99172871D01*
X99365487Y-99171500D01*
X99174513Y-99171500D01*
X99168060Y-99172871D01*
X99168056Y-99172872D01*
X98994168Y-99209833D01*
X98994161Y-99209835D01*
X98987712Y-99211206D01*
X98981682Y-99213890D01*
X98981681Y-99213891D01*
X98819278Y-99286197D01*
X98819275Y-99286198D01*
X98813248Y-99288882D01*
X98807907Y-99292762D01*
X98807906Y-99292763D01*
X98664091Y-99397250D01*
X98664083Y-99397256D01*
X98658747Y-99401134D01*
X98654330Y-99406039D01*
X98654325Y-99406044D01*
X98535379Y-99538148D01*
X98530960Y-99543056D01*
X98527661Y-99548769D01*
X98527658Y-99548774D01*
X98458365Y-99668794D01*
X98435473Y-99708444D01*
X98433434Y-99714718D01*
X98433430Y-99714728D01*
X98378497Y-99883794D01*
X98378495Y-99883801D01*
X98376458Y-99890072D01*
X98356496Y-100080000D01*
X87900500Y-100080000D01*
X87900500Y-98800000D01*
X111686496Y-98800000D01*
X111706458Y-98989928D01*
X111708495Y-98996200D01*
X111708497Y-98996205D01*
X111763430Y-99165271D01*
X111763433Y-99165278D01*
X111765473Y-99171556D01*
X111860960Y-99336944D01*
X111988747Y-99478866D01*
X112143248Y-99591118D01*
X112317712Y-99668794D01*
X112504513Y-99708500D01*
X112688884Y-99708500D01*
X112695487Y-99708500D01*
X112882288Y-99668794D01*
X113056752Y-99591118D01*
X113211253Y-99478866D01*
X113339040Y-99336944D01*
X113434527Y-99171556D01*
X113493542Y-98989928D01*
X113513504Y-98800000D01*
X113493542Y-98610072D01*
X113434527Y-98428444D01*
X113418105Y-98400000D01*
X145986496Y-98400000D01*
X145987186Y-98406565D01*
X146003981Y-98566366D01*
X146006458Y-98589928D01*
X146008495Y-98596200D01*
X146008497Y-98596205D01*
X146063430Y-98765271D01*
X146063433Y-98765278D01*
X146065473Y-98771556D01*
X146160960Y-98936944D01*
X146288747Y-99078866D01*
X146443248Y-99191118D01*
X146617712Y-99268794D01*
X146804513Y-99308500D01*
X146988884Y-99308500D01*
X146995487Y-99308500D01*
X147182288Y-99268794D01*
X147356752Y-99191118D01*
X147511253Y-99078866D01*
X147639040Y-98936944D01*
X147734527Y-98771556D01*
X147793542Y-98589928D01*
X147813504Y-98400000D01*
X147793542Y-98210072D01*
X147734527Y-98028444D01*
X147639040Y-97863056D01*
X147511253Y-97721134D01*
X147505911Y-97717253D01*
X147505908Y-97717250D01*
X147428057Y-97660688D01*
X147356752Y-97608882D01*
X147182288Y-97531206D01*
X147175835Y-97529834D01*
X147175831Y-97529833D01*
X147001943Y-97492872D01*
X147001940Y-97492871D01*
X146995487Y-97491500D01*
X146804513Y-97491500D01*
X146798060Y-97492871D01*
X146798056Y-97492872D01*
X146624168Y-97529833D01*
X146624161Y-97529835D01*
X146617712Y-97531206D01*
X146611682Y-97533890D01*
X146611681Y-97533891D01*
X146449278Y-97606197D01*
X146449275Y-97606198D01*
X146443248Y-97608882D01*
X146437907Y-97612762D01*
X146437906Y-97612763D01*
X146294091Y-97717250D01*
X146294083Y-97717256D01*
X146288747Y-97721134D01*
X146284330Y-97726039D01*
X146284325Y-97726044D01*
X146165379Y-97858148D01*
X146160960Y-97863056D01*
X146157661Y-97868769D01*
X146157658Y-97868774D01*
X146122406Y-97929833D01*
X146065473Y-98028444D01*
X146063434Y-98034718D01*
X146063430Y-98034728D01*
X146008497Y-98203794D01*
X146008495Y-98203801D01*
X146006458Y-98210072D01*
X146005768Y-98216633D01*
X146005768Y-98216635D01*
X146000889Y-98263056D01*
X145986496Y-98400000D01*
X113418105Y-98400000D01*
X113339040Y-98263056D01*
X113211253Y-98121134D01*
X113205911Y-98117253D01*
X113205908Y-98117250D01*
X113128057Y-98060688D01*
X113056752Y-98008882D01*
X112882288Y-97931206D01*
X112875835Y-97929834D01*
X112875831Y-97929833D01*
X112701943Y-97892872D01*
X112701940Y-97892871D01*
X112695487Y-97891500D01*
X112504513Y-97891500D01*
X112498060Y-97892871D01*
X112498056Y-97892872D01*
X112324168Y-97929833D01*
X112324161Y-97929835D01*
X112317712Y-97931206D01*
X112311682Y-97933890D01*
X112311681Y-97933891D01*
X112149278Y-98006197D01*
X112149275Y-98006198D01*
X112143248Y-98008882D01*
X112137907Y-98012762D01*
X112137906Y-98012763D01*
X111994091Y-98117250D01*
X111994083Y-98117256D01*
X111988747Y-98121134D01*
X111984330Y-98126039D01*
X111984325Y-98126044D01*
X111865379Y-98258148D01*
X111860960Y-98263056D01*
X111857661Y-98268769D01*
X111857658Y-98268774D01*
X111785685Y-98393435D01*
X111765473Y-98428444D01*
X111763434Y-98434718D01*
X111763430Y-98434728D01*
X111708497Y-98603794D01*
X111708495Y-98603801D01*
X111706458Y-98610072D01*
X111705768Y-98616633D01*
X111705768Y-98616635D01*
X111691372Y-98753608D01*
X111686496Y-98800000D01*
X87900500Y-98800000D01*
X87900500Y-97887500D01*
X108686496Y-97887500D01*
X108687186Y-97894065D01*
X108699661Y-98012763D01*
X108706458Y-98077428D01*
X108708495Y-98083700D01*
X108708497Y-98083705D01*
X108763430Y-98252771D01*
X108763433Y-98252778D01*
X108765473Y-98259056D01*
X108768777Y-98264778D01*
X108850637Y-98406565D01*
X108860960Y-98424444D01*
X108988747Y-98566366D01*
X108994089Y-98570247D01*
X108994091Y-98570249D01*
X109021177Y-98589928D01*
X109143248Y-98678618D01*
X109317712Y-98756294D01*
X109504513Y-98796000D01*
X109688884Y-98796000D01*
X109695487Y-98796000D01*
X109882288Y-98756294D01*
X110056752Y-98678618D01*
X110211253Y-98566366D01*
X110339040Y-98424444D01*
X110434527Y-98259056D01*
X110493542Y-98077428D01*
X110513504Y-97887500D01*
X110493542Y-97697572D01*
X110463852Y-97606197D01*
X110436569Y-97522228D01*
X110436568Y-97522226D01*
X110434527Y-97515944D01*
X110339040Y-97350556D01*
X110211253Y-97208634D01*
X110205911Y-97204753D01*
X110205908Y-97204750D01*
X110128057Y-97148188D01*
X110056752Y-97096382D01*
X109882288Y-97018706D01*
X109875835Y-97017334D01*
X109875831Y-97017333D01*
X109701943Y-96980372D01*
X109701940Y-96980371D01*
X109695487Y-96979000D01*
X109504513Y-96979000D01*
X109498060Y-96980371D01*
X109498056Y-96980372D01*
X109324168Y-97017333D01*
X109324161Y-97017335D01*
X109317712Y-97018706D01*
X109311682Y-97021390D01*
X109311681Y-97021391D01*
X109149278Y-97093697D01*
X109149275Y-97093698D01*
X109143248Y-97096382D01*
X109137907Y-97100262D01*
X109137906Y-97100263D01*
X108994091Y-97204750D01*
X108994083Y-97204756D01*
X108988747Y-97208634D01*
X108984330Y-97213539D01*
X108984325Y-97213544D01*
X108865379Y-97345648D01*
X108860960Y-97350556D01*
X108857661Y-97356269D01*
X108857658Y-97356274D01*
X108768777Y-97510221D01*
X108765473Y-97515944D01*
X108763434Y-97522218D01*
X108763430Y-97522228D01*
X108708497Y-97691294D01*
X108708495Y-97691301D01*
X108706458Y-97697572D01*
X108705768Y-97704133D01*
X108705768Y-97704135D01*
X108689581Y-97858148D01*
X108686496Y-97887500D01*
X87900500Y-97887500D01*
X87900500Y-90092668D01*
X139109644Y-90092668D01*
X139129606Y-90282596D01*
X139131643Y-90288868D01*
X139131645Y-90288873D01*
X139186578Y-90457939D01*
X139186581Y-90457946D01*
X139188621Y-90464224D01*
X139284108Y-90629612D01*
X139411895Y-90771534D01*
X139566396Y-90883786D01*
X139740860Y-90961462D01*
X139927661Y-91001168D01*
X140112032Y-91001168D01*
X140118635Y-91001168D01*
X140305436Y-90961462D01*
X140479900Y-90883786D01*
X140634401Y-90771534D01*
X140762188Y-90629612D01*
X140857675Y-90464224D01*
X140916690Y-90282596D01*
X140936652Y-90092668D01*
X140916690Y-89902740D01*
X140857675Y-89721112D01*
X140762188Y-89555724D01*
X140634401Y-89413802D01*
X140629059Y-89409921D01*
X140629056Y-89409918D01*
X140551205Y-89353356D01*
X140479900Y-89301550D01*
X140305436Y-89223874D01*
X140298983Y-89222502D01*
X140298979Y-89222501D01*
X140125091Y-89185540D01*
X140125088Y-89185539D01*
X140118635Y-89184168D01*
X139927661Y-89184168D01*
X139921208Y-89185539D01*
X139921204Y-89185540D01*
X139747316Y-89222501D01*
X139747309Y-89222503D01*
X139740860Y-89223874D01*
X139734830Y-89226558D01*
X139734829Y-89226559D01*
X139572426Y-89298865D01*
X139572423Y-89298866D01*
X139566396Y-89301550D01*
X139561055Y-89305430D01*
X139561054Y-89305431D01*
X139417239Y-89409918D01*
X139417231Y-89409924D01*
X139411895Y-89413802D01*
X139407478Y-89418707D01*
X139407473Y-89418712D01*
X139288527Y-89550816D01*
X139284108Y-89555724D01*
X139280809Y-89561437D01*
X139280806Y-89561442D01*
X139191925Y-89715389D01*
X139188621Y-89721112D01*
X139186582Y-89727386D01*
X139186578Y-89727396D01*
X139131645Y-89896462D01*
X139131643Y-89896469D01*
X139129606Y-89902740D01*
X139109644Y-90092668D01*
X87900500Y-90092668D01*
X87900500Y-88700000D01*
X101786496Y-88700000D01*
X101806458Y-88889928D01*
X101808495Y-88896200D01*
X101808497Y-88896205D01*
X101863430Y-89065271D01*
X101863433Y-89065278D01*
X101865473Y-89071556D01*
X101960960Y-89236944D01*
X102088747Y-89378866D01*
X102243248Y-89491118D01*
X102417712Y-89568794D01*
X102604513Y-89608500D01*
X102788884Y-89608500D01*
X102795487Y-89608500D01*
X102982288Y-89568794D01*
X103156752Y-89491118D01*
X103311253Y-89378866D01*
X103439040Y-89236944D01*
X103534527Y-89071556D01*
X103593542Y-88889928D01*
X103613504Y-88700000D01*
X103593542Y-88510072D01*
X103534527Y-88328444D01*
X103439040Y-88163056D01*
X103311253Y-88021134D01*
X103305911Y-88017253D01*
X103305908Y-88017250D01*
X103228057Y-87960688D01*
X103156752Y-87908882D01*
X102982288Y-87831206D01*
X102975835Y-87829834D01*
X102975831Y-87829833D01*
X102801943Y-87792872D01*
X102801940Y-87792871D01*
X102795487Y-87791500D01*
X102604513Y-87791500D01*
X102598060Y-87792871D01*
X102598056Y-87792872D01*
X102424168Y-87829833D01*
X102424161Y-87829835D01*
X102417712Y-87831206D01*
X102411682Y-87833890D01*
X102411681Y-87833891D01*
X102249278Y-87906197D01*
X102249275Y-87906198D01*
X102243248Y-87908882D01*
X102237907Y-87912762D01*
X102237906Y-87912763D01*
X102094091Y-88017250D01*
X102094083Y-88017256D01*
X102088747Y-88021134D01*
X102084330Y-88026039D01*
X102084325Y-88026044D01*
X101965379Y-88158148D01*
X101960960Y-88163056D01*
X101957661Y-88168769D01*
X101957658Y-88168774D01*
X101868777Y-88322721D01*
X101865473Y-88328444D01*
X101863434Y-88334718D01*
X101863430Y-88334728D01*
X101808497Y-88503794D01*
X101808495Y-88503801D01*
X101806458Y-88510072D01*
X101786496Y-88700000D01*
X87900500Y-88700000D01*
X87900500Y-86600000D01*
X93486496Y-86600000D01*
X93506458Y-86789928D01*
X93508495Y-86796200D01*
X93508497Y-86796205D01*
X93563430Y-86965271D01*
X93563433Y-86965278D01*
X93565473Y-86971556D01*
X93660960Y-87136944D01*
X93788747Y-87278866D01*
X93943248Y-87391118D01*
X94117712Y-87468794D01*
X94304513Y-87508500D01*
X94488884Y-87508500D01*
X94495487Y-87508500D01*
X94682288Y-87468794D01*
X94856752Y-87391118D01*
X95011253Y-87278866D01*
X95139040Y-87136944D01*
X95234527Y-86971556D01*
X95293542Y-86789928D01*
X95313504Y-86600000D01*
X95293542Y-86410072D01*
X95234527Y-86228444D01*
X95139040Y-86063056D01*
X95011253Y-85921134D01*
X95005911Y-85917253D01*
X95005908Y-85917250D01*
X94886264Y-85830324D01*
X94856752Y-85808882D01*
X94682288Y-85731206D01*
X94675835Y-85729834D01*
X94675831Y-85729833D01*
X94501943Y-85692872D01*
X94501940Y-85692871D01*
X94495487Y-85691500D01*
X94304513Y-85691500D01*
X94298060Y-85692871D01*
X94298056Y-85692872D01*
X94124168Y-85729833D01*
X94124161Y-85729835D01*
X94117712Y-85731206D01*
X94111682Y-85733890D01*
X94111681Y-85733891D01*
X93949278Y-85806197D01*
X93949275Y-85806198D01*
X93943248Y-85808882D01*
X93937907Y-85812762D01*
X93937906Y-85812763D01*
X93794091Y-85917250D01*
X93794083Y-85917256D01*
X93788747Y-85921134D01*
X93784330Y-85926039D01*
X93784325Y-85926044D01*
X93729491Y-85986944D01*
X93660960Y-86063056D01*
X93657661Y-86068769D01*
X93657658Y-86068774D01*
X93568777Y-86222721D01*
X93565473Y-86228444D01*
X93563434Y-86234718D01*
X93563430Y-86234728D01*
X93508497Y-86403794D01*
X93508495Y-86403801D01*
X93506458Y-86410072D01*
X93486496Y-86600000D01*
X87900500Y-86600000D01*
X87900500Y-85032500D01*
X96308884Y-85032500D01*
X96329283Y-85213547D01*
X96331618Y-85220220D01*
X96331619Y-85220224D01*
X96387119Y-85378835D01*
X96387121Y-85378839D01*
X96389457Y-85385515D01*
X96393219Y-85391503D01*
X96393221Y-85391506D01*
X96480110Y-85529789D01*
X96486389Y-85539781D01*
X96615219Y-85668611D01*
X96621213Y-85672377D01*
X96621214Y-85672378D01*
X96653830Y-85692872D01*
X96769485Y-85765543D01*
X96941453Y-85825717D01*
X97122500Y-85846116D01*
X97303547Y-85825717D01*
X97475515Y-85765543D01*
X97629781Y-85668611D01*
X97758611Y-85539781D01*
X97855543Y-85385515D01*
X97915717Y-85213547D01*
X97936116Y-85032500D01*
X97934426Y-85017500D01*
X103518884Y-85017500D01*
X103539283Y-85198547D01*
X103541618Y-85205220D01*
X103541619Y-85205224D01*
X103597119Y-85363835D01*
X103597121Y-85363839D01*
X103599457Y-85370515D01*
X103603219Y-85376503D01*
X103603221Y-85376506D01*
X103649400Y-85450000D01*
X103696389Y-85524781D01*
X103825219Y-85653611D01*
X103831213Y-85657377D01*
X103831214Y-85657378D01*
X103973493Y-85746778D01*
X103979485Y-85750543D01*
X104151453Y-85810717D01*
X104332500Y-85831116D01*
X104513547Y-85810717D01*
X104685515Y-85750543D01*
X104839781Y-85653611D01*
X104968611Y-85524781D01*
X105015599Y-85450000D01*
X111686496Y-85450000D01*
X111687186Y-85456565D01*
X111693725Y-85518785D01*
X111706458Y-85639928D01*
X111708495Y-85646200D01*
X111708497Y-85646205D01*
X111763430Y-85815271D01*
X111763433Y-85815278D01*
X111765473Y-85821556D01*
X111860960Y-85986944D01*
X111988747Y-86128866D01*
X112143248Y-86241118D01*
X112317712Y-86318794D01*
X112504513Y-86358500D01*
X112688884Y-86358500D01*
X112695487Y-86358500D01*
X112882288Y-86318794D01*
X113056752Y-86241118D01*
X113211253Y-86128866D01*
X113339040Y-85986944D01*
X113434527Y-85821556D01*
X113493542Y-85639928D01*
X113513504Y-85450000D01*
X113493542Y-85260072D01*
X113434527Y-85078444D01*
X113339040Y-84913056D01*
X113211253Y-84771134D01*
X113205911Y-84767253D01*
X113205908Y-84767250D01*
X113076862Y-84673493D01*
X113056752Y-84658882D01*
X112882288Y-84581206D01*
X112875835Y-84579834D01*
X112875831Y-84579833D01*
X112701943Y-84542872D01*
X112701940Y-84542871D01*
X112695487Y-84541500D01*
X112504513Y-84541500D01*
X112498060Y-84542871D01*
X112498056Y-84542872D01*
X112324168Y-84579833D01*
X112324161Y-84579835D01*
X112317712Y-84581206D01*
X112311682Y-84583890D01*
X112311681Y-84583891D01*
X112149278Y-84656197D01*
X112149275Y-84656198D01*
X112143248Y-84658882D01*
X112137907Y-84662762D01*
X112137906Y-84662763D01*
X111994091Y-84767250D01*
X111994083Y-84767256D01*
X111988747Y-84771134D01*
X111984330Y-84776039D01*
X111984325Y-84776044D01*
X111910099Y-84858481D01*
X111860960Y-84913056D01*
X111857661Y-84918769D01*
X111857658Y-84918774D01*
X111768777Y-85072721D01*
X111765473Y-85078444D01*
X111763434Y-85084718D01*
X111763430Y-85084728D01*
X111708497Y-85253794D01*
X111708495Y-85253801D01*
X111706458Y-85260072D01*
X111705768Y-85266633D01*
X111705768Y-85266635D01*
X111692644Y-85391506D01*
X111686496Y-85450000D01*
X105015599Y-85450000D01*
X105065543Y-85370515D01*
X105125717Y-85198547D01*
X105146116Y-85017500D01*
X105125717Y-84836453D01*
X105065543Y-84664485D01*
X105060335Y-84656197D01*
X104972378Y-84516214D01*
X104972377Y-84516213D01*
X104968611Y-84510219D01*
X104839781Y-84381389D01*
X104833787Y-84377623D01*
X104833785Y-84377621D01*
X104691506Y-84288221D01*
X104691503Y-84288219D01*
X104685515Y-84284457D01*
X104678839Y-84282121D01*
X104678835Y-84282119D01*
X104520224Y-84226619D01*
X104520220Y-84226618D01*
X104513547Y-84224283D01*
X104332500Y-84203884D01*
X104325471Y-84204676D01*
X104158481Y-84223491D01*
X104158479Y-84223491D01*
X104151453Y-84224283D01*
X104144780Y-84226617D01*
X104144775Y-84226619D01*
X103986164Y-84282119D01*
X103986156Y-84282122D01*
X103979485Y-84284457D01*
X103973500Y-84288217D01*
X103973493Y-84288221D01*
X103831214Y-84377621D01*
X103831207Y-84377626D01*
X103825219Y-84381389D01*
X103820214Y-84386393D01*
X103820210Y-84386397D01*
X103701397Y-84505210D01*
X103701393Y-84505214D01*
X103696389Y-84510219D01*
X103692626Y-84516207D01*
X103692621Y-84516214D01*
X103603221Y-84658493D01*
X103603217Y-84658500D01*
X103599457Y-84664485D01*
X103597122Y-84671156D01*
X103597119Y-84671164D01*
X103541619Y-84829775D01*
X103541617Y-84829780D01*
X103539283Y-84836453D01*
X103518884Y-85017500D01*
X97934426Y-85017500D01*
X97915717Y-84851453D01*
X97855543Y-84679485D01*
X97817408Y-84618794D01*
X97762378Y-84531214D01*
X97762377Y-84531213D01*
X97758611Y-84525219D01*
X97629781Y-84396389D01*
X97623787Y-84392623D01*
X97623785Y-84392621D01*
X97481506Y-84303221D01*
X97481503Y-84303219D01*
X97475515Y-84299457D01*
X97468839Y-84297121D01*
X97468835Y-84297119D01*
X97310224Y-84241619D01*
X97310220Y-84241618D01*
X97303547Y-84239283D01*
X97122500Y-84218884D01*
X97115471Y-84219676D01*
X96948481Y-84238491D01*
X96948479Y-84238491D01*
X96941453Y-84239283D01*
X96934780Y-84241617D01*
X96934775Y-84241619D01*
X96776164Y-84297119D01*
X96776156Y-84297122D01*
X96769485Y-84299457D01*
X96763500Y-84303217D01*
X96763493Y-84303221D01*
X96621214Y-84392621D01*
X96621207Y-84392626D01*
X96615219Y-84396389D01*
X96610214Y-84401393D01*
X96610210Y-84401397D01*
X96491397Y-84520210D01*
X96491393Y-84520214D01*
X96486389Y-84525219D01*
X96482626Y-84531207D01*
X96482621Y-84531214D01*
X96393221Y-84673493D01*
X96393217Y-84673500D01*
X96389457Y-84679485D01*
X96387122Y-84686156D01*
X96387119Y-84686164D01*
X96331619Y-84844775D01*
X96331617Y-84844780D01*
X96329283Y-84851453D01*
X96308884Y-85032500D01*
X87900500Y-85032500D01*
X87900500Y-83680000D01*
X100756496Y-83680000D01*
X100776458Y-83869928D01*
X100778495Y-83876200D01*
X100778497Y-83876205D01*
X100833430Y-84045271D01*
X100833433Y-84045278D01*
X100835473Y-84051556D01*
X100930960Y-84216944D01*
X101058747Y-84358866D01*
X101213248Y-84471118D01*
X101387712Y-84548794D01*
X101574513Y-84588500D01*
X101758884Y-84588500D01*
X101765487Y-84588500D01*
X101952288Y-84548794D01*
X102126752Y-84471118D01*
X102281253Y-84358866D01*
X102409040Y-84216944D01*
X102504527Y-84051556D01*
X102563542Y-83869928D01*
X102576147Y-83750000D01*
X119086496Y-83750000D01*
X119087186Y-83756565D01*
X119105719Y-83932902D01*
X119106458Y-83939928D01*
X119108495Y-83946200D01*
X119108497Y-83946205D01*
X119163430Y-84115271D01*
X119163433Y-84115278D01*
X119165473Y-84121556D01*
X119260960Y-84286944D01*
X119388747Y-84428866D01*
X119543248Y-84541118D01*
X119717712Y-84618794D01*
X119904513Y-84658500D01*
X120088884Y-84658500D01*
X120095487Y-84658500D01*
X120282288Y-84618794D01*
X120456752Y-84541118D01*
X120611253Y-84428866D01*
X120739040Y-84286944D01*
X120834527Y-84121556D01*
X120893542Y-83939928D01*
X120913504Y-83750000D01*
X120893542Y-83560072D01*
X120877272Y-83510000D01*
X122361496Y-83510000D01*
X122362186Y-83516565D01*
X122380053Y-83686565D01*
X122381458Y-83699928D01*
X122383495Y-83706200D01*
X122383497Y-83706205D01*
X122438430Y-83875271D01*
X122438433Y-83875278D01*
X122440473Y-83881556D01*
X122479865Y-83949784D01*
X122519744Y-84018858D01*
X122535960Y-84046944D01*
X122663747Y-84188866D01*
X122669089Y-84192747D01*
X122669091Y-84192749D01*
X122694521Y-84211225D01*
X122818248Y-84301118D01*
X122992712Y-84378794D01*
X123179513Y-84418500D01*
X123363884Y-84418500D01*
X123370487Y-84418500D01*
X123557288Y-84378794D01*
X123731752Y-84301118D01*
X123886253Y-84188866D01*
X123890675Y-84183954D01*
X123890687Y-84183944D01*
X123944517Y-84155321D01*
X124005483Y-84155321D01*
X124059313Y-84183944D01*
X124059324Y-84183954D01*
X124063747Y-84188866D01*
X124218248Y-84301118D01*
X124392712Y-84378794D01*
X124579513Y-84418500D01*
X124763884Y-84418500D01*
X124770487Y-84418500D01*
X124957288Y-84378794D01*
X125131752Y-84301118D01*
X125286253Y-84188866D01*
X125414040Y-84046944D01*
X125443509Y-83995901D01*
X125489626Y-83949784D01*
X125552626Y-83932902D01*
X125615626Y-83949782D01*
X125661746Y-83995902D01*
X125735960Y-84124444D01*
X125863747Y-84266366D01*
X125869089Y-84270247D01*
X125869091Y-84270249D01*
X125885429Y-84282119D01*
X126018248Y-84378618D01*
X126192712Y-84456294D01*
X126379513Y-84496000D01*
X126563884Y-84496000D01*
X126570487Y-84496000D01*
X126757288Y-84456294D01*
X126931752Y-84378618D01*
X127086253Y-84266366D01*
X127181364Y-84160733D01*
X127240270Y-84123925D01*
X127309730Y-84123925D01*
X127368635Y-84160733D01*
X127463747Y-84266366D01*
X127469089Y-84270247D01*
X127469091Y-84270249D01*
X127485429Y-84282119D01*
X127618248Y-84378618D01*
X127792712Y-84456294D01*
X127979513Y-84496000D01*
X128163884Y-84496000D01*
X128170487Y-84496000D01*
X128357288Y-84456294D01*
X128531752Y-84378618D01*
X128686253Y-84266366D01*
X128814040Y-84124444D01*
X128909527Y-83959056D01*
X128968542Y-83777428D01*
X128988504Y-83587500D01*
X128968542Y-83397572D01*
X128909527Y-83215944D01*
X128814040Y-83050556D01*
X128686253Y-82908634D01*
X128680911Y-82904753D01*
X128680908Y-82904750D01*
X128574238Y-82827250D01*
X128531752Y-82796382D01*
X128357288Y-82718706D01*
X128350835Y-82717334D01*
X128350831Y-82717333D01*
X128176943Y-82680372D01*
X128176940Y-82680371D01*
X128170487Y-82679000D01*
X127979513Y-82679000D01*
X127973060Y-82680371D01*
X127973056Y-82680372D01*
X127799168Y-82717333D01*
X127799161Y-82717335D01*
X127792712Y-82718706D01*
X127786682Y-82721390D01*
X127786681Y-82721391D01*
X127624278Y-82793697D01*
X127624275Y-82793698D01*
X127618248Y-82796382D01*
X127612907Y-82800262D01*
X127612906Y-82800263D01*
X127469091Y-82904750D01*
X127469083Y-82904756D01*
X127463747Y-82908634D01*
X127459332Y-82913537D01*
X127459329Y-82913540D01*
X127368636Y-83014266D01*
X127309730Y-83051074D01*
X127240270Y-83051074D01*
X127181364Y-83014266D01*
X127149407Y-82978774D01*
X127086253Y-82908634D01*
X127080911Y-82904753D01*
X127080908Y-82904750D01*
X126974238Y-82827250D01*
X126931752Y-82796382D01*
X126757288Y-82718706D01*
X126750835Y-82717334D01*
X126750831Y-82717333D01*
X126576943Y-82680372D01*
X126576940Y-82680371D01*
X126570487Y-82679000D01*
X126379513Y-82679000D01*
X126373060Y-82680371D01*
X126373056Y-82680372D01*
X126199168Y-82717333D01*
X126199161Y-82717335D01*
X126192712Y-82718706D01*
X126186682Y-82721390D01*
X126186681Y-82721391D01*
X126024278Y-82793697D01*
X126024275Y-82793698D01*
X126018248Y-82796382D01*
X126012907Y-82800262D01*
X126012906Y-82800263D01*
X125869091Y-82904750D01*
X125869083Y-82904756D01*
X125863747Y-82908634D01*
X125859330Y-82913539D01*
X125859325Y-82913544D01*
X125740379Y-83045648D01*
X125735960Y-83050556D01*
X125706492Y-83101597D01*
X125706491Y-83101598D01*
X125660371Y-83147717D01*
X125597372Y-83164597D01*
X125534372Y-83147716D01*
X125488253Y-83101597D01*
X125462083Y-83056270D01*
X125414040Y-82973056D01*
X125286253Y-82831134D01*
X125280911Y-82827253D01*
X125280908Y-82827250D01*
X125203057Y-82770688D01*
X125131752Y-82718882D01*
X124957288Y-82641206D01*
X124950835Y-82639834D01*
X124950831Y-82639833D01*
X124776943Y-82602872D01*
X124776940Y-82602871D01*
X124770487Y-82601500D01*
X124579513Y-82601500D01*
X124573060Y-82602871D01*
X124573056Y-82602872D01*
X124399168Y-82639833D01*
X124399161Y-82639835D01*
X124392712Y-82641206D01*
X124386684Y-82643889D01*
X124386677Y-82643892D01*
X124241743Y-82708420D01*
X124179950Y-82718871D01*
X124120766Y-82698260D01*
X124078833Y-82651687D01*
X124064523Y-82590672D01*
X124081375Y-82530315D01*
X124109527Y-82481556D01*
X124168542Y-82299928D01*
X124188504Y-82110000D01*
X124168542Y-81920072D01*
X124133024Y-81810759D01*
X124111569Y-81744728D01*
X124111568Y-81744726D01*
X124109527Y-81738444D01*
X124014040Y-81573056D01*
X123886253Y-81431134D01*
X123880911Y-81427253D01*
X123880908Y-81427250D01*
X123786281Y-81358500D01*
X123731752Y-81318882D01*
X123557288Y-81241206D01*
X123550835Y-81239834D01*
X123550831Y-81239833D01*
X123376943Y-81202872D01*
X123376940Y-81202871D01*
X123370487Y-81201500D01*
X123179513Y-81201500D01*
X123173060Y-81202871D01*
X123173056Y-81202872D01*
X122999168Y-81239833D01*
X122999161Y-81239835D01*
X122992712Y-81241206D01*
X122986682Y-81243890D01*
X122986681Y-81243891D01*
X122824278Y-81316197D01*
X122824275Y-81316198D01*
X122818248Y-81318882D01*
X122812907Y-81322762D01*
X122812906Y-81322763D01*
X122669091Y-81427250D01*
X122669083Y-81427256D01*
X122663747Y-81431134D01*
X122659330Y-81436039D01*
X122659325Y-81436044D01*
X122570511Y-81534683D01*
X122535960Y-81573056D01*
X122532661Y-81578769D01*
X122532658Y-81578774D01*
X122474949Y-81678730D01*
X122440473Y-81738444D01*
X122438434Y-81744718D01*
X122438430Y-81744728D01*
X122383497Y-81913794D01*
X122383495Y-81913801D01*
X122381458Y-81920072D01*
X122380768Y-81926633D01*
X122380768Y-81926635D01*
X122376870Y-81963721D01*
X122361496Y-82110000D01*
X122381458Y-82299928D01*
X122383495Y-82306200D01*
X122383497Y-82306205D01*
X122438430Y-82475271D01*
X122438433Y-82475278D01*
X122440473Y-82481556D01*
X122535960Y-82646944D01*
X122606865Y-82725692D01*
X122635484Y-82779516D01*
X122635484Y-82840480D01*
X122606863Y-82894309D01*
X122535960Y-82973056D01*
X122532661Y-82978769D01*
X122532658Y-82978774D01*
X122461746Y-83101598D01*
X122440473Y-83138444D01*
X122438434Y-83144718D01*
X122438430Y-83144728D01*
X122383497Y-83313794D01*
X122383495Y-83313801D01*
X122381458Y-83320072D01*
X122380768Y-83326633D01*
X122380768Y-83326635D01*
X122372623Y-83404135D01*
X122361496Y-83510000D01*
X120877272Y-83510000D01*
X120834527Y-83378444D01*
X120739040Y-83213056D01*
X120611253Y-83071134D01*
X120605911Y-83067253D01*
X120605908Y-83067250D01*
X120509561Y-82997250D01*
X120456752Y-82958882D01*
X120282288Y-82881206D01*
X120275835Y-82879834D01*
X120275831Y-82879833D01*
X120101943Y-82842872D01*
X120101940Y-82842871D01*
X120095487Y-82841500D01*
X119904513Y-82841500D01*
X119898060Y-82842871D01*
X119898056Y-82842872D01*
X119724168Y-82879833D01*
X119724161Y-82879835D01*
X119717712Y-82881206D01*
X119711682Y-82883890D01*
X119711681Y-82883891D01*
X119549278Y-82956197D01*
X119549275Y-82956198D01*
X119543248Y-82958882D01*
X119537907Y-82962762D01*
X119537906Y-82962763D01*
X119394091Y-83067250D01*
X119394083Y-83067256D01*
X119388747Y-83071134D01*
X119384330Y-83076039D01*
X119384325Y-83076044D01*
X119265379Y-83208148D01*
X119260960Y-83213056D01*
X119257661Y-83218769D01*
X119257658Y-83218774D01*
X119199174Y-83320072D01*
X119165473Y-83378444D01*
X119163434Y-83384718D01*
X119163430Y-83384728D01*
X119108497Y-83553794D01*
X119108495Y-83553801D01*
X119106458Y-83560072D01*
X119086496Y-83750000D01*
X102576147Y-83750000D01*
X102583504Y-83680000D01*
X102563542Y-83490072D01*
X102504527Y-83308444D01*
X102409040Y-83143056D01*
X102281253Y-83001134D01*
X102275911Y-82997253D01*
X102275908Y-82997250D01*
X102160696Y-82913544D01*
X102126752Y-82888882D01*
X101952288Y-82811206D01*
X101945835Y-82809834D01*
X101945831Y-82809833D01*
X101771943Y-82772872D01*
X101771940Y-82772871D01*
X101765487Y-82771500D01*
X101574513Y-82771500D01*
X101568060Y-82772871D01*
X101568056Y-82772872D01*
X101394168Y-82809833D01*
X101394161Y-82809835D01*
X101387712Y-82811206D01*
X101381682Y-82813890D01*
X101381681Y-82813891D01*
X101219278Y-82886197D01*
X101219275Y-82886198D01*
X101213248Y-82888882D01*
X101207907Y-82892762D01*
X101207906Y-82892763D01*
X101064091Y-82997250D01*
X101064083Y-82997256D01*
X101058747Y-83001134D01*
X101054330Y-83006039D01*
X101054325Y-83006044D01*
X100935379Y-83138148D01*
X100930960Y-83143056D01*
X100927661Y-83148769D01*
X100927658Y-83148774D01*
X100838777Y-83302721D01*
X100835473Y-83308444D01*
X100833434Y-83314718D01*
X100833430Y-83314728D01*
X100778497Y-83483794D01*
X100778495Y-83483801D01*
X100776458Y-83490072D01*
X100775768Y-83496633D01*
X100775768Y-83496635D01*
X100769101Y-83560072D01*
X100756496Y-83680000D01*
X87900500Y-83680000D01*
X87900500Y-80450000D01*
X98586496Y-80450000D01*
X98606458Y-80639928D01*
X98608495Y-80646200D01*
X98608497Y-80646205D01*
X98663430Y-80815271D01*
X98663433Y-80815278D01*
X98665473Y-80821556D01*
X98760960Y-80986944D01*
X98888747Y-81128866D01*
X99043248Y-81241118D01*
X99217712Y-81318794D01*
X99404513Y-81358500D01*
X99588884Y-81358500D01*
X99595487Y-81358500D01*
X99782288Y-81318794D01*
X99956752Y-81241118D01*
X100111253Y-81128866D01*
X100239040Y-80986944D01*
X100334527Y-80821556D01*
X100393542Y-80639928D01*
X100413504Y-80450000D01*
X100393542Y-80260072D01*
X100390269Y-80250000D01*
X106286496Y-80250000D01*
X106306458Y-80439928D01*
X106308495Y-80446200D01*
X106308497Y-80446205D01*
X106363430Y-80615271D01*
X106363433Y-80615278D01*
X106365473Y-80621556D01*
X106460960Y-80786944D01*
X106588747Y-80928866D01*
X106743248Y-81041118D01*
X106769647Y-81052871D01*
X106774023Y-81054820D01*
X106820694Y-81090632D01*
X106846020Y-81143730D01*
X106844481Y-81202537D01*
X106816411Y-81254236D01*
X106804488Y-81267478D01*
X106785960Y-81288056D01*
X106782661Y-81293769D01*
X106782658Y-81293774D01*
X106695755Y-81444295D01*
X106690473Y-81453444D01*
X106688434Y-81459718D01*
X106688430Y-81459728D01*
X106633497Y-81628794D01*
X106633495Y-81628801D01*
X106631458Y-81635072D01*
X106630768Y-81641633D01*
X106630768Y-81641635D01*
X106618888Y-81754668D01*
X106611496Y-81825000D01*
X106612186Y-81831565D01*
X106620828Y-81913794D01*
X106631458Y-82014928D01*
X106633495Y-82021200D01*
X106633497Y-82021205D01*
X106688430Y-82190271D01*
X106688433Y-82190278D01*
X106690473Y-82196556D01*
X106785960Y-82361944D01*
X106913747Y-82503866D01*
X107068248Y-82616118D01*
X107242712Y-82693794D01*
X107429513Y-82733500D01*
X107613884Y-82733500D01*
X107620487Y-82733500D01*
X107807288Y-82693794D01*
X107981752Y-82616118D01*
X108136253Y-82503866D01*
X108264040Y-82361944D01*
X108359527Y-82196556D01*
X108418542Y-82014928D01*
X108438504Y-81825000D01*
X108418542Y-81635072D01*
X108359527Y-81453444D01*
X108264040Y-81288056D01*
X108136253Y-81146134D01*
X108130911Y-81142253D01*
X108130908Y-81142250D01*
X108053057Y-81085688D01*
X108029810Y-81068798D01*
X144932794Y-81068798D01*
X144933760Y-81075109D01*
X144933761Y-81075111D01*
X144961345Y-81255174D01*
X144961346Y-81255179D01*
X144962313Y-81261489D01*
X145030017Y-81444295D01*
X145033396Y-81449716D01*
X145033397Y-81449718D01*
X145113838Y-81578774D01*
X145133133Y-81609729D01*
X145267440Y-81751020D01*
X145427439Y-81862383D01*
X145606581Y-81939259D01*
X145797530Y-81978500D01*
X147040408Y-81978500D01*
X147043608Y-81978500D01*
X147188940Y-81963721D01*
X147374939Y-81905363D01*
X147545384Y-81810759D01*
X147693297Y-81683780D01*
X147812620Y-81529627D01*
X147898471Y-81354609D01*
X147947333Y-81165892D01*
X147952257Y-81068798D01*
X149252794Y-81068798D01*
X149253760Y-81075109D01*
X149253761Y-81075111D01*
X149281345Y-81255174D01*
X149281346Y-81255179D01*
X149282313Y-81261489D01*
X149350017Y-81444295D01*
X149353396Y-81449716D01*
X149353397Y-81449718D01*
X149433838Y-81578774D01*
X149453133Y-81609729D01*
X149587440Y-81751020D01*
X149747439Y-81862383D01*
X149926581Y-81939259D01*
X150117530Y-81978500D01*
X151060408Y-81978500D01*
X151063608Y-81978500D01*
X151208940Y-81963721D01*
X151394939Y-81905363D01*
X151565384Y-81810759D01*
X151713297Y-81683780D01*
X151832620Y-81529627D01*
X151918471Y-81354609D01*
X151967333Y-81165892D01*
X151977206Y-80971202D01*
X151947687Y-80778511D01*
X151879983Y-80595705D01*
X151776867Y-80430271D01*
X151642560Y-80288980D01*
X151482561Y-80177617D01*
X151476689Y-80175097D01*
X151476687Y-80175096D01*
X151309292Y-80103261D01*
X151309289Y-80103260D01*
X151303419Y-80100741D01*
X151297161Y-80099454D01*
X151297158Y-80099454D01*
X151118730Y-80062786D01*
X151118725Y-80062785D01*
X151112470Y-80061500D01*
X150166392Y-80061500D01*
X150163219Y-80061822D01*
X150163212Y-80061823D01*
X150027416Y-80075632D01*
X150027409Y-80075633D01*
X150021060Y-80076279D01*
X150014960Y-80078192D01*
X150014959Y-80078193D01*
X149893498Y-80116302D01*
X149835061Y-80134637D01*
X149829477Y-80137736D01*
X149829473Y-80137738D01*
X149670202Y-80226140D01*
X149670198Y-80226142D01*
X149664616Y-80229241D01*
X149659773Y-80233398D01*
X149659768Y-80233402D01*
X149521545Y-80352062D01*
X149521538Y-80352068D01*
X149516703Y-80356220D01*
X149512798Y-80361264D01*
X149512794Y-80361269D01*
X149444112Y-80450000D01*
X149397380Y-80510373D01*
X149394567Y-80516107D01*
X149394563Y-80516114D01*
X149314342Y-80679654D01*
X149314338Y-80679663D01*
X149311529Y-80685391D01*
X149309928Y-80691572D01*
X149309928Y-80691574D01*
X149276274Y-80821556D01*
X149262667Y-80874108D01*
X149262343Y-80880482D01*
X149262343Y-80880487D01*
X149253117Y-81062417D01*
X149253117Y-81062422D01*
X149252794Y-81068798D01*
X147952257Y-81068798D01*
X147957206Y-80971202D01*
X147927687Y-80778511D01*
X147859983Y-80595705D01*
X147756867Y-80430271D01*
X147622560Y-80288980D01*
X147462561Y-80177617D01*
X147456689Y-80175097D01*
X147456687Y-80175096D01*
X147289292Y-80103261D01*
X147289289Y-80103260D01*
X147283419Y-80100741D01*
X147277161Y-80099454D01*
X147277158Y-80099454D01*
X147098730Y-80062786D01*
X147098725Y-80062785D01*
X147092470Y-80061500D01*
X145846392Y-80061500D01*
X145843219Y-80061822D01*
X145843212Y-80061823D01*
X145707416Y-80075632D01*
X145707409Y-80075633D01*
X145701060Y-80076279D01*
X145694960Y-80078192D01*
X145694959Y-80078193D01*
X145573498Y-80116302D01*
X145515061Y-80134637D01*
X145509477Y-80137736D01*
X145509473Y-80137738D01*
X145350202Y-80226140D01*
X145350198Y-80226142D01*
X145344616Y-80229241D01*
X145339773Y-80233398D01*
X145339768Y-80233402D01*
X145201545Y-80352062D01*
X145201538Y-80352068D01*
X145196703Y-80356220D01*
X145192798Y-80361264D01*
X145192794Y-80361269D01*
X145124112Y-80450000D01*
X145077380Y-80510373D01*
X145074567Y-80516107D01*
X145074563Y-80516114D01*
X144994342Y-80679654D01*
X144994338Y-80679663D01*
X144991529Y-80685391D01*
X144989928Y-80691572D01*
X144989928Y-80691574D01*
X144956274Y-80821556D01*
X144942667Y-80874108D01*
X144942343Y-80880482D01*
X144942343Y-80880487D01*
X144933117Y-81062417D01*
X144933117Y-81062422D01*
X144932794Y-81068798D01*
X108029810Y-81068798D01*
X107981752Y-81033882D01*
X107975722Y-81031197D01*
X107975720Y-81031196D01*
X107950974Y-81020178D01*
X107904303Y-80984365D01*
X107878978Y-80931267D01*
X107880519Y-80872459D01*
X107908587Y-80820765D01*
X107939040Y-80786944D01*
X108034527Y-80621556D01*
X108093542Y-80439928D01*
X108113504Y-80250000D01*
X108093542Y-80060072D01*
X108044293Y-79908500D01*
X108036569Y-79884728D01*
X108036568Y-79884726D01*
X108034527Y-79878444D01*
X107939040Y-79713056D01*
X107811253Y-79571134D01*
X107805911Y-79567253D01*
X107805908Y-79567250D01*
X107721417Y-79505864D01*
X107656752Y-79458882D01*
X107482288Y-79381206D01*
X107475835Y-79379834D01*
X107475831Y-79379833D01*
X107301943Y-79342872D01*
X107301940Y-79342871D01*
X107295487Y-79341500D01*
X107104513Y-79341500D01*
X107098060Y-79342871D01*
X107098056Y-79342872D01*
X106924168Y-79379833D01*
X106924161Y-79379835D01*
X106917712Y-79381206D01*
X106911682Y-79383890D01*
X106911681Y-79383891D01*
X106749278Y-79456197D01*
X106749275Y-79456198D01*
X106743248Y-79458882D01*
X106737907Y-79462762D01*
X106737906Y-79462763D01*
X106594091Y-79567250D01*
X106594083Y-79567256D01*
X106588747Y-79571134D01*
X106584330Y-79576039D01*
X106584325Y-79576044D01*
X106465379Y-79708148D01*
X106460960Y-79713056D01*
X106457661Y-79718769D01*
X106457658Y-79718774D01*
X106372595Y-79866108D01*
X106365473Y-79878444D01*
X106363434Y-79884718D01*
X106363430Y-79884728D01*
X106308497Y-80053794D01*
X106308495Y-80053801D01*
X106306458Y-80060072D01*
X106305768Y-80066633D01*
X106305768Y-80066635D01*
X106301919Y-80103261D01*
X106286496Y-80250000D01*
X100390269Y-80250000D01*
X100352785Y-80134637D01*
X100336569Y-80084728D01*
X100336568Y-80084726D01*
X100334527Y-80078444D01*
X100239040Y-79913056D01*
X100111253Y-79771134D01*
X100105911Y-79767253D01*
X100105908Y-79767250D01*
X100013040Y-79699778D01*
X99956752Y-79658882D01*
X99782288Y-79581206D01*
X99775835Y-79579834D01*
X99775831Y-79579833D01*
X99601943Y-79542872D01*
X99601940Y-79542871D01*
X99595487Y-79541500D01*
X99404513Y-79541500D01*
X99398060Y-79542871D01*
X99398056Y-79542872D01*
X99224168Y-79579833D01*
X99224161Y-79579835D01*
X99217712Y-79581206D01*
X99211682Y-79583890D01*
X99211681Y-79583891D01*
X99049278Y-79656197D01*
X99049275Y-79656198D01*
X99043248Y-79658882D01*
X99037907Y-79662762D01*
X99037906Y-79662763D01*
X98894091Y-79767250D01*
X98894083Y-79767256D01*
X98888747Y-79771134D01*
X98884330Y-79776039D01*
X98884325Y-79776044D01*
X98766298Y-79907127D01*
X98760960Y-79913056D01*
X98757661Y-79918769D01*
X98757658Y-79918774D01*
X98675069Y-80061823D01*
X98665473Y-80078444D01*
X98663434Y-80084718D01*
X98663430Y-80084728D01*
X98608497Y-80253794D01*
X98608495Y-80253801D01*
X98606458Y-80260072D01*
X98605768Y-80266633D01*
X98605768Y-80266635D01*
X98595822Y-80361269D01*
X98586496Y-80450000D01*
X87900500Y-80450000D01*
X87900500Y-79000000D01*
X136136496Y-79000000D01*
X136137186Y-79006565D01*
X136151119Y-79139135D01*
X136156458Y-79189928D01*
X136158495Y-79196200D01*
X136158497Y-79196205D01*
X136213430Y-79365271D01*
X136213433Y-79365278D01*
X136215473Y-79371556D01*
X136310960Y-79536944D01*
X136438747Y-79678866D01*
X136444089Y-79682747D01*
X136444091Y-79682749D01*
X136459654Y-79694056D01*
X136593248Y-79791118D01*
X136767712Y-79868794D01*
X136954513Y-79908500D01*
X137138884Y-79908500D01*
X137145487Y-79908500D01*
X137332288Y-79868794D01*
X137506752Y-79791118D01*
X137661253Y-79678866D01*
X137789040Y-79536944D01*
X137884527Y-79371556D01*
X137900466Y-79322500D01*
X142436496Y-79322500D01*
X142456458Y-79512428D01*
X142458495Y-79518700D01*
X142458497Y-79518705D01*
X142513430Y-79687771D01*
X142513433Y-79687778D01*
X142515473Y-79694056D01*
X142610960Y-79859444D01*
X142738747Y-80001366D01*
X142893248Y-80113618D01*
X143067712Y-80191294D01*
X143254513Y-80231000D01*
X143438884Y-80231000D01*
X143445487Y-80231000D01*
X143632288Y-80191294D01*
X143806752Y-80113618D01*
X143961253Y-80001366D01*
X144089040Y-79859444D01*
X144184527Y-79694056D01*
X144243542Y-79512428D01*
X144263504Y-79322500D01*
X144243542Y-79132572D01*
X144184527Y-78950944D01*
X144089040Y-78785556D01*
X143961253Y-78643634D01*
X143955911Y-78639753D01*
X143955908Y-78639750D01*
X143878057Y-78583188D01*
X143806752Y-78531382D01*
X143632288Y-78453706D01*
X143625835Y-78452334D01*
X143625831Y-78452333D01*
X143451943Y-78415372D01*
X143451940Y-78415371D01*
X143445487Y-78414000D01*
X143254513Y-78414000D01*
X143248060Y-78415371D01*
X143248056Y-78415372D01*
X143074168Y-78452333D01*
X143074161Y-78452335D01*
X143067712Y-78453706D01*
X143061682Y-78456390D01*
X143061681Y-78456391D01*
X142899278Y-78528697D01*
X142899275Y-78528698D01*
X142893248Y-78531382D01*
X142887907Y-78535262D01*
X142887906Y-78535263D01*
X142744091Y-78639750D01*
X142744083Y-78639756D01*
X142738747Y-78643634D01*
X142734330Y-78648539D01*
X142734325Y-78648544D01*
X142615379Y-78780648D01*
X142610960Y-78785556D01*
X142607661Y-78791269D01*
X142607658Y-78791274D01*
X142593016Y-78816635D01*
X142515473Y-78950944D01*
X142513434Y-78957218D01*
X142513430Y-78957228D01*
X142458497Y-79126294D01*
X142458495Y-79126301D01*
X142456458Y-79132572D01*
X142455768Y-79139133D01*
X142455768Y-79139135D01*
X142450430Y-79189928D01*
X142436496Y-79322500D01*
X137900466Y-79322500D01*
X137943542Y-79189928D01*
X137963504Y-79000000D01*
X137943542Y-78810072D01*
X137884527Y-78628444D01*
X137789040Y-78463056D01*
X137661253Y-78321134D01*
X137655911Y-78317253D01*
X137655908Y-78317250D01*
X137578057Y-78260688D01*
X137506752Y-78208882D01*
X137332288Y-78131206D01*
X137325835Y-78129834D01*
X137325831Y-78129833D01*
X137151943Y-78092872D01*
X137151940Y-78092871D01*
X137145487Y-78091500D01*
X136954513Y-78091500D01*
X136948060Y-78092871D01*
X136948056Y-78092872D01*
X136774168Y-78129833D01*
X136774161Y-78129835D01*
X136767712Y-78131206D01*
X136761682Y-78133890D01*
X136761681Y-78133891D01*
X136599278Y-78206197D01*
X136599275Y-78206198D01*
X136593248Y-78208882D01*
X136587907Y-78212762D01*
X136587906Y-78212763D01*
X136444091Y-78317250D01*
X136444083Y-78317256D01*
X136438747Y-78321134D01*
X136434330Y-78326039D01*
X136434325Y-78326044D01*
X136320615Y-78452333D01*
X136310960Y-78463056D01*
X136307661Y-78468769D01*
X136307658Y-78468774D01*
X136269271Y-78535263D01*
X136215473Y-78628444D01*
X136213434Y-78634718D01*
X136213430Y-78634728D01*
X136158497Y-78803794D01*
X136158495Y-78803801D01*
X136156458Y-78810072D01*
X136136496Y-79000000D01*
X87900500Y-79000000D01*
X87900500Y-77184347D01*
X129536496Y-77184347D01*
X129556458Y-77374275D01*
X129558495Y-77380547D01*
X129558497Y-77380552D01*
X129613430Y-77549618D01*
X129613433Y-77549625D01*
X129615473Y-77555903D01*
X129710960Y-77721291D01*
X129838747Y-77863213D01*
X129993248Y-77975465D01*
X130167712Y-78053141D01*
X130354513Y-78092847D01*
X130538884Y-78092847D01*
X130545487Y-78092847D01*
X130732288Y-78053141D01*
X130906752Y-77975465D01*
X131061253Y-77863213D01*
X131189040Y-77721291D01*
X131284527Y-77555903D01*
X131343542Y-77374275D01*
X131359966Y-77218012D01*
X131686496Y-77218012D01*
X131706458Y-77407940D01*
X131708495Y-77414212D01*
X131708497Y-77414217D01*
X131763430Y-77583283D01*
X131763433Y-77583290D01*
X131765473Y-77589568D01*
X131768777Y-77595290D01*
X131844356Y-77726198D01*
X131860960Y-77754956D01*
X131988747Y-77896878D01*
X132143248Y-78009130D01*
X132317712Y-78086806D01*
X132504513Y-78126512D01*
X132688884Y-78126512D01*
X132695487Y-78126512D01*
X132882288Y-78086806D01*
X133056752Y-78009130D01*
X133211253Y-77896878D01*
X133339040Y-77754956D01*
X133434527Y-77589568D01*
X133493542Y-77407940D01*
X133513504Y-77218012D01*
X133493542Y-77028084D01*
X133434527Y-76846456D01*
X133339040Y-76681068D01*
X133211253Y-76539146D01*
X133205911Y-76535265D01*
X133205908Y-76535262D01*
X133128057Y-76478700D01*
X133056752Y-76426894D01*
X132882288Y-76349218D01*
X132875835Y-76347846D01*
X132875831Y-76347845D01*
X132701943Y-76310884D01*
X132701940Y-76310883D01*
X132695487Y-76309512D01*
X132504513Y-76309512D01*
X132498060Y-76310883D01*
X132498056Y-76310884D01*
X132324168Y-76347845D01*
X132324161Y-76347847D01*
X132317712Y-76349218D01*
X132311682Y-76351902D01*
X132311681Y-76351903D01*
X132149278Y-76424209D01*
X132149275Y-76424210D01*
X132143248Y-76426894D01*
X132137907Y-76430774D01*
X132137906Y-76430775D01*
X131994091Y-76535262D01*
X131994083Y-76535268D01*
X131988747Y-76539146D01*
X131984330Y-76544051D01*
X131984325Y-76544056D01*
X131865379Y-76676160D01*
X131860960Y-76681068D01*
X131857661Y-76686781D01*
X131857658Y-76686786D01*
X131781281Y-76819075D01*
X131765473Y-76846456D01*
X131763434Y-76852730D01*
X131763430Y-76852740D01*
X131708497Y-77021806D01*
X131708495Y-77021813D01*
X131706458Y-77028084D01*
X131686496Y-77218012D01*
X131359966Y-77218012D01*
X131363504Y-77184347D01*
X131343542Y-76994419D01*
X131284527Y-76812791D01*
X131189040Y-76647403D01*
X131061253Y-76505481D01*
X131055911Y-76501600D01*
X131055908Y-76501597D01*
X130958429Y-76430775D01*
X130906752Y-76393229D01*
X130732288Y-76315553D01*
X130725835Y-76314181D01*
X130725831Y-76314180D01*
X130551943Y-76277219D01*
X130551940Y-76277218D01*
X130545487Y-76275847D01*
X130354513Y-76275847D01*
X130348060Y-76277218D01*
X130348056Y-76277219D01*
X130174168Y-76314180D01*
X130174161Y-76314182D01*
X130167712Y-76315553D01*
X130161682Y-76318237D01*
X130161681Y-76318238D01*
X129999278Y-76390544D01*
X129999275Y-76390545D01*
X129993248Y-76393229D01*
X129987907Y-76397109D01*
X129987906Y-76397110D01*
X129844091Y-76501597D01*
X129844083Y-76501603D01*
X129838747Y-76505481D01*
X129834330Y-76510386D01*
X129834325Y-76510391D01*
X129715379Y-76642495D01*
X129710960Y-76647403D01*
X129707661Y-76653116D01*
X129707658Y-76653121D01*
X129691523Y-76681068D01*
X129615473Y-76812791D01*
X129613434Y-76819065D01*
X129613430Y-76819075D01*
X129558497Y-76988141D01*
X129558495Y-76988148D01*
X129556458Y-76994419D01*
X129555768Y-77000980D01*
X129555768Y-77000982D01*
X129552920Y-77028084D01*
X129536496Y-77184347D01*
X87900500Y-77184347D01*
X87900500Y-74950000D01*
X134936384Y-74950000D01*
X134956783Y-75131047D01*
X134959118Y-75137720D01*
X134959119Y-75137724D01*
X135014619Y-75296335D01*
X135014621Y-75296339D01*
X135016957Y-75303015D01*
X135113889Y-75457281D01*
X135242719Y-75586111D01*
X135396985Y-75683043D01*
X135568953Y-75743217D01*
X135750000Y-75763616D01*
X135931047Y-75743217D01*
X136103015Y-75683043D01*
X136257281Y-75586111D01*
X136386111Y-75457281D01*
X136483043Y-75303015D01*
X136543217Y-75131047D01*
X136563616Y-74950000D01*
X136543217Y-74768953D01*
X136483043Y-74596985D01*
X136419719Y-74496205D01*
X136389878Y-74448714D01*
X136389877Y-74448713D01*
X136386111Y-74442719D01*
X136257281Y-74313889D01*
X136251287Y-74310123D01*
X136251285Y-74310121D01*
X136235178Y-74300000D01*
X143161496Y-74300000D01*
X143181458Y-74489928D01*
X143183495Y-74496200D01*
X143183497Y-74496205D01*
X143238430Y-74665271D01*
X143238433Y-74665278D01*
X143240473Y-74671556D01*
X143335960Y-74836944D01*
X143463747Y-74978866D01*
X143618248Y-75091118D01*
X143792712Y-75168794D01*
X143979513Y-75208500D01*
X144163884Y-75208500D01*
X144170487Y-75208500D01*
X144357288Y-75168794D01*
X144531752Y-75091118D01*
X144686253Y-74978866D01*
X144814040Y-74836944D01*
X144909527Y-74671556D01*
X144968542Y-74489928D01*
X144988504Y-74300000D01*
X144968542Y-74110072D01*
X144909527Y-73928444D01*
X144814040Y-73763056D01*
X144686253Y-73621134D01*
X144680911Y-73617253D01*
X144680908Y-73617250D01*
X144598155Y-73557127D01*
X144531752Y-73508882D01*
X144357288Y-73431206D01*
X144350835Y-73429834D01*
X144350831Y-73429833D01*
X144176943Y-73392872D01*
X144176940Y-73392871D01*
X144170487Y-73391500D01*
X143979513Y-73391500D01*
X143973060Y-73392871D01*
X143973056Y-73392872D01*
X143799168Y-73429833D01*
X143799161Y-73429835D01*
X143792712Y-73431206D01*
X143786682Y-73433890D01*
X143786681Y-73433891D01*
X143624278Y-73506197D01*
X143624275Y-73506198D01*
X143618248Y-73508882D01*
X143612907Y-73512762D01*
X143612906Y-73512763D01*
X143469091Y-73617250D01*
X143469083Y-73617256D01*
X143463747Y-73621134D01*
X143459330Y-73626039D01*
X143459325Y-73626044D01*
X143340379Y-73758148D01*
X143335960Y-73763056D01*
X143332661Y-73768769D01*
X143332658Y-73768774D01*
X143243777Y-73922721D01*
X143240473Y-73928444D01*
X143238434Y-73934718D01*
X143238430Y-73934728D01*
X143183497Y-74103794D01*
X143183495Y-74103801D01*
X143181458Y-74110072D01*
X143180768Y-74116633D01*
X143180768Y-74116635D01*
X143176303Y-74159119D01*
X143161496Y-74300000D01*
X136235178Y-74300000D01*
X136109006Y-74220721D01*
X136109003Y-74220719D01*
X136103015Y-74216957D01*
X136096339Y-74214621D01*
X136096335Y-74214619D01*
X135937724Y-74159119D01*
X135937720Y-74159118D01*
X135931047Y-74156783D01*
X135750000Y-74136384D01*
X135742971Y-74137176D01*
X135575981Y-74155991D01*
X135575979Y-74155991D01*
X135568953Y-74156783D01*
X135562280Y-74159117D01*
X135562275Y-74159119D01*
X135403664Y-74214619D01*
X135403656Y-74214622D01*
X135396985Y-74216957D01*
X135391000Y-74220717D01*
X135390993Y-74220721D01*
X135248714Y-74310121D01*
X135248707Y-74310126D01*
X135242719Y-74313889D01*
X135237714Y-74318893D01*
X135237710Y-74318897D01*
X135118897Y-74437710D01*
X135118893Y-74437714D01*
X135113889Y-74442719D01*
X135110126Y-74448707D01*
X135110121Y-74448714D01*
X135020721Y-74590993D01*
X135020717Y-74591000D01*
X135016957Y-74596985D01*
X135014622Y-74603656D01*
X135014619Y-74603664D01*
X134959119Y-74762275D01*
X134959117Y-74762280D01*
X134956783Y-74768953D01*
X134936384Y-74950000D01*
X87900500Y-74950000D01*
X87900500Y-72650000D01*
X120586496Y-72650000D01*
X120606458Y-72839928D01*
X120608495Y-72846200D01*
X120608497Y-72846205D01*
X120663430Y-73015271D01*
X120663433Y-73015278D01*
X120665473Y-73021556D01*
X120678304Y-73043780D01*
X120751615Y-73170759D01*
X120760960Y-73186944D01*
X120888747Y-73328866D01*
X120894089Y-73332747D01*
X120894091Y-73332749D01*
X120901561Y-73338176D01*
X121043248Y-73441118D01*
X121217712Y-73518794D01*
X121404513Y-73558500D01*
X121588884Y-73558500D01*
X121595487Y-73558500D01*
X121782288Y-73518794D01*
X121956752Y-73441118D01*
X122111253Y-73328866D01*
X122239040Y-73186944D01*
X122334527Y-73021556D01*
X122393542Y-72839928D01*
X122413504Y-72650000D01*
X122393542Y-72460072D01*
X122334527Y-72278444D01*
X122239040Y-72113056D01*
X122111253Y-71971134D01*
X122105911Y-71967253D01*
X122105908Y-71967250D01*
X122082165Y-71950000D01*
X125336496Y-71950000D01*
X125337186Y-71956565D01*
X125355679Y-72132521D01*
X125356458Y-72139928D01*
X125358495Y-72146200D01*
X125358497Y-72146205D01*
X125413430Y-72315271D01*
X125413433Y-72315278D01*
X125415473Y-72321556D01*
X125424726Y-72337582D01*
X125499234Y-72466635D01*
X125510960Y-72486944D01*
X125638747Y-72628866D01*
X125793248Y-72741118D01*
X125967712Y-72818794D01*
X126154513Y-72858500D01*
X126338884Y-72858500D01*
X126345487Y-72858500D01*
X126532288Y-72818794D01*
X126706752Y-72741118D01*
X126861253Y-72628866D01*
X126989040Y-72486944D01*
X127022611Y-72428798D01*
X144932794Y-72428798D01*
X144933760Y-72435109D01*
X144933761Y-72435111D01*
X144961345Y-72615174D01*
X144961346Y-72615179D01*
X144962313Y-72621489D01*
X145030017Y-72804295D01*
X145033396Y-72809716D01*
X145033397Y-72809718D01*
X145062947Y-72857127D01*
X145133133Y-72969729D01*
X145267440Y-73111020D01*
X145427439Y-73222383D01*
X145606581Y-73299259D01*
X145797530Y-73338500D01*
X147040408Y-73338500D01*
X147043608Y-73338500D01*
X147188940Y-73323721D01*
X147374939Y-73265363D01*
X147545384Y-73170759D01*
X147693297Y-73043780D01*
X147812620Y-72889627D01*
X147898471Y-72714609D01*
X147947333Y-72525892D01*
X147952257Y-72428798D01*
X149252794Y-72428798D01*
X149253760Y-72435109D01*
X149253761Y-72435111D01*
X149281345Y-72615174D01*
X149281346Y-72615179D01*
X149282313Y-72621489D01*
X149350017Y-72804295D01*
X149353396Y-72809716D01*
X149353397Y-72809718D01*
X149382947Y-72857127D01*
X149453133Y-72969729D01*
X149587440Y-73111020D01*
X149747439Y-73222383D01*
X149926581Y-73299259D01*
X150117530Y-73338500D01*
X151060408Y-73338500D01*
X151063608Y-73338500D01*
X151208940Y-73323721D01*
X151394939Y-73265363D01*
X151565384Y-73170759D01*
X151713297Y-73043780D01*
X151832620Y-72889627D01*
X151918471Y-72714609D01*
X151967333Y-72525892D01*
X151977206Y-72331202D01*
X151947687Y-72138511D01*
X151879983Y-71955705D01*
X151776867Y-71790271D01*
X151642560Y-71648980D01*
X151482561Y-71537617D01*
X151476689Y-71535097D01*
X151476687Y-71535096D01*
X151309292Y-71463261D01*
X151309289Y-71463260D01*
X151303419Y-71460741D01*
X151297161Y-71459454D01*
X151297158Y-71459454D01*
X151118730Y-71422786D01*
X151118725Y-71422785D01*
X151112470Y-71421500D01*
X150166392Y-71421500D01*
X150163219Y-71421822D01*
X150163212Y-71421823D01*
X150027416Y-71435632D01*
X150027409Y-71435633D01*
X150021060Y-71436279D01*
X150014960Y-71438192D01*
X150014959Y-71438193D01*
X149841161Y-71492723D01*
X149835061Y-71494637D01*
X149829477Y-71497736D01*
X149829473Y-71497738D01*
X149670202Y-71586140D01*
X149670198Y-71586142D01*
X149664616Y-71589241D01*
X149659773Y-71593398D01*
X149659768Y-71593402D01*
X149521545Y-71712062D01*
X149521538Y-71712068D01*
X149516703Y-71716220D01*
X149512798Y-71721264D01*
X149512794Y-71721269D01*
X149401294Y-71865316D01*
X149397380Y-71870373D01*
X149394567Y-71876107D01*
X149394563Y-71876114D01*
X149314342Y-72039654D01*
X149314338Y-72039663D01*
X149311529Y-72045391D01*
X149309928Y-72051572D01*
X149309928Y-72051574D01*
X149285427Y-72146205D01*
X149262667Y-72234108D01*
X149262343Y-72240482D01*
X149262343Y-72240487D01*
X149253117Y-72422417D01*
X149253117Y-72422422D01*
X149252794Y-72428798D01*
X147952257Y-72428798D01*
X147957206Y-72331202D01*
X147927687Y-72138511D01*
X147859983Y-71955705D01*
X147756867Y-71790271D01*
X147622560Y-71648980D01*
X147462561Y-71537617D01*
X147456689Y-71535097D01*
X147456687Y-71535096D01*
X147289292Y-71463261D01*
X147289289Y-71463260D01*
X147283419Y-71460741D01*
X147277161Y-71459454D01*
X147277158Y-71459454D01*
X147098730Y-71422786D01*
X147098725Y-71422785D01*
X147092470Y-71421500D01*
X145846392Y-71421500D01*
X145843219Y-71421822D01*
X145843212Y-71421823D01*
X145707416Y-71435632D01*
X145707409Y-71435633D01*
X145701060Y-71436279D01*
X145694960Y-71438192D01*
X145694959Y-71438193D01*
X145521161Y-71492723D01*
X145515061Y-71494637D01*
X145509477Y-71497736D01*
X145509473Y-71497738D01*
X145350202Y-71586140D01*
X145350198Y-71586142D01*
X145344616Y-71589241D01*
X145339773Y-71593398D01*
X145339768Y-71593402D01*
X145201545Y-71712062D01*
X145201538Y-71712068D01*
X145196703Y-71716220D01*
X145192798Y-71721264D01*
X145192794Y-71721269D01*
X145081294Y-71865316D01*
X145077380Y-71870373D01*
X145074567Y-71876107D01*
X145074563Y-71876114D01*
X144994342Y-72039654D01*
X144994338Y-72039663D01*
X144991529Y-72045391D01*
X144989928Y-72051572D01*
X144989928Y-72051574D01*
X144965427Y-72146205D01*
X144942667Y-72234108D01*
X144942343Y-72240482D01*
X144942343Y-72240487D01*
X144933117Y-72422417D01*
X144933117Y-72422422D01*
X144932794Y-72428798D01*
X127022611Y-72428798D01*
X127084527Y-72321556D01*
X127143542Y-72139928D01*
X127163504Y-71950000D01*
X127143542Y-71760072D01*
X127118297Y-71682379D01*
X127086569Y-71584728D01*
X127086568Y-71584726D01*
X127084527Y-71578444D01*
X126989040Y-71413056D01*
X126861253Y-71271134D01*
X126855911Y-71267253D01*
X126855908Y-71267250D01*
X126778057Y-71210688D01*
X126706752Y-71158882D01*
X126532288Y-71081206D01*
X126525835Y-71079834D01*
X126525831Y-71079833D01*
X126351943Y-71042872D01*
X126351940Y-71042871D01*
X126345487Y-71041500D01*
X126154513Y-71041500D01*
X126148060Y-71042871D01*
X126148056Y-71042872D01*
X125974168Y-71079833D01*
X125974161Y-71079835D01*
X125967712Y-71081206D01*
X125961682Y-71083890D01*
X125961681Y-71083891D01*
X125799278Y-71156197D01*
X125799275Y-71156198D01*
X125793248Y-71158882D01*
X125787907Y-71162762D01*
X125787906Y-71162763D01*
X125644091Y-71267250D01*
X125644083Y-71267256D01*
X125638747Y-71271134D01*
X125634330Y-71276039D01*
X125634325Y-71276044D01*
X125515379Y-71408148D01*
X125510960Y-71413056D01*
X125507661Y-71418769D01*
X125507658Y-71418774D01*
X125436936Y-71541269D01*
X125415473Y-71578444D01*
X125413434Y-71584718D01*
X125413430Y-71584728D01*
X125358497Y-71753794D01*
X125358495Y-71753801D01*
X125356458Y-71760072D01*
X125355768Y-71766633D01*
X125355768Y-71766635D01*
X125344865Y-71870373D01*
X125336496Y-71950000D01*
X122082165Y-71950000D01*
X122028057Y-71910688D01*
X121956752Y-71858882D01*
X121782288Y-71781206D01*
X121775835Y-71779834D01*
X121775831Y-71779833D01*
X121601943Y-71742872D01*
X121601940Y-71742871D01*
X121595487Y-71741500D01*
X121404513Y-71741500D01*
X121398060Y-71742871D01*
X121398056Y-71742872D01*
X121224168Y-71779833D01*
X121224161Y-71779835D01*
X121217712Y-71781206D01*
X121211682Y-71783890D01*
X121211681Y-71783891D01*
X121049278Y-71856197D01*
X121049275Y-71856198D01*
X121043248Y-71858882D01*
X121037907Y-71862762D01*
X121037906Y-71862763D01*
X120894091Y-71967250D01*
X120894083Y-71967256D01*
X120888747Y-71971134D01*
X120884330Y-71976039D01*
X120884325Y-71976044D01*
X120765379Y-72108148D01*
X120760960Y-72113056D01*
X120757661Y-72118769D01*
X120757658Y-72118774D01*
X120668777Y-72272721D01*
X120665473Y-72278444D01*
X120663434Y-72284718D01*
X120663430Y-72284728D01*
X120608497Y-72453794D01*
X120608495Y-72453801D01*
X120606458Y-72460072D01*
X120605768Y-72466633D01*
X120605768Y-72466635D01*
X120590156Y-72615174D01*
X120586496Y-72650000D01*
X87900500Y-72650000D01*
X87900500Y-70250000D01*
X110336496Y-70250000D01*
X110356458Y-70439928D01*
X110358495Y-70446200D01*
X110358497Y-70446205D01*
X110413430Y-70615271D01*
X110413433Y-70615278D01*
X110415473Y-70621556D01*
X110510960Y-70786944D01*
X110638747Y-70928866D01*
X110793248Y-71041118D01*
X110967712Y-71118794D01*
X111154513Y-71158500D01*
X111338884Y-71158500D01*
X111345487Y-71158500D01*
X111532288Y-71118794D01*
X111706752Y-71041118D01*
X111861253Y-70928866D01*
X111989040Y-70786944D01*
X111992343Y-70781222D01*
X111996224Y-70775882D01*
X111997689Y-70776946D01*
X112036998Y-70737637D01*
X112100000Y-70720755D01*
X112163002Y-70737637D01*
X112202310Y-70776946D01*
X112203776Y-70775882D01*
X112207657Y-70781224D01*
X112210960Y-70786944D01*
X112338747Y-70928866D01*
X112493248Y-71041118D01*
X112667712Y-71118794D01*
X112854513Y-71158500D01*
X113038884Y-71158500D01*
X113045487Y-71158500D01*
X113232288Y-71118794D01*
X113406752Y-71041118D01*
X113561253Y-70928866D01*
X113689040Y-70786944D01*
X113784527Y-70621556D01*
X113843542Y-70439928D01*
X113863504Y-70250000D01*
X113843542Y-70060072D01*
X113784527Y-69878444D01*
X113689040Y-69713056D01*
X113561253Y-69571134D01*
X113555911Y-69567253D01*
X113555908Y-69567250D01*
X113478057Y-69510688D01*
X113406752Y-69458882D01*
X113232288Y-69381206D01*
X113225835Y-69379834D01*
X113225831Y-69379833D01*
X113051943Y-69342872D01*
X113051940Y-69342871D01*
X113045487Y-69341500D01*
X112854513Y-69341500D01*
X112848060Y-69342871D01*
X112848056Y-69342872D01*
X112674168Y-69379833D01*
X112674161Y-69379835D01*
X112667712Y-69381206D01*
X112661682Y-69383890D01*
X112661681Y-69383891D01*
X112499278Y-69456197D01*
X112499275Y-69456198D01*
X112493248Y-69458882D01*
X112487907Y-69462762D01*
X112487906Y-69462763D01*
X112344091Y-69567250D01*
X112344083Y-69567256D01*
X112338747Y-69571134D01*
X112334330Y-69576039D01*
X112334325Y-69576044D01*
X112279491Y-69636944D01*
X112210960Y-69713056D01*
X112207658Y-69718773D01*
X112203776Y-69724118D01*
X112202311Y-69723054D01*
X112162995Y-69762366D01*
X112100000Y-69779244D01*
X112037005Y-69762366D01*
X111997688Y-69723054D01*
X111996224Y-69724118D01*
X111992341Y-69718774D01*
X111989040Y-69713056D01*
X111861253Y-69571134D01*
X111855911Y-69567253D01*
X111855908Y-69567250D01*
X111778057Y-69510688D01*
X111706752Y-69458882D01*
X111532288Y-69381206D01*
X111525835Y-69379834D01*
X111525831Y-69379833D01*
X111351943Y-69342872D01*
X111351940Y-69342871D01*
X111345487Y-69341500D01*
X111154513Y-69341500D01*
X111148060Y-69342871D01*
X111148056Y-69342872D01*
X110974168Y-69379833D01*
X110974161Y-69379835D01*
X110967712Y-69381206D01*
X110961682Y-69383890D01*
X110961681Y-69383891D01*
X110799278Y-69456197D01*
X110799275Y-69456198D01*
X110793248Y-69458882D01*
X110787907Y-69462762D01*
X110787906Y-69462763D01*
X110644091Y-69567250D01*
X110644083Y-69567256D01*
X110638747Y-69571134D01*
X110634330Y-69576039D01*
X110634325Y-69576044D01*
X110579491Y-69636944D01*
X110510960Y-69713056D01*
X110507661Y-69718769D01*
X110507658Y-69718774D01*
X110418777Y-69872721D01*
X110415473Y-69878444D01*
X110413434Y-69884718D01*
X110413430Y-69884728D01*
X110358497Y-70053794D01*
X110358495Y-70053801D01*
X110356458Y-70060072D01*
X110336496Y-70250000D01*
X87900500Y-70250000D01*
X87900500Y-69100000D01*
X98036496Y-69100000D01*
X98056458Y-69289928D01*
X98058495Y-69296200D01*
X98058497Y-69296205D01*
X98113430Y-69465271D01*
X98113433Y-69465278D01*
X98115473Y-69471556D01*
X98210960Y-69636944D01*
X98338747Y-69778866D01*
X98493248Y-69891118D01*
X98667712Y-69968794D01*
X98854513Y-70008500D01*
X99038884Y-70008500D01*
X99045487Y-70008500D01*
X99232288Y-69968794D01*
X99406752Y-69891118D01*
X99561253Y-69778866D01*
X99689040Y-69636944D01*
X99784527Y-69471556D01*
X99843542Y-69289928D01*
X99863504Y-69100000D01*
X99843542Y-68910072D01*
X99784527Y-68728444D01*
X99689040Y-68563056D01*
X99561253Y-68421134D01*
X99555911Y-68417253D01*
X99555908Y-68417250D01*
X99478057Y-68360688D01*
X99406752Y-68308882D01*
X99232288Y-68231206D01*
X99225835Y-68229834D01*
X99225831Y-68229833D01*
X99051943Y-68192872D01*
X99051940Y-68192871D01*
X99045487Y-68191500D01*
X98854513Y-68191500D01*
X98848060Y-68192871D01*
X98848056Y-68192872D01*
X98674168Y-68229833D01*
X98674161Y-68229835D01*
X98667712Y-68231206D01*
X98661682Y-68233890D01*
X98661681Y-68233891D01*
X98499278Y-68306197D01*
X98499275Y-68306198D01*
X98493248Y-68308882D01*
X98487907Y-68312762D01*
X98487906Y-68312763D01*
X98344091Y-68417250D01*
X98344083Y-68417256D01*
X98338747Y-68421134D01*
X98334330Y-68426039D01*
X98334325Y-68426044D01*
X98215379Y-68558148D01*
X98210960Y-68563056D01*
X98207661Y-68568769D01*
X98207658Y-68568774D01*
X98118777Y-68722721D01*
X98115473Y-68728444D01*
X98113434Y-68734718D01*
X98113430Y-68734728D01*
X98058497Y-68903794D01*
X98058495Y-68903801D01*
X98056458Y-68910072D01*
X98036496Y-69100000D01*
X87900500Y-69100000D01*
X87900500Y-65699901D01*
X87900500Y-65699500D01*
X87900099Y-65699500D01*
X87900000Y-65699459D01*
X87899910Y-65699496D01*
X87884540Y-65698824D01*
X87884536Y-65698824D01*
X87469762Y-65680715D01*
X87458811Y-65679757D01*
X87114158Y-65634381D01*
X87113851Y-65634340D01*
X87034780Y-65623732D01*
X87024262Y-65621864D01*
X86733661Y-65557439D01*
X86733157Y-65557326D01*
X86604980Y-65528357D01*
X86594867Y-65525625D01*
X86332060Y-65442762D01*
X86331368Y-65442542D01*
X86185250Y-65395543D01*
X86175613Y-65392004D01*
X86012065Y-65324261D01*
X85932128Y-65291150D01*
X85931568Y-65290915D01*
X85778844Y-65226325D01*
X85769747Y-65222042D01*
X85543012Y-65104011D01*
X85542002Y-65103480D01*
X85388929Y-65022025D01*
X85380419Y-65017060D01*
X85169313Y-64882570D01*
X85168180Y-64881840D01*
X85018495Y-64784213D01*
X85010624Y-64778638D01*
X84815133Y-64628632D01*
X84813945Y-64627710D01*
X84670449Y-64514759D01*
X84663260Y-64508650D01*
X84483689Y-64344104D01*
X84482397Y-64342903D01*
X84347470Y-64215745D01*
X84341000Y-64209185D01*
X84177950Y-64031248D01*
X84176715Y-64029878D01*
X84168533Y-64020664D01*
X84052039Y-63889470D01*
X84046307Y-63882531D01*
X83900537Y-63692558D01*
X83899286Y-63690898D01*
X83889697Y-63677944D01*
X83830994Y-63598638D01*
X114491500Y-63598638D01*
X114491859Y-63601985D01*
X114491860Y-63601988D01*
X114497168Y-63651367D01*
X114497169Y-63651373D01*
X114498011Y-63659201D01*
X114500762Y-63666578D01*
X114500763Y-63666580D01*
X114545962Y-63787763D01*
X114545964Y-63787766D01*
X114549111Y-63796204D01*
X114554508Y-63803414D01*
X114554510Y-63803417D01*
X114580389Y-63837987D01*
X114636739Y-63913261D01*
X114643950Y-63918659D01*
X114679671Y-63945400D01*
X114753796Y-64000889D01*
X114890799Y-64051989D01*
X114951362Y-64058500D01*
X116745269Y-64058500D01*
X116748638Y-64058500D01*
X116809201Y-64051989D01*
X116946204Y-64000889D01*
X117063261Y-63913261D01*
X117150889Y-63796204D01*
X117194998Y-63677943D01*
X117231530Y-63625904D01*
X117288820Y-63598328D01*
X117352282Y-63602238D01*
X117405755Y-63636638D01*
X117426526Y-63659201D01*
X117466760Y-63702906D01*
X117644424Y-63841189D01*
X117842426Y-63948342D01*
X117847355Y-63950034D01*
X117847357Y-63950035D01*
X117948895Y-63984893D01*
X118055365Y-64021444D01*
X118277431Y-64058500D01*
X118497358Y-64058500D01*
X118502569Y-64058500D01*
X118724635Y-64021444D01*
X118937574Y-63948342D01*
X119135576Y-63841189D01*
X119313240Y-63702906D01*
X119465722Y-63537268D01*
X119554518Y-63401354D01*
X119600030Y-63359457D01*
X119660000Y-63344271D01*
X119719970Y-63359457D01*
X119765481Y-63401354D01*
X119854278Y-63537268D01*
X119857806Y-63541100D01*
X120003227Y-63699069D01*
X120003231Y-63699073D01*
X120006760Y-63702906D01*
X120184424Y-63841189D01*
X120382426Y-63948342D01*
X120387355Y-63950034D01*
X120387357Y-63950035D01*
X120488895Y-63984893D01*
X120595365Y-64021444D01*
X120817431Y-64058500D01*
X121037358Y-64058500D01*
X121042569Y-64058500D01*
X121264635Y-64021444D01*
X121477574Y-63948342D01*
X121675576Y-63841189D01*
X121853240Y-63702906D01*
X122005722Y-63537268D01*
X122094817Y-63400896D01*
X122140328Y-63359001D01*
X122200297Y-63343814D01*
X122260267Y-63359000D01*
X122305781Y-63400898D01*
X122391822Y-63532592D01*
X122398210Y-63540799D01*
X122543567Y-63698700D01*
X122551211Y-63705737D01*
X122720588Y-63837568D01*
X122729281Y-63843247D01*
X122918042Y-63945400D01*
X122927559Y-63949575D01*
X123130557Y-64019264D01*
X123140627Y-64021814D01*
X123202461Y-64032132D01*
X123213598Y-64031556D01*
X123216000Y-64020664D01*
X123724000Y-64020664D01*
X123726401Y-64031556D01*
X123737538Y-64032132D01*
X123799372Y-64021814D01*
X123809442Y-64019264D01*
X124012440Y-63949575D01*
X124021957Y-63945400D01*
X124210718Y-63843247D01*
X124219411Y-63837568D01*
X124388788Y-63705737D01*
X124396432Y-63698700D01*
X124488545Y-63598638D01*
X125811500Y-63598638D01*
X125811859Y-63601985D01*
X125811860Y-63601988D01*
X125817168Y-63651367D01*
X125817169Y-63651373D01*
X125818011Y-63659201D01*
X125820762Y-63666578D01*
X125820763Y-63666580D01*
X125865962Y-63787763D01*
X125865964Y-63787766D01*
X125869111Y-63796204D01*
X125874508Y-63803414D01*
X125874510Y-63803417D01*
X125900389Y-63837987D01*
X125956739Y-63913261D01*
X125963950Y-63918659D01*
X125999671Y-63945400D01*
X126073796Y-64000889D01*
X126210799Y-64051989D01*
X126271362Y-64058500D01*
X128065269Y-64058500D01*
X128068638Y-64058500D01*
X128129201Y-64051989D01*
X128266204Y-64000889D01*
X128383261Y-63913261D01*
X128470889Y-63796204D01*
X128514998Y-63677943D01*
X128551530Y-63625904D01*
X128608820Y-63598328D01*
X128672282Y-63602238D01*
X128725755Y-63636638D01*
X128746526Y-63659201D01*
X128786760Y-63702906D01*
X128964424Y-63841189D01*
X129162426Y-63948342D01*
X129167355Y-63950034D01*
X129167357Y-63950035D01*
X129268895Y-63984893D01*
X129375365Y-64021444D01*
X129597431Y-64058500D01*
X129817358Y-64058500D01*
X129822569Y-64058500D01*
X130044635Y-64021444D01*
X130257574Y-63948342D01*
X130455576Y-63841189D01*
X130633240Y-63702906D01*
X130785722Y-63537268D01*
X130874518Y-63401354D01*
X130920030Y-63359457D01*
X130980000Y-63344271D01*
X131039970Y-63359457D01*
X131085481Y-63401354D01*
X131174278Y-63537268D01*
X131177806Y-63541100D01*
X131323227Y-63699069D01*
X131323231Y-63699073D01*
X131326760Y-63702906D01*
X131504424Y-63841189D01*
X131702426Y-63948342D01*
X131707355Y-63950034D01*
X131707357Y-63950035D01*
X131808895Y-63984893D01*
X131915365Y-64021444D01*
X132137431Y-64058500D01*
X132357358Y-64058500D01*
X132362569Y-64058500D01*
X132584635Y-64021444D01*
X132797574Y-63948342D01*
X132995576Y-63841189D01*
X133173240Y-63702906D01*
X133325722Y-63537268D01*
X133414817Y-63400896D01*
X133460328Y-63359001D01*
X133520297Y-63343814D01*
X133580267Y-63359000D01*
X133625781Y-63400898D01*
X133711822Y-63532592D01*
X133718210Y-63540799D01*
X133863567Y-63698700D01*
X133871211Y-63705737D01*
X134040588Y-63837568D01*
X134049281Y-63843247D01*
X134238042Y-63945400D01*
X134247559Y-63949575D01*
X134450557Y-64019264D01*
X134460627Y-64021814D01*
X134522461Y-64032132D01*
X134533598Y-64031556D01*
X134536000Y-64020664D01*
X135044000Y-64020664D01*
X135046401Y-64031556D01*
X135057538Y-64032132D01*
X135119372Y-64021814D01*
X135129442Y-64019264D01*
X135332440Y-63949575D01*
X135341957Y-63945400D01*
X135530718Y-63843247D01*
X135539411Y-63837568D01*
X135708788Y-63705737D01*
X135716432Y-63698700D01*
X135861789Y-63540799D01*
X135868177Y-63532593D01*
X135985568Y-63352913D01*
X135990511Y-63343778D01*
X136076729Y-63147223D01*
X136080099Y-63137408D01*
X136123013Y-62967943D01*
X136123248Y-62956565D01*
X136112160Y-62954000D01*
X135060590Y-62954000D01*
X135047506Y-62957506D01*
X135044000Y-62970590D01*
X135044000Y-64020664D01*
X134536000Y-64020664D01*
X134536000Y-62429410D01*
X135044000Y-62429410D01*
X135047506Y-62442493D01*
X135060590Y-62446000D01*
X136112160Y-62446000D01*
X136123248Y-62443434D01*
X136123013Y-62432056D01*
X136080099Y-62262591D01*
X136076729Y-62252776D01*
X135990511Y-62056221D01*
X135985568Y-62047086D01*
X135868177Y-61867406D01*
X135861789Y-61859200D01*
X135716432Y-61701299D01*
X135708788Y-61694262D01*
X135539411Y-61562431D01*
X135530718Y-61556752D01*
X135341957Y-61454599D01*
X135332440Y-61450424D01*
X135129442Y-61380735D01*
X135119372Y-61378185D01*
X135057538Y-61367867D01*
X135046401Y-61368443D01*
X135044000Y-61379336D01*
X135044000Y-62429410D01*
X134536000Y-62429410D01*
X134536000Y-61379336D01*
X134533598Y-61368443D01*
X134522461Y-61367867D01*
X134460627Y-61378185D01*
X134450557Y-61380735D01*
X134247559Y-61450424D01*
X134238042Y-61454599D01*
X134049281Y-61556752D01*
X134040588Y-61562431D01*
X133871211Y-61694262D01*
X133863567Y-61701299D01*
X133718210Y-61859200D01*
X133711816Y-61867415D01*
X133625780Y-61999101D01*
X133580267Y-62040999D01*
X133520297Y-62056185D01*
X133460328Y-62040998D01*
X133414816Y-61999101D01*
X133325722Y-61862732D01*
X133250492Y-61781011D01*
X133176772Y-61700930D01*
X133176767Y-61700925D01*
X133173240Y-61697094D01*
X132995576Y-61558811D01*
X132990997Y-61556333D01*
X132990994Y-61556331D01*
X132802159Y-61454139D01*
X132802156Y-61454137D01*
X132797574Y-61451658D01*
X132792650Y-61449967D01*
X132792642Y-61449964D01*
X132589565Y-61380248D01*
X132589559Y-61380246D01*
X132584635Y-61378556D01*
X132579498Y-61377698D01*
X132579495Y-61377698D01*
X132367706Y-61342357D01*
X132367703Y-61342356D01*
X132362569Y-61341500D01*
X132137431Y-61341500D01*
X132132297Y-61342356D01*
X132132293Y-61342357D01*
X131920504Y-61377698D01*
X131920498Y-61377699D01*
X131915365Y-61378556D01*
X131910443Y-61380245D01*
X131910434Y-61380248D01*
X131707357Y-61449964D01*
X131707344Y-61449969D01*
X131702426Y-61451658D01*
X131697847Y-61454135D01*
X131697840Y-61454139D01*
X131509005Y-61556331D01*
X131508997Y-61556336D01*
X131504424Y-61558811D01*
X131500313Y-61562010D01*
X131500311Y-61562012D01*
X131330878Y-61693888D01*
X131330872Y-61693893D01*
X131326760Y-61697094D01*
X131323237Y-61700919D01*
X131323227Y-61700930D01*
X131177806Y-61858899D01*
X131177802Y-61858902D01*
X131174278Y-61862732D01*
X131171430Y-61867090D01*
X131171427Y-61867095D01*
X131085483Y-61998643D01*
X131039969Y-62040542D01*
X130980000Y-62055728D01*
X130920031Y-62040542D01*
X130874517Y-61998643D01*
X130839087Y-61944413D01*
X130785722Y-61862732D01*
X130710492Y-61781011D01*
X130636772Y-61700930D01*
X130636767Y-61700925D01*
X130633240Y-61697094D01*
X130455576Y-61558811D01*
X130450997Y-61556333D01*
X130450994Y-61556331D01*
X130262159Y-61454139D01*
X130262156Y-61454137D01*
X130257574Y-61451658D01*
X130252650Y-61449967D01*
X130252642Y-61449964D01*
X130049565Y-61380248D01*
X130049559Y-61380246D01*
X130044635Y-61378556D01*
X130039498Y-61377698D01*
X130039495Y-61377698D01*
X129827706Y-61342357D01*
X129827703Y-61342356D01*
X129822569Y-61341500D01*
X129597431Y-61341500D01*
X129592297Y-61342356D01*
X129592293Y-61342357D01*
X129380504Y-61377698D01*
X129380498Y-61377699D01*
X129375365Y-61378556D01*
X129370443Y-61380245D01*
X129370434Y-61380248D01*
X129167357Y-61449964D01*
X129167344Y-61449969D01*
X129162426Y-61451658D01*
X129157847Y-61454135D01*
X129157840Y-61454139D01*
X128969005Y-61556331D01*
X128968997Y-61556336D01*
X128964424Y-61558811D01*
X128960313Y-61562010D01*
X128960311Y-61562012D01*
X128790878Y-61693888D01*
X128790872Y-61693893D01*
X128786760Y-61697094D01*
X128783237Y-61700920D01*
X128783226Y-61700931D01*
X128725754Y-61763362D01*
X128672281Y-61797761D01*
X128608820Y-61801671D01*
X128551530Y-61774095D01*
X128514998Y-61722056D01*
X128474037Y-61612236D01*
X128474036Y-61612235D01*
X128470889Y-61603796D01*
X128439923Y-61562431D01*
X128388659Y-61493950D01*
X128383261Y-61486739D01*
X128376049Y-61481340D01*
X128273417Y-61404510D01*
X128273414Y-61404508D01*
X128266204Y-61399111D01*
X128257766Y-61395964D01*
X128257763Y-61395962D01*
X128136580Y-61350763D01*
X128136578Y-61350762D01*
X128129201Y-61348011D01*
X128121373Y-61347169D01*
X128121367Y-61347168D01*
X128071988Y-61341860D01*
X128071985Y-61341859D01*
X128068638Y-61341500D01*
X126271362Y-61341500D01*
X126268015Y-61341859D01*
X126268011Y-61341860D01*
X126218632Y-61347168D01*
X126218625Y-61347169D01*
X126210799Y-61348011D01*
X126203423Y-61350761D01*
X126203419Y-61350763D01*
X126082236Y-61395962D01*
X126082230Y-61395965D01*
X126073796Y-61399111D01*
X126066588Y-61404506D01*
X126066582Y-61404510D01*
X125963950Y-61481340D01*
X125963946Y-61481343D01*
X125956739Y-61486739D01*
X125951343Y-61493946D01*
X125951340Y-61493950D01*
X125874510Y-61596582D01*
X125874506Y-61596588D01*
X125869111Y-61603796D01*
X125865965Y-61612230D01*
X125865962Y-61612236D01*
X125820763Y-61733419D01*
X125820761Y-61733423D01*
X125818011Y-61740799D01*
X125817169Y-61748625D01*
X125817168Y-61748632D01*
X125812945Y-61787921D01*
X125811500Y-61801362D01*
X125811500Y-63598638D01*
X124488545Y-63598638D01*
X124541789Y-63540799D01*
X124548177Y-63532593D01*
X124665568Y-63352913D01*
X124670511Y-63343778D01*
X124756729Y-63147223D01*
X124760099Y-63137408D01*
X124803013Y-62967943D01*
X124803248Y-62956565D01*
X124792160Y-62954000D01*
X123740590Y-62954000D01*
X123727506Y-62957506D01*
X123724000Y-62970590D01*
X123724000Y-64020664D01*
X123216000Y-64020664D01*
X123216000Y-62429410D01*
X123724000Y-62429410D01*
X123727506Y-62442493D01*
X123740590Y-62446000D01*
X124792160Y-62446000D01*
X124803248Y-62443434D01*
X124803013Y-62432056D01*
X124760099Y-62262591D01*
X124756729Y-62252776D01*
X124670511Y-62056221D01*
X124665568Y-62047086D01*
X124548177Y-61867406D01*
X124541789Y-61859200D01*
X124396432Y-61701299D01*
X124388788Y-61694262D01*
X124219411Y-61562431D01*
X124210718Y-61556752D01*
X124021957Y-61454599D01*
X124012440Y-61450424D01*
X123809442Y-61380735D01*
X123799372Y-61378185D01*
X123737538Y-61367867D01*
X123726401Y-61368443D01*
X123724000Y-61379336D01*
X123724000Y-62429410D01*
X123216000Y-62429410D01*
X123216000Y-61379336D01*
X123213598Y-61368443D01*
X123202461Y-61367867D01*
X123140627Y-61378185D01*
X123130557Y-61380735D01*
X122927559Y-61450424D01*
X122918042Y-61454599D01*
X122729281Y-61556752D01*
X122720588Y-61562431D01*
X122551211Y-61694262D01*
X122543567Y-61701299D01*
X122398210Y-61859200D01*
X122391816Y-61867415D01*
X122305780Y-61999101D01*
X122260267Y-62040999D01*
X122200297Y-62056185D01*
X122140328Y-62040998D01*
X122094816Y-61999101D01*
X122005722Y-61862732D01*
X121930492Y-61781011D01*
X121856772Y-61700930D01*
X121856767Y-61700925D01*
X121853240Y-61697094D01*
X121675576Y-61558811D01*
X121670997Y-61556333D01*
X121670994Y-61556331D01*
X121482159Y-61454139D01*
X121482156Y-61454137D01*
X121477574Y-61451658D01*
X121472650Y-61449967D01*
X121472642Y-61449964D01*
X121269565Y-61380248D01*
X121269559Y-61380246D01*
X121264635Y-61378556D01*
X121259498Y-61377698D01*
X121259495Y-61377698D01*
X121047706Y-61342357D01*
X121047703Y-61342356D01*
X121042569Y-61341500D01*
X120817431Y-61341500D01*
X120812297Y-61342356D01*
X120812293Y-61342357D01*
X120600504Y-61377698D01*
X120600498Y-61377699D01*
X120595365Y-61378556D01*
X120590443Y-61380245D01*
X120590434Y-61380248D01*
X120387357Y-61449964D01*
X120387344Y-61449969D01*
X120382426Y-61451658D01*
X120377847Y-61454135D01*
X120377840Y-61454139D01*
X120189005Y-61556331D01*
X120188997Y-61556336D01*
X120184424Y-61558811D01*
X120180313Y-61562010D01*
X120180311Y-61562012D01*
X120010878Y-61693888D01*
X120010872Y-61693893D01*
X120006760Y-61697094D01*
X120003237Y-61700919D01*
X120003227Y-61700930D01*
X119857806Y-61858899D01*
X119857802Y-61858902D01*
X119854278Y-61862732D01*
X119851430Y-61867090D01*
X119851427Y-61867095D01*
X119765483Y-61998643D01*
X119719969Y-62040542D01*
X119660000Y-62055728D01*
X119600031Y-62040542D01*
X119554517Y-61998643D01*
X119519087Y-61944413D01*
X119465722Y-61862732D01*
X119390492Y-61781011D01*
X119316772Y-61700930D01*
X119316767Y-61700925D01*
X119313240Y-61697094D01*
X119135576Y-61558811D01*
X119130997Y-61556333D01*
X119130994Y-61556331D01*
X118942159Y-61454139D01*
X118942156Y-61454137D01*
X118937574Y-61451658D01*
X118932650Y-61449967D01*
X118932642Y-61449964D01*
X118729565Y-61380248D01*
X118729559Y-61380246D01*
X118724635Y-61378556D01*
X118719498Y-61377698D01*
X118719495Y-61377698D01*
X118507706Y-61342357D01*
X118507703Y-61342356D01*
X118502569Y-61341500D01*
X118277431Y-61341500D01*
X118272297Y-61342356D01*
X118272293Y-61342357D01*
X118060504Y-61377698D01*
X118060498Y-61377699D01*
X118055365Y-61378556D01*
X118050443Y-61380245D01*
X118050434Y-61380248D01*
X117847357Y-61449964D01*
X117847344Y-61449969D01*
X117842426Y-61451658D01*
X117837847Y-61454135D01*
X117837840Y-61454139D01*
X117649005Y-61556331D01*
X117648997Y-61556336D01*
X117644424Y-61558811D01*
X117640313Y-61562010D01*
X117640311Y-61562012D01*
X117470878Y-61693888D01*
X117470872Y-61693893D01*
X117466760Y-61697094D01*
X117463237Y-61700920D01*
X117463226Y-61700931D01*
X117405754Y-61763362D01*
X117352281Y-61797761D01*
X117288820Y-61801671D01*
X117231530Y-61774095D01*
X117194998Y-61722056D01*
X117154037Y-61612236D01*
X117154036Y-61612235D01*
X117150889Y-61603796D01*
X117119923Y-61562431D01*
X117068659Y-61493950D01*
X117063261Y-61486739D01*
X117056049Y-61481340D01*
X116953417Y-61404510D01*
X116953414Y-61404508D01*
X116946204Y-61399111D01*
X116937766Y-61395964D01*
X116937763Y-61395962D01*
X116816580Y-61350763D01*
X116816578Y-61350762D01*
X116809201Y-61348011D01*
X116801373Y-61347169D01*
X116801367Y-61347168D01*
X116751988Y-61341860D01*
X116751985Y-61341859D01*
X116748638Y-61341500D01*
X114951362Y-61341500D01*
X114948015Y-61341859D01*
X114948011Y-61341860D01*
X114898632Y-61347168D01*
X114898625Y-61347169D01*
X114890799Y-61348011D01*
X114883423Y-61350761D01*
X114883419Y-61350763D01*
X114762236Y-61395962D01*
X114762230Y-61395965D01*
X114753796Y-61399111D01*
X114746588Y-61404506D01*
X114746582Y-61404510D01*
X114643950Y-61481340D01*
X114643946Y-61481343D01*
X114636739Y-61486739D01*
X114631343Y-61493946D01*
X114631340Y-61493950D01*
X114554510Y-61596582D01*
X114554506Y-61596588D01*
X114549111Y-61603796D01*
X114545965Y-61612230D01*
X114545962Y-61612236D01*
X114500763Y-61733419D01*
X114500761Y-61733423D01*
X114498011Y-61740799D01*
X114497169Y-61748625D01*
X114497168Y-61748632D01*
X114492945Y-61787921D01*
X114491500Y-61801362D01*
X114491500Y-63598638D01*
X83830994Y-63598638D01*
X83786473Y-63538492D01*
X83781496Y-63531252D01*
X83653644Y-63330565D01*
X83652440Y-63328634D01*
X83598873Y-63240931D01*
X83552838Y-63165556D01*
X83548605Y-63158062D01*
X83472139Y-63011174D01*
X83439287Y-62948066D01*
X83438204Y-62945932D01*
X83352895Y-62773478D01*
X83349442Y-62765871D01*
X83259261Y-62548155D01*
X83258231Y-62545587D01*
X83219551Y-62446000D01*
X83188235Y-62365372D01*
X83185535Y-62357690D01*
X83114920Y-62133728D01*
X83114098Y-62131007D01*
X83060118Y-61944382D01*
X83058159Y-61936702D01*
X83007485Y-61708127D01*
X83006862Y-61705139D01*
X82969536Y-61513786D01*
X82968294Y-61506178D01*
X82937809Y-61274622D01*
X82937436Y-61271460D01*
X82917179Y-61076877D01*
X82916629Y-61069416D01*
X82906469Y-60836731D01*
X82906364Y-60833106D01*
X82904391Y-60700000D01*
X85894390Y-60700000D01*
X85914804Y-60985428D01*
X85915757Y-60989812D01*
X85915759Y-60989821D01*
X85933064Y-61069370D01*
X85975631Y-61265046D01*
X86075633Y-61533161D01*
X86212774Y-61784315D01*
X86215470Y-61787917D01*
X86215473Y-61787921D01*
X86332622Y-61944413D01*
X86384261Y-62013395D01*
X86586605Y-62215739D01*
X86815685Y-62387226D01*
X87066839Y-62524367D01*
X87334954Y-62624369D01*
X87614572Y-62685196D01*
X87900000Y-62705610D01*
X88185428Y-62685196D01*
X88465046Y-62624369D01*
X88733161Y-62524367D01*
X88984315Y-62387226D01*
X89213395Y-62215739D01*
X89415739Y-62013395D01*
X89587226Y-61784315D01*
X89724367Y-61533161D01*
X89824369Y-61265046D01*
X89885196Y-60985428D01*
X89905610Y-60700000D01*
X89885196Y-60414572D01*
X89824369Y-60134954D01*
X89724367Y-59866839D01*
X89587226Y-59615685D01*
X89415739Y-59386605D01*
X89213395Y-59184261D01*
X89143663Y-59132060D01*
X88987921Y-59015473D01*
X88987917Y-59015470D01*
X88984315Y-59012774D01*
X88733161Y-58875633D01*
X88489007Y-58784568D01*
X88469253Y-58777200D01*
X88469251Y-58777199D01*
X88465046Y-58775631D01*
X88460660Y-58774676D01*
X88460657Y-58774676D01*
X88189821Y-58715759D01*
X88189812Y-58715757D01*
X88185428Y-58714804D01*
X87900000Y-58694390D01*
X87895512Y-58694711D01*
X87619059Y-58714483D01*
X87619057Y-58714483D01*
X87614572Y-58714804D01*
X87610189Y-58715757D01*
X87610178Y-58715759D01*
X87339342Y-58774676D01*
X87339336Y-58774677D01*
X87334954Y-58775631D01*
X87330752Y-58777198D01*
X87330746Y-58777200D01*
X87071045Y-58874064D01*
X87071042Y-58874065D01*
X87066839Y-58875633D01*
X87062895Y-58877786D01*
X87062894Y-58877787D01*
X86819638Y-59010615D01*
X86819632Y-59010618D01*
X86815685Y-59012774D01*
X86812088Y-59015465D01*
X86812078Y-59015473D01*
X86590208Y-59181563D01*
X86590200Y-59181569D01*
X86586605Y-59184261D01*
X86583426Y-59187439D01*
X86583419Y-59187446D01*
X86387446Y-59383419D01*
X86387439Y-59383426D01*
X86384261Y-59386605D01*
X86381569Y-59390200D01*
X86381563Y-59390208D01*
X86215473Y-59612078D01*
X86215465Y-59612088D01*
X86212774Y-59615685D01*
X86210618Y-59619632D01*
X86210615Y-59619638D01*
X86098882Y-59824262D01*
X86075633Y-59866839D01*
X86074065Y-59871042D01*
X86074064Y-59871045D01*
X85977200Y-60130746D01*
X85977198Y-60130752D01*
X85975631Y-60134954D01*
X85974677Y-60139336D01*
X85974676Y-60139342D01*
X85915759Y-60410178D01*
X85915757Y-60410189D01*
X85914804Y-60414572D01*
X85894390Y-60700000D01*
X82904391Y-60700000D01*
X82903459Y-60637100D01*
X82903564Y-60629814D01*
X82913708Y-60397488D01*
X82913921Y-60393875D01*
X82928474Y-60197823D01*
X82929195Y-60190809D01*
X82959490Y-59960697D01*
X82960071Y-59956770D01*
X82992027Y-59762467D01*
X82993326Y-59755736D01*
X83043501Y-59529414D01*
X83044439Y-59525494D01*
X83093615Y-59334435D01*
X83095451Y-59328021D01*
X83165058Y-59107255D01*
X83166468Y-59103046D01*
X83232459Y-58916984D01*
X83234748Y-58911025D01*
X83323285Y-58697276D01*
X83325128Y-58693054D01*
X83407464Y-58513404D01*
X83410207Y-58507796D01*
X83516933Y-58302778D01*
X83519188Y-58298641D01*
X83617269Y-58126805D01*
X83620393Y-58121627D01*
X83744531Y-57926771D01*
X83747261Y-57922670D01*
X83860277Y-57760130D01*
X83863684Y-57755468D01*
X84004270Y-57572252D01*
X84007525Y-57568189D01*
X84134550Y-57416300D01*
X84138197Y-57412134D01*
X84294254Y-57241828D01*
X84297966Y-57237952D01*
X84437952Y-57097966D01*
X84441828Y-57094254D01*
X84612134Y-56938197D01*
X84616300Y-56934550D01*
X84768189Y-56807525D01*
X84772252Y-56804270D01*
X84955468Y-56663684D01*
X84960130Y-56660277D01*
X85122670Y-56547261D01*
X85126771Y-56544531D01*
X85321627Y-56420393D01*
X85326805Y-56417269D01*
X85498641Y-56319188D01*
X85502778Y-56316933D01*
X85707796Y-56210207D01*
X85713404Y-56207464D01*
X85893069Y-56125121D01*
X85897276Y-56123285D01*
X86111025Y-56034748D01*
X86116984Y-56032459D01*
X86303067Y-55966460D01*
X86307254Y-55965058D01*
X86528021Y-55895451D01*
X86534435Y-55893615D01*
X86725494Y-55844439D01*
X86729414Y-55843501D01*
X86955736Y-55793326D01*
X86962467Y-55792027D01*
X87156770Y-55760071D01*
X87160697Y-55759490D01*
X87390809Y-55729195D01*
X87397823Y-55728474D01*
X87593875Y-55713921D01*
X87597488Y-55713708D01*
X87829814Y-55703564D01*
X87837100Y-55703459D01*
X88033113Y-55706364D01*
X88036731Y-55706469D01*
X88269416Y-55716629D01*
X88276877Y-55717179D01*
X88471460Y-55737436D01*
X88474622Y-55737809D01*
X88706178Y-55768294D01*
X88713786Y-55769536D01*
X88905139Y-55806862D01*
X88908127Y-55807485D01*
X89136702Y-55858159D01*
X89144382Y-55860118D01*
X89331007Y-55914098D01*
X89333728Y-55914920D01*
X89557690Y-55985535D01*
X89565372Y-55988235D01*
X89745618Y-56058243D01*
X89748155Y-56059261D01*
X89965871Y-56149442D01*
X89973478Y-56152895D01*
X90145932Y-56238204D01*
X90148066Y-56239287D01*
X90290673Y-56313524D01*
X90358062Y-56348605D01*
X90365556Y-56352838D01*
X90440931Y-56398873D01*
X90528634Y-56452440D01*
X90530565Y-56453644D01*
X90731252Y-56581496D01*
X90738492Y-56586473D01*
X90890898Y-56699286D01*
X90892558Y-56700537D01*
X91082531Y-56846308D01*
X91089471Y-56852039D01*
X91229913Y-56976746D01*
X91231245Y-56977947D01*
X91409185Y-57141000D01*
X91415745Y-57147470D01*
X91542903Y-57282397D01*
X91544104Y-57283689D01*
X91708650Y-57463260D01*
X91714761Y-57470451D01*
X91827678Y-57613904D01*
X91828632Y-57615133D01*
X91978638Y-57810624D01*
X91984213Y-57818495D01*
X92081840Y-57968180D01*
X92082570Y-57969313D01*
X92217060Y-58180419D01*
X92222025Y-58188929D01*
X92303480Y-58342002D01*
X92304011Y-58343012D01*
X92422042Y-58569747D01*
X92426325Y-58578844D01*
X92490915Y-58731568D01*
X92491119Y-58732053D01*
X92530651Y-58827493D01*
X92592004Y-58975613D01*
X92595543Y-58985250D01*
X92642542Y-59131368D01*
X92642762Y-59132060D01*
X92725625Y-59394867D01*
X92728357Y-59404980D01*
X92757326Y-59533157D01*
X92757439Y-59533661D01*
X92821864Y-59824262D01*
X92823732Y-59834779D01*
X92834365Y-59914030D01*
X92834406Y-59914339D01*
X92879757Y-60258812D01*
X92880715Y-60269762D01*
X92898824Y-60684536D01*
X92898824Y-60684540D01*
X92899496Y-60699910D01*
X92899459Y-60700000D01*
X92899500Y-60700099D01*
X92899500Y-60700500D01*
X92899901Y-60700500D01*
X92900500Y-60700500D01*
X147733910Y-60700500D01*
X147749500Y-60700500D01*
X147750099Y-60700500D01*
X147750500Y-60700500D01*
X147750500Y-60700099D01*
X147750541Y-60700000D01*
X150744390Y-60700000D01*
X150764804Y-60985428D01*
X150765757Y-60989812D01*
X150765759Y-60989821D01*
X150783064Y-61069370D01*
X150825631Y-61265046D01*
X150925633Y-61533161D01*
X151062774Y-61784315D01*
X151065470Y-61787917D01*
X151065473Y-61787921D01*
X151182622Y-61944413D01*
X151234261Y-62013395D01*
X151436605Y-62215739D01*
X151665685Y-62387226D01*
X151916839Y-62524367D01*
X152184954Y-62624369D01*
X152464572Y-62685196D01*
X152750000Y-62705610D01*
X153035428Y-62685196D01*
X153315046Y-62624369D01*
X153583161Y-62524367D01*
X153834315Y-62387226D01*
X154063395Y-62215739D01*
X154265739Y-62013395D01*
X154437226Y-61784315D01*
X154574367Y-61533161D01*
X154674369Y-61265046D01*
X154735196Y-60985428D01*
X154755610Y-60700000D01*
X154735196Y-60414572D01*
X154674369Y-60134954D01*
X154574367Y-59866839D01*
X154437226Y-59615685D01*
X154265739Y-59386605D01*
X154063395Y-59184261D01*
X153993663Y-59132060D01*
X153837921Y-59015473D01*
X153837917Y-59015470D01*
X153834315Y-59012774D01*
X153583161Y-58875633D01*
X153339007Y-58784568D01*
X153319253Y-58777200D01*
X153319251Y-58777199D01*
X153315046Y-58775631D01*
X153310660Y-58774676D01*
X153310657Y-58774676D01*
X153039821Y-58715759D01*
X153039812Y-58715757D01*
X153035428Y-58714804D01*
X152750000Y-58694390D01*
X152745512Y-58694711D01*
X152469059Y-58714483D01*
X152469057Y-58714483D01*
X152464572Y-58714804D01*
X152460189Y-58715757D01*
X152460178Y-58715759D01*
X152189342Y-58774676D01*
X152189336Y-58774677D01*
X152184954Y-58775631D01*
X152180752Y-58777198D01*
X152180746Y-58777200D01*
X151921045Y-58874064D01*
X151921042Y-58874065D01*
X151916839Y-58875633D01*
X151912895Y-58877786D01*
X151912894Y-58877787D01*
X151669638Y-59010615D01*
X151669632Y-59010618D01*
X151665685Y-59012774D01*
X151662088Y-59015465D01*
X151662078Y-59015473D01*
X151440208Y-59181563D01*
X151440200Y-59181569D01*
X151436605Y-59184261D01*
X151433426Y-59187439D01*
X151433419Y-59187446D01*
X151237446Y-59383419D01*
X151237439Y-59383426D01*
X151234261Y-59386605D01*
X151231569Y-59390200D01*
X151231563Y-59390208D01*
X151065473Y-59612078D01*
X151065465Y-59612088D01*
X151062774Y-59615685D01*
X151060618Y-59619632D01*
X151060615Y-59619638D01*
X150948882Y-59824262D01*
X150925633Y-59866839D01*
X150924065Y-59871042D01*
X150924064Y-59871045D01*
X150827200Y-60130746D01*
X150827198Y-60130752D01*
X150825631Y-60134954D01*
X150824677Y-60139336D01*
X150824676Y-60139342D01*
X150765759Y-60410178D01*
X150765757Y-60410189D01*
X150764804Y-60414572D01*
X150744390Y-60700000D01*
X147750541Y-60700000D01*
X147750503Y-60699910D01*
X147769285Y-60269760D01*
X147770243Y-60258811D01*
X147778272Y-60197823D01*
X147815641Y-59913972D01*
X147821401Y-59871045D01*
X147826269Y-59834759D01*
X147828128Y-59824292D01*
X147892672Y-59533157D01*
X147894430Y-59525379D01*
X147921650Y-59404943D01*
X147924361Y-59394910D01*
X148007369Y-59131642D01*
X148054464Y-58985224D01*
X148057984Y-58975640D01*
X148158971Y-58731833D01*
X148223691Y-58578802D01*
X148227938Y-58569783D01*
X148346189Y-58342626D01*
X148346375Y-58342273D01*
X148427991Y-58188897D01*
X148432919Y-58180451D01*
X148567527Y-57969158D01*
X148568073Y-57968311D01*
X148665810Y-57818459D01*
X148671334Y-57810660D01*
X148821530Y-57614920D01*
X148822145Y-57614128D01*
X148935265Y-57470417D01*
X148941330Y-57463280D01*
X149106069Y-57283500D01*
X149106923Y-57282581D01*
X149234278Y-57147445D01*
X149240785Y-57141026D01*
X149418895Y-56977818D01*
X149419954Y-56976863D01*
X149560555Y-56852016D01*
X149567440Y-56846329D01*
X149757560Y-56700445D01*
X149758976Y-56699378D01*
X149911533Y-56586453D01*
X149918719Y-56581513D01*
X150119535Y-56453580D01*
X150121269Y-56452498D01*
X150284456Y-56352829D01*
X150291922Y-56348612D01*
X150502016Y-56239244D01*
X150503988Y-56238243D01*
X150676543Y-56152884D01*
X150684105Y-56149451D01*
X150901909Y-56059235D01*
X150904319Y-56058267D01*
X151084646Y-55988227D01*
X151092290Y-55985541D01*
X151316321Y-55914905D01*
X151318946Y-55914111D01*
X151505632Y-55860113D01*
X151513281Y-55858162D01*
X151741904Y-55807478D01*
X151744829Y-55806868D01*
X151936224Y-55769534D01*
X151943811Y-55768296D01*
X152175394Y-55737807D01*
X152178522Y-55737438D01*
X152373126Y-55717179D01*
X152380579Y-55716629D01*
X152613272Y-55706469D01*
X152616882Y-55706364D01*
X152812898Y-55703459D01*
X152820186Y-55703564D01*
G37*
%TD.AperFunction*%
%TD*%
M02*
