M48
; DRILL file {KiCad (7.0.0)} date Mon May  8 13:38:36 2023
; FORMAT={-:-/ absolute / metric / decimal}
; #@! TF.CreationDate,2023-05-08T13:38:36+02:00
; #@! TF.GenerationSoftware,Kicad,Pcbnew,(7.0.0)
; #@! TF.FileFunction,Plated,1,4,PTH
FMAT,2
METRIC
; #@! TA.AperFunction,Plated,PTH,ViaDrill
T1C0.300
; #@! TA.AperFunction,Plated,PTH,ViaDrill
T2C0.400
; #@! TA.AperFunction,Plated,PTH,ComponentDrill
T3C0.600
; #@! TA.AperFunction,Plated,PTH,ComponentDrill
T4C1.000
%
G90
G05
T1
X97.123Y-85.032
X104.332Y-85.017
X106.5Y-81.3
X131.25Y-81.2
X131.55Y-77.2
X135.75Y-74.95
X135.75Y-76.95
X144.713Y-96.519
T2
X84.4Y-60.7
X84.4Y-108.7
X87.9Y-57.2
X87.9Y-64.2
X87.9Y-105.2
X87.9Y-112.1
X89.3Y-67.75
X89.3Y-69.35
X89.3Y-70.95
X89.3Y-72.55
X89.3Y-74.15
X89.3Y-74.15
X89.3Y-75.75
X89.3Y-75.75
X89.3Y-77.35
X89.3Y-77.35
X89.3Y-78.95
X89.3Y-78.95
X89.3Y-80.55
X89.3Y-80.55
X89.3Y-80.55
X89.3Y-82.15
X89.3Y-83.75
X89.3Y-85.35
X89.3Y-86.95
X89.3Y-86.95
X89.3Y-88.55
X89.3Y-88.55
X89.3Y-90.15
X89.3Y-90.15
X89.3Y-91.75
X89.3Y-91.75
X89.3Y-91.75
X89.3Y-93.35
X89.3Y-93.35
X89.3Y-93.35
X89.3Y-94.95
X89.3Y-96.55
X89.3Y-98.15
X89.3Y-98.15
X89.3Y-99.75
X89.3Y-99.75
X89.3Y-101.35
X89.3Y-101.35
X91.0Y-80.5
X91.4Y-60.7
X91.4Y-108.7
X92.6Y-83.5
X92.6Y-85.5
X92.6Y-87.5
X92.6Y-89.5
X92.6Y-91.5
X92.6Y-93.5
X92.6Y-95.5
X92.6Y-97.5
X92.6Y-99.5
X92.6Y-101.5
X92.6Y-103.5
X93.15Y-105.15
X94.4Y-86.6
X94.5Y-81.95
X94.9Y-62.1
X95.2Y-107.2
X95.5Y-73.8
X97.0Y-62.1
X97.0Y-62.1
X97.2Y-107.2
X98.3Y-81.95
X98.95Y-69.1
X99.1Y-62.1
X99.1Y-62.1
X99.2Y-107.2
X99.27Y-100.08
X99.27Y-101.78
X99.4Y-90.6
X99.4Y-103.55
X99.5Y-80.45
X99.7Y-95.65
X99.77Y-83.68
X100.9Y-74.95
X100.9Y-76.25
X100.9Y-77.65
X101.2Y-62.1
X101.2Y-62.1
X101.2Y-107.2
X101.4Y-81.95
X101.67Y-83.68
X102.414Y-76.246
X102.7Y-88.7
X103.2Y-107.2
X103.3Y-62.1
X103.3Y-62.1
X103.3Y-62.1
X105.0Y-82.05
X105.2Y-107.2
X105.4Y-62.1
X105.4Y-62.1
X105.4Y-62.1
X105.4Y-62.1
X105.4Y-62.1
X106.6Y-103.55
X106.77Y-100.08
X106.77Y-101.78
X106.97Y-83.68
X106.983Y-89.2
X106.983Y-92.45
X106.983Y-96.05
X107.2Y-80.25
X107.2Y-107.2
X107.5Y-62.1
X107.5Y-62.1
X107.5Y-62.1
X107.5Y-62.1
X107.5Y-62.1
X107.525Y-81.825
X108.2Y-98.85
X108.2Y-101.95
X108.2Y-104.75
X109.5Y-91.21
X109.55Y-65.95
X109.6Y-62.1
X109.6Y-62.1
X109.6Y-62.1
X109.6Y-97.887
X111.1Y-85.45
X111.1Y-91.21
X111.25Y-65.95
X111.25Y-70.25
X111.7Y-62.1
X112.1Y-74.75
X112.1Y-77.95
X112.1Y-77.95
X112.1Y-81.15
X112.6Y-85.45
X112.6Y-98.8
X112.95Y-65.95
X112.95Y-70.25
X115.3Y-74.75
X115.3Y-74.75
X115.3Y-77.95
X115.3Y-77.95
X115.3Y-77.95
X115.3Y-77.95
X115.3Y-81.15
X115.3Y-81.15
X116.8Y-91.6
X118.5Y-74.75
X118.5Y-77.95
X118.5Y-77.95
X118.5Y-81.15
X119.862Y-86.013
X120.0Y-83.75
X121.5Y-72.65
X121.6Y-107.2
X122.6Y-74.05
X122.9Y-87.75
X123.275Y-82.11
X123.275Y-83.51
X123.45Y-97.6
X123.7Y-107.2
X123.7Y-107.2
X124.675Y-83.51
X125.8Y-107.2
X125.8Y-107.2
X125.8Y-107.2
X126.25Y-71.95
X126.475Y-83.587
X126.55Y-105.1
X127.9Y-107.2
X127.9Y-107.2
X128.0Y-78.7
X128.075Y-83.587
X130.0Y-107.2
X130.0Y-107.2
X130.0Y-107.2
X130.45Y-77.184
X132.1Y-107.2
X132.1Y-107.2
X132.6Y-77.218
X134.15Y-97.6
X134.2Y-107.2
X134.2Y-107.2
X134.2Y-107.2
X135.75Y-80.2
X136.3Y-107.2
X136.3Y-107.2
X137.05Y-79.0
X138.0Y-62.1
X138.0Y-62.1
X138.0Y-62.1
X138.4Y-107.2
X138.4Y-107.2
X138.4Y-107.2
X138.5Y-80.45
X139.55Y-104.8
X140.023Y-90.093
X140.1Y-62.1
X140.1Y-62.1
X140.3Y-68.8
X140.3Y-70.8
X140.3Y-72.8
X140.5Y-107.2
X140.5Y-107.2
X142.0Y-84.95
X142.0Y-86.95
X142.0Y-88.95
X142.2Y-62.1
X142.2Y-62.1
X142.3Y-68.8
X142.3Y-70.8
X142.3Y-72.8
X142.475Y-102.706
X142.512Y-91.419
X142.512Y-93.119
X142.512Y-99.581
X142.512Y-101.281
X142.6Y-107.2
X142.6Y-107.2
X142.6Y-107.2
X143.35Y-79.322
X143.875Y-102.706
X144.0Y-81.2
X144.0Y-82.95
X144.0Y-84.95
X144.0Y-86.95
X144.0Y-88.95
X144.075Y-74.3
X144.3Y-62.1
X144.3Y-62.1
X144.3Y-68.8
X144.3Y-70.8
X144.3Y-72.8
X144.7Y-107.2
X144.7Y-107.2
X146.0Y-84.95
X146.0Y-86.95
X146.0Y-88.95
X146.4Y-62.1
X146.8Y-107.2
X146.8Y-107.2
X146.9Y-98.4
X147.348Y-73.898
X147.35Y-79.3
X149.3Y-60.7
X149.3Y-108.7
X151.3Y-66.3
X151.3Y-68.4
X151.3Y-68.4
X151.3Y-70.5
X151.3Y-70.5
X151.3Y-83.5
X151.3Y-85.6
X151.3Y-85.6
X151.3Y-87.7
X151.3Y-87.7
X151.3Y-87.7
X151.3Y-89.8
X151.3Y-89.8
X151.3Y-91.9
X151.3Y-91.9
X151.3Y-91.9
X151.3Y-94.0
X151.3Y-94.0
X151.3Y-96.1
X151.3Y-96.1
X151.3Y-96.1
X151.3Y-98.2
X151.3Y-98.2
X151.3Y-98.2
X151.3Y-100.3
X151.3Y-100.3
X151.3Y-100.3
X151.3Y-100.3
X151.3Y-102.4
X151.3Y-102.4
X152.8Y-57.3
X152.8Y-64.2
X152.8Y-105.2
X152.8Y-112.2
X156.3Y-60.7
X156.3Y-108.7
T4
X111.1Y-106.75
X113.64Y-106.75
X115.85Y-62.7
X116.18Y-106.75
X118.39Y-62.7
X118.72Y-106.75
X120.93Y-62.7
X123.47Y-62.7
X127.17Y-62.7
X129.71Y-62.7
X132.25Y-62.7
X134.79Y-62.7
T3
X146.995Y-72.38G85X145.895Y-72.38
G05
X146.995Y-81.02G85X145.895Y-81.02
G05
X151.015Y-72.38G85X150.215Y-72.38
G05
X151.015Y-81.02G85X150.215Y-81.02
G05
T0
M30
