M48
; DRILL file {KiCad (6.0.4)} date Mon Jan 30 14:26:30 2023
; FORMAT={-:-/ absolute / metric / decimal}
; #@! TF.CreationDate,2023-01-30T14:26:30+01:00
; #@! TF.GenerationSoftware,Kicad,Pcbnew,(6.0.4)
; #@! TF.FileFunction,Plated,1,4,PTH
FMAT,2
METRIC
; #@! TA.AperFunction,Plated,PTH,ViaDrill
T1C0.300
; #@! TA.AperFunction,Plated,PTH,ViaDrill
T2C0.400
; #@! TA.AperFunction,Plated,PTH,ComponentDrill
T3C0.600
; #@! TA.AperFunction,Plated,PTH,ComponentDrill
T4C1.000
%
G90
G05
T1
X61.122Y-101.582
X68.332Y-101.567
X78.0Y-109.022
X79.2Y-109.1
X79.8Y-85.8
X80.557Y-85.457
X80.6Y-86.3
X94.037Y-97.412
X96.425Y-102.387
X96.525Y-97.412
X98.812Y-98.325
X102.51Y-98.312
X111.0Y-93.022
X111.0Y-94.623
T2
X56.1Y-100.5
X56.1Y-103.4
X56.1Y-106.7
X56.1Y-110.4
X56.1Y-114.6
X56.1Y-118.5
X56.8Y-122.7
X57.97Y-103.23
X58.1Y-105.0
X58.37Y-100.23
X58.5Y-98.5
X60.4Y-123.5
X61.0Y-94.0
X62.3Y-98.5
X62.37Y-110.63
X62.5Y-123.5
X63.27Y-116.63
X63.27Y-118.33
X63.4Y-120.1
X63.77Y-100.23
X65.2Y-105.0
X65.27Y-103.33
X65.4Y-98.5
X65.6Y-123.5
X65.67Y-100.23
X65.714Y-90.214
X68.8Y-123.5
X69.0Y-98.6
X69.67Y-110.83
X69.8Y-93.3
X70.3Y-91.0
X70.6Y-83.5
X70.6Y-85.2
X70.6Y-86.9
X70.6Y-120.1
X70.77Y-116.63
X70.77Y-118.33
X70.97Y-100.23
X71.1Y-123.5
X71.3Y-105.4
X71.3Y-108.9
X71.3Y-112.6
X72.029Y-96.02
X72.2Y-115.4
X72.2Y-118.5
X72.2Y-121.9
X72.6Y-95.2
X73.08Y-104.572
X73.08Y-109.372
X73.1Y-80.4
X73.1Y-96.1
X74.0Y-113.722
X74.0Y-118.522
X74.3Y-93.3
X74.78Y-104.572
X74.78Y-109.372
X75.35Y-87.75
X75.4Y-83.5
X75.4Y-85.2
X75.6Y-113.722
X77.0Y-120.522
X77.2Y-93.2
X77.2Y-113.722
X77.4Y-89.9
X77.8Y-86.5
X78.6Y-115.122
X79.7Y-103.722
X80.58Y-109.172
X80.9Y-113.3
X82.3Y-100.623
X82.4Y-108.5
X82.8Y-98.022
X83.7Y-96.7
X83.9Y-102.569
X83.9Y-104.6
X84.2Y-88.8
X85.8Y-89.5
X85.8Y-95.4
X86.9Y-94.7
X86.9Y-102.5
X87.3Y-113.6
X88.2Y-95.9
X88.3Y-87.5
X88.3Y-98.322
X88.3Y-99.722
X89.7Y-99.722
X89.9Y-103.422
X89.9Y-104.822
X91.4Y-104.822
X91.425Y-100.188
X93.1Y-104.822
X93.125Y-94.812
X93.125Y-100.188
X94.925Y-95.012
X96.525Y-95.012
X96.525Y-100.188
X97.6Y-105.0
X98.025Y-95.012
X99.825Y-95.012
X99.825Y-100.188
X101.525Y-95.012
X101.525Y-100.188
X102.7Y-92.6
X103.35Y-117.087
X103.35Y-118.887
X103.425Y-100.2
X104.2Y-92.9
X104.938Y-96.487
X105.2Y-99.722
X106.3Y-91.7
X106.3Y-92.7
X106.5Y-99.722
X107.537Y-96.487
X107.713Y-92.724
X108.2Y-93.6
X110.9Y-86.022
X110.9Y-88.222
X110.9Y-90.222
X111.9Y-100.522
X111.9Y-101.922
X112.0Y-87.123
X112.0Y-89.022
X112.35Y-99.272
X112.8Y-90.222
X112.95Y-88.072
X113.1Y-86.022
X113.2Y-98.422
X113.2Y-100.522
X113.2Y-101.822
X113.5Y-96.422
X113.85Y-87.172
X113.9Y-89.022
X114.0Y-99.222
X114.225Y-91.4
X114.4Y-100.522
X114.4Y-102.022
X114.7Y-92.6
X114.7Y-94.749
X114.9Y-86.123
X114.9Y-88.022
X116.2Y-85.7
X116.42Y-104.68
X116.43Y-118.57
X119.6Y-113.9
T4
X79.1Y-81.1
X81.64Y-81.1
X84.18Y-81.1
X86.6Y-122.6
X86.72Y-81.1
X89.14Y-122.6
X90.92Y-81.1
X91.68Y-122.6
X93.46Y-81.1
X94.22Y-122.6
X96.0Y-81.1
X98.54Y-81.1
X102.7Y-81.1
X105.24Y-81.1
X107.78Y-81.1
X110.32Y-81.1
T3
X117.145Y-89.48G85X116.045Y-89.48
G05
X117.145Y-98.12G85X116.045Y-98.12
G05
X121.165Y-89.48G85X120.365Y-89.48
G05
X121.165Y-98.12G85X120.365Y-98.12
G05
T0
M30
