%TF.GenerationSoftware,KiCad,Pcbnew,(6.0.4)*%
%TF.CreationDate,2023-02-25T00:25:47+01:00*%
%TF.ProjectId,Apollo - DSP,41706f6c-6c6f-4202-9d20-4453502e6b69,rev?*%
%TF.SameCoordinates,Original*%
%TF.FileFunction,Soldermask,Top*%
%TF.FilePolarity,Negative*%
%FSLAX46Y46*%
G04 Gerber Fmt 4.6, Leading zero omitted, Abs format (unit mm)*
G04 Created by KiCad (PCBNEW (6.0.4)) date 2023-02-25 00:25:47*
%MOMM*%
%LPD*%
G01*
G04 APERTURE LIST*
G04 Aperture macros list*
%AMRoundRect*
0 Rectangle with rounded corners*
0 $1 Rounding radius*
0 $2 $3 $4 $5 $6 $7 $8 $9 X,Y pos of 4 corners*
0 Add a 4 corners polygon primitive as box body*
4,1,4,$2,$3,$4,$5,$6,$7,$8,$9,$2,$3,0*
0 Add four circle primitives for the rounded corners*
1,1,$1+$1,$2,$3*
1,1,$1+$1,$4,$5*
1,1,$1+$1,$6,$7*
1,1,$1+$1,$8,$9*
0 Add four rect primitives between the rounded corners*
20,1,$1+$1,$2,$3,$4,$5,0*
20,1,$1+$1,$4,$5,$6,$7,0*
20,1,$1+$1,$6,$7,$8,$9,0*
20,1,$1+$1,$8,$9,$2,$3,0*%
%AMRotRect*
0 Rectangle, with rotation*
0 The origin of the aperture is its center*
0 $1 length*
0 $2 width*
0 $3 Rotation angle, in degrees counterclockwise*
0 Add horizontal line*
21,1,$1,$2,0,0,$3*%
G04 Aperture macros list end*
%ADD10C,0.150000*%
%ADD11RoundRect,0.075000X-0.700000X-0.075000X0.700000X-0.075000X0.700000X0.075000X-0.700000X0.075000X0*%
%ADD12RoundRect,0.075000X-0.075000X-0.700000X0.075000X-0.700000X0.075000X0.700000X-0.075000X0.700000X0*%
%ADD13RoundRect,0.237500X0.237500X-0.300000X0.237500X0.300000X-0.237500X0.300000X-0.237500X-0.300000X0*%
%ADD14R,1.700000X1.700000*%
%ADD15O,1.700000X1.700000*%
%ADD16RoundRect,0.150000X0.512500X0.150000X-0.512500X0.150000X-0.512500X-0.150000X0.512500X-0.150000X0*%
%ADD17RoundRect,0.237500X0.380070X-0.044194X-0.044194X0.380070X-0.380070X0.044194X0.044194X-0.380070X0*%
%ADD18RoundRect,0.237500X-0.237500X0.300000X-0.237500X-0.300000X0.237500X-0.300000X0.237500X0.300000X0*%
%ADD19RoundRect,0.237500X0.250000X0.237500X-0.250000X0.237500X-0.250000X-0.237500X0.250000X-0.237500X0*%
%ADD20RoundRect,0.237500X0.300000X0.237500X-0.300000X0.237500X-0.300000X-0.237500X0.300000X-0.237500X0*%
%ADD21RoundRect,0.237500X-0.250000X-0.237500X0.250000X-0.237500X0.250000X0.237500X-0.250000X0.237500X0*%
%ADD22RoundRect,0.237500X-0.237500X0.250000X-0.237500X-0.250000X0.237500X-0.250000X0.237500X0.250000X0*%
%ADD23RoundRect,0.237500X0.044194X0.380070X-0.380070X-0.044194X-0.044194X-0.380070X0.380070X0.044194X0*%
%ADD24R,1.160000X0.600000*%
%ADD25R,1.160000X0.300000*%
%ADD26O,1.700000X0.900000*%
%ADD27O,2.000000X0.900000*%
%ADD28RoundRect,0.237500X0.237500X-0.250000X0.237500X0.250000X-0.237500X0.250000X-0.237500X-0.250000X0*%
%ADD29RoundRect,0.041300X0.563700X0.253700X-0.563700X0.253700X-0.563700X-0.253700X0.563700X-0.253700X0*%
%ADD30RotRect,1.150000X1.000000X225.000000*%
%ADD31RoundRect,0.150000X-0.825000X-0.150000X0.825000X-0.150000X0.825000X0.150000X-0.825000X0.150000X0*%
%ADD32R,1.200000X0.800000*%
%ADD33R,2.000000X1.500000*%
%ADD34RoundRect,0.237500X-0.300000X-0.237500X0.300000X-0.237500X0.300000X0.237500X-0.300000X0.237500X0*%
%ADD35RoundRect,0.237500X0.287500X0.237500X-0.287500X0.237500X-0.287500X-0.237500X0.287500X-0.237500X0*%
%ADD36RoundRect,0.150000X0.150000X-0.825000X0.150000X0.825000X-0.150000X0.825000X-0.150000X-0.825000X0*%
%ADD37RoundRect,0.237500X-0.287500X-0.237500X0.287500X-0.237500X0.287500X0.237500X-0.287500X0.237500X0*%
G04 APERTURE END LIST*
D10*
X57312947Y-78100000D02*
G75*
G03*
X57312947Y-78100000I-5412947J0D01*
G01*
D11*
%TO.C,U4*%
X73625000Y-90750000D03*
X73625000Y-91250000D03*
X73625000Y-91750000D03*
X73625000Y-92250000D03*
X73625000Y-92750000D03*
X73625000Y-93250000D03*
X73625000Y-93750000D03*
X73625000Y-94250000D03*
X73625000Y-94750000D03*
X73625000Y-95250000D03*
X73625000Y-95750000D03*
X73625000Y-96250000D03*
X73625000Y-96750000D03*
X73625000Y-97250000D03*
X73625000Y-97750000D03*
X73625000Y-98250000D03*
D12*
X75550000Y-100175000D03*
X76050000Y-100175000D03*
X76550000Y-100175000D03*
X77050000Y-100175000D03*
X77550000Y-100175000D03*
X78050000Y-100175000D03*
X78550000Y-100175000D03*
X79050000Y-100175000D03*
X79550000Y-100175000D03*
X80050000Y-100175000D03*
X80550000Y-100175000D03*
X81050000Y-100175000D03*
X81550000Y-100175000D03*
X82050000Y-100175000D03*
X82550000Y-100175000D03*
X83050000Y-100175000D03*
D11*
X84975000Y-98250000D03*
X84975000Y-97750000D03*
X84975000Y-97250000D03*
X84975000Y-96750000D03*
X84975000Y-96250000D03*
X84975000Y-95750000D03*
X84975000Y-95250000D03*
X84975000Y-94750000D03*
X84975000Y-94250000D03*
X84975000Y-93750000D03*
X84975000Y-93250000D03*
X84975000Y-92750000D03*
X84975000Y-92250000D03*
X84975000Y-91750000D03*
X84975000Y-91250000D03*
X84975000Y-90750000D03*
D12*
X83050000Y-88825000D03*
X82550000Y-88825000D03*
X82050000Y-88825000D03*
X81550000Y-88825000D03*
X81050000Y-88825000D03*
X80550000Y-88825000D03*
X80050000Y-88825000D03*
X79550000Y-88825000D03*
X79050000Y-88825000D03*
X78550000Y-88825000D03*
X78050000Y-88825000D03*
X77550000Y-88825000D03*
X77050000Y-88825000D03*
X76550000Y-88825000D03*
X76050000Y-88825000D03*
X75550000Y-88825000D03*
%TD*%
D13*
%TO.C,C2*%
X103425000Y-98262500D03*
X103425000Y-96537500D03*
%TD*%
D14*
%TO.C,J7*%
X86700000Y-110650000D03*
D15*
X86700000Y-113190000D03*
X86700000Y-115730000D03*
X86700000Y-118270000D03*
X86700000Y-120810000D03*
X86700000Y-123350000D03*
%TD*%
D16*
%TO.C,U1*%
X97800000Y-98362500D03*
X97800000Y-97412500D03*
X97800000Y-96462500D03*
X95400000Y-96462500D03*
X95400000Y-98362500D03*
%TD*%
D13*
%TO.C,C9*%
X103425000Y-103362500D03*
X103425000Y-101637500D03*
%TD*%
%TO.C,C1*%
X108825000Y-98262500D03*
X108825000Y-96537500D03*
%TD*%
%TO.C,C26*%
X67470000Y-116617500D03*
X67470000Y-114892500D03*
%TD*%
D16*
%TO.C,U3*%
X97700000Y-106975000D03*
X97700000Y-106025000D03*
X97700000Y-105075000D03*
X95300000Y-105075000D03*
X95300000Y-106975000D03*
%TD*%
D17*
%TO.C,C21*%
X67533624Y-95496187D03*
X66313864Y-94276427D03*
%TD*%
D18*
%TO.C,C31*%
X104800000Y-117137500D03*
X104800000Y-118862500D03*
%TD*%
D19*
%TO.C,F1*%
X112437500Y-96500000D03*
X110612500Y-96500000D03*
%TD*%
D20*
%TO.C,C28*%
X61832500Y-118367500D03*
X60107500Y-118367500D03*
%TD*%
D13*
%TO.C,C23*%
X74100000Y-114912500D03*
X74100000Y-113187500D03*
%TD*%
D21*
%TO.C,R11*%
X60057500Y-120067500D03*
X61882500Y-120067500D03*
%TD*%
D19*
%TO.C,FB1*%
X107037500Y-98300000D03*
X105212500Y-98300000D03*
%TD*%
D21*
%TO.C,D3*%
X65657500Y-101567500D03*
X67482500Y-101567500D03*
%TD*%
D22*
%TO.C,R1*%
X89725000Y-96500000D03*
X89725000Y-98325000D03*
%TD*%
D13*
%TO.C,C3*%
X101525000Y-98275000D03*
X101525000Y-96550000D03*
%TD*%
%TO.C,C12*%
X93125000Y-106950000D03*
X93125000Y-105225000D03*
%TD*%
D20*
%TO.C,C33*%
X69232500Y-118355000D03*
X67507500Y-118355000D03*
%TD*%
D13*
%TO.C,C7*%
X75700000Y-114912500D03*
X75700000Y-113187500D03*
%TD*%
D18*
%TO.C,C30*%
X106500000Y-117137500D03*
X106500000Y-118862500D03*
%TD*%
D23*
%TO.C,C20*%
X67633624Y-90276427D03*
X66413864Y-91496187D03*
%TD*%
D18*
%TO.C,C14*%
X85500000Y-100837500D03*
X85500000Y-102562500D03*
%TD*%
D24*
%TO.C,J1*%
X116015000Y-97000000D03*
X116015000Y-96200000D03*
D25*
X116015000Y-95050000D03*
X116015000Y-94050000D03*
X116015000Y-93550000D03*
X116015000Y-92550000D03*
D24*
X116015000Y-91400000D03*
X116015000Y-90600000D03*
X116015000Y-90600000D03*
X116015000Y-91400000D03*
D25*
X116015000Y-92050000D03*
X116015000Y-93050000D03*
X116015000Y-94550000D03*
X116015000Y-95550000D03*
D24*
X116015000Y-96200000D03*
X116015000Y-97000000D03*
D26*
X120765000Y-89480000D03*
D27*
X116595000Y-89480000D03*
D26*
X120765000Y-98120000D03*
D27*
X116595000Y-98120000D03*
%TD*%
D20*
%TO.C,C17*%
X73200000Y-88300000D03*
X71475000Y-88300000D03*
%TD*%
%TO.C,C19*%
X73200000Y-86600000D03*
X71475000Y-86600000D03*
%TD*%
D18*
%TO.C,C35*%
X93875000Y-115712500D03*
X93875000Y-117437500D03*
%TD*%
D28*
%TO.C,R6*%
X77500000Y-86212500D03*
X77500000Y-84387500D03*
%TD*%
D13*
%TO.C,C10*%
X99825000Y-106950000D03*
X99825000Y-105225000D03*
%TD*%
D14*
%TO.C,J5*%
X102600000Y-80000000D03*
D15*
X105140000Y-80000000D03*
X107680000Y-80000000D03*
X110220000Y-80000000D03*
%TD*%
D28*
%TO.C,R5*%
X77300000Y-114962500D03*
X77300000Y-113137500D03*
%TD*%
D19*
%TO.C,R7*%
X66981250Y-87700000D03*
X65156250Y-87700000D03*
%TD*%
D13*
%TO.C,C11*%
X101525000Y-106950000D03*
X101525000Y-105225000D03*
%TD*%
%TO.C,C27*%
X60070000Y-116630000D03*
X60070000Y-114905000D03*
%TD*%
D14*
%TO.C,J6*%
X75100000Y-123300000D03*
D15*
X77640000Y-123300000D03*
X80180000Y-123300000D03*
X82720000Y-123300000D03*
%TD*%
D22*
%TO.C,R13*%
X90200000Y-89887500D03*
X90200000Y-91712500D03*
%TD*%
D21*
%TO.C,D6*%
X61922500Y-101567500D03*
X63747500Y-101567500D03*
%TD*%
D13*
%TO.C,C13*%
X91425000Y-106950000D03*
X91425000Y-105225000D03*
%TD*%
%TO.C,C29*%
X61122500Y-105030000D03*
X61122500Y-103305000D03*
%TD*%
%TO.C,C4*%
X99825000Y-98275000D03*
X99825000Y-96550000D03*
%TD*%
D29*
%TO.C,U2*%
X112280000Y-94750000D03*
X112280000Y-93800000D03*
X112280000Y-92850000D03*
X109770000Y-92850000D03*
X109770000Y-93800000D03*
X109770000Y-94750000D03*
%TD*%
D22*
%TO.C,R10*%
X61870000Y-114855000D03*
X61870000Y-116680000D03*
%TD*%
D21*
%TO.C,R12*%
X67457500Y-120055000D03*
X69282500Y-120055000D03*
%TD*%
D30*
%TO.C,Y1*%
X69047488Y-91672614D03*
X67810051Y-92910051D03*
X68800000Y-93900000D03*
X70037437Y-92662563D03*
%TD*%
D18*
%TO.C,C22*%
X70300000Y-95637500D03*
X70300000Y-97362500D03*
%TD*%
D20*
%TO.C,C15*%
X76100000Y-103300000D03*
X74375000Y-103300000D03*
%TD*%
D19*
%TO.C,R3*%
X118012500Y-87100000D03*
X116187500Y-87100000D03*
%TD*%
D13*
%TO.C,C25*%
X59422500Y-105030000D03*
X59422500Y-103305000D03*
%TD*%
D19*
%TO.C,R2*%
X117537500Y-100100000D03*
X115712500Y-100100000D03*
%TD*%
D31*
%TO.C,U5*%
X61625000Y-108395000D03*
X61625000Y-109665000D03*
X61625000Y-110935000D03*
X61625000Y-112205000D03*
X66575000Y-112205000D03*
X66575000Y-110935000D03*
X66575000Y-109665000D03*
X66575000Y-108395000D03*
%TD*%
D13*
%TO.C,C32*%
X68370000Y-105030000D03*
X68370000Y-103305000D03*
%TD*%
D19*
%TO.C,FB2*%
X107037500Y-103400000D03*
X105212500Y-103400000D03*
%TD*%
D21*
%TO.C,D4*%
X58422500Y-101567500D03*
X60247500Y-101567500D03*
%TD*%
D22*
%TO.C,R4*%
X75700000Y-116637500D03*
X75700000Y-118462500D03*
%TD*%
D32*
%TO.C,J3*%
X118000000Y-108400000D03*
X118000000Y-109500000D03*
X118000000Y-110600000D03*
X118000000Y-111700000D03*
X118000000Y-112800000D03*
X118000000Y-113900000D03*
X118000000Y-115000000D03*
X118000000Y-116100000D03*
D33*
X120200000Y-118570000D03*
X112000000Y-118570000D03*
X112000000Y-104680000D03*
X120200000Y-104680000D03*
%TD*%
D34*
%TO.C,C36*%
X83737500Y-104300000D03*
X85462500Y-104300000D03*
%TD*%
D14*
%TO.C,J4*%
X79820000Y-80000000D03*
D15*
X82360000Y-80000000D03*
X84900000Y-80000000D03*
X87440000Y-80000000D03*
%TD*%
D22*
%TO.C,R9*%
X69270000Y-114855000D03*
X69270000Y-116680000D03*
%TD*%
D13*
%TO.C,C5*%
X93125000Y-98275000D03*
X93125000Y-96550000D03*
%TD*%
D20*
%TO.C,C18*%
X73200000Y-84900000D03*
X71475000Y-84900000D03*
%TD*%
D35*
%TO.C,D1*%
X91475000Y-94700000D03*
X89725000Y-94700000D03*
%TD*%
D36*
%TO.C,U7*%
X97590000Y-120600000D03*
X98860000Y-120600000D03*
X100130000Y-120600000D03*
X101400000Y-120600000D03*
X101400000Y-115650000D03*
X100130000Y-115650000D03*
X98860000Y-115650000D03*
X97590000Y-115650000D03*
%TD*%
D13*
%TO.C,C8*%
X108800000Y-103362500D03*
X108800000Y-101637500D03*
%TD*%
D21*
%TO.C,D5*%
X69157500Y-101567500D03*
X70982500Y-101567500D03*
%TD*%
D18*
%TO.C,C34*%
X95575000Y-115712500D03*
X95575000Y-117437500D03*
%TD*%
D37*
%TO.C,D2*%
X61693750Y-87700000D03*
X63443750Y-87700000D03*
%TD*%
D14*
%TO.C,J2*%
X91200000Y-80000000D03*
D15*
X93740000Y-80000000D03*
X96280000Y-80000000D03*
X98820000Y-80000000D03*
%TD*%
D34*
%TO.C,C16*%
X85837500Y-87900000D03*
X87562500Y-87900000D03*
%TD*%
D13*
%TO.C,C24*%
X66670000Y-105030000D03*
X66670000Y-103305000D03*
%TD*%
%TO.C,C6*%
X91425000Y-98275000D03*
X91425000Y-96550000D03*
%TD*%
D20*
%TO.C,C24*%
X64862500Y-106700000D03*
X63137500Y-106700000D03*
%TD*%
G36*
X52234901Y-72692751D02*
G01*
X52245433Y-72693413D01*
X52686207Y-72739741D01*
X52696646Y-72741283D01*
X53131970Y-72824325D01*
X53142244Y-72826734D01*
X53569116Y-72945918D01*
X53579152Y-72949180D01*
X53994551Y-73103666D01*
X54004279Y-73107755D01*
X54405280Y-73296452D01*
X54414632Y-73301341D01*
X54798441Y-73522933D01*
X54807351Y-73528587D01*
X55171281Y-73781525D01*
X55179686Y-73787905D01*
X55521166Y-74070402D01*
X55529009Y-74077463D01*
X55845656Y-74387547D01*
X55852879Y-74395240D01*
X56142465Y-74730728D01*
X56149020Y-74738998D01*
X56409521Y-75097547D01*
X56415361Y-75106337D01*
X56644942Y-75485420D01*
X56650026Y-75494667D01*
X56847085Y-75891640D01*
X56851377Y-75901280D01*
X57014528Y-76313352D01*
X57017998Y-76323318D01*
X57146089Y-76747578D01*
X57148714Y-76757799D01*
X57240862Y-77191320D01*
X57242621Y-77201725D01*
X57298166Y-77641409D01*
X57299049Y-77651925D01*
X57317608Y-78094724D01*
X57317608Y-78105276D01*
X57299049Y-78548075D01*
X57298166Y-78558591D01*
X57282573Y-78682026D01*
X57284876Y-78696306D01*
X57297868Y-78700000D01*
X57393402Y-78700000D01*
X57461523Y-78720002D01*
X57508016Y-78773658D01*
X57518408Y-78841792D01*
X57494287Y-79032733D01*
X57493516Y-79037958D01*
X57490849Y-79053723D01*
X57489861Y-79058903D01*
X57396615Y-79497591D01*
X57395409Y-79502731D01*
X57391429Y-79518231D01*
X57390010Y-79523312D01*
X57260397Y-79952614D01*
X57258765Y-79957637D01*
X57253497Y-79972763D01*
X57251659Y-79977706D01*
X57086564Y-80394688D01*
X57084520Y-80399549D01*
X57078022Y-80414145D01*
X57075773Y-80418924D01*
X57020622Y-80530024D01*
X56972417Y-80582147D01*
X56907763Y-80600000D01*
X56720429Y-80600000D01*
X56704130Y-80604786D01*
X56694721Y-80615297D01*
X56650026Y-80705333D01*
X56644942Y-80714580D01*
X56415361Y-81093663D01*
X56409521Y-81102453D01*
X56149020Y-81461002D01*
X56142465Y-81469272D01*
X55852879Y-81804760D01*
X55845656Y-81812453D01*
X55529009Y-82122537D01*
X55521166Y-82129598D01*
X55179686Y-82412095D01*
X55171281Y-82418475D01*
X54807351Y-82671413D01*
X54798441Y-82677067D01*
X54418582Y-82896378D01*
X54404215Y-82909116D01*
X54400000Y-82923781D01*
X54400000Y-83106787D01*
X54379998Y-83174908D01*
X54327649Y-83220795D01*
X54110029Y-83323200D01*
X54105204Y-83325348D01*
X54090475Y-83331539D01*
X54085571Y-83333481D01*
X53665194Y-83489818D01*
X53660210Y-83491553D01*
X53645040Y-83496482D01*
X53639988Y-83498007D01*
X53207993Y-83618622D01*
X53202880Y-83619935D01*
X53187330Y-83623582D01*
X53182169Y-83624679D01*
X52741642Y-83708714D01*
X52736441Y-83709594D01*
X52720624Y-83711930D01*
X52715386Y-83712592D01*
X52639171Y-83720603D01*
X52569333Y-83707831D01*
X52517486Y-83659330D01*
X52500000Y-83595293D01*
X52500000Y-83585166D01*
X52520002Y-83517045D01*
X52541956Y-83495980D01*
X52540847Y-83494936D01*
X52560049Y-83474542D01*
X52555326Y-83474016D01*
X52245433Y-83506587D01*
X52234901Y-83507249D01*
X51791818Y-83516530D01*
X51781268Y-83516309D01*
X51338955Y-83488482D01*
X51328459Y-83487379D01*
X50890027Y-83422636D01*
X50879662Y-83420659D01*
X50448178Y-83319455D01*
X50438014Y-83316617D01*
X50016523Y-83179667D01*
X50006632Y-83175989D01*
X49598069Y-83004244D01*
X49588521Y-82999751D01*
X49195760Y-82794422D01*
X49186621Y-82789145D01*
X48812439Y-82551681D01*
X48803774Y-82545659D01*
X48450744Y-82277695D01*
X48442613Y-82270968D01*
X48113273Y-81974429D01*
X48105733Y-81967046D01*
X47802345Y-81643970D01*
X47795450Y-81635982D01*
X47520163Y-81288657D01*
X47513960Y-81280119D01*
X47268709Y-80910986D01*
X47263242Y-80901960D01*
X47049731Y-80513585D01*
X47045039Y-80504133D01*
X46864774Y-80099252D01*
X46860890Y-80089440D01*
X46715144Y-79670912D01*
X46712094Y-79660810D01*
X46601877Y-79231545D01*
X46599683Y-79221223D01*
X46525773Y-78784245D01*
X46524450Y-78773775D01*
X46487365Y-78332139D01*
X46486923Y-78321596D01*
X46486923Y-78105189D01*
X50400430Y-78105189D01*
X50420027Y-78341696D01*
X50421739Y-78351951D01*
X50479994Y-78581996D01*
X50483367Y-78591821D01*
X50578695Y-78809147D01*
X50583638Y-78818282D01*
X50713439Y-79016957D01*
X50719818Y-79025153D01*
X50880549Y-79199752D01*
X50888189Y-79206786D01*
X51075468Y-79352551D01*
X51084160Y-79358230D01*
X51292872Y-79471179D01*
X51302389Y-79475353D01*
X51526844Y-79552408D01*
X51536914Y-79554958D01*
X51770991Y-79594019D01*
X51781339Y-79594877D01*
X52018661Y-79594877D01*
X52029009Y-79594019D01*
X52263086Y-79554958D01*
X52273156Y-79552408D01*
X52497611Y-79475353D01*
X52507128Y-79471179D01*
X52715840Y-79358230D01*
X52724532Y-79352551D01*
X52911811Y-79206786D01*
X52919451Y-79199752D01*
X53080182Y-79025153D01*
X53086561Y-79016957D01*
X53216362Y-78818282D01*
X53221305Y-78809147D01*
X53316633Y-78591821D01*
X53320006Y-78581996D01*
X53378261Y-78351951D01*
X53379973Y-78341696D01*
X53399570Y-78105189D01*
X53399570Y-78094811D01*
X53379973Y-77858304D01*
X53378261Y-77848049D01*
X53320006Y-77618004D01*
X53316633Y-77608179D01*
X53221305Y-77390853D01*
X53216362Y-77381718D01*
X53086561Y-77183043D01*
X53080182Y-77174847D01*
X52919451Y-77000248D01*
X52911811Y-76993214D01*
X52724532Y-76847449D01*
X52715840Y-76841770D01*
X52507128Y-76728821D01*
X52497611Y-76724647D01*
X52273156Y-76647592D01*
X52263086Y-76645042D01*
X52029009Y-76605981D01*
X52018661Y-76605123D01*
X51781339Y-76605123D01*
X51770991Y-76605981D01*
X51536914Y-76645042D01*
X51526844Y-76647592D01*
X51302389Y-76724647D01*
X51292872Y-76728821D01*
X51084160Y-76841770D01*
X51075468Y-76847449D01*
X50888189Y-76993214D01*
X50880549Y-77000248D01*
X50719818Y-77174847D01*
X50713439Y-77183043D01*
X50583638Y-77381718D01*
X50578695Y-77390853D01*
X50483367Y-77608179D01*
X50479994Y-77618004D01*
X50421739Y-77848049D01*
X50420027Y-77858304D01*
X50400430Y-78094811D01*
X50400430Y-78105189D01*
X46486923Y-78105189D01*
X46486923Y-77878404D01*
X46487365Y-77867861D01*
X46524450Y-77426225D01*
X46525773Y-77415755D01*
X46599683Y-76978777D01*
X46601877Y-76968455D01*
X46712094Y-76539190D01*
X46715144Y-76529088D01*
X46860890Y-76110560D01*
X46864774Y-76100748D01*
X47045039Y-75695867D01*
X47049731Y-75686415D01*
X47263242Y-75298040D01*
X47268709Y-75289014D01*
X47513960Y-74919881D01*
X47520163Y-74911343D01*
X47795450Y-74564018D01*
X47802345Y-74556030D01*
X48105733Y-74232954D01*
X48113273Y-74225571D01*
X48442613Y-73929032D01*
X48450744Y-73922305D01*
X48803774Y-73654341D01*
X48812439Y-73648319D01*
X49186622Y-73410855D01*
X49195761Y-73405578D01*
X49588521Y-73200249D01*
X49598069Y-73195756D01*
X50006632Y-73024011D01*
X50016523Y-73020333D01*
X50438014Y-72883383D01*
X50448178Y-72880545D01*
X50879662Y-72779341D01*
X50890027Y-72777364D01*
X51328459Y-72712621D01*
X51338955Y-72711518D01*
X51781268Y-72683691D01*
X51791818Y-72683470D01*
X52234901Y-72692751D01*
G37*
G36*
X52697557Y-119587408D02*
G01*
X52702795Y-119588070D01*
X52718612Y-119590406D01*
X52723813Y-119591286D01*
X53164340Y-119675321D01*
X53169501Y-119676418D01*
X53185051Y-119680065D01*
X53190164Y-119681378D01*
X53622159Y-119801993D01*
X53627211Y-119803518D01*
X53642381Y-119808447D01*
X53647365Y-119810182D01*
X54067742Y-119966519D01*
X54072646Y-119968461D01*
X54087375Y-119974652D01*
X54092200Y-119976800D01*
X54327649Y-120087595D01*
X54380769Y-120134698D01*
X54400000Y-120201603D01*
X54400000Y-120385072D01*
X54405386Y-120403416D01*
X54413046Y-120410719D01*
X54780612Y-120622933D01*
X54789522Y-120628587D01*
X55153452Y-120881525D01*
X55161857Y-120887905D01*
X55503337Y-121170402D01*
X55511180Y-121177463D01*
X55827827Y-121487547D01*
X55835050Y-121495240D01*
X56124636Y-121830728D01*
X56131191Y-121838998D01*
X56391692Y-122197547D01*
X56397532Y-122206337D01*
X56627113Y-122585420D01*
X56632197Y-122594667D01*
X56676430Y-122683774D01*
X56687964Y-122696245D01*
X56701562Y-122700000D01*
X56889934Y-122700000D01*
X56958055Y-122720002D01*
X57002793Y-122769976D01*
X57057944Y-122881076D01*
X57060193Y-122885855D01*
X57066691Y-122900451D01*
X57068735Y-122905312D01*
X57233830Y-123322294D01*
X57235668Y-123327237D01*
X57240936Y-123342363D01*
X57242568Y-123347386D01*
X57372181Y-123776688D01*
X57373600Y-123781769D01*
X57377580Y-123797269D01*
X57378786Y-123802409D01*
X57472032Y-124241097D01*
X57473020Y-124246277D01*
X57475687Y-124262042D01*
X57476458Y-124267267D01*
X57500579Y-124458208D01*
X57489273Y-124528299D01*
X57441867Y-124581150D01*
X57375573Y-124600000D01*
X57280588Y-124600000D01*
X57266711Y-124604075D01*
X57264674Y-124617426D01*
X57280337Y-124741409D01*
X57281220Y-124751925D01*
X57299779Y-125194724D01*
X57299779Y-125205276D01*
X57281220Y-125648075D01*
X57280337Y-125658591D01*
X57224792Y-126098275D01*
X57223033Y-126108680D01*
X57130885Y-126542201D01*
X57128260Y-126552422D01*
X57000169Y-126976682D01*
X56996699Y-126986648D01*
X56833548Y-127398720D01*
X56829256Y-127408360D01*
X56632197Y-127805333D01*
X56627113Y-127814580D01*
X56397532Y-128193663D01*
X56391692Y-128202453D01*
X56131191Y-128561002D01*
X56124636Y-128569272D01*
X55835050Y-128904760D01*
X55827827Y-128912453D01*
X55511180Y-129222537D01*
X55503337Y-129229598D01*
X55161857Y-129512095D01*
X55153452Y-129518475D01*
X54789522Y-129771413D01*
X54780612Y-129777067D01*
X54396803Y-129998659D01*
X54387451Y-130003548D01*
X53986450Y-130192245D01*
X53976722Y-130196334D01*
X53561323Y-130350820D01*
X53551287Y-130354082D01*
X53124415Y-130473266D01*
X53114141Y-130475675D01*
X52678817Y-130558717D01*
X52668378Y-130560259D01*
X52227604Y-130606587D01*
X52217072Y-130607249D01*
X51773989Y-130616530D01*
X51763439Y-130616309D01*
X51321126Y-130588482D01*
X51310630Y-130587379D01*
X50872198Y-130522636D01*
X50861833Y-130520659D01*
X50430349Y-130419455D01*
X50420185Y-130416617D01*
X49998694Y-130279667D01*
X49988803Y-130275989D01*
X49580240Y-130104244D01*
X49570692Y-130099751D01*
X49177931Y-129894422D01*
X49168792Y-129889145D01*
X48794610Y-129651681D01*
X48785945Y-129645659D01*
X48432915Y-129377695D01*
X48424784Y-129370968D01*
X48095444Y-129074429D01*
X48087904Y-129067046D01*
X47784516Y-128743970D01*
X47777621Y-128735982D01*
X47502334Y-128388657D01*
X47496131Y-128380119D01*
X47250880Y-128010986D01*
X47245413Y-128001960D01*
X47031902Y-127613585D01*
X47027210Y-127604133D01*
X46846945Y-127199252D01*
X46843061Y-127189440D01*
X46697315Y-126770912D01*
X46694265Y-126760810D01*
X46584048Y-126331545D01*
X46581854Y-126321223D01*
X46507944Y-125884245D01*
X46506621Y-125873775D01*
X46469536Y-125432139D01*
X46469094Y-125421596D01*
X46469094Y-125205189D01*
X50400430Y-125205189D01*
X50420027Y-125441696D01*
X50421739Y-125451951D01*
X50479994Y-125681996D01*
X50483367Y-125691821D01*
X50578695Y-125909147D01*
X50583638Y-125918282D01*
X50713439Y-126116957D01*
X50719818Y-126125153D01*
X50880549Y-126299752D01*
X50888189Y-126306786D01*
X51075468Y-126452551D01*
X51084160Y-126458230D01*
X51292872Y-126571179D01*
X51302389Y-126575353D01*
X51526844Y-126652408D01*
X51536914Y-126654958D01*
X51770991Y-126694019D01*
X51781339Y-126694877D01*
X52018661Y-126694877D01*
X52029009Y-126694019D01*
X52263086Y-126654958D01*
X52273156Y-126652408D01*
X52497611Y-126575353D01*
X52507128Y-126571179D01*
X52715840Y-126458230D01*
X52724532Y-126452551D01*
X52911811Y-126306786D01*
X52919451Y-126299752D01*
X53080182Y-126125153D01*
X53086561Y-126116957D01*
X53216362Y-125918282D01*
X53221305Y-125909147D01*
X53316633Y-125691821D01*
X53320006Y-125681996D01*
X53378261Y-125451951D01*
X53379973Y-125441696D01*
X53399570Y-125205189D01*
X53399570Y-125194811D01*
X53379973Y-124958304D01*
X53378261Y-124948049D01*
X53320006Y-124718004D01*
X53316633Y-124708179D01*
X53221305Y-124490853D01*
X53216362Y-124481718D01*
X53086561Y-124283043D01*
X53080182Y-124274847D01*
X52919451Y-124100248D01*
X52911811Y-124093214D01*
X52724532Y-123947449D01*
X52715840Y-123941770D01*
X52507128Y-123828821D01*
X52497611Y-123824647D01*
X52273156Y-123747592D01*
X52263086Y-123745042D01*
X52029009Y-123705981D01*
X52018661Y-123705123D01*
X51781339Y-123705123D01*
X51770991Y-123705981D01*
X51536914Y-123745042D01*
X51526844Y-123747592D01*
X51302389Y-123824647D01*
X51292872Y-123828821D01*
X51084160Y-123941770D01*
X51075468Y-123947449D01*
X50888189Y-124093214D01*
X50880549Y-124100248D01*
X50719818Y-124274847D01*
X50713439Y-124283043D01*
X50583638Y-124481718D01*
X50578695Y-124490853D01*
X50483367Y-124708179D01*
X50479994Y-124718004D01*
X50421739Y-124948049D01*
X50420027Y-124958304D01*
X50400430Y-125194811D01*
X50400430Y-125205189D01*
X46469094Y-125205189D01*
X46469094Y-124978404D01*
X46469536Y-124967861D01*
X46506621Y-124526225D01*
X46507944Y-124515755D01*
X46581854Y-124078777D01*
X46584048Y-124068455D01*
X46694265Y-123639190D01*
X46697315Y-123629088D01*
X46843061Y-123210560D01*
X46846945Y-123200748D01*
X47027210Y-122795867D01*
X47031902Y-122786415D01*
X47245413Y-122398040D01*
X47250880Y-122389014D01*
X47496131Y-122019881D01*
X47502334Y-122011343D01*
X47777621Y-121664018D01*
X47784516Y-121656030D01*
X48087904Y-121332954D01*
X48095444Y-121325571D01*
X48424784Y-121029032D01*
X48432915Y-121022305D01*
X48785945Y-120754341D01*
X48794610Y-120748319D01*
X49168793Y-120510855D01*
X49177932Y-120505578D01*
X49570692Y-120300249D01*
X49580240Y-120295756D01*
X49988803Y-120124011D01*
X49998694Y-120120333D01*
X50420185Y-119983383D01*
X50430349Y-119980545D01*
X50861833Y-119879341D01*
X50872198Y-119877364D01*
X51310630Y-119812621D01*
X51321126Y-119811518D01*
X51763439Y-119783691D01*
X51773989Y-119783470D01*
X52217073Y-119792751D01*
X52227605Y-119793413D01*
X52481986Y-119820150D01*
X52496636Y-119817470D01*
X52500000Y-119805151D01*
X52500000Y-119706581D01*
X52520002Y-119638460D01*
X52573658Y-119591967D01*
X52639171Y-119581271D01*
X52697557Y-119587408D01*
G37*
G36*
X123117072Y-72692751D02*
G01*
X123127604Y-72693413D01*
X123568378Y-72739741D01*
X123578817Y-72741283D01*
X124014141Y-72824325D01*
X124024415Y-72826734D01*
X124451287Y-72945918D01*
X124461323Y-72949180D01*
X124876722Y-73103666D01*
X124886450Y-73107755D01*
X125287451Y-73296452D01*
X125296803Y-73301341D01*
X125680612Y-73522933D01*
X125689522Y-73528587D01*
X126053452Y-73781525D01*
X126061857Y-73787905D01*
X126403337Y-74070402D01*
X126411180Y-74077463D01*
X126727827Y-74387547D01*
X126735050Y-74395240D01*
X127024636Y-74730728D01*
X127031191Y-74738998D01*
X127291692Y-75097547D01*
X127297532Y-75106337D01*
X127527113Y-75485420D01*
X127532197Y-75494667D01*
X127729256Y-75891640D01*
X127733548Y-75901280D01*
X127896699Y-76313352D01*
X127900169Y-76323318D01*
X128028260Y-76747578D01*
X128030885Y-76757799D01*
X128123033Y-77191320D01*
X128124792Y-77201725D01*
X128180337Y-77641409D01*
X128181220Y-77651925D01*
X128199779Y-78094724D01*
X128199779Y-78105276D01*
X128181220Y-78548075D01*
X128180337Y-78558591D01*
X128124792Y-78998275D01*
X128123033Y-79008680D01*
X128030885Y-79442201D01*
X128028260Y-79452422D01*
X127900169Y-79876682D01*
X127896699Y-79886648D01*
X127733548Y-80298720D01*
X127729256Y-80308360D01*
X127532197Y-80705333D01*
X127527113Y-80714580D01*
X127297532Y-81093663D01*
X127291692Y-81102453D01*
X127031191Y-81461002D01*
X127024636Y-81469272D01*
X126735050Y-81804760D01*
X126727827Y-81812453D01*
X126411180Y-82122537D01*
X126403337Y-82129598D01*
X126061857Y-82412095D01*
X126053452Y-82418475D01*
X125689522Y-82671413D01*
X125680612Y-82677067D01*
X125296803Y-82898659D01*
X125287451Y-82903548D01*
X124886450Y-83092245D01*
X124876722Y-83096334D01*
X124461323Y-83250820D01*
X124451287Y-83254082D01*
X124024415Y-83373266D01*
X124014141Y-83375675D01*
X123578817Y-83458717D01*
X123568378Y-83460259D01*
X123127604Y-83506587D01*
X123117072Y-83507249D01*
X122673989Y-83516530D01*
X122663439Y-83516309D01*
X122221126Y-83488482D01*
X122210630Y-83487379D01*
X121772198Y-83422636D01*
X121761833Y-83420659D01*
X121330349Y-83319455D01*
X121320185Y-83316617D01*
X120898694Y-83179667D01*
X120888803Y-83175989D01*
X120480240Y-83004244D01*
X120470692Y-82999751D01*
X120077931Y-82794422D01*
X120068792Y-82789145D01*
X119694610Y-82551681D01*
X119685945Y-82545659D01*
X119332915Y-82277695D01*
X119324784Y-82270968D01*
X118995444Y-81974429D01*
X118987904Y-81967046D01*
X118684516Y-81643970D01*
X118677621Y-81635982D01*
X118402334Y-81288657D01*
X118396131Y-81280119D01*
X118150880Y-80910986D01*
X118145413Y-80901960D01*
X117931902Y-80513585D01*
X117927210Y-80504133D01*
X117746945Y-80099252D01*
X117743061Y-80089440D01*
X117597315Y-79670912D01*
X117594265Y-79660810D01*
X117484048Y-79231545D01*
X117481854Y-79221223D01*
X117407944Y-78784245D01*
X117406621Y-78773775D01*
X117369536Y-78332139D01*
X117369094Y-78321596D01*
X117369094Y-78105189D01*
X121300430Y-78105189D01*
X121320027Y-78341696D01*
X121321739Y-78351951D01*
X121379994Y-78581996D01*
X121383367Y-78591821D01*
X121478695Y-78809147D01*
X121483638Y-78818282D01*
X121613439Y-79016957D01*
X121619818Y-79025153D01*
X121780549Y-79199752D01*
X121788189Y-79206786D01*
X121975468Y-79352551D01*
X121984160Y-79358230D01*
X122192872Y-79471179D01*
X122202389Y-79475353D01*
X122426844Y-79552408D01*
X122436914Y-79554958D01*
X122670991Y-79594019D01*
X122681339Y-79594877D01*
X122918661Y-79594877D01*
X122929009Y-79594019D01*
X123163086Y-79554958D01*
X123173156Y-79552408D01*
X123397611Y-79475353D01*
X123407128Y-79471179D01*
X123615840Y-79358230D01*
X123624532Y-79352551D01*
X123811811Y-79206786D01*
X123819451Y-79199752D01*
X123980182Y-79025153D01*
X123986561Y-79016957D01*
X124116362Y-78818282D01*
X124121305Y-78809147D01*
X124216633Y-78591821D01*
X124220006Y-78581996D01*
X124278261Y-78351951D01*
X124279973Y-78341696D01*
X124299570Y-78105189D01*
X124299570Y-78094811D01*
X124279973Y-77858304D01*
X124278261Y-77848049D01*
X124220006Y-77618004D01*
X124216633Y-77608179D01*
X124121305Y-77390853D01*
X124116362Y-77381718D01*
X123986561Y-77183043D01*
X123980182Y-77174847D01*
X123819451Y-77000248D01*
X123811811Y-76993214D01*
X123624532Y-76847449D01*
X123615840Y-76841770D01*
X123407128Y-76728821D01*
X123397611Y-76724647D01*
X123173156Y-76647592D01*
X123163086Y-76645042D01*
X122929009Y-76605981D01*
X122918661Y-76605123D01*
X122681339Y-76605123D01*
X122670991Y-76605981D01*
X122436914Y-76645042D01*
X122426844Y-76647592D01*
X122202389Y-76724647D01*
X122192872Y-76728821D01*
X121984160Y-76841770D01*
X121975468Y-76847449D01*
X121788189Y-76993214D01*
X121780549Y-77000248D01*
X121619818Y-77174847D01*
X121613439Y-77183043D01*
X121483638Y-77381718D01*
X121478695Y-77390853D01*
X121383367Y-77608179D01*
X121379994Y-77618004D01*
X121321739Y-77848049D01*
X121320027Y-77858304D01*
X121300430Y-78094811D01*
X121300430Y-78105189D01*
X117369094Y-78105189D01*
X117369094Y-77878404D01*
X117369536Y-77867861D01*
X117406621Y-77426225D01*
X117407944Y-77415755D01*
X117481854Y-76978777D01*
X117484048Y-76968455D01*
X117594265Y-76539190D01*
X117597315Y-76529088D01*
X117743061Y-76110560D01*
X117746945Y-76100748D01*
X117927210Y-75695867D01*
X117931902Y-75686415D01*
X118145413Y-75298040D01*
X118150880Y-75289014D01*
X118396131Y-74919881D01*
X118402334Y-74911343D01*
X118677621Y-74564018D01*
X118684516Y-74556030D01*
X118987904Y-74232954D01*
X118995444Y-74225571D01*
X119324784Y-73929032D01*
X119332915Y-73922305D01*
X119685945Y-73654341D01*
X119694610Y-73648319D01*
X120068793Y-73410855D01*
X120077932Y-73405578D01*
X120470692Y-73200249D01*
X120480240Y-73195756D01*
X120888803Y-73024011D01*
X120898694Y-73020333D01*
X121320185Y-72883383D01*
X121330349Y-72880545D01*
X121761833Y-72779341D01*
X121772198Y-72777364D01*
X122210630Y-72712621D01*
X122221126Y-72711518D01*
X122663439Y-72683691D01*
X122673989Y-72683470D01*
X123117072Y-72692751D01*
G37*
G36*
X123117072Y-119792751D02*
G01*
X123127604Y-119793413D01*
X123568378Y-119839741D01*
X123578817Y-119841283D01*
X124014141Y-119924325D01*
X124024415Y-119926734D01*
X124451287Y-120045918D01*
X124461323Y-120049180D01*
X124876722Y-120203666D01*
X124886450Y-120207755D01*
X125287451Y-120396452D01*
X125296803Y-120401341D01*
X125680612Y-120622933D01*
X125689522Y-120628587D01*
X126053452Y-120881525D01*
X126061857Y-120887905D01*
X126403337Y-121170402D01*
X126411180Y-121177463D01*
X126727827Y-121487547D01*
X126735050Y-121495240D01*
X127024636Y-121830728D01*
X127031191Y-121838998D01*
X127291692Y-122197547D01*
X127297532Y-122206337D01*
X127527113Y-122585420D01*
X127532197Y-122594667D01*
X127729256Y-122991640D01*
X127733548Y-123001280D01*
X127896699Y-123413352D01*
X127900169Y-123423318D01*
X128028260Y-123847578D01*
X128030885Y-123857799D01*
X128123033Y-124291320D01*
X128124792Y-124301725D01*
X128180337Y-124741409D01*
X128181220Y-124751925D01*
X128199779Y-125194724D01*
X128199779Y-125205276D01*
X128181220Y-125648075D01*
X128180337Y-125658591D01*
X128124792Y-126098275D01*
X128123033Y-126108680D01*
X128030885Y-126542201D01*
X128028260Y-126552422D01*
X127900169Y-126976682D01*
X127896699Y-126986648D01*
X127733548Y-127398720D01*
X127729256Y-127408360D01*
X127532197Y-127805333D01*
X127527113Y-127814580D01*
X127297532Y-128193663D01*
X127291692Y-128202453D01*
X127031191Y-128561002D01*
X127024636Y-128569272D01*
X126735050Y-128904760D01*
X126727827Y-128912453D01*
X126411180Y-129222537D01*
X126403337Y-129229598D01*
X126061857Y-129512095D01*
X126053452Y-129518475D01*
X125689522Y-129771413D01*
X125680612Y-129777067D01*
X125296803Y-129998659D01*
X125287451Y-130003548D01*
X124886450Y-130192245D01*
X124876722Y-130196334D01*
X124461323Y-130350820D01*
X124451287Y-130354082D01*
X124024415Y-130473266D01*
X124014141Y-130475675D01*
X123578817Y-130558717D01*
X123568378Y-130560259D01*
X123127604Y-130606587D01*
X123117072Y-130607249D01*
X122673989Y-130616530D01*
X122663439Y-130616309D01*
X122221126Y-130588482D01*
X122210630Y-130587379D01*
X121772198Y-130522636D01*
X121761833Y-130520659D01*
X121330349Y-130419455D01*
X121320185Y-130416617D01*
X120898694Y-130279667D01*
X120888803Y-130275989D01*
X120480240Y-130104244D01*
X120470692Y-130099751D01*
X120077931Y-129894422D01*
X120068792Y-129889145D01*
X119694610Y-129651681D01*
X119685945Y-129645659D01*
X119332915Y-129377695D01*
X119324784Y-129370968D01*
X118995444Y-129074429D01*
X118987904Y-129067046D01*
X118684516Y-128743970D01*
X118677621Y-128735982D01*
X118402334Y-128388657D01*
X118396131Y-128380119D01*
X118150880Y-128010986D01*
X118145413Y-128001960D01*
X117931902Y-127613585D01*
X117927210Y-127604133D01*
X117746945Y-127199252D01*
X117743061Y-127189440D01*
X117597315Y-126770912D01*
X117594265Y-126760810D01*
X117484048Y-126331545D01*
X117481854Y-126321223D01*
X117407944Y-125884245D01*
X117406621Y-125873775D01*
X117369536Y-125432139D01*
X117369094Y-125421596D01*
X117369094Y-125205189D01*
X121300430Y-125205189D01*
X121320027Y-125441696D01*
X121321739Y-125451951D01*
X121379994Y-125681996D01*
X121383367Y-125691821D01*
X121478695Y-125909147D01*
X121483638Y-125918282D01*
X121613439Y-126116957D01*
X121619818Y-126125153D01*
X121780549Y-126299752D01*
X121788189Y-126306786D01*
X121975468Y-126452551D01*
X121984160Y-126458230D01*
X122192872Y-126571179D01*
X122202389Y-126575353D01*
X122426844Y-126652408D01*
X122436914Y-126654958D01*
X122670991Y-126694019D01*
X122681339Y-126694877D01*
X122918661Y-126694877D01*
X122929009Y-126694019D01*
X123163086Y-126654958D01*
X123173156Y-126652408D01*
X123397611Y-126575353D01*
X123407128Y-126571179D01*
X123615840Y-126458230D01*
X123624532Y-126452551D01*
X123811811Y-126306786D01*
X123819451Y-126299752D01*
X123980182Y-126125153D01*
X123986561Y-126116957D01*
X124116362Y-125918282D01*
X124121305Y-125909147D01*
X124216633Y-125691821D01*
X124220006Y-125681996D01*
X124278261Y-125451951D01*
X124279973Y-125441696D01*
X124299570Y-125205189D01*
X124299570Y-125194811D01*
X124279973Y-124958304D01*
X124278261Y-124948049D01*
X124220006Y-124718004D01*
X124216633Y-124708179D01*
X124121305Y-124490853D01*
X124116362Y-124481718D01*
X123986561Y-124283043D01*
X123980182Y-124274847D01*
X123819451Y-124100248D01*
X123811811Y-124093214D01*
X123624532Y-123947449D01*
X123615840Y-123941770D01*
X123407128Y-123828821D01*
X123397611Y-123824647D01*
X123173156Y-123747592D01*
X123163086Y-123745042D01*
X122929009Y-123705981D01*
X122918661Y-123705123D01*
X122681339Y-123705123D01*
X122670991Y-123705981D01*
X122436914Y-123745042D01*
X122426844Y-123747592D01*
X122202389Y-123824647D01*
X122192872Y-123828821D01*
X121984160Y-123941770D01*
X121975468Y-123947449D01*
X121788189Y-124093214D01*
X121780549Y-124100248D01*
X121619818Y-124274847D01*
X121613439Y-124283043D01*
X121483638Y-124481718D01*
X121478695Y-124490853D01*
X121383367Y-124708179D01*
X121379994Y-124718004D01*
X121321739Y-124948049D01*
X121320027Y-124958304D01*
X121300430Y-125194811D01*
X121300430Y-125205189D01*
X117369094Y-125205189D01*
X117369094Y-124978404D01*
X117369536Y-124967861D01*
X117406621Y-124526225D01*
X117407944Y-124515755D01*
X117481854Y-124078777D01*
X117484048Y-124068455D01*
X117594265Y-123639190D01*
X117597315Y-123629088D01*
X117743061Y-123210560D01*
X117746945Y-123200748D01*
X117927210Y-122795867D01*
X117931902Y-122786415D01*
X118145413Y-122398040D01*
X118150880Y-122389014D01*
X118396131Y-122019881D01*
X118402334Y-122011343D01*
X118677621Y-121664018D01*
X118684516Y-121656030D01*
X118987904Y-121332954D01*
X118995444Y-121325571D01*
X119324784Y-121029032D01*
X119332915Y-121022305D01*
X119685945Y-120754341D01*
X119694610Y-120748319D01*
X120068793Y-120510855D01*
X120077932Y-120505578D01*
X120470692Y-120300249D01*
X120480240Y-120295756D01*
X120888803Y-120124011D01*
X120898694Y-120120333D01*
X121320185Y-119983383D01*
X121330349Y-119980545D01*
X121761833Y-119879341D01*
X121772198Y-119877364D01*
X122210630Y-119812621D01*
X122221126Y-119811518D01*
X122663439Y-119783691D01*
X122673989Y-119783470D01*
X123117072Y-119792751D01*
G37*
G36*
X56539800Y-122466002D02*
G01*
X56579455Y-122506728D01*
X56627116Y-122585425D01*
X56632200Y-122594673D01*
X56676430Y-122683774D01*
X56687964Y-122696245D01*
X56701562Y-122700000D01*
X73174000Y-122700000D01*
X73242121Y-122720002D01*
X73288614Y-122773658D01*
X73300000Y-122826000D01*
X73300000Y-124474000D01*
X73279998Y-124542121D01*
X73226342Y-124588614D01*
X73174000Y-124600000D01*
X57280588Y-124600000D01*
X57266711Y-124604075D01*
X57264674Y-124617426D01*
X57276648Y-124712208D01*
X57265342Y-124782299D01*
X57217936Y-124835150D01*
X57151642Y-124854000D01*
X55803088Y-124854000D01*
X55796906Y-124853848D01*
X55781291Y-124853081D01*
X55768985Y-124851869D01*
X55756574Y-124850028D01*
X55744448Y-124847616D01*
X55732267Y-124844565D01*
X55720435Y-124840976D01*
X55708629Y-124836752D01*
X55697202Y-124832019D01*
X55685859Y-124826654D01*
X55674948Y-124820822D01*
X55664190Y-124814373D01*
X55653921Y-124807511D01*
X55643837Y-124800033D01*
X55634267Y-124792179D01*
X55624975Y-124783756D01*
X55616244Y-124775025D01*
X55607821Y-124765733D01*
X55599967Y-124756163D01*
X55592489Y-124746079D01*
X55585627Y-124735810D01*
X55579178Y-124725052D01*
X55573346Y-124714141D01*
X55567981Y-124702798D01*
X55563248Y-124691371D01*
X55559024Y-124679565D01*
X55555435Y-124667733D01*
X55552384Y-124655552D01*
X55549972Y-124643426D01*
X55548131Y-124631015D01*
X55546919Y-124618709D01*
X55546152Y-124603094D01*
X55546000Y-124596912D01*
X55546000Y-122703088D01*
X55546152Y-122696906D01*
X55546919Y-122681291D01*
X55548131Y-122668985D01*
X55549972Y-122656574D01*
X55552384Y-122644448D01*
X55555435Y-122632267D01*
X55559024Y-122620435D01*
X55563248Y-122608629D01*
X55567981Y-122597202D01*
X55573346Y-122585859D01*
X55579178Y-122574948D01*
X55585627Y-122564190D01*
X55592489Y-122553921D01*
X55599967Y-122543837D01*
X55607821Y-122534267D01*
X55616244Y-122524975D01*
X55624975Y-122516244D01*
X55634267Y-122507821D01*
X55643837Y-122499967D01*
X55653921Y-122492489D01*
X55664190Y-122485627D01*
X55674948Y-122479178D01*
X55685859Y-122473346D01*
X55697202Y-122467981D01*
X55708629Y-122463248D01*
X55720435Y-122459024D01*
X55732267Y-122455435D01*
X55744448Y-122452384D01*
X55756574Y-122449972D01*
X55768985Y-122448131D01*
X55781291Y-122446919D01*
X55796906Y-122446152D01*
X55803088Y-122446000D01*
X56471679Y-122446000D01*
X56539800Y-122466002D01*
G37*
G36*
X57237592Y-78466002D02*
G01*
X57284085Y-78519658D01*
X57294477Y-78587792D01*
X57282573Y-78682026D01*
X57284876Y-78696306D01*
X57297868Y-78700000D01*
X77874000Y-78700000D01*
X77942121Y-78720002D01*
X77988614Y-78773658D01*
X78000000Y-78826000D01*
X78000000Y-80474000D01*
X77979998Y-80542121D01*
X77926342Y-80588614D01*
X77874000Y-80600000D01*
X56720429Y-80600000D01*
X56704130Y-80604786D01*
X56694721Y-80615297D01*
X56650029Y-80705327D01*
X56644945Y-80714575D01*
X56597284Y-80793272D01*
X56544886Y-80841178D01*
X56489508Y-80854000D01*
X56303088Y-80854000D01*
X56296906Y-80853848D01*
X56281291Y-80853081D01*
X56268985Y-80851869D01*
X56256574Y-80850028D01*
X56244448Y-80847616D01*
X56232267Y-80844565D01*
X56220435Y-80840976D01*
X56208629Y-80836752D01*
X56197202Y-80832019D01*
X56185859Y-80826654D01*
X56174948Y-80820822D01*
X56164190Y-80814373D01*
X56153921Y-80807511D01*
X56143837Y-80800033D01*
X56134267Y-80792179D01*
X56124975Y-80783756D01*
X56116244Y-80775025D01*
X56107821Y-80765733D01*
X56099967Y-80756163D01*
X56092489Y-80746079D01*
X56085627Y-80735810D01*
X56079178Y-80725052D01*
X56073346Y-80714141D01*
X56067981Y-80702798D01*
X56063248Y-80691371D01*
X56059024Y-80679565D01*
X56055435Y-80667733D01*
X56052384Y-80655552D01*
X56049972Y-80643426D01*
X56048131Y-80631015D01*
X56046919Y-80618709D01*
X56046152Y-80603094D01*
X56046000Y-80596912D01*
X56046000Y-78703088D01*
X56046152Y-78696906D01*
X56046919Y-78681291D01*
X56048131Y-78668985D01*
X56049972Y-78656574D01*
X56052384Y-78644448D01*
X56055435Y-78632267D01*
X56059024Y-78620435D01*
X56063248Y-78608629D01*
X56067981Y-78597202D01*
X56073346Y-78585859D01*
X56079178Y-78574948D01*
X56085627Y-78564190D01*
X56092489Y-78553921D01*
X56099967Y-78543837D01*
X56107821Y-78534267D01*
X56116244Y-78524975D01*
X56124975Y-78516244D01*
X56134267Y-78507821D01*
X56143837Y-78499967D01*
X56153921Y-78492489D01*
X56164190Y-78485627D01*
X56174948Y-78479178D01*
X56185859Y-78473346D01*
X56197202Y-78467981D01*
X56208629Y-78463248D01*
X56220435Y-78459024D01*
X56232267Y-78455435D01*
X56244448Y-78452384D01*
X56256574Y-78449972D01*
X56268985Y-78448131D01*
X56281291Y-78446919D01*
X56296906Y-78446152D01*
X56303088Y-78446000D01*
X57169471Y-78446000D01*
X57237592Y-78466002D01*
G37*
G36*
X54408843Y-82146382D02*
G01*
X54421182Y-82147114D01*
X54433641Y-82148468D01*
X54445849Y-82150404D01*
X54458138Y-82152977D01*
X54470111Y-82156105D01*
X54482066Y-82159864D01*
X54493657Y-82164144D01*
X54505210Y-82169066D01*
X54516340Y-82174468D01*
X54527345Y-82180494D01*
X54537880Y-82186953D01*
X54548236Y-82194024D01*
X54558099Y-82201494D01*
X54567724Y-82209557D01*
X54576801Y-82217952D01*
X54585578Y-82226908D01*
X54593789Y-82236154D01*
X54601653Y-82245936D01*
X54608917Y-82255939D01*
X54615779Y-82266436D01*
X54622030Y-82277108D01*
X54627837Y-82288241D01*
X54633010Y-82299469D01*
X54637689Y-82311095D01*
X54641736Y-82322777D01*
X54645259Y-82334826D01*
X54648143Y-82346852D01*
X54650468Y-82359189D01*
X54652159Y-82371437D01*
X54653426Y-82385780D01*
X54653891Y-82394408D01*
X54653976Y-82398763D01*
X54654000Y-82401222D01*
X54654000Y-82687714D01*
X54633998Y-82755835D01*
X54591000Y-82796833D01*
X54418580Y-82896379D01*
X54404215Y-82909116D01*
X54400000Y-82923781D01*
X54400000Y-120385072D01*
X54405386Y-120403416D01*
X54413046Y-120410719D01*
X54591000Y-120513461D01*
X54639993Y-120564844D01*
X54654000Y-120622580D01*
X54654000Y-121096912D01*
X54653848Y-121103094D01*
X54653081Y-121118709D01*
X54651869Y-121131015D01*
X54650028Y-121143426D01*
X54647616Y-121155552D01*
X54644565Y-121167733D01*
X54640976Y-121179565D01*
X54636752Y-121191371D01*
X54632019Y-121202798D01*
X54626654Y-121214141D01*
X54620822Y-121225052D01*
X54614373Y-121235810D01*
X54607511Y-121246079D01*
X54600033Y-121256163D01*
X54592179Y-121265733D01*
X54583756Y-121275025D01*
X54575025Y-121283756D01*
X54565733Y-121292179D01*
X54556163Y-121300033D01*
X54546079Y-121307511D01*
X54535810Y-121314373D01*
X54525052Y-121320822D01*
X54514141Y-121326654D01*
X54502798Y-121332019D01*
X54491371Y-121336752D01*
X54479565Y-121340976D01*
X54467733Y-121344565D01*
X54455552Y-121347616D01*
X54443426Y-121350028D01*
X54431015Y-121351869D01*
X54418709Y-121353081D01*
X54403094Y-121353848D01*
X54396912Y-121354000D01*
X52503088Y-121354000D01*
X52496906Y-121353848D01*
X52481291Y-121353081D01*
X52468985Y-121351869D01*
X52456574Y-121350028D01*
X52444448Y-121347616D01*
X52432267Y-121344565D01*
X52420435Y-121340976D01*
X52408629Y-121336752D01*
X52397202Y-121332019D01*
X52385859Y-121326654D01*
X52374948Y-121320822D01*
X52364190Y-121314373D01*
X52353921Y-121307511D01*
X52343837Y-121300033D01*
X52334267Y-121292179D01*
X52324975Y-121283756D01*
X52316244Y-121275025D01*
X52307821Y-121265733D01*
X52299967Y-121256163D01*
X52292489Y-121246079D01*
X52285627Y-121235810D01*
X52279178Y-121225052D01*
X52273346Y-121214141D01*
X52267981Y-121202798D01*
X52263248Y-121191371D01*
X52259024Y-121179565D01*
X52255435Y-121167733D01*
X52252384Y-121155552D01*
X52249972Y-121143426D01*
X52248131Y-121131015D01*
X52246919Y-121118709D01*
X52246152Y-121103094D01*
X52246000Y-121096912D01*
X52246000Y-119935284D01*
X52266002Y-119867163D01*
X52319658Y-119820670D01*
X52385170Y-119809974D01*
X52481985Y-119820150D01*
X52496636Y-119817470D01*
X52500000Y-119805151D01*
X52500000Y-83585166D01*
X52520002Y-83517045D01*
X52541956Y-83495980D01*
X52540847Y-83494936D01*
X52560049Y-83474542D01*
X52555327Y-83474016D01*
X52537032Y-83475939D01*
X52467193Y-83463168D01*
X52415346Y-83414667D01*
X52397950Y-83345834D01*
X52420530Y-83278524D01*
X52460174Y-83241908D01*
X54268946Y-82182398D01*
X54274362Y-82179402D01*
X54288243Y-82172162D01*
X54299469Y-82166990D01*
X54311095Y-82162311D01*
X54322777Y-82158264D01*
X54334826Y-82154741D01*
X54346852Y-82151857D01*
X54359189Y-82149532D01*
X54371433Y-82147841D01*
X54383915Y-82146738D01*
X54396280Y-82146255D01*
X54408843Y-82146382D01*
G37*
M02*
