%TF.GenerationSoftware,KiCad,Pcbnew,(7.0.0)*%
%TF.CreationDate,2023-05-19T00:06:10+02:00*%
%TF.ProjectId,Apollo - DSP,41706f6c-6c6f-4202-9d20-4453502e6b69,rev?*%
%TF.SameCoordinates,Original*%
%TF.FileFunction,Legend,Bot*%
%TF.FilePolarity,Positive*%
%FSLAX46Y46*%
G04 Gerber Fmt 4.6, Leading zero omitted, Abs format (unit mm)*
G04 Created by KiCad (PCBNEW (7.0.0)) date 2023-05-19 00:06:10*
%MOMM*%
%LPD*%
G01*
G04 APERTURE LIST*
%ADD10C,0.150000*%
%ADD11C,0.187500*%
G04 APERTURE END LIST*
D10*
X108100000Y-103400000D02*
X108100000Y-105585000D01*
X110630000Y-103422500D02*
X110630000Y-105607500D01*
X115730000Y-103422500D02*
X115730000Y-105607500D01*
X118280000Y-103422500D02*
X118280000Y-105607500D01*
X110630000Y-103422500D02*
X110630000Y-105607500D01*
X105530000Y-103422500D02*
X105530000Y-105607500D01*
X105520000Y-101245000D02*
X120730000Y-101245000D01*
X120730000Y-101245000D02*
X120730000Y-105615000D01*
X120730000Y-105615000D02*
X105520000Y-105615000D01*
X105520000Y-105615000D02*
X105520000Y-101245000D01*
X113180000Y-103422500D02*
X113180000Y-105607500D01*
X115750000Y-103400000D02*
X115750000Y-105585000D01*
X113200000Y-103400000D02*
X113200000Y-105585000D01*
X104600000Y-64900000D02*
X118100000Y-64900000D01*
X118100000Y-64900000D02*
X118100000Y-70500000D01*
X118100000Y-70500000D02*
X104600000Y-70500000D01*
X104600000Y-70500000D02*
X104600000Y-64900000D01*
D11*
X111591250Y-104411428D02*
X111555535Y-104340000D01*
X111555535Y-104340000D02*
X111555535Y-104232857D01*
X111555535Y-104232857D02*
X111591250Y-104125714D01*
X111591250Y-104125714D02*
X111662678Y-104054285D01*
X111662678Y-104054285D02*
X111734107Y-104018571D01*
X111734107Y-104018571D02*
X111876964Y-103982857D01*
X111876964Y-103982857D02*
X111984107Y-103982857D01*
X111984107Y-103982857D02*
X112126964Y-104018571D01*
X112126964Y-104018571D02*
X112198392Y-104054285D01*
X112198392Y-104054285D02*
X112269821Y-104125714D01*
X112269821Y-104125714D02*
X112305535Y-104232857D01*
X112305535Y-104232857D02*
X112305535Y-104304285D01*
X112305535Y-104304285D02*
X112269821Y-104411428D01*
X112269821Y-104411428D02*
X112234107Y-104447142D01*
X112234107Y-104447142D02*
X111984107Y-104447142D01*
X111984107Y-104447142D02*
X111984107Y-104304285D01*
X116555535Y-103261428D02*
X116555535Y-103404285D01*
X116555535Y-103404285D02*
X116591250Y-103475714D01*
X116591250Y-103475714D02*
X116662678Y-103547142D01*
X116662678Y-103547142D02*
X116805535Y-103582857D01*
X116805535Y-103582857D02*
X117055535Y-103582857D01*
X117055535Y-103582857D02*
X117198392Y-103547142D01*
X117198392Y-103547142D02*
X117269821Y-103475714D01*
X117269821Y-103475714D02*
X117305535Y-103404285D01*
X117305535Y-103404285D02*
X117305535Y-103261428D01*
X117305535Y-103261428D02*
X117269821Y-103190000D01*
X117269821Y-103190000D02*
X117198392Y-103118571D01*
X117198392Y-103118571D02*
X117055535Y-103082857D01*
X117055535Y-103082857D02*
X116805535Y-103082857D01*
X116805535Y-103082857D02*
X116662678Y-103118571D01*
X116662678Y-103118571D02*
X116591250Y-103190000D01*
X116591250Y-103190000D02*
X116555535Y-103261428D01*
X117269821Y-103868571D02*
X117305535Y-103975714D01*
X117305535Y-103975714D02*
X117305535Y-104154285D01*
X117305535Y-104154285D02*
X117269821Y-104225714D01*
X117269821Y-104225714D02*
X117234107Y-104261428D01*
X117234107Y-104261428D02*
X117162678Y-104297142D01*
X117162678Y-104297142D02*
X117091250Y-104297142D01*
X117091250Y-104297142D02*
X117019821Y-104261428D01*
X117019821Y-104261428D02*
X116984107Y-104225714D01*
X116984107Y-104225714D02*
X116948392Y-104154285D01*
X116948392Y-104154285D02*
X116912678Y-104011428D01*
X116912678Y-104011428D02*
X116876964Y-103939999D01*
X116876964Y-103939999D02*
X116841250Y-103904285D01*
X116841250Y-103904285D02*
X116769821Y-103868571D01*
X116769821Y-103868571D02*
X116698392Y-103868571D01*
X116698392Y-103868571D02*
X116626964Y-103904285D01*
X116626964Y-103904285D02*
X116591250Y-103939999D01*
X116591250Y-103939999D02*
X116555535Y-104011428D01*
X116555535Y-104011428D02*
X116555535Y-104189999D01*
X116555535Y-104189999D02*
X116591250Y-104297142D01*
X117234107Y-105047142D02*
X117269821Y-105011428D01*
X117269821Y-105011428D02*
X117305535Y-104904285D01*
X117305535Y-104904285D02*
X117305535Y-104832857D01*
X117305535Y-104832857D02*
X117269821Y-104725714D01*
X117269821Y-104725714D02*
X117198392Y-104654285D01*
X117198392Y-104654285D02*
X117126964Y-104618571D01*
X117126964Y-104618571D02*
X116984107Y-104582857D01*
X116984107Y-104582857D02*
X116876964Y-104582857D01*
X116876964Y-104582857D02*
X116734107Y-104618571D01*
X116734107Y-104618571D02*
X116662678Y-104654285D01*
X116662678Y-104654285D02*
X116591250Y-104725714D01*
X116591250Y-104725714D02*
X116555535Y-104832857D01*
X116555535Y-104832857D02*
X116555535Y-104904285D01*
X116555535Y-104904285D02*
X116591250Y-105011428D01*
X116591250Y-105011428D02*
X116626964Y-105047142D01*
X109441250Y-103077857D02*
X109441250Y-103435000D01*
X109655535Y-103006428D02*
X108905535Y-103256428D01*
X108905535Y-103256428D02*
X109655535Y-103506428D01*
X109655535Y-103756428D02*
X108905535Y-103756428D01*
X109655535Y-104113571D02*
X108905535Y-104113571D01*
X108905535Y-104113571D02*
X109655535Y-104542142D01*
X109655535Y-104542142D02*
X108905535Y-104542142D01*
X109655535Y-105292142D02*
X109655535Y-104863571D01*
X109655535Y-105077856D02*
X108905535Y-105077856D01*
X108905535Y-105077856D02*
X109012678Y-105006428D01*
X109012678Y-105006428D02*
X109084107Y-104934999D01*
X109084107Y-104934999D02*
X109119821Y-104863571D01*
D10*
X116784285Y-67373500D02*
X116870000Y-67330642D01*
X116870000Y-67330642D02*
X116998571Y-67330642D01*
X116998571Y-67330642D02*
X117127142Y-67373500D01*
X117127142Y-67373500D02*
X117212857Y-67459214D01*
X117212857Y-67459214D02*
X117255714Y-67544928D01*
X117255714Y-67544928D02*
X117298571Y-67716357D01*
X117298571Y-67716357D02*
X117298571Y-67844928D01*
X117298571Y-67844928D02*
X117255714Y-68016357D01*
X117255714Y-68016357D02*
X117212857Y-68102071D01*
X117212857Y-68102071D02*
X117127142Y-68187785D01*
X117127142Y-68187785D02*
X116998571Y-68230642D01*
X116998571Y-68230642D02*
X116912857Y-68230642D01*
X116912857Y-68230642D02*
X116784285Y-68187785D01*
X116784285Y-68187785D02*
X116741428Y-68144928D01*
X116741428Y-68144928D02*
X116741428Y-67844928D01*
X116741428Y-67844928D02*
X116912857Y-67844928D01*
X116355714Y-68230642D02*
X116355714Y-67330642D01*
X116355714Y-67759214D02*
X115841428Y-67759214D01*
X115841428Y-68230642D02*
X115841428Y-67330642D01*
X115412857Y-68144928D02*
X115370000Y-68187785D01*
X115370000Y-68187785D02*
X115412857Y-68230642D01*
X115412857Y-68230642D02*
X115455714Y-68187785D01*
X115455714Y-68187785D02*
X115412857Y-68144928D01*
X115412857Y-68144928D02*
X115412857Y-68230642D01*
X115412857Y-67673500D02*
X115370000Y-67716357D01*
X115370000Y-67716357D02*
X115412857Y-67759214D01*
X115412857Y-67759214D02*
X115455714Y-67716357D01*
X115455714Y-67716357D02*
X115412857Y-67673500D01*
X115412857Y-67673500D02*
X115412857Y-67759214D01*
X114572857Y-67330642D02*
X114058572Y-67330642D01*
X114315714Y-68230642D02*
X114315714Y-67330642D01*
X113630000Y-68230642D02*
X113715715Y-68187785D01*
X113715715Y-68187785D02*
X113758572Y-68144928D01*
X113758572Y-68144928D02*
X113801429Y-68059214D01*
X113801429Y-68059214D02*
X113801429Y-67802071D01*
X113801429Y-67802071D02*
X113758572Y-67716357D01*
X113758572Y-67716357D02*
X113715715Y-67673500D01*
X113715715Y-67673500D02*
X113630000Y-67630642D01*
X113630000Y-67630642D02*
X113501429Y-67630642D01*
X113501429Y-67630642D02*
X113415715Y-67673500D01*
X113415715Y-67673500D02*
X113372858Y-67716357D01*
X113372858Y-67716357D02*
X113330000Y-67802071D01*
X113330000Y-67802071D02*
X113330000Y-68059214D01*
X113330000Y-68059214D02*
X113372858Y-68144928D01*
X113372858Y-68144928D02*
X113415715Y-68187785D01*
X113415715Y-68187785D02*
X113501429Y-68230642D01*
X113501429Y-68230642D02*
X113630000Y-68230642D01*
X112944286Y-68230642D02*
X112944286Y-67630642D01*
X112944286Y-67716357D02*
X112901429Y-67673500D01*
X112901429Y-67673500D02*
X112815714Y-67630642D01*
X112815714Y-67630642D02*
X112687143Y-67630642D01*
X112687143Y-67630642D02*
X112601429Y-67673500D01*
X112601429Y-67673500D02*
X112558572Y-67759214D01*
X112558572Y-67759214D02*
X112558572Y-68230642D01*
X112558572Y-67759214D02*
X112515714Y-67673500D01*
X112515714Y-67673500D02*
X112430000Y-67630642D01*
X112430000Y-67630642D02*
X112301429Y-67630642D01*
X112301429Y-67630642D02*
X112215714Y-67673500D01*
X112215714Y-67673500D02*
X112172857Y-67759214D01*
X112172857Y-67759214D02*
X112172857Y-68230642D01*
X111744286Y-68230642D02*
X111744286Y-67630642D01*
X111744286Y-67716357D02*
X111701429Y-67673500D01*
X111701429Y-67673500D02*
X111615714Y-67630642D01*
X111615714Y-67630642D02*
X111487143Y-67630642D01*
X111487143Y-67630642D02*
X111401429Y-67673500D01*
X111401429Y-67673500D02*
X111358572Y-67759214D01*
X111358572Y-67759214D02*
X111358572Y-68230642D01*
X111358572Y-67759214D02*
X111315714Y-67673500D01*
X111315714Y-67673500D02*
X111230000Y-67630642D01*
X111230000Y-67630642D02*
X111101429Y-67630642D01*
X111101429Y-67630642D02*
X111015714Y-67673500D01*
X111015714Y-67673500D02*
X110972857Y-67759214D01*
X110972857Y-67759214D02*
X110972857Y-68230642D01*
X110630000Y-67630642D02*
X110415714Y-68230642D01*
X110201429Y-67630642D02*
X110415714Y-68230642D01*
X110415714Y-68230642D02*
X110501429Y-68444928D01*
X110501429Y-68444928D02*
X110544286Y-68487785D01*
X110544286Y-68487785D02*
X110630000Y-68530642D01*
X109901429Y-67416357D02*
X109858572Y-67373500D01*
X109858572Y-67373500D02*
X109772858Y-67330642D01*
X109772858Y-67330642D02*
X109558572Y-67330642D01*
X109558572Y-67330642D02*
X109472858Y-67373500D01*
X109472858Y-67373500D02*
X109430000Y-67416357D01*
X109430000Y-67416357D02*
X109387143Y-67502071D01*
X109387143Y-67502071D02*
X109387143Y-67587785D01*
X109387143Y-67587785D02*
X109430000Y-67716357D01*
X109430000Y-67716357D02*
X109944286Y-68230642D01*
X109944286Y-68230642D02*
X109387143Y-68230642D01*
X109087143Y-67330642D02*
X108487143Y-67330642D01*
X108487143Y-67330642D02*
X108872857Y-68230642D01*
X107972857Y-67330642D02*
X107887143Y-67330642D01*
X107887143Y-67330642D02*
X107801429Y-67373500D01*
X107801429Y-67373500D02*
X107758572Y-67416357D01*
X107758572Y-67416357D02*
X107715714Y-67502071D01*
X107715714Y-67502071D02*
X107672857Y-67673500D01*
X107672857Y-67673500D02*
X107672857Y-67887785D01*
X107672857Y-67887785D02*
X107715714Y-68059214D01*
X107715714Y-68059214D02*
X107758572Y-68144928D01*
X107758572Y-68144928D02*
X107801429Y-68187785D01*
X107801429Y-68187785D02*
X107887143Y-68230642D01*
X107887143Y-68230642D02*
X107972857Y-68230642D01*
X107972857Y-68230642D02*
X108058572Y-68187785D01*
X108058572Y-68187785D02*
X108101429Y-68144928D01*
X108101429Y-68144928D02*
X108144286Y-68059214D01*
X108144286Y-68059214D02*
X108187143Y-67887785D01*
X108187143Y-67887785D02*
X108187143Y-67673500D01*
X108187143Y-67673500D02*
X108144286Y-67502071D01*
X108144286Y-67502071D02*
X108101429Y-67416357D01*
X108101429Y-67416357D02*
X108058572Y-67373500D01*
X108058572Y-67373500D02*
X107972857Y-67330642D01*
X106858571Y-67330642D02*
X107287143Y-67330642D01*
X107287143Y-67330642D02*
X107330000Y-67759214D01*
X107330000Y-67759214D02*
X107287143Y-67716357D01*
X107287143Y-67716357D02*
X107201429Y-67673500D01*
X107201429Y-67673500D02*
X106987143Y-67673500D01*
X106987143Y-67673500D02*
X106901429Y-67716357D01*
X106901429Y-67716357D02*
X106858571Y-67759214D01*
X106858571Y-67759214D02*
X106815714Y-67844928D01*
X106815714Y-67844928D02*
X106815714Y-68059214D01*
X106815714Y-68059214D02*
X106858571Y-68144928D01*
X106858571Y-68144928D02*
X106901429Y-68187785D01*
X106901429Y-68187785D02*
X106987143Y-68230642D01*
X106987143Y-68230642D02*
X107201429Y-68230642D01*
X107201429Y-68230642D02*
X107287143Y-68187785D01*
X107287143Y-68187785D02*
X107330000Y-68144928D01*
X106258571Y-67330642D02*
X106172857Y-67330642D01*
X106172857Y-67330642D02*
X106087143Y-67373500D01*
X106087143Y-67373500D02*
X106044286Y-67416357D01*
X106044286Y-67416357D02*
X106001428Y-67502071D01*
X106001428Y-67502071D02*
X105958571Y-67673500D01*
X105958571Y-67673500D02*
X105958571Y-67887785D01*
X105958571Y-67887785D02*
X106001428Y-68059214D01*
X106001428Y-68059214D02*
X106044286Y-68144928D01*
X106044286Y-68144928D02*
X106087143Y-68187785D01*
X106087143Y-68187785D02*
X106172857Y-68230642D01*
X106172857Y-68230642D02*
X106258571Y-68230642D01*
X106258571Y-68230642D02*
X106344286Y-68187785D01*
X106344286Y-68187785D02*
X106387143Y-68144928D01*
X106387143Y-68144928D02*
X106430000Y-68059214D01*
X106430000Y-68059214D02*
X106472857Y-67887785D01*
X106472857Y-67887785D02*
X106472857Y-67673500D01*
X106472857Y-67673500D02*
X106430000Y-67502071D01*
X106430000Y-67502071D02*
X106387143Y-67416357D01*
X106387143Y-67416357D02*
X106344286Y-67373500D01*
X106344286Y-67373500D02*
X106258571Y-67330642D01*
X105615714Y-67416357D02*
X105572857Y-67373500D01*
X105572857Y-67373500D02*
X105487143Y-67330642D01*
X105487143Y-67330642D02*
X105272857Y-67330642D01*
X105272857Y-67330642D02*
X105187143Y-67373500D01*
X105187143Y-67373500D02*
X105144285Y-67416357D01*
X105144285Y-67416357D02*
X105101428Y-67502071D01*
X105101428Y-67502071D02*
X105101428Y-67587785D01*
X105101428Y-67587785D02*
X105144285Y-67716357D01*
X105144285Y-67716357D02*
X105658571Y-68230642D01*
X105658571Y-68230642D02*
X105101428Y-68230642D01*
X117163095Y-66402083D02*
X116567857Y-66402083D01*
X117282143Y-66759226D02*
X116865476Y-65509226D01*
X116865476Y-65509226D02*
X116448810Y-66759226D01*
X116032142Y-66759226D02*
X116032142Y-65509226D01*
X116032142Y-65509226D02*
X115555952Y-65509226D01*
X115555952Y-65509226D02*
X115436904Y-65568750D01*
X115436904Y-65568750D02*
X115377381Y-65628273D01*
X115377381Y-65628273D02*
X115317857Y-65747321D01*
X115317857Y-65747321D02*
X115317857Y-65925892D01*
X115317857Y-65925892D02*
X115377381Y-66044940D01*
X115377381Y-66044940D02*
X115436904Y-66104464D01*
X115436904Y-66104464D02*
X115555952Y-66163988D01*
X115555952Y-66163988D02*
X116032142Y-66163988D01*
X114544047Y-65509226D02*
X114305952Y-65509226D01*
X114305952Y-65509226D02*
X114186904Y-65568750D01*
X114186904Y-65568750D02*
X114067857Y-65687797D01*
X114067857Y-65687797D02*
X114008333Y-65925892D01*
X114008333Y-65925892D02*
X114008333Y-66342559D01*
X114008333Y-66342559D02*
X114067857Y-66580654D01*
X114067857Y-66580654D02*
X114186904Y-66699702D01*
X114186904Y-66699702D02*
X114305952Y-66759226D01*
X114305952Y-66759226D02*
X114544047Y-66759226D01*
X114544047Y-66759226D02*
X114663095Y-66699702D01*
X114663095Y-66699702D02*
X114782142Y-66580654D01*
X114782142Y-66580654D02*
X114841666Y-66342559D01*
X114841666Y-66342559D02*
X114841666Y-65925892D01*
X114841666Y-65925892D02*
X114782142Y-65687797D01*
X114782142Y-65687797D02*
X114663095Y-65568750D01*
X114663095Y-65568750D02*
X114544047Y-65509226D01*
X112877380Y-66759226D02*
X113472618Y-66759226D01*
X113472618Y-66759226D02*
X113472618Y-65509226D01*
X111865475Y-66759226D02*
X112460713Y-66759226D01*
X112460713Y-66759226D02*
X112460713Y-65509226D01*
X111210713Y-65509226D02*
X110972618Y-65509226D01*
X110972618Y-65509226D02*
X110853570Y-65568750D01*
X110853570Y-65568750D02*
X110734523Y-65687797D01*
X110734523Y-65687797D02*
X110674999Y-65925892D01*
X110674999Y-65925892D02*
X110674999Y-66342559D01*
X110674999Y-66342559D02*
X110734523Y-66580654D01*
X110734523Y-66580654D02*
X110853570Y-66699702D01*
X110853570Y-66699702D02*
X110972618Y-66759226D01*
X110972618Y-66759226D02*
X111210713Y-66759226D01*
X111210713Y-66759226D02*
X111329761Y-66699702D01*
X111329761Y-66699702D02*
X111448808Y-66580654D01*
X111448808Y-66580654D02*
X111508332Y-66342559D01*
X111508332Y-66342559D02*
X111508332Y-65925892D01*
X111508332Y-65925892D02*
X111448808Y-65687797D01*
X111448808Y-65687797D02*
X111329761Y-65568750D01*
X111329761Y-65568750D02*
X111210713Y-65509226D01*
X110139284Y-66283035D02*
X109186904Y-66283035D01*
X108591665Y-66759226D02*
X108591665Y-65509226D01*
X108591665Y-65509226D02*
X108294046Y-65509226D01*
X108294046Y-65509226D02*
X108115475Y-65568750D01*
X108115475Y-65568750D02*
X107996427Y-65687797D01*
X107996427Y-65687797D02*
X107936904Y-65806845D01*
X107936904Y-65806845D02*
X107877380Y-66044940D01*
X107877380Y-66044940D02*
X107877380Y-66223511D01*
X107877380Y-66223511D02*
X107936904Y-66461607D01*
X107936904Y-66461607D02*
X107996427Y-66580654D01*
X107996427Y-66580654D02*
X108115475Y-66699702D01*
X108115475Y-66699702D02*
X108294046Y-66759226D01*
X108294046Y-66759226D02*
X108591665Y-66759226D01*
X107401189Y-66699702D02*
X107222618Y-66759226D01*
X107222618Y-66759226D02*
X106924999Y-66759226D01*
X106924999Y-66759226D02*
X106805951Y-66699702D01*
X106805951Y-66699702D02*
X106746427Y-66640178D01*
X106746427Y-66640178D02*
X106686904Y-66521130D01*
X106686904Y-66521130D02*
X106686904Y-66402083D01*
X106686904Y-66402083D02*
X106746427Y-66283035D01*
X106746427Y-66283035D02*
X106805951Y-66223511D01*
X106805951Y-66223511D02*
X106924999Y-66163988D01*
X106924999Y-66163988D02*
X107163094Y-66104464D01*
X107163094Y-66104464D02*
X107282142Y-66044940D01*
X107282142Y-66044940D02*
X107341665Y-65985416D01*
X107341665Y-65985416D02*
X107401189Y-65866369D01*
X107401189Y-65866369D02*
X107401189Y-65747321D01*
X107401189Y-65747321D02*
X107341665Y-65628273D01*
X107341665Y-65628273D02*
X107282142Y-65568750D01*
X107282142Y-65568750D02*
X107163094Y-65509226D01*
X107163094Y-65509226D02*
X106865475Y-65509226D01*
X106865475Y-65509226D02*
X106686904Y-65568750D01*
X106151189Y-66759226D02*
X106151189Y-65509226D01*
X106151189Y-65509226D02*
X105674999Y-65509226D01*
X105674999Y-65509226D02*
X105555951Y-65568750D01*
X105555951Y-65568750D02*
X105496428Y-65628273D01*
X105496428Y-65628273D02*
X105436904Y-65747321D01*
X105436904Y-65747321D02*
X105436904Y-65925892D01*
X105436904Y-65925892D02*
X105496428Y-66044940D01*
X105496428Y-66044940D02*
X105555951Y-66104464D01*
X105555951Y-66104464D02*
X105674999Y-66163988D01*
X105674999Y-66163988D02*
X106151189Y-66163988D01*
D11*
X119691250Y-102565000D02*
X119691250Y-102922143D01*
X119905535Y-102493571D02*
X119155535Y-102743571D01*
X119155535Y-102743571D02*
X119905535Y-102993571D01*
X119155535Y-103386428D02*
X119155535Y-103529285D01*
X119155535Y-103529285D02*
X119191250Y-103600714D01*
X119191250Y-103600714D02*
X119262678Y-103672142D01*
X119262678Y-103672142D02*
X119405535Y-103707857D01*
X119405535Y-103707857D02*
X119655535Y-103707857D01*
X119655535Y-103707857D02*
X119798392Y-103672142D01*
X119798392Y-103672142D02*
X119869821Y-103600714D01*
X119869821Y-103600714D02*
X119905535Y-103529285D01*
X119905535Y-103529285D02*
X119905535Y-103386428D01*
X119905535Y-103386428D02*
X119869821Y-103315000D01*
X119869821Y-103315000D02*
X119798392Y-103243571D01*
X119798392Y-103243571D02*
X119655535Y-103207857D01*
X119655535Y-103207857D02*
X119405535Y-103207857D01*
X119405535Y-103207857D02*
X119262678Y-103243571D01*
X119262678Y-103243571D02*
X119191250Y-103315000D01*
X119191250Y-103315000D02*
X119155535Y-103386428D01*
X119155535Y-104029285D02*
X119762678Y-104029285D01*
X119762678Y-104029285D02*
X119834107Y-104064999D01*
X119834107Y-104064999D02*
X119869821Y-104100714D01*
X119869821Y-104100714D02*
X119905535Y-104172142D01*
X119905535Y-104172142D02*
X119905535Y-104314999D01*
X119905535Y-104314999D02*
X119869821Y-104386428D01*
X119869821Y-104386428D02*
X119834107Y-104422142D01*
X119834107Y-104422142D02*
X119762678Y-104457856D01*
X119762678Y-104457856D02*
X119155535Y-104457856D01*
X119155535Y-104707856D02*
X119155535Y-105136428D01*
X119905535Y-104922142D02*
X119155535Y-104922142D01*
D10*
X116449999Y-68767380D02*
X115878571Y-68767380D01*
X116164285Y-69767380D02*
X116164285Y-68767380D01*
X115545237Y-69767380D02*
X115545237Y-68767380D01*
X115116666Y-69767380D02*
X115116666Y-69243571D01*
X115116666Y-69243571D02*
X115164285Y-69148333D01*
X115164285Y-69148333D02*
X115259523Y-69100714D01*
X115259523Y-69100714D02*
X115402380Y-69100714D01*
X115402380Y-69100714D02*
X115497618Y-69148333D01*
X115497618Y-69148333D02*
X115545237Y-69195952D01*
X114497618Y-69767380D02*
X114592856Y-69719761D01*
X114592856Y-69719761D02*
X114640475Y-69672142D01*
X114640475Y-69672142D02*
X114688094Y-69576904D01*
X114688094Y-69576904D02*
X114688094Y-69291190D01*
X114688094Y-69291190D02*
X114640475Y-69195952D01*
X114640475Y-69195952D02*
X114592856Y-69148333D01*
X114592856Y-69148333D02*
X114497618Y-69100714D01*
X114497618Y-69100714D02*
X114354761Y-69100714D01*
X114354761Y-69100714D02*
X114259523Y-69148333D01*
X114259523Y-69148333D02*
X114211904Y-69195952D01*
X114211904Y-69195952D02*
X114164285Y-69291190D01*
X114164285Y-69291190D02*
X114164285Y-69576904D01*
X114164285Y-69576904D02*
X114211904Y-69672142D01*
X114211904Y-69672142D02*
X114259523Y-69719761D01*
X114259523Y-69719761D02*
X114354761Y-69767380D01*
X114354761Y-69767380D02*
X114497618Y-69767380D01*
X113735713Y-69767380D02*
X113735713Y-69100714D01*
X113735713Y-69195952D02*
X113688094Y-69148333D01*
X113688094Y-69148333D02*
X113592856Y-69100714D01*
X113592856Y-69100714D02*
X113449999Y-69100714D01*
X113449999Y-69100714D02*
X113354761Y-69148333D01*
X113354761Y-69148333D02*
X113307142Y-69243571D01*
X113307142Y-69243571D02*
X113307142Y-69767380D01*
X113307142Y-69243571D02*
X113259523Y-69148333D01*
X113259523Y-69148333D02*
X113164285Y-69100714D01*
X113164285Y-69100714D02*
X113021428Y-69100714D01*
X113021428Y-69100714D02*
X112926189Y-69148333D01*
X112926189Y-69148333D02*
X112878570Y-69243571D01*
X112878570Y-69243571D02*
X112878570Y-69767380D01*
X111973809Y-69767380D02*
X111973809Y-69243571D01*
X111973809Y-69243571D02*
X112021428Y-69148333D01*
X112021428Y-69148333D02*
X112116666Y-69100714D01*
X112116666Y-69100714D02*
X112307142Y-69100714D01*
X112307142Y-69100714D02*
X112402380Y-69148333D01*
X111973809Y-69719761D02*
X112069047Y-69767380D01*
X112069047Y-69767380D02*
X112307142Y-69767380D01*
X112307142Y-69767380D02*
X112402380Y-69719761D01*
X112402380Y-69719761D02*
X112449999Y-69624523D01*
X112449999Y-69624523D02*
X112449999Y-69529285D01*
X112449999Y-69529285D02*
X112402380Y-69434047D01*
X112402380Y-69434047D02*
X112307142Y-69386428D01*
X112307142Y-69386428D02*
X112069047Y-69386428D01*
X112069047Y-69386428D02*
X111973809Y-69338809D01*
X111545237Y-69719761D02*
X111449999Y-69767380D01*
X111449999Y-69767380D02*
X111259523Y-69767380D01*
X111259523Y-69767380D02*
X111164285Y-69719761D01*
X111164285Y-69719761D02*
X111116666Y-69624523D01*
X111116666Y-69624523D02*
X111116666Y-69576904D01*
X111116666Y-69576904D02*
X111164285Y-69481666D01*
X111164285Y-69481666D02*
X111259523Y-69434047D01*
X111259523Y-69434047D02*
X111402380Y-69434047D01*
X111402380Y-69434047D02*
X111497618Y-69386428D01*
X111497618Y-69386428D02*
X111545237Y-69291190D01*
X111545237Y-69291190D02*
X111545237Y-69243571D01*
X111545237Y-69243571D02*
X111497618Y-69148333D01*
X111497618Y-69148333D02*
X111402380Y-69100714D01*
X111402380Y-69100714D02*
X111259523Y-69100714D01*
X111259523Y-69100714D02*
X111164285Y-69148333D01*
X110088094Y-69767380D02*
X110088094Y-68767380D01*
X110088094Y-68767380D02*
X109707142Y-68767380D01*
X109707142Y-68767380D02*
X109611904Y-68815000D01*
X109611904Y-68815000D02*
X109564285Y-68862619D01*
X109564285Y-68862619D02*
X109516666Y-68957857D01*
X109516666Y-68957857D02*
X109516666Y-69100714D01*
X109516666Y-69100714D02*
X109564285Y-69195952D01*
X109564285Y-69195952D02*
X109611904Y-69243571D01*
X109611904Y-69243571D02*
X109707142Y-69291190D01*
X109707142Y-69291190D02*
X110088094Y-69291190D01*
X108707142Y-69719761D02*
X108802380Y-69767380D01*
X108802380Y-69767380D02*
X108992856Y-69767380D01*
X108992856Y-69767380D02*
X109088094Y-69719761D01*
X109088094Y-69719761D02*
X109135713Y-69624523D01*
X109135713Y-69624523D02*
X109135713Y-69243571D01*
X109135713Y-69243571D02*
X109088094Y-69148333D01*
X109088094Y-69148333D02*
X108992856Y-69100714D01*
X108992856Y-69100714D02*
X108802380Y-69100714D01*
X108802380Y-69100714D02*
X108707142Y-69148333D01*
X108707142Y-69148333D02*
X108659523Y-69243571D01*
X108659523Y-69243571D02*
X108659523Y-69338809D01*
X108659523Y-69338809D02*
X109135713Y-69434047D01*
X108230951Y-69767380D02*
X108230951Y-69100714D01*
X108230951Y-69291190D02*
X108183332Y-69195952D01*
X108183332Y-69195952D02*
X108135713Y-69148333D01*
X108135713Y-69148333D02*
X108040475Y-69100714D01*
X108040475Y-69100714D02*
X107945237Y-69100714D01*
X107611903Y-69767380D02*
X107611903Y-69100714D01*
X107611903Y-69291190D02*
X107564284Y-69195952D01*
X107564284Y-69195952D02*
X107516665Y-69148333D01*
X107516665Y-69148333D02*
X107421427Y-69100714D01*
X107421427Y-69100714D02*
X107326189Y-69100714D01*
X106992855Y-69767380D02*
X106992855Y-69100714D01*
X106992855Y-68767380D02*
X107040474Y-68815000D01*
X107040474Y-68815000D02*
X106992855Y-68862619D01*
X106992855Y-68862619D02*
X106945236Y-68815000D01*
X106945236Y-68815000D02*
X106992855Y-68767380D01*
X106992855Y-68767380D02*
X106992855Y-68862619D01*
D11*
X106891250Y-103107857D02*
X106891250Y-103465000D01*
X107105535Y-103036428D02*
X106355535Y-103286428D01*
X106355535Y-103286428D02*
X107105535Y-103536428D01*
X107105535Y-103786428D02*
X106355535Y-103786428D01*
X107105535Y-104143571D02*
X106355535Y-104143571D01*
X106355535Y-104143571D02*
X107105535Y-104572142D01*
X107105535Y-104572142D02*
X106355535Y-104572142D01*
X106355535Y-105072142D02*
X106355535Y-105143571D01*
X106355535Y-105143571D02*
X106391250Y-105214999D01*
X106391250Y-105214999D02*
X106426964Y-105250714D01*
X106426964Y-105250714D02*
X106498392Y-105286428D01*
X106498392Y-105286428D02*
X106641250Y-105322142D01*
X106641250Y-105322142D02*
X106819821Y-105322142D01*
X106819821Y-105322142D02*
X106962678Y-105286428D01*
X106962678Y-105286428D02*
X107034107Y-105250714D01*
X107034107Y-105250714D02*
X107069821Y-105214999D01*
X107069821Y-105214999D02*
X107105535Y-105143571D01*
X107105535Y-105143571D02*
X107105535Y-105072142D01*
X107105535Y-105072142D02*
X107069821Y-105000714D01*
X107069821Y-105000714D02*
X107034107Y-104964999D01*
X107034107Y-104964999D02*
X106962678Y-104929285D01*
X106962678Y-104929285D02*
X106819821Y-104893571D01*
X106819821Y-104893571D02*
X106641250Y-104893571D01*
X106641250Y-104893571D02*
X106498392Y-104929285D01*
X106498392Y-104929285D02*
X106426964Y-104964999D01*
X106426964Y-104964999D02*
X106391250Y-105000714D01*
X106391250Y-105000714D02*
X106355535Y-105072142D01*
X115114284Y-102261250D02*
X114757142Y-102261250D01*
X115185713Y-102475535D02*
X114935713Y-101725535D01*
X114935713Y-101725535D02*
X114685713Y-102475535D01*
X114435713Y-102475535D02*
X114435713Y-101725535D01*
X114435713Y-101725535D02*
X114007142Y-102475535D01*
X114007142Y-102475535D02*
X114007142Y-101725535D01*
X113685713Y-102261250D02*
X113328571Y-102261250D01*
X113757142Y-102475535D02*
X113507142Y-101725535D01*
X113507142Y-101725535D02*
X113257142Y-102475535D01*
X112649999Y-102475535D02*
X113007142Y-102475535D01*
X113007142Y-102475535D02*
X113007142Y-101725535D01*
X112257142Y-101725535D02*
X112114285Y-101725535D01*
X112114285Y-101725535D02*
X112042856Y-101761250D01*
X112042856Y-101761250D02*
X111971428Y-101832678D01*
X111971428Y-101832678D02*
X111935713Y-101975535D01*
X111935713Y-101975535D02*
X111935713Y-102225535D01*
X111935713Y-102225535D02*
X111971428Y-102368392D01*
X111971428Y-102368392D02*
X112042856Y-102439821D01*
X112042856Y-102439821D02*
X112114285Y-102475535D01*
X112114285Y-102475535D02*
X112257142Y-102475535D01*
X112257142Y-102475535D02*
X112328571Y-102439821D01*
X112328571Y-102439821D02*
X112399999Y-102368392D01*
X112399999Y-102368392D02*
X112435713Y-102225535D01*
X112435713Y-102225535D02*
X112435713Y-101975535D01*
X112435713Y-101975535D02*
X112399999Y-101832678D01*
X112399999Y-101832678D02*
X112328571Y-101761250D01*
X112328571Y-101761250D02*
X112257142Y-101725535D01*
X111221428Y-101761250D02*
X111292857Y-101725535D01*
X111292857Y-101725535D02*
X111399999Y-101725535D01*
X111399999Y-101725535D02*
X111507142Y-101761250D01*
X111507142Y-101761250D02*
X111578571Y-101832678D01*
X111578571Y-101832678D02*
X111614285Y-101904107D01*
X111614285Y-101904107D02*
X111649999Y-102046964D01*
X111649999Y-102046964D02*
X111649999Y-102154107D01*
X111649999Y-102154107D02*
X111614285Y-102296964D01*
X111614285Y-102296964D02*
X111578571Y-102368392D01*
X111578571Y-102368392D02*
X111507142Y-102439821D01*
X111507142Y-102439821D02*
X111399999Y-102475535D01*
X111399999Y-102475535D02*
X111328571Y-102475535D01*
X111328571Y-102475535D02*
X111221428Y-102439821D01*
X111221428Y-102439821D02*
X111185714Y-102404107D01*
X111185714Y-102404107D02*
X111185714Y-102154107D01*
X111185714Y-102154107D02*
X111328571Y-102154107D01*
X114041250Y-104431428D02*
X114005535Y-104360000D01*
X114005535Y-104360000D02*
X114005535Y-104252857D01*
X114005535Y-104252857D02*
X114041250Y-104145714D01*
X114041250Y-104145714D02*
X114112678Y-104074285D01*
X114112678Y-104074285D02*
X114184107Y-104038571D01*
X114184107Y-104038571D02*
X114326964Y-104002857D01*
X114326964Y-104002857D02*
X114434107Y-104002857D01*
X114434107Y-104002857D02*
X114576964Y-104038571D01*
X114576964Y-104038571D02*
X114648392Y-104074285D01*
X114648392Y-104074285D02*
X114719821Y-104145714D01*
X114719821Y-104145714D02*
X114755535Y-104252857D01*
X114755535Y-104252857D02*
X114755535Y-104324285D01*
X114755535Y-104324285D02*
X114719821Y-104431428D01*
X114719821Y-104431428D02*
X114684107Y-104467142D01*
X114684107Y-104467142D02*
X114434107Y-104467142D01*
X114434107Y-104467142D02*
X114434107Y-104324285D01*
M02*
