%TF.GenerationSoftware,KiCad,Pcbnew,(7.0.0)*%
%TF.CreationDate,2023-05-08T13:38:34+02:00*%
%TF.ProjectId,Apollo - DSP,41706f6c-6c6f-4202-9d20-4453502e6b69,rev?*%
%TF.SameCoordinates,Original*%
%TF.FileFunction,Soldermask,Bot*%
%TF.FilePolarity,Negative*%
%FSLAX46Y46*%
G04 Gerber Fmt 4.6, Leading zero omitted, Abs format (unit mm)*
G04 Created by KiCad (PCBNEW (7.0.0)) date 2023-05-08 13:38:34*
%MOMM*%
%LPD*%
G01*
G04 APERTURE LIST*
%ADD10C,5.075000*%
%ADD11O,2.000000X0.900000*%
%ADD12O,1.700000X0.900000*%
%ADD13R,1.700000X1.700000*%
%ADD14O,1.700000X1.700000*%
G04 APERTURE END LIST*
D10*
X155287500Y-60700000D02*
G75*
G03*
X155287500Y-60700000I-2537500J0D01*
G01*
X90387500Y-60700000D02*
G75*
G03*
X90387500Y-60700000I-2537500J0D01*
G01*
X155187500Y-108600000D02*
G75*
G03*
X155187500Y-108600000I-2537500J0D01*
G01*
X90387500Y-108700000D02*
G75*
G03*
X90387500Y-108700000I-2537500J0D01*
G01*
D11*
%TO.C,J1*%
X146444999Y-81019999D03*
D12*
X150614999Y-81019999D03*
D11*
X146444999Y-72379999D03*
D12*
X150614999Y-72379999D03*
%TD*%
D13*
%TO.C,J5*%
X127169999Y-62699999D03*
D14*
X129709999Y-62699999D03*
X132249999Y-62699999D03*
X134789999Y-62699999D03*
%TD*%
D13*
%TO.C,J6*%
X111099999Y-106749999D03*
D14*
X113639999Y-106749999D03*
X116179999Y-106749999D03*
X118719999Y-106749999D03*
%TD*%
D13*
%TO.C,J2*%
X115849999Y-62699999D03*
D14*
X118389999Y-62699999D03*
X120929999Y-62699999D03*
X123469999Y-62699999D03*
%TD*%
G36*
X152535922Y-55724761D02*
G01*
X152582808Y-55770958D01*
X152600000Y-55834495D01*
X152600000Y-58593418D01*
X152584587Y-58653804D01*
X152542120Y-58699416D01*
X152482988Y-58719097D01*
X152469861Y-58720035D01*
X152460965Y-58721315D01*
X152190941Y-58780055D01*
X152182314Y-58782588D01*
X151923381Y-58879165D01*
X151915225Y-58882889D01*
X151672671Y-59015334D01*
X151665109Y-59020193D01*
X151443882Y-59185803D01*
X151437093Y-59191686D01*
X151241686Y-59387093D01*
X151235803Y-59393882D01*
X151070193Y-59615109D01*
X151065334Y-59622671D01*
X150932889Y-59865225D01*
X150929165Y-59873381D01*
X150832588Y-60132314D01*
X150830055Y-60140941D01*
X150771315Y-60410965D01*
X150770035Y-60419861D01*
X150750321Y-60695512D01*
X150750321Y-60704488D01*
X150770035Y-60980138D01*
X150771315Y-60989034D01*
X150830055Y-61259058D01*
X150832588Y-61267685D01*
X150929165Y-61526618D01*
X150932889Y-61534774D01*
X151065334Y-61777328D01*
X151070193Y-61784890D01*
X151235803Y-62006117D01*
X151241686Y-62012906D01*
X151437093Y-62208313D01*
X151443882Y-62214196D01*
X151665109Y-62379806D01*
X151672671Y-62384665D01*
X151915225Y-62517110D01*
X151923381Y-62520834D01*
X152182314Y-62617411D01*
X152190941Y-62619944D01*
X152460965Y-62678684D01*
X152469862Y-62679964D01*
X152736988Y-62699069D01*
X152796121Y-62718750D01*
X152838588Y-62764363D01*
X152854000Y-62824748D01*
X152854000Y-63374000D01*
X152837119Y-63437000D01*
X152791000Y-63483119D01*
X152728000Y-63500000D01*
X152616590Y-63500000D01*
X152603506Y-63503506D01*
X152600000Y-63516590D01*
X152600000Y-70974000D01*
X152583119Y-71037000D01*
X152537000Y-71083119D01*
X152474000Y-71100000D01*
X150026000Y-71100000D01*
X149963000Y-71083119D01*
X149916881Y-71037000D01*
X149900000Y-70974000D01*
X149900000Y-63516590D01*
X149896493Y-63503506D01*
X149883410Y-63500000D01*
X149772000Y-63500000D01*
X149709000Y-63483119D01*
X149662881Y-63437000D01*
X149646000Y-63374000D01*
X149646000Y-60926000D01*
X149662881Y-60863000D01*
X149709000Y-60816881D01*
X149772000Y-60800000D01*
X149883410Y-60800000D01*
X149896493Y-60796493D01*
X149900000Y-60783410D01*
X149900000Y-56658487D01*
X149913465Y-56601813D01*
X149950984Y-56557252D01*
X149952208Y-56556345D01*
X149961548Y-56550050D01*
X150331256Y-56324245D01*
X150341064Y-56318838D01*
X150729356Y-56126758D01*
X150739605Y-56122243D01*
X151143425Y-55965397D01*
X151154035Y-55961810D01*
X151570191Y-55841440D01*
X151581077Y-55838810D01*
X152006259Y-55755873D01*
X152017335Y-55754219D01*
X152448227Y-55709360D01*
X152459413Y-55708697D01*
X152472139Y-55708509D01*
X152535922Y-55724761D01*
G37*
G36*
X152537000Y-82416881D02*
G01*
X152583119Y-82463000D01*
X152600000Y-82526000D01*
X152600000Y-104974000D01*
X152583119Y-105037000D01*
X152537000Y-105083119D01*
X152474000Y-105100000D01*
X150026000Y-105100000D01*
X149963000Y-105083119D01*
X149916881Y-105037000D01*
X149900000Y-104974000D01*
X149900000Y-82526000D01*
X149916881Y-82463000D01*
X149963000Y-82416881D01*
X150026000Y-82400000D01*
X152474000Y-82400000D01*
X152537000Y-82416881D01*
G37*
G36*
X108287000Y-105916881D02*
G01*
X108333119Y-105963000D01*
X108350000Y-106026000D01*
X108350000Y-108474000D01*
X108333119Y-108537000D01*
X108287000Y-108583119D01*
X108224000Y-108600000D01*
X91776000Y-108600000D01*
X91713000Y-108583119D01*
X91666881Y-108537000D01*
X91650000Y-108474000D01*
X91650000Y-106026000D01*
X91666881Y-105963000D01*
X91713000Y-105916881D01*
X91776000Y-105900000D01*
X108224000Y-105900000D01*
X108287000Y-105916881D01*
G37*
G36*
X90487000Y-64516881D02*
G01*
X90533119Y-64563000D01*
X90550000Y-64626000D01*
X90550000Y-104674000D01*
X90533119Y-104737000D01*
X90487000Y-104783119D01*
X90424000Y-104800000D01*
X87976000Y-104800000D01*
X87913000Y-104783119D01*
X87866881Y-104737000D01*
X87850000Y-104674000D01*
X87850000Y-103746965D01*
X87859062Y-103700044D01*
X87884946Y-103659872D01*
X87896341Y-103647958D01*
X87900000Y-103633887D01*
X87900000Y-65716113D01*
X87896341Y-65702041D01*
X87884946Y-65690128D01*
X87859062Y-65649956D01*
X87850000Y-65603035D01*
X87850000Y-64626000D01*
X87866881Y-64563000D01*
X87913000Y-64516881D01*
X87976000Y-64500000D01*
X90424000Y-64500000D01*
X90487000Y-64516881D01*
G37*
G36*
X150691260Y-60564411D02*
G01*
X150737675Y-60614264D01*
X150751360Y-60680990D01*
X150750321Y-60695515D01*
X150750321Y-60704488D01*
X150770035Y-60980138D01*
X150771315Y-60989034D01*
X150830055Y-61259058D01*
X150832588Y-61267685D01*
X150929165Y-61526618D01*
X150932889Y-61534774D01*
X151065334Y-61777328D01*
X151070193Y-61784890D01*
X151235803Y-62006117D01*
X151241686Y-62012906D01*
X151437093Y-62208313D01*
X151443882Y-62214196D01*
X151665109Y-62379806D01*
X151672671Y-62384665D01*
X151915225Y-62517110D01*
X151923381Y-62520834D01*
X152182314Y-62617411D01*
X152190941Y-62619944D01*
X152460965Y-62678684D01*
X152469861Y-62679964D01*
X152745512Y-62699679D01*
X152754488Y-62699679D01*
X153030138Y-62679964D01*
X153039034Y-62678684D01*
X153309058Y-62619944D01*
X153317685Y-62617411D01*
X153576618Y-62520834D01*
X153584774Y-62517110D01*
X153827328Y-62384665D01*
X153834890Y-62379806D01*
X154056117Y-62214196D01*
X154062906Y-62208313D01*
X154258313Y-62012906D01*
X154264196Y-62006117D01*
X154429806Y-61784890D01*
X154434665Y-61777328D01*
X154567110Y-61534774D01*
X154570834Y-61526618D01*
X154667411Y-61267685D01*
X154669944Y-61259058D01*
X154728684Y-60989034D01*
X154729964Y-60980137D01*
X154734479Y-60917012D01*
X154754160Y-60857879D01*
X154799773Y-60815413D01*
X154860158Y-60800000D01*
X157616245Y-60800000D01*
X157679783Y-60817193D01*
X157725981Y-60864080D01*
X157742231Y-60927866D01*
X157741302Y-60990592D01*
X157740639Y-61001773D01*
X157695780Y-61432664D01*
X157694126Y-61443740D01*
X157611189Y-61868922D01*
X157608559Y-61879808D01*
X157488189Y-62295964D01*
X157484602Y-62306574D01*
X157327756Y-62710394D01*
X157323241Y-62720643D01*
X157131161Y-63108935D01*
X157125754Y-63118743D01*
X156929739Y-63439676D01*
X156883857Y-63483889D01*
X156822209Y-63500000D01*
X152616590Y-63500000D01*
X152603506Y-63503506D01*
X152600000Y-63516590D01*
X152600000Y-63628000D01*
X152583119Y-63691000D01*
X152537000Y-63737119D01*
X152474000Y-63754000D01*
X150026000Y-63754000D01*
X149963000Y-63737119D01*
X149916881Y-63691000D01*
X149900000Y-63628000D01*
X149900000Y-63516590D01*
X149896493Y-63503506D01*
X149883410Y-63500000D01*
X136776000Y-63500000D01*
X136713000Y-63483119D01*
X136666881Y-63437000D01*
X136650000Y-63374000D01*
X136650000Y-60926000D01*
X136666881Y-60863000D01*
X136713000Y-60816881D01*
X136776000Y-60800000D01*
X149883410Y-60800000D01*
X149896493Y-60796493D01*
X149900000Y-60783410D01*
X149900000Y-60672000D01*
X149916881Y-60609000D01*
X149963000Y-60562881D01*
X150026000Y-60546000D01*
X150625681Y-60546000D01*
X150691260Y-60564411D01*
G37*
G36*
X153937000Y-105916881D02*
G01*
X153983119Y-105963000D01*
X154000000Y-106026000D01*
X154000000Y-106847258D01*
X153983492Y-106909608D01*
X153938294Y-106955620D01*
X153876249Y-106973238D01*
X153813615Y-106957846D01*
X153584774Y-106832889D01*
X153576618Y-106829165D01*
X153317685Y-106732588D01*
X153309058Y-106730055D01*
X153039034Y-106671315D01*
X153030138Y-106670035D01*
X152754488Y-106650321D01*
X152745512Y-106650321D01*
X152469861Y-106670035D01*
X152460965Y-106671315D01*
X152190941Y-106730055D01*
X152182314Y-106732588D01*
X151923381Y-106829165D01*
X151915225Y-106832889D01*
X151672671Y-106965334D01*
X151665109Y-106970193D01*
X151443882Y-107135803D01*
X151437093Y-107141686D01*
X151241686Y-107337093D01*
X151235803Y-107343882D01*
X151070193Y-107565109D01*
X151065334Y-107572671D01*
X150932889Y-107815225D01*
X150929165Y-107823381D01*
X150832588Y-108082314D01*
X150830055Y-108090941D01*
X150771315Y-108360965D01*
X150770035Y-108369862D01*
X150761945Y-108482988D01*
X150742264Y-108542121D01*
X150696651Y-108584588D01*
X150636266Y-108600000D01*
X121026000Y-108600000D01*
X120963000Y-108583119D01*
X120916881Y-108537000D01*
X120900000Y-108474000D01*
X120900000Y-106026000D01*
X120916881Y-105963000D01*
X120963000Y-105916881D01*
X121026000Y-105900000D01*
X153874000Y-105900000D01*
X153937000Y-105916881D01*
G37*
G36*
X113487000Y-60716881D02*
G01*
X113533119Y-60763000D01*
X113550000Y-60826000D01*
X113550000Y-63274000D01*
X113533119Y-63337000D01*
X113487000Y-63383119D01*
X113424000Y-63400000D01*
X91976000Y-63400000D01*
X91913000Y-63383119D01*
X91866881Y-63337000D01*
X91850000Y-63274000D01*
X91850000Y-60826000D01*
X91866881Y-60763000D01*
X91913000Y-60716881D01*
X91976000Y-60700000D01*
X113424000Y-60700000D01*
X113487000Y-60716881D01*
G37*
M02*
