%TF.GenerationSoftware,KiCad,Pcbnew,7.0.7*%
%TF.CreationDate,2023-10-05T10:10:36+02:00*%
%TF.ProjectId,Apollo - DSP,41706f6c-6c6f-4202-9d20-4453502e6b69,rev?*%
%TF.SameCoordinates,Original*%
%TF.FileFunction,Soldermask,Top*%
%TF.FilePolarity,Negative*%
%FSLAX46Y46*%
G04 Gerber Fmt 4.6, Leading zero omitted, Abs format (unit mm)*
G04 Created by KiCad (PCBNEW 7.0.7) date 2023-10-05 10:10:36*
%MOMM*%
%LPD*%
G01*
G04 APERTURE LIST*
G04 Aperture macros list*
%AMRoundRect*
0 Rectangle with rounded corners*
0 $1 Rounding radius*
0 $2 $3 $4 $5 $6 $7 $8 $9 X,Y pos of 4 corners*
0 Add a 4 corners polygon primitive as box body*
4,1,4,$2,$3,$4,$5,$6,$7,$8,$9,$2,$3,0*
0 Add four circle primitives for the rounded corners*
1,1,$1+$1,$2,$3*
1,1,$1+$1,$4,$5*
1,1,$1+$1,$6,$7*
1,1,$1+$1,$8,$9*
0 Add four rect primitives between the rounded corners*
20,1,$1+$1,$2,$3,$4,$5,0*
20,1,$1+$1,$4,$5,$6,$7,0*
20,1,$1+$1,$6,$7,$8,$9,0*
20,1,$1+$1,$8,$9,$2,$3,0*%
%AMRotRect*
0 Rectangle, with rotation*
0 The origin of the aperture is its center*
0 $1 length*
0 $2 width*
0 $3 Rotation angle, in degrees counterclockwise*
0 Add horizontal line*
21,1,$1,$2,0,0,$3*%
G04 Aperture macros list end*
%ADD10C,5.075000*%
%ADD11RoundRect,0.237500X0.250000X0.237500X-0.250000X0.237500X-0.250000X-0.237500X0.250000X-0.237500X0*%
%ADD12RoundRect,0.237500X-0.250000X-0.237500X0.250000X-0.237500X0.250000X0.237500X-0.250000X0.237500X0*%
%ADD13RoundRect,0.150000X0.150000X-0.825000X0.150000X0.825000X-0.150000X0.825000X-0.150000X-0.825000X0*%
%ADD14RoundRect,0.237500X-0.300000X-0.237500X0.300000X-0.237500X0.300000X0.237500X-0.300000X0.237500X0*%
%ADD15RoundRect,0.237500X0.237500X-0.287500X0.237500X0.287500X-0.237500X0.287500X-0.237500X-0.287500X0*%
%ADD16RoundRect,0.237500X0.237500X-0.300000X0.237500X0.300000X-0.237500X0.300000X-0.237500X-0.300000X0*%
%ADD17RoundRect,0.237500X0.300000X0.237500X-0.300000X0.237500X-0.300000X-0.237500X0.300000X-0.237500X0*%
%ADD18RoundRect,0.237500X0.380070X-0.044194X-0.044194X0.380070X-0.380070X0.044194X0.044194X-0.380070X0*%
%ADD19RoundRect,0.237500X-0.237500X0.287500X-0.237500X-0.287500X0.237500X-0.287500X0.237500X0.287500X0*%
%ADD20R,0.800000X1.200000*%
%ADD21R,1.500000X2.000000*%
%ADD22RoundRect,0.237500X0.237500X-0.250000X0.237500X0.250000X-0.237500X0.250000X-0.237500X-0.250000X0*%
%ADD23RoundRect,0.237500X-0.237500X0.250000X-0.237500X-0.250000X0.237500X-0.250000X0.237500X0.250000X0*%
%ADD24RoundRect,0.237500X-0.237500X0.300000X-0.237500X-0.300000X0.237500X-0.300000X0.237500X0.300000X0*%
%ADD25RoundRect,0.150000X0.512500X0.150000X-0.512500X0.150000X-0.512500X-0.150000X0.512500X-0.150000X0*%
%ADD26RoundRect,0.075000X-0.700000X-0.075000X0.700000X-0.075000X0.700000X0.075000X-0.700000X0.075000X0*%
%ADD27RoundRect,0.075000X-0.075000X-0.700000X0.075000X-0.700000X0.075000X0.700000X-0.075000X0.700000X0*%
%ADD28RoundRect,0.237500X0.044194X0.380070X-0.380070X-0.044194X-0.044194X-0.380070X0.380070X0.044194X0*%
%ADD29R,1.160000X0.600000*%
%ADD30R,1.160000X0.300000*%
%ADD31O,2.000000X0.900000*%
%ADD32O,1.700000X0.900000*%
%ADD33R,1.700000X1.000000*%
%ADD34R,1.700000X1.700000*%
%ADD35O,1.700000X1.700000*%
%ADD36RoundRect,0.150000X-0.825000X-0.150000X0.825000X-0.150000X0.825000X0.150000X-0.825000X0.150000X0*%
%ADD37R,1.560000X0.650000*%
%ADD38RotRect,1.150000X1.000000X225.000000*%
%ADD39RoundRect,0.150000X0.825000X0.150000X-0.825000X0.150000X-0.825000X-0.150000X0.825000X-0.150000X0*%
%ADD40RoundRect,0.237500X0.287500X0.237500X-0.287500X0.237500X-0.287500X-0.237500X0.287500X-0.237500X0*%
%ADD41RoundRect,0.237500X-0.287500X-0.237500X0.287500X-0.237500X0.287500X0.237500X-0.287500X0.237500X0*%
G04 APERTURE END LIST*
D10*
X102337500Y-109700000D02*
G75*
G03*
X102337500Y-109700000I-2537500J0D01*
G01*
X167237500Y-109600000D02*
G75*
G03*
X167237500Y-109600000I-2537500J0D01*
G01*
X167237500Y-61700000D02*
G75*
G03*
X167237500Y-61700000I-2537500J0D01*
G01*
X102337500Y-61700000D02*
G75*
G03*
X102337500Y-61700000I-2537500J0D01*
G01*
D11*
%TO.C,R11*%
X106912500Y-98100000D03*
X105087500Y-98100000D03*
%TD*%
D12*
%TO.C,R21*%
X114487500Y-87725000D03*
X116312500Y-87725000D03*
%TD*%
D13*
%TO.C,U5*%
X122995000Y-96375000D03*
X124265000Y-96375000D03*
X125535000Y-96375000D03*
X126805000Y-96375000D03*
X126805000Y-91425000D03*
X125535000Y-91425000D03*
X124265000Y-91425000D03*
X122995000Y-91425000D03*
%TD*%
D14*
%TO.C,C2*%
X148337500Y-81600000D03*
X150062500Y-81600000D03*
%TD*%
D15*
%TO.C,L1*%
X149860000Y-86727000D03*
X149860000Y-84977000D03*
%TD*%
D12*
%TO.C,R15*%
X109587500Y-98100000D03*
X111412500Y-98100000D03*
%TD*%
D16*
%TO.C,C1*%
X151950000Y-83062500D03*
X151950000Y-81337500D03*
%TD*%
D17*
%TO.C,C34*%
X121462500Y-102900000D03*
X119737500Y-102900000D03*
%TD*%
D18*
%TO.C,C25*%
X116047796Y-79986913D03*
X114828036Y-78767153D03*
%TD*%
D17*
%TO.C,C33*%
X106862500Y-101300000D03*
X105137500Y-101300000D03*
%TD*%
D19*
%TO.C,F1*%
X153700000Y-81325000D03*
X153700000Y-83075000D03*
%TD*%
D12*
%TO.C,R16*%
X114487500Y-90900000D03*
X116312500Y-90900000D03*
%TD*%
D16*
%TO.C,C14*%
X123650000Y-103125000D03*
X123650000Y-101400000D03*
%TD*%
D20*
%TO.C,J4*%
X139375000Y-100625000D03*
X138275000Y-100625000D03*
X137175000Y-100625000D03*
X136075000Y-100625000D03*
X134975000Y-100625000D03*
X133875000Y-100625000D03*
X132775000Y-100625000D03*
X131675000Y-100625000D03*
D21*
X129205000Y-102825000D03*
X129205000Y-94625000D03*
X143095000Y-94625000D03*
X143095000Y-102825000D03*
%TD*%
D11*
%TO.C,FB1*%
X150112500Y-83200000D03*
X148287500Y-83200000D03*
%TD*%
D22*
%TO.C,R20*%
X112850000Y-91062500D03*
X112850000Y-89237500D03*
%TD*%
D23*
%TO.C,R1*%
X136650000Y-81287500D03*
X136650000Y-83112500D03*
%TD*%
D24*
%TO.C,C3*%
X144500000Y-84487500D03*
X144500000Y-86212500D03*
%TD*%
D14*
%TO.C,C38*%
X109637500Y-101300000D03*
X111362500Y-101300000D03*
%TD*%
D25*
%TO.C,U1*%
X144475000Y-83150000D03*
X144475000Y-82200000D03*
X144475000Y-81250000D03*
X142075000Y-81250000D03*
X142075000Y-83150000D03*
%TD*%
D12*
%TO.C,R12*%
X117925000Y-94112500D03*
X119750000Y-94112500D03*
%TD*%
D14*
%TO.C,C30*%
X105137500Y-99700000D03*
X106862500Y-99700000D03*
%TD*%
D11*
%TO.C,R17*%
X111400000Y-102900000D03*
X109575000Y-102900000D03*
%TD*%
D26*
%TO.C,U4*%
X121575000Y-75200000D03*
X121575000Y-75700000D03*
X121575000Y-76200000D03*
X121575000Y-76700000D03*
X121575000Y-77200000D03*
X121575000Y-77700000D03*
X121575000Y-78200000D03*
X121575000Y-78700000D03*
X121575000Y-79200000D03*
X121575000Y-79700000D03*
X121575000Y-80200000D03*
X121575000Y-80700000D03*
X121575000Y-81200000D03*
X121575000Y-81700000D03*
X121575000Y-82200000D03*
X121575000Y-82700000D03*
D27*
X123500000Y-84625000D03*
X124000000Y-84625000D03*
X124500000Y-84625000D03*
X125000000Y-84625000D03*
X125500000Y-84625000D03*
X126000000Y-84625000D03*
X126500000Y-84625000D03*
X127000000Y-84625000D03*
X127500000Y-84625000D03*
X128000000Y-84625000D03*
X128500000Y-84625000D03*
X129000000Y-84625000D03*
X129500000Y-84625000D03*
X130000000Y-84625000D03*
X130500000Y-84625000D03*
X131000000Y-84625000D03*
D26*
X132925000Y-82700000D03*
X132925000Y-82200000D03*
X132925000Y-81700000D03*
X132925000Y-81200000D03*
X132925000Y-80700000D03*
X132925000Y-80200000D03*
X132925000Y-79700000D03*
X132925000Y-79200000D03*
X132925000Y-78700000D03*
X132925000Y-78200000D03*
X132925000Y-77700000D03*
X132925000Y-77200000D03*
X132925000Y-76700000D03*
X132925000Y-76200000D03*
X132925000Y-75700000D03*
X132925000Y-75200000D03*
D27*
X131000000Y-73275000D03*
X130500000Y-73275000D03*
X130000000Y-73275000D03*
X129500000Y-73275000D03*
X129000000Y-73275000D03*
X128500000Y-73275000D03*
X128000000Y-73275000D03*
X127500000Y-73275000D03*
X127000000Y-73275000D03*
X126500000Y-73275000D03*
X126000000Y-73275000D03*
X125500000Y-73275000D03*
X125000000Y-73275000D03*
X124500000Y-73275000D03*
X124000000Y-73275000D03*
X123500000Y-73275000D03*
%TD*%
D11*
%TO.C,R6*%
X110187500Y-72825000D03*
X108362500Y-72825000D03*
%TD*%
D14*
%TO.C,C40*%
X115437500Y-102900000D03*
X117162500Y-102900000D03*
%TD*%
D16*
%TO.C,C13*%
X125250000Y-103125000D03*
X125250000Y-101400000D03*
%TD*%
D28*
%TO.C,C24*%
X116147796Y-74767153D03*
X114928036Y-75986913D03*
%TD*%
D11*
%TO.C,R18*%
X116312500Y-89320000D03*
X114487500Y-89320000D03*
%TD*%
D24*
%TO.C,C15*%
X133450000Y-85287500D03*
X133450000Y-87012500D03*
%TD*%
D16*
%TO.C,C29*%
X119700000Y-86037500D03*
X119700000Y-84312500D03*
%TD*%
D29*
%TO.C,J1*%
X157815000Y-80900000D03*
X157815000Y-80100000D03*
D30*
X157815000Y-78950000D03*
X157815000Y-77950000D03*
X157815000Y-77450000D03*
X157815000Y-76450000D03*
D29*
X157815000Y-75300000D03*
X157815000Y-74500000D03*
X157815000Y-74500000D03*
X157815000Y-75300000D03*
D30*
X157815000Y-75950000D03*
X157815000Y-76950000D03*
X157815000Y-78450000D03*
X157815000Y-79450000D03*
D29*
X157815000Y-80100000D03*
X157815000Y-80900000D03*
D31*
X158395000Y-82020000D03*
D32*
X162565000Y-82020000D03*
D31*
X158395000Y-73380000D03*
D32*
X162565000Y-73380000D03*
%TD*%
D33*
%TO.C,RESET1*%
X107400000Y-66850000D03*
X113700000Y-66850000D03*
X107400000Y-70650000D03*
X113700000Y-70650000D03*
%TD*%
D18*
%TO.C,C18*%
X118884880Y-74109880D03*
X117665120Y-72890120D03*
%TD*%
%TO.C,C20*%
X120034880Y-72984880D03*
X118815120Y-71765120D03*
%TD*%
D23*
%TO.C,R22*%
X136575000Y-86737500D03*
X136575000Y-88562500D03*
%TD*%
D34*
%TO.C,J3*%
X147500000Y-63700000D03*
D35*
X150040000Y-63700000D03*
X152580000Y-63700000D03*
X155120000Y-63700000D03*
%TD*%
D17*
%TO.C,C26*%
X124062500Y-89300000D03*
X122337500Y-89300000D03*
%TD*%
D11*
%TO.C,R10*%
X125412500Y-71025000D03*
X123587500Y-71025000D03*
%TD*%
D22*
%TO.C,R5*%
X126850000Y-103175000D03*
X126850000Y-101350000D03*
%TD*%
D11*
%TO.C,R8*%
X110112501Y-78675000D03*
X108287501Y-78675000D03*
%TD*%
D23*
%TO.C,R13*%
X138200000Y-74287500D03*
X138200000Y-76112500D03*
%TD*%
%TO.C,R24*%
X148336000Y-84939500D03*
X148336000Y-86764500D03*
%TD*%
D24*
%TO.C,C4*%
X146200000Y-84487500D03*
X146200000Y-86212500D03*
%TD*%
D36*
%TO.C,U7*%
X105525000Y-92395000D03*
X105525000Y-93665000D03*
X105525000Y-94935000D03*
X105525000Y-96205000D03*
X110475000Y-96205000D03*
X110475000Y-94935000D03*
X110475000Y-93665000D03*
X110475000Y-92395000D03*
%TD*%
D14*
%TO.C,C35*%
X117975000Y-90912500D03*
X119700000Y-90912500D03*
%TD*%
D37*
%TO.C,U3*%
X149050000Y-77900000D03*
X149050000Y-76950000D03*
X149050000Y-76000000D03*
X146350000Y-76000000D03*
X146350000Y-76950000D03*
X146350000Y-77900000D03*
%TD*%
D17*
%TO.C,C41*%
X114862500Y-93140000D03*
X113137500Y-93140000D03*
%TD*%
D34*
%TO.C,J5*%
X106940000Y-107700000D03*
D35*
X109480000Y-107700000D03*
X112020000Y-107700000D03*
X114560000Y-107700000D03*
X117100000Y-107700000D03*
X119640000Y-107700000D03*
%TD*%
D38*
%TO.C,Y1*%
X117561660Y-76163340D03*
X116324223Y-77400777D03*
X117314172Y-78390726D03*
X118551609Y-77153289D03*
%TD*%
D17*
%TO.C,C16*%
X124050000Y-87750000D03*
X122325000Y-87750000D03*
%TD*%
D11*
%TO.C,R14*%
X119750000Y-89312500D03*
X117925000Y-89312500D03*
%TD*%
D17*
%TO.C,C36*%
X111362500Y-99700000D03*
X109637500Y-99700000D03*
%TD*%
D11*
%TO.C,R3*%
X159812500Y-71000000D03*
X157987500Y-71000000D03*
%TD*%
%TO.C,R2*%
X159337500Y-84000000D03*
X157512500Y-84000000D03*
%TD*%
D22*
%TO.C,R23*%
X138200000Y-88575000D03*
X138200000Y-86750000D03*
%TD*%
D16*
%TO.C,C37*%
X110500000Y-90562500D03*
X110500000Y-88837500D03*
%TD*%
D12*
%TO.C,R4*%
X125037500Y-104762500D03*
X126862500Y-104762500D03*
%TD*%
D14*
%TO.C,C23*%
X131687500Y-88750000D03*
X133412500Y-88750000D03*
%TD*%
D12*
%TO.C,R9*%
X127012500Y-71025000D03*
X128837500Y-71025000D03*
%TD*%
D16*
%TO.C,C5*%
X140050000Y-83062500D03*
X140050000Y-81337500D03*
%TD*%
%TO.C,C32*%
X105500000Y-90562500D03*
X105500000Y-88837500D03*
%TD*%
D25*
%TO.C,U6*%
X117837500Y-86125000D03*
X117837500Y-85175000D03*
X117837500Y-84225000D03*
X115562500Y-84225000D03*
X115562500Y-85175000D03*
X115562500Y-86125000D03*
%TD*%
D39*
%TO.C,U8*%
X119475000Y-100605000D03*
X119475000Y-99335000D03*
X119475000Y-98065000D03*
X119475000Y-96795000D03*
X114525000Y-96795000D03*
X114525000Y-98065000D03*
X114525000Y-99335000D03*
X114525000Y-100605000D03*
%TD*%
D11*
%TO.C,R19*%
X114912500Y-94740000D03*
X113087500Y-94740000D03*
%TD*%
D14*
%TO.C,C7*%
X151537500Y-85090000D03*
X153262500Y-85090000D03*
%TD*%
D18*
%TO.C,C19*%
X121159880Y-71859880D03*
X119940120Y-70640120D03*
%TD*%
D16*
%TO.C,C39*%
X113500000Y-104562500D03*
X113500000Y-102837500D03*
%TD*%
D40*
%TO.C,D1*%
X138400000Y-79487500D03*
X136650000Y-79487500D03*
%TD*%
D12*
%TO.C,R13*%
X105087500Y-102900000D03*
X106912500Y-102900000D03*
%TD*%
D11*
%TO.C,R7*%
X120887500Y-68250000D03*
X119062500Y-68250000D03*
%TD*%
D41*
%TO.C,D2*%
X104925001Y-78675000D03*
X106675001Y-78675000D03*
%TD*%
D14*
%TO.C,C8*%
X151537500Y-86614000D03*
X153262500Y-86614000D03*
%TD*%
D34*
%TO.C,J6*%
X124500000Y-63700000D03*
D35*
X127040000Y-63700000D03*
X129580000Y-63700000D03*
X132120000Y-63700000D03*
%TD*%
D34*
%TO.C,J2*%
X136000000Y-63700000D03*
D35*
X138540000Y-63700000D03*
X141080000Y-63700000D03*
X143620000Y-63700000D03*
%TD*%
D17*
%TO.C,C21*%
X106524999Y-72825000D03*
X104799999Y-72825000D03*
%TD*%
D14*
%TO.C,C17*%
X133787500Y-72350000D03*
X135512500Y-72350000D03*
%TD*%
D17*
%TO.C,C31*%
X119676577Y-92512500D03*
X117951577Y-92512500D03*
%TD*%
D16*
%TO.C,C6*%
X138350000Y-83062500D03*
X138350000Y-81337500D03*
%TD*%
D24*
%TO.C,C42*%
X108000000Y-88837500D03*
X108000000Y-90562500D03*
%TD*%
G36*
X102542121Y-65620002D02*
G01*
X102588614Y-65673658D01*
X102600000Y-65726000D01*
X102600000Y-105674000D01*
X102579998Y-105742121D01*
X102526342Y-105788614D01*
X102474000Y-105800000D01*
X100026000Y-105800000D01*
X99957879Y-105779998D01*
X99911386Y-105726342D01*
X99900000Y-105674000D01*
X99900000Y-65726000D01*
X99920002Y-65657879D01*
X99973658Y-65611386D01*
X100026000Y-65600000D01*
X102474000Y-65600000D01*
X102542121Y-65620002D01*
G37*
G36*
X164638973Y-83166002D02*
G01*
X164685466Y-83219658D01*
X164696852Y-83271701D01*
X164699756Y-84497424D01*
X164679915Y-84565592D01*
X164662461Y-84587207D01*
X164650000Y-84599559D01*
X164650000Y-106900000D01*
X164778000Y-106900000D01*
X164846121Y-106920002D01*
X164892614Y-106973658D01*
X164904000Y-107026000D01*
X164904000Y-107526548D01*
X164883998Y-107594669D01*
X164830342Y-107641162D01*
X164778000Y-107652548D01*
X164557143Y-107652548D01*
X164274321Y-107693211D01*
X164000177Y-107773707D01*
X163740276Y-107892400D01*
X163675551Y-107933998D01*
X163607430Y-107954000D01*
X161751540Y-107954000D01*
X161748445Y-107953924D01*
X161728196Y-107952928D01*
X161722044Y-107952322D01*
X161703514Y-107949574D01*
X161697446Y-107948366D01*
X161679265Y-107943812D01*
X161673347Y-107942017D01*
X161655716Y-107935709D01*
X161649999Y-107933341D01*
X161633063Y-107925331D01*
X161627608Y-107922415D01*
X161611545Y-107912788D01*
X161606403Y-107909352D01*
X161591349Y-107898187D01*
X161586564Y-107894261D01*
X161572688Y-107881684D01*
X161568315Y-107877311D01*
X161555738Y-107863435D01*
X161551812Y-107858650D01*
X161540647Y-107843596D01*
X161537211Y-107838454D01*
X161527584Y-107822391D01*
X161524668Y-107816936D01*
X161516658Y-107800000D01*
X161514290Y-107794283D01*
X161507982Y-107776652D01*
X161506187Y-107770734D01*
X161501633Y-107752553D01*
X161500425Y-107746485D01*
X161497677Y-107727953D01*
X161497070Y-107721797D01*
X161496076Y-107701550D01*
X161496000Y-107698458D01*
X161496000Y-107026000D01*
X161516002Y-106957879D01*
X161569658Y-106911386D01*
X161622000Y-106900000D01*
X161750000Y-106900000D01*
X161750000Y-83526000D01*
X161770002Y-83457879D01*
X161823658Y-83411386D01*
X161851660Y-83405294D01*
X161856985Y-83400000D01*
X161857751Y-83271251D01*
X161878158Y-83203251D01*
X161932089Y-83157077D01*
X161983749Y-83146000D01*
X164570852Y-83146000D01*
X164638973Y-83166002D01*
G37*
G36*
X160989543Y-61797472D02*
G01*
X160993168Y-61798543D01*
X161182942Y-61798572D01*
X161251060Y-61818584D01*
X161297545Y-61872247D01*
X161307956Y-61908988D01*
X161601858Y-64267055D01*
X161602165Y-64270134D01*
X161603682Y-64290353D01*
X161603842Y-64296536D01*
X161603406Y-64315268D01*
X161602959Y-64321433D01*
X161600693Y-64340020D01*
X161599642Y-64346121D01*
X161595560Y-64364412D01*
X161593916Y-64370380D01*
X161588065Y-64388166D01*
X161585846Y-64393938D01*
X161578274Y-64411080D01*
X161575501Y-64416607D01*
X161566292Y-64432913D01*
X161562986Y-64438148D01*
X161558144Y-64445041D01*
X161502620Y-64489286D01*
X161455020Y-64498615D01*
X159834214Y-64498360D01*
X159766097Y-64478347D01*
X159719612Y-64424684D01*
X159708234Y-64372360D01*
X159708234Y-64302852D01*
X159708233Y-64302851D01*
X103926219Y-64399780D01*
X103858064Y-64379896D01*
X103811477Y-64326321D01*
X103800000Y-64273780D01*
X103800000Y-61826215D01*
X103820002Y-61758094D01*
X103873658Y-61711601D01*
X103926215Y-61700215D01*
X160989543Y-61797472D01*
G37*
G36*
X160989543Y-61797472D02*
G01*
X160993168Y-61798543D01*
X162587052Y-61798792D01*
X162655169Y-61818805D01*
X162701654Y-61872468D01*
X162711750Y-61906860D01*
X162743211Y-62125678D01*
X162823707Y-62399822D01*
X162942400Y-62659723D01*
X163096869Y-62900081D01*
X163283980Y-63116019D01*
X163499918Y-63303130D01*
X163740276Y-63457599D01*
X164000177Y-63576292D01*
X164274321Y-63656788D01*
X164557143Y-63697452D01*
X164842857Y-63697452D01*
X165125678Y-63656788D01*
X165399822Y-63576292D01*
X165659723Y-63457599D01*
X165900081Y-63303130D01*
X166116019Y-63116019D01*
X166303130Y-62900081D01*
X166457599Y-62659723D01*
X166576292Y-62399822D01*
X166656788Y-62125677D01*
X166688154Y-61907527D01*
X166717647Y-61842946D01*
X166777374Y-61804562D01*
X166812892Y-61799458D01*
X169566266Y-61799891D01*
X169634383Y-61819904D01*
X169680868Y-61873567D01*
X169692232Y-61927756D01*
X169691261Y-61993392D01*
X169690929Y-61998986D01*
X169645490Y-62435450D01*
X169644662Y-62440991D01*
X169560653Y-62871672D01*
X169559337Y-62877118D01*
X169437410Y-63298655D01*
X169435616Y-63303963D01*
X169276742Y-63713005D01*
X169274483Y-63718132D01*
X169079919Y-64111446D01*
X169077214Y-64116352D01*
X168879881Y-64439443D01*
X168827304Y-64487152D01*
X168772331Y-64499767D01*
X164652367Y-64499119D01*
X164652669Y-64626801D01*
X164632828Y-64694969D01*
X164579282Y-64741589D01*
X164526649Y-64753099D01*
X162094580Y-64752715D01*
X162026463Y-64732702D01*
X161979978Y-64679039D01*
X161968602Y-64625965D01*
X161969359Y-64498695D01*
X159834214Y-64498360D01*
X159766097Y-64478347D01*
X159719612Y-64424684D01*
X159708234Y-64372360D01*
X159708234Y-64302852D01*
X159708233Y-64302851D01*
X159580452Y-64303073D01*
X159512297Y-64283189D01*
X159465711Y-64229614D01*
X159454234Y-64177073D01*
X159454234Y-61921069D01*
X159474236Y-61852948D01*
X159527892Y-61806455D01*
X159580449Y-61795069D01*
X160989543Y-61797472D01*
G37*
G36*
X163479761Y-63287833D02*
G01*
X163496146Y-63299862D01*
X163499914Y-63303127D01*
X163740276Y-63457599D01*
X164000177Y-63576292D01*
X164274321Y-63656788D01*
X164557143Y-63697452D01*
X164778766Y-63697452D01*
X164846887Y-63717454D01*
X164893380Y-63771110D01*
X164904766Y-63823154D01*
X164906068Y-64372840D01*
X164886227Y-64441007D01*
X164832682Y-64487627D01*
X164780049Y-64499138D01*
X164652367Y-64499118D01*
X164652366Y-64499119D01*
X164699756Y-84497424D01*
X164679915Y-84565592D01*
X164662461Y-84587207D01*
X164650000Y-84599559D01*
X164650000Y-84726460D01*
X164629998Y-84794581D01*
X164576342Y-84841074D01*
X164522895Y-84852455D01*
X161874895Y-84829227D01*
X161806952Y-84808628D01*
X161760932Y-84754567D01*
X161750000Y-84703232D01*
X161750000Y-83526000D01*
X161770002Y-83457879D01*
X161823658Y-83411386D01*
X161851660Y-83405294D01*
X161856985Y-83400000D01*
X161969358Y-64498695D01*
X161842085Y-64498675D01*
X161773967Y-64478662D01*
X161727483Y-64424999D01*
X161716107Y-64371926D01*
X161720994Y-63550032D01*
X161721089Y-63546938D01*
X161722205Y-63526690D01*
X161722848Y-63520540D01*
X161725707Y-63502026D01*
X161726950Y-63495966D01*
X161731609Y-63477824D01*
X161733440Y-63471915D01*
X161739858Y-63454309D01*
X161742259Y-63448608D01*
X161750365Y-63431731D01*
X161753312Y-63426294D01*
X161763043Y-63410276D01*
X161766512Y-63405149D01*
X161777756Y-63390177D01*
X161781704Y-63385424D01*
X161794370Y-63371613D01*
X161798776Y-63367259D01*
X161812732Y-63354762D01*
X161817533Y-63350870D01*
X161832640Y-63339803D01*
X161837809Y-63336394D01*
X161853941Y-63326856D01*
X161859410Y-63323975D01*
X161876379Y-63316072D01*
X161882107Y-63313739D01*
X161899791Y-63307529D01*
X161905723Y-63305768D01*
X161923917Y-63301326D01*
X161929990Y-63300155D01*
X161948931Y-63297460D01*
X161954320Y-63296928D01*
X161970259Y-63296044D01*
X163411278Y-63269108D01*
X163479761Y-63287833D01*
G37*
G36*
X164592121Y-106666002D02*
G01*
X164638614Y-106719658D01*
X164650000Y-106772000D01*
X164650000Y-106900000D01*
X168802748Y-106900000D01*
X168870869Y-106920002D01*
X168910278Y-106960324D01*
X169077214Y-107233647D01*
X169079919Y-107238553D01*
X169274483Y-107631867D01*
X169276742Y-107636994D01*
X169435616Y-108046036D01*
X169437410Y-108051344D01*
X169559337Y-108472881D01*
X169560653Y-108478327D01*
X169644662Y-108909008D01*
X169645490Y-108914549D01*
X169690929Y-109351012D01*
X169691261Y-109356605D01*
X169692972Y-109472134D01*
X169673981Y-109540543D01*
X169621020Y-109587826D01*
X169566986Y-109600000D01*
X166819983Y-109600000D01*
X166751862Y-109579998D01*
X166705369Y-109526342D01*
X166695265Y-109491932D01*
X166656788Y-109224321D01*
X166576292Y-108950177D01*
X166457599Y-108690276D01*
X166303130Y-108449918D01*
X166116019Y-108233980D01*
X165900081Y-108046869D01*
X165659723Y-107892400D01*
X165399822Y-107773707D01*
X165125678Y-107693211D01*
X164842857Y-107652548D01*
X164557143Y-107652548D01*
X164274321Y-107693211D01*
X164000177Y-107773707D01*
X163740276Y-107892400D01*
X163499918Y-108046869D01*
X163283980Y-108233980D01*
X163096869Y-108449918D01*
X162942400Y-108690276D01*
X162823707Y-108950177D01*
X162743211Y-109224321D01*
X162704735Y-109491932D01*
X162675242Y-109556512D01*
X162615515Y-109594896D01*
X162580017Y-109600000D01*
X104026000Y-109600000D01*
X103957879Y-109579998D01*
X103911386Y-109526342D01*
X103900000Y-109474000D01*
X103900000Y-107026000D01*
X103920002Y-106957879D01*
X103973658Y-106911386D01*
X104026000Y-106900000D01*
X161750000Y-106900000D01*
X161750000Y-106772000D01*
X161770002Y-106703879D01*
X161823658Y-106657386D01*
X161876000Y-106646000D01*
X164524000Y-106646000D01*
X164592121Y-106666002D01*
G37*
M02*
