%TF.GenerationSoftware,KiCad,Pcbnew,(6.0.4)*%
%TF.CreationDate,2023-01-30T14:26:25+01:00*%
%TF.ProjectId,Apollo - DSP,41706f6c-6c6f-4202-9d20-4453502e6b69,rev?*%
%TF.SameCoordinates,Original*%
%TF.FileFunction,Legend,Top*%
%TF.FilePolarity,Positive*%
%FSLAX46Y46*%
G04 Gerber Fmt 4.6, Leading zero omitted, Abs format (unit mm)*
G04 Created by KiCad (PCBNEW (6.0.4)) date 2023-01-30 14:26:25*
%MOMM*%
%LPD*%
G01*
G04 APERTURE LIST*
%ADD10C,0.150000*%
%ADD11C,0.187500*%
%ADD12C,0.300000*%
%ADD13C,0.120000*%
%ADD14C,0.127000*%
%ADD15C,0.200000*%
G04 APERTURE END LIST*
D10*
X85485714Y-116300000D02*
X85390476Y-116252380D01*
X85247619Y-116252380D01*
X85104761Y-116300000D01*
X85009523Y-116395238D01*
X84961904Y-116490476D01*
X84914285Y-116680952D01*
X84914285Y-116823809D01*
X84961904Y-117014285D01*
X85009523Y-117109523D01*
X85104761Y-117204761D01*
X85247619Y-117252380D01*
X85342857Y-117252380D01*
X85485714Y-117204761D01*
X85533333Y-117157142D01*
X85533333Y-116823809D01*
X85342857Y-116823809D01*
X85961904Y-117252380D02*
X85961904Y-116585714D01*
X85961904Y-116252380D02*
X85914285Y-116300000D01*
X85961904Y-116347619D01*
X86009523Y-116300000D01*
X85961904Y-116252380D01*
X85961904Y-116347619D01*
X86295238Y-116585714D02*
X86676190Y-116585714D01*
X86438095Y-116252380D02*
X86438095Y-117109523D01*
X86485714Y-117204761D01*
X86580952Y-117252380D01*
X86676190Y-117252380D01*
X87009523Y-117252380D02*
X87009523Y-116252380D01*
X87009523Y-116728571D02*
X87580952Y-116728571D01*
X87580952Y-117252380D02*
X87580952Y-116252380D01*
X88485714Y-116585714D02*
X88485714Y-117252380D01*
X88057142Y-116585714D02*
X88057142Y-117109523D01*
X88104761Y-117204761D01*
X88200000Y-117252380D01*
X88342857Y-117252380D01*
X88438095Y-117204761D01*
X88485714Y-117157142D01*
X88961904Y-117252380D02*
X88961904Y-116252380D01*
X88961904Y-116633333D02*
X89057142Y-116585714D01*
X89247619Y-116585714D01*
X89342857Y-116633333D01*
X89390476Y-116680952D01*
X89438095Y-116776190D01*
X89438095Y-117061904D01*
X89390476Y-117157142D01*
X89342857Y-117204761D01*
X89247619Y-117252380D01*
X89057142Y-117252380D01*
X88961904Y-117204761D01*
X89866666Y-117157142D02*
X89914285Y-117204761D01*
X89866666Y-117252380D01*
X89819047Y-117204761D01*
X89866666Y-117157142D01*
X89866666Y-117252380D01*
X89866666Y-116633333D02*
X89914285Y-116680952D01*
X89866666Y-116728571D01*
X89819047Y-116680952D01*
X89866666Y-116633333D01*
X89866666Y-116728571D01*
X90961904Y-116252380D02*
X91533333Y-116252380D01*
X91247619Y-117252380D02*
X91247619Y-116252380D01*
X92009523Y-117252380D02*
X91914285Y-117204761D01*
X91866666Y-117157142D01*
X91819047Y-117061904D01*
X91819047Y-116776190D01*
X91866666Y-116680952D01*
X91914285Y-116633333D01*
X92009523Y-116585714D01*
X92152380Y-116585714D01*
X92247619Y-116633333D01*
X92295238Y-116680952D01*
X92342857Y-116776190D01*
X92342857Y-117061904D01*
X92295238Y-117157142D01*
X92247619Y-117204761D01*
X92152380Y-117252380D01*
X92009523Y-117252380D01*
X92771428Y-117252380D02*
X92771428Y-116585714D01*
X92771428Y-116680952D02*
X92819047Y-116633333D01*
X92914285Y-116585714D01*
X93057142Y-116585714D01*
X93152380Y-116633333D01*
X93200000Y-116728571D01*
X93200000Y-117252380D01*
X93200000Y-116728571D02*
X93247619Y-116633333D01*
X93342857Y-116585714D01*
X93485714Y-116585714D01*
X93580952Y-116633333D01*
X93628571Y-116728571D01*
X93628571Y-117252380D01*
X94104761Y-117252380D02*
X94104761Y-116585714D01*
X94104761Y-116680952D02*
X94152380Y-116633333D01*
X94247619Y-116585714D01*
X94390476Y-116585714D01*
X94485714Y-116633333D01*
X94533333Y-116728571D01*
X94533333Y-117252380D01*
X94533333Y-116728571D02*
X94580952Y-116633333D01*
X94676190Y-116585714D01*
X94819047Y-116585714D01*
X94914285Y-116633333D01*
X94961904Y-116728571D01*
X94961904Y-117252380D01*
X95342857Y-116585714D02*
X95580952Y-117252380D01*
X95819047Y-116585714D02*
X95580952Y-117252380D01*
X95485714Y-117490476D01*
X95438095Y-117538095D01*
X95342857Y-117585714D01*
X96152380Y-116347619D02*
X96200000Y-116300000D01*
X96295238Y-116252380D01*
X96533333Y-116252380D01*
X96628571Y-116300000D01*
X96676190Y-116347619D01*
X96723809Y-116442857D01*
X96723809Y-116538095D01*
X96676190Y-116680952D01*
X96104761Y-117252380D01*
X96723809Y-117252380D01*
X97057142Y-116252380D02*
X97723809Y-116252380D01*
X97295238Y-117252380D01*
X98295238Y-116252380D02*
X98390476Y-116252380D01*
X98485714Y-116300000D01*
X98533333Y-116347619D01*
X98580952Y-116442857D01*
X98628571Y-116633333D01*
X98628571Y-116871428D01*
X98580952Y-117061904D01*
X98533333Y-117157142D01*
X98485714Y-117204761D01*
X98390476Y-117252380D01*
X98295238Y-117252380D01*
X98200000Y-117204761D01*
X98152380Y-117157142D01*
X98104761Y-117061904D01*
X98057142Y-116871428D01*
X98057142Y-116633333D01*
X98104761Y-116442857D01*
X98152380Y-116347619D01*
X98200000Y-116300000D01*
X98295238Y-116252380D01*
X99533333Y-116252380D02*
X99057142Y-116252380D01*
X99009523Y-116728571D01*
X99057142Y-116680952D01*
X99152380Y-116633333D01*
X99390476Y-116633333D01*
X99485714Y-116680952D01*
X99533333Y-116728571D01*
X99580952Y-116823809D01*
X99580952Y-117061904D01*
X99533333Y-117157142D01*
X99485714Y-117204761D01*
X99390476Y-117252380D01*
X99152380Y-117252380D01*
X99057142Y-117204761D01*
X99009523Y-117157142D01*
X100200000Y-116252380D02*
X100295238Y-116252380D01*
X100390476Y-116300000D01*
X100438095Y-116347619D01*
X100485714Y-116442857D01*
X100533333Y-116633333D01*
X100533333Y-116871428D01*
X100485714Y-117061904D01*
X100438095Y-117157142D01*
X100390476Y-117204761D01*
X100295238Y-117252380D01*
X100200000Y-117252380D01*
X100104761Y-117204761D01*
X100057142Y-117157142D01*
X100009523Y-117061904D01*
X99961904Y-116871428D01*
X99961904Y-116633333D01*
X100009523Y-116442857D01*
X100057142Y-116347619D01*
X100104761Y-116300000D01*
X100200000Y-116252380D01*
X100914285Y-116347619D02*
X100961904Y-116300000D01*
X101057142Y-116252380D01*
X101295238Y-116252380D01*
X101390476Y-116300000D01*
X101438095Y-116347619D01*
X101485714Y-116442857D01*
X101485714Y-116538095D01*
X101438095Y-116680952D01*
X100866666Y-117252380D01*
X101485714Y-117252380D01*
D11*
X89971428Y-83589285D02*
X90435714Y-83589285D01*
X90185714Y-83875000D01*
X90292857Y-83875000D01*
X90364285Y-83910714D01*
X90400000Y-83946428D01*
X90435714Y-84017857D01*
X90435714Y-84196428D01*
X90400000Y-84267857D01*
X90364285Y-84303571D01*
X90292857Y-84339285D01*
X90078571Y-84339285D01*
X90007142Y-84303571D01*
X89971428Y-84267857D01*
X90650000Y-83589285D02*
X90900000Y-84339285D01*
X91150000Y-83589285D01*
X91328571Y-83589285D02*
X91792857Y-83589285D01*
X91542857Y-83875000D01*
X91650000Y-83875000D01*
X91721428Y-83910714D01*
X91757142Y-83946428D01*
X91792857Y-84017857D01*
X91792857Y-84196428D01*
X91757142Y-84267857D01*
X91721428Y-84303571D01*
X91650000Y-84339285D01*
X91435714Y-84339285D01*
X91364285Y-84303571D01*
X91328571Y-84267857D01*
D12*
X84678571Y-112857142D02*
X83178571Y-112857142D01*
X83178571Y-112285714D01*
X83250000Y-112142857D01*
X83321428Y-112071428D01*
X83464285Y-112000000D01*
X83678571Y-112000000D01*
X83821428Y-112071428D01*
X83892857Y-112142857D01*
X83964285Y-112285714D01*
X83964285Y-112857142D01*
X84607142Y-111428571D02*
X84678571Y-111214285D01*
X84678571Y-110857142D01*
X84607142Y-110714285D01*
X84535714Y-110642857D01*
X84392857Y-110571428D01*
X84250000Y-110571428D01*
X84107142Y-110642857D01*
X84035714Y-110714285D01*
X83964285Y-110857142D01*
X83892857Y-111142857D01*
X83821428Y-111285714D01*
X83750000Y-111357142D01*
X83607142Y-111428571D01*
X83464285Y-111428571D01*
X83321428Y-111357142D01*
X83250000Y-111285714D01*
X83178571Y-111142857D01*
X83178571Y-110785714D01*
X83250000Y-110571428D01*
X84678571Y-109071428D02*
X83964285Y-109571428D01*
X84678571Y-109928571D02*
X83178571Y-109928571D01*
X83178571Y-109357142D01*
X83250000Y-109214285D01*
X83321428Y-109142857D01*
X83464285Y-109071428D01*
X83678571Y-109071428D01*
X83821428Y-109142857D01*
X83892857Y-109214285D01*
X83964285Y-109357142D01*
X83964285Y-109928571D01*
X84250000Y-108500000D02*
X84250000Y-107785714D01*
X84678571Y-108642857D02*
X83178571Y-108142857D01*
X84678571Y-107642857D01*
X84678571Y-107142857D02*
X83178571Y-107142857D01*
X84250000Y-106642857D01*
X83178571Y-106142857D01*
X84678571Y-106142857D01*
D11*
X107382142Y-83389285D02*
X107810714Y-83389285D01*
X107596428Y-84139285D02*
X107596428Y-83389285D01*
X107989285Y-84139285D02*
X108382142Y-83639285D01*
X107989285Y-83639285D02*
X108382142Y-84139285D01*
D10*
X91304761Y-113366666D02*
X91780952Y-113366666D01*
X91209523Y-113652380D02*
X91542857Y-112652380D01*
X91876190Y-113652380D01*
X92209523Y-113652380D02*
X92209523Y-112652380D01*
X92590476Y-112652380D01*
X92685714Y-112700000D01*
X92733333Y-112747619D01*
X92780952Y-112842857D01*
X92780952Y-112985714D01*
X92733333Y-113080952D01*
X92685714Y-113128571D01*
X92590476Y-113176190D01*
X92209523Y-113176190D01*
X93400000Y-112652380D02*
X93590476Y-112652380D01*
X93685714Y-112700000D01*
X93780952Y-112795238D01*
X93828571Y-112985714D01*
X93828571Y-113319047D01*
X93780952Y-113509523D01*
X93685714Y-113604761D01*
X93590476Y-113652380D01*
X93400000Y-113652380D01*
X93304761Y-113604761D01*
X93209523Y-113509523D01*
X93161904Y-113319047D01*
X93161904Y-112985714D01*
X93209523Y-112795238D01*
X93304761Y-112700000D01*
X93400000Y-112652380D01*
X94733333Y-113652380D02*
X94257142Y-113652380D01*
X94257142Y-112652380D01*
X95542857Y-113652380D02*
X95066666Y-113652380D01*
X95066666Y-112652380D01*
X96066666Y-112652380D02*
X96257142Y-112652380D01*
X96352380Y-112700000D01*
X96447619Y-112795238D01*
X96495238Y-112985714D01*
X96495238Y-113319047D01*
X96447619Y-113509523D01*
X96352380Y-113604761D01*
X96257142Y-113652380D01*
X96066666Y-113652380D01*
X95971428Y-113604761D01*
X95876190Y-113509523D01*
X95828571Y-113319047D01*
X95828571Y-112985714D01*
X95876190Y-112795238D01*
X95971428Y-112700000D01*
X96066666Y-112652380D01*
D12*
X108650000Y-122078571D02*
X108650000Y-121078571D01*
X108650000Y-121221428D02*
X108721428Y-121150000D01*
X108864285Y-121078571D01*
X109078571Y-121078571D01*
X109221428Y-121150000D01*
X109292857Y-121292857D01*
X109292857Y-122078571D01*
X109292857Y-121292857D02*
X109364285Y-121150000D01*
X109507142Y-121078571D01*
X109721428Y-121078571D01*
X109864285Y-121150000D01*
X109935714Y-121292857D01*
X109935714Y-122078571D01*
X110650000Y-122078571D02*
X110650000Y-121078571D01*
X110650000Y-120578571D02*
X110578571Y-120650000D01*
X110650000Y-120721428D01*
X110721428Y-120650000D01*
X110650000Y-120578571D01*
X110650000Y-120721428D01*
X112007142Y-122007142D02*
X111864285Y-122078571D01*
X111578571Y-122078571D01*
X111435714Y-122007142D01*
X111364285Y-121935714D01*
X111292857Y-121792857D01*
X111292857Y-121364285D01*
X111364285Y-121221428D01*
X111435714Y-121150000D01*
X111578571Y-121078571D01*
X111864285Y-121078571D01*
X112007142Y-121150000D01*
X112650000Y-122078571D02*
X112650000Y-121078571D01*
X112650000Y-121364285D02*
X112721428Y-121221428D01*
X112792857Y-121150000D01*
X112935714Y-121078571D01*
X113078571Y-121078571D01*
X113792857Y-122078571D02*
X113650000Y-122007142D01*
X113578571Y-121935714D01*
X113507142Y-121792857D01*
X113507142Y-121364285D01*
X113578571Y-121221428D01*
X113650000Y-121150000D01*
X113792857Y-121078571D01*
X114007142Y-121078571D01*
X114150000Y-121150000D01*
X114221428Y-121221428D01*
X114292857Y-121364285D01*
X114292857Y-121792857D01*
X114221428Y-121935714D01*
X114150000Y-122007142D01*
X114007142Y-122078571D01*
X113792857Y-122078571D01*
X114864285Y-122007142D02*
X115078571Y-122078571D01*
X115435714Y-122078571D01*
X115578571Y-122007142D01*
X115650000Y-121935714D01*
X115721428Y-121792857D01*
X115721428Y-121650000D01*
X115650000Y-121507142D01*
X115578571Y-121435714D01*
X115435714Y-121364285D01*
X115150000Y-121292857D01*
X115007142Y-121221428D01*
X114935714Y-121150000D01*
X114864285Y-121007142D01*
X114864285Y-120864285D01*
X114935714Y-120721428D01*
X115007142Y-120650000D01*
X115150000Y-120578571D01*
X115507142Y-120578571D01*
X115721428Y-120650000D01*
X116364285Y-122078571D02*
X116364285Y-120578571D01*
X116721428Y-120578571D01*
X116935714Y-120650000D01*
X117078571Y-120792857D01*
X117150000Y-120935714D01*
X117221428Y-121221428D01*
X117221428Y-121435714D01*
X117150000Y-121721428D01*
X117078571Y-121864285D01*
X116935714Y-122007142D01*
X116721428Y-122078571D01*
X116364285Y-122078571D01*
D11*
X98128571Y-83625000D02*
X98057142Y-83589285D01*
X97950000Y-83589285D01*
X97842857Y-83625000D01*
X97771428Y-83696428D01*
X97735714Y-83767857D01*
X97700000Y-83910714D01*
X97700000Y-84017857D01*
X97735714Y-84160714D01*
X97771428Y-84232142D01*
X97842857Y-84303571D01*
X97950000Y-84339285D01*
X98021428Y-84339285D01*
X98128571Y-84303571D01*
X98164285Y-84267857D01*
X98164285Y-84017857D01*
X98021428Y-84017857D01*
X98485714Y-84339285D02*
X98485714Y-83589285D01*
X98914285Y-84339285D01*
X98914285Y-83589285D01*
X99271428Y-84339285D02*
X99271428Y-83589285D01*
X99450000Y-83589285D01*
X99557142Y-83625000D01*
X99628571Y-83696428D01*
X99664285Y-83767857D01*
X99700000Y-83910714D01*
X99700000Y-84017857D01*
X99664285Y-84160714D01*
X99628571Y-84232142D01*
X99557142Y-84303571D01*
X99450000Y-84339285D01*
X99271428Y-84339285D01*
X120152380Y-87961904D02*
X120961904Y-87961904D01*
X121057142Y-87914285D01*
X121104761Y-87866666D01*
X121152380Y-87771428D01*
X121152380Y-87580952D01*
X121104761Y-87485714D01*
X121057142Y-87438095D01*
X120961904Y-87390476D01*
X120152380Y-87390476D01*
X121104761Y-86961904D02*
X121152380Y-86819047D01*
X121152380Y-86580952D01*
X121104761Y-86485714D01*
X121057142Y-86438095D01*
X120961904Y-86390476D01*
X120866666Y-86390476D01*
X120771428Y-86438095D01*
X120723809Y-86485714D01*
X120676190Y-86580952D01*
X120628571Y-86771428D01*
X120580952Y-86866666D01*
X120533333Y-86914285D01*
X120438095Y-86961904D01*
X120342857Y-86961904D01*
X120247619Y-86914285D01*
X120200000Y-86866666D01*
X120152380Y-86771428D01*
X120152380Y-86533333D01*
X120200000Y-86390476D01*
X120628571Y-85628571D02*
X120676190Y-85485714D01*
X120723809Y-85438095D01*
X120819047Y-85390476D01*
X120961904Y-85390476D01*
X121057142Y-85438095D01*
X121104761Y-85485714D01*
X121152380Y-85580952D01*
X121152380Y-85961904D01*
X120152380Y-85961904D01*
X120152380Y-85628571D01*
X120200000Y-85533333D01*
X120247619Y-85485714D01*
X120342857Y-85438095D01*
X120438095Y-85438095D01*
X120533333Y-85485714D01*
X120580952Y-85533333D01*
X120628571Y-85628571D01*
X120628571Y-85961904D01*
X121057142Y-84390476D02*
X121104761Y-84438095D01*
X121152380Y-84580952D01*
X121152380Y-84676190D01*
X121104761Y-84819047D01*
X121009523Y-84914285D01*
X120914285Y-84961904D01*
X120723809Y-85009523D01*
X120580952Y-85009523D01*
X120390476Y-84961904D01*
X120295238Y-84914285D01*
X120200000Y-84819047D01*
X120152380Y-84676190D01*
X120152380Y-84580952D01*
X120200000Y-84438095D01*
X120247619Y-84390476D01*
X83282142Y-84203571D02*
X83389285Y-84239285D01*
X83567857Y-84239285D01*
X83639285Y-84203571D01*
X83675000Y-84167857D01*
X83710714Y-84096428D01*
X83710714Y-84025000D01*
X83675000Y-83953571D01*
X83639285Y-83917857D01*
X83567857Y-83882142D01*
X83425000Y-83846428D01*
X83353571Y-83810714D01*
X83317857Y-83775000D01*
X83282142Y-83703571D01*
X83282142Y-83632142D01*
X83317857Y-83560714D01*
X83353571Y-83525000D01*
X83425000Y-83489285D01*
X83603571Y-83489285D01*
X83710714Y-83525000D01*
X83960714Y-83489285D02*
X84139285Y-84239285D01*
X84282142Y-83703571D01*
X84425000Y-84239285D01*
X84603571Y-83489285D01*
X85317857Y-84167857D02*
X85282142Y-84203571D01*
X85175000Y-84239285D01*
X85103571Y-84239285D01*
X84996428Y-84203571D01*
X84925000Y-84132142D01*
X84889285Y-84060714D01*
X84853571Y-83917857D01*
X84853571Y-83810714D01*
X84889285Y-83667857D01*
X84925000Y-83596428D01*
X84996428Y-83525000D01*
X85103571Y-83489285D01*
X85175000Y-83489285D01*
X85282142Y-83525000D01*
X85317857Y-83560714D01*
D12*
X95435714Y-93778571D02*
X95435714Y-92278571D01*
X96007142Y-92278571D01*
X96150000Y-92350000D01*
X96221428Y-92421428D01*
X96292857Y-92564285D01*
X96292857Y-92778571D01*
X96221428Y-92921428D01*
X96150000Y-92992857D01*
X96007142Y-93064285D01*
X95435714Y-93064285D01*
X97150000Y-93778571D02*
X97007142Y-93707142D01*
X96935714Y-93635714D01*
X96864285Y-93492857D01*
X96864285Y-93064285D01*
X96935714Y-92921428D01*
X97007142Y-92850000D01*
X97150000Y-92778571D01*
X97364285Y-92778571D01*
X97507142Y-92850000D01*
X97578571Y-92921428D01*
X97650000Y-93064285D01*
X97650000Y-93492857D01*
X97578571Y-93635714D01*
X97507142Y-93707142D01*
X97364285Y-93778571D01*
X97150000Y-93778571D01*
X98150000Y-92778571D02*
X98435714Y-93778571D01*
X98721428Y-93064285D01*
X99007142Y-93778571D01*
X99292857Y-92778571D01*
X100435714Y-93707142D02*
X100292857Y-93778571D01*
X100007142Y-93778571D01*
X99864285Y-93707142D01*
X99792857Y-93564285D01*
X99792857Y-92992857D01*
X99864285Y-92850000D01*
X100007142Y-92778571D01*
X100292857Y-92778571D01*
X100435714Y-92850000D01*
X100507142Y-92992857D01*
X100507142Y-93135714D01*
X99792857Y-93278571D01*
X101150000Y-93778571D02*
X101150000Y-92778571D01*
X101150000Y-93064285D02*
X101221428Y-92921428D01*
X101292857Y-92850000D01*
X101435714Y-92778571D01*
X101578571Y-92778571D01*
D11*
X109928571Y-83525000D02*
X109857142Y-83489285D01*
X109750000Y-83489285D01*
X109642857Y-83525000D01*
X109571428Y-83596428D01*
X109535714Y-83667857D01*
X109500000Y-83810714D01*
X109500000Y-83917857D01*
X109535714Y-84060714D01*
X109571428Y-84132142D01*
X109642857Y-84203571D01*
X109750000Y-84239285D01*
X109821428Y-84239285D01*
X109928571Y-84203571D01*
X109964285Y-84167857D01*
X109964285Y-83917857D01*
X109821428Y-83917857D01*
X110285714Y-84239285D02*
X110285714Y-83489285D01*
X110714285Y-84239285D01*
X110714285Y-83489285D01*
X111071428Y-84239285D02*
X111071428Y-83489285D01*
X111250000Y-83489285D01*
X111357142Y-83525000D01*
X111428571Y-83596428D01*
X111464285Y-83667857D01*
X111500000Y-83810714D01*
X111500000Y-83917857D01*
X111464285Y-84060714D01*
X111428571Y-84132142D01*
X111357142Y-84203571D01*
X111250000Y-84239285D01*
X111071428Y-84239285D01*
X78371428Y-83389285D02*
X78835714Y-83389285D01*
X78585714Y-83675000D01*
X78692857Y-83675000D01*
X78764285Y-83710714D01*
X78800000Y-83746428D01*
X78835714Y-83817857D01*
X78835714Y-83996428D01*
X78800000Y-84067857D01*
X78764285Y-84103571D01*
X78692857Y-84139285D01*
X78478571Y-84139285D01*
X78407142Y-84103571D01*
X78371428Y-84067857D01*
X79050000Y-83389285D02*
X79300000Y-84139285D01*
X79550000Y-83389285D01*
X79728571Y-83389285D02*
X80192857Y-83389285D01*
X79942857Y-83675000D01*
X80050000Y-83675000D01*
X80121428Y-83710714D01*
X80157142Y-83746428D01*
X80192857Y-83817857D01*
X80192857Y-83996428D01*
X80157142Y-84067857D01*
X80121428Y-84103571D01*
X80050000Y-84139285D01*
X79835714Y-84139285D01*
X79764285Y-84103571D01*
X79728571Y-84067857D01*
D10*
X88919047Y-114352380D02*
X89490476Y-114352380D01*
X89204761Y-115352380D02*
X89204761Y-114352380D01*
X89823809Y-115352380D02*
X89823809Y-114352380D01*
X90252380Y-115352380D02*
X90252380Y-114828571D01*
X90204761Y-114733333D01*
X90109523Y-114685714D01*
X89966666Y-114685714D01*
X89871428Y-114733333D01*
X89823809Y-114780952D01*
X90871428Y-115352380D02*
X90776190Y-115304761D01*
X90728571Y-115257142D01*
X90680952Y-115161904D01*
X90680952Y-114876190D01*
X90728571Y-114780952D01*
X90776190Y-114733333D01*
X90871428Y-114685714D01*
X91014285Y-114685714D01*
X91109523Y-114733333D01*
X91157142Y-114780952D01*
X91204761Y-114876190D01*
X91204761Y-115161904D01*
X91157142Y-115257142D01*
X91109523Y-115304761D01*
X91014285Y-115352380D01*
X90871428Y-115352380D01*
X91633333Y-115352380D02*
X91633333Y-114685714D01*
X91633333Y-114780952D02*
X91680952Y-114733333D01*
X91776190Y-114685714D01*
X91919047Y-114685714D01*
X92014285Y-114733333D01*
X92061904Y-114828571D01*
X92061904Y-115352380D01*
X92061904Y-114828571D02*
X92109523Y-114733333D01*
X92204761Y-114685714D01*
X92347619Y-114685714D01*
X92442857Y-114733333D01*
X92490476Y-114828571D01*
X92490476Y-115352380D01*
X93395238Y-115352380D02*
X93395238Y-114828571D01*
X93347619Y-114733333D01*
X93252380Y-114685714D01*
X93061904Y-114685714D01*
X92966666Y-114733333D01*
X93395238Y-115304761D02*
X93300000Y-115352380D01*
X93061904Y-115352380D01*
X92966666Y-115304761D01*
X92919047Y-115209523D01*
X92919047Y-115114285D01*
X92966666Y-115019047D01*
X93061904Y-114971428D01*
X93300000Y-114971428D01*
X93395238Y-114923809D01*
X93823809Y-115304761D02*
X93919047Y-115352380D01*
X94109523Y-115352380D01*
X94204761Y-115304761D01*
X94252380Y-115209523D01*
X94252380Y-115161904D01*
X94204761Y-115066666D01*
X94109523Y-115019047D01*
X93966666Y-115019047D01*
X93871428Y-114971428D01*
X93823809Y-114876190D01*
X93823809Y-114828571D01*
X93871428Y-114733333D01*
X93966666Y-114685714D01*
X94109523Y-114685714D01*
X94204761Y-114733333D01*
X95442857Y-115352380D02*
X95442857Y-114352380D01*
X95823809Y-114352380D01*
X95919047Y-114400000D01*
X95966666Y-114447619D01*
X96014285Y-114542857D01*
X96014285Y-114685714D01*
X95966666Y-114780952D01*
X95919047Y-114828571D01*
X95823809Y-114876190D01*
X95442857Y-114876190D01*
X96823809Y-115304761D02*
X96728571Y-115352380D01*
X96538095Y-115352380D01*
X96442857Y-115304761D01*
X96395238Y-115209523D01*
X96395238Y-114828571D01*
X96442857Y-114733333D01*
X96538095Y-114685714D01*
X96728571Y-114685714D01*
X96823809Y-114733333D01*
X96871428Y-114828571D01*
X96871428Y-114923809D01*
X96395238Y-115019047D01*
X97300000Y-115352380D02*
X97300000Y-114685714D01*
X97300000Y-114876190D02*
X97347619Y-114780952D01*
X97395238Y-114733333D01*
X97490476Y-114685714D01*
X97585714Y-114685714D01*
X97919047Y-115352380D02*
X97919047Y-114685714D01*
X97919047Y-114876190D02*
X97966666Y-114780952D01*
X98014285Y-114733333D01*
X98109523Y-114685714D01*
X98204761Y-114685714D01*
X98538095Y-115352380D02*
X98538095Y-114685714D01*
X98538095Y-114352380D02*
X98490476Y-114400000D01*
X98538095Y-114447619D01*
X98585714Y-114400000D01*
X98538095Y-114352380D01*
X98538095Y-114447619D01*
D12*
X90642857Y-108650000D02*
X91357142Y-108650000D01*
X90500000Y-109078571D02*
X91000000Y-107578571D01*
X91500000Y-109078571D01*
X92000000Y-108078571D02*
X92000000Y-109078571D01*
X92000000Y-108221428D02*
X92071428Y-108150000D01*
X92214285Y-108078571D01*
X92428571Y-108078571D01*
X92571428Y-108150000D01*
X92642857Y-108292857D01*
X92642857Y-109078571D01*
X94000000Y-109078571D02*
X94000000Y-108292857D01*
X93928571Y-108150000D01*
X93785714Y-108078571D01*
X93500000Y-108078571D01*
X93357142Y-108150000D01*
X94000000Y-109007142D02*
X93857142Y-109078571D01*
X93500000Y-109078571D01*
X93357142Y-109007142D01*
X93285714Y-108864285D01*
X93285714Y-108721428D01*
X93357142Y-108578571D01*
X93500000Y-108507142D01*
X93857142Y-108507142D01*
X94000000Y-108435714D01*
X94928571Y-109078571D02*
X94785714Y-109007142D01*
X94714285Y-108864285D01*
X94714285Y-107578571D01*
X95714285Y-109078571D02*
X95571428Y-109007142D01*
X95500000Y-108935714D01*
X95428571Y-108792857D01*
X95428571Y-108364285D01*
X95500000Y-108221428D01*
X95571428Y-108150000D01*
X95714285Y-108078571D01*
X95928571Y-108078571D01*
X96071428Y-108150000D01*
X96142857Y-108221428D01*
X96214285Y-108364285D01*
X96214285Y-108792857D01*
X96142857Y-108935714D01*
X96071428Y-109007142D01*
X95928571Y-109078571D01*
X95714285Y-109078571D01*
X97500000Y-108078571D02*
X97500000Y-109292857D01*
X97428571Y-109435714D01*
X97357142Y-109507142D01*
X97214285Y-109578571D01*
X97000000Y-109578571D01*
X96857142Y-109507142D01*
X97500000Y-109007142D02*
X97357142Y-109078571D01*
X97071428Y-109078571D01*
X96928571Y-109007142D01*
X96857142Y-108935714D01*
X96785714Y-108792857D01*
X96785714Y-108364285D01*
X96857142Y-108221428D01*
X96928571Y-108150000D01*
X97071428Y-108078571D01*
X97357142Y-108078571D01*
X97500000Y-108150000D01*
X99357142Y-109078571D02*
X99357142Y-107578571D01*
X99928571Y-107578571D01*
X100071428Y-107650000D01*
X100142857Y-107721428D01*
X100214285Y-107864285D01*
X100214285Y-108078571D01*
X100142857Y-108221428D01*
X100071428Y-108292857D01*
X99928571Y-108364285D01*
X99357142Y-108364285D01*
X101071428Y-109078571D02*
X100928571Y-109007142D01*
X100857142Y-108935714D01*
X100785714Y-108792857D01*
X100785714Y-108364285D01*
X100857142Y-108221428D01*
X100928571Y-108150000D01*
X101071428Y-108078571D01*
X101285714Y-108078571D01*
X101428571Y-108150000D01*
X101500000Y-108221428D01*
X101571428Y-108364285D01*
X101571428Y-108792857D01*
X101500000Y-108935714D01*
X101428571Y-109007142D01*
X101285714Y-109078571D01*
X101071428Y-109078571D01*
X102071428Y-108078571D02*
X102357142Y-109078571D01*
X102642857Y-108364285D01*
X102928571Y-109078571D01*
X103214285Y-108078571D01*
X104357142Y-109007142D02*
X104214285Y-109078571D01*
X103928571Y-109078571D01*
X103785714Y-109007142D01*
X103714285Y-108864285D01*
X103714285Y-108292857D01*
X103785714Y-108150000D01*
X103928571Y-108078571D01*
X104214285Y-108078571D01*
X104357142Y-108150000D01*
X104428571Y-108292857D01*
X104428571Y-108435714D01*
X103714285Y-108578571D01*
X105071428Y-109078571D02*
X105071428Y-108078571D01*
X105071428Y-108364285D02*
X105142857Y-108221428D01*
X105214285Y-108150000D01*
X105357142Y-108078571D01*
X105499999Y-108078571D01*
D11*
X101871428Y-83389285D02*
X102335714Y-83389285D01*
X102085714Y-83675000D01*
X102192857Y-83675000D01*
X102264285Y-83710714D01*
X102300000Y-83746428D01*
X102335714Y-83817857D01*
X102335714Y-83996428D01*
X102300000Y-84067857D01*
X102264285Y-84103571D01*
X102192857Y-84139285D01*
X101978571Y-84139285D01*
X101907142Y-84103571D01*
X101871428Y-84067857D01*
X102550000Y-83389285D02*
X102800000Y-84139285D01*
X103050000Y-83389285D01*
X103228571Y-83389285D02*
X103692857Y-83389285D01*
X103442857Y-83675000D01*
X103550000Y-83675000D01*
X103621428Y-83710714D01*
X103657142Y-83746428D01*
X103692857Y-83817857D01*
X103692857Y-83996428D01*
X103657142Y-84067857D01*
X103621428Y-84103571D01*
X103550000Y-84139285D01*
X103335714Y-84139285D01*
X103264285Y-84103571D01*
X103228571Y-84067857D01*
X95107142Y-84303571D02*
X95214285Y-84339285D01*
X95392857Y-84339285D01*
X95464285Y-84303571D01*
X95500000Y-84267857D01*
X95535714Y-84196428D01*
X95535714Y-84125000D01*
X95500000Y-84053571D01*
X95464285Y-84017857D01*
X95392857Y-83982142D01*
X95250000Y-83946428D01*
X95178571Y-83910714D01*
X95142857Y-83875000D01*
X95107142Y-83803571D01*
X95107142Y-83732142D01*
X95142857Y-83660714D01*
X95178571Y-83625000D01*
X95250000Y-83589285D01*
X95428571Y-83589285D01*
X95535714Y-83625000D01*
X96285714Y-84267857D02*
X96250000Y-84303571D01*
X96142857Y-84339285D01*
X96071428Y-84339285D01*
X95964285Y-84303571D01*
X95892857Y-84232142D01*
X95857142Y-84160714D01*
X95821428Y-84017857D01*
X95821428Y-83910714D01*
X95857142Y-83767857D01*
X95892857Y-83696428D01*
X95964285Y-83625000D01*
X96071428Y-83589285D01*
X96142857Y-83589285D01*
X96250000Y-83625000D01*
X96285714Y-83660714D01*
X96964285Y-84339285D02*
X96607142Y-84339285D01*
X96607142Y-83589285D01*
X80782142Y-84103571D02*
X80889285Y-84139285D01*
X81067857Y-84139285D01*
X81139285Y-84103571D01*
X81175000Y-84067857D01*
X81210714Y-83996428D01*
X81210714Y-83925000D01*
X81175000Y-83853571D01*
X81139285Y-83817857D01*
X81067857Y-83782142D01*
X80925000Y-83746428D01*
X80853571Y-83710714D01*
X80817857Y-83675000D01*
X80782142Y-83603571D01*
X80782142Y-83532142D01*
X80817857Y-83460714D01*
X80853571Y-83425000D01*
X80925000Y-83389285D01*
X81103571Y-83389285D01*
X81210714Y-83425000D01*
X81460714Y-83389285D02*
X81639285Y-84139285D01*
X81782142Y-83603571D01*
X81925000Y-84139285D01*
X82103571Y-83389285D01*
X82389285Y-84139285D02*
X82389285Y-83389285D01*
X82567857Y-83389285D01*
X82675000Y-83425000D01*
X82746428Y-83496428D01*
X82782142Y-83567857D01*
X82817857Y-83710714D01*
X82817857Y-83817857D01*
X82782142Y-83960714D01*
X82746428Y-84032142D01*
X82675000Y-84103571D01*
X82567857Y-84139285D01*
X82389285Y-84139285D01*
X86228571Y-83525000D02*
X86157142Y-83489285D01*
X86050000Y-83489285D01*
X85942857Y-83525000D01*
X85871428Y-83596428D01*
X85835714Y-83667857D01*
X85800000Y-83810714D01*
X85800000Y-83917857D01*
X85835714Y-84060714D01*
X85871428Y-84132142D01*
X85942857Y-84203571D01*
X86050000Y-84239285D01*
X86121428Y-84239285D01*
X86228571Y-84203571D01*
X86264285Y-84167857D01*
X86264285Y-83917857D01*
X86121428Y-83917857D01*
X86585714Y-84239285D02*
X86585714Y-83489285D01*
X87014285Y-84239285D01*
X87014285Y-83489285D01*
X87371428Y-84239285D02*
X87371428Y-83489285D01*
X87550000Y-83489285D01*
X87657142Y-83525000D01*
X87728571Y-83596428D01*
X87764285Y-83667857D01*
X87800000Y-83810714D01*
X87800000Y-83917857D01*
X87764285Y-84060714D01*
X87728571Y-84132142D01*
X87657142Y-84203571D01*
X87550000Y-84239285D01*
X87371428Y-84239285D01*
D12*
X72742857Y-98678571D02*
X72742857Y-97178571D01*
X73100000Y-97178571D01*
X73314285Y-97250000D01*
X73457142Y-97392857D01*
X73528571Y-97535714D01*
X73600000Y-97821428D01*
X73600000Y-98035714D01*
X73528571Y-98321428D01*
X73457142Y-98464285D01*
X73314285Y-98607142D01*
X73100000Y-98678571D01*
X72742857Y-98678571D01*
X74171428Y-98607142D02*
X74385714Y-98678571D01*
X74742857Y-98678571D01*
X74885714Y-98607142D01*
X74957142Y-98535714D01*
X75028571Y-98392857D01*
X75028571Y-98250000D01*
X74957142Y-98107142D01*
X74885714Y-98035714D01*
X74742857Y-97964285D01*
X74457142Y-97892857D01*
X74314285Y-97821428D01*
X74242857Y-97750000D01*
X74171428Y-97607142D01*
X74171428Y-97464285D01*
X74242857Y-97321428D01*
X74314285Y-97250000D01*
X74457142Y-97178571D01*
X74814285Y-97178571D01*
X75028571Y-97250000D01*
X75671428Y-98678571D02*
X75671428Y-97178571D01*
X76242857Y-97178571D01*
X76385714Y-97250000D01*
X76457142Y-97321428D01*
X76528571Y-97464285D01*
X76528571Y-97678571D01*
X76457142Y-97821428D01*
X76385714Y-97892857D01*
X76242857Y-97964285D01*
X75671428Y-97964285D01*
X58171428Y-97150000D02*
X58885714Y-97150000D01*
X58028571Y-97578571D02*
X58528571Y-96078571D01*
X59028571Y-97578571D01*
X59528571Y-97578571D02*
X59528571Y-96078571D01*
X60385714Y-97578571D01*
X60385714Y-96078571D01*
X61028571Y-97150000D02*
X61742857Y-97150000D01*
X60885714Y-97578571D02*
X61385714Y-96078571D01*
X61885714Y-97578571D01*
X63100000Y-97578571D02*
X62385714Y-97578571D01*
X62385714Y-96078571D01*
X63885714Y-96078571D02*
X64171428Y-96078571D01*
X64314285Y-96150000D01*
X64457142Y-96292857D01*
X64528571Y-96578571D01*
X64528571Y-97078571D01*
X64457142Y-97364285D01*
X64314285Y-97507142D01*
X64171428Y-97578571D01*
X63885714Y-97578571D01*
X63742857Y-97507142D01*
X63600000Y-97364285D01*
X63528571Y-97078571D01*
X63528571Y-96578571D01*
X63600000Y-96292857D01*
X63742857Y-96150000D01*
X63885714Y-96078571D01*
X65957142Y-96150000D02*
X65814285Y-96078571D01*
X65600000Y-96078571D01*
X65385714Y-96150000D01*
X65242857Y-96292857D01*
X65171428Y-96435714D01*
X65100000Y-96721428D01*
X65100000Y-96935714D01*
X65171428Y-97221428D01*
X65242857Y-97364285D01*
X65385714Y-97507142D01*
X65600000Y-97578571D01*
X65742857Y-97578571D01*
X65957142Y-97507142D01*
X66028571Y-97435714D01*
X66028571Y-96935714D01*
X65742857Y-96935714D01*
D11*
X105228571Y-84139285D02*
X104978571Y-83782142D01*
X104800000Y-84139285D02*
X104800000Y-83389285D01*
X105085714Y-83389285D01*
X105157142Y-83425000D01*
X105192857Y-83460714D01*
X105228571Y-83532142D01*
X105228571Y-83639285D01*
X105192857Y-83710714D01*
X105157142Y-83746428D01*
X105085714Y-83782142D01*
X104800000Y-83782142D01*
X105478571Y-84139285D02*
X105871428Y-83639285D01*
X105478571Y-83639285D02*
X105871428Y-84139285D01*
X92489285Y-84303571D02*
X92596428Y-84339285D01*
X92775000Y-84339285D01*
X92846428Y-84303571D01*
X92882142Y-84267857D01*
X92917857Y-84196428D01*
X92917857Y-84125000D01*
X92882142Y-84053571D01*
X92846428Y-84017857D01*
X92775000Y-83982142D01*
X92632142Y-83946428D01*
X92560714Y-83910714D01*
X92525000Y-83875000D01*
X92489285Y-83803571D01*
X92489285Y-83732142D01*
X92525000Y-83660714D01*
X92560714Y-83625000D01*
X92632142Y-83589285D01*
X92810714Y-83589285D01*
X92917857Y-83625000D01*
X93239285Y-84339285D02*
X93239285Y-83589285D01*
X93417857Y-83589285D01*
X93525000Y-83625000D01*
X93596428Y-83696428D01*
X93632142Y-83767857D01*
X93667857Y-83910714D01*
X93667857Y-84017857D01*
X93632142Y-84160714D01*
X93596428Y-84232142D01*
X93525000Y-84303571D01*
X93417857Y-84339285D01*
X93239285Y-84339285D01*
X93953571Y-84125000D02*
X94310714Y-84125000D01*
X93882142Y-84339285D02*
X94132142Y-83589285D01*
X94382142Y-84339285D01*
D10*
%TO.C,C2*%
X103258333Y-100057142D02*
X103210714Y-100104761D01*
X103067857Y-100152380D01*
X102972619Y-100152380D01*
X102829761Y-100104761D01*
X102734523Y-100009523D01*
X102686904Y-99914285D01*
X102639285Y-99723809D01*
X102639285Y-99580952D01*
X102686904Y-99390476D01*
X102734523Y-99295238D01*
X102829761Y-99200000D01*
X102972619Y-99152380D01*
X103067857Y-99152380D01*
X103210714Y-99200000D01*
X103258333Y-99247619D01*
X103639285Y-99247619D02*
X103686904Y-99200000D01*
X103782142Y-99152380D01*
X104020238Y-99152380D01*
X104115476Y-99200000D01*
X104163095Y-99247619D01*
X104210714Y-99342857D01*
X104210714Y-99438095D01*
X104163095Y-99580952D01*
X103591666Y-100152380D01*
X104210714Y-100152380D01*
%TO.C,D1*%
X89886904Y-93664880D02*
X89886904Y-92664880D01*
X90125000Y-92664880D01*
X90267857Y-92712500D01*
X90363095Y-92807738D01*
X90410714Y-92902976D01*
X90458333Y-93093452D01*
X90458333Y-93236309D01*
X90410714Y-93426785D01*
X90363095Y-93522023D01*
X90267857Y-93617261D01*
X90125000Y-93664880D01*
X89886904Y-93664880D01*
X91410714Y-93664880D02*
X90839285Y-93664880D01*
X91125000Y-93664880D02*
X91125000Y-92664880D01*
X91029761Y-92807738D01*
X90934523Y-92902976D01*
X90839285Y-92950595D01*
%TO.C,C9*%
X103258333Y-105257142D02*
X103210714Y-105304761D01*
X103067857Y-105352380D01*
X102972619Y-105352380D01*
X102829761Y-105304761D01*
X102734523Y-105209523D01*
X102686904Y-105114285D01*
X102639285Y-104923809D01*
X102639285Y-104780952D01*
X102686904Y-104590476D01*
X102734523Y-104495238D01*
X102829761Y-104400000D01*
X102972619Y-104352380D01*
X103067857Y-104352380D01*
X103210714Y-104400000D01*
X103258333Y-104447619D01*
X103734523Y-105352380D02*
X103925000Y-105352380D01*
X104020238Y-105304761D01*
X104067857Y-105257142D01*
X104163095Y-105114285D01*
X104210714Y-104923809D01*
X104210714Y-104542857D01*
X104163095Y-104447619D01*
X104115476Y-104400000D01*
X104020238Y-104352380D01*
X103829761Y-104352380D01*
X103734523Y-104400000D01*
X103686904Y-104447619D01*
X103639285Y-104542857D01*
X103639285Y-104780952D01*
X103686904Y-104876190D01*
X103734523Y-104923809D01*
X103829761Y-104971428D01*
X104020238Y-104971428D01*
X104115476Y-104923809D01*
X104163095Y-104876190D01*
X104210714Y-104780952D01*
%TO.C,C1*%
X110882142Y-98466666D02*
X110929761Y-98514285D01*
X110977380Y-98657142D01*
X110977380Y-98752380D01*
X110929761Y-98895238D01*
X110834523Y-98990476D01*
X110739285Y-99038095D01*
X110548809Y-99085714D01*
X110405952Y-99085714D01*
X110215476Y-99038095D01*
X110120238Y-98990476D01*
X110025000Y-98895238D01*
X109977380Y-98752380D01*
X109977380Y-98657142D01*
X110025000Y-98514285D01*
X110072619Y-98466666D01*
X110977380Y-97514285D02*
X110977380Y-98085714D01*
X110977380Y-97800000D02*
X109977380Y-97800000D01*
X110120238Y-97895238D01*
X110215476Y-97990476D01*
X110263095Y-98085714D01*
%TO.C,C26*%
X66327142Y-116397857D02*
X66374761Y-116445476D01*
X66422380Y-116588333D01*
X66422380Y-116683571D01*
X66374761Y-116826428D01*
X66279523Y-116921666D01*
X66184285Y-116969285D01*
X65993809Y-117016904D01*
X65850952Y-117016904D01*
X65660476Y-116969285D01*
X65565238Y-116921666D01*
X65470000Y-116826428D01*
X65422380Y-116683571D01*
X65422380Y-116588333D01*
X65470000Y-116445476D01*
X65517619Y-116397857D01*
X65517619Y-116016904D02*
X65470000Y-115969285D01*
X65422380Y-115874047D01*
X65422380Y-115635952D01*
X65470000Y-115540714D01*
X65517619Y-115493095D01*
X65612857Y-115445476D01*
X65708095Y-115445476D01*
X65850952Y-115493095D01*
X66422380Y-116064523D01*
X66422380Y-115445476D01*
X65422380Y-114588333D02*
X65422380Y-114778809D01*
X65470000Y-114874047D01*
X65517619Y-114921666D01*
X65660476Y-115016904D01*
X65850952Y-115064523D01*
X66231904Y-115064523D01*
X66327142Y-115016904D01*
X66374761Y-114969285D01*
X66422380Y-114874047D01*
X66422380Y-114683571D01*
X66374761Y-114588333D01*
X66327142Y-114540714D01*
X66231904Y-114493095D01*
X65993809Y-114493095D01*
X65898571Y-114540714D01*
X65850952Y-114588333D01*
X65803333Y-114683571D01*
X65803333Y-114874047D01*
X65850952Y-114969285D01*
X65898571Y-115016904D01*
X65993809Y-115064523D01*
%TO.C,C21*%
X65919687Y-93399500D02*
X65987031Y-93399500D01*
X66121718Y-93466844D01*
X66189061Y-93534187D01*
X66256405Y-93668874D01*
X66256405Y-93803561D01*
X66222733Y-93904576D01*
X66121718Y-94072935D01*
X66020703Y-94173950D01*
X65852344Y-94274966D01*
X65751329Y-94308637D01*
X65616642Y-94308637D01*
X65481955Y-94241294D01*
X65414611Y-94173950D01*
X65347268Y-94039263D01*
X65347268Y-93971920D01*
X65077893Y-93702546D02*
X65010550Y-93702546D01*
X64909535Y-93668874D01*
X64741176Y-93500515D01*
X64707504Y-93399500D01*
X64707504Y-93332157D01*
X64741176Y-93231141D01*
X64808519Y-93163798D01*
X64943206Y-93096454D01*
X65751329Y-93096454D01*
X65313596Y-92658721D01*
X64640161Y-91985286D02*
X65044222Y-92389347D01*
X64842191Y-92187317D02*
X64135084Y-92894424D01*
X64303443Y-92860752D01*
X64438130Y-92860752D01*
X64539145Y-92894424D01*
%TO.C,C31*%
X105107142Y-121830357D02*
X105154761Y-121877976D01*
X105202380Y-122020833D01*
X105202380Y-122116071D01*
X105154761Y-122258928D01*
X105059523Y-122354166D01*
X104964285Y-122401785D01*
X104773809Y-122449404D01*
X104630952Y-122449404D01*
X104440476Y-122401785D01*
X104345238Y-122354166D01*
X104250000Y-122258928D01*
X104202380Y-122116071D01*
X104202380Y-122020833D01*
X104250000Y-121877976D01*
X104297619Y-121830357D01*
X104202380Y-121497023D02*
X104202380Y-120877976D01*
X104583333Y-121211309D01*
X104583333Y-121068452D01*
X104630952Y-120973214D01*
X104678571Y-120925595D01*
X104773809Y-120877976D01*
X105011904Y-120877976D01*
X105107142Y-120925595D01*
X105154761Y-120973214D01*
X105202380Y-121068452D01*
X105202380Y-121354166D01*
X105154761Y-121449404D01*
X105107142Y-121497023D01*
X105202380Y-119925595D02*
X105202380Y-120497023D01*
X105202380Y-120211309D02*
X104202380Y-120211309D01*
X104345238Y-120306547D01*
X104440476Y-120401785D01*
X104488095Y-120497023D01*
%TO.C,F1*%
X112791666Y-97858571D02*
X112458333Y-97858571D01*
X112458333Y-98382380D02*
X112458333Y-97382380D01*
X112934523Y-97382380D01*
X113839285Y-98382380D02*
X113267857Y-98382380D01*
X113553571Y-98382380D02*
X113553571Y-97382380D01*
X113458333Y-97525238D01*
X113363095Y-97620476D01*
X113267857Y-97668095D01*
%TO.C,C28*%
X58727142Y-119610357D02*
X58774761Y-119657976D01*
X58822380Y-119800833D01*
X58822380Y-119896071D01*
X58774761Y-120038928D01*
X58679523Y-120134166D01*
X58584285Y-120181785D01*
X58393809Y-120229404D01*
X58250952Y-120229404D01*
X58060476Y-120181785D01*
X57965238Y-120134166D01*
X57870000Y-120038928D01*
X57822380Y-119896071D01*
X57822380Y-119800833D01*
X57870000Y-119657976D01*
X57917619Y-119610357D01*
X57917619Y-119229404D02*
X57870000Y-119181785D01*
X57822380Y-119086547D01*
X57822380Y-118848452D01*
X57870000Y-118753214D01*
X57917619Y-118705595D01*
X58012857Y-118657976D01*
X58108095Y-118657976D01*
X58250952Y-118705595D01*
X58822380Y-119277023D01*
X58822380Y-118657976D01*
X58250952Y-118086547D02*
X58203333Y-118181785D01*
X58155714Y-118229404D01*
X58060476Y-118277023D01*
X58012857Y-118277023D01*
X57917619Y-118229404D01*
X57870000Y-118181785D01*
X57822380Y-118086547D01*
X57822380Y-117896071D01*
X57870000Y-117800833D01*
X57917619Y-117753214D01*
X58012857Y-117705595D01*
X58060476Y-117705595D01*
X58155714Y-117753214D01*
X58203333Y-117800833D01*
X58250952Y-117896071D01*
X58250952Y-118086547D01*
X58298571Y-118181785D01*
X58346190Y-118229404D01*
X58441428Y-118277023D01*
X58631904Y-118277023D01*
X58727142Y-118229404D01*
X58774761Y-118181785D01*
X58822380Y-118086547D01*
X58822380Y-117896071D01*
X58774761Y-117800833D01*
X58727142Y-117753214D01*
X58631904Y-117705595D01*
X58441428Y-117705595D01*
X58346190Y-117753214D01*
X58298571Y-117800833D01*
X58250952Y-117896071D01*
%TO.C,C23*%
X74457142Y-113542857D02*
X74504761Y-113590476D01*
X74552380Y-113733333D01*
X74552380Y-113828571D01*
X74504761Y-113971428D01*
X74409523Y-114066666D01*
X74314285Y-114114285D01*
X74123809Y-114161904D01*
X73980952Y-114161904D01*
X73790476Y-114114285D01*
X73695238Y-114066666D01*
X73600000Y-113971428D01*
X73552380Y-113828571D01*
X73552380Y-113733333D01*
X73600000Y-113590476D01*
X73647619Y-113542857D01*
X73647619Y-113161904D02*
X73600000Y-113114285D01*
X73552380Y-113019047D01*
X73552380Y-112780952D01*
X73600000Y-112685714D01*
X73647619Y-112638095D01*
X73742857Y-112590476D01*
X73838095Y-112590476D01*
X73980952Y-112638095D01*
X74552380Y-113209523D01*
X74552380Y-112590476D01*
X73552380Y-112257142D02*
X73552380Y-111638095D01*
X73933333Y-111971428D01*
X73933333Y-111828571D01*
X73980952Y-111733333D01*
X74028571Y-111685714D01*
X74123809Y-111638095D01*
X74361904Y-111638095D01*
X74457142Y-111685714D01*
X74504761Y-111733333D01*
X74552380Y-111828571D01*
X74552380Y-112114285D01*
X74504761Y-112209523D01*
X74457142Y-112257142D01*
%TO.C,R11*%
X60464642Y-121919880D02*
X60131309Y-121443690D01*
X59893214Y-121919880D02*
X59893214Y-120919880D01*
X60274166Y-120919880D01*
X60369404Y-120967500D01*
X60417023Y-121015119D01*
X60464642Y-121110357D01*
X60464642Y-121253214D01*
X60417023Y-121348452D01*
X60369404Y-121396071D01*
X60274166Y-121443690D01*
X59893214Y-121443690D01*
X61417023Y-121919880D02*
X60845595Y-121919880D01*
X61131309Y-121919880D02*
X61131309Y-120919880D01*
X61036071Y-121062738D01*
X60940833Y-121157976D01*
X60845595Y-121205595D01*
X62369404Y-121919880D02*
X61797976Y-121919880D01*
X62083690Y-121919880D02*
X62083690Y-120919880D01*
X61988452Y-121062738D01*
X61893214Y-121157976D01*
X61797976Y-121205595D01*
%TO.C,R8*%
X74545833Y-80952380D02*
X74212500Y-80476190D01*
X73974404Y-80952380D02*
X73974404Y-79952380D01*
X74355357Y-79952380D01*
X74450595Y-80000000D01*
X74498214Y-80047619D01*
X74545833Y-80142857D01*
X74545833Y-80285714D01*
X74498214Y-80380952D01*
X74450595Y-80428571D01*
X74355357Y-80476190D01*
X73974404Y-80476190D01*
X75117261Y-80380952D02*
X75022023Y-80333333D01*
X74974404Y-80285714D01*
X74926785Y-80190476D01*
X74926785Y-80142857D01*
X74974404Y-80047619D01*
X75022023Y-80000000D01*
X75117261Y-79952380D01*
X75307738Y-79952380D01*
X75402976Y-80000000D01*
X75450595Y-80047619D01*
X75498214Y-80142857D01*
X75498214Y-80190476D01*
X75450595Y-80285714D01*
X75402976Y-80333333D01*
X75307738Y-80380952D01*
X75117261Y-80380952D01*
X75022023Y-80428571D01*
X74974404Y-80476190D01*
X74926785Y-80571428D01*
X74926785Y-80761904D01*
X74974404Y-80857142D01*
X75022023Y-80904761D01*
X75117261Y-80952380D01*
X75307738Y-80952380D01*
X75402976Y-80904761D01*
X75450595Y-80857142D01*
X75498214Y-80761904D01*
X75498214Y-80571428D01*
X75450595Y-80476190D01*
X75402976Y-80428571D01*
X75307738Y-80380952D01*
%TO.C,FB1*%
X105291666Y-99658571D02*
X104958333Y-99658571D01*
X104958333Y-100182380D02*
X104958333Y-99182380D01*
X105434523Y-99182380D01*
X106148809Y-99658571D02*
X106291666Y-99706190D01*
X106339285Y-99753809D01*
X106386904Y-99849047D01*
X106386904Y-99991904D01*
X106339285Y-100087142D01*
X106291666Y-100134761D01*
X106196428Y-100182380D01*
X105815476Y-100182380D01*
X105815476Y-99182380D01*
X106148809Y-99182380D01*
X106244047Y-99230000D01*
X106291666Y-99277619D01*
X106339285Y-99372857D01*
X106339285Y-99468095D01*
X106291666Y-99563333D01*
X106244047Y-99610952D01*
X106148809Y-99658571D01*
X105815476Y-99658571D01*
X107339285Y-100182380D02*
X106767857Y-100182380D01*
X107053571Y-100182380D02*
X107053571Y-99182380D01*
X106958333Y-99325238D01*
X106863095Y-99420476D01*
X106767857Y-99468095D01*
%TO.C,D3*%
X65831904Y-100589880D02*
X65831904Y-99589880D01*
X66070000Y-99589880D01*
X66212857Y-99637500D01*
X66308095Y-99732738D01*
X66355714Y-99827976D01*
X66403333Y-100018452D01*
X66403333Y-100161309D01*
X66355714Y-100351785D01*
X66308095Y-100447023D01*
X66212857Y-100542261D01*
X66070000Y-100589880D01*
X65831904Y-100589880D01*
X66736666Y-99589880D02*
X67355714Y-99589880D01*
X67022380Y-99970833D01*
X67165238Y-99970833D01*
X67260476Y-100018452D01*
X67308095Y-100066071D01*
X67355714Y-100161309D01*
X67355714Y-100399404D01*
X67308095Y-100494642D01*
X67260476Y-100542261D01*
X67165238Y-100589880D01*
X66879523Y-100589880D01*
X66784285Y-100542261D01*
X66736666Y-100494642D01*
%TO.C,R1*%
X90177380Y-100179166D02*
X89701190Y-100512500D01*
X90177380Y-100750595D02*
X89177380Y-100750595D01*
X89177380Y-100369642D01*
X89225000Y-100274404D01*
X89272619Y-100226785D01*
X89367857Y-100179166D01*
X89510714Y-100179166D01*
X89605952Y-100226785D01*
X89653571Y-100274404D01*
X89701190Y-100369642D01*
X89701190Y-100750595D01*
X90177380Y-99226785D02*
X90177380Y-99798214D01*
X90177380Y-99512500D02*
X89177380Y-99512500D01*
X89320238Y-99607738D01*
X89415476Y-99702976D01*
X89463095Y-99798214D01*
%TO.C,C3*%
X101882142Y-100179166D02*
X101929761Y-100226785D01*
X101977380Y-100369642D01*
X101977380Y-100464880D01*
X101929761Y-100607738D01*
X101834523Y-100702976D01*
X101739285Y-100750595D01*
X101548809Y-100798214D01*
X101405952Y-100798214D01*
X101215476Y-100750595D01*
X101120238Y-100702976D01*
X101025000Y-100607738D01*
X100977380Y-100464880D01*
X100977380Y-100369642D01*
X101025000Y-100226785D01*
X101072619Y-100179166D01*
X100977380Y-99845833D02*
X100977380Y-99226785D01*
X101358333Y-99560119D01*
X101358333Y-99417261D01*
X101405952Y-99322023D01*
X101453571Y-99274404D01*
X101548809Y-99226785D01*
X101786904Y-99226785D01*
X101882142Y-99274404D01*
X101929761Y-99322023D01*
X101977380Y-99417261D01*
X101977380Y-99702976D01*
X101929761Y-99798214D01*
X101882142Y-99845833D01*
%TO.C,C12*%
X93482142Y-106330357D02*
X93529761Y-106377976D01*
X93577380Y-106520833D01*
X93577380Y-106616071D01*
X93529761Y-106758928D01*
X93434523Y-106854166D01*
X93339285Y-106901785D01*
X93148809Y-106949404D01*
X93005952Y-106949404D01*
X92815476Y-106901785D01*
X92720238Y-106854166D01*
X92625000Y-106758928D01*
X92577380Y-106616071D01*
X92577380Y-106520833D01*
X92625000Y-106377976D01*
X92672619Y-106330357D01*
X93577380Y-105377976D02*
X93577380Y-105949404D01*
X93577380Y-105663690D02*
X92577380Y-105663690D01*
X92720238Y-105758928D01*
X92815476Y-105854166D01*
X92863095Y-105949404D01*
X92672619Y-104997023D02*
X92625000Y-104949404D01*
X92577380Y-104854166D01*
X92577380Y-104616071D01*
X92625000Y-104520833D01*
X92672619Y-104473214D01*
X92767857Y-104425595D01*
X92863095Y-104425595D01*
X93005952Y-104473214D01*
X93577380Y-105044642D01*
X93577380Y-104425595D01*
%TO.C,C33*%
X66227142Y-119497857D02*
X66274761Y-119545476D01*
X66322380Y-119688333D01*
X66322380Y-119783571D01*
X66274761Y-119926428D01*
X66179523Y-120021666D01*
X66084285Y-120069285D01*
X65893809Y-120116904D01*
X65750952Y-120116904D01*
X65560476Y-120069285D01*
X65465238Y-120021666D01*
X65370000Y-119926428D01*
X65322380Y-119783571D01*
X65322380Y-119688333D01*
X65370000Y-119545476D01*
X65417619Y-119497857D01*
X65322380Y-119164523D02*
X65322380Y-118545476D01*
X65703333Y-118878809D01*
X65703333Y-118735952D01*
X65750952Y-118640714D01*
X65798571Y-118593095D01*
X65893809Y-118545476D01*
X66131904Y-118545476D01*
X66227142Y-118593095D01*
X66274761Y-118640714D01*
X66322380Y-118735952D01*
X66322380Y-119021666D01*
X66274761Y-119116904D01*
X66227142Y-119164523D01*
X65322380Y-118212142D02*
X65322380Y-117593095D01*
X65703333Y-117926428D01*
X65703333Y-117783571D01*
X65750952Y-117688333D01*
X65798571Y-117640714D01*
X65893809Y-117593095D01*
X66131904Y-117593095D01*
X66227142Y-117640714D01*
X66274761Y-117688333D01*
X66322380Y-117783571D01*
X66322380Y-118069285D01*
X66274761Y-118164523D01*
X66227142Y-118212142D01*
%TO.C,C7*%
X76057142Y-113466666D02*
X76104761Y-113514285D01*
X76152380Y-113657142D01*
X76152380Y-113752380D01*
X76104761Y-113895238D01*
X76009523Y-113990476D01*
X75914285Y-114038095D01*
X75723809Y-114085714D01*
X75580952Y-114085714D01*
X75390476Y-114038095D01*
X75295238Y-113990476D01*
X75200000Y-113895238D01*
X75152380Y-113752380D01*
X75152380Y-113657142D01*
X75200000Y-113514285D01*
X75247619Y-113466666D01*
X75152380Y-113133333D02*
X75152380Y-112466666D01*
X76152380Y-112895238D01*
%TO.C,C30*%
X106807142Y-121830357D02*
X106854761Y-121877976D01*
X106902380Y-122020833D01*
X106902380Y-122116071D01*
X106854761Y-122258928D01*
X106759523Y-122354166D01*
X106664285Y-122401785D01*
X106473809Y-122449404D01*
X106330952Y-122449404D01*
X106140476Y-122401785D01*
X106045238Y-122354166D01*
X105950000Y-122258928D01*
X105902380Y-122116071D01*
X105902380Y-122020833D01*
X105950000Y-121877976D01*
X105997619Y-121830357D01*
X105902380Y-121497023D02*
X105902380Y-120877976D01*
X106283333Y-121211309D01*
X106283333Y-121068452D01*
X106330952Y-120973214D01*
X106378571Y-120925595D01*
X106473809Y-120877976D01*
X106711904Y-120877976D01*
X106807142Y-120925595D01*
X106854761Y-120973214D01*
X106902380Y-121068452D01*
X106902380Y-121354166D01*
X106854761Y-121449404D01*
X106807142Y-121497023D01*
X105902380Y-120258928D02*
X105902380Y-120163690D01*
X105950000Y-120068452D01*
X105997619Y-120020833D01*
X106092857Y-119973214D01*
X106283333Y-119925595D01*
X106521428Y-119925595D01*
X106711904Y-119973214D01*
X106807142Y-120020833D01*
X106854761Y-120068452D01*
X106902380Y-120163690D01*
X106902380Y-120258928D01*
X106854761Y-120354166D01*
X106807142Y-120401785D01*
X106711904Y-120449404D01*
X106521428Y-120497023D01*
X106283333Y-120497023D01*
X106092857Y-120449404D01*
X105997619Y-120401785D01*
X105950000Y-120354166D01*
X105902380Y-120258928D01*
%TO.C,C20*%
X64990342Y-87903464D02*
X64990342Y-87970808D01*
X64922998Y-88105495D01*
X64855655Y-88172838D01*
X64720968Y-88240182D01*
X64586281Y-88240182D01*
X64485266Y-88206510D01*
X64316907Y-88105495D01*
X64215892Y-88004480D01*
X64114876Y-87836121D01*
X64081205Y-87735106D01*
X64081205Y-87600419D01*
X64148548Y-87465732D01*
X64215892Y-87398388D01*
X64350579Y-87331045D01*
X64417922Y-87331045D01*
X64687296Y-87061670D02*
X64687296Y-86994327D01*
X64720968Y-86893312D01*
X64889327Y-86724953D01*
X64990342Y-86691281D01*
X65057685Y-86691281D01*
X65158701Y-86724953D01*
X65226044Y-86792296D01*
X65293388Y-86926983D01*
X65293388Y-87735106D01*
X65731121Y-87297373D01*
X65461747Y-86152533D02*
X65529090Y-86085190D01*
X65630105Y-86051518D01*
X65697449Y-86051518D01*
X65798464Y-86085190D01*
X65966823Y-86186205D01*
X66135182Y-86354564D01*
X66236197Y-86522922D01*
X66269869Y-86623938D01*
X66269869Y-86691281D01*
X66236197Y-86792296D01*
X66168853Y-86859640D01*
X66067838Y-86893312D01*
X66000495Y-86893312D01*
X65899479Y-86859640D01*
X65731121Y-86758625D01*
X65562762Y-86590266D01*
X65461747Y-86421907D01*
X65428075Y-86320892D01*
X65428075Y-86253548D01*
X65461747Y-86152533D01*
%TO.C,U6*%
X56474880Y-110729404D02*
X57284404Y-110729404D01*
X57379642Y-110681785D01*
X57427261Y-110634166D01*
X57474880Y-110538928D01*
X57474880Y-110348452D01*
X57427261Y-110253214D01*
X57379642Y-110205595D01*
X57284404Y-110157976D01*
X56474880Y-110157976D01*
X56474880Y-109253214D02*
X56474880Y-109443690D01*
X56522500Y-109538928D01*
X56570119Y-109586547D01*
X56712976Y-109681785D01*
X56903452Y-109729404D01*
X57284404Y-109729404D01*
X57379642Y-109681785D01*
X57427261Y-109634166D01*
X57474880Y-109538928D01*
X57474880Y-109348452D01*
X57427261Y-109253214D01*
X57379642Y-109205595D01*
X57284404Y-109157976D01*
X57046309Y-109157976D01*
X56951071Y-109205595D01*
X56903452Y-109253214D01*
X56855833Y-109348452D01*
X56855833Y-109538928D01*
X56903452Y-109634166D01*
X56951071Y-109681785D01*
X57046309Y-109729404D01*
%TO.C,C14*%
X84857142Y-86527142D02*
X84809523Y-86574761D01*
X84666666Y-86622380D01*
X84571428Y-86622380D01*
X84428571Y-86574761D01*
X84333333Y-86479523D01*
X84285714Y-86384285D01*
X84238095Y-86193809D01*
X84238095Y-86050952D01*
X84285714Y-85860476D01*
X84333333Y-85765238D01*
X84428571Y-85670000D01*
X84571428Y-85622380D01*
X84666666Y-85622380D01*
X84809523Y-85670000D01*
X84857142Y-85717619D01*
X85809523Y-86622380D02*
X85238095Y-86622380D01*
X85523809Y-86622380D02*
X85523809Y-85622380D01*
X85428571Y-85765238D01*
X85333333Y-85860476D01*
X85238095Y-85908095D01*
X86666666Y-85955714D02*
X86666666Y-86622380D01*
X86428571Y-85574761D02*
X86190476Y-86289047D01*
X86809523Y-86289047D01*
%TO.C,J1*%
X113397380Y-94133333D02*
X114111666Y-94133333D01*
X114254523Y-94180952D01*
X114349761Y-94276190D01*
X114397380Y-94419047D01*
X114397380Y-94514285D01*
X114397380Y-93133333D02*
X114397380Y-93704761D01*
X114397380Y-93419047D02*
X113397380Y-93419047D01*
X113540238Y-93514285D01*
X113635476Y-93609523D01*
X113683095Y-93704761D01*
%TO.C,C17*%
X69057142Y-87357142D02*
X69009523Y-87404761D01*
X68866666Y-87452380D01*
X68771428Y-87452380D01*
X68628571Y-87404761D01*
X68533333Y-87309523D01*
X68485714Y-87214285D01*
X68438095Y-87023809D01*
X68438095Y-86880952D01*
X68485714Y-86690476D01*
X68533333Y-86595238D01*
X68628571Y-86500000D01*
X68771428Y-86452380D01*
X68866666Y-86452380D01*
X69009523Y-86500000D01*
X69057142Y-86547619D01*
X70009523Y-87452380D02*
X69438095Y-87452380D01*
X69723809Y-87452380D02*
X69723809Y-86452380D01*
X69628571Y-86595238D01*
X69533333Y-86690476D01*
X69438095Y-86738095D01*
X70342857Y-86452380D02*
X71009523Y-86452380D01*
X70580952Y-87452380D01*
%TO.C,C19*%
X68957142Y-83957142D02*
X68909523Y-84004761D01*
X68766666Y-84052380D01*
X68671428Y-84052380D01*
X68528571Y-84004761D01*
X68433333Y-83909523D01*
X68385714Y-83814285D01*
X68338095Y-83623809D01*
X68338095Y-83480952D01*
X68385714Y-83290476D01*
X68433333Y-83195238D01*
X68528571Y-83100000D01*
X68671428Y-83052380D01*
X68766666Y-83052380D01*
X68909523Y-83100000D01*
X68957142Y-83147619D01*
X69909523Y-84052380D02*
X69338095Y-84052380D01*
X69623809Y-84052380D02*
X69623809Y-83052380D01*
X69528571Y-83195238D01*
X69433333Y-83290476D01*
X69338095Y-83338095D01*
X70385714Y-84052380D02*
X70576190Y-84052380D01*
X70671428Y-84004761D01*
X70719047Y-83957142D01*
X70814285Y-83814285D01*
X70861904Y-83623809D01*
X70861904Y-83242857D01*
X70814285Y-83147619D01*
X70766666Y-83100000D01*
X70671428Y-83052380D01*
X70480952Y-83052380D01*
X70385714Y-83100000D01*
X70338095Y-83147619D01*
X70290476Y-83242857D01*
X70290476Y-83480952D01*
X70338095Y-83576190D01*
X70385714Y-83623809D01*
X70480952Y-83671428D01*
X70671428Y-83671428D01*
X70766666Y-83623809D01*
X70814285Y-83576190D01*
X70861904Y-83480952D01*
%TO.C,C35*%
X73537142Y-104515357D02*
X73584761Y-104562976D01*
X73632380Y-104705833D01*
X73632380Y-104801071D01*
X73584761Y-104943928D01*
X73489523Y-105039166D01*
X73394285Y-105086785D01*
X73203809Y-105134404D01*
X73060952Y-105134404D01*
X72870476Y-105086785D01*
X72775238Y-105039166D01*
X72680000Y-104943928D01*
X72632380Y-104801071D01*
X72632380Y-104705833D01*
X72680000Y-104562976D01*
X72727619Y-104515357D01*
X72632380Y-104182023D02*
X72632380Y-103562976D01*
X73013333Y-103896309D01*
X73013333Y-103753452D01*
X73060952Y-103658214D01*
X73108571Y-103610595D01*
X73203809Y-103562976D01*
X73441904Y-103562976D01*
X73537142Y-103610595D01*
X73584761Y-103658214D01*
X73632380Y-103753452D01*
X73632380Y-104039166D01*
X73584761Y-104134404D01*
X73537142Y-104182023D01*
X72632380Y-102658214D02*
X72632380Y-103134404D01*
X73108571Y-103182023D01*
X73060952Y-103134404D01*
X73013333Y-103039166D01*
X73013333Y-102801071D01*
X73060952Y-102705833D01*
X73108571Y-102658214D01*
X73203809Y-102610595D01*
X73441904Y-102610595D01*
X73537142Y-102658214D01*
X73584761Y-102705833D01*
X73632380Y-102801071D01*
X73632380Y-103039166D01*
X73584761Y-103134404D01*
X73537142Y-103182023D01*
%TO.C,C10*%
X100182142Y-106330357D02*
X100229761Y-106377976D01*
X100277380Y-106520833D01*
X100277380Y-106616071D01*
X100229761Y-106758928D01*
X100134523Y-106854166D01*
X100039285Y-106901785D01*
X99848809Y-106949404D01*
X99705952Y-106949404D01*
X99515476Y-106901785D01*
X99420238Y-106854166D01*
X99325000Y-106758928D01*
X99277380Y-106616071D01*
X99277380Y-106520833D01*
X99325000Y-106377976D01*
X99372619Y-106330357D01*
X100277380Y-105377976D02*
X100277380Y-105949404D01*
X100277380Y-105663690D02*
X99277380Y-105663690D01*
X99420238Y-105758928D01*
X99515476Y-105854166D01*
X99563095Y-105949404D01*
X99277380Y-104758928D02*
X99277380Y-104663690D01*
X99325000Y-104568452D01*
X99372619Y-104520833D01*
X99467857Y-104473214D01*
X99658333Y-104425595D01*
X99896428Y-104425595D01*
X100086904Y-104473214D01*
X100182142Y-104520833D01*
X100229761Y-104568452D01*
X100277380Y-104663690D01*
X100277380Y-104758928D01*
X100229761Y-104854166D01*
X100182142Y-104901785D01*
X100086904Y-104949404D01*
X99896428Y-104997023D01*
X99658333Y-104997023D01*
X99467857Y-104949404D01*
X99372619Y-104901785D01*
X99325000Y-104854166D01*
X99277380Y-104758928D01*
%TO.C,J5*%
X112566666Y-79152380D02*
X112566666Y-79866666D01*
X112519047Y-80009523D01*
X112423809Y-80104761D01*
X112280952Y-80152380D01*
X112185714Y-80152380D01*
X113519047Y-79152380D02*
X113042857Y-79152380D01*
X112995238Y-79628571D01*
X113042857Y-79580952D01*
X113138095Y-79533333D01*
X113376190Y-79533333D01*
X113471428Y-79580952D01*
X113519047Y-79628571D01*
X113566666Y-79723809D01*
X113566666Y-79961904D01*
X113519047Y-80057142D01*
X113471428Y-80104761D01*
X113376190Y-80152380D01*
X113138095Y-80152380D01*
X113042857Y-80104761D01*
X112995238Y-80057142D01*
%TO.C,U1*%
X95725595Y-99264880D02*
X95725595Y-100074404D01*
X95773214Y-100169642D01*
X95820833Y-100217261D01*
X95916071Y-100264880D01*
X96106547Y-100264880D01*
X96201785Y-100217261D01*
X96249404Y-100169642D01*
X96297023Y-100074404D01*
X96297023Y-99264880D01*
X97297023Y-100264880D02*
X96725595Y-100264880D01*
X97011309Y-100264880D02*
X97011309Y-99264880D01*
X96916071Y-99407738D01*
X96820833Y-99502976D01*
X96725595Y-99550595D01*
%TO.C,R5*%
X77752380Y-113466666D02*
X77276190Y-113800000D01*
X77752380Y-114038095D02*
X76752380Y-114038095D01*
X76752380Y-113657142D01*
X76800000Y-113561904D01*
X76847619Y-113514285D01*
X76942857Y-113466666D01*
X77085714Y-113466666D01*
X77180952Y-113514285D01*
X77228571Y-113561904D01*
X77276190Y-113657142D01*
X77276190Y-114038095D01*
X76752380Y-112561904D02*
X76752380Y-113038095D01*
X77228571Y-113085714D01*
X77180952Y-113038095D01*
X77133333Y-112942857D01*
X77133333Y-112704761D01*
X77180952Y-112609523D01*
X77228571Y-112561904D01*
X77323809Y-112514285D01*
X77561904Y-112514285D01*
X77657142Y-112561904D01*
X77704761Y-112609523D01*
X77752380Y-112704761D01*
X77752380Y-112942857D01*
X77704761Y-113038095D01*
X77657142Y-113085714D01*
%TO.C,R7*%
X64482380Y-89789166D02*
X64006190Y-90122500D01*
X64482380Y-90360595D02*
X63482380Y-90360595D01*
X63482380Y-89979642D01*
X63530000Y-89884404D01*
X63577619Y-89836785D01*
X63672857Y-89789166D01*
X63815714Y-89789166D01*
X63910952Y-89836785D01*
X63958571Y-89884404D01*
X64006190Y-89979642D01*
X64006190Y-90360595D01*
X63482380Y-89455833D02*
X63482380Y-88789166D01*
X64482380Y-89217738D01*
%TO.C,C11*%
X101882142Y-106330357D02*
X101929761Y-106377976D01*
X101977380Y-106520833D01*
X101977380Y-106616071D01*
X101929761Y-106758928D01*
X101834523Y-106854166D01*
X101739285Y-106901785D01*
X101548809Y-106949404D01*
X101405952Y-106949404D01*
X101215476Y-106901785D01*
X101120238Y-106854166D01*
X101025000Y-106758928D01*
X100977380Y-106616071D01*
X100977380Y-106520833D01*
X101025000Y-106377976D01*
X101072619Y-106330357D01*
X101977380Y-105377976D02*
X101977380Y-105949404D01*
X101977380Y-105663690D02*
X100977380Y-105663690D01*
X101120238Y-105758928D01*
X101215476Y-105854166D01*
X101263095Y-105949404D01*
X101977380Y-104425595D02*
X101977380Y-104997023D01*
X101977380Y-104711309D02*
X100977380Y-104711309D01*
X101120238Y-104806547D01*
X101215476Y-104901785D01*
X101263095Y-104997023D01*
%TO.C,C27*%
X58997142Y-116410357D02*
X59044761Y-116457976D01*
X59092380Y-116600833D01*
X59092380Y-116696071D01*
X59044761Y-116838928D01*
X58949523Y-116934166D01*
X58854285Y-116981785D01*
X58663809Y-117029404D01*
X58520952Y-117029404D01*
X58330476Y-116981785D01*
X58235238Y-116934166D01*
X58140000Y-116838928D01*
X58092380Y-116696071D01*
X58092380Y-116600833D01*
X58140000Y-116457976D01*
X58187619Y-116410357D01*
X58187619Y-116029404D02*
X58140000Y-115981785D01*
X58092380Y-115886547D01*
X58092380Y-115648452D01*
X58140000Y-115553214D01*
X58187619Y-115505595D01*
X58282857Y-115457976D01*
X58378095Y-115457976D01*
X58520952Y-115505595D01*
X59092380Y-116077023D01*
X59092380Y-115457976D01*
X58092380Y-115124642D02*
X58092380Y-114457976D01*
X59092380Y-114886547D01*
%TO.C,J6*%
X83722380Y-122933333D02*
X84436666Y-122933333D01*
X84579523Y-122980952D01*
X84674761Y-123076190D01*
X84722380Y-123219047D01*
X84722380Y-123314285D01*
X83722380Y-122028571D02*
X83722380Y-122219047D01*
X83770000Y-122314285D01*
X83817619Y-122361904D01*
X83960476Y-122457142D01*
X84150952Y-122504761D01*
X84531904Y-122504761D01*
X84627142Y-122457142D01*
X84674761Y-122409523D01*
X84722380Y-122314285D01*
X84722380Y-122123809D01*
X84674761Y-122028571D01*
X84627142Y-121980952D01*
X84531904Y-121933333D01*
X84293809Y-121933333D01*
X84198571Y-121980952D01*
X84150952Y-122028571D01*
X84103333Y-122123809D01*
X84103333Y-122314285D01*
X84150952Y-122409523D01*
X84198571Y-122457142D01*
X84293809Y-122504761D01*
%TO.C,R13*%
X90182380Y-90342857D02*
X89706190Y-90676190D01*
X90182380Y-90914285D02*
X89182380Y-90914285D01*
X89182380Y-90533333D01*
X89230000Y-90438095D01*
X89277619Y-90390476D01*
X89372857Y-90342857D01*
X89515714Y-90342857D01*
X89610952Y-90390476D01*
X89658571Y-90438095D01*
X89706190Y-90533333D01*
X89706190Y-90914285D01*
X90182380Y-89390476D02*
X90182380Y-89961904D01*
X90182380Y-89676190D02*
X89182380Y-89676190D01*
X89325238Y-89771428D01*
X89420476Y-89866666D01*
X89468095Y-89961904D01*
X89182380Y-89057142D02*
X89182380Y-88438095D01*
X89563333Y-88771428D01*
X89563333Y-88628571D01*
X89610952Y-88533333D01*
X89658571Y-88485714D01*
X89753809Y-88438095D01*
X89991904Y-88438095D01*
X90087142Y-88485714D01*
X90134761Y-88533333D01*
X90182380Y-88628571D01*
X90182380Y-88914285D01*
X90134761Y-89009523D01*
X90087142Y-89057142D01*
%TO.C,D6*%
X62096904Y-100589880D02*
X62096904Y-99589880D01*
X62335000Y-99589880D01*
X62477857Y-99637500D01*
X62573095Y-99732738D01*
X62620714Y-99827976D01*
X62668333Y-100018452D01*
X62668333Y-100161309D01*
X62620714Y-100351785D01*
X62573095Y-100447023D01*
X62477857Y-100542261D01*
X62335000Y-100589880D01*
X62096904Y-100589880D01*
X63525476Y-99589880D02*
X63335000Y-99589880D01*
X63239761Y-99637500D01*
X63192142Y-99685119D01*
X63096904Y-99827976D01*
X63049285Y-100018452D01*
X63049285Y-100399404D01*
X63096904Y-100494642D01*
X63144523Y-100542261D01*
X63239761Y-100589880D01*
X63430238Y-100589880D01*
X63525476Y-100542261D01*
X63573095Y-100494642D01*
X63620714Y-100399404D01*
X63620714Y-100161309D01*
X63573095Y-100066071D01*
X63525476Y-100018452D01*
X63430238Y-99970833D01*
X63239761Y-99970833D01*
X63144523Y-100018452D01*
X63096904Y-100066071D01*
X63049285Y-100161309D01*
%TO.C,C13*%
X91782142Y-106330357D02*
X91829761Y-106377976D01*
X91877380Y-106520833D01*
X91877380Y-106616071D01*
X91829761Y-106758928D01*
X91734523Y-106854166D01*
X91639285Y-106901785D01*
X91448809Y-106949404D01*
X91305952Y-106949404D01*
X91115476Y-106901785D01*
X91020238Y-106854166D01*
X90925000Y-106758928D01*
X90877380Y-106616071D01*
X90877380Y-106520833D01*
X90925000Y-106377976D01*
X90972619Y-106330357D01*
X91877380Y-105377976D02*
X91877380Y-105949404D01*
X91877380Y-105663690D02*
X90877380Y-105663690D01*
X91020238Y-105758928D01*
X91115476Y-105854166D01*
X91163095Y-105949404D01*
X90877380Y-105044642D02*
X90877380Y-104425595D01*
X91258333Y-104758928D01*
X91258333Y-104616071D01*
X91305952Y-104520833D01*
X91353571Y-104473214D01*
X91448809Y-104425595D01*
X91686904Y-104425595D01*
X91782142Y-104473214D01*
X91829761Y-104520833D01*
X91877380Y-104616071D01*
X91877380Y-104901785D01*
X91829761Y-104997023D01*
X91782142Y-105044642D01*
%TO.C,C29*%
X63079642Y-104810357D02*
X63127261Y-104857976D01*
X63174880Y-105000833D01*
X63174880Y-105096071D01*
X63127261Y-105238928D01*
X63032023Y-105334166D01*
X62936785Y-105381785D01*
X62746309Y-105429404D01*
X62603452Y-105429404D01*
X62412976Y-105381785D01*
X62317738Y-105334166D01*
X62222500Y-105238928D01*
X62174880Y-105096071D01*
X62174880Y-105000833D01*
X62222500Y-104857976D01*
X62270119Y-104810357D01*
X62270119Y-104429404D02*
X62222500Y-104381785D01*
X62174880Y-104286547D01*
X62174880Y-104048452D01*
X62222500Y-103953214D01*
X62270119Y-103905595D01*
X62365357Y-103857976D01*
X62460595Y-103857976D01*
X62603452Y-103905595D01*
X63174880Y-104477023D01*
X63174880Y-103857976D01*
X63174880Y-103381785D02*
X63174880Y-103191309D01*
X63127261Y-103096071D01*
X63079642Y-103048452D01*
X62936785Y-102953214D01*
X62746309Y-102905595D01*
X62365357Y-102905595D01*
X62270119Y-102953214D01*
X62222500Y-103000833D01*
X62174880Y-103096071D01*
X62174880Y-103286547D01*
X62222500Y-103381785D01*
X62270119Y-103429404D01*
X62365357Y-103477023D01*
X62603452Y-103477023D01*
X62698690Y-103429404D01*
X62746309Y-103381785D01*
X62793928Y-103286547D01*
X62793928Y-103096071D01*
X62746309Y-103000833D01*
X62698690Y-102953214D01*
X62603452Y-102905595D01*
%TO.C,C4*%
X100182142Y-100179166D02*
X100229761Y-100226785D01*
X100277380Y-100369642D01*
X100277380Y-100464880D01*
X100229761Y-100607738D01*
X100134523Y-100702976D01*
X100039285Y-100750595D01*
X99848809Y-100798214D01*
X99705952Y-100798214D01*
X99515476Y-100750595D01*
X99420238Y-100702976D01*
X99325000Y-100607738D01*
X99277380Y-100464880D01*
X99277380Y-100369642D01*
X99325000Y-100226785D01*
X99372619Y-100179166D01*
X99610714Y-99322023D02*
X100277380Y-99322023D01*
X99229761Y-99560119D02*
X99944047Y-99798214D01*
X99944047Y-99179166D01*
%TO.C,U2*%
X110537380Y-91149523D02*
X110537380Y-91667619D01*
X110567857Y-91728571D01*
X110598333Y-91759047D01*
X110659285Y-91789523D01*
X110781190Y-91789523D01*
X110842142Y-91759047D01*
X110872619Y-91728571D01*
X110903095Y-91667619D01*
X110903095Y-91149523D01*
X111177380Y-91210476D02*
X111207857Y-91180000D01*
X111268809Y-91149523D01*
X111421190Y-91149523D01*
X111482142Y-91180000D01*
X111512619Y-91210476D01*
X111543095Y-91271428D01*
X111543095Y-91332380D01*
X111512619Y-91423809D01*
X111146904Y-91789523D01*
X111543095Y-91789523D01*
%TO.C,R10*%
X63752380Y-116410357D02*
X63276190Y-116743690D01*
X63752380Y-116981785D02*
X62752380Y-116981785D01*
X62752380Y-116600833D01*
X62800000Y-116505595D01*
X62847619Y-116457976D01*
X62942857Y-116410357D01*
X63085714Y-116410357D01*
X63180952Y-116457976D01*
X63228571Y-116505595D01*
X63276190Y-116600833D01*
X63276190Y-116981785D01*
X63752380Y-115457976D02*
X63752380Y-116029404D01*
X63752380Y-115743690D02*
X62752380Y-115743690D01*
X62895238Y-115838928D01*
X62990476Y-115934166D01*
X63038095Y-116029404D01*
X62752380Y-114838928D02*
X62752380Y-114743690D01*
X62800000Y-114648452D01*
X62847619Y-114600833D01*
X62942857Y-114553214D01*
X63133333Y-114505595D01*
X63371428Y-114505595D01*
X63561904Y-114553214D01*
X63657142Y-114600833D01*
X63704761Y-114648452D01*
X63752380Y-114743690D01*
X63752380Y-114838928D01*
X63704761Y-114934166D01*
X63657142Y-114981785D01*
X63561904Y-115029404D01*
X63371428Y-115077023D01*
X63133333Y-115077023D01*
X62942857Y-115029404D01*
X62847619Y-114981785D01*
X62800000Y-114934166D01*
X62752380Y-114838928D01*
%TO.C,R12*%
X67627142Y-122082380D02*
X67293809Y-121606190D01*
X67055714Y-122082380D02*
X67055714Y-121082380D01*
X67436666Y-121082380D01*
X67531904Y-121130000D01*
X67579523Y-121177619D01*
X67627142Y-121272857D01*
X67627142Y-121415714D01*
X67579523Y-121510952D01*
X67531904Y-121558571D01*
X67436666Y-121606190D01*
X67055714Y-121606190D01*
X68579523Y-122082380D02*
X68008095Y-122082380D01*
X68293809Y-122082380D02*
X68293809Y-121082380D01*
X68198571Y-121225238D01*
X68103333Y-121320476D01*
X68008095Y-121368095D01*
X68960476Y-121177619D02*
X69008095Y-121130000D01*
X69103333Y-121082380D01*
X69341428Y-121082380D01*
X69436666Y-121130000D01*
X69484285Y-121177619D01*
X69531904Y-121272857D01*
X69531904Y-121368095D01*
X69484285Y-121510952D01*
X68912857Y-122082380D01*
X69531904Y-122082380D01*
%TO.C,Y1*%
X69425825Y-91961823D02*
X69762543Y-92298541D01*
X68819734Y-91827136D02*
X69425825Y-91961823D01*
X69291138Y-91355732D01*
X70604336Y-91456747D02*
X70200275Y-91860808D01*
X70402306Y-91658777D02*
X69695199Y-90951671D01*
X69728871Y-91120029D01*
X69728871Y-91254716D01*
X69695199Y-91355732D01*
%TO.C,C22*%
X70669642Y-80757142D02*
X70622023Y-80804761D01*
X70479166Y-80852380D01*
X70383928Y-80852380D01*
X70241071Y-80804761D01*
X70145833Y-80709523D01*
X70098214Y-80614285D01*
X70050595Y-80423809D01*
X70050595Y-80280952D01*
X70098214Y-80090476D01*
X70145833Y-79995238D01*
X70241071Y-79900000D01*
X70383928Y-79852380D01*
X70479166Y-79852380D01*
X70622023Y-79900000D01*
X70669642Y-79947619D01*
X71050595Y-79947619D02*
X71098214Y-79900000D01*
X71193452Y-79852380D01*
X71431547Y-79852380D01*
X71526785Y-79900000D01*
X71574404Y-79947619D01*
X71622023Y-80042857D01*
X71622023Y-80138095D01*
X71574404Y-80280952D01*
X71002976Y-80852380D01*
X71622023Y-80852380D01*
X72002976Y-79947619D02*
X72050595Y-79900000D01*
X72145833Y-79852380D01*
X72383928Y-79852380D01*
X72479166Y-79900000D01*
X72526785Y-79947619D01*
X72574404Y-80042857D01*
X72574404Y-80138095D01*
X72526785Y-80280952D01*
X71955357Y-80852380D01*
X72574404Y-80852380D01*
%TO.C,C15*%
X71457142Y-95157142D02*
X71409523Y-95204761D01*
X71266666Y-95252380D01*
X71171428Y-95252380D01*
X71028571Y-95204761D01*
X70933333Y-95109523D01*
X70885714Y-95014285D01*
X70838095Y-94823809D01*
X70838095Y-94680952D01*
X70885714Y-94490476D01*
X70933333Y-94395238D01*
X71028571Y-94300000D01*
X71171428Y-94252380D01*
X71266666Y-94252380D01*
X71409523Y-94300000D01*
X71457142Y-94347619D01*
X72409523Y-95252380D02*
X71838095Y-95252380D01*
X72123809Y-95252380D02*
X72123809Y-94252380D01*
X72028571Y-94395238D01*
X71933333Y-94490476D01*
X71838095Y-94538095D01*
X73314285Y-94252380D02*
X72838095Y-94252380D01*
X72790476Y-94728571D01*
X72838095Y-94680952D01*
X72933333Y-94633333D01*
X73171428Y-94633333D01*
X73266666Y-94680952D01*
X73314285Y-94728571D01*
X73361904Y-94823809D01*
X73361904Y-95061904D01*
X73314285Y-95157142D01*
X73266666Y-95204761D01*
X73171428Y-95252380D01*
X72933333Y-95252380D01*
X72838095Y-95204761D01*
X72790476Y-95157142D01*
%TO.C,R3*%
X116933333Y-85852380D02*
X116600000Y-85376190D01*
X116361904Y-85852380D02*
X116361904Y-84852380D01*
X116742857Y-84852380D01*
X116838095Y-84900000D01*
X116885714Y-84947619D01*
X116933333Y-85042857D01*
X116933333Y-85185714D01*
X116885714Y-85280952D01*
X116838095Y-85328571D01*
X116742857Y-85376190D01*
X116361904Y-85376190D01*
X117266666Y-84852380D02*
X117885714Y-84852380D01*
X117552380Y-85233333D01*
X117695238Y-85233333D01*
X117790476Y-85280952D01*
X117838095Y-85328571D01*
X117885714Y-85423809D01*
X117885714Y-85661904D01*
X117838095Y-85757142D01*
X117790476Y-85804761D01*
X117695238Y-85852380D01*
X117409523Y-85852380D01*
X117314285Y-85804761D01*
X117266666Y-85757142D01*
%TO.C,C25*%
X58349642Y-104810357D02*
X58397261Y-104857976D01*
X58444880Y-105000833D01*
X58444880Y-105096071D01*
X58397261Y-105238928D01*
X58302023Y-105334166D01*
X58206785Y-105381785D01*
X58016309Y-105429404D01*
X57873452Y-105429404D01*
X57682976Y-105381785D01*
X57587738Y-105334166D01*
X57492500Y-105238928D01*
X57444880Y-105096071D01*
X57444880Y-105000833D01*
X57492500Y-104857976D01*
X57540119Y-104810357D01*
X57540119Y-104429404D02*
X57492500Y-104381785D01*
X57444880Y-104286547D01*
X57444880Y-104048452D01*
X57492500Y-103953214D01*
X57540119Y-103905595D01*
X57635357Y-103857976D01*
X57730595Y-103857976D01*
X57873452Y-103905595D01*
X58444880Y-104477023D01*
X58444880Y-103857976D01*
X57444880Y-102953214D02*
X57444880Y-103429404D01*
X57921071Y-103477023D01*
X57873452Y-103429404D01*
X57825833Y-103334166D01*
X57825833Y-103096071D01*
X57873452Y-103000833D01*
X57921071Y-102953214D01*
X58016309Y-102905595D01*
X58254404Y-102905595D01*
X58349642Y-102953214D01*
X58397261Y-103000833D01*
X58444880Y-103096071D01*
X58444880Y-103334166D01*
X58397261Y-103429404D01*
X58349642Y-103477023D01*
%TO.C,R2*%
X116458333Y-101982380D02*
X116125000Y-101506190D01*
X115886904Y-101982380D02*
X115886904Y-100982380D01*
X116267857Y-100982380D01*
X116363095Y-101030000D01*
X116410714Y-101077619D01*
X116458333Y-101172857D01*
X116458333Y-101315714D01*
X116410714Y-101410952D01*
X116363095Y-101458571D01*
X116267857Y-101506190D01*
X115886904Y-101506190D01*
X116839285Y-101077619D02*
X116886904Y-101030000D01*
X116982142Y-100982380D01*
X117220238Y-100982380D01*
X117315476Y-101030000D01*
X117363095Y-101077619D01*
X117410714Y-101172857D01*
X117410714Y-101268095D01*
X117363095Y-101410952D01*
X116791666Y-101982380D01*
X117410714Y-101982380D01*
%TO.C,R6*%
X82882380Y-99876666D02*
X82406190Y-100210000D01*
X82882380Y-100448095D02*
X81882380Y-100448095D01*
X81882380Y-100067142D01*
X81930000Y-99971904D01*
X81977619Y-99924285D01*
X82072857Y-99876666D01*
X82215714Y-99876666D01*
X82310952Y-99924285D01*
X82358571Y-99971904D01*
X82406190Y-100067142D01*
X82406190Y-100448095D01*
X81882380Y-99019523D02*
X81882380Y-99210000D01*
X81930000Y-99305238D01*
X81977619Y-99352857D01*
X82120476Y-99448095D01*
X82310952Y-99495714D01*
X82691904Y-99495714D01*
X82787142Y-99448095D01*
X82834761Y-99400476D01*
X82882380Y-99305238D01*
X82882380Y-99114761D01*
X82834761Y-99019523D01*
X82787142Y-98971904D01*
X82691904Y-98924285D01*
X82453809Y-98924285D01*
X82358571Y-98971904D01*
X82310952Y-99019523D01*
X82263333Y-99114761D01*
X82263333Y-99305238D01*
X82310952Y-99400476D01*
X82358571Y-99448095D01*
X82453809Y-99495714D01*
%TO.C,C32*%
X70227142Y-104910357D02*
X70274761Y-104957976D01*
X70322380Y-105100833D01*
X70322380Y-105196071D01*
X70274761Y-105338928D01*
X70179523Y-105434166D01*
X70084285Y-105481785D01*
X69893809Y-105529404D01*
X69750952Y-105529404D01*
X69560476Y-105481785D01*
X69465238Y-105434166D01*
X69370000Y-105338928D01*
X69322380Y-105196071D01*
X69322380Y-105100833D01*
X69370000Y-104957976D01*
X69417619Y-104910357D01*
X69322380Y-104577023D02*
X69322380Y-103957976D01*
X69703333Y-104291309D01*
X69703333Y-104148452D01*
X69750952Y-104053214D01*
X69798571Y-104005595D01*
X69893809Y-103957976D01*
X70131904Y-103957976D01*
X70227142Y-104005595D01*
X70274761Y-104053214D01*
X70322380Y-104148452D01*
X70322380Y-104434166D01*
X70274761Y-104529404D01*
X70227142Y-104577023D01*
X69417619Y-103577023D02*
X69370000Y-103529404D01*
X69322380Y-103434166D01*
X69322380Y-103196071D01*
X69370000Y-103100833D01*
X69417619Y-103053214D01*
X69512857Y-103005595D01*
X69608095Y-103005595D01*
X69750952Y-103053214D01*
X70322380Y-103624642D01*
X70322380Y-103005595D01*
%TO.C,FB2*%
X105291666Y-104758571D02*
X104958333Y-104758571D01*
X104958333Y-105282380D02*
X104958333Y-104282380D01*
X105434523Y-104282380D01*
X106148809Y-104758571D02*
X106291666Y-104806190D01*
X106339285Y-104853809D01*
X106386904Y-104949047D01*
X106386904Y-105091904D01*
X106339285Y-105187142D01*
X106291666Y-105234761D01*
X106196428Y-105282380D01*
X105815476Y-105282380D01*
X105815476Y-104282380D01*
X106148809Y-104282380D01*
X106244047Y-104330000D01*
X106291666Y-104377619D01*
X106339285Y-104472857D01*
X106339285Y-104568095D01*
X106291666Y-104663333D01*
X106244047Y-104710952D01*
X106148809Y-104758571D01*
X105815476Y-104758571D01*
X106767857Y-104377619D02*
X106815476Y-104330000D01*
X106910714Y-104282380D01*
X107148809Y-104282380D01*
X107244047Y-104330000D01*
X107291666Y-104377619D01*
X107339285Y-104472857D01*
X107339285Y-104568095D01*
X107291666Y-104710952D01*
X106720238Y-105282380D01*
X107339285Y-105282380D01*
%TO.C,D4*%
X58596904Y-100589880D02*
X58596904Y-99589880D01*
X58835000Y-99589880D01*
X58977857Y-99637500D01*
X59073095Y-99732738D01*
X59120714Y-99827976D01*
X59168333Y-100018452D01*
X59168333Y-100161309D01*
X59120714Y-100351785D01*
X59073095Y-100447023D01*
X58977857Y-100542261D01*
X58835000Y-100589880D01*
X58596904Y-100589880D01*
X60025476Y-99923214D02*
X60025476Y-100589880D01*
X59787380Y-99542261D02*
X59549285Y-100256547D01*
X60168333Y-100256547D01*
%TO.C,R4*%
X77482380Y-119666666D02*
X77006190Y-120000000D01*
X77482380Y-120238095D02*
X76482380Y-120238095D01*
X76482380Y-119857142D01*
X76530000Y-119761904D01*
X76577619Y-119714285D01*
X76672857Y-119666666D01*
X76815714Y-119666666D01*
X76910952Y-119714285D01*
X76958571Y-119761904D01*
X77006190Y-119857142D01*
X77006190Y-120238095D01*
X76815714Y-118809523D02*
X77482380Y-118809523D01*
X76434761Y-119047619D02*
X77149047Y-119285714D01*
X77149047Y-118666666D01*
%TO.C,J3*%
X106019400Y-114181989D02*
X107163899Y-114181989D01*
X107392799Y-114258289D01*
X107545399Y-114410889D01*
X107621699Y-114639789D01*
X107621699Y-114792389D01*
X106019400Y-113571590D02*
X106019400Y-112579690D01*
X106629800Y-113113790D01*
X106629800Y-112884890D01*
X106706100Y-112732290D01*
X106782400Y-112655990D01*
X106934999Y-112579690D01*
X107316499Y-112579690D01*
X107469099Y-112655990D01*
X107545399Y-112732290D01*
X107621699Y-112884890D01*
X107621699Y-113342690D01*
X107545399Y-113495290D01*
X107469099Y-113571590D01*
%TO.C,U4*%
X76938095Y-85952380D02*
X76938095Y-86761904D01*
X76985714Y-86857142D01*
X77033333Y-86904761D01*
X77128571Y-86952380D01*
X77319047Y-86952380D01*
X77414285Y-86904761D01*
X77461904Y-86857142D01*
X77509523Y-86761904D01*
X77509523Y-85952380D01*
X78414285Y-86285714D02*
X78414285Y-86952380D01*
X78176190Y-85904761D02*
X77938095Y-86619047D01*
X78557142Y-86619047D01*
%TO.C,J4*%
X88666666Y-78752380D02*
X88666666Y-79466666D01*
X88619047Y-79609523D01*
X88523809Y-79704761D01*
X88380952Y-79752380D01*
X88285714Y-79752380D01*
X89571428Y-79085714D02*
X89571428Y-79752380D01*
X89333333Y-78704761D02*
X89095238Y-79419047D01*
X89714285Y-79419047D01*
%TO.C,R9*%
X71152380Y-115934166D02*
X70676190Y-116267500D01*
X71152380Y-116505595D02*
X70152380Y-116505595D01*
X70152380Y-116124642D01*
X70200000Y-116029404D01*
X70247619Y-115981785D01*
X70342857Y-115934166D01*
X70485714Y-115934166D01*
X70580952Y-115981785D01*
X70628571Y-116029404D01*
X70676190Y-116124642D01*
X70676190Y-116505595D01*
X71152380Y-115457976D02*
X71152380Y-115267500D01*
X71104761Y-115172261D01*
X71057142Y-115124642D01*
X70914285Y-115029404D01*
X70723809Y-114981785D01*
X70342857Y-114981785D01*
X70247619Y-115029404D01*
X70200000Y-115077023D01*
X70152380Y-115172261D01*
X70152380Y-115362738D01*
X70200000Y-115457976D01*
X70247619Y-115505595D01*
X70342857Y-115553214D01*
X70580952Y-115553214D01*
X70676190Y-115505595D01*
X70723809Y-115457976D01*
X70771428Y-115362738D01*
X70771428Y-115172261D01*
X70723809Y-115077023D01*
X70676190Y-115029404D01*
X70580952Y-114981785D01*
%TO.C,C5*%
X93482142Y-100279166D02*
X93529761Y-100326785D01*
X93577380Y-100469642D01*
X93577380Y-100564880D01*
X93529761Y-100707738D01*
X93434523Y-100802976D01*
X93339285Y-100850595D01*
X93148809Y-100898214D01*
X93005952Y-100898214D01*
X92815476Y-100850595D01*
X92720238Y-100802976D01*
X92625000Y-100707738D01*
X92577380Y-100564880D01*
X92577380Y-100469642D01*
X92625000Y-100326785D01*
X92672619Y-100279166D01*
X92577380Y-99374404D02*
X92577380Y-99850595D01*
X93053571Y-99898214D01*
X93005952Y-99850595D01*
X92958333Y-99755357D01*
X92958333Y-99517261D01*
X93005952Y-99422023D01*
X93053571Y-99374404D01*
X93148809Y-99326785D01*
X93386904Y-99326785D01*
X93482142Y-99374404D01*
X93529761Y-99422023D01*
X93577380Y-99517261D01*
X93577380Y-99755357D01*
X93529761Y-99850595D01*
X93482142Y-99898214D01*
%TO.C,C18*%
X69057142Y-85657142D02*
X69009523Y-85704761D01*
X68866666Y-85752380D01*
X68771428Y-85752380D01*
X68628571Y-85704761D01*
X68533333Y-85609523D01*
X68485714Y-85514285D01*
X68438095Y-85323809D01*
X68438095Y-85180952D01*
X68485714Y-84990476D01*
X68533333Y-84895238D01*
X68628571Y-84800000D01*
X68771428Y-84752380D01*
X68866666Y-84752380D01*
X69009523Y-84800000D01*
X69057142Y-84847619D01*
X70009523Y-85752380D02*
X69438095Y-85752380D01*
X69723809Y-85752380D02*
X69723809Y-84752380D01*
X69628571Y-84895238D01*
X69533333Y-84990476D01*
X69438095Y-85038095D01*
X70580952Y-85180952D02*
X70485714Y-85133333D01*
X70438095Y-85085714D01*
X70390476Y-84990476D01*
X70390476Y-84942857D01*
X70438095Y-84847619D01*
X70485714Y-84800000D01*
X70580952Y-84752380D01*
X70771428Y-84752380D01*
X70866666Y-84800000D01*
X70914285Y-84847619D01*
X70961904Y-84942857D01*
X70961904Y-84990476D01*
X70914285Y-85085714D01*
X70866666Y-85133333D01*
X70771428Y-85180952D01*
X70580952Y-85180952D01*
X70485714Y-85228571D01*
X70438095Y-85276190D01*
X70390476Y-85371428D01*
X70390476Y-85561904D01*
X70438095Y-85657142D01*
X70485714Y-85704761D01*
X70580952Y-85752380D01*
X70771428Y-85752380D01*
X70866666Y-85704761D01*
X70914285Y-85657142D01*
X70961904Y-85561904D01*
X70961904Y-85371428D01*
X70914285Y-85276190D01*
X70866666Y-85228571D01*
X70771428Y-85180952D01*
%TO.C,U7*%
X76332380Y-104534404D02*
X77141904Y-104534404D01*
X77237142Y-104486785D01*
X77284761Y-104439166D01*
X77332380Y-104343928D01*
X77332380Y-104153452D01*
X77284761Y-104058214D01*
X77237142Y-104010595D01*
X77141904Y-103962976D01*
X76332380Y-103962976D01*
X76332380Y-103582023D02*
X76332380Y-102915357D01*
X77332380Y-103343928D01*
%TO.C,C8*%
X108757142Y-101766666D02*
X108804761Y-101814285D01*
X108852380Y-101957142D01*
X108852380Y-102052380D01*
X108804761Y-102195238D01*
X108709523Y-102290476D01*
X108614285Y-102338095D01*
X108423809Y-102385714D01*
X108280952Y-102385714D01*
X108090476Y-102338095D01*
X107995238Y-102290476D01*
X107900000Y-102195238D01*
X107852380Y-102052380D01*
X107852380Y-101957142D01*
X107900000Y-101814285D01*
X107947619Y-101766666D01*
X108280952Y-101195238D02*
X108233333Y-101290476D01*
X108185714Y-101338095D01*
X108090476Y-101385714D01*
X108042857Y-101385714D01*
X107947619Y-101338095D01*
X107900000Y-101290476D01*
X107852380Y-101195238D01*
X107852380Y-101004761D01*
X107900000Y-100909523D01*
X107947619Y-100861904D01*
X108042857Y-100814285D01*
X108090476Y-100814285D01*
X108185714Y-100861904D01*
X108233333Y-100909523D01*
X108280952Y-101004761D01*
X108280952Y-101195238D01*
X108328571Y-101290476D01*
X108376190Y-101338095D01*
X108471428Y-101385714D01*
X108661904Y-101385714D01*
X108757142Y-101338095D01*
X108804761Y-101290476D01*
X108852380Y-101195238D01*
X108852380Y-101004761D01*
X108804761Y-100909523D01*
X108757142Y-100861904D01*
X108661904Y-100814285D01*
X108471428Y-100814285D01*
X108376190Y-100861904D01*
X108328571Y-100909523D01*
X108280952Y-101004761D01*
%TO.C,D5*%
X69331904Y-100589880D02*
X69331904Y-99589880D01*
X69570000Y-99589880D01*
X69712857Y-99637500D01*
X69808095Y-99732738D01*
X69855714Y-99827976D01*
X69903333Y-100018452D01*
X69903333Y-100161309D01*
X69855714Y-100351785D01*
X69808095Y-100447023D01*
X69712857Y-100542261D01*
X69570000Y-100589880D01*
X69331904Y-100589880D01*
X70808095Y-99589880D02*
X70331904Y-99589880D01*
X70284285Y-100066071D01*
X70331904Y-100018452D01*
X70427142Y-99970833D01*
X70665238Y-99970833D01*
X70760476Y-100018452D01*
X70808095Y-100066071D01*
X70855714Y-100161309D01*
X70855714Y-100399404D01*
X70808095Y-100494642D01*
X70760476Y-100542261D01*
X70665238Y-100589880D01*
X70427142Y-100589880D01*
X70331904Y-100542261D01*
X70284285Y-100494642D01*
%TO.C,U3*%
X95663095Y-104239880D02*
X95663095Y-105049404D01*
X95710714Y-105144642D01*
X95758333Y-105192261D01*
X95853571Y-105239880D01*
X96044047Y-105239880D01*
X96139285Y-105192261D01*
X96186904Y-105144642D01*
X96234523Y-105049404D01*
X96234523Y-104239880D01*
X96615476Y-104239880D02*
X97234523Y-104239880D01*
X96901190Y-104620833D01*
X97044047Y-104620833D01*
X97139285Y-104668452D01*
X97186904Y-104716071D01*
X97234523Y-104811309D01*
X97234523Y-105049404D01*
X97186904Y-105144642D01*
X97139285Y-105192261D01*
X97044047Y-105239880D01*
X96758333Y-105239880D01*
X96663095Y-105192261D01*
X96615476Y-105144642D01*
%TO.C,C34*%
X75237142Y-104415357D02*
X75284761Y-104462976D01*
X75332380Y-104605833D01*
X75332380Y-104701071D01*
X75284761Y-104843928D01*
X75189523Y-104939166D01*
X75094285Y-104986785D01*
X74903809Y-105034404D01*
X74760952Y-105034404D01*
X74570476Y-104986785D01*
X74475238Y-104939166D01*
X74380000Y-104843928D01*
X74332380Y-104701071D01*
X74332380Y-104605833D01*
X74380000Y-104462976D01*
X74427619Y-104415357D01*
X74332380Y-104082023D02*
X74332380Y-103462976D01*
X74713333Y-103796309D01*
X74713333Y-103653452D01*
X74760952Y-103558214D01*
X74808571Y-103510595D01*
X74903809Y-103462976D01*
X75141904Y-103462976D01*
X75237142Y-103510595D01*
X75284761Y-103558214D01*
X75332380Y-103653452D01*
X75332380Y-103939166D01*
X75284761Y-104034404D01*
X75237142Y-104082023D01*
X74665714Y-102605833D02*
X75332380Y-102605833D01*
X74284761Y-102843928D02*
X74999047Y-103082023D01*
X74999047Y-102462976D01*
%TO.C,D2*%
X61622380Y-93860595D02*
X60622380Y-93860595D01*
X60622380Y-93622500D01*
X60670000Y-93479642D01*
X60765238Y-93384404D01*
X60860476Y-93336785D01*
X61050952Y-93289166D01*
X61193809Y-93289166D01*
X61384285Y-93336785D01*
X61479523Y-93384404D01*
X61574761Y-93479642D01*
X61622380Y-93622500D01*
X61622380Y-93860595D01*
X60717619Y-92908214D02*
X60670000Y-92860595D01*
X60622380Y-92765357D01*
X60622380Y-92527261D01*
X60670000Y-92432023D01*
X60717619Y-92384404D01*
X60812857Y-92336785D01*
X60908095Y-92336785D01*
X61050952Y-92384404D01*
X61622380Y-92955833D01*
X61622380Y-92336785D01*
%TO.C,J2*%
X76052380Y-80133333D02*
X76766666Y-80133333D01*
X76909523Y-80180952D01*
X77004761Y-80276190D01*
X77052380Y-80419047D01*
X77052380Y-80514285D01*
X76147619Y-79704761D02*
X76100000Y-79657142D01*
X76052380Y-79561904D01*
X76052380Y-79323809D01*
X76100000Y-79228571D01*
X76147619Y-79180952D01*
X76242857Y-79133333D01*
X76338095Y-79133333D01*
X76480952Y-79180952D01*
X77052380Y-79752380D01*
X77052380Y-79133333D01*
%TO.C,C16*%
X85357142Y-98657142D02*
X85309523Y-98704761D01*
X85166666Y-98752380D01*
X85071428Y-98752380D01*
X84928571Y-98704761D01*
X84833333Y-98609523D01*
X84785714Y-98514285D01*
X84738095Y-98323809D01*
X84738095Y-98180952D01*
X84785714Y-97990476D01*
X84833333Y-97895238D01*
X84928571Y-97800000D01*
X85071428Y-97752380D01*
X85166666Y-97752380D01*
X85309523Y-97800000D01*
X85357142Y-97847619D01*
X86309523Y-98752380D02*
X85738095Y-98752380D01*
X86023809Y-98752380D02*
X86023809Y-97752380D01*
X85928571Y-97895238D01*
X85833333Y-97990476D01*
X85738095Y-98038095D01*
X87166666Y-97752380D02*
X86976190Y-97752380D01*
X86880952Y-97800000D01*
X86833333Y-97847619D01*
X86738095Y-97990476D01*
X86690476Y-98180952D01*
X86690476Y-98561904D01*
X86738095Y-98657142D01*
X86785714Y-98704761D01*
X86880952Y-98752380D01*
X87071428Y-98752380D01*
X87166666Y-98704761D01*
X87214285Y-98657142D01*
X87261904Y-98561904D01*
X87261904Y-98323809D01*
X87214285Y-98228571D01*
X87166666Y-98180952D01*
X87071428Y-98133333D01*
X86880952Y-98133333D01*
X86785714Y-98180952D01*
X86738095Y-98228571D01*
X86690476Y-98323809D01*
%TO.C,U5*%
X63787380Y-110691904D02*
X64596904Y-110691904D01*
X64692142Y-110644285D01*
X64739761Y-110596666D01*
X64787380Y-110501428D01*
X64787380Y-110310952D01*
X64739761Y-110215714D01*
X64692142Y-110168095D01*
X64596904Y-110120476D01*
X63787380Y-110120476D01*
X63787380Y-109168095D02*
X63787380Y-109644285D01*
X64263571Y-109691904D01*
X64215952Y-109644285D01*
X64168333Y-109549047D01*
X64168333Y-109310952D01*
X64215952Y-109215714D01*
X64263571Y-109168095D01*
X64358809Y-109120476D01*
X64596904Y-109120476D01*
X64692142Y-109168095D01*
X64739761Y-109215714D01*
X64787380Y-109310952D01*
X64787380Y-109549047D01*
X64739761Y-109644285D01*
X64692142Y-109691904D01*
%TO.C,C24*%
X65597142Y-104810357D02*
X65644761Y-104857976D01*
X65692380Y-105000833D01*
X65692380Y-105096071D01*
X65644761Y-105238928D01*
X65549523Y-105334166D01*
X65454285Y-105381785D01*
X65263809Y-105429404D01*
X65120952Y-105429404D01*
X64930476Y-105381785D01*
X64835238Y-105334166D01*
X64740000Y-105238928D01*
X64692380Y-105096071D01*
X64692380Y-105000833D01*
X64740000Y-104857976D01*
X64787619Y-104810357D01*
X64787619Y-104429404D02*
X64740000Y-104381785D01*
X64692380Y-104286547D01*
X64692380Y-104048452D01*
X64740000Y-103953214D01*
X64787619Y-103905595D01*
X64882857Y-103857976D01*
X64978095Y-103857976D01*
X65120952Y-103905595D01*
X65692380Y-104477023D01*
X65692380Y-103857976D01*
X65025714Y-103000833D02*
X65692380Y-103000833D01*
X64644761Y-103238928D02*
X65359047Y-103477023D01*
X65359047Y-102857976D01*
%TO.C,C6*%
X91782142Y-100279166D02*
X91829761Y-100326785D01*
X91877380Y-100469642D01*
X91877380Y-100564880D01*
X91829761Y-100707738D01*
X91734523Y-100802976D01*
X91639285Y-100850595D01*
X91448809Y-100898214D01*
X91305952Y-100898214D01*
X91115476Y-100850595D01*
X91020238Y-100802976D01*
X90925000Y-100707738D01*
X90877380Y-100564880D01*
X90877380Y-100469642D01*
X90925000Y-100326785D01*
X90972619Y-100279166D01*
X90877380Y-99422023D02*
X90877380Y-99612500D01*
X90925000Y-99707738D01*
X90972619Y-99755357D01*
X91115476Y-99850595D01*
X91305952Y-99898214D01*
X91686904Y-99898214D01*
X91782142Y-99850595D01*
X91829761Y-99802976D01*
X91877380Y-99707738D01*
X91877380Y-99517261D01*
X91829761Y-99422023D01*
X91782142Y-99374404D01*
X91686904Y-99326785D01*
X91448809Y-99326785D01*
X91353571Y-99374404D01*
X91305952Y-99422023D01*
X91258333Y-99517261D01*
X91258333Y-99707738D01*
X91305952Y-99802976D01*
X91353571Y-99850595D01*
X91448809Y-99898214D01*
D13*
%TO.C,C2*%
X103947500Y-97654724D02*
X103947500Y-97145276D01*
X102902500Y-97654724D02*
X102902500Y-97145276D01*
%TO.C,D1*%
X90879724Y-94190000D02*
X90370276Y-94190000D01*
X90879724Y-95235000D02*
X90370276Y-95235000D01*
%TO.C,C9*%
X103947500Y-102754724D02*
X103947500Y-102245276D01*
X102902500Y-102754724D02*
X102902500Y-102245276D01*
%TO.C,C1*%
X109347500Y-97654724D02*
X109347500Y-97145276D01*
X108302500Y-97654724D02*
X108302500Y-97145276D01*
%TO.C,C26*%
X66960000Y-115901267D02*
X66960000Y-115608733D01*
X67980000Y-115901267D02*
X67980000Y-115608733D01*
%TO.C,C21*%
X65966546Y-92650358D02*
X65759693Y-92443505D01*
X66687795Y-91929109D02*
X66480942Y-91722256D01*
%TO.C,C31*%
X104277500Y-117745276D02*
X104277500Y-118254724D01*
X105322500Y-117745276D02*
X105322500Y-118254724D01*
%TO.C,F1*%
X111779724Y-97022500D02*
X111270276Y-97022500D01*
X111779724Y-95977500D02*
X111270276Y-95977500D01*
%TO.C,C28*%
X61116267Y-117857500D02*
X60823733Y-117857500D01*
X61116267Y-118877500D02*
X60823733Y-118877500D01*
%TO.C,C23*%
X73477500Y-116254724D02*
X73477500Y-115745276D01*
X74522500Y-116254724D02*
X74522500Y-115745276D01*
%TO.C,R11*%
X60715276Y-119545000D02*
X61224724Y-119545000D01*
X60715276Y-120590000D02*
X61224724Y-120590000D01*
%TO.C,R8*%
X75067224Y-82322500D02*
X74557776Y-82322500D01*
X75067224Y-81277500D02*
X74557776Y-81277500D01*
%TO.C,FB1*%
X106379724Y-98822500D02*
X105870276Y-98822500D01*
X106379724Y-97777500D02*
X105870276Y-97777500D01*
%TO.C,D3*%
X66315276Y-101045000D02*
X66824724Y-101045000D01*
X66315276Y-102090000D02*
X66824724Y-102090000D01*
%TO.C,R1*%
X89202500Y-97157776D02*
X89202500Y-97667224D01*
X90247500Y-97157776D02*
X90247500Y-97667224D01*
%TO.C,C3*%
X102047500Y-97667224D02*
X102047500Y-97157776D01*
X101002500Y-97667224D02*
X101002500Y-97157776D01*
%TO.C,C12*%
X93647500Y-102742224D02*
X93647500Y-102232776D01*
X92602500Y-102742224D02*
X92602500Y-102232776D01*
%TO.C,C33*%
X68516267Y-118865000D02*
X68223733Y-118865000D01*
X68516267Y-117845000D02*
X68223733Y-117845000D01*
%TO.C,C7*%
X76122500Y-116254724D02*
X76122500Y-115745276D01*
X75077500Y-116254724D02*
X75077500Y-115745276D01*
%TO.C,C30*%
X107022500Y-117745276D02*
X107022500Y-118254724D01*
X105977500Y-117745276D02*
X105977500Y-118254724D01*
%TO.C,C20*%
X66787795Y-88443505D02*
X66580942Y-88650358D01*
X66066546Y-87722256D02*
X65859693Y-87929109D01*
%TO.C,U6*%
X57862500Y-109967500D02*
X57862500Y-113417500D01*
X62982500Y-109967500D02*
X62982500Y-108017500D01*
X57862500Y-109967500D02*
X57862500Y-108017500D01*
X62982500Y-109967500D02*
X62982500Y-111917500D01*
%TO.C,C14*%
X85353733Y-88110000D02*
X85646267Y-88110000D01*
X85353733Y-87090000D02*
X85646267Y-87090000D01*
%TO.C,J1*%
X117855000Y-98270000D02*
X119655000Y-98270000D01*
X123365000Y-89330000D02*
X123365000Y-98270000D01*
X123365000Y-89330000D02*
X121905000Y-89330000D01*
X123365000Y-98270000D02*
X121905000Y-98270000D01*
X117855000Y-89330000D02*
X119655000Y-89330000D01*
%TO.C,C17*%
X73146267Y-87410000D02*
X72853733Y-87410000D01*
X73146267Y-86390000D02*
X72853733Y-86390000D01*
%TO.C,C19*%
X73146267Y-84690000D02*
X72853733Y-84690000D01*
X73146267Y-85710000D02*
X72853733Y-85710000D01*
%TO.C,C35*%
X72557500Y-106717776D02*
X72557500Y-107227224D01*
X73602500Y-106717776D02*
X73602500Y-107227224D01*
%TO.C,C10*%
X100347500Y-102742224D02*
X100347500Y-102232776D01*
X99302500Y-102742224D02*
X99302500Y-102232776D01*
%TO.C,J5*%
X103970000Y-82430000D02*
X111650000Y-82430000D01*
X103970000Y-79770000D02*
X111650000Y-79770000D01*
X102700000Y-82430000D02*
X101370000Y-82430000D01*
X101370000Y-82430000D02*
X101370000Y-81100000D01*
X103970000Y-82430000D02*
X103970000Y-79770000D01*
X111650000Y-82430000D02*
X111650000Y-79770000D01*
%TO.C,U1*%
X96487500Y-95852500D02*
X95687500Y-95852500D01*
X96487500Y-95852500D02*
X97287500Y-95852500D01*
X96487500Y-98972500D02*
X98287500Y-98972500D01*
X96487500Y-98972500D02*
X95687500Y-98972500D01*
%TO.C,R5*%
X77722500Y-116254724D02*
X77722500Y-115745276D01*
X76677500Y-116254724D02*
X76677500Y-115745276D01*
%TO.C,R7*%
X62077500Y-89367776D02*
X62077500Y-89877224D01*
X63122500Y-89367776D02*
X63122500Y-89877224D01*
%TO.C,C11*%
X101002500Y-102742224D02*
X101002500Y-102232776D01*
X102047500Y-102742224D02*
X102047500Y-102232776D01*
%TO.C,C27*%
X60580000Y-115913767D02*
X60580000Y-115621233D01*
X59560000Y-115913767D02*
X59560000Y-115621233D01*
%TO.C,J6*%
X87870000Y-121270000D02*
X95550000Y-121270000D01*
X87870000Y-123930000D02*
X87870000Y-121270000D01*
X87870000Y-123930000D02*
X95550000Y-123930000D01*
X86600000Y-123930000D02*
X85270000Y-123930000D01*
X95550000Y-123930000D02*
X95550000Y-121270000D01*
X85270000Y-123930000D02*
X85270000Y-122600000D01*
%TO.C,R13*%
X88822500Y-89445276D02*
X88822500Y-89954724D01*
X87777500Y-89445276D02*
X87777500Y-89954724D01*
%TO.C,D6*%
X62580276Y-102090000D02*
X63089724Y-102090000D01*
X62580276Y-101045000D02*
X63089724Y-101045000D01*
%TO.C,C13*%
X90902500Y-102742224D02*
X90902500Y-102232776D01*
X91947500Y-102742224D02*
X91947500Y-102232776D01*
%TO.C,C29*%
X61632500Y-104313767D02*
X61632500Y-104021233D01*
X60612500Y-104313767D02*
X60612500Y-104021233D01*
%TO.C,C4*%
X100347500Y-97667224D02*
X100347500Y-97157776D01*
X99302500Y-97667224D02*
X99302500Y-97157776D01*
D14*
%TO.C,U2*%
X110212500Y-95365000D02*
X111837500Y-95365000D01*
X110212500Y-92235000D02*
X111837500Y-92235000D01*
D15*
X113680000Y-94745000D02*
G75*
G03*
X113680000Y-94745000I-100000J0D01*
G01*
D13*
%TO.C,R10*%
X62392500Y-115512776D02*
X62392500Y-116022224D01*
X61347500Y-115512776D02*
X61347500Y-116022224D01*
%TO.C,R12*%
X68115276Y-120577500D02*
X68624724Y-120577500D01*
X68115276Y-119532500D02*
X68624724Y-119532500D01*
%TO.C,Y1*%
X68400521Y-87929631D02*
X66067068Y-90263084D01*
X70380420Y-89909530D02*
X68400521Y-87929631D01*
%TO.C,C22*%
X71458767Y-81290000D02*
X71166233Y-81290000D01*
X71458767Y-82310000D02*
X71166233Y-82310000D01*
%TO.C,C15*%
X72346267Y-93810000D02*
X72053733Y-93810000D01*
X72346267Y-92790000D02*
X72053733Y-92790000D01*
%TO.C,R3*%
X117354724Y-87622500D02*
X116845276Y-87622500D01*
X117354724Y-86577500D02*
X116845276Y-86577500D01*
%TO.C,C25*%
X58912500Y-104313767D02*
X58912500Y-104021233D01*
X59932500Y-104313767D02*
X59932500Y-104021233D01*
%TO.C,R2*%
X116879724Y-99577500D02*
X116370276Y-99577500D01*
X116879724Y-100622500D02*
X116370276Y-100622500D01*
%TO.C,R6*%
X81522500Y-99455276D02*
X81522500Y-99964724D01*
X80477500Y-99455276D02*
X80477500Y-99964724D01*
%TO.C,C32*%
X67860000Y-104313767D02*
X67860000Y-104021233D01*
X68880000Y-104313767D02*
X68880000Y-104021233D01*
%TO.C,FB2*%
X106379724Y-103922500D02*
X105870276Y-103922500D01*
X106379724Y-102877500D02*
X105870276Y-102877500D01*
%TO.C,D4*%
X59080276Y-101045000D02*
X59589724Y-101045000D01*
X59080276Y-102090000D02*
X59589724Y-102090000D01*
%TO.C,R4*%
X76122500Y-119245276D02*
X76122500Y-119754724D01*
X75077500Y-119245276D02*
X75077500Y-119754724D01*
D15*
%TO.C,J3*%
X122600000Y-118425000D02*
X122600000Y-116875000D01*
X122600000Y-118425000D02*
X121650000Y-118425000D01*
X110650000Y-104825000D02*
X108150000Y-104825000D01*
X110650000Y-118425000D02*
X108150000Y-118425000D01*
X122600000Y-106375000D02*
X122600000Y-104825000D01*
X122600000Y-104825000D02*
X121650000Y-104825000D01*
X108150000Y-118425000D02*
X108150000Y-104825000D01*
X122600000Y-106375000D02*
G75*
G03*
X122600000Y-116875000I9038541J-5250000D01*
G01*
X118175000Y-107425000D02*
G75*
G03*
X118175000Y-107425000I-100000J0D01*
G01*
D13*
%TO.C,U4*%
X76840000Y-96010000D02*
X76390000Y-96010000D01*
X76390000Y-89240000D02*
X75100000Y-89240000D01*
X76390000Y-96010000D02*
X76390000Y-95560000D01*
X83160000Y-88790000D02*
X83610000Y-88790000D01*
X76390000Y-88790000D02*
X76390000Y-89240000D01*
X76840000Y-88790000D02*
X76390000Y-88790000D01*
X83610000Y-96010000D02*
X83610000Y-95560000D01*
X83160000Y-96010000D02*
X83610000Y-96010000D01*
X83610000Y-88790000D02*
X83610000Y-89240000D01*
%TO.C,J4*%
X92190000Y-79770000D02*
X99870000Y-79770000D01*
X90920000Y-82430000D02*
X89590000Y-82430000D01*
X92190000Y-82430000D02*
X92190000Y-79770000D01*
X92190000Y-82430000D02*
X99870000Y-82430000D01*
X99870000Y-82430000D02*
X99870000Y-79770000D01*
X89590000Y-82430000D02*
X89590000Y-81100000D01*
%TO.C,R9*%
X69792500Y-115512776D02*
X69792500Y-116022224D01*
X68747500Y-115512776D02*
X68747500Y-116022224D01*
%TO.C,C5*%
X92602500Y-97667224D02*
X92602500Y-97157776D01*
X93647500Y-97667224D02*
X93647500Y-97157776D01*
%TO.C,C18*%
X73146267Y-82990000D02*
X72853733Y-82990000D01*
X73146267Y-84010000D02*
X72853733Y-84010000D01*
%TO.C,U7*%
X76140000Y-108522500D02*
X76140000Y-111972500D01*
X76140000Y-108522500D02*
X76140000Y-106572500D01*
X81260000Y-108522500D02*
X81260000Y-110472500D01*
X81260000Y-108522500D02*
X81260000Y-106572500D01*
%TO.C,C8*%
X106354724Y-101077500D02*
X105845276Y-101077500D01*
X106354724Y-102122500D02*
X105845276Y-102122500D01*
%TO.C,D5*%
X69815276Y-101045000D02*
X70324724Y-101045000D01*
X69815276Y-102090000D02*
X70324724Y-102090000D01*
%TO.C,U3*%
X96425000Y-100827500D02*
X97225000Y-100827500D01*
X96425000Y-103947500D02*
X98225000Y-103947500D01*
X96425000Y-100827500D02*
X95625000Y-100827500D01*
X96425000Y-103947500D02*
X95625000Y-103947500D01*
%TO.C,C34*%
X75302500Y-106717776D02*
X75302500Y-107227224D01*
X74257500Y-106717776D02*
X74257500Y-107227224D01*
%TO.C,D2*%
X63335000Y-94782500D02*
X63335000Y-92322500D01*
X61865000Y-94782500D02*
X63335000Y-94782500D01*
X61865000Y-92322500D02*
X61865000Y-94782500D01*
%TO.C,J2*%
X88050000Y-82430000D02*
X88050000Y-79770000D01*
X79100000Y-82430000D02*
X77770000Y-82430000D01*
X80370000Y-82430000D02*
X80370000Y-79770000D01*
X80370000Y-82430000D02*
X88050000Y-82430000D01*
X77770000Y-82430000D02*
X77770000Y-81100000D01*
X80370000Y-79770000D02*
X88050000Y-79770000D01*
%TO.C,C16*%
X85953733Y-96290000D02*
X86246267Y-96290000D01*
X85953733Y-97310000D02*
X86246267Y-97310000D01*
%TO.C,U5*%
X70295000Y-109930000D02*
X70295000Y-107980000D01*
X65175000Y-109930000D02*
X65175000Y-113380000D01*
X70295000Y-109930000D02*
X70295000Y-111880000D01*
X65175000Y-109930000D02*
X65175000Y-107980000D01*
%TO.C,C24*%
X67180000Y-104313767D02*
X67180000Y-104021233D01*
X66160000Y-104313767D02*
X66160000Y-104021233D01*
%TO.C,C6*%
X91947500Y-97667224D02*
X91947500Y-97157776D01*
X90902500Y-97667224D02*
X90902500Y-97157776D01*
%TD*%
M02*
