%TF.GenerationSoftware,KiCad,Pcbnew,(7.0.0)*%
%TF.CreationDate,2023-05-19T00:06:10+02:00*%
%TF.ProjectId,Apollo - DSP,41706f6c-6c6f-4202-9d20-4453502e6b69,rev?*%
%TF.SameCoordinates,Original*%
%TF.FileFunction,Soldermask,Top*%
%TF.FilePolarity,Negative*%
%FSLAX46Y46*%
G04 Gerber Fmt 4.6, Leading zero omitted, Abs format (unit mm)*
G04 Created by KiCad (PCBNEW (7.0.0)) date 2023-05-19 00:06:10*
%MOMM*%
%LPD*%
G01*
G04 APERTURE LIST*
G04 Aperture macros list*
%AMRoundRect*
0 Rectangle with rounded corners*
0 $1 Rounding radius*
0 $2 $3 $4 $5 $6 $7 $8 $9 X,Y pos of 4 corners*
0 Add a 4 corners polygon primitive as box body*
4,1,4,$2,$3,$4,$5,$6,$7,$8,$9,$2,$3,0*
0 Add four circle primitives for the rounded corners*
1,1,$1+$1,$2,$3*
1,1,$1+$1,$4,$5*
1,1,$1+$1,$6,$7*
1,1,$1+$1,$8,$9*
0 Add four rect primitives between the rounded corners*
20,1,$1+$1,$2,$3,$4,$5,0*
20,1,$1+$1,$4,$5,$6,$7,0*
20,1,$1+$1,$6,$7,$8,$9,0*
20,1,$1+$1,$8,$9,$2,$3,0*%
%AMRotRect*
0 Rectangle, with rotation*
0 The origin of the aperture is its center*
0 $1 length*
0 $2 width*
0 $3 Rotation angle, in degrees counterclockwise*
0 Add horizontal line*
21,1,$1,$2,0,0,$3*%
G04 Aperture macros list end*
%ADD10C,5.075000*%
%ADD11RoundRect,0.237500X-0.250000X-0.237500X0.250000X-0.237500X0.250000X0.237500X-0.250000X0.237500X0*%
%ADD12RoundRect,0.237500X0.237500X-0.250000X0.237500X0.250000X-0.237500X0.250000X-0.237500X-0.250000X0*%
%ADD13RoundRect,0.237500X0.250000X0.237500X-0.250000X0.237500X-0.250000X-0.237500X0.250000X-0.237500X0*%
%ADD14RoundRect,0.150000X0.150000X-0.825000X0.150000X0.825000X-0.150000X0.825000X-0.150000X-0.825000X0*%
%ADD15RoundRect,0.237500X0.237500X-0.300000X0.237500X0.300000X-0.237500X0.300000X-0.237500X-0.300000X0*%
%ADD16RoundRect,0.237500X-0.287500X-0.237500X0.287500X-0.237500X0.287500X0.237500X-0.287500X0.237500X0*%
%ADD17RoundRect,0.237500X0.300000X0.237500X-0.300000X0.237500X-0.300000X-0.237500X0.300000X-0.237500X0*%
%ADD18RoundRect,0.237500X0.380070X-0.044194X-0.044194X0.380070X-0.380070X0.044194X0.044194X-0.380070X0*%
%ADD19RoundRect,0.237500X-0.237500X0.250000X-0.237500X-0.250000X0.237500X-0.250000X0.237500X0.250000X0*%
%ADD20R,0.800000X1.200000*%
%ADD21R,1.500000X2.000000*%
%ADD22RoundRect,0.237500X-0.300000X-0.237500X0.300000X-0.237500X0.300000X0.237500X-0.300000X0.237500X0*%
%ADD23RoundRect,0.150000X0.512500X0.150000X-0.512500X0.150000X-0.512500X-0.150000X0.512500X-0.150000X0*%
%ADD24RoundRect,0.075000X-0.700000X-0.075000X0.700000X-0.075000X0.700000X0.075000X-0.700000X0.075000X0*%
%ADD25RoundRect,0.075000X-0.075000X-0.700000X0.075000X-0.700000X0.075000X0.700000X-0.075000X0.700000X0*%
%ADD26R,1.700000X1.000000*%
%ADD27RoundRect,0.237500X-0.237500X0.300000X-0.237500X-0.300000X0.237500X-0.300000X0.237500X0.300000X0*%
%ADD28RoundRect,0.237500X0.044194X0.380070X-0.380070X-0.044194X-0.044194X-0.380070X0.380070X0.044194X0*%
%ADD29R,1.160000X0.600000*%
%ADD30R,1.160000X0.300000*%
%ADD31O,2.000000X0.900000*%
%ADD32O,1.700000X0.900000*%
%ADD33RoundRect,0.237500X0.287500X0.237500X-0.287500X0.237500X-0.287500X-0.237500X0.287500X-0.237500X0*%
%ADD34R,1.700000X1.700000*%
%ADD35O,1.700000X1.700000*%
%ADD36RoundRect,0.150000X-0.150000X0.512500X-0.150000X-0.512500X0.150000X-0.512500X0.150000X0.512500X0*%
%ADD37RoundRect,0.150000X-0.825000X-0.150000X0.825000X-0.150000X0.825000X0.150000X-0.825000X0.150000X0*%
%ADD38RoundRect,0.041300X0.563700X0.253700X-0.563700X0.253700X-0.563700X-0.253700X0.563700X-0.253700X0*%
%ADD39RotRect,1.150000X1.000000X225.000000*%
%ADD40RoundRect,0.150000X0.825000X0.150000X-0.825000X0.150000X-0.825000X-0.150000X0.825000X-0.150000X0*%
G04 APERTURE END LIST*
D10*
X102337500Y-109700000D02*
G75*
G03*
X102337500Y-109700000I-2537500J0D01*
G01*
X167237500Y-109600000D02*
G75*
G03*
X167237500Y-109600000I-2537500J0D01*
G01*
X167237500Y-61700000D02*
G75*
G03*
X167237500Y-61700000I-2537500J0D01*
G01*
X102337500Y-61700000D02*
G75*
G03*
X102337500Y-61700000I-2537500J0D01*
G01*
D11*
%TO.C,R21*%
X114487500Y-87725000D03*
X116312500Y-87725000D03*
%TD*%
D12*
%TO.C,R20*%
X112850000Y-91062500D03*
X112850000Y-89237500D03*
%TD*%
D13*
%TO.C,R11*%
X106912500Y-98100000D03*
X105087500Y-98100000D03*
%TD*%
D14*
%TO.C,U5*%
X122995000Y-96375000D03*
X124265000Y-96375000D03*
X125535000Y-96375000D03*
X126805000Y-96375000D03*
X126805000Y-91425000D03*
X125535000Y-91425000D03*
X124265000Y-91425000D03*
X122995000Y-91425000D03*
%TD*%
D15*
%TO.C,C2*%
X146450000Y-83050000D03*
X146450000Y-81325000D03*
%TD*%
D11*
%TO.C,R15*%
X109587500Y-98100000D03*
X111412500Y-98100000D03*
%TD*%
D16*
%TO.C,D5*%
X109625000Y-104600000D03*
X111375000Y-104600000D03*
%TD*%
D15*
%TO.C,C8*%
X150381250Y-88662500D03*
X150381250Y-86937500D03*
%TD*%
%TO.C,C1*%
X151950000Y-83062500D03*
X151950000Y-81337500D03*
%TD*%
D17*
%TO.C,C34*%
X121462500Y-102900000D03*
X119737500Y-102900000D03*
%TD*%
D18*
%TO.C,C25*%
X115972796Y-77636913D03*
X114753036Y-76417153D03*
%TD*%
D15*
%TO.C,C27*%
X145500000Y-103262500D03*
X145500000Y-101537500D03*
%TD*%
D17*
%TO.C,C33*%
X106862500Y-101300000D03*
X105137500Y-101300000D03*
%TD*%
D19*
%TO.C,F1*%
X153700000Y-81287500D03*
X153700000Y-83112500D03*
%TD*%
D11*
%TO.C,R16*%
X114487500Y-90900000D03*
X116312500Y-90900000D03*
%TD*%
D15*
%TO.C,C14*%
X145600000Y-95962500D03*
X145600000Y-94237500D03*
%TD*%
D20*
%TO.C,J4*%
X139374999Y-100624999D03*
X138274999Y-100624999D03*
X137174999Y-100624999D03*
X136074999Y-100624999D03*
X134974999Y-100624999D03*
X133874999Y-100624999D03*
X132774999Y-100624999D03*
X131674999Y-100624999D03*
D21*
X129204999Y-102824999D03*
X129204999Y-94624999D03*
X143094999Y-94624999D03*
X143094999Y-102824999D03*
%TD*%
D13*
%TO.C,FB1*%
X150112500Y-83200000D03*
X148287500Y-83200000D03*
%TD*%
D19*
%TO.C,R1*%
X136650000Y-81287500D03*
X136650000Y-83112500D03*
%TD*%
D17*
%TO.C,C3*%
X144450000Y-84700000D03*
X142725000Y-84700000D03*
%TD*%
D22*
%TO.C,C38*%
X109637500Y-101300000D03*
X111362500Y-101300000D03*
%TD*%
D23*
%TO.C,U1*%
X144475000Y-83150000D03*
X144475000Y-82200000D03*
X144475000Y-81250000D03*
X142075000Y-81250000D03*
X142075000Y-83150000D03*
%TD*%
D11*
%TO.C,R12*%
X117925000Y-94112500D03*
X119750000Y-94112500D03*
%TD*%
D22*
%TO.C,C30*%
X105137500Y-99700000D03*
X106862500Y-99700000D03*
%TD*%
D13*
%TO.C,R17*%
X111400000Y-102900000D03*
X109575000Y-102900000D03*
%TD*%
D24*
%TO.C,U4*%
X121575000Y-75200000D03*
X121575000Y-75700000D03*
X121575000Y-76200000D03*
X121575000Y-76700000D03*
X121575000Y-77200000D03*
X121575000Y-77700000D03*
X121575000Y-78200000D03*
X121575000Y-78700000D03*
X121575000Y-79200000D03*
X121575000Y-79700000D03*
X121575000Y-80200000D03*
X121575000Y-80700000D03*
X121575000Y-81200000D03*
X121575000Y-81700000D03*
X121575000Y-82200000D03*
X121575000Y-82700000D03*
D25*
X123500000Y-84625000D03*
X124000000Y-84625000D03*
X124500000Y-84625000D03*
X125000000Y-84625000D03*
X125500000Y-84625000D03*
X126000000Y-84625000D03*
X126500000Y-84625000D03*
X127000000Y-84625000D03*
X127500000Y-84625000D03*
X128000000Y-84625000D03*
X128500000Y-84625000D03*
X129000000Y-84625000D03*
X129500000Y-84625000D03*
X130000000Y-84625000D03*
X130500000Y-84625000D03*
X131000000Y-84625000D03*
D24*
X132925000Y-82700000D03*
X132925000Y-82200000D03*
X132925000Y-81700000D03*
X132925000Y-81200000D03*
X132925000Y-80700000D03*
X132925000Y-80200000D03*
X132925000Y-79700000D03*
X132925000Y-79200000D03*
X132925000Y-78700000D03*
X132925000Y-78200000D03*
X132925000Y-77700000D03*
X132925000Y-77200000D03*
X132925000Y-76700000D03*
X132925000Y-76200000D03*
X132925000Y-75700000D03*
X132925000Y-75200000D03*
D25*
X131000000Y-73275000D03*
X130500000Y-73275000D03*
X130000000Y-73275000D03*
X129500000Y-73275000D03*
X129000000Y-73275000D03*
X128500000Y-73275000D03*
X128000000Y-73275000D03*
X127500000Y-73275000D03*
X127000000Y-73275000D03*
X126500000Y-73275000D03*
X126000000Y-73275000D03*
X125500000Y-73275000D03*
X125000000Y-73275000D03*
X124500000Y-73275000D03*
X124000000Y-73275000D03*
X123500000Y-73275000D03*
%TD*%
D13*
%TO.C,R6*%
X109925000Y-78600000D03*
X108100000Y-78600000D03*
%TD*%
D26*
%TO.C,BOOT1*%
X107849999Y-66299999D03*
X114149999Y-66299999D03*
X107849999Y-70099999D03*
X114149999Y-70099999D03*
%TD*%
D27*
%TO.C,C11*%
X150200000Y-100837500D03*
X150200000Y-102562500D03*
%TD*%
D22*
%TO.C,C40*%
X115437500Y-102900000D03*
X117162500Y-102900000D03*
%TD*%
D15*
%TO.C,C13*%
X147200000Y-95962500D03*
X147200000Y-94237500D03*
%TD*%
D28*
%TO.C,C24*%
X116072796Y-72417153D03*
X114853036Y-73636913D03*
%TD*%
D13*
%TO.C,R18*%
X116312500Y-89320000D03*
X114487500Y-89320000D03*
%TD*%
D27*
%TO.C,C15*%
X133450000Y-85287500D03*
X133450000Y-87012500D03*
%TD*%
D15*
%TO.C,C29*%
X119700000Y-86037500D03*
X119700000Y-84312500D03*
%TD*%
D29*
%TO.C,J1*%
X157814999Y-80899999D03*
X157814999Y-80099999D03*
D30*
X157814999Y-78949999D03*
X157814999Y-77949999D03*
X157814999Y-77449999D03*
X157814999Y-76449999D03*
D29*
X157814999Y-75299999D03*
X157814999Y-74499999D03*
X157814999Y-74499999D03*
X157814999Y-75299999D03*
D30*
X157814999Y-75949999D03*
X157814999Y-76949999D03*
X157814999Y-78449999D03*
X157814999Y-79449999D03*
D29*
X157814999Y-80099999D03*
X157814999Y-80899999D03*
D31*
X158394999Y-82019999D03*
D32*
X162564999Y-82019999D03*
D31*
X158394999Y-73379999D03*
D32*
X162564999Y-73379999D03*
%TD*%
D26*
%TO.C,RESET1*%
X104249999Y-72599999D03*
X110549999Y-72599999D03*
X104249999Y-76399999D03*
X110549999Y-76399999D03*
%TD*%
D15*
%TO.C,C18*%
X121500000Y-69950000D03*
X121500000Y-68225000D03*
%TD*%
%TO.C,C20*%
X123200000Y-69950000D03*
X123200000Y-68225000D03*
%TD*%
D33*
%TO.C,D3*%
X106875000Y-104600000D03*
X105125000Y-104600000D03*
%TD*%
D17*
%TO.C,C9*%
X153475000Y-94156250D03*
X151750000Y-94156250D03*
%TD*%
D34*
%TO.C,J3*%
X139119999Y-63699999D03*
D35*
X141659999Y-63699999D03*
X144199999Y-63699999D03*
X146739999Y-63699999D03*
%TD*%
D17*
%TO.C,C26*%
X124062500Y-89300000D03*
X122337500Y-89300000D03*
%TD*%
D13*
%TO.C,R10*%
X113462500Y-83975000D03*
X111637500Y-83975000D03*
%TD*%
D12*
%TO.C,R5*%
X148800000Y-96012500D03*
X148800000Y-94187500D03*
%TD*%
D13*
%TO.C,R8*%
X109812500Y-80800000D03*
X107987500Y-80800000D03*
%TD*%
D17*
%TO.C,C10*%
X153475000Y-92456250D03*
X151750000Y-92456250D03*
%TD*%
D15*
%TO.C,C28*%
X147250000Y-103262500D03*
X147250000Y-101537500D03*
%TD*%
D19*
%TO.C,R13*%
X138200000Y-74287500D03*
X138200000Y-76112500D03*
%TD*%
D27*
%TO.C,C12*%
X151900000Y-100837500D03*
X151900000Y-102562500D03*
%TD*%
D36*
%TO.C,U2*%
X153475000Y-96337500D03*
X152525000Y-96337500D03*
X151575000Y-96337500D03*
X151575000Y-98737500D03*
X153475000Y-98737500D03*
%TD*%
D27*
%TO.C,C22*%
X116400000Y-65687500D03*
X116400000Y-67412500D03*
%TD*%
D17*
%TO.C,C4*%
X144450000Y-86400000D03*
X142725000Y-86400000D03*
%TD*%
D37*
%TO.C,U7*%
X105525000Y-92395000D03*
X105525000Y-93665000D03*
X105525000Y-94935000D03*
X105525000Y-96205000D03*
X110475000Y-96205000D03*
X110475000Y-94935000D03*
X110475000Y-93665000D03*
X110475000Y-92395000D03*
%TD*%
D22*
%TO.C,C35*%
X117975000Y-90912500D03*
X119700000Y-90912500D03*
%TD*%
D38*
%TO.C,U3*%
X148955000Y-77900000D03*
X148955000Y-76950000D03*
X148955000Y-76000000D03*
X146445000Y-76000000D03*
X146445000Y-76950000D03*
X146445000Y-77900000D03*
%TD*%
D17*
%TO.C,C41*%
X114862500Y-93140000D03*
X113137500Y-93140000D03*
%TD*%
D34*
%TO.C,J5*%
X106939999Y-107699999D03*
D35*
X109479999Y-107699999D03*
X112019999Y-107699999D03*
X114559999Y-107699999D03*
X117099999Y-107699999D03*
X119639999Y-107699999D03*
%TD*%
D39*
%TO.C,Y1*%
X117486659Y-73813339D03*
X116249222Y-75050776D03*
X117239171Y-76040725D03*
X118476608Y-74803288D03*
%TD*%
D17*
%TO.C,C16*%
X124050000Y-87750000D03*
X122325000Y-87750000D03*
%TD*%
D13*
%TO.C,R14*%
X119750000Y-89312500D03*
X117925000Y-89312500D03*
%TD*%
D17*
%TO.C,C36*%
X111362500Y-99700000D03*
X109637500Y-99700000D03*
%TD*%
D13*
%TO.C,R3*%
X159812500Y-71000000D03*
X157987500Y-71000000D03*
%TD*%
%TO.C,R2*%
X159337500Y-84000000D03*
X157512500Y-84000000D03*
%TD*%
D19*
%TO.C,FB2*%
X152081250Y-86875000D03*
X152081250Y-88700000D03*
%TD*%
D15*
%TO.C,C37*%
X110500000Y-90562500D03*
X110500000Y-88837500D03*
%TD*%
D11*
%TO.C,R4*%
X146987500Y-97600000D03*
X148812500Y-97600000D03*
%TD*%
D22*
%TO.C,C23*%
X131687500Y-88750000D03*
X133412500Y-88750000D03*
%TD*%
D16*
%TO.C,D4*%
X119750000Y-104600000D03*
X121500000Y-104600000D03*
%TD*%
D13*
%TO.C,R9*%
X113475000Y-85575000D03*
X111650000Y-85575000D03*
%TD*%
D15*
%TO.C,C5*%
X140050000Y-83062500D03*
X140050000Y-81337500D03*
%TD*%
%TO.C,C32*%
X105500000Y-90562500D03*
X105500000Y-88837500D03*
%TD*%
D23*
%TO.C,U6*%
X117837500Y-86125000D03*
X117837500Y-85175000D03*
X117837500Y-84225000D03*
X115562500Y-84225000D03*
X115562500Y-85175000D03*
X115562500Y-86125000D03*
%TD*%
D40*
%TO.C,U8*%
X119475000Y-100605000D03*
X119475000Y-99335000D03*
X119475000Y-98065000D03*
X119475000Y-96795000D03*
X114525000Y-96795000D03*
X114525000Y-98065000D03*
X114525000Y-99335000D03*
X114525000Y-100605000D03*
%TD*%
D13*
%TO.C,R19*%
X114912500Y-94740000D03*
X113087500Y-94740000D03*
%TD*%
D15*
%TO.C,C19*%
X124900000Y-69950000D03*
X124900000Y-68225000D03*
%TD*%
%TO.C,C39*%
X113500000Y-104562500D03*
X113500000Y-102837500D03*
%TD*%
D33*
%TO.C,D1*%
X138400000Y-79487500D03*
X136650000Y-79487500D03*
%TD*%
D11*
%TO.C,R13*%
X105087500Y-102900000D03*
X106912500Y-102900000D03*
%TD*%
D17*
%TO.C,C7*%
X152056250Y-85187500D03*
X150331250Y-85187500D03*
%TD*%
D19*
%TO.C,R7*%
X118150000Y-65637500D03*
X118150000Y-67462500D03*
%TD*%
D16*
%TO.C,D2*%
X104625000Y-80800000D03*
X106375000Y-80800000D03*
%TD*%
D34*
%TO.C,J2*%
X127799999Y-63699999D03*
D35*
X130339999Y-63699999D03*
X132879999Y-63699999D03*
X135419999Y-63699999D03*
%TD*%
D17*
%TO.C,C21*%
X106262500Y-78600000D03*
X104537500Y-78600000D03*
%TD*%
D22*
%TO.C,C17*%
X133787500Y-72350000D03*
X135512500Y-72350000D03*
%TD*%
D17*
%TO.C,C31*%
X119676577Y-92512500D03*
X117951577Y-92512500D03*
%TD*%
D15*
%TO.C,C6*%
X138350000Y-83062500D03*
X138350000Y-81337500D03*
%TD*%
D33*
%TO.C,D6*%
X117175000Y-104600000D03*
X115425000Y-104600000D03*
%TD*%
D27*
%TO.C,C42*%
X108000000Y-88837500D03*
X108000000Y-90562500D03*
%TD*%
G36*
X102537000Y-65616881D02*
G01*
X102583119Y-65663000D01*
X102600000Y-65726000D01*
X102600000Y-105674000D01*
X102583119Y-105737000D01*
X102537000Y-105783119D01*
X102474000Y-105800000D01*
X100026000Y-105800000D01*
X99963000Y-105783119D01*
X99916881Y-105737000D01*
X99900000Y-105674000D01*
X99900000Y-65726000D01*
X99916881Y-65663000D01*
X99963000Y-65616881D01*
X100026000Y-65600000D01*
X102474000Y-65600000D01*
X102537000Y-65616881D01*
G37*
G36*
X164587000Y-83416881D02*
G01*
X164633119Y-83463000D01*
X164650000Y-83526000D01*
X164650000Y-106883410D01*
X164653506Y-106896493D01*
X164666590Y-106900000D01*
X164778000Y-106900000D01*
X164841000Y-106916881D01*
X164887119Y-106963000D01*
X164904000Y-107026000D01*
X164904000Y-107529257D01*
X164885589Y-107594836D01*
X164835736Y-107641250D01*
X164769011Y-107654936D01*
X164704488Y-107650321D01*
X164695512Y-107650321D01*
X164419861Y-107670035D01*
X164410965Y-107671315D01*
X164140941Y-107730055D01*
X164132314Y-107732588D01*
X163873381Y-107829165D01*
X163865225Y-107832889D01*
X163671654Y-107938588D01*
X163611269Y-107954000D01*
X161752903Y-107954000D01*
X161747079Y-107953865D01*
X161732383Y-107953185D01*
X161720794Y-107952111D01*
X161709091Y-107950478D01*
X161697665Y-107948342D01*
X161686169Y-107945639D01*
X161674962Y-107942451D01*
X161663766Y-107938698D01*
X161652918Y-107934495D01*
X161642106Y-107929721D01*
X161631683Y-107924531D01*
X161621368Y-107918785D01*
X161611481Y-107912663D01*
X161601739Y-107905990D01*
X161592451Y-107898976D01*
X161583362Y-107891429D01*
X161574759Y-107883586D01*
X161566413Y-107875240D01*
X161558570Y-107866637D01*
X161551023Y-107857548D01*
X161544009Y-107848260D01*
X161537336Y-107838518D01*
X161531214Y-107828631D01*
X161525468Y-107818316D01*
X161520278Y-107807893D01*
X161515504Y-107797081D01*
X161511301Y-107786233D01*
X161507548Y-107775037D01*
X161504360Y-107763830D01*
X161501657Y-107752334D01*
X161499521Y-107740908D01*
X161497888Y-107729205D01*
X161496813Y-107717608D01*
X161496134Y-107702913D01*
X161496000Y-107697097D01*
X161496000Y-107026000D01*
X161512881Y-106963000D01*
X161559000Y-106916881D01*
X161622000Y-106900000D01*
X161733410Y-106900000D01*
X161746493Y-106896493D01*
X161750000Y-106883410D01*
X161750000Y-83526000D01*
X161766881Y-83463000D01*
X161813000Y-83416881D01*
X161876000Y-83400000D01*
X164524000Y-83400000D01*
X164587000Y-83416881D01*
G37*
G36*
X125437000Y-61716881D02*
G01*
X125483119Y-61763000D01*
X125500000Y-61826000D01*
X125500000Y-64274000D01*
X125483119Y-64337000D01*
X125437000Y-64383119D01*
X125374000Y-64400000D01*
X103926000Y-64400000D01*
X103863000Y-64383119D01*
X103816881Y-64337000D01*
X103800000Y-64274000D01*
X103800000Y-61826000D01*
X103816881Y-61763000D01*
X103863000Y-61716881D01*
X103926000Y-61700000D01*
X125374000Y-61700000D01*
X125437000Y-61716881D01*
G37*
G36*
X162650227Y-61815413D02*
G01*
X162695840Y-61857879D01*
X162715521Y-61917012D01*
X162720035Y-61980137D01*
X162721315Y-61989034D01*
X162780055Y-62259058D01*
X162782588Y-62267685D01*
X162879165Y-62526618D01*
X162882889Y-62534774D01*
X163015334Y-62777328D01*
X163020193Y-62784890D01*
X163185803Y-63006117D01*
X163191686Y-63012906D01*
X163387093Y-63208313D01*
X163393882Y-63214196D01*
X163615109Y-63379806D01*
X163622671Y-63384665D01*
X163865225Y-63517110D01*
X163873381Y-63520834D01*
X164132314Y-63617411D01*
X164140941Y-63619944D01*
X164410965Y-63678684D01*
X164419861Y-63679964D01*
X164695512Y-63699679D01*
X164704488Y-63699679D01*
X164980138Y-63679964D01*
X164989034Y-63678684D01*
X165259058Y-63619944D01*
X165267685Y-63617411D01*
X165526618Y-63520834D01*
X165534774Y-63517110D01*
X165777328Y-63384665D01*
X165784890Y-63379806D01*
X166006117Y-63214196D01*
X166012906Y-63208313D01*
X166208313Y-63012906D01*
X166214196Y-63006117D01*
X166379806Y-62784890D01*
X166384665Y-62777328D01*
X166517110Y-62534774D01*
X166520834Y-62526618D01*
X166617411Y-62267685D01*
X166619944Y-62259058D01*
X166678684Y-61989034D01*
X166679964Y-61980137D01*
X166684479Y-61917012D01*
X166704160Y-61857879D01*
X166749773Y-61815413D01*
X166810158Y-61800000D01*
X169566245Y-61800000D01*
X169629783Y-61817193D01*
X169675981Y-61864080D01*
X169692231Y-61927866D01*
X169691302Y-61990592D01*
X169690639Y-62001773D01*
X169645780Y-62432664D01*
X169644126Y-62443740D01*
X169561189Y-62868922D01*
X169558559Y-62879808D01*
X169438189Y-63295964D01*
X169434602Y-63306574D01*
X169277756Y-63710394D01*
X169273241Y-63720643D01*
X169081161Y-64108935D01*
X169075754Y-64118743D01*
X168879739Y-64439676D01*
X168833857Y-64483889D01*
X168772209Y-64500000D01*
X164666590Y-64500000D01*
X164653506Y-64503506D01*
X164650000Y-64516590D01*
X164650000Y-64628000D01*
X164633119Y-64691000D01*
X164587000Y-64737119D01*
X164524000Y-64754000D01*
X162076000Y-64754000D01*
X162013000Y-64737119D01*
X161966881Y-64691000D01*
X161950000Y-64628000D01*
X161950000Y-64516590D01*
X161946493Y-64503506D01*
X161933410Y-64500000D01*
X148676000Y-64500000D01*
X148613000Y-64483119D01*
X148566881Y-64437000D01*
X148550000Y-64374000D01*
X148550000Y-61926000D01*
X148566881Y-61863000D01*
X148613000Y-61816881D01*
X148676000Y-61800000D01*
X162589842Y-61800000D01*
X162650227Y-61815413D01*
G37*
G36*
X163434221Y-63252448D02*
G01*
X163469939Y-63271132D01*
X163615109Y-63379806D01*
X163622671Y-63384665D01*
X163865225Y-63517110D01*
X163873381Y-63520834D01*
X164132314Y-63617411D01*
X164140941Y-63619944D01*
X164410965Y-63678684D01*
X164419861Y-63679964D01*
X164695512Y-63699679D01*
X164704488Y-63699679D01*
X164769011Y-63695064D01*
X164835736Y-63708750D01*
X164885589Y-63755164D01*
X164904000Y-63820743D01*
X164904000Y-64374000D01*
X164887119Y-64437000D01*
X164841000Y-64483119D01*
X164778000Y-64500000D01*
X164666590Y-64500000D01*
X164653506Y-64503506D01*
X164650000Y-64516590D01*
X164650000Y-71874000D01*
X164633119Y-71937000D01*
X164587000Y-71983119D01*
X164524000Y-72000000D01*
X162076000Y-72000000D01*
X162013000Y-71983119D01*
X161966881Y-71937000D01*
X161950000Y-71874000D01*
X161950000Y-64516590D01*
X161946493Y-64503506D01*
X161933410Y-64500000D01*
X161822000Y-64500000D01*
X161759000Y-64483119D01*
X161712881Y-64437000D01*
X161696000Y-64374000D01*
X161696000Y-63502903D01*
X161696134Y-63497088D01*
X161696813Y-63482392D01*
X161697888Y-63470794D01*
X161699521Y-63459091D01*
X161701657Y-63447665D01*
X161704360Y-63436169D01*
X161707548Y-63424962D01*
X161711301Y-63413766D01*
X161715504Y-63402918D01*
X161720278Y-63392106D01*
X161725468Y-63381683D01*
X161731214Y-63371368D01*
X161737336Y-63361481D01*
X161744009Y-63351739D01*
X161751023Y-63342451D01*
X161758570Y-63333362D01*
X161766413Y-63324759D01*
X161774759Y-63316413D01*
X161783362Y-63308570D01*
X161792451Y-63301023D01*
X161801739Y-63294009D01*
X161811481Y-63287336D01*
X161821368Y-63281214D01*
X161831683Y-63275468D01*
X161842106Y-63270278D01*
X161852918Y-63265504D01*
X161863766Y-63261301D01*
X161874962Y-63257548D01*
X161886169Y-63254360D01*
X161897665Y-63251657D01*
X161909091Y-63249521D01*
X161920794Y-63247888D01*
X161932392Y-63246813D01*
X161947088Y-63246134D01*
X161952903Y-63246000D01*
X163394430Y-63246000D01*
X163434221Y-63252448D01*
G37*
G36*
X164587000Y-106662881D02*
G01*
X164633119Y-106709000D01*
X164650000Y-106772000D01*
X164650000Y-106883410D01*
X164653506Y-106896493D01*
X164666590Y-106900000D01*
X168802748Y-106900000D01*
X168864396Y-106916111D01*
X168910278Y-106960324D01*
X169075754Y-107231256D01*
X169081161Y-107241064D01*
X169273241Y-107629356D01*
X169277756Y-107639605D01*
X169434602Y-108043425D01*
X169438189Y-108054035D01*
X169558559Y-108470191D01*
X169561189Y-108481077D01*
X169644126Y-108906259D01*
X169645780Y-108917335D01*
X169690639Y-109348226D01*
X169691302Y-109359407D01*
X169692972Y-109472134D01*
X169676722Y-109535919D01*
X169630524Y-109582807D01*
X169566986Y-109600000D01*
X166813734Y-109600000D01*
X166753349Y-109584588D01*
X166707736Y-109542121D01*
X166688055Y-109482988D01*
X166679964Y-109369862D01*
X166678684Y-109360965D01*
X166619944Y-109090941D01*
X166617411Y-109082314D01*
X166520834Y-108823381D01*
X166517110Y-108815225D01*
X166384665Y-108572671D01*
X166379806Y-108565109D01*
X166214196Y-108343882D01*
X166208313Y-108337093D01*
X166012906Y-108141686D01*
X166006117Y-108135803D01*
X165784890Y-107970193D01*
X165777328Y-107965334D01*
X165534774Y-107832889D01*
X165526618Y-107829165D01*
X165267685Y-107732588D01*
X165259058Y-107730055D01*
X164989034Y-107671315D01*
X164980138Y-107670035D01*
X164704488Y-107650321D01*
X164695512Y-107650321D01*
X164419861Y-107670035D01*
X164410965Y-107671315D01*
X164140941Y-107730055D01*
X164132314Y-107732588D01*
X163873381Y-107829165D01*
X163865225Y-107832889D01*
X163622671Y-107965334D01*
X163615109Y-107970193D01*
X163393882Y-108135803D01*
X163387093Y-108141686D01*
X163191686Y-108337093D01*
X163185803Y-108343882D01*
X163020193Y-108565109D01*
X163015334Y-108572671D01*
X162882889Y-108815225D01*
X162879165Y-108823381D01*
X162782588Y-109082314D01*
X162780055Y-109090941D01*
X162721315Y-109360965D01*
X162720035Y-109369862D01*
X162711945Y-109482988D01*
X162692264Y-109542121D01*
X162646651Y-109584588D01*
X162586266Y-109600000D01*
X121726000Y-109600000D01*
X121663000Y-109583119D01*
X121616881Y-109537000D01*
X121600000Y-109474000D01*
X121600000Y-107026000D01*
X121616881Y-106963000D01*
X121663000Y-106916881D01*
X121726000Y-106900000D01*
X161733410Y-106900000D01*
X161746493Y-106896493D01*
X161750000Y-106883410D01*
X161750000Y-106772000D01*
X161766881Y-106709000D01*
X161813000Y-106662881D01*
X161876000Y-106646000D01*
X164524000Y-106646000D01*
X164587000Y-106662881D01*
G37*
M02*
