%TF.GenerationSoftware,KiCad,Pcbnew,(6.0.4)*%
%TF.CreationDate,2023-02-04T00:36:02+01:00*%
%TF.ProjectId,Apollo - DSP,41706f6c-6c6f-4202-9d20-4453502e6b69,rev?*%
%TF.SameCoordinates,Original*%
%TF.FileFunction,Copper,L3,Inr*%
%TF.FilePolarity,Positive*%
%FSLAX46Y46*%
G04 Gerber Fmt 4.6, Leading zero omitted, Abs format (unit mm)*
G04 Created by KiCad (PCBNEW (6.0.4)) date 2023-02-04 00:36:02*
%MOMM*%
%LPD*%
G01*
G04 APERTURE LIST*
%TA.AperFunction,ComponentPad*%
%ADD10R,1.700000X1.700000*%
%TD*%
%TA.AperFunction,ComponentPad*%
%ADD11O,1.700000X1.700000*%
%TD*%
%TA.AperFunction,ComponentPad*%
%ADD12O,1.700000X0.900000*%
%TD*%
%TA.AperFunction,ComponentPad*%
%ADD13O,2.000000X0.900000*%
%TD*%
%TA.AperFunction,ViaPad*%
%ADD14C,0.800000*%
%TD*%
%TA.AperFunction,ViaPad*%
%ADD15C,0.600000*%
%TD*%
%TA.AperFunction,Conductor*%
%ADD16C,0.254000*%
%TD*%
%TA.AperFunction,Conductor*%
%ADD17C,0.508000*%
%TD*%
%TA.AperFunction,Conductor*%
%ADD18C,0.200000*%
%TD*%
G04 APERTURE END LIST*
D10*
%TO.N,3.3V*%
%TO.C,J7*%
X86700000Y-110650000D03*
D11*
%TO.N,MOSI*%
X86700000Y-113190000D03*
%TO.N,MISO*%
X86700000Y-115730000D03*
%TO.N,SCLK*%
X86700000Y-118270000D03*
%TO.N,CONN_nCS*%
X86700000Y-120810000D03*
%TO.N,GND*%
X86700000Y-123350000D03*
%TD*%
D12*
%TO.N,unconnected-(J1-PadS1)*%
%TO.C,J1*%
X120765000Y-89480000D03*
D13*
X116595000Y-89480000D03*
D12*
X120765000Y-98120000D03*
D13*
X116595000Y-98120000D03*
%TD*%
D10*
%TO.N,3.3V*%
%TO.C,J5*%
X102600000Y-80000000D03*
D11*
%TO.N,Rx*%
X105140000Y-80000000D03*
%TO.N,Tx*%
X107680000Y-80000000D03*
%TO.N,GND*%
X110220000Y-80000000D03*
%TD*%
D10*
%TO.N,+3.3VA*%
%TO.C,J6*%
X75100000Y-123300000D03*
D11*
%TO.N,CH0_IN*%
X77640000Y-123300000D03*
%TO.N,CH1_IN*%
X80180000Y-123300000D03*
%TO.N,GND*%
X82720000Y-123300000D03*
%TD*%
D10*
%TO.N,3.3V*%
%TO.C,J4*%
X79820000Y-80000000D03*
D11*
%TO.N,SDA*%
X82360000Y-80000000D03*
%TO.N,SCL*%
X84900000Y-80000000D03*
%TO.N,GND*%
X87440000Y-80000000D03*
%TD*%
D10*
%TO.N,3.3V*%
%TO.C,J2*%
X91200000Y-80000000D03*
D11*
%TO.N,SWCLK*%
X93740000Y-80000000D03*
%TO.N,SWDIO*%
X96280000Y-80000000D03*
%TO.N,GND*%
X98820000Y-80000000D03*
%TD*%
D14*
%TO.N,GND*%
X56100000Y-110400000D03*
X116430000Y-118570000D03*
X93125000Y-103787500D03*
X86900000Y-104300000D03*
X114400000Y-102022500D03*
X112800000Y-90222500D03*
X114900000Y-88022500D03*
X71300000Y-112600000D03*
X102600000Y-120600000D03*
X65270000Y-103330000D03*
X111900000Y-100522500D03*
X70837500Y-85818750D03*
X112000000Y-89022500D03*
X63270000Y-118330000D03*
X65400000Y-98500000D03*
X56491250Y-90900000D03*
X71300000Y-108900000D03*
X62500000Y-123500000D03*
D15*
X94037500Y-97412500D03*
D14*
X56100000Y-103400000D03*
X112950000Y-88072500D03*
D15*
X111000000Y-94622500D03*
D14*
X93875000Y-118975000D03*
D15*
X96525000Y-97412500D03*
D14*
X70770000Y-118330000D03*
X113850000Y-87172500D03*
X90000000Y-103750000D03*
X119600000Y-113900000D03*
X106212500Y-101587500D03*
X110900000Y-86022500D03*
X78700000Y-113172500D03*
X107537500Y-96487500D03*
X116420000Y-104680000D03*
X90000000Y-105150000D03*
X60400000Y-123500000D03*
X98025000Y-95012500D03*
X104937500Y-96487500D03*
X71300000Y-105400000D03*
X114400000Y-100522500D03*
X57970000Y-103230000D03*
X101525000Y-95012500D03*
X116200000Y-85700000D03*
X56800000Y-122700000D03*
X99825000Y-95012500D03*
X114000000Y-99222500D03*
X113900000Y-89022500D03*
X94925000Y-95012500D03*
X66413864Y-92796187D03*
X110900000Y-90222500D03*
X76000000Y-87200000D03*
X56100000Y-100500000D03*
X77300000Y-111772500D03*
X62300000Y-98500000D03*
X86600000Y-90600000D03*
X62370000Y-110630000D03*
X65600000Y-123500000D03*
X96525000Y-103787500D03*
X111900000Y-101922500D03*
X74100000Y-111772500D03*
X114900000Y-86122500D03*
X112350000Y-99272500D03*
X56100000Y-114600000D03*
X72200000Y-118500000D03*
X113200000Y-98422500D03*
X68800000Y-123500000D03*
X104800000Y-120500000D03*
X113200000Y-101822500D03*
X70837500Y-84118750D03*
X58500000Y-98500000D03*
X71100000Y-123500000D03*
X101525000Y-103787500D03*
X93125000Y-94812500D03*
X75400000Y-96200000D03*
X113100000Y-86022500D03*
X107512500Y-101587500D03*
X72200000Y-115400000D03*
D15*
X96425000Y-105987500D03*
D14*
X99825000Y-103787500D03*
X113200000Y-100522500D03*
X56100000Y-106700000D03*
X63770000Y-100230000D03*
X75700000Y-111772500D03*
X69000000Y-98600000D03*
X91425000Y-103787500D03*
X77500000Y-83200000D03*
X110900000Y-88222500D03*
X83862500Y-102562500D03*
X96525000Y-95012500D03*
X112000000Y-87122500D03*
X72200000Y-121300000D03*
X70837500Y-82418750D03*
X70970000Y-100230000D03*
X104987500Y-101587500D03*
X75100000Y-102000000D03*
X56100000Y-118500000D03*
X69670000Y-110830000D03*
D15*
%TO.N,+5V*%
X102510000Y-98312500D03*
X111000000Y-93022500D03*
X98812500Y-98325000D03*
D14*
X105200000Y-99722500D03*
X106500000Y-99722500D03*
%TO.N,3.3V*%
X90200000Y-88600000D03*
X85500000Y-89200000D03*
X106500000Y-115724500D03*
X84000000Y-100300000D03*
X95600000Y-114200000D03*
X76600000Y-102000000D03*
X75600000Y-84100000D03*
X88300000Y-99722500D03*
X75600000Y-85800000D03*
X89700000Y-99722500D03*
X88300000Y-98322500D03*
%TO.N,VAA*%
X70770000Y-116630000D03*
X74100000Y-116572500D03*
X63270000Y-116630000D03*
%TO.N,+5VA*%
X97600000Y-108600000D03*
X65200000Y-105000000D03*
X78400000Y-108700000D03*
X64100000Y-109100000D03*
X81200000Y-111300000D03*
X57900000Y-105000000D03*
%TO.N,+3.3VA*%
X77100000Y-117900000D03*
X65670000Y-100230000D03*
X90000000Y-107100000D03*
X58370000Y-100230000D03*
%TO.N,USB_CONN_-*%
X114700000Y-94749500D03*
X114700000Y-92600000D03*
%TO.N,CH1_IN*%
X70600000Y-120100000D03*
%TO.N,CH0_IN*%
X63400000Y-120100000D03*
%TO.N,USB_D-*%
X106300000Y-92700000D03*
X108200000Y-93600000D03*
%TO.N,USB_D+*%
X106300000Y-91700497D03*
X107712770Y-92723527D03*
%TO.N,ADC_CH1_IN*%
X71800000Y-98100000D03*
D15*
X68332500Y-101567500D03*
D14*
%TO.N,ADC_CH0_IN*%
X71600000Y-96800000D03*
D15*
X61122500Y-101582500D03*
D14*
%TO.N,MISO*%
X99500000Y-118900000D03*
%TO.N,Rx*%
X87606930Y-93408910D03*
%TO.N,Tx*%
X87600000Y-94600000D03*
%TO.N,/POW*%
X114225000Y-91400000D03*
X113500000Y-96422500D03*
%TO.N,RAM_nCS*%
X97400000Y-112500000D03*
X97600000Y-118800000D03*
%TO.N,CONN_nCS*%
X79276500Y-104681286D03*
X76700000Y-105900000D03*
%TD*%
D16*
%TO.N,+5V*%
X109100000Y-97700000D02*
X107077500Y-99722500D01*
X110877500Y-93022500D02*
X109100000Y-94800000D01*
X109100000Y-94800000D02*
X109100000Y-97700000D01*
X107077500Y-99722500D02*
X106500000Y-99722500D01*
X111000000Y-93022500D02*
X110877500Y-93022500D01*
D17*
%TO.N,VAA*%
X70827500Y-116572500D02*
X70770000Y-116630000D01*
X74100000Y-116572500D02*
X70827500Y-116572500D01*
X70770000Y-116630000D02*
X63270000Y-116630000D01*
%TO.N,+5VA*%
X70000000Y-109700000D02*
X70200000Y-109900000D01*
X72400000Y-109900000D02*
X72900000Y-109900000D01*
X61200000Y-109200000D02*
X64000000Y-109200000D01*
X64100000Y-109100000D02*
X69400000Y-109100000D01*
X69400000Y-109100000D02*
X70000000Y-109700000D01*
X70200000Y-109900000D02*
X72400000Y-109900000D01*
X81200000Y-111300000D02*
X83900000Y-108600000D01*
X83900000Y-108600000D02*
X97600000Y-108600000D01*
X64000000Y-109200000D02*
X64100000Y-109100000D01*
X74100000Y-108700000D02*
X78400000Y-108700000D01*
X72900000Y-109900000D02*
X73800000Y-109000000D01*
X57900000Y-105900000D02*
X61200000Y-109200000D01*
X57900000Y-105000000D02*
X57900000Y-105900000D01*
X73800000Y-109000000D02*
X74100000Y-108700000D01*
%TO.N,+3.3VA*%
X90000000Y-107100000D02*
X79500000Y-107100000D01*
X58370000Y-100230000D02*
X61240000Y-103100000D01*
X79900000Y-107100000D02*
X79500000Y-107100000D01*
X80000000Y-115000000D02*
X80000000Y-107200000D01*
X77100000Y-117900000D02*
X80000000Y-115000000D01*
X62100000Y-105300000D02*
X62100000Y-103100000D01*
X65670000Y-100530000D02*
X65670000Y-100230000D01*
X80000000Y-107200000D02*
X79900000Y-107100000D01*
X63100000Y-103100000D02*
X65670000Y-100530000D01*
X62000000Y-103100000D02*
X62100000Y-103100000D01*
X79500000Y-107100000D02*
X63900000Y-107100000D01*
X63900000Y-107100000D02*
X62100000Y-105300000D01*
X61240000Y-103100000D02*
X62000000Y-103100000D01*
X62100000Y-103100000D02*
X63100000Y-103100000D01*
D18*
%TO.N,USB_CONN_-*%
X114700000Y-92600000D02*
X114700000Y-94749500D01*
D16*
%TO.N,CH1_IN*%
X78800000Y-120100000D02*
X70600000Y-120100000D01*
X80180000Y-123300000D02*
X80180000Y-121480000D01*
X80180000Y-121480000D02*
X78800000Y-120100000D01*
%TO.N,CH0_IN*%
X77000000Y-121400000D02*
X73700000Y-121400000D01*
X77640000Y-123300000D02*
X77640000Y-122040000D01*
X73700000Y-121400000D02*
X72800000Y-122300000D01*
X77640000Y-122040000D02*
X77000000Y-121400000D01*
X72800000Y-122300000D02*
X65600000Y-122300000D01*
X65600000Y-122300000D02*
X63400000Y-120100000D01*
D18*
%TO.N,USB_D-*%
X106699984Y-92700000D02*
X106300000Y-92700000D01*
X108100000Y-93500000D02*
X107499984Y-93500000D01*
X107499984Y-93500000D02*
X106699984Y-92700000D01*
%TO.N,USB_D+*%
X107712770Y-92723527D02*
X107323030Y-92723527D01*
X107323030Y-92723527D02*
X106300000Y-91700497D01*
D16*
%TO.N,ADC_CH1_IN*%
X71800000Y-98100000D02*
X68332500Y-101567500D01*
%TO.N,ADC_CH0_IN*%
X71600000Y-96800000D02*
X65600000Y-96800000D01*
X65600000Y-96800000D02*
X61122500Y-101277500D01*
X61122500Y-101277500D02*
X61122500Y-101582500D01*
%TO.N,MISO*%
X90870000Y-119900000D02*
X98500000Y-119900000D01*
X98500000Y-119900000D02*
X99500000Y-118900000D01*
X86700000Y-115730000D02*
X90870000Y-119900000D01*
%TO.N,Rx*%
X105140000Y-80660000D02*
X105140000Y-80000000D01*
X92391090Y-93408910D02*
X105140000Y-80660000D01*
X87606930Y-93408910D02*
X92391090Y-93408910D01*
%TO.N,Tx*%
X93594011Y-94085989D02*
X107680000Y-80000000D01*
X87600000Y-94600000D02*
X88100000Y-94600000D01*
X88614011Y-94085989D02*
X93594011Y-94085989D01*
X88100000Y-94600000D02*
X88614011Y-94085989D01*
D17*
%TO.N,/POW*%
X113500000Y-96422500D02*
X113500000Y-92125000D01*
X113500000Y-92125000D02*
X114225000Y-91400000D01*
D16*
%TO.N,RAM_nCS*%
X97400000Y-118600000D02*
X97400000Y-112500000D01*
X97600000Y-118800000D02*
X97400000Y-118600000D01*
%TO.N,CONN_nCS*%
X76700000Y-105900000D02*
X77918714Y-104681286D01*
X77918714Y-104681286D02*
X79276500Y-104681286D01*
%TD*%
M02*
