%TF.GenerationSoftware,KiCad,Pcbnew,(6.0.4)*%
%TF.CreationDate,2023-01-30T14:26:25+01:00*%
%TF.ProjectId,Apollo - DSP,41706f6c-6c6f-4202-9d20-4453502e6b69,rev?*%
%TF.SameCoordinates,Original*%
%TF.FileFunction,Paste,Top*%
%TF.FilePolarity,Positive*%
%FSLAX46Y46*%
G04 Gerber Fmt 4.6, Leading zero omitted, Abs format (unit mm)*
G04 Created by KiCad (PCBNEW (6.0.4)) date 2023-01-30 14:26:25*
%MOMM*%
%LPD*%
G01*
G04 APERTURE LIST*
G04 Aperture macros list*
%AMRoundRect*
0 Rectangle with rounded corners*
0 $1 Rounding radius*
0 $2 $3 $4 $5 $6 $7 $8 $9 X,Y pos of 4 corners*
0 Add a 4 corners polygon primitive as box body*
4,1,4,$2,$3,$4,$5,$6,$7,$8,$9,$2,$3,0*
0 Add four circle primitives for the rounded corners*
1,1,$1+$1,$2,$3*
1,1,$1+$1,$4,$5*
1,1,$1+$1,$6,$7*
1,1,$1+$1,$8,$9*
0 Add four rect primitives between the rounded corners*
20,1,$1+$1,$2,$3,$4,$5,0*
20,1,$1+$1,$4,$5,$6,$7,0*
20,1,$1+$1,$6,$7,$8,$9,0*
20,1,$1+$1,$8,$9,$2,$3,0*%
%AMRotRect*
0 Rectangle, with rotation*
0 The origin of the aperture is its center*
0 $1 length*
0 $2 width*
0 $3 Rotation angle, in degrees counterclockwise*
0 Add horizontal line*
21,1,$1,$2,0,0,$3*%
G04 Aperture macros list end*
%ADD10RoundRect,0.237500X0.237500X-0.250000X0.237500X0.250000X-0.237500X0.250000X-0.237500X-0.250000X0*%
%ADD11RoundRect,0.237500X0.250000X0.237500X-0.250000X0.237500X-0.250000X-0.237500X0.250000X-0.237500X0*%
%ADD12RoundRect,0.237500X0.237500X-0.300000X0.237500X0.300000X-0.237500X0.300000X-0.237500X-0.300000X0*%
%ADD13RoundRect,0.237500X0.380070X-0.044194X-0.044194X0.380070X-0.380070X0.044194X0.044194X-0.380070X0*%
%ADD14RoundRect,0.237500X-0.237500X0.250000X-0.237500X-0.250000X0.237500X-0.250000X0.237500X0.250000X0*%
%ADD15RoundRect,0.237500X0.300000X0.237500X-0.300000X0.237500X-0.300000X-0.237500X0.300000X-0.237500X0*%
%ADD16RoundRect,0.237500X-0.250000X-0.237500X0.250000X-0.237500X0.250000X0.237500X-0.250000X0.237500X0*%
%ADD17RoundRect,0.237500X0.044194X0.380070X-0.380070X-0.044194X-0.044194X-0.380070X0.380070X0.044194X0*%
%ADD18RoundRect,0.150000X0.150000X-0.825000X0.150000X0.825000X-0.150000X0.825000X-0.150000X-0.825000X0*%
%ADD19RoundRect,0.237500X-0.300000X-0.237500X0.300000X-0.237500X0.300000X0.237500X-0.300000X0.237500X0*%
%ADD20R,1.160000X0.600000*%
%ADD21R,1.160000X0.300000*%
%ADD22RoundRect,0.150000X0.512500X0.150000X-0.512500X0.150000X-0.512500X-0.150000X0.512500X-0.150000X0*%
%ADD23RoundRect,0.041300X0.563700X0.253700X-0.563700X0.253700X-0.563700X-0.253700X0.563700X-0.253700X0*%
%ADD24RotRect,1.150000X1.000000X225.000000*%
%ADD25R,1.200000X0.800000*%
%ADD26R,2.000000X1.500000*%
%ADD27RoundRect,0.075000X-0.662500X-0.075000X0.662500X-0.075000X0.662500X0.075000X-0.662500X0.075000X0*%
%ADD28RoundRect,0.075000X-0.075000X-0.662500X0.075000X-0.662500X0.075000X0.662500X-0.075000X0.662500X0*%
%ADD29RoundRect,0.237500X0.237500X-0.287500X0.237500X0.287500X-0.237500X0.287500X-0.237500X-0.287500X0*%
G04 APERTURE END LIST*
D10*
%TO.C,C2*%
X103425000Y-98312500D03*
X103425000Y-96487500D03*
%TD*%
D11*
%TO.C,D1*%
X91537500Y-94712500D03*
X89712500Y-94712500D03*
%TD*%
D10*
%TO.C,C9*%
X103425000Y-103412500D03*
X103425000Y-101587500D03*
%TD*%
%TO.C,C1*%
X108825000Y-98312500D03*
X108825000Y-96487500D03*
%TD*%
D12*
%TO.C,C26*%
X67470000Y-116617500D03*
X67470000Y-114892500D03*
%TD*%
D13*
%TO.C,C21*%
X66833624Y-92796187D03*
X65613864Y-91576427D03*
%TD*%
D14*
%TO.C,C31*%
X104800000Y-117087500D03*
X104800000Y-118912500D03*
%TD*%
D11*
%TO.C,F1*%
X112437500Y-96500000D03*
X110612500Y-96500000D03*
%TD*%
D15*
%TO.C,C28*%
X61832500Y-118367500D03*
X60107500Y-118367500D03*
%TD*%
D10*
%TO.C,C23*%
X74000000Y-116912500D03*
X74000000Y-115087500D03*
%TD*%
D16*
%TO.C,R11*%
X60057500Y-120067500D03*
X61882500Y-120067500D03*
%TD*%
D11*
%TO.C,R8*%
X75725000Y-81800000D03*
X73900000Y-81800000D03*
%TD*%
%TO.C,FB1*%
X107037500Y-98300000D03*
X105212500Y-98300000D03*
%TD*%
D16*
%TO.C,D3*%
X65657500Y-101567500D03*
X67482500Y-101567500D03*
%TD*%
D14*
%TO.C,R1*%
X89725000Y-96500000D03*
X89725000Y-98325000D03*
%TD*%
D10*
%TO.C,C3*%
X101525000Y-98325000D03*
X101525000Y-96500000D03*
%TD*%
%TO.C,C12*%
X93125000Y-103400000D03*
X93125000Y-101575000D03*
%TD*%
D15*
%TO.C,C33*%
X69232500Y-118355000D03*
X67507500Y-118355000D03*
%TD*%
D10*
%TO.C,C7*%
X75600000Y-116912500D03*
X75600000Y-115087500D03*
%TD*%
D14*
%TO.C,C30*%
X106500000Y-117087500D03*
X106500000Y-118912500D03*
%TD*%
D17*
%TO.C,C20*%
X66933624Y-87576427D03*
X65713864Y-88796187D03*
%TD*%
D18*
%TO.C,U6*%
X58517500Y-112442500D03*
X59787500Y-112442500D03*
X61057500Y-112442500D03*
X62327500Y-112442500D03*
X62327500Y-107492500D03*
X61057500Y-107492500D03*
X59787500Y-107492500D03*
X58517500Y-107492500D03*
%TD*%
D19*
%TO.C,C14*%
X84637500Y-87600000D03*
X86362500Y-87600000D03*
%TD*%
D20*
%TO.C,J1*%
X116015000Y-97000000D03*
X116015000Y-96200000D03*
D21*
X116015000Y-95050000D03*
X116015000Y-94050000D03*
X116015000Y-93550000D03*
X116015000Y-92550000D03*
D20*
X116015000Y-91400000D03*
X116015000Y-90600000D03*
X116015000Y-90600000D03*
X116015000Y-91400000D03*
D21*
X116015000Y-92050000D03*
X116015000Y-93050000D03*
X116015000Y-94550000D03*
X116015000Y-95550000D03*
D20*
X116015000Y-96200000D03*
X116015000Y-97000000D03*
%TD*%
D15*
%TO.C,C17*%
X73862500Y-86900000D03*
X72137500Y-86900000D03*
%TD*%
%TO.C,C19*%
X73862500Y-85200000D03*
X72137500Y-85200000D03*
%TD*%
D14*
%TO.C,C35*%
X73080000Y-106060000D03*
X73080000Y-107885000D03*
%TD*%
D10*
%TO.C,C10*%
X99825000Y-103400000D03*
X99825000Y-101575000D03*
%TD*%
D22*
%TO.C,U1*%
X97625000Y-98362500D03*
X97625000Y-97412500D03*
X97625000Y-96462500D03*
X95350000Y-96462500D03*
X95350000Y-98362500D03*
%TD*%
D10*
%TO.C,R5*%
X77200000Y-116912500D03*
X77200000Y-115087500D03*
%TD*%
D14*
%TO.C,R7*%
X62600000Y-88710000D03*
X62600000Y-90535000D03*
%TD*%
D10*
%TO.C,C11*%
X101525000Y-103400000D03*
X101525000Y-101575000D03*
%TD*%
D12*
%TO.C,C27*%
X60070000Y-116630000D03*
X60070000Y-114905000D03*
%TD*%
D14*
%TO.C,R13*%
X88300000Y-88787500D03*
X88300000Y-90612500D03*
%TD*%
D16*
%TO.C,D6*%
X61922500Y-101567500D03*
X63747500Y-101567500D03*
%TD*%
D10*
%TO.C,C13*%
X91425000Y-103400000D03*
X91425000Y-101575000D03*
%TD*%
D12*
%TO.C,C29*%
X61122500Y-105030000D03*
X61122500Y-103305000D03*
%TD*%
D10*
%TO.C,C4*%
X99825000Y-98325000D03*
X99825000Y-96500000D03*
%TD*%
D23*
%TO.C,U2*%
X112280000Y-94750000D03*
X112280000Y-93800000D03*
X112280000Y-92850000D03*
X109770000Y-92850000D03*
X109770000Y-93800000D03*
X109770000Y-94750000D03*
%TD*%
D14*
%TO.C,R10*%
X61870000Y-114855000D03*
X61870000Y-116680000D03*
%TD*%
D16*
%TO.C,R12*%
X67457500Y-120055000D03*
X69282500Y-120055000D03*
%TD*%
D24*
%TO.C,Y1*%
X68347488Y-88972614D03*
X67110051Y-90210051D03*
X68100000Y-91200000D03*
X69337437Y-89962563D03*
%TD*%
D15*
%TO.C,C22*%
X72175000Y-81800000D03*
X70450000Y-81800000D03*
%TD*%
%TO.C,C15*%
X73062500Y-93300000D03*
X71337500Y-93300000D03*
%TD*%
D11*
%TO.C,R3*%
X118012500Y-87100000D03*
X116187500Y-87100000D03*
%TD*%
D12*
%TO.C,C25*%
X59422500Y-105030000D03*
X59422500Y-103305000D03*
%TD*%
D11*
%TO.C,R2*%
X117537500Y-100100000D03*
X115712500Y-100100000D03*
%TD*%
D14*
%TO.C,R6*%
X81000000Y-98797500D03*
X81000000Y-100622500D03*
%TD*%
D12*
%TO.C,C32*%
X68370000Y-105030000D03*
X68370000Y-103305000D03*
%TD*%
D11*
%TO.C,FB2*%
X107037500Y-103400000D03*
X105212500Y-103400000D03*
%TD*%
D16*
%TO.C,D4*%
X58422500Y-101567500D03*
X60247500Y-101567500D03*
%TD*%
D14*
%TO.C,R4*%
X75600000Y-118587500D03*
X75600000Y-120412500D03*
%TD*%
D25*
%TO.C,J3*%
X118000000Y-108400000D03*
X118000000Y-109500000D03*
X118000000Y-110600000D03*
X118000000Y-111700000D03*
X118000000Y-112800000D03*
X118000000Y-113900000D03*
X118000000Y-115000000D03*
X118000000Y-116100000D03*
D26*
X120200000Y-118570000D03*
X112000000Y-118570000D03*
X112000000Y-104680000D03*
X120200000Y-104680000D03*
%TD*%
D27*
%TO.C,U4*%
X75837500Y-89650000D03*
X75837500Y-90150000D03*
X75837500Y-90650000D03*
X75837500Y-91150000D03*
X75837500Y-91650000D03*
X75837500Y-92150000D03*
X75837500Y-92650000D03*
X75837500Y-93150000D03*
X75837500Y-93650000D03*
X75837500Y-94150000D03*
X75837500Y-94650000D03*
X75837500Y-95150000D03*
D28*
X77250000Y-96562500D03*
X77750000Y-96562500D03*
X78250000Y-96562500D03*
X78750000Y-96562500D03*
X79250000Y-96562500D03*
X79750000Y-96562500D03*
X80250000Y-96562500D03*
X80750000Y-96562500D03*
X81250000Y-96562500D03*
X81750000Y-96562500D03*
X82250000Y-96562500D03*
X82750000Y-96562500D03*
D27*
X84162500Y-95150000D03*
X84162500Y-94650000D03*
X84162500Y-94150000D03*
X84162500Y-93650000D03*
X84162500Y-93150000D03*
X84162500Y-92650000D03*
X84162500Y-92150000D03*
X84162500Y-91650000D03*
X84162500Y-91150000D03*
X84162500Y-90650000D03*
X84162500Y-90150000D03*
X84162500Y-89650000D03*
D28*
X82750000Y-88237500D03*
X82250000Y-88237500D03*
X81750000Y-88237500D03*
X81250000Y-88237500D03*
X80750000Y-88237500D03*
X80250000Y-88237500D03*
X79750000Y-88237500D03*
X79250000Y-88237500D03*
X78750000Y-88237500D03*
X78250000Y-88237500D03*
X77750000Y-88237500D03*
X77250000Y-88237500D03*
%TD*%
D14*
%TO.C,R9*%
X69270000Y-114855000D03*
X69270000Y-116680000D03*
%TD*%
D10*
%TO.C,C5*%
X93125000Y-98325000D03*
X93125000Y-96500000D03*
%TD*%
D15*
%TO.C,C18*%
X73862500Y-83500000D03*
X72137500Y-83500000D03*
%TD*%
D18*
%TO.C,U7*%
X76795000Y-110997500D03*
X78065000Y-110997500D03*
X79335000Y-110997500D03*
X80605000Y-110997500D03*
X80605000Y-106047500D03*
X79335000Y-106047500D03*
X78065000Y-106047500D03*
X76795000Y-106047500D03*
%TD*%
D11*
%TO.C,C8*%
X107012500Y-101600000D03*
X105187500Y-101600000D03*
%TD*%
D16*
%TO.C,D5*%
X69157500Y-101567500D03*
X70982500Y-101567500D03*
%TD*%
D22*
%TO.C,U3*%
X97562500Y-103337500D03*
X97562500Y-102387500D03*
X97562500Y-101437500D03*
X95287500Y-101437500D03*
X95287500Y-103337500D03*
%TD*%
D14*
%TO.C,C34*%
X74780000Y-106060000D03*
X74780000Y-107885000D03*
%TD*%
D29*
%TO.C,D2*%
X62600000Y-93997500D03*
X62600000Y-92247500D03*
%TD*%
D19*
%TO.C,C16*%
X85237500Y-96800000D03*
X86962500Y-96800000D03*
%TD*%
D18*
%TO.C,U5*%
X65830000Y-112405000D03*
X67100000Y-112405000D03*
X68370000Y-112405000D03*
X69640000Y-112405000D03*
X69640000Y-107455000D03*
X68370000Y-107455000D03*
X67100000Y-107455000D03*
X65830000Y-107455000D03*
%TD*%
D12*
%TO.C,C24*%
X66670000Y-105030000D03*
X66670000Y-103305000D03*
%TD*%
D10*
%TO.C,C6*%
X91425000Y-98325000D03*
X91425000Y-96500000D03*
%TD*%
M02*
