%TF.GenerationSoftware,KiCad,Pcbnew,7.0.7*%
%TF.CreationDate,2023-10-05T10:10:36+02:00*%
%TF.ProjectId,Apollo - DSP,41706f6c-6c6f-4202-9d20-4453502e6b69,rev?*%
%TF.SameCoordinates,Original*%
%TF.FileFunction,Copper,L2,Inr*%
%TF.FilePolarity,Positive*%
%FSLAX46Y46*%
G04 Gerber Fmt 4.6, Leading zero omitted, Abs format (unit mm)*
G04 Created by KiCad (PCBNEW 7.0.7) date 2023-10-05 10:10:36*
%MOMM*%
%LPD*%
G01*
G04 APERTURE LIST*
%TA.AperFunction,ComponentPad*%
%ADD10O,2.000000X0.900000*%
%TD*%
%TA.AperFunction,ComponentPad*%
%ADD11O,1.700000X0.900000*%
%TD*%
%TA.AperFunction,ComponentPad*%
%ADD12R,1.700000X1.700000*%
%TD*%
%TA.AperFunction,ComponentPad*%
%ADD13O,1.700000X1.700000*%
%TD*%
%TA.AperFunction,ViaPad*%
%ADD14C,0.800000*%
%TD*%
%TA.AperFunction,ViaPad*%
%ADD15C,0.600000*%
%TD*%
G04 APERTURE END LIST*
D10*
%TO.N,unconnected-(J1-SHIELD-PadS1)*%
%TO.C,J1*%
X158395000Y-82020000D03*
D11*
X162565000Y-82020000D03*
D10*
X158395000Y-73380000D03*
D11*
X162565000Y-73380000D03*
%TD*%
D12*
%TO.N,3.3V*%
%TO.C,J3*%
X147500000Y-63700000D03*
D13*
%TO.N,Rx*%
X150040000Y-63700000D03*
%TO.N,Tx*%
X152580000Y-63700000D03*
%TO.N,GND*%
X155120000Y-63700000D03*
%TD*%
D12*
%TO.N,AIN0*%
%TO.C,J5*%
X106940000Y-107700000D03*
D13*
%TO.N,AIN1*%
X109480000Y-107700000D03*
%TO.N,GND*%
X112020000Y-107700000D03*
X114560000Y-107700000D03*
%TO.N,OSC*%
X117100000Y-107700000D03*
%TO.N,AOUT*%
X119640000Y-107700000D03*
%TD*%
D12*
%TO.N,3.3V*%
%TO.C,J6*%
X124500000Y-63700000D03*
D13*
%TO.N,SDA*%
X127040000Y-63700000D03*
%TO.N,SCL*%
X129580000Y-63700000D03*
%TO.N,GND*%
X132120000Y-63700000D03*
%TD*%
D12*
%TO.N,3.3V*%
%TO.C,J2*%
X136000000Y-63700000D03*
D13*
%TO.N,SWCLK*%
X138540000Y-63700000D03*
%TO.N,SWDIO*%
X141080000Y-63700000D03*
%TO.N,GND*%
X143620000Y-63700000D03*
%TD*%
D14*
%TO.N,GND*%
X147320000Y-96520000D03*
X145288000Y-96520000D03*
X152400000Y-97536000D03*
X146304000Y-97536000D03*
X151384000Y-96520000D03*
X148336000Y-97536000D03*
X149352000Y-96520000D03*
X153416000Y-96520000D03*
X150368000Y-97536000D03*
X147320000Y-94488000D03*
X145288000Y-94488000D03*
X152400000Y-95504000D03*
X146304000Y-95504000D03*
X151384000Y-94488000D03*
X148336000Y-95504000D03*
X149352000Y-94488000D03*
X153416000Y-94488000D03*
X150368000Y-95504000D03*
X152400000Y-93472000D03*
X150368000Y-93472000D03*
X148336000Y-93472000D03*
X146304000Y-93472000D03*
X153416000Y-92456000D03*
X151384000Y-92456000D03*
X149352000Y-92456000D03*
X147320000Y-92456000D03*
X145288000Y-92456000D03*
X144526000Y-71120000D03*
X141478000Y-74168000D03*
X143510000Y-72136000D03*
X142494000Y-73152000D03*
X141478000Y-72136000D03*
X142494000Y-71120000D03*
X140462000Y-75184000D03*
X140462000Y-73152000D03*
X140462000Y-71120000D03*
X134850000Y-88750000D03*
X101250000Y-94600000D03*
D15*
X118057107Y-74907107D03*
D14*
X110050000Y-63100000D03*
X101250000Y-100600000D03*
X127950000Y-108200000D03*
X154250000Y-71800000D03*
X116050000Y-63100000D03*
X106050000Y-63100000D03*
D15*
X111725000Y-88900000D03*
X114125000Y-75250000D03*
D14*
X168250000Y-109700000D03*
X101250000Y-72600000D03*
X163350000Y-68600000D03*
X99850000Y-65200000D03*
X101250000Y-80600000D03*
D15*
X119392893Y-75267893D03*
D14*
X157925000Y-93500000D03*
X130450000Y-82150000D03*
X156250000Y-71800000D03*
X127250000Y-75750000D03*
X163350000Y-84600000D03*
D15*
X113088445Y-87929055D03*
D14*
X156900000Y-92475000D03*
X155925000Y-87500001D03*
X125900000Y-108200000D03*
X157950000Y-108200000D03*
X136023786Y-98676214D03*
X103600000Y-90750000D03*
X96350000Y-61700000D03*
X157925000Y-87500000D03*
X131050000Y-102850000D03*
X101250000Y-82600000D03*
D15*
X113125497Y-85500000D03*
D14*
X99850000Y-113100000D03*
X141150000Y-102850000D03*
X123975000Y-75250000D03*
X96350000Y-109700000D03*
X99850000Y-106200000D03*
X123900000Y-108200000D03*
X161250000Y-109700000D03*
X125750000Y-80050000D03*
X108250000Y-101300000D03*
X101250000Y-102600000D03*
X155950000Y-108200000D03*
X126950000Y-93500000D03*
X157925001Y-85500000D03*
X159297536Y-74897536D03*
X130850000Y-94950000D03*
X163350000Y-86600000D03*
X125250000Y-99962500D03*
X163350000Y-94600000D03*
X161250000Y-61700000D03*
X155925000Y-89500000D03*
D15*
X113425000Y-76950000D03*
D14*
X101250000Y-74600000D03*
X101250000Y-88600000D03*
X149950000Y-108200000D03*
D15*
X115557107Y-73817893D03*
D14*
X118050000Y-63100000D03*
D15*
X120050000Y-79325000D03*
D14*
X127900000Y-108200000D03*
X141200000Y-94600000D03*
D15*
X118935500Y-87750000D03*
X113425000Y-77950000D03*
D14*
X163350000Y-102600000D03*
X101250000Y-78600000D03*
X101250000Y-92600000D03*
D15*
X143500000Y-78200000D03*
D14*
X163350000Y-90600000D03*
X99850000Y-58200000D03*
X149275000Y-72775000D03*
X101250000Y-86600000D03*
X155925000Y-93500000D03*
X123150000Y-80750000D03*
X168250000Y-61700000D03*
X114928036Y-77286913D03*
X154250000Y-73800000D03*
D15*
X117642893Y-80732107D03*
D14*
X123650000Y-99962500D03*
X101250000Y-70600000D03*
X120050000Y-63100000D03*
X155925000Y-91500000D03*
X146200000Y-87750000D03*
X112050000Y-63100000D03*
X101250000Y-76600000D03*
X148250000Y-73800000D03*
X163350000Y-100600000D03*
X163350000Y-98600000D03*
X134550000Y-75050000D03*
X146200000Y-82200000D03*
X131950000Y-108200000D03*
X143950000Y-108200000D03*
X133950000Y-108200000D03*
X139950000Y-79700000D03*
D15*
X116642893Y-73492893D03*
D14*
X163350000Y-96600000D03*
X153275000Y-72775000D03*
X156887500Y-90537500D03*
X164750000Y-113200000D03*
D15*
X116650000Y-81073500D03*
D14*
X108050000Y-63100000D03*
D15*
X114125000Y-79675000D03*
D14*
X101250000Y-90600000D03*
D15*
X120100000Y-75975000D03*
D14*
X155212500Y-72762500D03*
X107864214Y-82485786D03*
D15*
X113425000Y-75950000D03*
D14*
X103600000Y-88750000D03*
X114050000Y-63100000D03*
X107250000Y-87250000D03*
X135950000Y-108200000D03*
X103350000Y-61700000D03*
X105014214Y-85335786D03*
D15*
X113417893Y-78967893D03*
D14*
X101250000Y-98600000D03*
D15*
X114832107Y-74542893D03*
D14*
X101250000Y-96600000D03*
X153950000Y-108200000D03*
X144500000Y-87750000D03*
X122050000Y-63100000D03*
D15*
X118350000Y-80025000D03*
D14*
X103900000Y-96205000D03*
X164750000Y-106200000D03*
X116400000Y-71650000D03*
X106439214Y-83910786D03*
X159300000Y-80300000D03*
X103600000Y-88750001D03*
D15*
X113122239Y-84010181D03*
D14*
X127250000Y-82150000D03*
X141950000Y-108200000D03*
X148250000Y-71800000D03*
D15*
X114132107Y-75242893D03*
D14*
X155950000Y-82200000D03*
X145950000Y-108200000D03*
X163350000Y-70600000D03*
X111325000Y-81050000D03*
D15*
X117350000Y-74200000D03*
D14*
X109250001Y-87250000D03*
X109275000Y-85250000D03*
X147950000Y-108200000D03*
D15*
X123638656Y-76822408D03*
D14*
X103350000Y-109700000D03*
X164750000Y-65200000D03*
X114000000Y-92050000D03*
X127250000Y-78950000D03*
D15*
X119050000Y-79325000D03*
D14*
X163350000Y-88600000D03*
X156250000Y-73800000D03*
X131812500Y-87012500D03*
X129950000Y-108200000D03*
X155950000Y-83950000D03*
X150250000Y-71800000D03*
X139950000Y-108200000D03*
X155925000Y-85500000D03*
X150250000Y-73800000D03*
X157925000Y-89500001D03*
X163350000Y-92600000D03*
X157925000Y-91500000D03*
X113340254Y-81050000D03*
X109300000Y-81050000D03*
D15*
X114825000Y-80375000D03*
D14*
X130450000Y-75750000D03*
X158275000Y-63150000D03*
X151384000Y-79502000D03*
X103600000Y-86750000D03*
X151950000Y-108200000D03*
X101250000Y-84600000D03*
X152250000Y-71800000D03*
X123050000Y-86450000D03*
X103600000Y-88749999D03*
X101250000Y-68600000D03*
X156887500Y-86537500D03*
X152250000Y-73800000D03*
D15*
X115525000Y-81075000D03*
D14*
X133900000Y-99026500D03*
D15*
X147700000Y-77950000D03*
D14*
X121300000Y-96400000D03*
X130450000Y-78950000D03*
X151212500Y-72762500D03*
X126850000Y-100062500D03*
X137950000Y-108200000D03*
X156900000Y-88475000D03*
X164750000Y-58300000D03*
D15*
%TO.N,+5V*%
X148350000Y-80450000D03*
X147700000Y-76050000D03*
D14*
%TO.N,3.3V*%
X121800000Y-91400000D03*
X140025000Y-84587500D03*
X122050000Y-73625000D03*
X121050000Y-84200000D03*
X138425000Y-84587500D03*
D15*
X130350000Y-71025000D03*
D14*
X136050000Y-102300000D03*
X133450000Y-73650000D03*
X131950000Y-84750000D03*
D15*
X122525000Y-69825000D03*
D14*
X124550000Y-86450000D03*
X135225000Y-84510000D03*
X139500000Y-88600000D03*
X136625000Y-84510000D03*
X135225000Y-83110000D03*
X111750000Y-72825000D03*
X138200000Y-72950000D03*
D15*
%TO.N,VAA*%
X103500000Y-98150000D03*
X111400000Y-97100000D03*
X119100000Y-95350000D03*
%TO.N,NRST*%
X123200000Y-78200000D03*
X107450000Y-74200000D03*
D14*
%TO.N,MOSI*%
X127900000Y-92750000D03*
X137175000Y-98800000D03*
%TO.N,SCK*%
X125800000Y-94150000D03*
X134900000Y-98300000D03*
%TO.N,Rx*%
X142400000Y-78184347D03*
%TO.N,Tx*%
X144550000Y-78218012D03*
%TO.N,/POW*%
X156025000Y-75300000D03*
X155300000Y-80322500D03*
%TO.N,BOOT1*%
X129000000Y-86375000D03*
X135125000Y-86700000D03*
D15*
%TO.N,SDA*%
X113900000Y-83825000D03*
D14*
X125300000Y-78600000D03*
D15*
%TO.N,SCL*%
X113925000Y-85500000D03*
D14*
X125625000Y-81600000D03*
%TO.N,Net-(C40-Pad1)*%
X111950000Y-90050000D03*
D15*
X116145421Y-100045482D03*
%TO.N,Net-(U4-PC3)*%
X119634000Y-80518000D03*
X111450000Y-78675000D03*
%TO.N,Net-(R16-Pad1)*%
X114850000Y-95800000D03*
X116450000Y-98200000D03*
D14*
%TO.N,+5VA*%
X151638000Y-87884000D03*
X108204000Y-99314000D03*
X112014000Y-86614000D03*
X107950000Y-92202000D03*
X112776000Y-100076000D03*
%TD*%
%TA.AperFunction,Conductor*%
%TO.N,GND*%
G36*
X114013277Y-107466002D02*
G01*
X114059770Y-107519658D01*
X114069874Y-107589932D01*
X114066052Y-107607496D01*
X114060000Y-107628111D01*
X114060000Y-107771889D01*
X114063772Y-107784735D01*
X114066053Y-107792504D01*
X114066052Y-107863500D01*
X114027667Y-107923226D01*
X113963086Y-107952718D01*
X113945156Y-107954000D01*
X112634844Y-107954000D01*
X112566723Y-107933998D01*
X112520230Y-107880342D01*
X112510126Y-107810068D01*
X112513947Y-107792504D01*
X112516228Y-107784735D01*
X112520000Y-107771889D01*
X112520000Y-107628111D01*
X112513946Y-107607496D01*
X112513948Y-107536500D01*
X112552333Y-107476774D01*
X112616914Y-107447282D01*
X112634844Y-107446000D01*
X113945156Y-107446000D01*
X114013277Y-107466002D01*
G37*
%TD.AperFunction*%
%TA.AperFunction,Conductor*%
G36*
X164768357Y-56703484D02*
G01*
X165004336Y-56713787D01*
X165203968Y-56728607D01*
X165207411Y-56728961D01*
X165441293Y-56759752D01*
X165639236Y-56792308D01*
X165642580Y-56792953D01*
X165872573Y-56843942D01*
X166067213Y-56894039D01*
X166070345Y-56894936D01*
X166294863Y-56965726D01*
X166484535Y-57032998D01*
X166487504Y-57034139D01*
X166675145Y-57111862D01*
X166704824Y-57124156D01*
X166755443Y-57147355D01*
X166888019Y-57208117D01*
X166890796Y-57209474D01*
X167022368Y-57277966D01*
X167099329Y-57318031D01*
X167274482Y-57418004D01*
X167277102Y-57419585D01*
X167369742Y-57478603D01*
X167475304Y-57545853D01*
X167641045Y-57661095D01*
X167643380Y-57662801D01*
X167729727Y-57729057D01*
X167829819Y-57805861D01*
X167984728Y-57935411D01*
X167986874Y-57937290D01*
X168076063Y-58019016D01*
X168160131Y-58096050D01*
X168303949Y-58239868D01*
X168343522Y-58283054D01*
X168462708Y-58413124D01*
X168464587Y-58415270D01*
X168594138Y-58570180D01*
X168663994Y-58661217D01*
X168737187Y-58756604D01*
X168738918Y-58758973D01*
X168854145Y-58924693D01*
X168980413Y-59122896D01*
X168981994Y-59125516D01*
X169081969Y-59300670D01*
X169190499Y-59509153D01*
X169191889Y-59511995D01*
X169275843Y-59695175D01*
X169365845Y-59912459D01*
X169367017Y-59915509D01*
X169434275Y-60105144D01*
X169459222Y-60184265D01*
X169496992Y-60304056D01*
X169505046Y-60329598D01*
X169505974Y-60332840D01*
X169556058Y-60527428D01*
X169607038Y-60757386D01*
X169607697Y-60760798D01*
X169640249Y-60958722D01*
X169671031Y-61192532D01*
X169671397Y-61196092D01*
X169686213Y-61395685D01*
X169696513Y-61631615D01*
X169696566Y-61635297D01*
X169693608Y-61834924D01*
X169683290Y-62071263D01*
X169683011Y-62075039D01*
X169662399Y-62273035D01*
X169631455Y-62508071D01*
X169630829Y-62511910D01*
X169592846Y-62706632D01*
X169541414Y-62938625D01*
X169540427Y-62942495D01*
X169485513Y-63132351D01*
X169413855Y-63359619D01*
X169412497Y-63363485D01*
X169341263Y-63546887D01*
X169249759Y-63767796D01*
X169248023Y-63771622D01*
X169161265Y-63947004D01*
X169050399Y-64159971D01*
X169048282Y-64163719D01*
X168946960Y-64329615D01*
X168817327Y-64533098D01*
X168814829Y-64536731D01*
X168700075Y-64691761D01*
X168552331Y-64884303D01*
X168549457Y-64887782D01*
X168422639Y-65030604D01*
X168257449Y-65210875D01*
X168254208Y-65214162D01*
X168116945Y-65343521D01*
X167934998Y-65510245D01*
X167931401Y-65513301D01*
X167785502Y-65628144D01*
X167587460Y-65780107D01*
X167583524Y-65782895D01*
X167431278Y-65882194D01*
X167217501Y-66018384D01*
X167213245Y-66020867D01*
X167057563Y-66103711D01*
X167000512Y-66133410D01*
X166828020Y-66223204D01*
X166823468Y-66225347D01*
X166668147Y-66291036D01*
X166422012Y-66392987D01*
X166417193Y-66394757D01*
X166268346Y-66442634D01*
X166002633Y-66526413D01*
X165997575Y-66527779D01*
X165866652Y-66557370D01*
X165573127Y-66622443D01*
X165567866Y-66623377D01*
X165485969Y-66634365D01*
X165138462Y-66680116D01*
X165132984Y-66680595D01*
X164700926Y-66699459D01*
X164699540Y-66699458D01*
X164699500Y-66699498D01*
X164699500Y-104650501D01*
X164699547Y-104650548D01*
X164702358Y-104650602D01*
X165106801Y-104668261D01*
X165132985Y-104669405D01*
X165138459Y-104669883D01*
X165486104Y-104715652D01*
X165567881Y-104726624D01*
X165573093Y-104727549D01*
X165866838Y-104792670D01*
X165997615Y-104822229D01*
X166002595Y-104823574D01*
X166268353Y-104907368D01*
X166417206Y-104955246D01*
X166421993Y-104957003D01*
X166668142Y-105058961D01*
X166823483Y-105124658D01*
X166827991Y-105126780D01*
X167057574Y-105246293D01*
X167208219Y-105326457D01*
X167213244Y-105329131D01*
X167217489Y-105331607D01*
X167369742Y-105428603D01*
X167431277Y-105467805D01*
X167583538Y-105567113D01*
X167587431Y-105569870D01*
X167729727Y-105679057D01*
X167785502Y-105721855D01*
X167931401Y-105836697D01*
X167934998Y-105839754D01*
X168116945Y-106006478D01*
X168254208Y-106135836D01*
X168257449Y-106139123D01*
X168422639Y-106319395D01*
X168549457Y-106462215D01*
X168552329Y-106465693D01*
X168700072Y-106658235D01*
X168814829Y-106813266D01*
X168817327Y-106816900D01*
X168946960Y-107020384D01*
X169048282Y-107186279D01*
X169050399Y-107190027D01*
X169161262Y-107402990D01*
X169248029Y-107578389D01*
X169249759Y-107582202D01*
X169341263Y-107803112D01*
X169412497Y-107986513D01*
X169413855Y-107990379D01*
X169485513Y-108217648D01*
X169540426Y-108407503D01*
X169541414Y-108411373D01*
X169569325Y-108537270D01*
X169585756Y-108611388D01*
X169592846Y-108643366D01*
X169622659Y-108796207D01*
X169630829Y-108838088D01*
X169631455Y-108841927D01*
X169662399Y-109076964D01*
X169683011Y-109274959D01*
X169683290Y-109278735D01*
X169693608Y-109515075D01*
X169696566Y-109714701D01*
X169696513Y-109718383D01*
X169686213Y-109954314D01*
X169671397Y-110153906D01*
X169671031Y-110157466D01*
X169640249Y-110391277D01*
X169607697Y-110589200D01*
X169607038Y-110592612D01*
X169556058Y-110822571D01*
X169505974Y-111017158D01*
X169505046Y-111020400D01*
X169434275Y-111244855D01*
X169367017Y-111434489D01*
X169365845Y-111437539D01*
X169275843Y-111654824D01*
X169191889Y-111838003D01*
X169190499Y-111840845D01*
X169081968Y-112049329D01*
X168981994Y-112224482D01*
X168980413Y-112227102D01*
X168854145Y-112425306D01*
X168738917Y-112591025D01*
X168737173Y-112593412D01*
X168594138Y-112779819D01*
X168464587Y-112934728D01*
X168462708Y-112936874D01*
X168303950Y-113110131D01*
X168160131Y-113253950D01*
X167986874Y-113412708D01*
X167984728Y-113414587D01*
X167829819Y-113544138D01*
X167643412Y-113687173D01*
X167641025Y-113688917D01*
X167475306Y-113804145D01*
X167277102Y-113930413D01*
X167274482Y-113931994D01*
X167099329Y-114031968D01*
X166890845Y-114140499D01*
X166888003Y-114141889D01*
X166704824Y-114225843D01*
X166487539Y-114315845D01*
X166484489Y-114317017D01*
X166294855Y-114384275D01*
X166070400Y-114455046D01*
X166067158Y-114455974D01*
X165872571Y-114506058D01*
X165642612Y-114557038D01*
X165639200Y-114557697D01*
X165441277Y-114590249D01*
X165207466Y-114621031D01*
X165203906Y-114621397D01*
X165004314Y-114636213D01*
X164768383Y-114646513D01*
X164764701Y-114646566D01*
X164565075Y-114643608D01*
X164355901Y-114634476D01*
X164328731Y-114633289D01*
X164324959Y-114633011D01*
X164126964Y-114612399D01*
X163891927Y-114581455D01*
X163888088Y-114580829D01*
X163693367Y-114542846D01*
X163461373Y-114491414D01*
X163457503Y-114490426D01*
X163267648Y-114435513D01*
X163040379Y-114363855D01*
X163036513Y-114362497D01*
X162853112Y-114291263D01*
X162632202Y-114199759D01*
X162628389Y-114198029D01*
X162452990Y-114111262D01*
X162240027Y-114000399D01*
X162236279Y-113998282D01*
X162070384Y-113896960D01*
X161866900Y-113767327D01*
X161863273Y-113764834D01*
X161708235Y-113650072D01*
X161515693Y-113502329D01*
X161512215Y-113499457D01*
X161369395Y-113372639D01*
X161189123Y-113207449D01*
X161185836Y-113204208D01*
X161056478Y-113066945D01*
X160889754Y-112884998D01*
X160886697Y-112881401D01*
X160771855Y-112735502D01*
X160742320Y-112697012D01*
X160619870Y-112537431D01*
X160617113Y-112533538D01*
X160517805Y-112381277D01*
X160491079Y-112339326D01*
X160381607Y-112167489D01*
X160379131Y-112163244D01*
X160376457Y-112158219D01*
X160296279Y-112007546D01*
X160176780Y-111777991D01*
X160174658Y-111773483D01*
X160108961Y-111618142D01*
X160007003Y-111371993D01*
X160005246Y-111367206D01*
X159957366Y-111218346D01*
X159873574Y-110952595D01*
X159872229Y-110947615D01*
X159842670Y-110816838D01*
X159777549Y-110523093D01*
X159776624Y-110517881D01*
X159765633Y-110435963D01*
X159758018Y-110378124D01*
X159719883Y-110088459D01*
X159719405Y-110082985D01*
X159717742Y-110044916D01*
X159700603Y-109652389D01*
X159700560Y-109649999D01*
X162694390Y-109649999D01*
X162702387Y-109761819D01*
X162702548Y-109766315D01*
X162702548Y-109792865D01*
X162703311Y-109798167D01*
X162706326Y-109819139D01*
X162706805Y-109823601D01*
X162714803Y-109935427D01*
X162738629Y-110044958D01*
X162739428Y-110049385D01*
X162743206Y-110075663D01*
X162750690Y-110101150D01*
X162751802Y-110105509D01*
X162775628Y-110215037D01*
X162775630Y-110215044D01*
X162814807Y-110320084D01*
X162816227Y-110324351D01*
X162823705Y-110349816D01*
X162834735Y-110373969D01*
X162836456Y-110378126D01*
X162875633Y-110483162D01*
X162929345Y-110581529D01*
X162931359Y-110585552D01*
X162942392Y-110609712D01*
X162956755Y-110632061D01*
X162959050Y-110635930D01*
X163012770Y-110734309D01*
X163012772Y-110734312D01*
X163012774Y-110734315D01*
X163079962Y-110824068D01*
X163082522Y-110827756D01*
X163096870Y-110850084D01*
X163114256Y-110870147D01*
X163117073Y-110873642D01*
X163184261Y-110963395D01*
X163263523Y-111042657D01*
X163266582Y-111045942D01*
X163283978Y-111066019D01*
X163304056Y-111083416D01*
X163307334Y-111086468D01*
X163386605Y-111165739D01*
X163476344Y-111232917D01*
X163476346Y-111232918D01*
X163479841Y-111235734D01*
X163499914Y-111253127D01*
X163499916Y-111253128D01*
X163522247Y-111267480D01*
X163525940Y-111270044D01*
X163615685Y-111337226D01*
X163615687Y-111337227D01*
X163714064Y-111390946D01*
X163717927Y-111393237D01*
X163724511Y-111397468D01*
X163740288Y-111407607D01*
X163764440Y-111418636D01*
X163768453Y-111420644D01*
X163866839Y-111474367D01*
X163971903Y-111513554D01*
X163976006Y-111515253D01*
X164000179Y-111526293D01*
X164008452Y-111528722D01*
X164025648Y-111533772D01*
X164029916Y-111535192D01*
X164060394Y-111546559D01*
X164134954Y-111574369D01*
X164244517Y-111598202D01*
X164248848Y-111599309D01*
X164254284Y-111600905D01*
X164274326Y-111606790D01*
X164300645Y-111610574D01*
X164304988Y-111611357D01*
X164414572Y-111635196D01*
X164526423Y-111643195D01*
X164530820Y-111643668D01*
X164550468Y-111646492D01*
X164557135Y-111647452D01*
X164583683Y-111647452D01*
X164588179Y-111647613D01*
X164626050Y-111650321D01*
X164700000Y-111655610D01*
X164773949Y-111650321D01*
X164811821Y-111647613D01*
X164816317Y-111647452D01*
X164842865Y-111647452D01*
X164849531Y-111646492D01*
X164869179Y-111643667D01*
X164873548Y-111643197D01*
X164985428Y-111635196D01*
X165094985Y-111611363D01*
X165099376Y-111610570D01*
X165125674Y-111606790D01*
X165151164Y-111599305D01*
X165155501Y-111598198D01*
X165265046Y-111574369D01*
X165370110Y-111535181D01*
X165374324Y-111533779D01*
X165399821Y-111526293D01*
X165423991Y-111515254D01*
X165428102Y-111513551D01*
X165533161Y-111474367D01*
X165631546Y-111420644D01*
X165635550Y-111418640D01*
X165659705Y-111407609D01*
X165659711Y-111407604D01*
X165659722Y-111407600D01*
X165682075Y-111393234D01*
X165685907Y-111390960D01*
X165784315Y-111337226D01*
X165874094Y-111270017D01*
X165877716Y-111267503D01*
X165900086Y-111253127D01*
X165920188Y-111235708D01*
X165923604Y-111232955D01*
X166013395Y-111165739D01*
X166092686Y-111086447D01*
X166095938Y-111083420D01*
X166116020Y-111066020D01*
X166133420Y-111045938D01*
X166136447Y-111042686D01*
X166215739Y-110963395D01*
X166282955Y-110873603D01*
X166285701Y-110870195D01*
X166303127Y-110850086D01*
X166317503Y-110827716D01*
X166320017Y-110824094D01*
X166387226Y-110734315D01*
X166440968Y-110635892D01*
X166443234Y-110632075D01*
X166457600Y-110609722D01*
X166457605Y-110609710D01*
X166457610Y-110609703D01*
X166468640Y-110585550D01*
X166470644Y-110581546D01*
X166524367Y-110483161D01*
X166563551Y-110378102D01*
X166565254Y-110373991D01*
X166576293Y-110349821D01*
X166583779Y-110324324D01*
X166585181Y-110320110D01*
X166624369Y-110215046D01*
X166648198Y-110105501D01*
X166649305Y-110101164D01*
X166656790Y-110075674D01*
X166660570Y-110049376D01*
X166661363Y-110044985D01*
X166685196Y-109935428D01*
X166693195Y-109823576D01*
X166693668Y-109819179D01*
X166697015Y-109795897D01*
X166697503Y-109792508D01*
X166697463Y-109792245D01*
X166697925Y-109766315D01*
X166698106Y-109756146D01*
X166698254Y-109752841D01*
X166705610Y-109650000D01*
X166698255Y-109547163D01*
X166698106Y-109543850D01*
X166697462Y-109507752D01*
X166697513Y-109507566D01*
X166697452Y-109507139D01*
X166693668Y-109480820D01*
X166693195Y-109476423D01*
X166685196Y-109364572D01*
X166661357Y-109254988D01*
X166660574Y-109250645D01*
X166656790Y-109224326D01*
X166649308Y-109198846D01*
X166648202Y-109194517D01*
X166624369Y-109084954D01*
X166585192Y-108979916D01*
X166583772Y-108975648D01*
X166576293Y-108950180D01*
X166576290Y-108950173D01*
X166565253Y-108926006D01*
X166563554Y-108921903D01*
X166524367Y-108816839D01*
X166470644Y-108718453D01*
X166468636Y-108714440D01*
X166457604Y-108690284D01*
X166450137Y-108678665D01*
X166443240Y-108667931D01*
X166440947Y-108664066D01*
X166387227Y-108565687D01*
X166365954Y-108537270D01*
X166320045Y-108475942D01*
X166317480Y-108472247D01*
X166303129Y-108449917D01*
X166303128Y-108449916D01*
X166303127Y-108449914D01*
X166285731Y-108429838D01*
X166282934Y-108426367D01*
X166215739Y-108336605D01*
X166136468Y-108257334D01*
X166133416Y-108254056D01*
X166116019Y-108233978D01*
X166095942Y-108216582D01*
X166092662Y-108213528D01*
X166013395Y-108134261D01*
X165923652Y-108067080D01*
X165920150Y-108064258D01*
X165900084Y-108046871D01*
X165889620Y-108040147D01*
X165877755Y-108032521D01*
X165874059Y-108029955D01*
X165816089Y-107986560D01*
X165784315Y-107962774D01*
X165784310Y-107962771D01*
X165784309Y-107962770D01*
X165685930Y-107909050D01*
X165682061Y-107906755D01*
X165659712Y-107892392D01*
X165635552Y-107881359D01*
X165631529Y-107879345D01*
X165533162Y-107825633D01*
X165428126Y-107786456D01*
X165423969Y-107784735D01*
X165399825Y-107773709D01*
X165399821Y-107773707D01*
X165399819Y-107773706D01*
X165399816Y-107773705D01*
X165374351Y-107766227D01*
X165370084Y-107764807D01*
X165265044Y-107725630D01*
X165265040Y-107725629D01*
X165155507Y-107701802D01*
X165151143Y-107700688D01*
X165145724Y-107699096D01*
X165125662Y-107693206D01*
X165099385Y-107689428D01*
X165094958Y-107688629D01*
X164985427Y-107664803D01*
X164873601Y-107656805D01*
X164869139Y-107656326D01*
X164858197Y-107654753D01*
X164842865Y-107652548D01*
X164842861Y-107652548D01*
X164816317Y-107652548D01*
X164811821Y-107652387D01*
X164700000Y-107644390D01*
X164588179Y-107652387D01*
X164583683Y-107652548D01*
X164557137Y-107652548D01*
X164530858Y-107656326D01*
X164526386Y-107656807D01*
X164414573Y-107664803D01*
X164305042Y-107688629D01*
X164300614Y-107689428D01*
X164274332Y-107693205D01*
X164248846Y-107700690D01*
X164244487Y-107701802D01*
X164134961Y-107725628D01*
X164029917Y-107764805D01*
X164025657Y-107766223D01*
X164006374Y-107771888D01*
X164000586Y-107773587D01*
X164000170Y-107773709D01*
X163976025Y-107784736D01*
X163971871Y-107786457D01*
X163866849Y-107825629D01*
X163866838Y-107825633D01*
X163768464Y-107879348D01*
X163764442Y-107881361D01*
X163740286Y-107892392D01*
X163717946Y-107906749D01*
X163714079Y-107909044D01*
X163615689Y-107962771D01*
X163615685Y-107962774D01*
X163525938Y-108029956D01*
X163522245Y-108032520D01*
X163506335Y-108042745D01*
X163499913Y-108046872D01*
X163497218Y-108049208D01*
X163484653Y-108060096D01*
X163479833Y-108064271D01*
X163476342Y-108067083D01*
X163386602Y-108134263D01*
X163307336Y-108213528D01*
X163304044Y-108216593D01*
X163283979Y-108233979D01*
X163266593Y-108254044D01*
X163263528Y-108257336D01*
X163184263Y-108336602D01*
X163117079Y-108426348D01*
X163114257Y-108429850D01*
X163096880Y-108449903D01*
X163082518Y-108472248D01*
X163079955Y-108475938D01*
X163012774Y-108565685D01*
X163012771Y-108565689D01*
X162959044Y-108664079D01*
X162956749Y-108667946D01*
X162942392Y-108690286D01*
X162931361Y-108714442D01*
X162929348Y-108718464D01*
X162875633Y-108816838D01*
X162875629Y-108816849D01*
X162836457Y-108921871D01*
X162834736Y-108926025D01*
X162823708Y-108950173D01*
X162816224Y-108975653D01*
X162814806Y-108979916D01*
X162775628Y-109084961D01*
X162751802Y-109194487D01*
X162750690Y-109198846D01*
X162743205Y-109224332D01*
X162739428Y-109250614D01*
X162738629Y-109255042D01*
X162714803Y-109364573D01*
X162706807Y-109476386D01*
X162706326Y-109480858D01*
X162702548Y-109507137D01*
X162702548Y-109533683D01*
X162702387Y-109538179D01*
X162694390Y-109649999D01*
X159700560Y-109649999D01*
X159700552Y-109649551D01*
X159700501Y-109649500D01*
X159700500Y-109649500D01*
X159700099Y-109649500D01*
X104850500Y-109649500D01*
X104849500Y-109649500D01*
X104849499Y-109649500D01*
X104849454Y-109649544D01*
X104849397Y-109652337D01*
X104830595Y-110082984D01*
X104830116Y-110088462D01*
X104784365Y-110435969D01*
X104773377Y-110517866D01*
X104772443Y-110523127D01*
X104707370Y-110816652D01*
X104677779Y-110947575D01*
X104676413Y-110952633D01*
X104592634Y-111218346D01*
X104544757Y-111367193D01*
X104542987Y-111372012D01*
X104441036Y-111618147D01*
X104375347Y-111773468D01*
X104373204Y-111778020D01*
X104341979Y-111838003D01*
X104253776Y-112007441D01*
X104253721Y-112007546D01*
X104170867Y-112163245D01*
X104168384Y-112167501D01*
X104032194Y-112381278D01*
X103932895Y-112533524D01*
X103930107Y-112537460D01*
X103778144Y-112735502D01*
X103663301Y-112881401D01*
X103660245Y-112884998D01*
X103493521Y-113066945D01*
X103364162Y-113204208D01*
X103360875Y-113207449D01*
X103180604Y-113372639D01*
X103037782Y-113499457D01*
X103034303Y-113502331D01*
X102841761Y-113650075D01*
X102686731Y-113764829D01*
X102683098Y-113767327D01*
X102479615Y-113896960D01*
X102313719Y-113998282D01*
X102309971Y-114000399D01*
X102097004Y-114111265D01*
X101921622Y-114198023D01*
X101917796Y-114199759D01*
X101696887Y-114291263D01*
X101513485Y-114362497D01*
X101509619Y-114363855D01*
X101282351Y-114435513D01*
X101092495Y-114490427D01*
X101088625Y-114491414D01*
X100856632Y-114542846D01*
X100661910Y-114580829D01*
X100658071Y-114581455D01*
X100423035Y-114612399D01*
X100225039Y-114633011D01*
X100221264Y-114633289D01*
X100213547Y-114633626D01*
X99984924Y-114643608D01*
X99785297Y-114646566D01*
X99781615Y-114646513D01*
X99545685Y-114636213D01*
X99346092Y-114621397D01*
X99342532Y-114621031D01*
X99108722Y-114590249D01*
X98910798Y-114557697D01*
X98907386Y-114557038D01*
X98677428Y-114506058D01*
X98482840Y-114455974D01*
X98479604Y-114455047D01*
X98379881Y-114423605D01*
X98255144Y-114384275D01*
X98065509Y-114317017D01*
X98062459Y-114315845D01*
X97845175Y-114225843D01*
X97661995Y-114141889D01*
X97659153Y-114140499D01*
X97450670Y-114031969D01*
X97275516Y-113931994D01*
X97272896Y-113930413D01*
X97074693Y-113804145D01*
X96908973Y-113688918D01*
X96906604Y-113687187D01*
X96811217Y-113613994D01*
X96720180Y-113544138D01*
X96565270Y-113414587D01*
X96563124Y-113412708D01*
X96460902Y-113319040D01*
X96389868Y-113253949D01*
X96246050Y-113110131D01*
X96169016Y-113026063D01*
X96087290Y-112936874D01*
X96085411Y-112934728D01*
X95955861Y-112779819D01*
X95892320Y-112697012D01*
X95812801Y-112593380D01*
X95811095Y-112591045D01*
X95695849Y-112425298D01*
X95667805Y-112381278D01*
X95569585Y-112227102D01*
X95568004Y-112224482D01*
X95468031Y-112049329D01*
X95422139Y-111961174D01*
X95359474Y-111840796D01*
X95358117Y-111838019D01*
X95274156Y-111654824D01*
X95255825Y-111610570D01*
X95184139Y-111437504D01*
X95182998Y-111434535D01*
X95115724Y-111244855D01*
X95107330Y-111218232D01*
X95044936Y-111020345D01*
X95044039Y-111017213D01*
X94993941Y-110822571D01*
X94942953Y-110592580D01*
X94942308Y-110589236D01*
X94909750Y-110391277D01*
X94878961Y-110157411D01*
X94878607Y-110153968D01*
X94863787Y-109954336D01*
X94853484Y-109718357D01*
X94853432Y-109714730D01*
X94854391Y-109649999D01*
X97844390Y-109649999D01*
X97852387Y-109761819D01*
X97852548Y-109766315D01*
X97852548Y-109792865D01*
X97853311Y-109798167D01*
X97856326Y-109819139D01*
X97856805Y-109823601D01*
X97864803Y-109935427D01*
X97888629Y-110044958D01*
X97889428Y-110049385D01*
X97893206Y-110075663D01*
X97900690Y-110101150D01*
X97901802Y-110105509D01*
X97925628Y-110215037D01*
X97925630Y-110215044D01*
X97964807Y-110320084D01*
X97966227Y-110324351D01*
X97973705Y-110349816D01*
X97984735Y-110373969D01*
X97986456Y-110378126D01*
X98025633Y-110483162D01*
X98079345Y-110581529D01*
X98081359Y-110585552D01*
X98092392Y-110609712D01*
X98106755Y-110632061D01*
X98109050Y-110635930D01*
X98162770Y-110734309D01*
X98162772Y-110734312D01*
X98162774Y-110734315D01*
X98229962Y-110824068D01*
X98232522Y-110827756D01*
X98246870Y-110850084D01*
X98264256Y-110870147D01*
X98267073Y-110873642D01*
X98334261Y-110963395D01*
X98413523Y-111042657D01*
X98416582Y-111045942D01*
X98433978Y-111066019D01*
X98454056Y-111083416D01*
X98457334Y-111086468D01*
X98536605Y-111165739D01*
X98626344Y-111232917D01*
X98626346Y-111232918D01*
X98629841Y-111235734D01*
X98649914Y-111253127D01*
X98649916Y-111253128D01*
X98672247Y-111267480D01*
X98675940Y-111270044D01*
X98765685Y-111337226D01*
X98765687Y-111337227D01*
X98864064Y-111390946D01*
X98867927Y-111393237D01*
X98874511Y-111397468D01*
X98890288Y-111407607D01*
X98914440Y-111418636D01*
X98918453Y-111420644D01*
X99016839Y-111474367D01*
X99121903Y-111513554D01*
X99126006Y-111515253D01*
X99150179Y-111526293D01*
X99158452Y-111528722D01*
X99175648Y-111533772D01*
X99179916Y-111535192D01*
X99210394Y-111546559D01*
X99284954Y-111574369D01*
X99394517Y-111598202D01*
X99398848Y-111599309D01*
X99404284Y-111600905D01*
X99424326Y-111606790D01*
X99450645Y-111610574D01*
X99454988Y-111611357D01*
X99564572Y-111635196D01*
X99676423Y-111643195D01*
X99680820Y-111643668D01*
X99700468Y-111646492D01*
X99707135Y-111647452D01*
X99733683Y-111647452D01*
X99738179Y-111647613D01*
X99776050Y-111650321D01*
X99850000Y-111655610D01*
X99923949Y-111650321D01*
X99961821Y-111647613D01*
X99966317Y-111647452D01*
X99992865Y-111647452D01*
X99999531Y-111646492D01*
X100019179Y-111643667D01*
X100023548Y-111643197D01*
X100135428Y-111635196D01*
X100244985Y-111611363D01*
X100249376Y-111610570D01*
X100275674Y-111606790D01*
X100301164Y-111599305D01*
X100305501Y-111598198D01*
X100415046Y-111574369D01*
X100520110Y-111535181D01*
X100524324Y-111533779D01*
X100549821Y-111526293D01*
X100573991Y-111515254D01*
X100578102Y-111513551D01*
X100683161Y-111474367D01*
X100781546Y-111420644D01*
X100785550Y-111418640D01*
X100809705Y-111407609D01*
X100809711Y-111407604D01*
X100809722Y-111407600D01*
X100832075Y-111393234D01*
X100835907Y-111390960D01*
X100934315Y-111337226D01*
X101024094Y-111270017D01*
X101027716Y-111267503D01*
X101050086Y-111253127D01*
X101070188Y-111235708D01*
X101073604Y-111232955D01*
X101163395Y-111165739D01*
X101242686Y-111086447D01*
X101245938Y-111083420D01*
X101266020Y-111066020D01*
X101283420Y-111045938D01*
X101286447Y-111042686D01*
X101365739Y-110963395D01*
X101432955Y-110873603D01*
X101435701Y-110870195D01*
X101453127Y-110850086D01*
X101467503Y-110827716D01*
X101470017Y-110824094D01*
X101537226Y-110734315D01*
X101590968Y-110635892D01*
X101593234Y-110632075D01*
X101607600Y-110609722D01*
X101607605Y-110609710D01*
X101607610Y-110609703D01*
X101618640Y-110585550D01*
X101620644Y-110581546D01*
X101674367Y-110483161D01*
X101713551Y-110378102D01*
X101715254Y-110373991D01*
X101726293Y-110349821D01*
X101733779Y-110324324D01*
X101735181Y-110320110D01*
X101774369Y-110215046D01*
X101798198Y-110105501D01*
X101799305Y-110101164D01*
X101806790Y-110075674D01*
X101810570Y-110049376D01*
X101811363Y-110044985D01*
X101835196Y-109935428D01*
X101843195Y-109823576D01*
X101843668Y-109819179D01*
X101847015Y-109795897D01*
X101847503Y-109792508D01*
X101847463Y-109792245D01*
X101847925Y-109766315D01*
X101848106Y-109756146D01*
X101848254Y-109752841D01*
X101855610Y-109650000D01*
X101848255Y-109547163D01*
X101848106Y-109543850D01*
X101847462Y-109507752D01*
X101847513Y-109507566D01*
X101847452Y-109507139D01*
X101843668Y-109480820D01*
X101843195Y-109476423D01*
X101835196Y-109364572D01*
X101811357Y-109254988D01*
X101810574Y-109250645D01*
X101806790Y-109224326D01*
X101799308Y-109198846D01*
X101798202Y-109194517D01*
X101774369Y-109084954D01*
X101735192Y-108979916D01*
X101733772Y-108975648D01*
X101726293Y-108950180D01*
X101726290Y-108950173D01*
X101715253Y-108926006D01*
X101713554Y-108921903D01*
X101674367Y-108816839D01*
X101620644Y-108718453D01*
X101618636Y-108714440D01*
X101607604Y-108690284D01*
X101600137Y-108678665D01*
X101593240Y-108667931D01*
X101590947Y-108664066D01*
X101555226Y-108598649D01*
X105581500Y-108598649D01*
X105588009Y-108659196D01*
X105588011Y-108659204D01*
X105639110Y-108796202D01*
X105639112Y-108796207D01*
X105726738Y-108913261D01*
X105843792Y-109000887D01*
X105843794Y-109000888D01*
X105843796Y-109000889D01*
X105897600Y-109020957D01*
X105980795Y-109051988D01*
X105980803Y-109051990D01*
X106041350Y-109058499D01*
X106041355Y-109058499D01*
X106041362Y-109058500D01*
X106041368Y-109058500D01*
X107838632Y-109058500D01*
X107838638Y-109058500D01*
X107838645Y-109058499D01*
X107838649Y-109058499D01*
X107899196Y-109051990D01*
X107899199Y-109051989D01*
X107899201Y-109051989D01*
X108036204Y-109000889D01*
X108103953Y-108950173D01*
X108153261Y-108913261D01*
X108240886Y-108796208D01*
X108240885Y-108796208D01*
X108240889Y-108796204D01*
X108284999Y-108677939D01*
X108327545Y-108621107D01*
X108394066Y-108596296D01*
X108463440Y-108611388D01*
X108495753Y-108636635D01*
X108556418Y-108702534D01*
X108556762Y-108702908D01*
X108576750Y-108718465D01*
X108734424Y-108841189D01*
X108932426Y-108948342D01*
X108932427Y-108948342D01*
X108932428Y-108948343D01*
X109011980Y-108975653D01*
X109145365Y-109021444D01*
X109367431Y-109058500D01*
X109367435Y-109058500D01*
X109592565Y-109058500D01*
X109592569Y-109058500D01*
X109814635Y-109021444D01*
X110027574Y-108948342D01*
X110225576Y-108841189D01*
X110403240Y-108702906D01*
X110555722Y-108537268D01*
X110555927Y-108536955D01*
X110612800Y-108449903D01*
X110644816Y-108400898D01*
X110698819Y-108354810D01*
X110769167Y-108345235D01*
X110833524Y-108375212D01*
X110855782Y-108400898D01*
X110944674Y-108536958D01*
X111097097Y-108702534D01*
X111274698Y-108840767D01*
X111274699Y-108840768D01*
X111472628Y-108947882D01*
X111472630Y-108947883D01*
X111685483Y-109020955D01*
X111685490Y-109020957D01*
X111765999Y-109034391D01*
X111765999Y-108314033D01*
X111786001Y-108245912D01*
X111839657Y-108199419D01*
X111909926Y-108189315D01*
X111984237Y-108200000D01*
X112055763Y-108200000D01*
X112130069Y-108189316D01*
X112200341Y-108199419D01*
X112253997Y-108245911D01*
X112274000Y-108314031D01*
X112274000Y-109034390D01*
X112354507Y-109020957D01*
X112354516Y-109020955D01*
X112567369Y-108947883D01*
X112567371Y-108947882D01*
X112765300Y-108840768D01*
X112765301Y-108840767D01*
X112942902Y-108702534D01*
X113095327Y-108536955D01*
X113184517Y-108400441D01*
X113238521Y-108354352D01*
X113308868Y-108344777D01*
X113373226Y-108374754D01*
X113395483Y-108400441D01*
X113484672Y-108536955D01*
X113637097Y-108702534D01*
X113814698Y-108840767D01*
X113814699Y-108840768D01*
X114012628Y-108947882D01*
X114012630Y-108947883D01*
X114225483Y-109020955D01*
X114225492Y-109020957D01*
X114306000Y-109034391D01*
X114306000Y-108314033D01*
X114326002Y-108245912D01*
X114379658Y-108199419D01*
X114449926Y-108189315D01*
X114524237Y-108200000D01*
X114595763Y-108200000D01*
X114670069Y-108189316D01*
X114740341Y-108199419D01*
X114793997Y-108245911D01*
X114814000Y-108314031D01*
X114813999Y-109034390D01*
X114894507Y-109020957D01*
X114894516Y-109020955D01*
X115107369Y-108947883D01*
X115107371Y-108947882D01*
X115305300Y-108840768D01*
X115305301Y-108840767D01*
X115482902Y-108702534D01*
X115635327Y-108536955D01*
X115724217Y-108400899D01*
X115778220Y-108354810D01*
X115848568Y-108345235D01*
X115912925Y-108375212D01*
X115935183Y-108400898D01*
X116024279Y-108537270D01*
X116176762Y-108702908D01*
X116196750Y-108718465D01*
X116354424Y-108841189D01*
X116552426Y-108948342D01*
X116552427Y-108948342D01*
X116552428Y-108948343D01*
X116631980Y-108975653D01*
X116765365Y-109021444D01*
X116987431Y-109058500D01*
X116987435Y-109058500D01*
X117212565Y-109058500D01*
X117212569Y-109058500D01*
X117434635Y-109021444D01*
X117647574Y-108948342D01*
X117845576Y-108841189D01*
X118023240Y-108702906D01*
X118175722Y-108537268D01*
X118175927Y-108536955D01*
X118264517Y-108401357D01*
X118318520Y-108355268D01*
X118388868Y-108345693D01*
X118453226Y-108375670D01*
X118475483Y-108401357D01*
X118564275Y-108537265D01*
X118564279Y-108537270D01*
X118716762Y-108702908D01*
X118736750Y-108718465D01*
X118894424Y-108841189D01*
X119092426Y-108948342D01*
X119092427Y-108948342D01*
X119092428Y-108948343D01*
X119171980Y-108975653D01*
X119305365Y-109021444D01*
X119527431Y-109058500D01*
X119527435Y-109058500D01*
X119752565Y-109058500D01*
X119752569Y-109058500D01*
X119974635Y-109021444D01*
X120187574Y-108948342D01*
X120385576Y-108841189D01*
X120563240Y-108702906D01*
X120715722Y-108537268D01*
X120715927Y-108536955D01*
X120722441Y-108526983D01*
X120838860Y-108348791D01*
X120929296Y-108142616D01*
X120984564Y-107924368D01*
X121003156Y-107700000D01*
X120984564Y-107475632D01*
X120929296Y-107257384D01*
X120838860Y-107051209D01*
X120821500Y-107024637D01*
X120715724Y-106862734D01*
X120715720Y-106862729D01*
X120586220Y-106722057D01*
X120563240Y-106697094D01*
X120563239Y-106697093D01*
X120563237Y-106697091D01*
X120442334Y-106602988D01*
X120385576Y-106558811D01*
X120187574Y-106451658D01*
X120187572Y-106451657D01*
X120187571Y-106451656D01*
X119974639Y-106378557D01*
X119974630Y-106378555D01*
X119897029Y-106365606D01*
X119752569Y-106341500D01*
X119527431Y-106341500D01*
X119382971Y-106365606D01*
X119305369Y-106378555D01*
X119305360Y-106378557D01*
X119092428Y-106451656D01*
X119092426Y-106451658D01*
X118894426Y-106558810D01*
X118894424Y-106558811D01*
X118716762Y-106697091D01*
X118564279Y-106862729D01*
X118475483Y-106998643D01*
X118421479Y-107044731D01*
X118351131Y-107054306D01*
X118286774Y-107024329D01*
X118264517Y-106998643D01*
X118175720Y-106862729D01*
X118046220Y-106722057D01*
X118023240Y-106697094D01*
X118023239Y-106697093D01*
X118023237Y-106697091D01*
X117902334Y-106602988D01*
X117845576Y-106558811D01*
X117647574Y-106451658D01*
X117647572Y-106451657D01*
X117647571Y-106451656D01*
X117434639Y-106378557D01*
X117434630Y-106378555D01*
X117357029Y-106365606D01*
X117212569Y-106341500D01*
X116987431Y-106341500D01*
X116842971Y-106365606D01*
X116765369Y-106378555D01*
X116765360Y-106378557D01*
X116552428Y-106451656D01*
X116552426Y-106451658D01*
X116354426Y-106558810D01*
X116354424Y-106558811D01*
X116176762Y-106697091D01*
X116024279Y-106862729D01*
X115935183Y-106999101D01*
X115881179Y-107045189D01*
X115810831Y-107054764D01*
X115746474Y-107024786D01*
X115724217Y-106999100D01*
X115635327Y-106863044D01*
X115482902Y-106697465D01*
X115305301Y-106559232D01*
X115305300Y-106559231D01*
X115107371Y-106452117D01*
X115107369Y-106452116D01*
X114894512Y-106379043D01*
X114894501Y-106379040D01*
X114814000Y-106365606D01*
X114814000Y-107085966D01*
X114793998Y-107154087D01*
X114740342Y-107200580D01*
X114670069Y-107210683D01*
X114670068Y-107210683D01*
X114595768Y-107200000D01*
X114595763Y-107200000D01*
X114524237Y-107200000D01*
X114524231Y-107200000D01*
X114449932Y-107210683D01*
X114379658Y-107200580D01*
X114326002Y-107154087D01*
X114306000Y-107085966D01*
X114306000Y-106365607D01*
X114305999Y-106365606D01*
X114225498Y-106379040D01*
X114225487Y-106379043D01*
X114012630Y-106452116D01*
X114012628Y-106452117D01*
X113814699Y-106559231D01*
X113814698Y-106559232D01*
X113637097Y-106697465D01*
X113484670Y-106863045D01*
X113395481Y-106999559D01*
X113341478Y-107045647D01*
X113271130Y-107055222D01*
X113206772Y-107025244D01*
X113184516Y-106999558D01*
X113095327Y-106863044D01*
X112942902Y-106697465D01*
X112765301Y-106559232D01*
X112765300Y-106559231D01*
X112567371Y-106452117D01*
X112567369Y-106452116D01*
X112354512Y-106379043D01*
X112354501Y-106379040D01*
X112274000Y-106365606D01*
X112274000Y-107085966D01*
X112253998Y-107154087D01*
X112200342Y-107200580D01*
X112130069Y-107210683D01*
X112130068Y-107210683D01*
X112055768Y-107200000D01*
X112055763Y-107200000D01*
X111984237Y-107200000D01*
X111909929Y-107210683D01*
X111839657Y-107200580D01*
X111786001Y-107154087D01*
X111765999Y-107085966D01*
X111765999Y-106365607D01*
X111765998Y-106365606D01*
X111685484Y-106379043D01*
X111472631Y-106452116D01*
X111472628Y-106452117D01*
X111274699Y-106559231D01*
X111274698Y-106559232D01*
X111097097Y-106697465D01*
X110944670Y-106863045D01*
X110855780Y-106999101D01*
X110801776Y-107045189D01*
X110731428Y-107054764D01*
X110667071Y-107024786D01*
X110644816Y-106999101D01*
X110605884Y-106939511D01*
X110555724Y-106862734D01*
X110555720Y-106862729D01*
X110426220Y-106722057D01*
X110403240Y-106697094D01*
X110403239Y-106697093D01*
X110403237Y-106697091D01*
X110282334Y-106602988D01*
X110225576Y-106558811D01*
X110027574Y-106451658D01*
X110027572Y-106451657D01*
X110027571Y-106451656D01*
X109814639Y-106378557D01*
X109814630Y-106378555D01*
X109737029Y-106365606D01*
X109592569Y-106341500D01*
X109367431Y-106341500D01*
X109222971Y-106365606D01*
X109145369Y-106378555D01*
X109145360Y-106378557D01*
X108932428Y-106451656D01*
X108932426Y-106451658D01*
X108734426Y-106558810D01*
X108734424Y-106558811D01*
X108556762Y-106697091D01*
X108495754Y-106763363D01*
X108434901Y-106799933D01*
X108363936Y-106797798D01*
X108305391Y-106757636D01*
X108284999Y-106722057D01*
X108240889Y-106603797D01*
X108240887Y-106603792D01*
X108153261Y-106486738D01*
X108036207Y-106399112D01*
X108036202Y-106399110D01*
X107899204Y-106348011D01*
X107899196Y-106348009D01*
X107838649Y-106341500D01*
X107838638Y-106341500D01*
X106041362Y-106341500D01*
X106041350Y-106341500D01*
X105980803Y-106348009D01*
X105980795Y-106348011D01*
X105843797Y-106399110D01*
X105843792Y-106399112D01*
X105726738Y-106486738D01*
X105639112Y-106603792D01*
X105639110Y-106603797D01*
X105588011Y-106740795D01*
X105588009Y-106740803D01*
X105581500Y-106801350D01*
X105581500Y-108598649D01*
X101555226Y-108598649D01*
X101537227Y-108565687D01*
X101515954Y-108537270D01*
X101470045Y-108475942D01*
X101467480Y-108472247D01*
X101453129Y-108449917D01*
X101453128Y-108449916D01*
X101453127Y-108449914D01*
X101435731Y-108429838D01*
X101432934Y-108426367D01*
X101365739Y-108336605D01*
X101286468Y-108257334D01*
X101283416Y-108254056D01*
X101266019Y-108233978D01*
X101245942Y-108216582D01*
X101242662Y-108213528D01*
X101163395Y-108134261D01*
X101073652Y-108067080D01*
X101070150Y-108064258D01*
X101050084Y-108046871D01*
X101039620Y-108040147D01*
X101027755Y-108032521D01*
X101024059Y-108029955D01*
X100966089Y-107986560D01*
X100934315Y-107962774D01*
X100934310Y-107962771D01*
X100934309Y-107962770D01*
X100835930Y-107909050D01*
X100832061Y-107906755D01*
X100809712Y-107892392D01*
X100785552Y-107881359D01*
X100781529Y-107879345D01*
X100683162Y-107825633D01*
X100578126Y-107786456D01*
X100573969Y-107784735D01*
X100549825Y-107773709D01*
X100549821Y-107773707D01*
X100549819Y-107773706D01*
X100549816Y-107773705D01*
X100524351Y-107766227D01*
X100520084Y-107764807D01*
X100415044Y-107725630D01*
X100415040Y-107725629D01*
X100305507Y-107701802D01*
X100301143Y-107700688D01*
X100295724Y-107699096D01*
X100275662Y-107693206D01*
X100249385Y-107689428D01*
X100244958Y-107688629D01*
X100135427Y-107664803D01*
X100023601Y-107656805D01*
X100019139Y-107656326D01*
X100008197Y-107654753D01*
X99992865Y-107652548D01*
X99992861Y-107652548D01*
X99966317Y-107652548D01*
X99961821Y-107652387D01*
X99850000Y-107644390D01*
X99738179Y-107652387D01*
X99733683Y-107652548D01*
X99707137Y-107652548D01*
X99680858Y-107656326D01*
X99676386Y-107656807D01*
X99564573Y-107664803D01*
X99455042Y-107688629D01*
X99450614Y-107689428D01*
X99424332Y-107693205D01*
X99398846Y-107700690D01*
X99394487Y-107701802D01*
X99284961Y-107725628D01*
X99179917Y-107764805D01*
X99175657Y-107766223D01*
X99156374Y-107771888D01*
X99150586Y-107773587D01*
X99150170Y-107773709D01*
X99126025Y-107784736D01*
X99121871Y-107786457D01*
X99016849Y-107825629D01*
X99016838Y-107825633D01*
X98918464Y-107879348D01*
X98914442Y-107881361D01*
X98890286Y-107892392D01*
X98867946Y-107906749D01*
X98864079Y-107909044D01*
X98765689Y-107962771D01*
X98765685Y-107962774D01*
X98675938Y-108029956D01*
X98672245Y-108032520D01*
X98656335Y-108042745D01*
X98649913Y-108046872D01*
X98647218Y-108049208D01*
X98634653Y-108060096D01*
X98629833Y-108064271D01*
X98626342Y-108067083D01*
X98536602Y-108134263D01*
X98457336Y-108213528D01*
X98454044Y-108216593D01*
X98433979Y-108233979D01*
X98416593Y-108254044D01*
X98413528Y-108257336D01*
X98334263Y-108336602D01*
X98267079Y-108426348D01*
X98264257Y-108429850D01*
X98246880Y-108449903D01*
X98232518Y-108472248D01*
X98229955Y-108475938D01*
X98162774Y-108565685D01*
X98162771Y-108565689D01*
X98109044Y-108664079D01*
X98106749Y-108667946D01*
X98092392Y-108690286D01*
X98081361Y-108714442D01*
X98079348Y-108718464D01*
X98025633Y-108816838D01*
X98025629Y-108816849D01*
X97986457Y-108921871D01*
X97984736Y-108926025D01*
X97973708Y-108950173D01*
X97966224Y-108975653D01*
X97964806Y-108979916D01*
X97925628Y-109084961D01*
X97901802Y-109194487D01*
X97900690Y-109198846D01*
X97893205Y-109224332D01*
X97889428Y-109250614D01*
X97888629Y-109255042D01*
X97864803Y-109364573D01*
X97856807Y-109476386D01*
X97856326Y-109480858D01*
X97852548Y-109507137D01*
X97852548Y-109533683D01*
X97852387Y-109538179D01*
X97844390Y-109649999D01*
X94854391Y-109649999D01*
X94856391Y-109515072D01*
X94856719Y-109507566D01*
X94866713Y-109278664D01*
X94866983Y-109275011D01*
X94887596Y-109076995D01*
X94918549Y-108841888D01*
X94919158Y-108838152D01*
X94957147Y-108643395D01*
X95008596Y-108411323D01*
X95009565Y-108407528D01*
X95064487Y-108217648D01*
X95136158Y-107990333D01*
X95137484Y-107986560D01*
X95208726Y-107803135D01*
X95300255Y-107582165D01*
X95301958Y-107578414D01*
X95388717Y-107403029D01*
X95499603Y-107190018D01*
X95501699Y-107186306D01*
X95603019Y-107020415D01*
X95732702Y-106816854D01*
X95735137Y-106813311D01*
X95849888Y-106658286D01*
X95997696Y-106465658D01*
X96000518Y-106462242D01*
X96127332Y-106319426D01*
X96292581Y-106139089D01*
X96295747Y-106135877D01*
X96433054Y-106006478D01*
X96615014Y-105839741D01*
X96618574Y-105836716D01*
X96764450Y-105721891D01*
X96962592Y-105569852D01*
X96966448Y-105567121D01*
X97118675Y-105467835D01*
X97332532Y-105331593D01*
X97336733Y-105329142D01*
X97492375Y-105246320D01*
X97722027Y-105126770D01*
X97726476Y-105124675D01*
X97881728Y-105059015D01*
X98128022Y-104956997D01*
X98132777Y-104955251D01*
X98281595Y-104907384D01*
X98547416Y-104823571D01*
X98552372Y-104822232D01*
X98683282Y-104792643D01*
X98976914Y-104727547D01*
X98982109Y-104726625D01*
X99063885Y-104715653D01*
X99411542Y-104669883D01*
X99417014Y-104669405D01*
X99442662Y-104668285D01*
X99847652Y-104650601D01*
X99850455Y-104650545D01*
X99850500Y-104650500D01*
X99850500Y-102300000D01*
X135136496Y-102300000D01*
X135156457Y-102489927D01*
X135186526Y-102582470D01*
X135215473Y-102671556D01*
X135215476Y-102671561D01*
X135310958Y-102836941D01*
X135310965Y-102836951D01*
X135438744Y-102978864D01*
X135438747Y-102978866D01*
X135593248Y-103091118D01*
X135767712Y-103168794D01*
X135954513Y-103208500D01*
X136145487Y-103208500D01*
X136332288Y-103168794D01*
X136506752Y-103091118D01*
X136661253Y-102978866D01*
X136789040Y-102836944D01*
X136884527Y-102671556D01*
X136943542Y-102489928D01*
X136963504Y-102300000D01*
X136943542Y-102110072D01*
X136884527Y-101928444D01*
X136789040Y-101763056D01*
X136789038Y-101763054D01*
X136789034Y-101763048D01*
X136661255Y-101621135D01*
X136506752Y-101508882D01*
X136332288Y-101431206D01*
X136145487Y-101391500D01*
X135954513Y-101391500D01*
X135767711Y-101431206D01*
X135593247Y-101508882D01*
X135438744Y-101621135D01*
X135310965Y-101763048D01*
X135310958Y-101763058D01*
X135215476Y-101928438D01*
X135215473Y-101928445D01*
X135156457Y-102110072D01*
X135136496Y-102300000D01*
X99850500Y-102300000D01*
X99850500Y-99314000D01*
X107290496Y-99314000D01*
X107310457Y-99503927D01*
X107338788Y-99591117D01*
X107369473Y-99685556D01*
X107373463Y-99692467D01*
X107464958Y-99850941D01*
X107464965Y-99850951D01*
X107592744Y-99992864D01*
X107592747Y-99992866D01*
X107747248Y-100105118D01*
X107921712Y-100182794D01*
X108108513Y-100222500D01*
X108299487Y-100222500D01*
X108486288Y-100182794D01*
X108660752Y-100105118D01*
X108700831Y-100075999D01*
X111862496Y-100075999D01*
X111882457Y-100265927D01*
X111912526Y-100358470D01*
X111941473Y-100447556D01*
X111941476Y-100447561D01*
X112036958Y-100612941D01*
X112036965Y-100612951D01*
X112164744Y-100754864D01*
X112164747Y-100754866D01*
X112319248Y-100867118D01*
X112493712Y-100944794D01*
X112680513Y-100984500D01*
X112871487Y-100984500D01*
X113058288Y-100944794D01*
X113232752Y-100867118D01*
X113387253Y-100754866D01*
X113387255Y-100754864D01*
X113515034Y-100612951D01*
X113515035Y-100612949D01*
X113515040Y-100612944D01*
X113610527Y-100447556D01*
X113669542Y-100265928D01*
X113689504Y-100076000D01*
X113686296Y-100045482D01*
X115331805Y-100045482D01*
X115352204Y-100226529D01*
X115352204Y-100226531D01*
X115352205Y-100226532D01*
X115412378Y-100398497D01*
X115412379Y-100398500D01*
X115509308Y-100552761D01*
X115509309Y-100552763D01*
X115638139Y-100681593D01*
X115638141Y-100681594D01*
X115792402Y-100778523D01*
X115792403Y-100778523D01*
X115792406Y-100778525D01*
X115964374Y-100838699D01*
X116145421Y-100859098D01*
X116326468Y-100838699D01*
X116498436Y-100778525D01*
X116652702Y-100681593D01*
X116781532Y-100552763D01*
X116878464Y-100398497D01*
X116938638Y-100226529D01*
X116959037Y-100045482D01*
X116938638Y-99864435D01*
X116878464Y-99692467D01*
X116878462Y-99692464D01*
X116878462Y-99692463D01*
X116781533Y-99538202D01*
X116781532Y-99538200D01*
X116652702Y-99409370D01*
X116652700Y-99409369D01*
X116498439Y-99312440D01*
X116498436Y-99312439D01*
X116319789Y-99249928D01*
X116320389Y-99248211D01*
X116284016Y-99227861D01*
X116246647Y-99241369D01*
X116224828Y-99240813D01*
X116145421Y-99231866D01*
X115964374Y-99252265D01*
X115964371Y-99252265D01*
X115964370Y-99252266D01*
X115792405Y-99312439D01*
X115792402Y-99312440D01*
X115638141Y-99409369D01*
X115638139Y-99409370D01*
X115509309Y-99538200D01*
X115509308Y-99538202D01*
X115412379Y-99692463D01*
X115412378Y-99692466D01*
X115356925Y-99850944D01*
X115352204Y-99864435D01*
X115331805Y-100045482D01*
X113686296Y-100045482D01*
X113669542Y-99886072D01*
X113610527Y-99704444D01*
X113515040Y-99539056D01*
X113515038Y-99539054D01*
X113515034Y-99539048D01*
X113387255Y-99397135D01*
X113232752Y-99284882D01*
X113058288Y-99207206D01*
X112871487Y-99167500D01*
X112680513Y-99167500D01*
X112493711Y-99207206D01*
X112319247Y-99284882D01*
X112164744Y-99397135D01*
X112036965Y-99539048D01*
X112036958Y-99539058D01*
X111941476Y-99704438D01*
X111941473Y-99704445D01*
X111882457Y-99886072D01*
X111862496Y-100075999D01*
X108700831Y-100075999D01*
X108815253Y-99992866D01*
X108930893Y-99864435D01*
X108943034Y-99850951D01*
X108943035Y-99850949D01*
X108943040Y-99850944D01*
X109038527Y-99685556D01*
X109097542Y-99503928D01*
X109117504Y-99314000D01*
X109097542Y-99124072D01*
X109038527Y-98942444D01*
X108943040Y-98777056D01*
X108943038Y-98777054D01*
X108943034Y-98777048D01*
X108815255Y-98635135D01*
X108660752Y-98522882D01*
X108486288Y-98445206D01*
X108299487Y-98405500D01*
X108108513Y-98405500D01*
X107921711Y-98445206D01*
X107747247Y-98522882D01*
X107592744Y-98635135D01*
X107464965Y-98777048D01*
X107464958Y-98777058D01*
X107369476Y-98942438D01*
X107369473Y-98942444D01*
X107369222Y-98943217D01*
X107310457Y-99124072D01*
X107290496Y-99314000D01*
X99850500Y-99314000D01*
X99850500Y-98150000D01*
X102686384Y-98150000D01*
X102706783Y-98331047D01*
X102706783Y-98331049D01*
X102706784Y-98331050D01*
X102766957Y-98503015D01*
X102766958Y-98503018D01*
X102863887Y-98657279D01*
X102863888Y-98657281D01*
X102992718Y-98786111D01*
X102992720Y-98786112D01*
X103146981Y-98883041D01*
X103146982Y-98883041D01*
X103146985Y-98883043D01*
X103318953Y-98943217D01*
X103500000Y-98963616D01*
X103681047Y-98943217D01*
X103853015Y-98883043D01*
X104007281Y-98786111D01*
X104136111Y-98657281D01*
X104233043Y-98503015D01*
X104293217Y-98331047D01*
X104307982Y-98200000D01*
X115636384Y-98200000D01*
X115656783Y-98381047D01*
X115656783Y-98381049D01*
X115656784Y-98381050D01*
X115716957Y-98553015D01*
X115716958Y-98553018D01*
X115813887Y-98707279D01*
X115813888Y-98707281D01*
X115942718Y-98836111D01*
X115942720Y-98836112D01*
X116096981Y-98933041D01*
X116096982Y-98933041D01*
X116096985Y-98933043D01*
X116268953Y-98993217D01*
X116275632Y-98995554D01*
X116275030Y-98997273D01*
X116311406Y-99017618D01*
X116348792Y-99004111D01*
X116370580Y-99004667D01*
X116450000Y-99013616D01*
X116631047Y-98993217D01*
X116803015Y-98933043D01*
X116957281Y-98836111D01*
X117086111Y-98707281D01*
X117183043Y-98553015D01*
X117243217Y-98381047D01*
X117252349Y-98299999D01*
X133986496Y-98299999D01*
X134006457Y-98489927D01*
X134010710Y-98503015D01*
X134065473Y-98671556D01*
X134065476Y-98671561D01*
X134160958Y-98836941D01*
X134160965Y-98836951D01*
X134288744Y-98978864D01*
X134308499Y-98993217D01*
X134443248Y-99091118D01*
X134617712Y-99168794D01*
X134804513Y-99208500D01*
X134995487Y-99208500D01*
X135182288Y-99168794D01*
X135356752Y-99091118D01*
X135511253Y-98978866D01*
X135524985Y-98963615D01*
X135639034Y-98836951D01*
X135639035Y-98836949D01*
X135639040Y-98836944D01*
X135660370Y-98800000D01*
X136261496Y-98800000D01*
X136281457Y-98989927D01*
X136290455Y-99017618D01*
X136340473Y-99171556D01*
X136340476Y-99171561D01*
X136435958Y-99336941D01*
X136435965Y-99336951D01*
X136563744Y-99478864D01*
X136563747Y-99478866D01*
X136718248Y-99591118D01*
X136892712Y-99668794D01*
X137079513Y-99708500D01*
X137270487Y-99708500D01*
X137457288Y-99668794D01*
X137631752Y-99591118D01*
X137786253Y-99478866D01*
X137848827Y-99409371D01*
X137914034Y-99336951D01*
X137914035Y-99336949D01*
X137914040Y-99336944D01*
X138009527Y-99171556D01*
X138068542Y-98989928D01*
X138088504Y-98800000D01*
X138068542Y-98610072D01*
X138009527Y-98428444D01*
X137914040Y-98263056D01*
X137914038Y-98263054D01*
X137914034Y-98263048D01*
X137786255Y-98121135D01*
X137631752Y-98008882D01*
X137457288Y-97931206D01*
X137270487Y-97891500D01*
X137079513Y-97891500D01*
X136892711Y-97931206D01*
X136718247Y-98008882D01*
X136563744Y-98121135D01*
X136435965Y-98263048D01*
X136435958Y-98263058D01*
X136340476Y-98428438D01*
X136340473Y-98428445D01*
X136281457Y-98610072D01*
X136261496Y-98800000D01*
X135660370Y-98800000D01*
X135734527Y-98671556D01*
X135793542Y-98489928D01*
X135813504Y-98300000D01*
X135793542Y-98110072D01*
X135734527Y-97928444D01*
X135639040Y-97763056D01*
X135639038Y-97763054D01*
X135639034Y-97763048D01*
X135511255Y-97621135D01*
X135356752Y-97508882D01*
X135182288Y-97431206D01*
X134995487Y-97391500D01*
X134804513Y-97391500D01*
X134617711Y-97431206D01*
X134443247Y-97508882D01*
X134288744Y-97621135D01*
X134160965Y-97763048D01*
X134160958Y-97763058D01*
X134065476Y-97928438D01*
X134065473Y-97928445D01*
X134006457Y-98110072D01*
X133986496Y-98299999D01*
X117252349Y-98299999D01*
X117263616Y-98200000D01*
X117243217Y-98018953D01*
X117183043Y-97846985D01*
X117183041Y-97846982D01*
X117183041Y-97846981D01*
X117086112Y-97692720D01*
X117086111Y-97692718D01*
X116957281Y-97563888D01*
X116957279Y-97563887D01*
X116803018Y-97466958D01*
X116803015Y-97466957D01*
X116631050Y-97406784D01*
X116631049Y-97406783D01*
X116631047Y-97406783D01*
X116450000Y-97386384D01*
X116268953Y-97406783D01*
X116268950Y-97406783D01*
X116268949Y-97406784D01*
X116096984Y-97466957D01*
X116096981Y-97466958D01*
X115942720Y-97563887D01*
X115942718Y-97563888D01*
X115813888Y-97692718D01*
X115813887Y-97692720D01*
X115716958Y-97846981D01*
X115716957Y-97846984D01*
X115674279Y-97968953D01*
X115656783Y-98018953D01*
X115636384Y-98200000D01*
X104307982Y-98200000D01*
X104313616Y-98150000D01*
X104293217Y-97968953D01*
X104233043Y-97796985D01*
X104233041Y-97796982D01*
X104233041Y-97796981D01*
X104136112Y-97642720D01*
X104136111Y-97642718D01*
X104007281Y-97513888D01*
X104007279Y-97513887D01*
X103853018Y-97416958D01*
X103853015Y-97416957D01*
X103681050Y-97356784D01*
X103681049Y-97356783D01*
X103681047Y-97356783D01*
X103500000Y-97336384D01*
X103318953Y-97356783D01*
X103318950Y-97356783D01*
X103318949Y-97356784D01*
X103146984Y-97416957D01*
X103146981Y-97416958D01*
X102992720Y-97513887D01*
X102992718Y-97513888D01*
X102863888Y-97642718D01*
X102863887Y-97642720D01*
X102766958Y-97796981D01*
X102766957Y-97796984D01*
X102720958Y-97928444D01*
X102706783Y-97968953D01*
X102686384Y-98150000D01*
X99850500Y-98150000D01*
X99850500Y-97100000D01*
X110586384Y-97100000D01*
X110606783Y-97281047D01*
X110606783Y-97281049D01*
X110606784Y-97281050D01*
X110666957Y-97453015D01*
X110666958Y-97453018D01*
X110763887Y-97607279D01*
X110763888Y-97607281D01*
X110892718Y-97736111D01*
X110892720Y-97736112D01*
X111046981Y-97833041D01*
X111046982Y-97833041D01*
X111046985Y-97833043D01*
X111218953Y-97893217D01*
X111400000Y-97913616D01*
X111581047Y-97893217D01*
X111753015Y-97833043D01*
X111907281Y-97736111D01*
X112036111Y-97607281D01*
X112133043Y-97453015D01*
X112193217Y-97281047D01*
X112213616Y-97100000D01*
X112193217Y-96918953D01*
X112133043Y-96746985D01*
X112133041Y-96746982D01*
X112133041Y-96746981D01*
X112036112Y-96592720D01*
X112036111Y-96592718D01*
X111907281Y-96463888D01*
X111907279Y-96463887D01*
X111753018Y-96366958D01*
X111753015Y-96366957D01*
X111581050Y-96306784D01*
X111581049Y-96306783D01*
X111581047Y-96306783D01*
X111400000Y-96286384D01*
X111218953Y-96306783D01*
X111218950Y-96306783D01*
X111218949Y-96306784D01*
X111046984Y-96366957D01*
X111046981Y-96366958D01*
X110892720Y-96463887D01*
X110892718Y-96463888D01*
X110763888Y-96592718D01*
X110763887Y-96592720D01*
X110666958Y-96746981D01*
X110666957Y-96746984D01*
X110666957Y-96746985D01*
X110606783Y-96918953D01*
X110586384Y-97100000D01*
X99850500Y-97100000D01*
X99850500Y-95800000D01*
X114036384Y-95800000D01*
X114056783Y-95981047D01*
X114056783Y-95981049D01*
X114056784Y-95981050D01*
X114116957Y-96153015D01*
X114116958Y-96153018D01*
X114213887Y-96307279D01*
X114213888Y-96307281D01*
X114342718Y-96436111D01*
X114342720Y-96436112D01*
X114496981Y-96533041D01*
X114496982Y-96533041D01*
X114496985Y-96533043D01*
X114668953Y-96593217D01*
X114850000Y-96613616D01*
X115031047Y-96593217D01*
X115203015Y-96533043D01*
X115357281Y-96436111D01*
X115486111Y-96307281D01*
X115583043Y-96153015D01*
X115643217Y-95981047D01*
X115663616Y-95800000D01*
X115643217Y-95618953D01*
X115583043Y-95446985D01*
X115583041Y-95446982D01*
X115583041Y-95446981D01*
X115522104Y-95350000D01*
X118286384Y-95350000D01*
X118306783Y-95531047D01*
X118306783Y-95531049D01*
X118306784Y-95531050D01*
X118366957Y-95703015D01*
X118366958Y-95703018D01*
X118463887Y-95857279D01*
X118463888Y-95857281D01*
X118592718Y-95986111D01*
X118592720Y-95986112D01*
X118746981Y-96083041D01*
X118746982Y-96083041D01*
X118746985Y-96083043D01*
X118918953Y-96143217D01*
X119100000Y-96163616D01*
X119281047Y-96143217D01*
X119453015Y-96083043D01*
X119607281Y-95986111D01*
X119736111Y-95857281D01*
X119833043Y-95703015D01*
X119893217Y-95531047D01*
X119913616Y-95350000D01*
X119893217Y-95168953D01*
X119833043Y-94996985D01*
X119833041Y-94996982D01*
X119833041Y-94996981D01*
X119736112Y-94842720D01*
X119736111Y-94842718D01*
X119607281Y-94713888D01*
X119607279Y-94713887D01*
X119453018Y-94616958D01*
X119453015Y-94616957D01*
X119281050Y-94556784D01*
X119281049Y-94556783D01*
X119281047Y-94556783D01*
X119100000Y-94536384D01*
X118918953Y-94556783D01*
X118918950Y-94556783D01*
X118918949Y-94556784D01*
X118746984Y-94616957D01*
X118746981Y-94616958D01*
X118592720Y-94713887D01*
X118592718Y-94713888D01*
X118463888Y-94842718D01*
X118463887Y-94842720D01*
X118366958Y-94996981D01*
X118366957Y-94996984D01*
X118308556Y-95163887D01*
X118306783Y-95168953D01*
X118286384Y-95350000D01*
X115522104Y-95350000D01*
X115486112Y-95292720D01*
X115486111Y-95292718D01*
X115357281Y-95163888D01*
X115357279Y-95163887D01*
X115203018Y-95066958D01*
X115203015Y-95066957D01*
X115031050Y-95006784D01*
X115031049Y-95006783D01*
X115031047Y-95006783D01*
X114850000Y-94986384D01*
X114668953Y-95006783D01*
X114668950Y-95006783D01*
X114668949Y-95006784D01*
X114496984Y-95066957D01*
X114496981Y-95066958D01*
X114342720Y-95163887D01*
X114342718Y-95163888D01*
X114213888Y-95292718D01*
X114213887Y-95292720D01*
X114116958Y-95446981D01*
X114116957Y-95446984D01*
X114087543Y-95531047D01*
X114056783Y-95618953D01*
X114036384Y-95800000D01*
X99850500Y-95800000D01*
X99850500Y-94150000D01*
X124886496Y-94150000D01*
X124906457Y-94339927D01*
X124936526Y-94432470D01*
X124965473Y-94521556D01*
X124965476Y-94521561D01*
X125060958Y-94686941D01*
X125060965Y-94686951D01*
X125188744Y-94828864D01*
X125207814Y-94842719D01*
X125343248Y-94941118D01*
X125517712Y-95018794D01*
X125704513Y-95058500D01*
X125895487Y-95058500D01*
X126082288Y-95018794D01*
X126256752Y-94941118D01*
X126411253Y-94828866D01*
X126514780Y-94713888D01*
X126539034Y-94686951D01*
X126539035Y-94686949D01*
X126539040Y-94686944D01*
X126634527Y-94521556D01*
X126693542Y-94339928D01*
X126713504Y-94150000D01*
X126693542Y-93960072D01*
X126634527Y-93778444D01*
X126539040Y-93613056D01*
X126539038Y-93613054D01*
X126539034Y-93613048D01*
X126411255Y-93471135D01*
X126256752Y-93358882D01*
X126082288Y-93281206D01*
X125895487Y-93241500D01*
X125704513Y-93241500D01*
X125517711Y-93281206D01*
X125343247Y-93358882D01*
X125188744Y-93471135D01*
X125060965Y-93613048D01*
X125060958Y-93613058D01*
X124965476Y-93778438D01*
X124965473Y-93778445D01*
X124906457Y-93960072D01*
X124886496Y-94150000D01*
X99850500Y-94150000D01*
X99850500Y-92201999D01*
X107036496Y-92201999D01*
X107056457Y-92391927D01*
X107086526Y-92484470D01*
X107115473Y-92573556D01*
X107115476Y-92573561D01*
X107210958Y-92738941D01*
X107210965Y-92738951D01*
X107338744Y-92880864D01*
X107338747Y-92880866D01*
X107493248Y-92993118D01*
X107667712Y-93070794D01*
X107854513Y-93110500D01*
X108045487Y-93110500D01*
X108232288Y-93070794D01*
X108406752Y-92993118D01*
X108561253Y-92880866D01*
X108679086Y-92749999D01*
X126986496Y-92749999D01*
X127006457Y-92939927D01*
X127036526Y-93032470D01*
X127065473Y-93121556D01*
X127065476Y-93121561D01*
X127160958Y-93286941D01*
X127160965Y-93286951D01*
X127288744Y-93428864D01*
X127288747Y-93428866D01*
X127443248Y-93541118D01*
X127617712Y-93618794D01*
X127804513Y-93658500D01*
X127995487Y-93658500D01*
X128182288Y-93618794D01*
X128356752Y-93541118D01*
X128511253Y-93428866D01*
X128639040Y-93286944D01*
X128734527Y-93121556D01*
X128793542Y-92939928D01*
X128813504Y-92750000D01*
X128793542Y-92560072D01*
X128734527Y-92378444D01*
X128639040Y-92213056D01*
X128639038Y-92213054D01*
X128639034Y-92213048D01*
X128511255Y-92071135D01*
X128356752Y-91958882D01*
X128182288Y-91881206D01*
X127995487Y-91841500D01*
X127804513Y-91841500D01*
X127617711Y-91881206D01*
X127443247Y-91958882D01*
X127288744Y-92071135D01*
X127160965Y-92213048D01*
X127160958Y-92213058D01*
X127065476Y-92378438D01*
X127065473Y-92378445D01*
X127006457Y-92560072D01*
X126986496Y-92749999D01*
X108679086Y-92749999D01*
X108689040Y-92738944D01*
X108784527Y-92573556D01*
X108843542Y-92391928D01*
X108863504Y-92202000D01*
X108843542Y-92012072D01*
X108784527Y-91830444D01*
X108689040Y-91665056D01*
X108689038Y-91665054D01*
X108689034Y-91665048D01*
X108561255Y-91523135D01*
X108406752Y-91410882D01*
X108382311Y-91400000D01*
X120886496Y-91400000D01*
X120906457Y-91589927D01*
X120930866Y-91665048D01*
X120965473Y-91771556D01*
X120965476Y-91771561D01*
X121060958Y-91936941D01*
X121060965Y-91936951D01*
X121188744Y-92078864D01*
X121188747Y-92078866D01*
X121343248Y-92191118D01*
X121517712Y-92268794D01*
X121704513Y-92308500D01*
X121895487Y-92308500D01*
X122082288Y-92268794D01*
X122256752Y-92191118D01*
X122411253Y-92078866D01*
X122539040Y-91936944D01*
X122634527Y-91771556D01*
X122693542Y-91589928D01*
X122713504Y-91400000D01*
X122693542Y-91210072D01*
X122634527Y-91028444D01*
X122539040Y-90863056D01*
X122539038Y-90863054D01*
X122539034Y-90863048D01*
X122411255Y-90721135D01*
X122256752Y-90608882D01*
X122082288Y-90531206D01*
X121895487Y-90491500D01*
X121704513Y-90491500D01*
X121517711Y-90531206D01*
X121343247Y-90608882D01*
X121188744Y-90721135D01*
X121060965Y-90863048D01*
X121060958Y-90863058D01*
X120965476Y-91028438D01*
X120965473Y-91028445D01*
X120906457Y-91210072D01*
X120886496Y-91400000D01*
X108382311Y-91400000D01*
X108232288Y-91333206D01*
X108045487Y-91293500D01*
X107854513Y-91293500D01*
X107667711Y-91333206D01*
X107493247Y-91410882D01*
X107338744Y-91523135D01*
X107210965Y-91665048D01*
X107210958Y-91665058D01*
X107115476Y-91830438D01*
X107115473Y-91830445D01*
X107056457Y-92012072D01*
X107036496Y-92201999D01*
X99850500Y-92201999D01*
X99850500Y-90050000D01*
X111036496Y-90050000D01*
X111056457Y-90239927D01*
X111086526Y-90332470D01*
X111115473Y-90421556D01*
X111115476Y-90421561D01*
X111210958Y-90586941D01*
X111210965Y-90586951D01*
X111338744Y-90728864D01*
X111338747Y-90728866D01*
X111493248Y-90841118D01*
X111667712Y-90918794D01*
X111854513Y-90958500D01*
X112045487Y-90958500D01*
X112232288Y-90918794D01*
X112406752Y-90841118D01*
X112561253Y-90728866D01*
X112689040Y-90586944D01*
X112784527Y-90421556D01*
X112843542Y-90239928D01*
X112863504Y-90050000D01*
X112843542Y-89860072D01*
X112784527Y-89678444D01*
X112689040Y-89513056D01*
X112689038Y-89513054D01*
X112689034Y-89513048D01*
X112561255Y-89371135D01*
X112406752Y-89258882D01*
X112232288Y-89181206D01*
X112045487Y-89141500D01*
X111854513Y-89141500D01*
X111667711Y-89181206D01*
X111493247Y-89258882D01*
X111338744Y-89371135D01*
X111210965Y-89513048D01*
X111210958Y-89513058D01*
X111115476Y-89678438D01*
X111115473Y-89678445D01*
X111056457Y-89860072D01*
X111036496Y-90050000D01*
X99850500Y-90050000D01*
X99850500Y-88600000D01*
X138586496Y-88600000D01*
X138606457Y-88789927D01*
X138636526Y-88882470D01*
X138665473Y-88971556D01*
X138665476Y-88971561D01*
X138760958Y-89136941D01*
X138760965Y-89136951D01*
X138888744Y-89278864D01*
X138888747Y-89278866D01*
X139043248Y-89391118D01*
X139217712Y-89468794D01*
X139404513Y-89508500D01*
X139595487Y-89508500D01*
X139782288Y-89468794D01*
X139956752Y-89391118D01*
X140111253Y-89278866D01*
X140129247Y-89258882D01*
X140239034Y-89136951D01*
X140239035Y-89136949D01*
X140239040Y-89136944D01*
X140334527Y-88971556D01*
X140393542Y-88789928D01*
X140413504Y-88600000D01*
X140393542Y-88410072D01*
X140334527Y-88228444D01*
X140239040Y-88063056D01*
X140239038Y-88063054D01*
X140239034Y-88063048D01*
X140111255Y-87921135D01*
X140060143Y-87884000D01*
X150724496Y-87884000D01*
X150744457Y-88073927D01*
X150774526Y-88166470D01*
X150803473Y-88255556D01*
X150803476Y-88255561D01*
X150898958Y-88420941D01*
X150898965Y-88420951D01*
X151026744Y-88562864D01*
X151026747Y-88562866D01*
X151181248Y-88675118D01*
X151355712Y-88752794D01*
X151542513Y-88792500D01*
X151733487Y-88792500D01*
X151920288Y-88752794D01*
X152094752Y-88675118D01*
X152249253Y-88562866D01*
X152377040Y-88420944D01*
X152472527Y-88255556D01*
X152531542Y-88073928D01*
X152551504Y-87884000D01*
X152531542Y-87694072D01*
X152472527Y-87512444D01*
X152377040Y-87347056D01*
X152377038Y-87347054D01*
X152377034Y-87347048D01*
X152249255Y-87205135D01*
X152094752Y-87092882D01*
X151920288Y-87015206D01*
X151733487Y-86975500D01*
X151542513Y-86975500D01*
X151355711Y-87015206D01*
X151181247Y-87092882D01*
X151026744Y-87205135D01*
X150898965Y-87347048D01*
X150898958Y-87347058D01*
X150803476Y-87512438D01*
X150803473Y-87512445D01*
X150744457Y-87694072D01*
X150724496Y-87884000D01*
X140060143Y-87884000D01*
X139956752Y-87808882D01*
X139782288Y-87731206D01*
X139595487Y-87691500D01*
X139404513Y-87691500D01*
X139217711Y-87731206D01*
X139043247Y-87808882D01*
X138888744Y-87921135D01*
X138760965Y-88063048D01*
X138760958Y-88063058D01*
X138665476Y-88228438D01*
X138665473Y-88228445D01*
X138606457Y-88410072D01*
X138586496Y-88600000D01*
X99850500Y-88600000D01*
X99850500Y-86614000D01*
X111100496Y-86614000D01*
X111120457Y-86803927D01*
X111126187Y-86821561D01*
X111179473Y-86985556D01*
X111207841Y-87034691D01*
X111274958Y-87150941D01*
X111274965Y-87150951D01*
X111402744Y-87292864D01*
X111402747Y-87292866D01*
X111557248Y-87405118D01*
X111731712Y-87482794D01*
X111918513Y-87522500D01*
X112109487Y-87522500D01*
X112296288Y-87482794D01*
X112470752Y-87405118D01*
X112625253Y-87292866D01*
X112669438Y-87243794D01*
X112753034Y-87150951D01*
X112753035Y-87150949D01*
X112753040Y-87150944D01*
X112848527Y-86985556D01*
X112907542Y-86803928D01*
X112927504Y-86614000D01*
X112910267Y-86450000D01*
X123636496Y-86450000D01*
X123656457Y-86639927D01*
X123686526Y-86732470D01*
X123715473Y-86821556D01*
X123715476Y-86821561D01*
X123810958Y-86986941D01*
X123810965Y-86986951D01*
X123938744Y-87128864D01*
X123969135Y-87150944D01*
X124093248Y-87241118D01*
X124267712Y-87318794D01*
X124454513Y-87358500D01*
X124645487Y-87358500D01*
X124832288Y-87318794D01*
X125006752Y-87241118D01*
X125161253Y-87128866D01*
X125289040Y-86986944D01*
X125384527Y-86821556D01*
X125443542Y-86639928D01*
X125463504Y-86450000D01*
X125455621Y-86375000D01*
X128086496Y-86375000D01*
X128106457Y-86564927D01*
X128130827Y-86639927D01*
X128165473Y-86746556D01*
X128165476Y-86746561D01*
X128260958Y-86911941D01*
X128260965Y-86911951D01*
X128388744Y-87053864D01*
X128388747Y-87053866D01*
X128543248Y-87166118D01*
X128717712Y-87243794D01*
X128904513Y-87283500D01*
X129095487Y-87283500D01*
X129282288Y-87243794D01*
X129456752Y-87166118D01*
X129611253Y-87053866D01*
X129646063Y-87015206D01*
X129739034Y-86911951D01*
X129739035Y-86911949D01*
X129739040Y-86911944D01*
X129834527Y-86746556D01*
X129849654Y-86700000D01*
X134211496Y-86700000D01*
X134231457Y-86889927D01*
X134259262Y-86975500D01*
X134290473Y-87071556D01*
X134290476Y-87071561D01*
X134385958Y-87236941D01*
X134385965Y-87236951D01*
X134513744Y-87378864D01*
X134513747Y-87378866D01*
X134668248Y-87491118D01*
X134842712Y-87568794D01*
X135029513Y-87608500D01*
X135220487Y-87608500D01*
X135407288Y-87568794D01*
X135581752Y-87491118D01*
X135736253Y-87378866D01*
X135813688Y-87292866D01*
X135864034Y-87236951D01*
X135864035Y-87236949D01*
X135864040Y-87236944D01*
X135959527Y-87071556D01*
X136018542Y-86889928D01*
X136038504Y-86700000D01*
X136018542Y-86510072D01*
X135959527Y-86328444D01*
X135864040Y-86163056D01*
X135864038Y-86163054D01*
X135864034Y-86163048D01*
X135736255Y-86021135D01*
X135581752Y-85908882D01*
X135407288Y-85831206D01*
X135220487Y-85791500D01*
X135029513Y-85791500D01*
X134842711Y-85831206D01*
X134668247Y-85908882D01*
X134513744Y-86021135D01*
X134385965Y-86163048D01*
X134385958Y-86163058D01*
X134290476Y-86328438D01*
X134290473Y-86328445D01*
X134231457Y-86510072D01*
X134211496Y-86700000D01*
X129849654Y-86700000D01*
X129893542Y-86564928D01*
X129913504Y-86375000D01*
X129893542Y-86185072D01*
X129834527Y-86003444D01*
X129739040Y-85838056D01*
X129739038Y-85838054D01*
X129739034Y-85838048D01*
X129611255Y-85696135D01*
X129456752Y-85583882D01*
X129282288Y-85506206D01*
X129095487Y-85466500D01*
X128904513Y-85466500D01*
X128717711Y-85506206D01*
X128543247Y-85583882D01*
X128388744Y-85696135D01*
X128260965Y-85838048D01*
X128260958Y-85838058D01*
X128204911Y-85935135D01*
X128165473Y-86003444D01*
X128159725Y-86021134D01*
X128106457Y-86185072D01*
X128086496Y-86375000D01*
X125455621Y-86375000D01*
X125443542Y-86260072D01*
X125384527Y-86078444D01*
X125289040Y-85913056D01*
X125289038Y-85913054D01*
X125289034Y-85913048D01*
X125161255Y-85771135D01*
X125006752Y-85658882D01*
X124832288Y-85581206D01*
X124645487Y-85541500D01*
X124454513Y-85541500D01*
X124267711Y-85581206D01*
X124093247Y-85658882D01*
X123938744Y-85771135D01*
X123810965Y-85913048D01*
X123810958Y-85913058D01*
X123715476Y-86078438D01*
X123715473Y-86078445D01*
X123656457Y-86260072D01*
X123636496Y-86450000D01*
X112910267Y-86450000D01*
X112907542Y-86424072D01*
X112848527Y-86242444D01*
X112753040Y-86077056D01*
X112753038Y-86077054D01*
X112753034Y-86077048D01*
X112625255Y-85935135D01*
X112470752Y-85822882D01*
X112296288Y-85745206D01*
X112109487Y-85705500D01*
X111918513Y-85705500D01*
X111731711Y-85745206D01*
X111557247Y-85822882D01*
X111402744Y-85935135D01*
X111274965Y-86077048D01*
X111274958Y-86077058D01*
X111179476Y-86242438D01*
X111179473Y-86242445D01*
X111120457Y-86424072D01*
X111100496Y-86614000D01*
X99850500Y-86614000D01*
X99850500Y-83825000D01*
X113086384Y-83825000D01*
X113106783Y-84006047D01*
X113106783Y-84006049D01*
X113106784Y-84006050D01*
X113166957Y-84178015D01*
X113166958Y-84178018D01*
X113263887Y-84332279D01*
X113263888Y-84332281D01*
X113392718Y-84461111D01*
X113392720Y-84461112D01*
X113552976Y-84561808D01*
X113551805Y-84563671D01*
X113596651Y-84604156D01*
X113615264Y-84672670D01*
X113593881Y-84740370D01*
X113556326Y-84776795D01*
X113417720Y-84863887D01*
X113417718Y-84863888D01*
X113288888Y-84992718D01*
X113288887Y-84992720D01*
X113191958Y-85146981D01*
X113191957Y-85146984D01*
X113138024Y-85301118D01*
X113131783Y-85318953D01*
X113111384Y-85500000D01*
X113131783Y-85681047D01*
X113131783Y-85681049D01*
X113131784Y-85681050D01*
X113191957Y-85853015D01*
X113191958Y-85853018D01*
X113288887Y-86007279D01*
X113288888Y-86007281D01*
X113417718Y-86136111D01*
X113417720Y-86136112D01*
X113571981Y-86233041D01*
X113571982Y-86233041D01*
X113571985Y-86233043D01*
X113743953Y-86293217D01*
X113925000Y-86313616D01*
X114106047Y-86293217D01*
X114278015Y-86233043D01*
X114432281Y-86136111D01*
X114561111Y-86007281D01*
X114658043Y-85853015D01*
X114718217Y-85681047D01*
X114738616Y-85500000D01*
X114718217Y-85318953D01*
X114658043Y-85146985D01*
X114658041Y-85146982D01*
X114658041Y-85146981D01*
X114561112Y-84992720D01*
X114561111Y-84992718D01*
X114432281Y-84863888D01*
X114432279Y-84863887D01*
X114272024Y-84763192D01*
X114273193Y-84761330D01*
X114228340Y-84720829D01*
X114209735Y-84652313D01*
X114231127Y-84584616D01*
X114268671Y-84548205D01*
X114407281Y-84461111D01*
X114536111Y-84332281D01*
X114619230Y-84199999D01*
X120136496Y-84199999D01*
X120156457Y-84389927D01*
X120179587Y-84461111D01*
X120215473Y-84571556D01*
X120215476Y-84571561D01*
X120310958Y-84736941D01*
X120310965Y-84736951D01*
X120438744Y-84878864D01*
X120442449Y-84881556D01*
X120593248Y-84991118D01*
X120767712Y-85068794D01*
X120954513Y-85108500D01*
X121145487Y-85108500D01*
X121332288Y-85068794D01*
X121506752Y-84991118D01*
X121661253Y-84878866D01*
X121661255Y-84878864D01*
X121777286Y-84749999D01*
X131036496Y-84749999D01*
X131056457Y-84939927D01*
X131082104Y-85018858D01*
X131115473Y-85121556D01*
X131134294Y-85154154D01*
X131210958Y-85286941D01*
X131210965Y-85286951D01*
X131338744Y-85428864D01*
X131338747Y-85428866D01*
X131493248Y-85541118D01*
X131667712Y-85618794D01*
X131854513Y-85658500D01*
X132045487Y-85658500D01*
X132232288Y-85618794D01*
X132406752Y-85541118D01*
X132561253Y-85428866D01*
X132606339Y-85378793D01*
X132689034Y-85286951D01*
X132689035Y-85286949D01*
X132689040Y-85286944D01*
X132784527Y-85121556D01*
X132843542Y-84939928D01*
X132863504Y-84750000D01*
X132843542Y-84560072D01*
X132827272Y-84510000D01*
X134311496Y-84510000D01*
X134331457Y-84699927D01*
X134351409Y-84761330D01*
X134390473Y-84881556D01*
X134390476Y-84881561D01*
X134485958Y-85046941D01*
X134485965Y-85046951D01*
X134613744Y-85188864D01*
X134613747Y-85188866D01*
X134768248Y-85301118D01*
X134942712Y-85378794D01*
X135129513Y-85418500D01*
X135320487Y-85418500D01*
X135507288Y-85378794D01*
X135681752Y-85301118D01*
X135836253Y-85188866D01*
X135836252Y-85188866D01*
X135836256Y-85188864D01*
X135840692Y-85184870D01*
X135904700Y-85154154D01*
X135975153Y-85162920D01*
X136009308Y-85184870D01*
X136013743Y-85188864D01*
X136120413Y-85266364D01*
X136168248Y-85301118D01*
X136342712Y-85378794D01*
X136529513Y-85418500D01*
X136720487Y-85418500D01*
X136907288Y-85378794D01*
X137081752Y-85301118D01*
X137236253Y-85188866D01*
X137273964Y-85146984D01*
X137364034Y-85046951D01*
X137364034Y-85046950D01*
X137364040Y-85046944D01*
X137393510Y-84995899D01*
X137444889Y-84946909D01*
X137514602Y-84933472D01*
X137580514Y-84959858D01*
X137611746Y-84995902D01*
X137685958Y-85124441D01*
X137685965Y-85124451D01*
X137813744Y-85266364D01*
X137813747Y-85266366D01*
X137968248Y-85378618D01*
X138142712Y-85456294D01*
X138329513Y-85496000D01*
X138520487Y-85496000D01*
X138707288Y-85456294D01*
X138881752Y-85378618D01*
X139036253Y-85266366D01*
X139131364Y-85160734D01*
X139191809Y-85123495D01*
X139262793Y-85124846D01*
X139318635Y-85160734D01*
X139413747Y-85266366D01*
X139568248Y-85378618D01*
X139742712Y-85456294D01*
X139929513Y-85496000D01*
X140120487Y-85496000D01*
X140307288Y-85456294D01*
X140481752Y-85378618D01*
X140636253Y-85266366D01*
X140706036Y-85188864D01*
X140764034Y-85124451D01*
X140764035Y-85124449D01*
X140764040Y-85124444D01*
X140859527Y-84959056D01*
X140918542Y-84777428D01*
X140938504Y-84587500D01*
X140918542Y-84397572D01*
X140859527Y-84215944D01*
X140764040Y-84050556D01*
X140764038Y-84050554D01*
X140764034Y-84050548D01*
X140636255Y-83908635D01*
X140481752Y-83796382D01*
X140307288Y-83718706D01*
X140120487Y-83679000D01*
X139929513Y-83679000D01*
X139742711Y-83718706D01*
X139568247Y-83796382D01*
X139413746Y-83908634D01*
X139318636Y-84014265D01*
X139258190Y-84051504D01*
X139187206Y-84050152D01*
X139131364Y-84014265D01*
X139036253Y-83908634D01*
X138881752Y-83796382D01*
X138707288Y-83718706D01*
X138520487Y-83679000D01*
X138329513Y-83679000D01*
X138142711Y-83718706D01*
X137968247Y-83796382D01*
X137813744Y-83908635D01*
X137685965Y-84050548D01*
X137685961Y-84050554D01*
X137685960Y-84050556D01*
X137656491Y-84101598D01*
X137605108Y-84150591D01*
X137535394Y-84164026D01*
X137469483Y-84137639D01*
X137438253Y-84101597D01*
X137408784Y-84050556D01*
X137364040Y-83973056D01*
X137364038Y-83973054D01*
X137364034Y-83973048D01*
X137236255Y-83831135D01*
X137081752Y-83718882D01*
X136907288Y-83641206D01*
X136720487Y-83601500D01*
X136529513Y-83601500D01*
X136342711Y-83641206D01*
X136191744Y-83708421D01*
X136121377Y-83717855D01*
X136057080Y-83687748D01*
X136019266Y-83627660D01*
X136019942Y-83556666D01*
X136031372Y-83530320D01*
X136059527Y-83481556D01*
X136118542Y-83299928D01*
X136138504Y-83110000D01*
X136118542Y-82920072D01*
X136059527Y-82738444D01*
X135964040Y-82573056D01*
X135964038Y-82573054D01*
X135964034Y-82573048D01*
X135836255Y-82431135D01*
X135681752Y-82318882D01*
X135507288Y-82241206D01*
X135320487Y-82201500D01*
X135129513Y-82201500D01*
X134942711Y-82241206D01*
X134768247Y-82318882D01*
X134613744Y-82431135D01*
X134485965Y-82573048D01*
X134485958Y-82573058D01*
X134390476Y-82738438D01*
X134390473Y-82738445D01*
X134331457Y-82920072D01*
X134311496Y-83110000D01*
X134331457Y-83299927D01*
X134361526Y-83392470D01*
X134390473Y-83481556D01*
X134485960Y-83646944D01*
X134556862Y-83725689D01*
X134587579Y-83789696D01*
X134578816Y-83860149D01*
X134556863Y-83894309D01*
X134485961Y-83973054D01*
X134485958Y-83973058D01*
X134390476Y-84138438D01*
X134390473Y-84138444D01*
X134377615Y-84178018D01*
X134331457Y-84320072D01*
X134311496Y-84510000D01*
X132827272Y-84510000D01*
X132784527Y-84378444D01*
X132689040Y-84213056D01*
X132689038Y-84213054D01*
X132689034Y-84213048D01*
X132561255Y-84071135D01*
X132406752Y-83958882D01*
X132232288Y-83881206D01*
X132045487Y-83841500D01*
X131854513Y-83841500D01*
X131667711Y-83881206D01*
X131493247Y-83958882D01*
X131338744Y-84071135D01*
X131210965Y-84213048D01*
X131210958Y-84213058D01*
X131115476Y-84378438D01*
X131115473Y-84378445D01*
X131056457Y-84560072D01*
X131036496Y-84749999D01*
X121777286Y-84749999D01*
X121789034Y-84736951D01*
X121789035Y-84736949D01*
X121789040Y-84736944D01*
X121884527Y-84571556D01*
X121943542Y-84389928D01*
X121963504Y-84200000D01*
X121943542Y-84010072D01*
X121884527Y-83828444D01*
X121789040Y-83663056D01*
X121789038Y-83663054D01*
X121789034Y-83663048D01*
X121661255Y-83521135D01*
X121506752Y-83408882D01*
X121332288Y-83331206D01*
X121145487Y-83291500D01*
X120954513Y-83291500D01*
X120767711Y-83331206D01*
X120593247Y-83408882D01*
X120438744Y-83521135D01*
X120310965Y-83663048D01*
X120310958Y-83663058D01*
X120215476Y-83828438D01*
X120215473Y-83828445D01*
X120156457Y-84010072D01*
X120136496Y-84199999D01*
X114619230Y-84199999D01*
X114633043Y-84178015D01*
X114693217Y-84006047D01*
X114713616Y-83825000D01*
X114693217Y-83643953D01*
X114633043Y-83471985D01*
X114633041Y-83471982D01*
X114633041Y-83471981D01*
X114536112Y-83317720D01*
X114536111Y-83317718D01*
X114407281Y-83188888D01*
X114407279Y-83188887D01*
X114253018Y-83091958D01*
X114253015Y-83091957D01*
X114081050Y-83031784D01*
X114081049Y-83031783D01*
X114081047Y-83031783D01*
X113900000Y-83011384D01*
X113718953Y-83031783D01*
X113718950Y-83031783D01*
X113718949Y-83031784D01*
X113546984Y-83091957D01*
X113546981Y-83091958D01*
X113392720Y-83188887D01*
X113392718Y-83188888D01*
X113263888Y-83317718D01*
X113263887Y-83317720D01*
X113166958Y-83471981D01*
X113166957Y-83471984D01*
X113149759Y-83521135D01*
X113106783Y-83643953D01*
X113086384Y-83825000D01*
X99850500Y-83825000D01*
X99850500Y-81600000D01*
X124711496Y-81600000D01*
X124731457Y-81789927D01*
X124758810Y-81874108D01*
X124790473Y-81971556D01*
X124790476Y-81971561D01*
X124885958Y-82136941D01*
X124885965Y-82136951D01*
X125013744Y-82278864D01*
X125013747Y-82278866D01*
X125168248Y-82391118D01*
X125342712Y-82468794D01*
X125529513Y-82508500D01*
X125720487Y-82508500D01*
X125907288Y-82468794D01*
X126081752Y-82391118D01*
X126236253Y-82278866D01*
X126236255Y-82278864D01*
X126364034Y-82136951D01*
X126364035Y-82136949D01*
X126364040Y-82136944D01*
X126403385Y-82068797D01*
X156882793Y-82068797D01*
X156912312Y-82261485D01*
X156912313Y-82261489D01*
X156975143Y-82431134D01*
X156980018Y-82444297D01*
X157060276Y-82573058D01*
X157083133Y-82609729D01*
X157217440Y-82751020D01*
X157217443Y-82751022D01*
X157217444Y-82751023D01*
X157377437Y-82862382D01*
X157377438Y-82862382D01*
X157377439Y-82862383D01*
X157556581Y-82939259D01*
X157747530Y-82978500D01*
X157747532Y-82978500D01*
X158993607Y-82978500D01*
X158993608Y-82978500D01*
X158993609Y-82978499D01*
X158993626Y-82978499D01*
X159138932Y-82963722D01*
X159138932Y-82963721D01*
X159138940Y-82963721D01*
X159324939Y-82905363D01*
X159495384Y-82810759D01*
X159643297Y-82683780D01*
X159762620Y-82529627D01*
X159848471Y-82354609D01*
X159897333Y-82165892D01*
X159897333Y-82165886D01*
X159897334Y-82165884D01*
X159902257Y-82068797D01*
X161202793Y-82068797D01*
X161232312Y-82261485D01*
X161232313Y-82261489D01*
X161295143Y-82431134D01*
X161300018Y-82444297D01*
X161380276Y-82573058D01*
X161403133Y-82609729D01*
X161537440Y-82751020D01*
X161537443Y-82751022D01*
X161537444Y-82751023D01*
X161697437Y-82862382D01*
X161697438Y-82862382D01*
X161697439Y-82862383D01*
X161876581Y-82939259D01*
X162067530Y-82978500D01*
X162067532Y-82978500D01*
X163013607Y-82978500D01*
X163013608Y-82978500D01*
X163013609Y-82978499D01*
X163013626Y-82978499D01*
X163158932Y-82963722D01*
X163158932Y-82963721D01*
X163158940Y-82963721D01*
X163344939Y-82905363D01*
X163515384Y-82810759D01*
X163663297Y-82683780D01*
X163782620Y-82529627D01*
X163868471Y-82354609D01*
X163917333Y-82165892D01*
X163917333Y-82165886D01*
X163917334Y-82165884D01*
X163927206Y-81971202D01*
X163899436Y-81789928D01*
X163897687Y-81778511D01*
X163829983Y-81595705D01*
X163726867Y-81430271D01*
X163592560Y-81288980D01*
X163592556Y-81288977D01*
X163592555Y-81288976D01*
X163432562Y-81177617D01*
X163253422Y-81100742D01*
X163253420Y-81100741D01*
X163253419Y-81100741D01*
X163062470Y-81061500D01*
X162116392Y-81061500D01*
X162116373Y-81061500D01*
X161971067Y-81076277D01*
X161971065Y-81076278D01*
X161971062Y-81076278D01*
X161971060Y-81076279D01*
X161852056Y-81113617D01*
X161785060Y-81134637D01*
X161614615Y-81229241D01*
X161614614Y-81229241D01*
X161466707Y-81356215D01*
X161466702Y-81356221D01*
X161347379Y-81510374D01*
X161261530Y-81685388D01*
X161261529Y-81685391D01*
X161212666Y-81874112D01*
X161212665Y-81874115D01*
X161202793Y-82068797D01*
X159902257Y-82068797D01*
X159907206Y-81971202D01*
X159879436Y-81789928D01*
X159877687Y-81778511D01*
X159809983Y-81595705D01*
X159706867Y-81430271D01*
X159572560Y-81288980D01*
X159572556Y-81288977D01*
X159572555Y-81288976D01*
X159412562Y-81177617D01*
X159233422Y-81100742D01*
X159233420Y-81100741D01*
X159233419Y-81100741D01*
X159042470Y-81061500D01*
X157796392Y-81061500D01*
X157796373Y-81061500D01*
X157651067Y-81076277D01*
X157651065Y-81076278D01*
X157651062Y-81076278D01*
X157651060Y-81076279D01*
X157532056Y-81113617D01*
X157465060Y-81134637D01*
X157294615Y-81229241D01*
X157294614Y-81229241D01*
X157146707Y-81356215D01*
X157146702Y-81356221D01*
X157027379Y-81510374D01*
X156941530Y-81685388D01*
X156941529Y-81685391D01*
X156892666Y-81874112D01*
X156892665Y-81874115D01*
X156882793Y-82068797D01*
X126403385Y-82068797D01*
X126459527Y-81971556D01*
X126518542Y-81789928D01*
X126538504Y-81600000D01*
X126518542Y-81410072D01*
X126459527Y-81228444D01*
X126364040Y-81063056D01*
X126364038Y-81063054D01*
X126364034Y-81063048D01*
X126236255Y-80921135D01*
X126081752Y-80808882D01*
X125907288Y-80731206D01*
X125720487Y-80691500D01*
X125529513Y-80691500D01*
X125342711Y-80731206D01*
X125168247Y-80808882D01*
X125013744Y-80921135D01*
X124885965Y-81063048D01*
X124885958Y-81063058D01*
X124790476Y-81228438D01*
X124790473Y-81228444D01*
X124783130Y-81251043D01*
X124731457Y-81410072D01*
X124711496Y-81600000D01*
X99850500Y-81600000D01*
X99850500Y-80518000D01*
X118820384Y-80518000D01*
X118840783Y-80699047D01*
X118840783Y-80699049D01*
X118840784Y-80699050D01*
X118900957Y-80871015D01*
X118900958Y-80871018D01*
X118997887Y-81025279D01*
X118997888Y-81025281D01*
X119126718Y-81154111D01*
X119126720Y-81154112D01*
X119280981Y-81251041D01*
X119280982Y-81251041D01*
X119280985Y-81251043D01*
X119452953Y-81311217D01*
X119634000Y-81331616D01*
X119815047Y-81311217D01*
X119987015Y-81251043D01*
X120141281Y-81154111D01*
X120270111Y-81025281D01*
X120367043Y-80871015D01*
X120427217Y-80699047D01*
X120447616Y-80518000D01*
X120439954Y-80450000D01*
X147536384Y-80450000D01*
X147556783Y-80631047D01*
X147556783Y-80631049D01*
X147556784Y-80631050D01*
X147616957Y-80803015D01*
X147616958Y-80803018D01*
X147713887Y-80957279D01*
X147713888Y-80957281D01*
X147842718Y-81086111D01*
X147842720Y-81086112D01*
X147996981Y-81183041D01*
X147996982Y-81183041D01*
X147996985Y-81183043D01*
X148168953Y-81243217D01*
X148350000Y-81263616D01*
X148531047Y-81243217D01*
X148703015Y-81183043D01*
X148857281Y-81086111D01*
X148986111Y-80957281D01*
X149083043Y-80803015D01*
X149143217Y-80631047D01*
X149163616Y-80450000D01*
X149149250Y-80322499D01*
X154386496Y-80322499D01*
X154406457Y-80512427D01*
X154408268Y-80518000D01*
X154465473Y-80694056D01*
X154465476Y-80694061D01*
X154560958Y-80859441D01*
X154560965Y-80859451D01*
X154688744Y-81001364D01*
X154688747Y-81001366D01*
X154843248Y-81113618D01*
X155017712Y-81191294D01*
X155204513Y-81231000D01*
X155395487Y-81231000D01*
X155582288Y-81191294D01*
X155756752Y-81113618D01*
X155911253Y-81001366D01*
X156028619Y-80871018D01*
X156039034Y-80859451D01*
X156039035Y-80859449D01*
X156039040Y-80859444D01*
X156134527Y-80694056D01*
X156193542Y-80512428D01*
X156213504Y-80322500D01*
X156193542Y-80132572D01*
X156134527Y-79950944D01*
X156039040Y-79785556D01*
X156039038Y-79785554D01*
X156039034Y-79785548D01*
X155911255Y-79643635D01*
X155756752Y-79531382D01*
X155582288Y-79453706D01*
X155395487Y-79414000D01*
X155204513Y-79414000D01*
X155017711Y-79453706D01*
X154843247Y-79531382D01*
X154688744Y-79643635D01*
X154560965Y-79785548D01*
X154560958Y-79785558D01*
X154465476Y-79950938D01*
X154465473Y-79950945D01*
X154406457Y-80132572D01*
X154386496Y-80322499D01*
X149149250Y-80322499D01*
X149143217Y-80268953D01*
X149083043Y-80096985D01*
X149083041Y-80096982D01*
X149083041Y-80096981D01*
X148986112Y-79942720D01*
X148986111Y-79942718D01*
X148857281Y-79813888D01*
X148857279Y-79813887D01*
X148703018Y-79716958D01*
X148703015Y-79716957D01*
X148531050Y-79656784D01*
X148531049Y-79656783D01*
X148531047Y-79656783D01*
X148350000Y-79636384D01*
X148168953Y-79656783D01*
X148168950Y-79656783D01*
X148168949Y-79656784D01*
X147996984Y-79716957D01*
X147996981Y-79716958D01*
X147842720Y-79813887D01*
X147842718Y-79813888D01*
X147713888Y-79942718D01*
X147713887Y-79942720D01*
X147616958Y-80096981D01*
X147616957Y-80096984D01*
X147593163Y-80164985D01*
X147556783Y-80268953D01*
X147536384Y-80450000D01*
X120439954Y-80450000D01*
X120427217Y-80336953D01*
X120367043Y-80164985D01*
X120367041Y-80164982D01*
X120367041Y-80164981D01*
X120270112Y-80010720D01*
X120270111Y-80010718D01*
X120141281Y-79881888D01*
X120141279Y-79881887D01*
X119987018Y-79784958D01*
X119987015Y-79784957D01*
X119815050Y-79724784D01*
X119815049Y-79724783D01*
X119815047Y-79724783D01*
X119634000Y-79704384D01*
X119452953Y-79724783D01*
X119452950Y-79724783D01*
X119452949Y-79724784D01*
X119280984Y-79784957D01*
X119280981Y-79784958D01*
X119126720Y-79881887D01*
X119126718Y-79881888D01*
X118997888Y-80010718D01*
X118997887Y-80010720D01*
X118900958Y-80164981D01*
X118900957Y-80164984D01*
X118845841Y-80322499D01*
X118840783Y-80336953D01*
X118820384Y-80518000D01*
X99850500Y-80518000D01*
X99850500Y-78675000D01*
X110636384Y-78675000D01*
X110656783Y-78856047D01*
X110656783Y-78856049D01*
X110656784Y-78856050D01*
X110716957Y-79028015D01*
X110716958Y-79028018D01*
X110813887Y-79182279D01*
X110813888Y-79182281D01*
X110942718Y-79311111D01*
X110942720Y-79311112D01*
X111096981Y-79408041D01*
X111096982Y-79408041D01*
X111096985Y-79408043D01*
X111268953Y-79468217D01*
X111450000Y-79488616D01*
X111631047Y-79468217D01*
X111803015Y-79408043D01*
X111957281Y-79311111D01*
X112086111Y-79182281D01*
X112183043Y-79028015D01*
X112243217Y-78856047D01*
X112263616Y-78675000D01*
X112243217Y-78493953D01*
X112183043Y-78321985D01*
X112183041Y-78321982D01*
X112183041Y-78321981D01*
X112106395Y-78200000D01*
X122386384Y-78200000D01*
X122406783Y-78381047D01*
X122406783Y-78381049D01*
X122406784Y-78381050D01*
X122466957Y-78553015D01*
X122466958Y-78553018D01*
X122563887Y-78707279D01*
X122563888Y-78707281D01*
X122692718Y-78836111D01*
X122692720Y-78836112D01*
X122846981Y-78933041D01*
X122846982Y-78933041D01*
X122846985Y-78933043D01*
X123018953Y-78993217D01*
X123200000Y-79013616D01*
X123381047Y-78993217D01*
X123553015Y-78933043D01*
X123707281Y-78836111D01*
X123836111Y-78707281D01*
X123903521Y-78599999D01*
X124386496Y-78599999D01*
X124406457Y-78789927D01*
X124430269Y-78863211D01*
X124465473Y-78971556D01*
X124465476Y-78971561D01*
X124560958Y-79136941D01*
X124560965Y-79136951D01*
X124688744Y-79278864D01*
X124688747Y-79278866D01*
X124843248Y-79391118D01*
X125017712Y-79468794D01*
X125204513Y-79508500D01*
X125395487Y-79508500D01*
X125582288Y-79468794D01*
X125756752Y-79391118D01*
X125911253Y-79278866D01*
X125911255Y-79278864D01*
X126039034Y-79136951D01*
X126039035Y-79136949D01*
X126039040Y-79136944D01*
X126134527Y-78971556D01*
X126193542Y-78789928D01*
X126213504Y-78600000D01*
X126193542Y-78410072D01*
X126134527Y-78228444D01*
X126109068Y-78184347D01*
X141486496Y-78184347D01*
X141506457Y-78374274D01*
X141518089Y-78410072D01*
X141565473Y-78555903D01*
X141565476Y-78555908D01*
X141660958Y-78721288D01*
X141660965Y-78721298D01*
X141788744Y-78863211D01*
X141788747Y-78863213D01*
X141943248Y-78975465D01*
X142117712Y-79053141D01*
X142304513Y-79092847D01*
X142495487Y-79092847D01*
X142682288Y-79053141D01*
X142856752Y-78975465D01*
X143011253Y-78863213D01*
X143139040Y-78721291D01*
X143234527Y-78555903D01*
X143293542Y-78374275D01*
X143309966Y-78218012D01*
X143636496Y-78218012D01*
X143656457Y-78407939D01*
X143684404Y-78493949D01*
X143715473Y-78589568D01*
X143715476Y-78589573D01*
X143810958Y-78754953D01*
X143810965Y-78754963D01*
X143938744Y-78896876D01*
X143938747Y-78896878D01*
X144093248Y-79009130D01*
X144267712Y-79086806D01*
X144454513Y-79126512D01*
X144645487Y-79126512D01*
X144832288Y-79086806D01*
X145006752Y-79009130D01*
X145161253Y-78896878D01*
X145198015Y-78856050D01*
X145289034Y-78754963D01*
X145289035Y-78754961D01*
X145289040Y-78754956D01*
X145384527Y-78589568D01*
X145443542Y-78407940D01*
X145463504Y-78218012D01*
X145443542Y-78028084D01*
X145384527Y-77846456D01*
X145289040Y-77681068D01*
X145289038Y-77681066D01*
X145289034Y-77681060D01*
X145161255Y-77539147D01*
X145006752Y-77426894D01*
X144832288Y-77349218D01*
X144645487Y-77309512D01*
X144454513Y-77309512D01*
X144267711Y-77349218D01*
X144093247Y-77426894D01*
X143938744Y-77539147D01*
X143810965Y-77681060D01*
X143810958Y-77681070D01*
X143715476Y-77846450D01*
X143715473Y-77846456D01*
X143703994Y-77881784D01*
X143656457Y-78028084D01*
X143636496Y-78218012D01*
X143309966Y-78218012D01*
X143313504Y-78184347D01*
X143293542Y-77994419D01*
X143234527Y-77812791D01*
X143139040Y-77647403D01*
X143139038Y-77647401D01*
X143139034Y-77647395D01*
X143011255Y-77505482D01*
X142856752Y-77393229D01*
X142682288Y-77315553D01*
X142495487Y-77275847D01*
X142304513Y-77275847D01*
X142117711Y-77315553D01*
X141943247Y-77393229D01*
X141788744Y-77505482D01*
X141660965Y-77647395D01*
X141660958Y-77647405D01*
X141565476Y-77812785D01*
X141565473Y-77812791D01*
X141554534Y-77846457D01*
X141506457Y-77994419D01*
X141486496Y-78184347D01*
X126109068Y-78184347D01*
X126039040Y-78063056D01*
X126039038Y-78063054D01*
X126039034Y-78063048D01*
X125911255Y-77921135D01*
X125756752Y-77808882D01*
X125582288Y-77731206D01*
X125395487Y-77691500D01*
X125204513Y-77691500D01*
X125017711Y-77731206D01*
X124843247Y-77808882D01*
X124688744Y-77921135D01*
X124560965Y-78063048D01*
X124560958Y-78063058D01*
X124465476Y-78228438D01*
X124465473Y-78228445D01*
X124406457Y-78410072D01*
X124386496Y-78599999D01*
X123903521Y-78599999D01*
X123933043Y-78553015D01*
X123993217Y-78381047D01*
X124013616Y-78200000D01*
X123993217Y-78018953D01*
X123933043Y-77846985D01*
X123933041Y-77846982D01*
X123933041Y-77846981D01*
X123836112Y-77692720D01*
X123836111Y-77692718D01*
X123707281Y-77563888D01*
X123707279Y-77563887D01*
X123553018Y-77466958D01*
X123553015Y-77466957D01*
X123381050Y-77406784D01*
X123381049Y-77406783D01*
X123381047Y-77406783D01*
X123200000Y-77386384D01*
X123018953Y-77406783D01*
X123018950Y-77406783D01*
X123018949Y-77406784D01*
X122846984Y-77466957D01*
X122846981Y-77466958D01*
X122692720Y-77563887D01*
X122692718Y-77563888D01*
X122563888Y-77692718D01*
X122563887Y-77692720D01*
X122466958Y-77846981D01*
X122466957Y-77846984D01*
X122415368Y-77994419D01*
X122406783Y-78018953D01*
X122386384Y-78200000D01*
X112106395Y-78200000D01*
X112086112Y-78167720D01*
X112086111Y-78167718D01*
X111957281Y-78038888D01*
X111957279Y-78038887D01*
X111803018Y-77941958D01*
X111803015Y-77941957D01*
X111631050Y-77881784D01*
X111631049Y-77881783D01*
X111631047Y-77881783D01*
X111450000Y-77861384D01*
X111268953Y-77881783D01*
X111268950Y-77881783D01*
X111268949Y-77881784D01*
X111096984Y-77941957D01*
X111096981Y-77941958D01*
X110942720Y-78038887D01*
X110942718Y-78038888D01*
X110813888Y-78167718D01*
X110813887Y-78167720D01*
X110716958Y-78321981D01*
X110716957Y-78321984D01*
X110716957Y-78321985D01*
X110656783Y-78493953D01*
X110636384Y-78675000D01*
X99850500Y-78675000D01*
X99850500Y-76050000D01*
X146886384Y-76050000D01*
X146906783Y-76231047D01*
X146906783Y-76231049D01*
X146906784Y-76231050D01*
X146966957Y-76403015D01*
X146966958Y-76403018D01*
X147063887Y-76557279D01*
X147063888Y-76557281D01*
X147192718Y-76686111D01*
X147192720Y-76686112D01*
X147346981Y-76783041D01*
X147346982Y-76783041D01*
X147346985Y-76783043D01*
X147518953Y-76843217D01*
X147700000Y-76863616D01*
X147881047Y-76843217D01*
X148053015Y-76783043D01*
X148207281Y-76686111D01*
X148336111Y-76557281D01*
X148433043Y-76403015D01*
X148493217Y-76231047D01*
X148513616Y-76050000D01*
X148493217Y-75868953D01*
X148433043Y-75696985D01*
X148433041Y-75696982D01*
X148433041Y-75696981D01*
X148336112Y-75542720D01*
X148336111Y-75542718D01*
X148207281Y-75413888D01*
X148207279Y-75413887D01*
X148053018Y-75316958D01*
X148053015Y-75316957D01*
X148004555Y-75300000D01*
X155111496Y-75300000D01*
X155131457Y-75489927D01*
X155148611Y-75542719D01*
X155190473Y-75671556D01*
X155218841Y-75720691D01*
X155285958Y-75836941D01*
X155285965Y-75836951D01*
X155413744Y-75978864D01*
X155413747Y-75978866D01*
X155568248Y-76091118D01*
X155742712Y-76168794D01*
X155929513Y-76208500D01*
X156120487Y-76208500D01*
X156307288Y-76168794D01*
X156481752Y-76091118D01*
X156636253Y-75978866D01*
X156764040Y-75836944D01*
X156859527Y-75671556D01*
X156918542Y-75489928D01*
X156938504Y-75300000D01*
X156918542Y-75110072D01*
X156859527Y-74928444D01*
X156764040Y-74763056D01*
X156764038Y-74763054D01*
X156764034Y-74763048D01*
X156636255Y-74621135D01*
X156481752Y-74508882D01*
X156307288Y-74431206D01*
X156120487Y-74391500D01*
X155929513Y-74391500D01*
X155742711Y-74431206D01*
X155568247Y-74508882D01*
X155413744Y-74621135D01*
X155285965Y-74763048D01*
X155285958Y-74763058D01*
X155190476Y-74928438D01*
X155190473Y-74928444D01*
X155188979Y-74933042D01*
X155131457Y-75110072D01*
X155111496Y-75300000D01*
X148004555Y-75300000D01*
X147881050Y-75256784D01*
X147881049Y-75256783D01*
X147881047Y-75256783D01*
X147700000Y-75236384D01*
X147518953Y-75256783D01*
X147518950Y-75256783D01*
X147518949Y-75256784D01*
X147346984Y-75316957D01*
X147346981Y-75316958D01*
X147192720Y-75413887D01*
X147192718Y-75413888D01*
X147063888Y-75542718D01*
X147063887Y-75542720D01*
X146966958Y-75696981D01*
X146966957Y-75696984D01*
X146966957Y-75696985D01*
X146906783Y-75868953D01*
X146886384Y-76050000D01*
X99850500Y-76050000D01*
X99850500Y-74200000D01*
X106636384Y-74200000D01*
X106656783Y-74381047D01*
X106656783Y-74381049D01*
X106656784Y-74381050D01*
X106716957Y-74553015D01*
X106716958Y-74553018D01*
X106813887Y-74707279D01*
X106813888Y-74707281D01*
X106942718Y-74836111D01*
X106942720Y-74836112D01*
X107096981Y-74933041D01*
X107096982Y-74933041D01*
X107096985Y-74933043D01*
X107268953Y-74993217D01*
X107450000Y-75013616D01*
X107631047Y-74993217D01*
X107803015Y-74933043D01*
X107957281Y-74836111D01*
X108086111Y-74707281D01*
X108183043Y-74553015D01*
X108243217Y-74381047D01*
X108263616Y-74200000D01*
X108243217Y-74018953D01*
X108183043Y-73846985D01*
X108183041Y-73846982D01*
X108183041Y-73846981D01*
X108086112Y-73692720D01*
X108086111Y-73692718D01*
X107957281Y-73563888D01*
X107957279Y-73563887D01*
X107803018Y-73466958D01*
X107803015Y-73466957D01*
X107631050Y-73406784D01*
X107631049Y-73406783D01*
X107631047Y-73406783D01*
X107450000Y-73386384D01*
X107268953Y-73406783D01*
X107268950Y-73406783D01*
X107268949Y-73406784D01*
X107096984Y-73466957D01*
X107096981Y-73466958D01*
X106942720Y-73563887D01*
X106942718Y-73563888D01*
X106813888Y-73692718D01*
X106813887Y-73692720D01*
X106716958Y-73846981D01*
X106716957Y-73846984D01*
X106664621Y-73996554D01*
X106656783Y-74018953D01*
X106636384Y-74200000D01*
X99850500Y-74200000D01*
X99850500Y-72825000D01*
X110836496Y-72825000D01*
X110856457Y-73014927D01*
X110886526Y-73107470D01*
X110915473Y-73196556D01*
X110915476Y-73196561D01*
X111010958Y-73361941D01*
X111010965Y-73361951D01*
X111138744Y-73503864D01*
X111138747Y-73503866D01*
X111293248Y-73616118D01*
X111467712Y-73693794D01*
X111654513Y-73733500D01*
X111845487Y-73733500D01*
X112032288Y-73693794D01*
X112186805Y-73624999D01*
X121136496Y-73624999D01*
X121156457Y-73814927D01*
X121180729Y-73889625D01*
X121215473Y-73996556D01*
X121215476Y-73996561D01*
X121310958Y-74161941D01*
X121310965Y-74161951D01*
X121438744Y-74303864D01*
X121438747Y-74303866D01*
X121593248Y-74416118D01*
X121767712Y-74493794D01*
X121954513Y-74533500D01*
X122145487Y-74533500D01*
X122332288Y-74493794D01*
X122506752Y-74416118D01*
X122661253Y-74303866D01*
X122734621Y-74222383D01*
X122789034Y-74161951D01*
X122789035Y-74161949D01*
X122789040Y-74161944D01*
X122884527Y-73996556D01*
X122943542Y-73814928D01*
X122960876Y-73650000D01*
X132536496Y-73650000D01*
X132556457Y-73839927D01*
X132572606Y-73889627D01*
X132615473Y-74021556D01*
X132615476Y-74021561D01*
X132710958Y-74186941D01*
X132710965Y-74186951D01*
X132838744Y-74328864D01*
X132852007Y-74338500D01*
X132993248Y-74441118D01*
X133167712Y-74518794D01*
X133354513Y-74558500D01*
X133545487Y-74558500D01*
X133732288Y-74518794D01*
X133906752Y-74441118D01*
X134061253Y-74328866D01*
X134087913Y-74299257D01*
X134189034Y-74186951D01*
X134189035Y-74186949D01*
X134189040Y-74186944D01*
X134284527Y-74021556D01*
X134343542Y-73839928D01*
X134363504Y-73650000D01*
X134343542Y-73460072D01*
X134284527Y-73278444D01*
X134189040Y-73113056D01*
X134189038Y-73113054D01*
X134189034Y-73113048D01*
X134061255Y-72971135D01*
X134032165Y-72950000D01*
X137286496Y-72950000D01*
X137306457Y-73139927D01*
X137324859Y-73196561D01*
X137365473Y-73321556D01*
X137365476Y-73321561D01*
X137460958Y-73486941D01*
X137460965Y-73486951D01*
X137588744Y-73628864D01*
X137588747Y-73628866D01*
X137743248Y-73741118D01*
X137917712Y-73818794D01*
X138104513Y-73858500D01*
X138295487Y-73858500D01*
X138482288Y-73818794D01*
X138656752Y-73741118D01*
X138811253Y-73628866D01*
X138814735Y-73624999D01*
X138939034Y-73486951D01*
X138939035Y-73486949D01*
X138939040Y-73486944D01*
X138972611Y-73428797D01*
X156882793Y-73428797D01*
X156903489Y-73563889D01*
X156912313Y-73621489D01*
X156956619Y-73741118D01*
X156980018Y-73804297D01*
X157002227Y-73839928D01*
X157083133Y-73969729D01*
X157217440Y-74111020D01*
X157217443Y-74111022D01*
X157217444Y-74111023D01*
X157377437Y-74222382D01*
X157377438Y-74222382D01*
X157377439Y-74222383D01*
X157556581Y-74299259D01*
X157747530Y-74338500D01*
X157747532Y-74338500D01*
X158993607Y-74338500D01*
X158993608Y-74338500D01*
X158993609Y-74338499D01*
X158993626Y-74338499D01*
X159138932Y-74323722D01*
X159138932Y-74323721D01*
X159138940Y-74323721D01*
X159324939Y-74265363D01*
X159495384Y-74170759D01*
X159643297Y-74043780D01*
X159762620Y-73889627D01*
X159848471Y-73714609D01*
X159897333Y-73525892D01*
X159897333Y-73525886D01*
X159897334Y-73525884D01*
X159902257Y-73428797D01*
X161202793Y-73428797D01*
X161223489Y-73563889D01*
X161232313Y-73621489D01*
X161276619Y-73741118D01*
X161300018Y-73804297D01*
X161322227Y-73839928D01*
X161403133Y-73969729D01*
X161537440Y-74111020D01*
X161537443Y-74111022D01*
X161537444Y-74111023D01*
X161697437Y-74222382D01*
X161697438Y-74222382D01*
X161697439Y-74222383D01*
X161876581Y-74299259D01*
X162067530Y-74338500D01*
X162067532Y-74338500D01*
X163013607Y-74338500D01*
X163013608Y-74338500D01*
X163013609Y-74338499D01*
X163013626Y-74338499D01*
X163158932Y-74323722D01*
X163158932Y-74323721D01*
X163158940Y-74323721D01*
X163344939Y-74265363D01*
X163515384Y-74170759D01*
X163663297Y-74043780D01*
X163782620Y-73889627D01*
X163868471Y-73714609D01*
X163917333Y-73525892D01*
X163917333Y-73525886D01*
X163917334Y-73525884D01*
X163927206Y-73331202D01*
X163906579Y-73196556D01*
X163897687Y-73138511D01*
X163829983Y-72955705D01*
X163726867Y-72790271D01*
X163592560Y-72648980D01*
X163592556Y-72648977D01*
X163592555Y-72648976D01*
X163432562Y-72537617D01*
X163253422Y-72460742D01*
X163253420Y-72460741D01*
X163253419Y-72460741D01*
X163062470Y-72421500D01*
X162116392Y-72421500D01*
X162116373Y-72421500D01*
X161971067Y-72436277D01*
X161971065Y-72436278D01*
X161971062Y-72436278D01*
X161971060Y-72436279D01*
X161851188Y-72473889D01*
X161785060Y-72494637D01*
X161614615Y-72589241D01*
X161614614Y-72589241D01*
X161466707Y-72716215D01*
X161466702Y-72716221D01*
X161347379Y-72870374D01*
X161261530Y-73045388D01*
X161261529Y-73045391D01*
X161212666Y-73234112D01*
X161212665Y-73234115D01*
X161202793Y-73428797D01*
X159902257Y-73428797D01*
X159907206Y-73331202D01*
X159886579Y-73196556D01*
X159877687Y-73138511D01*
X159809983Y-72955705D01*
X159706867Y-72790271D01*
X159572560Y-72648980D01*
X159572556Y-72648977D01*
X159572555Y-72648976D01*
X159412562Y-72537617D01*
X159233422Y-72460742D01*
X159233420Y-72460741D01*
X159233419Y-72460741D01*
X159042470Y-72421500D01*
X157796392Y-72421500D01*
X157796373Y-72421500D01*
X157651067Y-72436277D01*
X157651065Y-72436278D01*
X157651062Y-72436278D01*
X157651060Y-72436279D01*
X157531188Y-72473889D01*
X157465060Y-72494637D01*
X157294615Y-72589241D01*
X157294614Y-72589241D01*
X157146707Y-72716215D01*
X157146702Y-72716221D01*
X157027379Y-72870374D01*
X156941530Y-73045388D01*
X156941529Y-73045391D01*
X156892666Y-73234112D01*
X156892665Y-73234115D01*
X156882793Y-73428797D01*
X138972611Y-73428797D01*
X139034527Y-73321556D01*
X139093542Y-73139928D01*
X139113504Y-72950000D01*
X139093542Y-72760072D01*
X139034527Y-72578444D01*
X138939040Y-72413056D01*
X138939038Y-72413054D01*
X138939034Y-72413048D01*
X138811255Y-72271135D01*
X138656752Y-72158882D01*
X138482288Y-72081206D01*
X138295487Y-72041500D01*
X138104513Y-72041500D01*
X137917711Y-72081206D01*
X137743247Y-72158882D01*
X137588744Y-72271135D01*
X137460965Y-72413048D01*
X137460958Y-72413058D01*
X137365476Y-72578438D01*
X137365473Y-72578445D01*
X137306457Y-72760072D01*
X137286496Y-72950000D01*
X134032165Y-72950000D01*
X133906752Y-72858882D01*
X133732288Y-72781206D01*
X133545487Y-72741500D01*
X133354513Y-72741500D01*
X133167711Y-72781206D01*
X132993247Y-72858882D01*
X132838744Y-72971135D01*
X132710965Y-73113048D01*
X132710958Y-73113058D01*
X132615476Y-73278438D01*
X132615473Y-73278445D01*
X132556457Y-73460072D01*
X132536496Y-73650000D01*
X122960876Y-73650000D01*
X122963504Y-73625000D01*
X122943542Y-73435072D01*
X122884527Y-73253444D01*
X122789040Y-73088056D01*
X122789038Y-73088054D01*
X122789034Y-73088048D01*
X122661255Y-72946135D01*
X122506752Y-72833882D01*
X122332288Y-72756206D01*
X122145487Y-72716500D01*
X121954513Y-72716500D01*
X121767711Y-72756206D01*
X121593247Y-72833882D01*
X121438744Y-72946135D01*
X121310965Y-73088048D01*
X121310958Y-73088058D01*
X121215476Y-73253438D01*
X121215473Y-73253445D01*
X121156457Y-73435072D01*
X121136496Y-73624999D01*
X112186805Y-73624999D01*
X112206752Y-73616118D01*
X112361253Y-73503866D01*
X112361255Y-73503864D01*
X112489034Y-73361951D01*
X112489035Y-73361949D01*
X112489040Y-73361944D01*
X112584527Y-73196556D01*
X112643542Y-73014928D01*
X112663504Y-72825000D01*
X112643542Y-72635072D01*
X112584527Y-72453444D01*
X112489040Y-72288056D01*
X112489038Y-72288054D01*
X112489034Y-72288048D01*
X112361255Y-72146135D01*
X112206752Y-72033882D01*
X112032288Y-71956206D01*
X111845487Y-71916500D01*
X111654513Y-71916500D01*
X111467711Y-71956206D01*
X111293247Y-72033882D01*
X111138744Y-72146135D01*
X111010965Y-72288048D01*
X111010958Y-72288058D01*
X110915476Y-72453438D01*
X110915473Y-72453445D01*
X110856457Y-72635072D01*
X110836496Y-72825000D01*
X99850500Y-72825000D01*
X99850500Y-71025000D01*
X129536384Y-71025000D01*
X129556783Y-71206047D01*
X129556783Y-71206049D01*
X129556784Y-71206050D01*
X129616957Y-71378015D01*
X129616958Y-71378018D01*
X129713887Y-71532279D01*
X129713888Y-71532281D01*
X129842718Y-71661111D01*
X129842720Y-71661112D01*
X129996981Y-71758041D01*
X129996982Y-71758041D01*
X129996985Y-71758043D01*
X130168953Y-71818217D01*
X130350000Y-71838616D01*
X130531047Y-71818217D01*
X130703015Y-71758043D01*
X130857281Y-71661111D01*
X130986111Y-71532281D01*
X131083043Y-71378015D01*
X131143217Y-71206047D01*
X131163616Y-71025000D01*
X131143217Y-70843953D01*
X131083043Y-70671985D01*
X131083041Y-70671982D01*
X131083041Y-70671981D01*
X130986112Y-70517720D01*
X130986111Y-70517718D01*
X130857281Y-70388888D01*
X130857279Y-70388887D01*
X130703018Y-70291958D01*
X130703015Y-70291957D01*
X130531050Y-70231784D01*
X130531049Y-70231783D01*
X130531047Y-70231783D01*
X130350000Y-70211384D01*
X130168953Y-70231783D01*
X130168950Y-70231783D01*
X130168949Y-70231784D01*
X129996984Y-70291957D01*
X129996981Y-70291958D01*
X129842720Y-70388887D01*
X129842718Y-70388888D01*
X129713888Y-70517718D01*
X129713887Y-70517720D01*
X129616958Y-70671981D01*
X129616957Y-70671984D01*
X129616957Y-70671985D01*
X129556783Y-70843953D01*
X129536384Y-71025000D01*
X99850500Y-71025000D01*
X99850500Y-69825000D01*
X121711384Y-69825000D01*
X121731783Y-70006047D01*
X121731783Y-70006049D01*
X121731784Y-70006050D01*
X121791957Y-70178015D01*
X121791958Y-70178018D01*
X121888887Y-70332279D01*
X121888888Y-70332281D01*
X122017718Y-70461111D01*
X122017720Y-70461112D01*
X122171981Y-70558041D01*
X122171982Y-70558041D01*
X122171985Y-70558043D01*
X122343953Y-70618217D01*
X122525000Y-70638616D01*
X122706047Y-70618217D01*
X122878015Y-70558043D01*
X123032281Y-70461111D01*
X123161111Y-70332281D01*
X123258043Y-70178015D01*
X123318217Y-70006047D01*
X123338616Y-69825000D01*
X123318217Y-69643953D01*
X123258043Y-69471985D01*
X123258041Y-69471982D01*
X123258041Y-69471981D01*
X123161112Y-69317720D01*
X123161111Y-69317718D01*
X123032281Y-69188888D01*
X123032279Y-69188887D01*
X122878018Y-69091958D01*
X122878015Y-69091957D01*
X122706050Y-69031784D01*
X122706049Y-69031783D01*
X122706047Y-69031783D01*
X122525000Y-69011384D01*
X122343953Y-69031783D01*
X122343950Y-69031783D01*
X122343949Y-69031784D01*
X122171984Y-69091957D01*
X122171981Y-69091958D01*
X122017720Y-69188887D01*
X122017718Y-69188888D01*
X121888888Y-69317718D01*
X121888887Y-69317720D01*
X121791958Y-69471981D01*
X121791957Y-69471984D01*
X121791957Y-69471985D01*
X121731783Y-69643953D01*
X121711384Y-69825000D01*
X99850500Y-69825000D01*
X99850500Y-66699499D01*
X99850459Y-66699458D01*
X99849028Y-66699457D01*
X99417015Y-66680595D01*
X99411540Y-66680116D01*
X99352435Y-66672334D01*
X99064030Y-66634365D01*
X98982132Y-66623377D01*
X98976871Y-66622443D01*
X98683347Y-66557370D01*
X98616760Y-66542320D01*
X98552411Y-66527776D01*
X98547372Y-66526414D01*
X98281647Y-66442632D01*
X98132805Y-66394757D01*
X98127985Y-66392987D01*
X97881852Y-66291036D01*
X97726530Y-66225347D01*
X97721986Y-66223208D01*
X97492482Y-66103735D01*
X97425230Y-66067948D01*
X97336754Y-66020867D01*
X97332497Y-66018384D01*
X97118721Y-65882194D01*
X96966474Y-65782895D01*
X96962558Y-65780121D01*
X96764497Y-65628144D01*
X96618597Y-65513301D01*
X96615000Y-65510244D01*
X96433054Y-65343521D01*
X96295790Y-65214162D01*
X96292549Y-65210875D01*
X96127360Y-65030604D01*
X96000541Y-64887783D01*
X95997675Y-64884312D01*
X95849922Y-64691757D01*
X95781002Y-64598649D01*
X123141500Y-64598649D01*
X123148009Y-64659196D01*
X123148011Y-64659204D01*
X123199110Y-64796202D01*
X123199112Y-64796207D01*
X123286738Y-64913261D01*
X123403792Y-65000887D01*
X123403794Y-65000888D01*
X123403796Y-65000889D01*
X123457600Y-65020957D01*
X123540795Y-65051988D01*
X123540803Y-65051990D01*
X123601350Y-65058499D01*
X123601355Y-65058499D01*
X123601362Y-65058500D01*
X123601368Y-65058500D01*
X125398632Y-65058500D01*
X125398638Y-65058500D01*
X125398645Y-65058499D01*
X125398649Y-65058499D01*
X125459196Y-65051990D01*
X125459199Y-65051989D01*
X125459201Y-65051989D01*
X125596204Y-65000889D01*
X125666399Y-64948342D01*
X125713261Y-64913261D01*
X125800886Y-64796208D01*
X125800885Y-64796208D01*
X125800889Y-64796204D01*
X125844999Y-64677939D01*
X125887545Y-64621107D01*
X125954066Y-64596296D01*
X126023440Y-64611388D01*
X126055753Y-64636635D01*
X126076529Y-64659204D01*
X126116762Y-64702908D01*
X126171331Y-64745381D01*
X126294424Y-64841189D01*
X126492426Y-64948342D01*
X126492427Y-64948342D01*
X126492428Y-64948343D01*
X126604227Y-64986723D01*
X126705365Y-65021444D01*
X126927431Y-65058500D01*
X126927435Y-65058500D01*
X127152565Y-65058500D01*
X127152569Y-65058500D01*
X127374635Y-65021444D01*
X127587574Y-64948342D01*
X127785576Y-64841189D01*
X127963240Y-64702906D01*
X128115722Y-64537268D01*
X128204518Y-64401354D01*
X128258520Y-64355268D01*
X128328868Y-64345692D01*
X128393225Y-64375669D01*
X128415480Y-64401353D01*
X128448607Y-64452058D01*
X128504275Y-64537265D01*
X128504279Y-64537270D01*
X128656762Y-64702908D01*
X128711331Y-64745381D01*
X128834424Y-64841189D01*
X129032426Y-64948342D01*
X129032427Y-64948342D01*
X129032428Y-64948343D01*
X129144227Y-64986723D01*
X129245365Y-65021444D01*
X129467431Y-65058500D01*
X129467435Y-65058500D01*
X129692565Y-65058500D01*
X129692569Y-65058500D01*
X129914635Y-65021444D01*
X130127574Y-64948342D01*
X130325576Y-64841189D01*
X130503240Y-64702906D01*
X130655722Y-64537268D01*
X130744816Y-64400898D01*
X130798819Y-64354810D01*
X130869167Y-64345235D01*
X130933524Y-64375212D01*
X130955782Y-64400898D01*
X131044674Y-64536958D01*
X131197097Y-64702534D01*
X131374698Y-64840767D01*
X131374699Y-64840768D01*
X131572628Y-64947882D01*
X131572630Y-64947883D01*
X131785483Y-65020955D01*
X131785492Y-65020957D01*
X131866000Y-65034391D01*
X131866000Y-64314033D01*
X131886002Y-64245912D01*
X131939658Y-64199419D01*
X132009926Y-64189315D01*
X132084237Y-64200000D01*
X132155763Y-64200000D01*
X132230068Y-64189316D01*
X132300340Y-64199419D01*
X132353996Y-64245911D01*
X132373999Y-64314031D01*
X132373999Y-65034391D01*
X132454507Y-65020957D01*
X132454516Y-65020955D01*
X132667369Y-64947883D01*
X132667371Y-64947882D01*
X132865300Y-64840768D01*
X132865301Y-64840767D01*
X133042902Y-64702534D01*
X133138535Y-64598649D01*
X134641500Y-64598649D01*
X134648009Y-64659196D01*
X134648011Y-64659204D01*
X134699110Y-64796202D01*
X134699112Y-64796207D01*
X134786738Y-64913261D01*
X134903792Y-65000887D01*
X134903794Y-65000888D01*
X134903796Y-65000889D01*
X134957600Y-65020957D01*
X135040795Y-65051988D01*
X135040803Y-65051990D01*
X135101350Y-65058499D01*
X135101355Y-65058499D01*
X135101362Y-65058500D01*
X135101368Y-65058500D01*
X136898632Y-65058500D01*
X136898638Y-65058500D01*
X136898645Y-65058499D01*
X136898649Y-65058499D01*
X136959196Y-65051990D01*
X136959199Y-65051989D01*
X136959201Y-65051989D01*
X137096204Y-65000889D01*
X137166399Y-64948342D01*
X137213261Y-64913261D01*
X137300886Y-64796208D01*
X137300885Y-64796208D01*
X137300889Y-64796204D01*
X137344999Y-64677939D01*
X137387545Y-64621107D01*
X137454066Y-64596296D01*
X137523440Y-64611388D01*
X137555753Y-64636635D01*
X137576529Y-64659204D01*
X137616762Y-64702908D01*
X137671331Y-64745381D01*
X137794424Y-64841189D01*
X137992426Y-64948342D01*
X137992427Y-64948342D01*
X137992428Y-64948343D01*
X138104227Y-64986723D01*
X138205365Y-65021444D01*
X138427431Y-65058500D01*
X138427435Y-65058500D01*
X138652565Y-65058500D01*
X138652569Y-65058500D01*
X138874635Y-65021444D01*
X139087574Y-64948342D01*
X139285576Y-64841189D01*
X139463240Y-64702906D01*
X139615722Y-64537268D01*
X139704518Y-64401354D01*
X139758520Y-64355268D01*
X139828868Y-64345692D01*
X139893225Y-64375669D01*
X139915480Y-64401353D01*
X139948607Y-64452058D01*
X140004275Y-64537265D01*
X140004279Y-64537270D01*
X140156762Y-64702908D01*
X140211331Y-64745381D01*
X140334424Y-64841189D01*
X140532426Y-64948342D01*
X140532427Y-64948342D01*
X140532428Y-64948343D01*
X140644227Y-64986723D01*
X140745365Y-65021444D01*
X140967431Y-65058500D01*
X140967435Y-65058500D01*
X141192565Y-65058500D01*
X141192569Y-65058500D01*
X141414635Y-65021444D01*
X141627574Y-64948342D01*
X141825576Y-64841189D01*
X142003240Y-64702906D01*
X142155722Y-64537268D01*
X142244816Y-64400898D01*
X142298819Y-64354810D01*
X142369167Y-64345235D01*
X142433524Y-64375212D01*
X142455782Y-64400898D01*
X142544674Y-64536958D01*
X142697097Y-64702534D01*
X142874698Y-64840767D01*
X142874699Y-64840768D01*
X143072628Y-64947882D01*
X143072630Y-64947883D01*
X143285483Y-65020955D01*
X143285492Y-65020957D01*
X143366000Y-65034391D01*
X143366000Y-64314033D01*
X143386002Y-64245912D01*
X143439658Y-64199419D01*
X143509926Y-64189315D01*
X143584237Y-64200000D01*
X143655763Y-64200000D01*
X143730069Y-64189316D01*
X143800341Y-64199419D01*
X143853997Y-64245911D01*
X143874000Y-64314031D01*
X143874000Y-65034390D01*
X143954507Y-65020957D01*
X143954516Y-65020955D01*
X144167369Y-64947883D01*
X144167371Y-64947882D01*
X144365300Y-64840768D01*
X144365301Y-64840767D01*
X144542902Y-64702534D01*
X144638535Y-64598649D01*
X146141500Y-64598649D01*
X146148009Y-64659196D01*
X146148011Y-64659204D01*
X146199110Y-64796202D01*
X146199112Y-64796207D01*
X146286738Y-64913261D01*
X146403792Y-65000887D01*
X146403794Y-65000888D01*
X146403796Y-65000889D01*
X146457600Y-65020957D01*
X146540795Y-65051988D01*
X146540803Y-65051990D01*
X146601350Y-65058499D01*
X146601355Y-65058499D01*
X146601362Y-65058500D01*
X146601368Y-65058500D01*
X148398632Y-65058500D01*
X148398638Y-65058500D01*
X148398645Y-65058499D01*
X148398649Y-65058499D01*
X148459196Y-65051990D01*
X148459199Y-65051989D01*
X148459201Y-65051989D01*
X148596204Y-65000889D01*
X148666399Y-64948342D01*
X148713261Y-64913261D01*
X148800886Y-64796208D01*
X148800885Y-64796208D01*
X148800889Y-64796204D01*
X148844999Y-64677939D01*
X148887545Y-64621107D01*
X148954066Y-64596296D01*
X149023440Y-64611388D01*
X149055753Y-64636635D01*
X149076529Y-64659204D01*
X149116762Y-64702908D01*
X149171331Y-64745381D01*
X149294424Y-64841189D01*
X149492426Y-64948342D01*
X149492427Y-64948342D01*
X149492428Y-64948343D01*
X149604227Y-64986723D01*
X149705365Y-65021444D01*
X149927431Y-65058500D01*
X149927435Y-65058500D01*
X150152565Y-65058500D01*
X150152569Y-65058500D01*
X150374635Y-65021444D01*
X150587574Y-64948342D01*
X150785576Y-64841189D01*
X150963240Y-64702906D01*
X151115722Y-64537268D01*
X151204518Y-64401354D01*
X151258520Y-64355268D01*
X151328868Y-64345692D01*
X151393225Y-64375669D01*
X151415480Y-64401353D01*
X151448607Y-64452058D01*
X151504275Y-64537265D01*
X151504279Y-64537270D01*
X151656762Y-64702908D01*
X151711331Y-64745381D01*
X151834424Y-64841189D01*
X152032426Y-64948342D01*
X152032427Y-64948342D01*
X152032428Y-64948343D01*
X152144227Y-64986723D01*
X152245365Y-65021444D01*
X152467431Y-65058500D01*
X152467435Y-65058500D01*
X152692565Y-65058500D01*
X152692569Y-65058500D01*
X152914635Y-65021444D01*
X153127574Y-64948342D01*
X153325576Y-64841189D01*
X153503240Y-64702906D01*
X153655722Y-64537268D01*
X153744816Y-64400898D01*
X153798819Y-64354810D01*
X153869167Y-64345235D01*
X153933524Y-64375212D01*
X153955782Y-64400898D01*
X154044674Y-64536958D01*
X154197097Y-64702534D01*
X154374698Y-64840767D01*
X154374699Y-64840768D01*
X154572628Y-64947882D01*
X154572630Y-64947883D01*
X154785483Y-65020955D01*
X154785492Y-65020957D01*
X154866000Y-65034391D01*
X154866000Y-64314033D01*
X154886002Y-64245912D01*
X154939658Y-64199419D01*
X155009926Y-64189315D01*
X155084237Y-64200000D01*
X155155763Y-64200000D01*
X155230069Y-64189316D01*
X155300341Y-64199419D01*
X155353997Y-64245911D01*
X155374000Y-64314031D01*
X155374000Y-65034390D01*
X155454507Y-65020957D01*
X155454516Y-65020955D01*
X155667369Y-64947883D01*
X155667371Y-64947882D01*
X155865300Y-64840768D01*
X155865301Y-64840767D01*
X156042902Y-64702534D01*
X156195325Y-64536958D01*
X156318419Y-64348548D01*
X156408820Y-64142456D01*
X156408823Y-64142449D01*
X156456544Y-63954000D01*
X155734844Y-63954000D01*
X155666723Y-63933998D01*
X155620230Y-63880342D01*
X155610126Y-63810068D01*
X155613947Y-63792504D01*
X155620000Y-63771888D01*
X155620000Y-63628111D01*
X155613947Y-63607496D01*
X155613948Y-63536500D01*
X155652333Y-63476774D01*
X155716914Y-63447282D01*
X155734844Y-63446000D01*
X156456544Y-63446000D01*
X156456544Y-63445999D01*
X156408823Y-63257550D01*
X156408820Y-63257543D01*
X156318419Y-63051451D01*
X156195325Y-62863041D01*
X156042902Y-62697465D01*
X155865301Y-62559232D01*
X155865300Y-62559231D01*
X155667371Y-62452117D01*
X155667369Y-62452116D01*
X155454512Y-62379043D01*
X155454501Y-62379040D01*
X155374000Y-62365606D01*
X155374000Y-63085966D01*
X155353998Y-63154087D01*
X155300342Y-63200580D01*
X155230069Y-63210683D01*
X155230068Y-63210683D01*
X155155768Y-63200000D01*
X155155763Y-63200000D01*
X155084237Y-63200000D01*
X155084231Y-63200000D01*
X155009932Y-63210683D01*
X154939658Y-63200580D01*
X154886002Y-63154087D01*
X154866000Y-63085966D01*
X154866000Y-62365607D01*
X154865999Y-62365606D01*
X154785498Y-62379040D01*
X154785487Y-62379043D01*
X154572630Y-62452116D01*
X154572628Y-62452117D01*
X154374699Y-62559231D01*
X154374698Y-62559232D01*
X154197097Y-62697465D01*
X154044670Y-62863045D01*
X153955780Y-62999101D01*
X153901776Y-63045189D01*
X153831428Y-63054764D01*
X153767071Y-63024786D01*
X153744816Y-62999101D01*
X153695520Y-62923647D01*
X153655724Y-62862734D01*
X153655720Y-62862729D01*
X153512020Y-62706632D01*
X153503240Y-62697094D01*
X153503239Y-62697093D01*
X153503237Y-62697091D01*
X153383367Y-62603792D01*
X153325576Y-62558811D01*
X153127574Y-62451658D01*
X153127572Y-62451657D01*
X153127571Y-62451656D01*
X152914639Y-62378557D01*
X152914630Y-62378555D01*
X152837029Y-62365606D01*
X152692569Y-62341500D01*
X152467431Y-62341500D01*
X152322971Y-62365606D01*
X152245369Y-62378555D01*
X152245360Y-62378557D01*
X152032428Y-62451656D01*
X152032426Y-62451658D01*
X151834426Y-62558810D01*
X151834424Y-62558811D01*
X151656762Y-62697091D01*
X151504279Y-62862729D01*
X151504279Y-62862730D01*
X151415482Y-62998643D01*
X151361478Y-63044731D01*
X151291130Y-63054306D01*
X151226773Y-63024328D01*
X151204516Y-62998642D01*
X151115724Y-62862734D01*
X151115720Y-62862729D01*
X150972020Y-62706632D01*
X150963240Y-62697094D01*
X150963239Y-62697093D01*
X150963237Y-62697091D01*
X150843367Y-62603792D01*
X150785576Y-62558811D01*
X150587574Y-62451658D01*
X150587572Y-62451657D01*
X150587571Y-62451656D01*
X150374639Y-62378557D01*
X150374630Y-62378555D01*
X150297029Y-62365606D01*
X150152569Y-62341500D01*
X149927431Y-62341500D01*
X149782971Y-62365606D01*
X149705369Y-62378555D01*
X149705360Y-62378557D01*
X149492428Y-62451656D01*
X149492426Y-62451658D01*
X149294426Y-62558810D01*
X149294424Y-62558811D01*
X149116762Y-62697091D01*
X149055754Y-62763363D01*
X148994901Y-62799933D01*
X148923936Y-62797798D01*
X148865391Y-62757636D01*
X148844999Y-62722057D01*
X148800889Y-62603797D01*
X148800887Y-62603792D01*
X148713261Y-62486738D01*
X148596207Y-62399112D01*
X148596202Y-62399110D01*
X148459204Y-62348011D01*
X148459196Y-62348009D01*
X148398649Y-62341500D01*
X148398638Y-62341500D01*
X146601362Y-62341500D01*
X146601350Y-62341500D01*
X146540803Y-62348009D01*
X146540795Y-62348011D01*
X146403797Y-62399110D01*
X146403792Y-62399112D01*
X146286738Y-62486738D01*
X146199112Y-62603792D01*
X146199110Y-62603797D01*
X146148011Y-62740795D01*
X146148009Y-62740803D01*
X146141500Y-62801350D01*
X146141500Y-64598649D01*
X144638535Y-64598649D01*
X144695325Y-64536958D01*
X144818419Y-64348548D01*
X144908820Y-64142456D01*
X144908823Y-64142449D01*
X144956544Y-63954000D01*
X144234844Y-63954000D01*
X144166723Y-63933998D01*
X144120230Y-63880342D01*
X144110126Y-63810068D01*
X144113947Y-63792504D01*
X144120000Y-63771888D01*
X144120000Y-63628111D01*
X144113947Y-63607496D01*
X144113948Y-63536500D01*
X144152333Y-63476774D01*
X144216914Y-63447282D01*
X144234844Y-63446000D01*
X144956544Y-63446000D01*
X144956544Y-63445999D01*
X144908823Y-63257550D01*
X144908820Y-63257543D01*
X144818419Y-63051451D01*
X144695325Y-62863041D01*
X144542902Y-62697465D01*
X144365301Y-62559232D01*
X144365300Y-62559231D01*
X144167371Y-62452117D01*
X144167369Y-62452116D01*
X143954512Y-62379043D01*
X143954501Y-62379040D01*
X143874000Y-62365606D01*
X143874000Y-63085966D01*
X143853998Y-63154087D01*
X143800342Y-63200580D01*
X143730069Y-63210683D01*
X143730068Y-63210683D01*
X143655768Y-63200000D01*
X143655763Y-63200000D01*
X143584237Y-63200000D01*
X143584231Y-63200000D01*
X143509932Y-63210683D01*
X143439658Y-63200580D01*
X143386002Y-63154087D01*
X143366000Y-63085966D01*
X143366000Y-62365606D01*
X143365999Y-62365606D01*
X143285498Y-62379040D01*
X143285487Y-62379043D01*
X143072630Y-62452116D01*
X143072628Y-62452117D01*
X142874699Y-62559231D01*
X142874698Y-62559232D01*
X142697097Y-62697465D01*
X142544670Y-62863045D01*
X142455780Y-62999101D01*
X142401776Y-63045189D01*
X142331428Y-63054764D01*
X142267071Y-63024786D01*
X142244816Y-62999101D01*
X142195520Y-62923647D01*
X142155724Y-62862734D01*
X142155720Y-62862729D01*
X142012020Y-62706632D01*
X142003240Y-62697094D01*
X142003239Y-62697093D01*
X142003237Y-62697091D01*
X141883367Y-62603792D01*
X141825576Y-62558811D01*
X141627574Y-62451658D01*
X141627572Y-62451657D01*
X141627571Y-62451656D01*
X141414639Y-62378557D01*
X141414630Y-62378555D01*
X141337029Y-62365606D01*
X141192569Y-62341500D01*
X140967431Y-62341500D01*
X140822971Y-62365606D01*
X140745369Y-62378555D01*
X140745360Y-62378557D01*
X140532428Y-62451656D01*
X140532426Y-62451658D01*
X140334426Y-62558810D01*
X140334424Y-62558811D01*
X140156762Y-62697091D01*
X140004279Y-62862729D01*
X139915483Y-62998643D01*
X139861479Y-63044731D01*
X139791131Y-63054306D01*
X139726774Y-63024329D01*
X139704517Y-62998643D01*
X139625538Y-62877756D01*
X139615722Y-62862732D01*
X139615721Y-62862731D01*
X139615720Y-62862729D01*
X139472020Y-62706632D01*
X139463240Y-62697094D01*
X139463239Y-62697093D01*
X139463237Y-62697091D01*
X139343367Y-62603792D01*
X139285576Y-62558811D01*
X139087574Y-62451658D01*
X139087572Y-62451657D01*
X139087571Y-62451656D01*
X138874639Y-62378557D01*
X138874630Y-62378555D01*
X138797029Y-62365606D01*
X138652569Y-62341500D01*
X138427431Y-62341500D01*
X138282971Y-62365606D01*
X138205369Y-62378555D01*
X138205360Y-62378557D01*
X137992428Y-62451656D01*
X137992426Y-62451658D01*
X137794426Y-62558810D01*
X137794424Y-62558811D01*
X137616762Y-62697091D01*
X137555754Y-62763363D01*
X137494901Y-62799933D01*
X137423936Y-62797798D01*
X137365391Y-62757636D01*
X137344999Y-62722057D01*
X137300889Y-62603797D01*
X137300887Y-62603792D01*
X137213261Y-62486738D01*
X137096207Y-62399112D01*
X137096202Y-62399110D01*
X136959204Y-62348011D01*
X136959196Y-62348009D01*
X136898649Y-62341500D01*
X136898638Y-62341500D01*
X135101362Y-62341500D01*
X135101350Y-62341500D01*
X135040803Y-62348009D01*
X135040795Y-62348011D01*
X134903797Y-62399110D01*
X134903792Y-62399112D01*
X134786738Y-62486738D01*
X134699112Y-62603792D01*
X134699110Y-62603797D01*
X134648011Y-62740795D01*
X134648009Y-62740803D01*
X134641500Y-62801350D01*
X134641500Y-64598649D01*
X133138535Y-64598649D01*
X133195325Y-64536958D01*
X133318419Y-64348548D01*
X133408820Y-64142456D01*
X133408823Y-64142449D01*
X133456544Y-63954000D01*
X132734844Y-63954000D01*
X132666723Y-63933998D01*
X132620230Y-63880342D01*
X132610126Y-63810068D01*
X132613947Y-63792504D01*
X132620000Y-63771888D01*
X132620000Y-63628111D01*
X132613947Y-63607496D01*
X132613948Y-63536500D01*
X132652333Y-63476774D01*
X132716914Y-63447282D01*
X132734844Y-63446000D01*
X133456544Y-63446000D01*
X133456544Y-63445999D01*
X133408823Y-63257550D01*
X133408820Y-63257543D01*
X133318419Y-63051451D01*
X133195325Y-62863041D01*
X133042902Y-62697465D01*
X132865301Y-62559232D01*
X132865300Y-62559231D01*
X132667371Y-62452117D01*
X132667369Y-62452116D01*
X132454512Y-62379043D01*
X132454501Y-62379040D01*
X132373999Y-62365606D01*
X132373999Y-63085966D01*
X132353997Y-63154087D01*
X132300341Y-63200580D01*
X132230069Y-63210683D01*
X132230067Y-63210683D01*
X132155768Y-63200000D01*
X132155763Y-63200000D01*
X132084237Y-63200000D01*
X132084231Y-63200000D01*
X132009932Y-63210683D01*
X131939658Y-63200580D01*
X131886002Y-63154087D01*
X131866000Y-63085966D01*
X131866000Y-62365607D01*
X131865999Y-62365606D01*
X131785498Y-62379040D01*
X131785487Y-62379043D01*
X131572630Y-62452116D01*
X131572628Y-62452117D01*
X131374699Y-62559231D01*
X131374698Y-62559232D01*
X131197097Y-62697465D01*
X131044670Y-62863045D01*
X130955780Y-62999101D01*
X130901776Y-63045189D01*
X130831428Y-63054764D01*
X130767071Y-63024786D01*
X130744816Y-62999101D01*
X130695520Y-62923647D01*
X130655724Y-62862734D01*
X130655720Y-62862729D01*
X130512020Y-62706632D01*
X130503240Y-62697094D01*
X130503239Y-62697093D01*
X130503237Y-62697091D01*
X130383367Y-62603792D01*
X130325576Y-62558811D01*
X130127574Y-62451658D01*
X130127572Y-62451657D01*
X130127571Y-62451656D01*
X129914639Y-62378557D01*
X129914630Y-62378555D01*
X129837029Y-62365606D01*
X129692569Y-62341500D01*
X129467431Y-62341500D01*
X129322971Y-62365606D01*
X129245369Y-62378555D01*
X129245360Y-62378557D01*
X129032428Y-62451656D01*
X129032426Y-62451658D01*
X128834426Y-62558810D01*
X128834424Y-62558811D01*
X128656762Y-62697091D01*
X128504279Y-62862729D01*
X128504279Y-62862730D01*
X128415482Y-62998643D01*
X128361478Y-63044731D01*
X128291130Y-63054306D01*
X128226773Y-63024328D01*
X128204516Y-62998642D01*
X128115724Y-62862734D01*
X128115720Y-62862729D01*
X127972020Y-62706632D01*
X127963240Y-62697094D01*
X127963239Y-62697093D01*
X127963237Y-62697091D01*
X127843367Y-62603792D01*
X127785576Y-62558811D01*
X127587574Y-62451658D01*
X127587572Y-62451657D01*
X127587571Y-62451656D01*
X127374639Y-62378557D01*
X127374630Y-62378555D01*
X127297029Y-62365606D01*
X127152569Y-62341500D01*
X126927431Y-62341500D01*
X126782971Y-62365606D01*
X126705369Y-62378555D01*
X126705360Y-62378557D01*
X126492428Y-62451656D01*
X126492426Y-62451658D01*
X126294426Y-62558810D01*
X126294424Y-62558811D01*
X126116762Y-62697091D01*
X126055754Y-62763363D01*
X125994901Y-62799933D01*
X125923936Y-62797798D01*
X125865391Y-62757636D01*
X125844999Y-62722057D01*
X125800889Y-62603797D01*
X125800887Y-62603792D01*
X125713261Y-62486738D01*
X125596207Y-62399112D01*
X125596202Y-62399110D01*
X125459204Y-62348011D01*
X125459196Y-62348009D01*
X125398649Y-62341500D01*
X125398638Y-62341500D01*
X123601362Y-62341500D01*
X123601350Y-62341500D01*
X123540803Y-62348009D01*
X123540795Y-62348011D01*
X123403797Y-62399110D01*
X123403792Y-62399112D01*
X123286738Y-62486738D01*
X123199112Y-62603792D01*
X123199110Y-62603797D01*
X123148011Y-62740795D01*
X123148009Y-62740803D01*
X123141500Y-62801350D01*
X123141500Y-64598649D01*
X95781002Y-64598649D01*
X95735156Y-64536714D01*
X95732684Y-64533117D01*
X95603036Y-64329611D01*
X95501716Y-64163719D01*
X95499599Y-64159971D01*
X95422139Y-64011174D01*
X95388724Y-63946985D01*
X95301957Y-63771583D01*
X95300246Y-63767812D01*
X95208731Y-63546874D01*
X95199989Y-63524366D01*
X95137491Y-63363458D01*
X95136152Y-63359646D01*
X95064479Y-63132328D01*
X95009569Y-62942486D01*
X95008593Y-62938661D01*
X94957150Y-62706616D01*
X94919160Y-62511857D01*
X94918547Y-62508100D01*
X94887599Y-62273027D01*
X94866983Y-62074993D01*
X94866712Y-62071330D01*
X94856390Y-61834922D01*
X94855915Y-61802813D01*
X94854391Y-61699999D01*
X97844390Y-61699999D01*
X97852387Y-61811819D01*
X97852548Y-61816315D01*
X97852548Y-61842865D01*
X97854753Y-61858197D01*
X97856326Y-61869139D01*
X97856805Y-61873601D01*
X97864803Y-61985427D01*
X97888629Y-62094958D01*
X97889428Y-62099385D01*
X97893206Y-62125663D01*
X97900690Y-62151150D01*
X97901802Y-62155509D01*
X97925628Y-62265037D01*
X97925630Y-62265044D01*
X97964807Y-62370084D01*
X97966227Y-62374351D01*
X97973705Y-62399816D01*
X97984735Y-62423969D01*
X97986456Y-62428126D01*
X98025633Y-62533162D01*
X98079345Y-62631529D01*
X98081359Y-62635552D01*
X98092392Y-62659712D01*
X98106755Y-62682061D01*
X98109050Y-62685930D01*
X98162770Y-62784309D01*
X98162772Y-62784312D01*
X98162774Y-62784315D01*
X98229962Y-62874068D01*
X98232522Y-62877756D01*
X98246870Y-62900084D01*
X98264256Y-62920147D01*
X98267073Y-62923642D01*
X98334261Y-63013395D01*
X98413523Y-63092657D01*
X98416582Y-63095942D01*
X98433978Y-63116019D01*
X98454056Y-63133416D01*
X98457334Y-63136468D01*
X98536605Y-63215739D01*
X98626344Y-63282917D01*
X98626346Y-63282918D01*
X98629841Y-63285734D01*
X98649914Y-63303127D01*
X98649916Y-63303128D01*
X98672247Y-63317480D01*
X98675940Y-63320044D01*
X98765685Y-63387226D01*
X98765687Y-63387227D01*
X98864064Y-63440946D01*
X98867927Y-63443237D01*
X98874511Y-63447468D01*
X98890288Y-63457607D01*
X98914440Y-63468636D01*
X98918453Y-63470644D01*
X99016839Y-63524367D01*
X99121903Y-63563554D01*
X99126006Y-63565253D01*
X99150179Y-63576293D01*
X99158452Y-63578722D01*
X99175648Y-63583772D01*
X99179916Y-63585192D01*
X99210394Y-63596559D01*
X99284954Y-63624369D01*
X99394517Y-63648202D01*
X99398848Y-63649309D01*
X99404284Y-63650905D01*
X99424326Y-63656790D01*
X99450645Y-63660574D01*
X99454988Y-63661357D01*
X99564572Y-63685196D01*
X99676423Y-63693195D01*
X99680820Y-63693668D01*
X99700468Y-63696492D01*
X99707135Y-63697452D01*
X99733683Y-63697452D01*
X99738179Y-63697613D01*
X99776050Y-63700321D01*
X99850000Y-63705610D01*
X99923949Y-63700321D01*
X99961821Y-63697613D01*
X99966317Y-63697452D01*
X99992865Y-63697452D01*
X99999531Y-63696492D01*
X100019179Y-63693667D01*
X100023548Y-63693197D01*
X100135428Y-63685196D01*
X100244985Y-63661363D01*
X100249376Y-63660570D01*
X100275674Y-63656790D01*
X100301164Y-63649305D01*
X100305501Y-63648198D01*
X100415046Y-63624369D01*
X100520110Y-63585181D01*
X100524324Y-63583779D01*
X100549821Y-63576293D01*
X100573991Y-63565254D01*
X100578102Y-63563551D01*
X100683161Y-63524367D01*
X100781546Y-63470644D01*
X100785550Y-63468640D01*
X100809705Y-63457609D01*
X100809711Y-63457604D01*
X100809722Y-63457600D01*
X100832075Y-63443234D01*
X100835907Y-63440960D01*
X100934315Y-63387226D01*
X101024094Y-63320017D01*
X101027716Y-63317503D01*
X101050086Y-63303127D01*
X101070188Y-63285708D01*
X101073604Y-63282955D01*
X101163395Y-63215739D01*
X101242686Y-63136447D01*
X101245938Y-63133420D01*
X101266020Y-63116020D01*
X101283420Y-63095938D01*
X101286447Y-63092686D01*
X101365739Y-63013395D01*
X101432955Y-62923603D01*
X101435701Y-62920195D01*
X101453127Y-62900086D01*
X101467503Y-62877716D01*
X101470017Y-62874094D01*
X101537226Y-62784315D01*
X101590968Y-62685892D01*
X101593234Y-62682075D01*
X101607600Y-62659722D01*
X101607605Y-62659710D01*
X101607610Y-62659703D01*
X101618640Y-62635550D01*
X101620644Y-62631546D01*
X101674367Y-62533161D01*
X101713551Y-62428102D01*
X101715254Y-62423991D01*
X101726293Y-62399821D01*
X101733779Y-62374324D01*
X101735181Y-62370110D01*
X101774369Y-62265046D01*
X101798198Y-62155501D01*
X101799305Y-62151164D01*
X101806790Y-62125674D01*
X101810570Y-62099376D01*
X101811363Y-62094985D01*
X101835196Y-61985428D01*
X101843195Y-61873576D01*
X101843668Y-61869179D01*
X101847015Y-61845897D01*
X101847503Y-61842508D01*
X101847463Y-61842245D01*
X101847470Y-61841813D01*
X101848106Y-61806146D01*
X101848254Y-61802841D01*
X101855610Y-61700000D01*
X101848255Y-61597163D01*
X101848106Y-61593850D01*
X101847462Y-61557752D01*
X101847513Y-61557566D01*
X101847452Y-61557139D01*
X101843668Y-61530820D01*
X101843195Y-61526423D01*
X101835196Y-61414572D01*
X101811357Y-61304988D01*
X101810574Y-61300645D01*
X101806790Y-61274326D01*
X101799308Y-61248846D01*
X101798202Y-61244517D01*
X101774369Y-61134954D01*
X101735192Y-61029916D01*
X101733772Y-61025648D01*
X101726293Y-61000180D01*
X101726290Y-61000173D01*
X101715253Y-60976006D01*
X101713554Y-60971903D01*
X101674367Y-60866839D01*
X101620644Y-60768453D01*
X101618636Y-60764440D01*
X101607605Y-60740285D01*
X101596996Y-60723778D01*
X101593237Y-60717926D01*
X101590946Y-60714064D01*
X101537227Y-60615687D01*
X101470046Y-60525943D01*
X101467480Y-60522247D01*
X101453129Y-60499917D01*
X101453128Y-60499916D01*
X101453127Y-60499914D01*
X101435731Y-60479838D01*
X101432934Y-60476367D01*
X101365739Y-60386605D01*
X101286468Y-60307334D01*
X101283416Y-60304056D01*
X101266019Y-60283978D01*
X101245942Y-60266582D01*
X101242662Y-60263528D01*
X101163395Y-60184261D01*
X101073652Y-60117080D01*
X101070150Y-60114258D01*
X101050084Y-60096871D01*
X101039620Y-60090147D01*
X101027755Y-60082521D01*
X101024059Y-60079955D01*
X100941181Y-60017914D01*
X100934315Y-60012774D01*
X100934310Y-60012771D01*
X100934309Y-60012770D01*
X100835930Y-59959050D01*
X100832061Y-59956755D01*
X100809712Y-59942392D01*
X100785552Y-59931359D01*
X100781529Y-59929345D01*
X100683162Y-59875633D01*
X100578126Y-59836456D01*
X100573969Y-59834735D01*
X100549825Y-59823709D01*
X100549821Y-59823707D01*
X100549819Y-59823706D01*
X100549816Y-59823705D01*
X100524351Y-59816227D01*
X100520084Y-59814807D01*
X100415044Y-59775630D01*
X100415040Y-59775629D01*
X100305507Y-59751802D01*
X100301143Y-59750688D01*
X100295724Y-59749096D01*
X100275662Y-59743206D01*
X100249385Y-59739428D01*
X100244958Y-59738629D01*
X100135427Y-59714803D01*
X100023601Y-59706805D01*
X100019139Y-59706326D01*
X100008197Y-59704753D01*
X99992865Y-59702548D01*
X99992861Y-59702548D01*
X99966317Y-59702548D01*
X99961821Y-59702387D01*
X99850000Y-59694390D01*
X99738179Y-59702387D01*
X99733683Y-59702548D01*
X99707137Y-59702548D01*
X99680858Y-59706326D01*
X99676386Y-59706807D01*
X99564573Y-59714803D01*
X99455042Y-59738629D01*
X99450614Y-59739428D01*
X99424332Y-59743205D01*
X99398846Y-59750690D01*
X99394487Y-59751802D01*
X99284961Y-59775628D01*
X99179917Y-59814805D01*
X99175657Y-59816223D01*
X99155979Y-59822003D01*
X99150586Y-59823587D01*
X99150170Y-59823709D01*
X99126025Y-59834736D01*
X99121871Y-59836457D01*
X99016849Y-59875629D01*
X99016838Y-59875633D01*
X98918464Y-59929348D01*
X98914442Y-59931361D01*
X98890286Y-59942392D01*
X98867946Y-59956749D01*
X98864079Y-59959044D01*
X98765689Y-60012771D01*
X98765685Y-60012774D01*
X98675938Y-60079956D01*
X98672245Y-60082520D01*
X98656335Y-60092745D01*
X98649917Y-60096869D01*
X98634655Y-60110095D01*
X98629833Y-60114271D01*
X98626342Y-60117083D01*
X98536602Y-60184263D01*
X98457336Y-60263528D01*
X98454044Y-60266593D01*
X98433979Y-60283979D01*
X98416593Y-60304044D01*
X98413528Y-60307336D01*
X98334263Y-60386602D01*
X98267079Y-60476348D01*
X98264257Y-60479850D01*
X98246880Y-60499903D01*
X98232518Y-60522248D01*
X98229955Y-60525938D01*
X98162774Y-60615685D01*
X98162771Y-60615689D01*
X98109044Y-60714079D01*
X98106749Y-60717946D01*
X98092392Y-60740286D01*
X98081361Y-60764442D01*
X98079348Y-60768464D01*
X98025633Y-60866838D01*
X98025629Y-60866849D01*
X97986457Y-60971871D01*
X97984736Y-60976025D01*
X97973708Y-61000173D01*
X97966224Y-61025653D01*
X97964806Y-61029916D01*
X97925628Y-61134961D01*
X97901802Y-61244487D01*
X97900690Y-61248846D01*
X97893205Y-61274332D01*
X97889428Y-61300614D01*
X97888629Y-61305042D01*
X97864803Y-61414573D01*
X97856807Y-61526386D01*
X97856326Y-61530858D01*
X97852548Y-61557137D01*
X97852548Y-61583683D01*
X97852387Y-61588179D01*
X97844390Y-61699999D01*
X94854391Y-61699999D01*
X94853432Y-61635268D01*
X94853484Y-61631642D01*
X94863787Y-61395665D01*
X94878607Y-61196024D01*
X94878960Y-61192595D01*
X94909754Y-60958691D01*
X94942310Y-60760750D01*
X94942950Y-60757433D01*
X94993946Y-60527406D01*
X95044042Y-60332776D01*
X95044930Y-60329673D01*
X95115726Y-60105136D01*
X95183003Y-59915451D01*
X95184128Y-59912520D01*
X95274158Y-59695169D01*
X95274516Y-59694390D01*
X95358131Y-59511948D01*
X95359458Y-59509235D01*
X95468038Y-59300655D01*
X95568027Y-59125477D01*
X95569568Y-59122923D01*
X95695864Y-58924677D01*
X95811123Y-58758913D01*
X95812769Y-58756660D01*
X95955864Y-58570175D01*
X96085442Y-58415234D01*
X96087255Y-58413162D01*
X96246061Y-58239856D01*
X96389856Y-58096061D01*
X96563162Y-57937255D01*
X96565234Y-57935442D01*
X96720166Y-57805871D01*
X96906660Y-57662769D01*
X96908913Y-57661123D01*
X97074677Y-57545864D01*
X97272923Y-57419568D01*
X97275477Y-57418027D01*
X97450655Y-57318038D01*
X97659235Y-57209458D01*
X97661948Y-57208131D01*
X97845153Y-57124165D01*
X98062520Y-57034128D01*
X98065451Y-57033003D01*
X98255123Y-56965730D01*
X98479673Y-56894930D01*
X98482776Y-56894042D01*
X98677406Y-56843946D01*
X98907433Y-56792950D01*
X98910750Y-56792310D01*
X99108691Y-56759754D01*
X99342595Y-56728960D01*
X99346024Y-56728607D01*
X99545665Y-56713787D01*
X99781642Y-56703484D01*
X99785268Y-56703432D01*
X99984922Y-56706390D01*
X100221330Y-56716712D01*
X100224993Y-56716983D01*
X100423027Y-56737599D01*
X100658100Y-56768547D01*
X100661857Y-56769160D01*
X100856616Y-56807150D01*
X101088661Y-56858593D01*
X101092486Y-56859569D01*
X101282328Y-56914479D01*
X101509646Y-56986152D01*
X101513458Y-56987491D01*
X101696887Y-57058736D01*
X101917812Y-57150246D01*
X101921583Y-57151957D01*
X102096985Y-57238724D01*
X102230434Y-57308194D01*
X102309971Y-57349599D01*
X102313719Y-57351716D01*
X102479611Y-57453036D01*
X102683117Y-57582684D01*
X102686714Y-57585156D01*
X102841757Y-57699922D01*
X103034312Y-57847675D01*
X103037783Y-57850541D01*
X103180604Y-57977360D01*
X103360875Y-58142549D01*
X103364162Y-58145790D01*
X103493521Y-58283054D01*
X103660244Y-58465000D01*
X103663301Y-58468597D01*
X103778144Y-58614497D01*
X103809294Y-58655092D01*
X103930121Y-58812558D01*
X103932893Y-58816471D01*
X104032201Y-58968733D01*
X104168384Y-59182497D01*
X104170867Y-59186754D01*
X104217948Y-59275230D01*
X104253735Y-59342482D01*
X104341978Y-59511995D01*
X104373204Y-59571978D01*
X104375346Y-59576529D01*
X104433825Y-59714803D01*
X104441027Y-59731832D01*
X104475396Y-59814805D01*
X104542987Y-59977985D01*
X104544757Y-59982805D01*
X104592632Y-60131647D01*
X104646992Y-60304056D01*
X104676413Y-60397365D01*
X104677776Y-60402411D01*
X104677780Y-60402424D01*
X104707370Y-60533347D01*
X104772443Y-60826871D01*
X104773377Y-60832132D01*
X104784365Y-60914030D01*
X104830116Y-61261537D01*
X104830595Y-61267015D01*
X104849457Y-61699028D01*
X104849458Y-61700459D01*
X104849499Y-61700500D01*
X104849500Y-61700500D01*
X159700501Y-61700500D01*
X159700545Y-61700455D01*
X159700554Y-61699999D01*
X162694390Y-61699999D01*
X162702387Y-61811819D01*
X162702548Y-61816315D01*
X162702548Y-61842865D01*
X162704753Y-61858197D01*
X162706326Y-61869139D01*
X162706805Y-61873601D01*
X162714803Y-61985427D01*
X162738629Y-62094958D01*
X162739428Y-62099385D01*
X162743206Y-62125663D01*
X162750690Y-62151150D01*
X162751802Y-62155509D01*
X162775628Y-62265037D01*
X162775630Y-62265044D01*
X162814807Y-62370084D01*
X162816227Y-62374351D01*
X162823705Y-62399816D01*
X162834735Y-62423969D01*
X162836456Y-62428126D01*
X162875633Y-62533162D01*
X162929345Y-62631529D01*
X162931359Y-62635552D01*
X162942392Y-62659712D01*
X162956755Y-62682061D01*
X162959050Y-62685930D01*
X163012770Y-62784309D01*
X163012772Y-62784312D01*
X163012774Y-62784315D01*
X163079962Y-62874068D01*
X163082522Y-62877756D01*
X163096870Y-62900084D01*
X163114256Y-62920147D01*
X163117073Y-62923642D01*
X163184261Y-63013395D01*
X163263523Y-63092657D01*
X163266582Y-63095942D01*
X163283978Y-63116019D01*
X163304056Y-63133416D01*
X163307334Y-63136468D01*
X163386605Y-63215739D01*
X163476344Y-63282917D01*
X163476346Y-63282918D01*
X163479841Y-63285734D01*
X163499914Y-63303127D01*
X163499916Y-63303128D01*
X163522247Y-63317480D01*
X163525940Y-63320044D01*
X163615685Y-63387226D01*
X163615687Y-63387227D01*
X163714064Y-63440946D01*
X163717927Y-63443237D01*
X163724511Y-63447468D01*
X163740288Y-63457607D01*
X163764440Y-63468636D01*
X163768453Y-63470644D01*
X163866839Y-63524367D01*
X163971903Y-63563554D01*
X163976006Y-63565253D01*
X164000179Y-63576293D01*
X164008452Y-63578722D01*
X164025648Y-63583772D01*
X164029916Y-63585192D01*
X164060394Y-63596559D01*
X164134954Y-63624369D01*
X164244517Y-63648202D01*
X164248848Y-63649309D01*
X164254284Y-63650905D01*
X164274326Y-63656790D01*
X164300645Y-63660574D01*
X164304988Y-63661357D01*
X164414572Y-63685196D01*
X164526423Y-63693195D01*
X164530820Y-63693668D01*
X164550468Y-63696492D01*
X164557135Y-63697452D01*
X164583683Y-63697452D01*
X164588179Y-63697613D01*
X164626050Y-63700321D01*
X164700000Y-63705610D01*
X164773949Y-63700321D01*
X164811821Y-63697613D01*
X164816317Y-63697452D01*
X164842865Y-63697452D01*
X164849531Y-63696492D01*
X164869179Y-63693667D01*
X164873548Y-63693197D01*
X164985428Y-63685196D01*
X165094985Y-63661363D01*
X165099376Y-63660570D01*
X165125674Y-63656790D01*
X165151164Y-63649305D01*
X165155501Y-63648198D01*
X165265046Y-63624369D01*
X165370110Y-63585181D01*
X165374324Y-63583779D01*
X165399821Y-63576293D01*
X165423991Y-63565254D01*
X165428102Y-63563551D01*
X165533161Y-63524367D01*
X165631546Y-63470644D01*
X165635550Y-63468640D01*
X165659705Y-63457609D01*
X165659711Y-63457604D01*
X165659722Y-63457600D01*
X165682075Y-63443234D01*
X165685907Y-63440960D01*
X165784315Y-63387226D01*
X165874094Y-63320017D01*
X165877716Y-63317503D01*
X165900086Y-63303127D01*
X165920188Y-63285708D01*
X165923604Y-63282955D01*
X166013395Y-63215739D01*
X166092686Y-63136447D01*
X166095938Y-63133420D01*
X166116020Y-63116020D01*
X166133420Y-63095938D01*
X166136447Y-63092686D01*
X166215739Y-63013395D01*
X166282955Y-62923603D01*
X166285701Y-62920195D01*
X166303127Y-62900086D01*
X166317503Y-62877716D01*
X166320017Y-62874094D01*
X166387226Y-62784315D01*
X166440968Y-62685892D01*
X166443234Y-62682075D01*
X166457600Y-62659722D01*
X166457605Y-62659710D01*
X166457610Y-62659703D01*
X166468640Y-62635550D01*
X166470644Y-62631546D01*
X166524367Y-62533161D01*
X166563551Y-62428102D01*
X166565254Y-62423991D01*
X166576293Y-62399821D01*
X166583779Y-62374324D01*
X166585181Y-62370110D01*
X166624369Y-62265046D01*
X166648198Y-62155501D01*
X166649305Y-62151164D01*
X166656790Y-62125674D01*
X166660570Y-62099376D01*
X166661363Y-62094985D01*
X166685196Y-61985428D01*
X166693195Y-61873576D01*
X166693668Y-61869179D01*
X166697015Y-61845897D01*
X166697503Y-61842508D01*
X166697463Y-61842245D01*
X166697470Y-61841813D01*
X166698106Y-61806146D01*
X166698254Y-61802841D01*
X166705610Y-61700000D01*
X166698255Y-61597163D01*
X166698106Y-61593850D01*
X166697462Y-61557752D01*
X166697513Y-61557566D01*
X166697452Y-61557139D01*
X166693668Y-61530820D01*
X166693195Y-61526423D01*
X166685196Y-61414572D01*
X166661357Y-61304988D01*
X166660574Y-61300645D01*
X166656790Y-61274326D01*
X166649308Y-61248846D01*
X166648202Y-61244517D01*
X166624369Y-61134954D01*
X166585192Y-61029916D01*
X166583772Y-61025648D01*
X166576293Y-61000180D01*
X166576290Y-61000173D01*
X166565253Y-60976006D01*
X166563554Y-60971903D01*
X166524367Y-60866839D01*
X166470644Y-60768453D01*
X166468636Y-60764440D01*
X166457605Y-60740285D01*
X166446996Y-60723778D01*
X166443237Y-60717926D01*
X166440946Y-60714064D01*
X166387227Y-60615687D01*
X166320046Y-60525943D01*
X166317480Y-60522247D01*
X166303129Y-60499917D01*
X166303128Y-60499916D01*
X166303127Y-60499914D01*
X166285731Y-60479838D01*
X166282934Y-60476367D01*
X166215739Y-60386605D01*
X166136468Y-60307334D01*
X166133416Y-60304056D01*
X166116019Y-60283978D01*
X166095942Y-60266582D01*
X166092662Y-60263528D01*
X166013395Y-60184261D01*
X165923652Y-60117080D01*
X165920150Y-60114258D01*
X165900084Y-60096871D01*
X165889620Y-60090147D01*
X165877755Y-60082521D01*
X165874059Y-60079955D01*
X165791181Y-60017914D01*
X165784315Y-60012774D01*
X165784310Y-60012771D01*
X165784309Y-60012770D01*
X165685930Y-59959050D01*
X165682061Y-59956755D01*
X165659712Y-59942392D01*
X165635552Y-59931359D01*
X165631529Y-59929345D01*
X165533162Y-59875633D01*
X165428126Y-59836456D01*
X165423969Y-59834735D01*
X165399825Y-59823709D01*
X165399821Y-59823707D01*
X165399819Y-59823706D01*
X165399816Y-59823705D01*
X165374351Y-59816227D01*
X165370084Y-59814807D01*
X165265044Y-59775630D01*
X165265040Y-59775629D01*
X165155507Y-59751802D01*
X165151143Y-59750688D01*
X165145724Y-59749096D01*
X165125662Y-59743206D01*
X165099385Y-59739428D01*
X165094958Y-59738629D01*
X164985427Y-59714803D01*
X164873601Y-59706805D01*
X164869139Y-59706326D01*
X164858197Y-59704753D01*
X164842865Y-59702548D01*
X164842861Y-59702548D01*
X164816317Y-59702548D01*
X164811821Y-59702387D01*
X164700000Y-59694390D01*
X164588179Y-59702387D01*
X164583683Y-59702548D01*
X164557137Y-59702548D01*
X164530858Y-59706326D01*
X164526386Y-59706807D01*
X164414573Y-59714803D01*
X164305042Y-59738629D01*
X164300614Y-59739428D01*
X164274332Y-59743205D01*
X164248846Y-59750690D01*
X164244487Y-59751802D01*
X164134961Y-59775628D01*
X164029917Y-59814805D01*
X164025657Y-59816223D01*
X164005979Y-59822003D01*
X164000586Y-59823587D01*
X164000170Y-59823709D01*
X163976025Y-59834736D01*
X163971871Y-59836457D01*
X163866849Y-59875629D01*
X163866838Y-59875633D01*
X163768464Y-59929348D01*
X163764442Y-59931361D01*
X163740286Y-59942392D01*
X163717946Y-59956749D01*
X163714079Y-59959044D01*
X163615689Y-60012771D01*
X163615685Y-60012774D01*
X163525938Y-60079956D01*
X163522245Y-60082520D01*
X163506335Y-60092745D01*
X163499917Y-60096869D01*
X163484655Y-60110095D01*
X163479833Y-60114271D01*
X163476342Y-60117083D01*
X163386602Y-60184263D01*
X163307336Y-60263528D01*
X163304044Y-60266593D01*
X163283979Y-60283979D01*
X163266593Y-60304044D01*
X163263528Y-60307336D01*
X163184263Y-60386602D01*
X163117079Y-60476348D01*
X163114257Y-60479850D01*
X163096880Y-60499903D01*
X163082518Y-60522248D01*
X163079955Y-60525938D01*
X163012774Y-60615685D01*
X163012771Y-60615689D01*
X162959044Y-60714079D01*
X162956749Y-60717946D01*
X162942392Y-60740286D01*
X162931361Y-60764442D01*
X162929348Y-60768464D01*
X162875633Y-60866838D01*
X162875629Y-60866849D01*
X162836457Y-60971871D01*
X162834736Y-60976025D01*
X162823708Y-61000173D01*
X162816224Y-61025653D01*
X162814806Y-61029916D01*
X162775628Y-61134961D01*
X162751802Y-61244487D01*
X162750690Y-61248846D01*
X162743205Y-61274332D01*
X162739428Y-61300614D01*
X162738629Y-61305042D01*
X162714803Y-61414573D01*
X162706807Y-61526386D01*
X162706326Y-61530858D01*
X162702548Y-61557137D01*
X162702548Y-61583683D01*
X162702387Y-61588179D01*
X162694390Y-61699999D01*
X159700554Y-61699999D01*
X159700601Y-61697652D01*
X159719404Y-61267014D01*
X159719884Y-61261536D01*
X159750378Y-61029916D01*
X159765641Y-60913972D01*
X159771964Y-60866849D01*
X159776625Y-60832109D01*
X159777547Y-60826914D01*
X159842652Y-60533241D01*
X159843967Y-60527428D01*
X159872232Y-60402372D01*
X159873571Y-60397416D01*
X159957384Y-60131595D01*
X160005251Y-59982777D01*
X160006997Y-59978022D01*
X160109015Y-59731728D01*
X160174675Y-59576476D01*
X160176770Y-59572027D01*
X160296320Y-59342375D01*
X160379142Y-59186733D01*
X160381593Y-59182532D01*
X160517835Y-58968675D01*
X160617121Y-58816448D01*
X160619852Y-58812592D01*
X160771891Y-58614450D01*
X160886716Y-58468574D01*
X160889741Y-58465014D01*
X161056485Y-58283046D01*
X161185877Y-58145747D01*
X161189089Y-58142581D01*
X161369426Y-57977332D01*
X161512242Y-57850518D01*
X161515658Y-57847696D01*
X161708286Y-57699888D01*
X161863311Y-57585137D01*
X161866854Y-57582702D01*
X162070415Y-57453019D01*
X162236306Y-57351699D01*
X162240018Y-57349603D01*
X162453029Y-57238717D01*
X162628414Y-57151958D01*
X162632165Y-57150255D01*
X162853135Y-57058726D01*
X163036560Y-56987484D01*
X163040333Y-56986158D01*
X163267662Y-56914482D01*
X163457528Y-56859565D01*
X163461323Y-56858596D01*
X163693395Y-56807147D01*
X163888152Y-56769158D01*
X163891888Y-56768549D01*
X164126995Y-56737596D01*
X164325011Y-56716983D01*
X164328664Y-56716713D01*
X164565079Y-56706390D01*
X164764730Y-56703432D01*
X164768357Y-56703484D01*
G37*
%TD.AperFunction*%
%TD*%
M02*
