%TF.GenerationSoftware,KiCad,Pcbnew,(7.0.0)*%
%TF.CreationDate,2023-05-08T13:38:34+02:00*%
%TF.ProjectId,Apollo - DSP,41706f6c-6c6f-4202-9d20-4453502e6b69,rev?*%
%TF.SameCoordinates,Original*%
%TF.FileFunction,Legend,Top*%
%TF.FilePolarity,Positive*%
%FSLAX46Y46*%
G04 Gerber Fmt 4.6, Leading zero omitted, Abs format (unit mm)*
G04 Created by KiCad (PCBNEW (7.0.0)) date 2023-05-08 13:38:34*
%MOMM*%
%LPD*%
G01*
G04 APERTURE LIST*
%ADD10C,0.150000*%
%ADD11C,0.250000*%
%ADD12C,0.187500*%
%ADD13C,0.120000*%
%ADD14C,0.200000*%
%ADD15C,0.127000*%
G04 APERTURE END LIST*
D10*
X94500000Y-72300000D02*
X94500000Y-74800000D01*
X122199640Y-64043951D02*
X122199640Y-66228951D01*
X120200000Y-99700000D02*
X122400000Y-99700000D01*
X103900000Y-68300000D02*
X108400000Y-68300000D01*
X108400000Y-68300000D02*
X108400000Y-70300000D01*
X108400000Y-70300000D02*
X103900000Y-70300000D01*
X103900000Y-70300000D02*
X103900000Y-68300000D01*
X125840000Y-64030000D02*
X136100000Y-64030000D01*
X136100000Y-64030000D02*
X136100000Y-68400000D01*
X136100000Y-68400000D02*
X125840000Y-68400000D01*
X125840000Y-68400000D02*
X125840000Y-64030000D01*
X117500000Y-105405000D02*
X117500000Y-103195000D01*
X103900000Y-68300000D02*
X100800000Y-68300000D01*
X128400000Y-64007500D02*
X128400000Y-66192500D01*
X133500000Y-64007500D02*
X133500000Y-66192500D01*
X117100000Y-64015000D02*
X117100000Y-66200000D01*
X114520000Y-64030000D02*
X124800000Y-64030000D01*
X124800000Y-64030000D02*
X124800000Y-68400000D01*
X124800000Y-68400000D02*
X114520000Y-68400000D01*
X114520000Y-68400000D02*
X114520000Y-64030000D01*
X112365429Y-105431253D02*
X112365429Y-103221253D01*
X130970000Y-64030000D02*
X130970000Y-66215000D01*
X91200000Y-70300000D02*
X94500000Y-70300000D01*
X94500000Y-70300000D02*
X94500000Y-72300000D01*
X94500000Y-72300000D02*
X91200000Y-72300000D01*
X91200000Y-72300000D02*
X91200000Y-70300000D01*
X114925000Y-105420000D02*
X114925000Y-103210000D01*
X117900000Y-92900000D02*
X120200000Y-92900000D01*
X120200000Y-92900000D02*
X120200000Y-99700000D01*
X120200000Y-99700000D02*
X117900000Y-99700000D01*
X117900000Y-99700000D02*
X117900000Y-92900000D01*
X119660000Y-64030000D02*
X119660000Y-66215000D01*
X109800000Y-101000000D02*
X120050000Y-101000000D01*
X120050000Y-101000000D02*
X120050000Y-105420000D01*
X120050000Y-105420000D02*
X109800000Y-105420000D01*
X109800000Y-105420000D02*
X109800000Y-101000000D01*
X123900000Y-86900000D02*
X137400000Y-86900000D01*
X137400000Y-86900000D02*
X137400000Y-92500000D01*
X137400000Y-92500000D02*
X123900000Y-92500000D01*
X123900000Y-92500000D02*
X123900000Y-86900000D01*
D11*
X104742857Y-69343571D02*
X104885714Y-69391190D01*
X104885714Y-69391190D02*
X104933333Y-69438809D01*
X104933333Y-69438809D02*
X104980952Y-69534047D01*
X104980952Y-69534047D02*
X104980952Y-69676904D01*
X104980952Y-69676904D02*
X104933333Y-69772142D01*
X104933333Y-69772142D02*
X104885714Y-69819761D01*
X104885714Y-69819761D02*
X104790476Y-69867380D01*
X104790476Y-69867380D02*
X104409524Y-69867380D01*
X104409524Y-69867380D02*
X104409524Y-68867380D01*
X104409524Y-68867380D02*
X104742857Y-68867380D01*
X104742857Y-68867380D02*
X104838095Y-68915000D01*
X104838095Y-68915000D02*
X104885714Y-68962619D01*
X104885714Y-68962619D02*
X104933333Y-69057857D01*
X104933333Y-69057857D02*
X104933333Y-69153095D01*
X104933333Y-69153095D02*
X104885714Y-69248333D01*
X104885714Y-69248333D02*
X104838095Y-69295952D01*
X104838095Y-69295952D02*
X104742857Y-69343571D01*
X104742857Y-69343571D02*
X104409524Y-69343571D01*
X105600000Y-68867380D02*
X105790476Y-68867380D01*
X105790476Y-68867380D02*
X105885714Y-68915000D01*
X105885714Y-68915000D02*
X105980952Y-69010238D01*
X105980952Y-69010238D02*
X106028571Y-69200714D01*
X106028571Y-69200714D02*
X106028571Y-69534047D01*
X106028571Y-69534047D02*
X105980952Y-69724523D01*
X105980952Y-69724523D02*
X105885714Y-69819761D01*
X105885714Y-69819761D02*
X105790476Y-69867380D01*
X105790476Y-69867380D02*
X105600000Y-69867380D01*
X105600000Y-69867380D02*
X105504762Y-69819761D01*
X105504762Y-69819761D02*
X105409524Y-69724523D01*
X105409524Y-69724523D02*
X105361905Y-69534047D01*
X105361905Y-69534047D02*
X105361905Y-69200714D01*
X105361905Y-69200714D02*
X105409524Y-69010238D01*
X105409524Y-69010238D02*
X105504762Y-68915000D01*
X105504762Y-68915000D02*
X105600000Y-68867380D01*
X106647619Y-68867380D02*
X106838095Y-68867380D01*
X106838095Y-68867380D02*
X106933333Y-68915000D01*
X106933333Y-68915000D02*
X107028571Y-69010238D01*
X107028571Y-69010238D02*
X107076190Y-69200714D01*
X107076190Y-69200714D02*
X107076190Y-69534047D01*
X107076190Y-69534047D02*
X107028571Y-69724523D01*
X107028571Y-69724523D02*
X106933333Y-69819761D01*
X106933333Y-69819761D02*
X106838095Y-69867380D01*
X106838095Y-69867380D02*
X106647619Y-69867380D01*
X106647619Y-69867380D02*
X106552381Y-69819761D01*
X106552381Y-69819761D02*
X106457143Y-69724523D01*
X106457143Y-69724523D02*
X106409524Y-69534047D01*
X106409524Y-69534047D02*
X106409524Y-69200714D01*
X106409524Y-69200714D02*
X106457143Y-69010238D01*
X106457143Y-69010238D02*
X106552381Y-68915000D01*
X106552381Y-68915000D02*
X106647619Y-68867380D01*
X107361905Y-68867380D02*
X107933333Y-68867380D01*
X107647619Y-69867380D02*
X107647619Y-68867380D01*
D12*
X131825535Y-65917857D02*
X131825535Y-65489286D01*
X132575535Y-65703571D02*
X131825535Y-65703571D01*
X132575535Y-65310714D02*
X132075535Y-64917857D01*
X132075535Y-65310714D02*
X132575535Y-64917857D01*
D11*
X119467380Y-99133332D02*
X118800714Y-99133332D01*
X118895952Y-99133332D02*
X118848333Y-99085713D01*
X118848333Y-99085713D02*
X118800714Y-98990475D01*
X118800714Y-98990475D02*
X118800714Y-98847618D01*
X118800714Y-98847618D02*
X118848333Y-98752380D01*
X118848333Y-98752380D02*
X118943571Y-98704761D01*
X118943571Y-98704761D02*
X119467380Y-98704761D01*
X118943571Y-98704761D02*
X118848333Y-98657142D01*
X118848333Y-98657142D02*
X118800714Y-98561904D01*
X118800714Y-98561904D02*
X118800714Y-98419047D01*
X118800714Y-98419047D02*
X118848333Y-98323808D01*
X118848333Y-98323808D02*
X118943571Y-98276189D01*
X118943571Y-98276189D02*
X119467380Y-98276189D01*
X119467380Y-97799999D02*
X118800714Y-97799999D01*
X118467380Y-97799999D02*
X118515000Y-97847618D01*
X118515000Y-97847618D02*
X118562619Y-97799999D01*
X118562619Y-97799999D02*
X118515000Y-97752380D01*
X118515000Y-97752380D02*
X118467380Y-97799999D01*
X118467380Y-97799999D02*
X118562619Y-97799999D01*
X119419761Y-96895238D02*
X119467380Y-96990476D01*
X119467380Y-96990476D02*
X119467380Y-97180952D01*
X119467380Y-97180952D02*
X119419761Y-97276190D01*
X119419761Y-97276190D02*
X119372142Y-97323809D01*
X119372142Y-97323809D02*
X119276904Y-97371428D01*
X119276904Y-97371428D02*
X118991190Y-97371428D01*
X118991190Y-97371428D02*
X118895952Y-97323809D01*
X118895952Y-97323809D02*
X118848333Y-97276190D01*
X118848333Y-97276190D02*
X118800714Y-97180952D01*
X118800714Y-97180952D02*
X118800714Y-96990476D01*
X118800714Y-96990476D02*
X118848333Y-96895238D01*
X119467380Y-96466666D02*
X118800714Y-96466666D01*
X118991190Y-96466666D02*
X118895952Y-96419047D01*
X118895952Y-96419047D02*
X118848333Y-96371428D01*
X118848333Y-96371428D02*
X118800714Y-96276190D01*
X118800714Y-96276190D02*
X118800714Y-96180952D01*
X119467380Y-95704761D02*
X119419761Y-95799999D01*
X119419761Y-95799999D02*
X119372142Y-95847618D01*
X119372142Y-95847618D02*
X119276904Y-95895237D01*
X119276904Y-95895237D02*
X118991190Y-95895237D01*
X118991190Y-95895237D02*
X118895952Y-95847618D01*
X118895952Y-95847618D02*
X118848333Y-95799999D01*
X118848333Y-95799999D02*
X118800714Y-95704761D01*
X118800714Y-95704761D02*
X118800714Y-95561904D01*
X118800714Y-95561904D02*
X118848333Y-95466666D01*
X118848333Y-95466666D02*
X118895952Y-95419047D01*
X118895952Y-95419047D02*
X118991190Y-95371428D01*
X118991190Y-95371428D02*
X119276904Y-95371428D01*
X119276904Y-95371428D02*
X119372142Y-95419047D01*
X119372142Y-95419047D02*
X119419761Y-95466666D01*
X119419761Y-95466666D02*
X119467380Y-95561904D01*
X119467380Y-95561904D02*
X119467380Y-95704761D01*
X119419761Y-94990475D02*
X119467380Y-94847618D01*
X119467380Y-94847618D02*
X119467380Y-94609523D01*
X119467380Y-94609523D02*
X119419761Y-94514285D01*
X119419761Y-94514285D02*
X119372142Y-94466666D01*
X119372142Y-94466666D02*
X119276904Y-94419047D01*
X119276904Y-94419047D02*
X119181666Y-94419047D01*
X119181666Y-94419047D02*
X119086428Y-94466666D01*
X119086428Y-94466666D02*
X119038809Y-94514285D01*
X119038809Y-94514285D02*
X118991190Y-94609523D01*
X118991190Y-94609523D02*
X118943571Y-94799999D01*
X118943571Y-94799999D02*
X118895952Y-94895237D01*
X118895952Y-94895237D02*
X118848333Y-94942856D01*
X118848333Y-94942856D02*
X118753095Y-94990475D01*
X118753095Y-94990475D02*
X118657857Y-94990475D01*
X118657857Y-94990475D02*
X118562619Y-94942856D01*
X118562619Y-94942856D02*
X118515000Y-94895237D01*
X118515000Y-94895237D02*
X118467380Y-94799999D01*
X118467380Y-94799999D02*
X118467380Y-94561904D01*
X118467380Y-94561904D02*
X118515000Y-94419047D01*
X119467380Y-93990475D02*
X118467380Y-93990475D01*
X118467380Y-93990475D02*
X118467380Y-93752380D01*
X118467380Y-93752380D02*
X118515000Y-93609523D01*
X118515000Y-93609523D02*
X118610238Y-93514285D01*
X118610238Y-93514285D02*
X118705476Y-93466666D01*
X118705476Y-93466666D02*
X118895952Y-93419047D01*
X118895952Y-93419047D02*
X119038809Y-93419047D01*
X119038809Y-93419047D02*
X119229285Y-93466666D01*
X119229285Y-93466666D02*
X119324523Y-93514285D01*
X119324523Y-93514285D02*
X119419761Y-93609523D01*
X119419761Y-93609523D02*
X119467380Y-93752380D01*
X119467380Y-93752380D02*
X119467380Y-93990475D01*
D12*
X127646429Y-67125535D02*
X127646429Y-67732678D01*
X127646429Y-67732678D02*
X127682143Y-67804107D01*
X127682143Y-67804107D02*
X127717858Y-67839821D01*
X127717858Y-67839821D02*
X127789286Y-67875535D01*
X127789286Y-67875535D02*
X127932143Y-67875535D01*
X127932143Y-67875535D02*
X128003572Y-67839821D01*
X128003572Y-67839821D02*
X128039286Y-67804107D01*
X128039286Y-67804107D02*
X128075000Y-67732678D01*
X128075000Y-67732678D02*
X128075000Y-67125535D01*
X128396429Y-67661250D02*
X128753572Y-67661250D01*
X128325000Y-67875535D02*
X128575000Y-67125535D01*
X128575000Y-67125535D02*
X128825000Y-67875535D01*
X129503571Y-67875535D02*
X129253571Y-67518392D01*
X129075000Y-67875535D02*
X129075000Y-67125535D01*
X129075000Y-67125535D02*
X129360714Y-67125535D01*
X129360714Y-67125535D02*
X129432143Y-67161250D01*
X129432143Y-67161250D02*
X129467857Y-67196964D01*
X129467857Y-67196964D02*
X129503571Y-67268392D01*
X129503571Y-67268392D02*
X129503571Y-67375535D01*
X129503571Y-67375535D02*
X129467857Y-67446964D01*
X129467857Y-67446964D02*
X129432143Y-67482678D01*
X129432143Y-67482678D02*
X129360714Y-67518392D01*
X129360714Y-67518392D02*
X129075000Y-67518392D01*
X129717857Y-67125535D02*
X130146429Y-67125535D01*
X129932143Y-67875535D02*
X129932143Y-67125535D01*
X130846429Y-67875535D02*
X130846429Y-67125535D01*
X131203572Y-67375535D02*
X131203572Y-67875535D01*
X131203572Y-67446964D02*
X131239286Y-67411250D01*
X131239286Y-67411250D02*
X131310715Y-67375535D01*
X131310715Y-67375535D02*
X131417858Y-67375535D01*
X131417858Y-67375535D02*
X131489286Y-67411250D01*
X131489286Y-67411250D02*
X131525001Y-67482678D01*
X131525001Y-67482678D02*
X131525001Y-67875535D01*
X131775000Y-67375535D02*
X132060714Y-67375535D01*
X131882143Y-67125535D02*
X131882143Y-67768392D01*
X131882143Y-67768392D02*
X131917857Y-67839821D01*
X131917857Y-67839821D02*
X131989286Y-67875535D01*
X131989286Y-67875535D02*
X132060714Y-67875535D01*
X132596428Y-67839821D02*
X132525000Y-67875535D01*
X132525000Y-67875535D02*
X132382143Y-67875535D01*
X132382143Y-67875535D02*
X132310714Y-67839821D01*
X132310714Y-67839821D02*
X132275000Y-67768392D01*
X132275000Y-67768392D02*
X132275000Y-67482678D01*
X132275000Y-67482678D02*
X132310714Y-67411250D01*
X132310714Y-67411250D02*
X132382143Y-67375535D01*
X132382143Y-67375535D02*
X132525000Y-67375535D01*
X132525000Y-67375535D02*
X132596428Y-67411250D01*
X132596428Y-67411250D02*
X132632143Y-67482678D01*
X132632143Y-67482678D02*
X132632143Y-67554107D01*
X132632143Y-67554107D02*
X132275000Y-67625535D01*
X132953571Y-67875535D02*
X132953571Y-67375535D01*
X132953571Y-67518392D02*
X132989285Y-67446964D01*
X132989285Y-67446964D02*
X133025000Y-67411250D01*
X133025000Y-67411250D02*
X133096428Y-67375535D01*
X133096428Y-67375535D02*
X133167857Y-67375535D01*
X133310714Y-67375535D02*
X133596428Y-67375535D01*
X133417857Y-67875535D02*
X133417857Y-67232678D01*
X133417857Y-67232678D02*
X133453571Y-67161250D01*
X133453571Y-67161250D02*
X133525000Y-67125535D01*
X133525000Y-67125535D02*
X133596428Y-67125535D01*
X134167857Y-67875535D02*
X134167857Y-67482678D01*
X134167857Y-67482678D02*
X134132142Y-67411250D01*
X134132142Y-67411250D02*
X134060714Y-67375535D01*
X134060714Y-67375535D02*
X133917857Y-67375535D01*
X133917857Y-67375535D02*
X133846428Y-67411250D01*
X134167857Y-67839821D02*
X134096428Y-67875535D01*
X134096428Y-67875535D02*
X133917857Y-67875535D01*
X133917857Y-67875535D02*
X133846428Y-67839821D01*
X133846428Y-67839821D02*
X133810714Y-67768392D01*
X133810714Y-67768392D02*
X133810714Y-67696964D01*
X133810714Y-67696964D02*
X133846428Y-67625535D01*
X133846428Y-67625535D02*
X133917857Y-67589821D01*
X133917857Y-67589821D02*
X134096428Y-67589821D01*
X134096428Y-67589821D02*
X134167857Y-67554107D01*
X134846428Y-67839821D02*
X134774999Y-67875535D01*
X134774999Y-67875535D02*
X134632142Y-67875535D01*
X134632142Y-67875535D02*
X134560713Y-67839821D01*
X134560713Y-67839821D02*
X134524999Y-67804107D01*
X134524999Y-67804107D02*
X134489285Y-67732678D01*
X134489285Y-67732678D02*
X134489285Y-67518392D01*
X134489285Y-67518392D02*
X134524999Y-67446964D01*
X134524999Y-67446964D02*
X134560713Y-67411250D01*
X134560713Y-67411250D02*
X134632142Y-67375535D01*
X134632142Y-67375535D02*
X134774999Y-67375535D01*
X134774999Y-67375535D02*
X134846428Y-67411250D01*
X135453570Y-67839821D02*
X135382142Y-67875535D01*
X135382142Y-67875535D02*
X135239285Y-67875535D01*
X135239285Y-67875535D02*
X135167856Y-67839821D01*
X135167856Y-67839821D02*
X135132142Y-67768392D01*
X135132142Y-67768392D02*
X135132142Y-67482678D01*
X135132142Y-67482678D02*
X135167856Y-67411250D01*
X135167856Y-67411250D02*
X135239285Y-67375535D01*
X135239285Y-67375535D02*
X135382142Y-67375535D01*
X135382142Y-67375535D02*
X135453570Y-67411250D01*
X135453570Y-67411250D02*
X135489285Y-67482678D01*
X135489285Y-67482678D02*
X135489285Y-67554107D01*
X135489285Y-67554107D02*
X135132142Y-67625535D01*
X112600000Y-102081666D02*
X113076190Y-102081666D01*
X112504762Y-102367380D02*
X112838095Y-101367380D01*
X112838095Y-101367380D02*
X113171428Y-102367380D01*
X113504762Y-101700714D02*
X113504762Y-102367380D01*
X113504762Y-101795952D02*
X113552381Y-101748333D01*
X113552381Y-101748333D02*
X113647619Y-101700714D01*
X113647619Y-101700714D02*
X113790476Y-101700714D01*
X113790476Y-101700714D02*
X113885714Y-101748333D01*
X113885714Y-101748333D02*
X113933333Y-101843571D01*
X113933333Y-101843571D02*
X113933333Y-102367380D01*
X114838095Y-102367380D02*
X114838095Y-101843571D01*
X114838095Y-101843571D02*
X114790476Y-101748333D01*
X114790476Y-101748333D02*
X114695238Y-101700714D01*
X114695238Y-101700714D02*
X114504762Y-101700714D01*
X114504762Y-101700714D02*
X114409524Y-101748333D01*
X114838095Y-102319761D02*
X114742857Y-102367380D01*
X114742857Y-102367380D02*
X114504762Y-102367380D01*
X114504762Y-102367380D02*
X114409524Y-102319761D01*
X114409524Y-102319761D02*
X114361905Y-102224523D01*
X114361905Y-102224523D02*
X114361905Y-102129285D01*
X114361905Y-102129285D02*
X114409524Y-102034047D01*
X114409524Y-102034047D02*
X114504762Y-101986428D01*
X114504762Y-101986428D02*
X114742857Y-101986428D01*
X114742857Y-101986428D02*
X114838095Y-101938809D01*
X115457143Y-102367380D02*
X115361905Y-102319761D01*
X115361905Y-102319761D02*
X115314286Y-102224523D01*
X115314286Y-102224523D02*
X115314286Y-101367380D01*
X115980953Y-102367380D02*
X115885715Y-102319761D01*
X115885715Y-102319761D02*
X115838096Y-102272142D01*
X115838096Y-102272142D02*
X115790477Y-102176904D01*
X115790477Y-102176904D02*
X115790477Y-101891190D01*
X115790477Y-101891190D02*
X115838096Y-101795952D01*
X115838096Y-101795952D02*
X115885715Y-101748333D01*
X115885715Y-101748333D02*
X115980953Y-101700714D01*
X115980953Y-101700714D02*
X116123810Y-101700714D01*
X116123810Y-101700714D02*
X116219048Y-101748333D01*
X116219048Y-101748333D02*
X116266667Y-101795952D01*
X116266667Y-101795952D02*
X116314286Y-101891190D01*
X116314286Y-101891190D02*
X116314286Y-102176904D01*
X116314286Y-102176904D02*
X116266667Y-102272142D01*
X116266667Y-102272142D02*
X116219048Y-102319761D01*
X116219048Y-102319761D02*
X116123810Y-102367380D01*
X116123810Y-102367380D02*
X115980953Y-102367380D01*
X117171429Y-101700714D02*
X117171429Y-102510238D01*
X117171429Y-102510238D02*
X117123810Y-102605476D01*
X117123810Y-102605476D02*
X117076191Y-102653095D01*
X117076191Y-102653095D02*
X116980953Y-102700714D01*
X116980953Y-102700714D02*
X116838096Y-102700714D01*
X116838096Y-102700714D02*
X116742858Y-102653095D01*
X117171429Y-102319761D02*
X117076191Y-102367380D01*
X117076191Y-102367380D02*
X116885715Y-102367380D01*
X116885715Y-102367380D02*
X116790477Y-102319761D01*
X116790477Y-102319761D02*
X116742858Y-102272142D01*
X116742858Y-102272142D02*
X116695239Y-102176904D01*
X116695239Y-102176904D02*
X116695239Y-101891190D01*
X116695239Y-101891190D02*
X116742858Y-101795952D01*
X116742858Y-101795952D02*
X116790477Y-101748333D01*
X116790477Y-101748333D02*
X116885715Y-101700714D01*
X116885715Y-101700714D02*
X117076191Y-101700714D01*
X117076191Y-101700714D02*
X117171429Y-101748333D01*
X118247620Y-102367380D02*
X118247620Y-101367380D01*
X118723810Y-101700714D02*
X118723810Y-102367380D01*
X118723810Y-101795952D02*
X118771429Y-101748333D01*
X118771429Y-101748333D02*
X118866667Y-101700714D01*
X118866667Y-101700714D02*
X119009524Y-101700714D01*
X119009524Y-101700714D02*
X119104762Y-101748333D01*
X119104762Y-101748333D02*
X119152381Y-101843571D01*
X119152381Y-101843571D02*
X119152381Y-102367380D01*
X116975535Y-90874999D02*
X116225535Y-90874999D01*
X116225535Y-90874999D02*
X116225535Y-90589285D01*
X116225535Y-90589285D02*
X116261250Y-90517856D01*
X116261250Y-90517856D02*
X116296964Y-90482142D01*
X116296964Y-90482142D02*
X116368392Y-90446428D01*
X116368392Y-90446428D02*
X116475535Y-90446428D01*
X116475535Y-90446428D02*
X116546964Y-90482142D01*
X116546964Y-90482142D02*
X116582678Y-90517856D01*
X116582678Y-90517856D02*
X116618392Y-90589285D01*
X116618392Y-90589285D02*
X116618392Y-90874999D01*
X116761250Y-90160713D02*
X116761250Y-89803571D01*
X116975535Y-90232142D02*
X116225535Y-89982142D01*
X116225535Y-89982142D02*
X116975535Y-89732142D01*
X116225535Y-89553571D02*
X116225535Y-89053571D01*
X116225535Y-89053571D02*
X116975535Y-89374999D01*
X118739821Y-66417856D02*
X118775535Y-66310714D01*
X118775535Y-66310714D02*
X118775535Y-66132142D01*
X118775535Y-66132142D02*
X118739821Y-66060714D01*
X118739821Y-66060714D02*
X118704107Y-66024999D01*
X118704107Y-66024999D02*
X118632678Y-65989285D01*
X118632678Y-65989285D02*
X118561250Y-65989285D01*
X118561250Y-65989285D02*
X118489821Y-66024999D01*
X118489821Y-66024999D02*
X118454107Y-66060714D01*
X118454107Y-66060714D02*
X118418392Y-66132142D01*
X118418392Y-66132142D02*
X118382678Y-66274999D01*
X118382678Y-66274999D02*
X118346964Y-66346428D01*
X118346964Y-66346428D02*
X118311250Y-66382142D01*
X118311250Y-66382142D02*
X118239821Y-66417856D01*
X118239821Y-66417856D02*
X118168392Y-66417856D01*
X118168392Y-66417856D02*
X118096964Y-66382142D01*
X118096964Y-66382142D02*
X118061250Y-66346428D01*
X118061250Y-66346428D02*
X118025535Y-66274999D01*
X118025535Y-66274999D02*
X118025535Y-66096428D01*
X118025535Y-66096428D02*
X118061250Y-65989285D01*
X118025535Y-65739285D02*
X118775535Y-65560713D01*
X118775535Y-65560713D02*
X118239821Y-65417856D01*
X118239821Y-65417856D02*
X118775535Y-65274999D01*
X118775535Y-65274999D02*
X118025535Y-65096428D01*
X118704107Y-64382142D02*
X118739821Y-64417856D01*
X118739821Y-64417856D02*
X118775535Y-64524999D01*
X118775535Y-64524999D02*
X118775535Y-64596427D01*
X118775535Y-64596427D02*
X118739821Y-64703570D01*
X118739821Y-64703570D02*
X118668392Y-64774999D01*
X118668392Y-64774999D02*
X118596964Y-64810713D01*
X118596964Y-64810713D02*
X118454107Y-64846427D01*
X118454107Y-64846427D02*
X118346964Y-64846427D01*
X118346964Y-64846427D02*
X118204107Y-64810713D01*
X118204107Y-64810713D02*
X118132678Y-64774999D01*
X118132678Y-64774999D02*
X118061250Y-64703570D01*
X118061250Y-64703570D02*
X118025535Y-64596427D01*
X118025535Y-64596427D02*
X118025535Y-64524999D01*
X118025535Y-64524999D02*
X118061250Y-64417856D01*
X118061250Y-64417856D02*
X118096964Y-64382142D01*
X134461250Y-65203571D02*
X134425535Y-65275000D01*
X134425535Y-65275000D02*
X134425535Y-65382142D01*
X134425535Y-65382142D02*
X134461250Y-65489285D01*
X134461250Y-65489285D02*
X134532678Y-65560714D01*
X134532678Y-65560714D02*
X134604107Y-65596428D01*
X134604107Y-65596428D02*
X134746964Y-65632142D01*
X134746964Y-65632142D02*
X134854107Y-65632142D01*
X134854107Y-65632142D02*
X134996964Y-65596428D01*
X134996964Y-65596428D02*
X135068392Y-65560714D01*
X135068392Y-65560714D02*
X135139821Y-65489285D01*
X135139821Y-65489285D02*
X135175535Y-65382142D01*
X135175535Y-65382142D02*
X135175535Y-65310714D01*
X135175535Y-65310714D02*
X135139821Y-65203571D01*
X135139821Y-65203571D02*
X135104107Y-65167857D01*
X135104107Y-65167857D02*
X134854107Y-65167857D01*
X134854107Y-65167857D02*
X134854107Y-65310714D01*
D10*
X124915714Y-89373500D02*
X124830000Y-89330642D01*
X124830000Y-89330642D02*
X124701428Y-89330642D01*
X124701428Y-89330642D02*
X124572857Y-89373500D01*
X124572857Y-89373500D02*
X124487142Y-89459214D01*
X124487142Y-89459214D02*
X124444285Y-89544928D01*
X124444285Y-89544928D02*
X124401428Y-89716357D01*
X124401428Y-89716357D02*
X124401428Y-89844928D01*
X124401428Y-89844928D02*
X124444285Y-90016357D01*
X124444285Y-90016357D02*
X124487142Y-90102071D01*
X124487142Y-90102071D02*
X124572857Y-90187785D01*
X124572857Y-90187785D02*
X124701428Y-90230642D01*
X124701428Y-90230642D02*
X124787142Y-90230642D01*
X124787142Y-90230642D02*
X124915714Y-90187785D01*
X124915714Y-90187785D02*
X124958571Y-90144928D01*
X124958571Y-90144928D02*
X124958571Y-89844928D01*
X124958571Y-89844928D02*
X124787142Y-89844928D01*
X125344285Y-90230642D02*
X125344285Y-89330642D01*
X125344285Y-89759214D02*
X125858571Y-89759214D01*
X125858571Y-90230642D02*
X125858571Y-89330642D01*
X126287142Y-90144928D02*
X126329999Y-90187785D01*
X126329999Y-90187785D02*
X126287142Y-90230642D01*
X126287142Y-90230642D02*
X126244285Y-90187785D01*
X126244285Y-90187785D02*
X126287142Y-90144928D01*
X126287142Y-90144928D02*
X126287142Y-90230642D01*
X126287142Y-89673500D02*
X126329999Y-89716357D01*
X126329999Y-89716357D02*
X126287142Y-89759214D01*
X126287142Y-89759214D02*
X126244285Y-89716357D01*
X126244285Y-89716357D02*
X126287142Y-89673500D01*
X126287142Y-89673500D02*
X126287142Y-89759214D01*
X127127142Y-89330642D02*
X127641428Y-89330642D01*
X127384285Y-90230642D02*
X127384285Y-89330642D01*
X128069999Y-90230642D02*
X127984284Y-90187785D01*
X127984284Y-90187785D02*
X127941427Y-90144928D01*
X127941427Y-90144928D02*
X127898570Y-90059214D01*
X127898570Y-90059214D02*
X127898570Y-89802071D01*
X127898570Y-89802071D02*
X127941427Y-89716357D01*
X127941427Y-89716357D02*
X127984284Y-89673500D01*
X127984284Y-89673500D02*
X128069999Y-89630642D01*
X128069999Y-89630642D02*
X128198570Y-89630642D01*
X128198570Y-89630642D02*
X128284284Y-89673500D01*
X128284284Y-89673500D02*
X128327142Y-89716357D01*
X128327142Y-89716357D02*
X128369999Y-89802071D01*
X128369999Y-89802071D02*
X128369999Y-90059214D01*
X128369999Y-90059214D02*
X128327142Y-90144928D01*
X128327142Y-90144928D02*
X128284284Y-90187785D01*
X128284284Y-90187785D02*
X128198570Y-90230642D01*
X128198570Y-90230642D02*
X128069999Y-90230642D01*
X128755713Y-90230642D02*
X128755713Y-89630642D01*
X128755713Y-89716357D02*
X128798570Y-89673500D01*
X128798570Y-89673500D02*
X128884285Y-89630642D01*
X128884285Y-89630642D02*
X129012856Y-89630642D01*
X129012856Y-89630642D02*
X129098570Y-89673500D01*
X129098570Y-89673500D02*
X129141428Y-89759214D01*
X129141428Y-89759214D02*
X129141428Y-90230642D01*
X129141428Y-89759214D02*
X129184285Y-89673500D01*
X129184285Y-89673500D02*
X129269999Y-89630642D01*
X129269999Y-89630642D02*
X129398570Y-89630642D01*
X129398570Y-89630642D02*
X129484285Y-89673500D01*
X129484285Y-89673500D02*
X129527142Y-89759214D01*
X129527142Y-89759214D02*
X129527142Y-90230642D01*
X129955713Y-90230642D02*
X129955713Y-89630642D01*
X129955713Y-89716357D02*
X129998570Y-89673500D01*
X129998570Y-89673500D02*
X130084285Y-89630642D01*
X130084285Y-89630642D02*
X130212856Y-89630642D01*
X130212856Y-89630642D02*
X130298570Y-89673500D01*
X130298570Y-89673500D02*
X130341428Y-89759214D01*
X130341428Y-89759214D02*
X130341428Y-90230642D01*
X130341428Y-89759214D02*
X130384285Y-89673500D01*
X130384285Y-89673500D02*
X130469999Y-89630642D01*
X130469999Y-89630642D02*
X130598570Y-89630642D01*
X130598570Y-89630642D02*
X130684285Y-89673500D01*
X130684285Y-89673500D02*
X130727142Y-89759214D01*
X130727142Y-89759214D02*
X130727142Y-90230642D01*
X131069999Y-89630642D02*
X131284285Y-90230642D01*
X131498570Y-89630642D02*
X131284285Y-90230642D01*
X131284285Y-90230642D02*
X131198570Y-90444928D01*
X131198570Y-90444928D02*
X131155713Y-90487785D01*
X131155713Y-90487785D02*
X131069999Y-90530642D01*
X131798570Y-89416357D02*
X131841427Y-89373500D01*
X131841427Y-89373500D02*
X131927142Y-89330642D01*
X131927142Y-89330642D02*
X132141427Y-89330642D01*
X132141427Y-89330642D02*
X132227142Y-89373500D01*
X132227142Y-89373500D02*
X132269999Y-89416357D01*
X132269999Y-89416357D02*
X132312856Y-89502071D01*
X132312856Y-89502071D02*
X132312856Y-89587785D01*
X132312856Y-89587785D02*
X132269999Y-89716357D01*
X132269999Y-89716357D02*
X131755713Y-90230642D01*
X131755713Y-90230642D02*
X132312856Y-90230642D01*
X132612856Y-89330642D02*
X133212856Y-89330642D01*
X133212856Y-89330642D02*
X132827142Y-90230642D01*
X133727142Y-89330642D02*
X133812856Y-89330642D01*
X133812856Y-89330642D02*
X133898570Y-89373500D01*
X133898570Y-89373500D02*
X133941428Y-89416357D01*
X133941428Y-89416357D02*
X133984285Y-89502071D01*
X133984285Y-89502071D02*
X134027142Y-89673500D01*
X134027142Y-89673500D02*
X134027142Y-89887785D01*
X134027142Y-89887785D02*
X133984285Y-90059214D01*
X133984285Y-90059214D02*
X133941428Y-90144928D01*
X133941428Y-90144928D02*
X133898570Y-90187785D01*
X133898570Y-90187785D02*
X133812856Y-90230642D01*
X133812856Y-90230642D02*
X133727142Y-90230642D01*
X133727142Y-90230642D02*
X133641428Y-90187785D01*
X133641428Y-90187785D02*
X133598570Y-90144928D01*
X133598570Y-90144928D02*
X133555713Y-90059214D01*
X133555713Y-90059214D02*
X133512856Y-89887785D01*
X133512856Y-89887785D02*
X133512856Y-89673500D01*
X133512856Y-89673500D02*
X133555713Y-89502071D01*
X133555713Y-89502071D02*
X133598570Y-89416357D01*
X133598570Y-89416357D02*
X133641428Y-89373500D01*
X133641428Y-89373500D02*
X133727142Y-89330642D01*
X134841428Y-89330642D02*
X134412856Y-89330642D01*
X134412856Y-89330642D02*
X134369999Y-89759214D01*
X134369999Y-89759214D02*
X134412856Y-89716357D01*
X134412856Y-89716357D02*
X134498571Y-89673500D01*
X134498571Y-89673500D02*
X134712856Y-89673500D01*
X134712856Y-89673500D02*
X134798571Y-89716357D01*
X134798571Y-89716357D02*
X134841428Y-89759214D01*
X134841428Y-89759214D02*
X134884285Y-89844928D01*
X134884285Y-89844928D02*
X134884285Y-90059214D01*
X134884285Y-90059214D02*
X134841428Y-90144928D01*
X134841428Y-90144928D02*
X134798571Y-90187785D01*
X134798571Y-90187785D02*
X134712856Y-90230642D01*
X134712856Y-90230642D02*
X134498571Y-90230642D01*
X134498571Y-90230642D02*
X134412856Y-90187785D01*
X134412856Y-90187785D02*
X134369999Y-90144928D01*
X135441428Y-89330642D02*
X135527142Y-89330642D01*
X135527142Y-89330642D02*
X135612856Y-89373500D01*
X135612856Y-89373500D02*
X135655714Y-89416357D01*
X135655714Y-89416357D02*
X135698571Y-89502071D01*
X135698571Y-89502071D02*
X135741428Y-89673500D01*
X135741428Y-89673500D02*
X135741428Y-89887785D01*
X135741428Y-89887785D02*
X135698571Y-90059214D01*
X135698571Y-90059214D02*
X135655714Y-90144928D01*
X135655714Y-90144928D02*
X135612856Y-90187785D01*
X135612856Y-90187785D02*
X135527142Y-90230642D01*
X135527142Y-90230642D02*
X135441428Y-90230642D01*
X135441428Y-90230642D02*
X135355714Y-90187785D01*
X135355714Y-90187785D02*
X135312856Y-90144928D01*
X135312856Y-90144928D02*
X135269999Y-90059214D01*
X135269999Y-90059214D02*
X135227142Y-89887785D01*
X135227142Y-89887785D02*
X135227142Y-89673500D01*
X135227142Y-89673500D02*
X135269999Y-89502071D01*
X135269999Y-89502071D02*
X135312856Y-89416357D01*
X135312856Y-89416357D02*
X135355714Y-89373500D01*
X135355714Y-89373500D02*
X135441428Y-89330642D01*
X136084285Y-89416357D02*
X136127142Y-89373500D01*
X136127142Y-89373500D02*
X136212857Y-89330642D01*
X136212857Y-89330642D02*
X136427142Y-89330642D01*
X136427142Y-89330642D02*
X136512857Y-89373500D01*
X136512857Y-89373500D02*
X136555714Y-89416357D01*
X136555714Y-89416357D02*
X136598571Y-89502071D01*
X136598571Y-89502071D02*
X136598571Y-89587785D01*
X136598571Y-89587785D02*
X136555714Y-89716357D01*
X136555714Y-89716357D02*
X136041428Y-90230642D01*
X136041428Y-90230642D02*
X136598571Y-90230642D01*
X124736904Y-88402083D02*
X125332142Y-88402083D01*
X124617856Y-88759226D02*
X125034523Y-87509226D01*
X125034523Y-87509226D02*
X125451189Y-88759226D01*
X125867857Y-88759226D02*
X125867857Y-87509226D01*
X125867857Y-87509226D02*
X126344047Y-87509226D01*
X126344047Y-87509226D02*
X126463095Y-87568750D01*
X126463095Y-87568750D02*
X126522618Y-87628273D01*
X126522618Y-87628273D02*
X126582142Y-87747321D01*
X126582142Y-87747321D02*
X126582142Y-87925892D01*
X126582142Y-87925892D02*
X126522618Y-88044940D01*
X126522618Y-88044940D02*
X126463095Y-88104464D01*
X126463095Y-88104464D02*
X126344047Y-88163988D01*
X126344047Y-88163988D02*
X125867857Y-88163988D01*
X127355952Y-87509226D02*
X127594047Y-87509226D01*
X127594047Y-87509226D02*
X127713095Y-87568750D01*
X127713095Y-87568750D02*
X127832142Y-87687797D01*
X127832142Y-87687797D02*
X127891666Y-87925892D01*
X127891666Y-87925892D02*
X127891666Y-88342559D01*
X127891666Y-88342559D02*
X127832142Y-88580654D01*
X127832142Y-88580654D02*
X127713095Y-88699702D01*
X127713095Y-88699702D02*
X127594047Y-88759226D01*
X127594047Y-88759226D02*
X127355952Y-88759226D01*
X127355952Y-88759226D02*
X127236904Y-88699702D01*
X127236904Y-88699702D02*
X127117857Y-88580654D01*
X127117857Y-88580654D02*
X127058333Y-88342559D01*
X127058333Y-88342559D02*
X127058333Y-87925892D01*
X127058333Y-87925892D02*
X127117857Y-87687797D01*
X127117857Y-87687797D02*
X127236904Y-87568750D01*
X127236904Y-87568750D02*
X127355952Y-87509226D01*
X129022619Y-88759226D02*
X128427381Y-88759226D01*
X128427381Y-88759226D02*
X128427381Y-87509226D01*
X130034524Y-88759226D02*
X129439286Y-88759226D01*
X129439286Y-88759226D02*
X129439286Y-87509226D01*
X130689286Y-87509226D02*
X130927381Y-87509226D01*
X130927381Y-87509226D02*
X131046429Y-87568750D01*
X131046429Y-87568750D02*
X131165476Y-87687797D01*
X131165476Y-87687797D02*
X131225000Y-87925892D01*
X131225000Y-87925892D02*
X131225000Y-88342559D01*
X131225000Y-88342559D02*
X131165476Y-88580654D01*
X131165476Y-88580654D02*
X131046429Y-88699702D01*
X131046429Y-88699702D02*
X130927381Y-88759226D01*
X130927381Y-88759226D02*
X130689286Y-88759226D01*
X130689286Y-88759226D02*
X130570238Y-88699702D01*
X130570238Y-88699702D02*
X130451191Y-88580654D01*
X130451191Y-88580654D02*
X130391667Y-88342559D01*
X130391667Y-88342559D02*
X130391667Y-87925892D01*
X130391667Y-87925892D02*
X130451191Y-87687797D01*
X130451191Y-87687797D02*
X130570238Y-87568750D01*
X130570238Y-87568750D02*
X130689286Y-87509226D01*
X131760715Y-88283035D02*
X132713096Y-88283035D01*
X133308334Y-88759226D02*
X133308334Y-87509226D01*
X133308334Y-87509226D02*
X133605953Y-87509226D01*
X133605953Y-87509226D02*
X133784524Y-87568750D01*
X133784524Y-87568750D02*
X133903572Y-87687797D01*
X133903572Y-87687797D02*
X133963095Y-87806845D01*
X133963095Y-87806845D02*
X134022619Y-88044940D01*
X134022619Y-88044940D02*
X134022619Y-88223511D01*
X134022619Y-88223511D02*
X133963095Y-88461607D01*
X133963095Y-88461607D02*
X133903572Y-88580654D01*
X133903572Y-88580654D02*
X133784524Y-88699702D01*
X133784524Y-88699702D02*
X133605953Y-88759226D01*
X133605953Y-88759226D02*
X133308334Y-88759226D01*
X134498810Y-88699702D02*
X134677381Y-88759226D01*
X134677381Y-88759226D02*
X134975000Y-88759226D01*
X134975000Y-88759226D02*
X135094048Y-88699702D01*
X135094048Y-88699702D02*
X135153572Y-88640178D01*
X135153572Y-88640178D02*
X135213095Y-88521130D01*
X135213095Y-88521130D02*
X135213095Y-88402083D01*
X135213095Y-88402083D02*
X135153572Y-88283035D01*
X135153572Y-88283035D02*
X135094048Y-88223511D01*
X135094048Y-88223511D02*
X134975000Y-88163988D01*
X134975000Y-88163988D02*
X134736905Y-88104464D01*
X134736905Y-88104464D02*
X134617857Y-88044940D01*
X134617857Y-88044940D02*
X134558334Y-87985416D01*
X134558334Y-87985416D02*
X134498810Y-87866369D01*
X134498810Y-87866369D02*
X134498810Y-87747321D01*
X134498810Y-87747321D02*
X134558334Y-87628273D01*
X134558334Y-87628273D02*
X134617857Y-87568750D01*
X134617857Y-87568750D02*
X134736905Y-87509226D01*
X134736905Y-87509226D02*
X135034524Y-87509226D01*
X135034524Y-87509226D02*
X135213095Y-87568750D01*
X135748810Y-88759226D02*
X135748810Y-87509226D01*
X135748810Y-87509226D02*
X136225000Y-87509226D01*
X136225000Y-87509226D02*
X136344048Y-87568750D01*
X136344048Y-87568750D02*
X136403571Y-87628273D01*
X136403571Y-87628273D02*
X136463095Y-87747321D01*
X136463095Y-87747321D02*
X136463095Y-87925892D01*
X136463095Y-87925892D02*
X136403571Y-88044940D01*
X136403571Y-88044940D02*
X136344048Y-88104464D01*
X136344048Y-88104464D02*
X136225000Y-88163988D01*
X136225000Y-88163988D02*
X135748810Y-88163988D01*
D12*
X115425535Y-66228571D02*
X115425535Y-65764285D01*
X115425535Y-65764285D02*
X115711250Y-66014285D01*
X115711250Y-66014285D02*
X115711250Y-65907142D01*
X115711250Y-65907142D02*
X115746964Y-65835714D01*
X115746964Y-65835714D02*
X115782678Y-65799999D01*
X115782678Y-65799999D02*
X115854107Y-65764285D01*
X115854107Y-65764285D02*
X116032678Y-65764285D01*
X116032678Y-65764285D02*
X116104107Y-65799999D01*
X116104107Y-65799999D02*
X116139821Y-65835714D01*
X116139821Y-65835714D02*
X116175535Y-65907142D01*
X116175535Y-65907142D02*
X116175535Y-66121428D01*
X116175535Y-66121428D02*
X116139821Y-66192856D01*
X116139821Y-66192856D02*
X116104107Y-66228571D01*
X115425535Y-65549999D02*
X116175535Y-65299999D01*
X116175535Y-65299999D02*
X115425535Y-65049999D01*
X115425535Y-64871428D02*
X115425535Y-64407142D01*
X115425535Y-64407142D02*
X115711250Y-64657142D01*
X115711250Y-64657142D02*
X115711250Y-64549999D01*
X115711250Y-64549999D02*
X115746964Y-64478571D01*
X115746964Y-64478571D02*
X115782678Y-64442856D01*
X115782678Y-64442856D02*
X115854107Y-64407142D01*
X115854107Y-64407142D02*
X116032678Y-64407142D01*
X116032678Y-64407142D02*
X116104107Y-64442856D01*
X116104107Y-64442856D02*
X116139821Y-64478571D01*
X116139821Y-64478571D02*
X116175535Y-64549999D01*
X116175535Y-64549999D02*
X116175535Y-64764285D01*
X116175535Y-64764285D02*
X116139821Y-64835713D01*
X116139821Y-64835713D02*
X116104107Y-64871428D01*
D11*
X92252380Y-71867380D02*
X91919047Y-71391190D01*
X91680952Y-71867380D02*
X91680952Y-70867380D01*
X91680952Y-70867380D02*
X92061904Y-70867380D01*
X92061904Y-70867380D02*
X92157142Y-70915000D01*
X92157142Y-70915000D02*
X92204761Y-70962619D01*
X92204761Y-70962619D02*
X92252380Y-71057857D01*
X92252380Y-71057857D02*
X92252380Y-71200714D01*
X92252380Y-71200714D02*
X92204761Y-71295952D01*
X92204761Y-71295952D02*
X92157142Y-71343571D01*
X92157142Y-71343571D02*
X92061904Y-71391190D01*
X92061904Y-71391190D02*
X91680952Y-71391190D01*
X92633333Y-71819761D02*
X92776190Y-71867380D01*
X92776190Y-71867380D02*
X93014285Y-71867380D01*
X93014285Y-71867380D02*
X93109523Y-71819761D01*
X93109523Y-71819761D02*
X93157142Y-71772142D01*
X93157142Y-71772142D02*
X93204761Y-71676904D01*
X93204761Y-71676904D02*
X93204761Y-71581666D01*
X93204761Y-71581666D02*
X93157142Y-71486428D01*
X93157142Y-71486428D02*
X93109523Y-71438809D01*
X93109523Y-71438809D02*
X93014285Y-71391190D01*
X93014285Y-71391190D02*
X92823809Y-71343571D01*
X92823809Y-71343571D02*
X92728571Y-71295952D01*
X92728571Y-71295952D02*
X92680952Y-71248333D01*
X92680952Y-71248333D02*
X92633333Y-71153095D01*
X92633333Y-71153095D02*
X92633333Y-71057857D01*
X92633333Y-71057857D02*
X92680952Y-70962619D01*
X92680952Y-70962619D02*
X92728571Y-70915000D01*
X92728571Y-70915000D02*
X92823809Y-70867380D01*
X92823809Y-70867380D02*
X93061904Y-70867380D01*
X93061904Y-70867380D02*
X93204761Y-70915000D01*
X93490476Y-70867380D02*
X94061904Y-70867380D01*
X93776190Y-71867380D02*
X93776190Y-70867380D01*
D10*
X124730951Y-101167380D02*
X124730951Y-101881666D01*
X124730951Y-101881666D02*
X124683332Y-102024523D01*
X124683332Y-102024523D02*
X124588094Y-102119761D01*
X124588094Y-102119761D02*
X124445237Y-102167380D01*
X124445237Y-102167380D02*
X124349999Y-102167380D01*
X125683332Y-102167380D02*
X125207142Y-102167380D01*
X125207142Y-102167380D02*
X125207142Y-101167380D01*
X126588094Y-102072142D02*
X126540475Y-102119761D01*
X126540475Y-102119761D02*
X126397618Y-102167380D01*
X126397618Y-102167380D02*
X126302380Y-102167380D01*
X126302380Y-102167380D02*
X126159523Y-102119761D01*
X126159523Y-102119761D02*
X126064285Y-102024523D01*
X126064285Y-102024523D02*
X126016666Y-101929285D01*
X126016666Y-101929285D02*
X125969047Y-101738809D01*
X125969047Y-101738809D02*
X125969047Y-101595952D01*
X125969047Y-101595952D02*
X126016666Y-101405476D01*
X126016666Y-101405476D02*
X126064285Y-101310238D01*
X126064285Y-101310238D02*
X126159523Y-101215000D01*
X126159523Y-101215000D02*
X126302380Y-101167380D01*
X126302380Y-101167380D02*
X126397618Y-101167380D01*
X126397618Y-101167380D02*
X126540475Y-101215000D01*
X126540475Y-101215000D02*
X126588094Y-101262619D01*
X127302380Y-101167380D02*
X127302380Y-101881666D01*
X127302380Y-101881666D02*
X127254761Y-102024523D01*
X127254761Y-102024523D02*
X127159523Y-102119761D01*
X127159523Y-102119761D02*
X127016666Y-102167380D01*
X127016666Y-102167380D02*
X126921428Y-102167380D01*
X128254761Y-102167380D02*
X127778571Y-102167380D01*
X127778571Y-102167380D02*
X127778571Y-101167380D01*
X129159523Y-102072142D02*
X129111904Y-102119761D01*
X129111904Y-102119761D02*
X128969047Y-102167380D01*
X128969047Y-102167380D02*
X128873809Y-102167380D01*
X128873809Y-102167380D02*
X128730952Y-102119761D01*
X128730952Y-102119761D02*
X128635714Y-102024523D01*
X128635714Y-102024523D02*
X128588095Y-101929285D01*
X128588095Y-101929285D02*
X128540476Y-101738809D01*
X128540476Y-101738809D02*
X128540476Y-101595952D01*
X128540476Y-101595952D02*
X128588095Y-101405476D01*
X128588095Y-101405476D02*
X128635714Y-101310238D01*
X128635714Y-101310238D02*
X128730952Y-101215000D01*
X128730952Y-101215000D02*
X128873809Y-101167380D01*
X128873809Y-101167380D02*
X128969047Y-101167380D01*
X128969047Y-101167380D02*
X129111904Y-101215000D01*
X129111904Y-101215000D02*
X129159523Y-101262619D01*
X129873809Y-101167380D02*
X129873809Y-101881666D01*
X129873809Y-101881666D02*
X129826190Y-102024523D01*
X129826190Y-102024523D02*
X129730952Y-102119761D01*
X129730952Y-102119761D02*
X129588095Y-102167380D01*
X129588095Y-102167380D02*
X129492857Y-102167380D01*
X130826190Y-102167380D02*
X130350000Y-102167380D01*
X130350000Y-102167380D02*
X130350000Y-101167380D01*
X131730952Y-102072142D02*
X131683333Y-102119761D01*
X131683333Y-102119761D02*
X131540476Y-102167380D01*
X131540476Y-102167380D02*
X131445238Y-102167380D01*
X131445238Y-102167380D02*
X131302381Y-102119761D01*
X131302381Y-102119761D02*
X131207143Y-102024523D01*
X131207143Y-102024523D02*
X131159524Y-101929285D01*
X131159524Y-101929285D02*
X131111905Y-101738809D01*
X131111905Y-101738809D02*
X131111905Y-101595952D01*
X131111905Y-101595952D02*
X131159524Y-101405476D01*
X131159524Y-101405476D02*
X131207143Y-101310238D01*
X131207143Y-101310238D02*
X131302381Y-101215000D01*
X131302381Y-101215000D02*
X131445238Y-101167380D01*
X131445238Y-101167380D02*
X131540476Y-101167380D01*
X131540476Y-101167380D02*
X131683333Y-101215000D01*
X131683333Y-101215000D02*
X131730952Y-101262619D01*
X132445238Y-101167380D02*
X132445238Y-101881666D01*
X132445238Y-101881666D02*
X132397619Y-102024523D01*
X132397619Y-102024523D02*
X132302381Y-102119761D01*
X132302381Y-102119761D02*
X132159524Y-102167380D01*
X132159524Y-102167380D02*
X132064286Y-102167380D01*
X133397619Y-102167380D02*
X132921429Y-102167380D01*
X132921429Y-102167380D02*
X132921429Y-101167380D01*
X134302381Y-102072142D02*
X134254762Y-102119761D01*
X134254762Y-102119761D02*
X134111905Y-102167380D01*
X134111905Y-102167380D02*
X134016667Y-102167380D01*
X134016667Y-102167380D02*
X133873810Y-102119761D01*
X133873810Y-102119761D02*
X133778572Y-102024523D01*
X133778572Y-102024523D02*
X133730953Y-101929285D01*
X133730953Y-101929285D02*
X133683334Y-101738809D01*
X133683334Y-101738809D02*
X133683334Y-101595952D01*
X133683334Y-101595952D02*
X133730953Y-101405476D01*
X133730953Y-101405476D02*
X133778572Y-101310238D01*
X133778572Y-101310238D02*
X133873810Y-101215000D01*
X133873810Y-101215000D02*
X134016667Y-101167380D01*
X134016667Y-101167380D02*
X134111905Y-101167380D01*
X134111905Y-101167380D02*
X134254762Y-101215000D01*
X134254762Y-101215000D02*
X134302381Y-101262619D01*
X126150000Y-90767380D02*
X126721428Y-90767380D01*
X126435714Y-91767380D02*
X126435714Y-90767380D01*
X127054762Y-91767380D02*
X127054762Y-90767380D01*
X127483333Y-91767380D02*
X127483333Y-91243571D01*
X127483333Y-91243571D02*
X127435714Y-91148333D01*
X127435714Y-91148333D02*
X127340476Y-91100714D01*
X127340476Y-91100714D02*
X127197619Y-91100714D01*
X127197619Y-91100714D02*
X127102381Y-91148333D01*
X127102381Y-91148333D02*
X127054762Y-91195952D01*
X128102381Y-91767380D02*
X128007143Y-91719761D01*
X128007143Y-91719761D02*
X127959524Y-91672142D01*
X127959524Y-91672142D02*
X127911905Y-91576904D01*
X127911905Y-91576904D02*
X127911905Y-91291190D01*
X127911905Y-91291190D02*
X127959524Y-91195952D01*
X127959524Y-91195952D02*
X128007143Y-91148333D01*
X128007143Y-91148333D02*
X128102381Y-91100714D01*
X128102381Y-91100714D02*
X128245238Y-91100714D01*
X128245238Y-91100714D02*
X128340476Y-91148333D01*
X128340476Y-91148333D02*
X128388095Y-91195952D01*
X128388095Y-91195952D02*
X128435714Y-91291190D01*
X128435714Y-91291190D02*
X128435714Y-91576904D01*
X128435714Y-91576904D02*
X128388095Y-91672142D01*
X128388095Y-91672142D02*
X128340476Y-91719761D01*
X128340476Y-91719761D02*
X128245238Y-91767380D01*
X128245238Y-91767380D02*
X128102381Y-91767380D01*
X128864286Y-91767380D02*
X128864286Y-91100714D01*
X128864286Y-91195952D02*
X128911905Y-91148333D01*
X128911905Y-91148333D02*
X129007143Y-91100714D01*
X129007143Y-91100714D02*
X129150000Y-91100714D01*
X129150000Y-91100714D02*
X129245238Y-91148333D01*
X129245238Y-91148333D02*
X129292857Y-91243571D01*
X129292857Y-91243571D02*
X129292857Y-91767380D01*
X129292857Y-91243571D02*
X129340476Y-91148333D01*
X129340476Y-91148333D02*
X129435714Y-91100714D01*
X129435714Y-91100714D02*
X129578571Y-91100714D01*
X129578571Y-91100714D02*
X129673810Y-91148333D01*
X129673810Y-91148333D02*
X129721429Y-91243571D01*
X129721429Y-91243571D02*
X129721429Y-91767380D01*
X130626190Y-91767380D02*
X130626190Y-91243571D01*
X130626190Y-91243571D02*
X130578571Y-91148333D01*
X130578571Y-91148333D02*
X130483333Y-91100714D01*
X130483333Y-91100714D02*
X130292857Y-91100714D01*
X130292857Y-91100714D02*
X130197619Y-91148333D01*
X130626190Y-91719761D02*
X130530952Y-91767380D01*
X130530952Y-91767380D02*
X130292857Y-91767380D01*
X130292857Y-91767380D02*
X130197619Y-91719761D01*
X130197619Y-91719761D02*
X130150000Y-91624523D01*
X130150000Y-91624523D02*
X130150000Y-91529285D01*
X130150000Y-91529285D02*
X130197619Y-91434047D01*
X130197619Y-91434047D02*
X130292857Y-91386428D01*
X130292857Y-91386428D02*
X130530952Y-91386428D01*
X130530952Y-91386428D02*
X130626190Y-91338809D01*
X131054762Y-91719761D02*
X131150000Y-91767380D01*
X131150000Y-91767380D02*
X131340476Y-91767380D01*
X131340476Y-91767380D02*
X131435714Y-91719761D01*
X131435714Y-91719761D02*
X131483333Y-91624523D01*
X131483333Y-91624523D02*
X131483333Y-91576904D01*
X131483333Y-91576904D02*
X131435714Y-91481666D01*
X131435714Y-91481666D02*
X131340476Y-91434047D01*
X131340476Y-91434047D02*
X131197619Y-91434047D01*
X131197619Y-91434047D02*
X131102381Y-91386428D01*
X131102381Y-91386428D02*
X131054762Y-91291190D01*
X131054762Y-91291190D02*
X131054762Y-91243571D01*
X131054762Y-91243571D02*
X131102381Y-91148333D01*
X131102381Y-91148333D02*
X131197619Y-91100714D01*
X131197619Y-91100714D02*
X131340476Y-91100714D01*
X131340476Y-91100714D02*
X131435714Y-91148333D01*
X132511905Y-91767380D02*
X132511905Y-90767380D01*
X132511905Y-90767380D02*
X132892857Y-90767380D01*
X132892857Y-90767380D02*
X132988095Y-90815000D01*
X132988095Y-90815000D02*
X133035714Y-90862619D01*
X133035714Y-90862619D02*
X133083333Y-90957857D01*
X133083333Y-90957857D02*
X133083333Y-91100714D01*
X133083333Y-91100714D02*
X133035714Y-91195952D01*
X133035714Y-91195952D02*
X132988095Y-91243571D01*
X132988095Y-91243571D02*
X132892857Y-91291190D01*
X132892857Y-91291190D02*
X132511905Y-91291190D01*
X133892857Y-91719761D02*
X133797619Y-91767380D01*
X133797619Y-91767380D02*
X133607143Y-91767380D01*
X133607143Y-91767380D02*
X133511905Y-91719761D01*
X133511905Y-91719761D02*
X133464286Y-91624523D01*
X133464286Y-91624523D02*
X133464286Y-91243571D01*
X133464286Y-91243571D02*
X133511905Y-91148333D01*
X133511905Y-91148333D02*
X133607143Y-91100714D01*
X133607143Y-91100714D02*
X133797619Y-91100714D01*
X133797619Y-91100714D02*
X133892857Y-91148333D01*
X133892857Y-91148333D02*
X133940476Y-91243571D01*
X133940476Y-91243571D02*
X133940476Y-91338809D01*
X133940476Y-91338809D02*
X133464286Y-91434047D01*
X134369048Y-91767380D02*
X134369048Y-91100714D01*
X134369048Y-91291190D02*
X134416667Y-91195952D01*
X134416667Y-91195952D02*
X134464286Y-91148333D01*
X134464286Y-91148333D02*
X134559524Y-91100714D01*
X134559524Y-91100714D02*
X134654762Y-91100714D01*
X134988096Y-91767380D02*
X134988096Y-91100714D01*
X134988096Y-91291190D02*
X135035715Y-91195952D01*
X135035715Y-91195952D02*
X135083334Y-91148333D01*
X135083334Y-91148333D02*
X135178572Y-91100714D01*
X135178572Y-91100714D02*
X135273810Y-91100714D01*
X135607144Y-91767380D02*
X135607144Y-91100714D01*
X135607144Y-90767380D02*
X135559525Y-90815000D01*
X135559525Y-90815000D02*
X135607144Y-90862619D01*
X135607144Y-90862619D02*
X135654763Y-90815000D01*
X135654763Y-90815000D02*
X135607144Y-90767380D01*
X135607144Y-90767380D02*
X135607144Y-90862619D01*
D12*
X118361250Y-103603571D02*
X118325535Y-103675000D01*
X118325535Y-103675000D02*
X118325535Y-103782142D01*
X118325535Y-103782142D02*
X118361250Y-103889285D01*
X118361250Y-103889285D02*
X118432678Y-103960714D01*
X118432678Y-103960714D02*
X118504107Y-103996428D01*
X118504107Y-103996428D02*
X118646964Y-104032142D01*
X118646964Y-104032142D02*
X118754107Y-104032142D01*
X118754107Y-104032142D02*
X118896964Y-103996428D01*
X118896964Y-103996428D02*
X118968392Y-103960714D01*
X118968392Y-103960714D02*
X119039821Y-103889285D01*
X119039821Y-103889285D02*
X119075535Y-103782142D01*
X119075535Y-103782142D02*
X119075535Y-103710714D01*
X119075535Y-103710714D02*
X119039821Y-103603571D01*
X119039821Y-103603571D02*
X119004107Y-103567857D01*
X119004107Y-103567857D02*
X118754107Y-103567857D01*
X118754107Y-103567857D02*
X118754107Y-103710714D01*
X126825535Y-66328571D02*
X126825535Y-65864285D01*
X126825535Y-65864285D02*
X127111250Y-66114285D01*
X127111250Y-66114285D02*
X127111250Y-66007142D01*
X127111250Y-66007142D02*
X127146964Y-65935714D01*
X127146964Y-65935714D02*
X127182678Y-65899999D01*
X127182678Y-65899999D02*
X127254107Y-65864285D01*
X127254107Y-65864285D02*
X127432678Y-65864285D01*
X127432678Y-65864285D02*
X127504107Y-65899999D01*
X127504107Y-65899999D02*
X127539821Y-65935714D01*
X127539821Y-65935714D02*
X127575535Y-66007142D01*
X127575535Y-66007142D02*
X127575535Y-66221428D01*
X127575535Y-66221428D02*
X127539821Y-66292856D01*
X127539821Y-66292856D02*
X127504107Y-66328571D01*
X126825535Y-65649999D02*
X127575535Y-65399999D01*
X127575535Y-65399999D02*
X126825535Y-65149999D01*
X126825535Y-64971428D02*
X126825535Y-64507142D01*
X126825535Y-64507142D02*
X127111250Y-64757142D01*
X127111250Y-64757142D02*
X127111250Y-64649999D01*
X127111250Y-64649999D02*
X127146964Y-64578571D01*
X127146964Y-64578571D02*
X127182678Y-64542856D01*
X127182678Y-64542856D02*
X127254107Y-64507142D01*
X127254107Y-64507142D02*
X127432678Y-64507142D01*
X127432678Y-64507142D02*
X127504107Y-64542856D01*
X127504107Y-64542856D02*
X127539821Y-64578571D01*
X127539821Y-64578571D02*
X127575535Y-64649999D01*
X127575535Y-64649999D02*
X127575535Y-64864285D01*
X127575535Y-64864285D02*
X127539821Y-64935713D01*
X127539821Y-64935713D02*
X127504107Y-64971428D01*
X110725535Y-104350000D02*
X110725535Y-103885714D01*
X110725535Y-103885714D02*
X111011250Y-104135714D01*
X111011250Y-104135714D02*
X111011250Y-104028571D01*
X111011250Y-104028571D02*
X111046964Y-103957143D01*
X111046964Y-103957143D02*
X111082678Y-103921428D01*
X111082678Y-103921428D02*
X111154107Y-103885714D01*
X111154107Y-103885714D02*
X111332678Y-103885714D01*
X111332678Y-103885714D02*
X111404107Y-103921428D01*
X111404107Y-103921428D02*
X111439821Y-103957143D01*
X111439821Y-103957143D02*
X111475535Y-104028571D01*
X111475535Y-104028571D02*
X111475535Y-104242857D01*
X111475535Y-104242857D02*
X111439821Y-104314285D01*
X111439821Y-104314285D02*
X111404107Y-104350000D01*
X110725535Y-103671428D02*
X111475535Y-103421428D01*
X111475535Y-103421428D02*
X110725535Y-103171428D01*
X110725535Y-102992857D02*
X110725535Y-102528571D01*
X110725535Y-102528571D02*
X111011250Y-102778571D01*
X111011250Y-102778571D02*
X111011250Y-102671428D01*
X111011250Y-102671428D02*
X111046964Y-102600000D01*
X111046964Y-102600000D02*
X111082678Y-102564285D01*
X111082678Y-102564285D02*
X111154107Y-102528571D01*
X111154107Y-102528571D02*
X111332678Y-102528571D01*
X111332678Y-102528571D02*
X111404107Y-102564285D01*
X111404107Y-102564285D02*
X111439821Y-102600000D01*
X111439821Y-102600000D02*
X111475535Y-102671428D01*
X111475535Y-102671428D02*
X111475535Y-102885714D01*
X111475535Y-102885714D02*
X111439821Y-102957142D01*
X111439821Y-102957142D02*
X111404107Y-102992857D01*
X111261250Y-102242856D02*
X111261250Y-101885714D01*
X111475535Y-102314285D02*
X110725535Y-102064285D01*
X110725535Y-102064285D02*
X111475535Y-101814285D01*
X121339821Y-66417856D02*
X121375535Y-66310714D01*
X121375535Y-66310714D02*
X121375535Y-66132142D01*
X121375535Y-66132142D02*
X121339821Y-66060714D01*
X121339821Y-66060714D02*
X121304107Y-66024999D01*
X121304107Y-66024999D02*
X121232678Y-65989285D01*
X121232678Y-65989285D02*
X121161250Y-65989285D01*
X121161250Y-65989285D02*
X121089821Y-66024999D01*
X121089821Y-66024999D02*
X121054107Y-66060714D01*
X121054107Y-66060714D02*
X121018392Y-66132142D01*
X121018392Y-66132142D02*
X120982678Y-66274999D01*
X120982678Y-66274999D02*
X120946964Y-66346428D01*
X120946964Y-66346428D02*
X120911250Y-66382142D01*
X120911250Y-66382142D02*
X120839821Y-66417856D01*
X120839821Y-66417856D02*
X120768392Y-66417856D01*
X120768392Y-66417856D02*
X120696964Y-66382142D01*
X120696964Y-66382142D02*
X120661250Y-66346428D01*
X120661250Y-66346428D02*
X120625535Y-66274999D01*
X120625535Y-66274999D02*
X120625535Y-66096428D01*
X120625535Y-66096428D02*
X120661250Y-65989285D01*
X120625535Y-65739285D02*
X121375535Y-65560713D01*
X121375535Y-65560713D02*
X120839821Y-65417856D01*
X120839821Y-65417856D02*
X121375535Y-65274999D01*
X121375535Y-65274999D02*
X120625535Y-65096428D01*
X121375535Y-64810713D02*
X120625535Y-64810713D01*
X120625535Y-64810713D02*
X120625535Y-64632142D01*
X120625535Y-64632142D02*
X120661250Y-64524999D01*
X120661250Y-64524999D02*
X120732678Y-64453570D01*
X120732678Y-64453570D02*
X120804107Y-64417856D01*
X120804107Y-64417856D02*
X120946964Y-64382142D01*
X120946964Y-64382142D02*
X121054107Y-64382142D01*
X121054107Y-64382142D02*
X121196964Y-64417856D01*
X121196964Y-64417856D02*
X121268392Y-64453570D01*
X121268392Y-64453570D02*
X121339821Y-64524999D01*
X121339821Y-64524999D02*
X121375535Y-64632142D01*
X121375535Y-64632142D02*
X121375535Y-64810713D01*
X123161250Y-65203571D02*
X123125535Y-65275000D01*
X123125535Y-65275000D02*
X123125535Y-65382142D01*
X123125535Y-65382142D02*
X123161250Y-65489285D01*
X123161250Y-65489285D02*
X123232678Y-65560714D01*
X123232678Y-65560714D02*
X123304107Y-65596428D01*
X123304107Y-65596428D02*
X123446964Y-65632142D01*
X123446964Y-65632142D02*
X123554107Y-65632142D01*
X123554107Y-65632142D02*
X123696964Y-65596428D01*
X123696964Y-65596428D02*
X123768392Y-65560714D01*
X123768392Y-65560714D02*
X123839821Y-65489285D01*
X123839821Y-65489285D02*
X123875535Y-65382142D01*
X123875535Y-65382142D02*
X123875535Y-65310714D01*
X123875535Y-65310714D02*
X123839821Y-65203571D01*
X123839821Y-65203571D02*
X123804107Y-65167857D01*
X123804107Y-65167857D02*
X123554107Y-65167857D01*
X123554107Y-65167857D02*
X123554107Y-65310714D01*
D11*
X94881666Y-93919047D02*
X94881666Y-93442857D01*
X95167380Y-94014285D02*
X94167380Y-93680952D01*
X94167380Y-93680952D02*
X95167380Y-93347619D01*
X95167380Y-93014285D02*
X94167380Y-93014285D01*
X94167380Y-93014285D02*
X95167380Y-92442857D01*
X95167380Y-92442857D02*
X94167380Y-92442857D01*
X94881666Y-92014285D02*
X94881666Y-91538095D01*
X95167380Y-92109523D02*
X94167380Y-91776190D01*
X94167380Y-91776190D02*
X95167380Y-91442857D01*
X95167380Y-90633333D02*
X95167380Y-91109523D01*
X95167380Y-91109523D02*
X94167380Y-91109523D01*
X94167380Y-90109523D02*
X94167380Y-89919047D01*
X94167380Y-89919047D02*
X94215000Y-89823809D01*
X94215000Y-89823809D02*
X94310238Y-89728571D01*
X94310238Y-89728571D02*
X94500714Y-89680952D01*
X94500714Y-89680952D02*
X94834047Y-89680952D01*
X94834047Y-89680952D02*
X95024523Y-89728571D01*
X95024523Y-89728571D02*
X95119761Y-89823809D01*
X95119761Y-89823809D02*
X95167380Y-89919047D01*
X95167380Y-89919047D02*
X95167380Y-90109523D01*
X95167380Y-90109523D02*
X95119761Y-90204761D01*
X95119761Y-90204761D02*
X95024523Y-90299999D01*
X95024523Y-90299999D02*
X94834047Y-90347618D01*
X94834047Y-90347618D02*
X94500714Y-90347618D01*
X94500714Y-90347618D02*
X94310238Y-90299999D01*
X94310238Y-90299999D02*
X94215000Y-90204761D01*
X94215000Y-90204761D02*
X94167380Y-90109523D01*
X94215000Y-88728571D02*
X94167380Y-88823809D01*
X94167380Y-88823809D02*
X94167380Y-88966666D01*
X94167380Y-88966666D02*
X94215000Y-89109523D01*
X94215000Y-89109523D02*
X94310238Y-89204761D01*
X94310238Y-89204761D02*
X94405476Y-89252380D01*
X94405476Y-89252380D02*
X94595952Y-89299999D01*
X94595952Y-89299999D02*
X94738809Y-89299999D01*
X94738809Y-89299999D02*
X94929285Y-89252380D01*
X94929285Y-89252380D02*
X95024523Y-89204761D01*
X95024523Y-89204761D02*
X95119761Y-89109523D01*
X95119761Y-89109523D02*
X95167380Y-88966666D01*
X95167380Y-88966666D02*
X95167380Y-88871428D01*
X95167380Y-88871428D02*
X95119761Y-88728571D01*
X95119761Y-88728571D02*
X95072142Y-88680952D01*
X95072142Y-88680952D02*
X94738809Y-88680952D01*
X94738809Y-88680952D02*
X94738809Y-88871428D01*
D12*
X137967856Y-100504107D02*
X137932142Y-100539821D01*
X137932142Y-100539821D02*
X137824999Y-100575535D01*
X137824999Y-100575535D02*
X137753571Y-100575535D01*
X137753571Y-100575535D02*
X137646428Y-100539821D01*
X137646428Y-100539821D02*
X137574999Y-100468392D01*
X137574999Y-100468392D02*
X137539285Y-100396964D01*
X137539285Y-100396964D02*
X137503571Y-100254107D01*
X137503571Y-100254107D02*
X137503571Y-100146964D01*
X137503571Y-100146964D02*
X137539285Y-100004107D01*
X137539285Y-100004107D02*
X137574999Y-99932678D01*
X137574999Y-99932678D02*
X137646428Y-99861250D01*
X137646428Y-99861250D02*
X137753571Y-99825535D01*
X137753571Y-99825535D02*
X137824999Y-99825535D01*
X137824999Y-99825535D02*
X137932142Y-99861250D01*
X137932142Y-99861250D02*
X137967856Y-99896964D01*
X138253571Y-100539821D02*
X138360714Y-100575535D01*
X138360714Y-100575535D02*
X138539285Y-100575535D01*
X138539285Y-100575535D02*
X138610714Y-100539821D01*
X138610714Y-100539821D02*
X138646428Y-100504107D01*
X138646428Y-100504107D02*
X138682142Y-100432678D01*
X138682142Y-100432678D02*
X138682142Y-100361250D01*
X138682142Y-100361250D02*
X138646428Y-100289821D01*
X138646428Y-100289821D02*
X138610714Y-100254107D01*
X138610714Y-100254107D02*
X138539285Y-100218392D01*
X138539285Y-100218392D02*
X138396428Y-100182678D01*
X138396428Y-100182678D02*
X138324999Y-100146964D01*
X138324999Y-100146964D02*
X138289285Y-100111250D01*
X138289285Y-100111250D02*
X138253571Y-100039821D01*
X138253571Y-100039821D02*
X138253571Y-99968392D01*
X138253571Y-99968392D02*
X138289285Y-99896964D01*
X138289285Y-99896964D02*
X138324999Y-99861250D01*
X138324999Y-99861250D02*
X138396428Y-99825535D01*
X138396428Y-99825535D02*
X138574999Y-99825535D01*
X138574999Y-99825535D02*
X138682142Y-99861250D01*
X139217857Y-100861250D02*
X139182142Y-100825535D01*
X139182142Y-100825535D02*
X139110714Y-100718392D01*
X139110714Y-100718392D02*
X139075000Y-100646964D01*
X139075000Y-100646964D02*
X139039285Y-100539821D01*
X139039285Y-100539821D02*
X139003571Y-100361250D01*
X139003571Y-100361250D02*
X139003571Y-100218392D01*
X139003571Y-100218392D02*
X139039285Y-100039821D01*
X139039285Y-100039821D02*
X139075000Y-99932678D01*
X139075000Y-99932678D02*
X139110714Y-99861250D01*
X139110714Y-99861250D02*
X139182142Y-99754107D01*
X139182142Y-99754107D02*
X139217857Y-99718392D01*
X139503571Y-100575535D02*
X139503571Y-99825535D01*
X139503571Y-99825535D02*
X139789285Y-99825535D01*
X139789285Y-99825535D02*
X139860714Y-99861250D01*
X139860714Y-99861250D02*
X139896428Y-99896964D01*
X139896428Y-99896964D02*
X139932142Y-99968392D01*
X139932142Y-99968392D02*
X139932142Y-100075535D01*
X139932142Y-100075535D02*
X139896428Y-100146964D01*
X139896428Y-100146964D02*
X139860714Y-100182678D01*
X139860714Y-100182678D02*
X139789285Y-100218392D01*
X139789285Y-100218392D02*
X139503571Y-100218392D01*
X140503571Y-100182678D02*
X140610714Y-100218392D01*
X140610714Y-100218392D02*
X140646428Y-100254107D01*
X140646428Y-100254107D02*
X140682142Y-100325535D01*
X140682142Y-100325535D02*
X140682142Y-100432678D01*
X140682142Y-100432678D02*
X140646428Y-100504107D01*
X140646428Y-100504107D02*
X140610714Y-100539821D01*
X140610714Y-100539821D02*
X140539285Y-100575535D01*
X140539285Y-100575535D02*
X140253571Y-100575535D01*
X140253571Y-100575535D02*
X140253571Y-99825535D01*
X140253571Y-99825535D02*
X140503571Y-99825535D01*
X140503571Y-99825535D02*
X140575000Y-99861250D01*
X140575000Y-99861250D02*
X140610714Y-99896964D01*
X140610714Y-99896964D02*
X140646428Y-99968392D01*
X140646428Y-99968392D02*
X140646428Y-100039821D01*
X140646428Y-100039821D02*
X140610714Y-100111250D01*
X140610714Y-100111250D02*
X140575000Y-100146964D01*
X140575000Y-100146964D02*
X140503571Y-100182678D01*
X140503571Y-100182678D02*
X140253571Y-100182678D01*
X141146428Y-99825535D02*
X141217857Y-99825535D01*
X141217857Y-99825535D02*
X141289285Y-99861250D01*
X141289285Y-99861250D02*
X141325000Y-99896964D01*
X141325000Y-99896964D02*
X141360714Y-99968392D01*
X141360714Y-99968392D02*
X141396428Y-100111250D01*
X141396428Y-100111250D02*
X141396428Y-100289821D01*
X141396428Y-100289821D02*
X141360714Y-100432678D01*
X141360714Y-100432678D02*
X141325000Y-100504107D01*
X141325000Y-100504107D02*
X141289285Y-100539821D01*
X141289285Y-100539821D02*
X141217857Y-100575535D01*
X141217857Y-100575535D02*
X141146428Y-100575535D01*
X141146428Y-100575535D02*
X141075000Y-100539821D01*
X141075000Y-100539821D02*
X141039285Y-100504107D01*
X141039285Y-100504107D02*
X141003571Y-100432678D01*
X141003571Y-100432678D02*
X140967857Y-100289821D01*
X140967857Y-100289821D02*
X140967857Y-100111250D01*
X140967857Y-100111250D02*
X141003571Y-99968392D01*
X141003571Y-99968392D02*
X141039285Y-99896964D01*
X141039285Y-99896964D02*
X141075000Y-99861250D01*
X141075000Y-99861250D02*
X141146428Y-99825535D01*
X141646428Y-100861250D02*
X141682143Y-100825535D01*
X141682143Y-100825535D02*
X141753571Y-100718392D01*
X141753571Y-100718392D02*
X141789286Y-100646964D01*
X141789286Y-100646964D02*
X141825000Y-100539821D01*
X141825000Y-100539821D02*
X141860714Y-100361250D01*
X141860714Y-100361250D02*
X141860714Y-100218392D01*
X141860714Y-100218392D02*
X141825000Y-100039821D01*
X141825000Y-100039821D02*
X141789286Y-99932678D01*
X141789286Y-99932678D02*
X141753571Y-99861250D01*
X141753571Y-99861250D02*
X141682143Y-99754107D01*
X141682143Y-99754107D02*
X141646428Y-99718392D01*
X115857144Y-67775535D02*
X115857144Y-67025535D01*
X115857144Y-67025535D02*
X116142858Y-67025535D01*
X116142858Y-67025535D02*
X116214287Y-67061250D01*
X116214287Y-67061250D02*
X116250001Y-67096964D01*
X116250001Y-67096964D02*
X116285715Y-67168392D01*
X116285715Y-67168392D02*
X116285715Y-67275535D01*
X116285715Y-67275535D02*
X116250001Y-67346964D01*
X116250001Y-67346964D02*
X116214287Y-67382678D01*
X116214287Y-67382678D02*
X116142858Y-67418392D01*
X116142858Y-67418392D02*
X115857144Y-67418392D01*
X116607144Y-67775535D02*
X116607144Y-67275535D01*
X116607144Y-67418392D02*
X116642858Y-67346964D01*
X116642858Y-67346964D02*
X116678573Y-67311250D01*
X116678573Y-67311250D02*
X116750001Y-67275535D01*
X116750001Y-67275535D02*
X116821430Y-67275535D01*
X117178573Y-67775535D02*
X117107144Y-67739821D01*
X117107144Y-67739821D02*
X117071430Y-67704107D01*
X117071430Y-67704107D02*
X117035716Y-67632678D01*
X117035716Y-67632678D02*
X117035716Y-67418392D01*
X117035716Y-67418392D02*
X117071430Y-67346964D01*
X117071430Y-67346964D02*
X117107144Y-67311250D01*
X117107144Y-67311250D02*
X117178573Y-67275535D01*
X117178573Y-67275535D02*
X117285716Y-67275535D01*
X117285716Y-67275535D02*
X117357144Y-67311250D01*
X117357144Y-67311250D02*
X117392859Y-67346964D01*
X117392859Y-67346964D02*
X117428573Y-67418392D01*
X117428573Y-67418392D02*
X117428573Y-67632678D01*
X117428573Y-67632678D02*
X117392859Y-67704107D01*
X117392859Y-67704107D02*
X117357144Y-67739821D01*
X117357144Y-67739821D02*
X117285716Y-67775535D01*
X117285716Y-67775535D02*
X117178573Y-67775535D01*
X118071430Y-67275535D02*
X118071430Y-67882678D01*
X118071430Y-67882678D02*
X118035715Y-67954107D01*
X118035715Y-67954107D02*
X118000001Y-67989821D01*
X118000001Y-67989821D02*
X117928572Y-68025535D01*
X117928572Y-68025535D02*
X117821430Y-68025535D01*
X117821430Y-68025535D02*
X117750001Y-67989821D01*
X118071430Y-67739821D02*
X118000001Y-67775535D01*
X118000001Y-67775535D02*
X117857144Y-67775535D01*
X117857144Y-67775535D02*
X117785715Y-67739821D01*
X117785715Y-67739821D02*
X117750001Y-67704107D01*
X117750001Y-67704107D02*
X117714287Y-67632678D01*
X117714287Y-67632678D02*
X117714287Y-67418392D01*
X117714287Y-67418392D02*
X117750001Y-67346964D01*
X117750001Y-67346964D02*
X117785715Y-67311250D01*
X117785715Y-67311250D02*
X117857144Y-67275535D01*
X117857144Y-67275535D02*
X118000001Y-67275535D01*
X118000001Y-67275535D02*
X118071430Y-67311250D01*
X118428572Y-67704107D02*
X118464286Y-67739821D01*
X118464286Y-67739821D02*
X118428572Y-67775535D01*
X118428572Y-67775535D02*
X118392858Y-67739821D01*
X118392858Y-67739821D02*
X118428572Y-67704107D01*
X118428572Y-67704107D02*
X118428572Y-67775535D01*
X119235715Y-67775535D02*
X119235715Y-67025535D01*
X119592858Y-67275535D02*
X119592858Y-67775535D01*
X119592858Y-67346964D02*
X119628572Y-67311250D01*
X119628572Y-67311250D02*
X119700001Y-67275535D01*
X119700001Y-67275535D02*
X119807144Y-67275535D01*
X119807144Y-67275535D02*
X119878572Y-67311250D01*
X119878572Y-67311250D02*
X119914287Y-67382678D01*
X119914287Y-67382678D02*
X119914287Y-67775535D01*
X120164286Y-67275535D02*
X120450000Y-67275535D01*
X120271429Y-67025535D02*
X120271429Y-67668392D01*
X120271429Y-67668392D02*
X120307143Y-67739821D01*
X120307143Y-67739821D02*
X120378572Y-67775535D01*
X120378572Y-67775535D02*
X120450000Y-67775535D01*
X120985714Y-67739821D02*
X120914286Y-67775535D01*
X120914286Y-67775535D02*
X120771429Y-67775535D01*
X120771429Y-67775535D02*
X120700000Y-67739821D01*
X120700000Y-67739821D02*
X120664286Y-67668392D01*
X120664286Y-67668392D02*
X120664286Y-67382678D01*
X120664286Y-67382678D02*
X120700000Y-67311250D01*
X120700000Y-67311250D02*
X120771429Y-67275535D01*
X120771429Y-67275535D02*
X120914286Y-67275535D01*
X120914286Y-67275535D02*
X120985714Y-67311250D01*
X120985714Y-67311250D02*
X121021429Y-67382678D01*
X121021429Y-67382678D02*
X121021429Y-67454107D01*
X121021429Y-67454107D02*
X120664286Y-67525535D01*
X121342857Y-67775535D02*
X121342857Y-67275535D01*
X121342857Y-67418392D02*
X121378571Y-67346964D01*
X121378571Y-67346964D02*
X121414286Y-67311250D01*
X121414286Y-67311250D02*
X121485714Y-67275535D01*
X121485714Y-67275535D02*
X121557143Y-67275535D01*
X121700000Y-67275535D02*
X121985714Y-67275535D01*
X121807143Y-67775535D02*
X121807143Y-67132678D01*
X121807143Y-67132678D02*
X121842857Y-67061250D01*
X121842857Y-67061250D02*
X121914286Y-67025535D01*
X121914286Y-67025535D02*
X121985714Y-67025535D01*
X122557143Y-67775535D02*
X122557143Y-67382678D01*
X122557143Y-67382678D02*
X122521428Y-67311250D01*
X122521428Y-67311250D02*
X122450000Y-67275535D01*
X122450000Y-67275535D02*
X122307143Y-67275535D01*
X122307143Y-67275535D02*
X122235714Y-67311250D01*
X122557143Y-67739821D02*
X122485714Y-67775535D01*
X122485714Y-67775535D02*
X122307143Y-67775535D01*
X122307143Y-67775535D02*
X122235714Y-67739821D01*
X122235714Y-67739821D02*
X122200000Y-67668392D01*
X122200000Y-67668392D02*
X122200000Y-67596964D01*
X122200000Y-67596964D02*
X122235714Y-67525535D01*
X122235714Y-67525535D02*
X122307143Y-67489821D01*
X122307143Y-67489821D02*
X122485714Y-67489821D01*
X122485714Y-67489821D02*
X122557143Y-67454107D01*
X123235714Y-67739821D02*
X123164285Y-67775535D01*
X123164285Y-67775535D02*
X123021428Y-67775535D01*
X123021428Y-67775535D02*
X122949999Y-67739821D01*
X122949999Y-67739821D02*
X122914285Y-67704107D01*
X122914285Y-67704107D02*
X122878571Y-67632678D01*
X122878571Y-67632678D02*
X122878571Y-67418392D01*
X122878571Y-67418392D02*
X122914285Y-67346964D01*
X122914285Y-67346964D02*
X122949999Y-67311250D01*
X122949999Y-67311250D02*
X123021428Y-67275535D01*
X123021428Y-67275535D02*
X123164285Y-67275535D01*
X123164285Y-67275535D02*
X123235714Y-67311250D01*
X123842856Y-67739821D02*
X123771428Y-67775535D01*
X123771428Y-67775535D02*
X123628571Y-67775535D01*
X123628571Y-67775535D02*
X123557142Y-67739821D01*
X123557142Y-67739821D02*
X123521428Y-67668392D01*
X123521428Y-67668392D02*
X123521428Y-67382678D01*
X123521428Y-67382678D02*
X123557142Y-67311250D01*
X123557142Y-67311250D02*
X123628571Y-67275535D01*
X123628571Y-67275535D02*
X123771428Y-67275535D01*
X123771428Y-67275535D02*
X123842856Y-67311250D01*
X123842856Y-67311250D02*
X123878571Y-67382678D01*
X123878571Y-67382678D02*
X123878571Y-67454107D01*
X123878571Y-67454107D02*
X123521428Y-67525535D01*
X113761250Y-104235713D02*
X113761250Y-103878571D01*
X113975535Y-104307142D02*
X113225535Y-104057142D01*
X113225535Y-104057142D02*
X113975535Y-103807142D01*
X113225535Y-103414285D02*
X113225535Y-103342856D01*
X113225535Y-103342856D02*
X113261250Y-103271428D01*
X113261250Y-103271428D02*
X113296964Y-103235714D01*
X113296964Y-103235714D02*
X113368392Y-103199999D01*
X113368392Y-103199999D02*
X113511250Y-103164285D01*
X113511250Y-103164285D02*
X113689821Y-103164285D01*
X113689821Y-103164285D02*
X113832678Y-103199999D01*
X113832678Y-103199999D02*
X113904107Y-103235714D01*
X113904107Y-103235714D02*
X113939821Y-103271428D01*
X113939821Y-103271428D02*
X113975535Y-103342856D01*
X113975535Y-103342856D02*
X113975535Y-103414285D01*
X113975535Y-103414285D02*
X113939821Y-103485714D01*
X113939821Y-103485714D02*
X113904107Y-103521428D01*
X113904107Y-103521428D02*
X113832678Y-103557142D01*
X113832678Y-103557142D02*
X113689821Y-103592856D01*
X113689821Y-103592856D02*
X113511250Y-103592856D01*
X113511250Y-103592856D02*
X113368392Y-103557142D01*
X113368392Y-103557142D02*
X113296964Y-103521428D01*
X113296964Y-103521428D02*
X113261250Y-103485714D01*
X113261250Y-103485714D02*
X113225535Y-103414285D01*
X129975535Y-65471428D02*
X129618392Y-65721428D01*
X129975535Y-65899999D02*
X129225535Y-65899999D01*
X129225535Y-65899999D02*
X129225535Y-65614285D01*
X129225535Y-65614285D02*
X129261250Y-65542856D01*
X129261250Y-65542856D02*
X129296964Y-65507142D01*
X129296964Y-65507142D02*
X129368392Y-65471428D01*
X129368392Y-65471428D02*
X129475535Y-65471428D01*
X129475535Y-65471428D02*
X129546964Y-65507142D01*
X129546964Y-65507142D02*
X129582678Y-65542856D01*
X129582678Y-65542856D02*
X129618392Y-65614285D01*
X129618392Y-65614285D02*
X129618392Y-65899999D01*
X129975535Y-65221428D02*
X129475535Y-64828571D01*
X129475535Y-65221428D02*
X129975535Y-64828571D01*
X116161250Y-104235713D02*
X116161250Y-103878571D01*
X116375535Y-104307142D02*
X115625535Y-104057142D01*
X115625535Y-104057142D02*
X116375535Y-103807142D01*
X116375535Y-103164285D02*
X116375535Y-103592856D01*
X116375535Y-103378571D02*
X115625535Y-103378571D01*
X115625535Y-103378571D02*
X115732678Y-103449999D01*
X115732678Y-103449999D02*
X115804107Y-103521428D01*
X115804107Y-103521428D02*
X115839821Y-103592856D01*
D13*
%TO.C,C2*%
X133990000Y-81333767D02*
X133990000Y-81041233D01*
X135010000Y-81333767D02*
X135010000Y-81041233D01*
%TO.C,U1*%
X131925000Y-82450000D02*
X130725000Y-82450000D01*
X130725000Y-82450000D02*
X130725000Y-79950000D01*
X130725000Y-79950000D02*
X131925000Y-79950000D01*
X131925000Y-79950000D02*
X131925000Y-82450000D01*
X131925000Y-82750000D02*
G75*
G03*
X131925000Y-82750000I-50000J0D01*
G01*
%TO.C,C9*%
X137921250Y-86946267D02*
X137921250Y-86653733D01*
X138941250Y-86946267D02*
X138941250Y-86653733D01*
%TO.C,C1*%
X139490000Y-81346267D02*
X139490000Y-81053733D01*
X140510000Y-81346267D02*
X140510000Y-81053733D01*
%TO.C,C26*%
X102960000Y-99351267D02*
X102960000Y-99058733D01*
X103980000Y-99351267D02*
X103980000Y-99058733D01*
%TO.C,U3*%
X146000000Y-95843750D02*
X143500000Y-95843750D01*
X143500000Y-95843750D02*
X143500000Y-97043750D01*
X143500000Y-97043750D02*
X146000000Y-97043750D01*
X146000000Y-97043750D02*
X146000000Y-95843750D01*
X146350000Y-95893750D02*
G75*
G03*
X146350000Y-95893750I-50000J0D01*
G01*
%TO.C,C21*%
X102666546Y-78800358D02*
X102459693Y-78593505D01*
X103387795Y-78079109D02*
X103180942Y-77872256D01*
%TO.C,C22*%
X138190000Y-102946267D02*
X138190000Y-102653733D01*
X139210000Y-102946267D02*
X139210000Y-102653733D01*
%TO.C,F1*%
X142272500Y-80945276D02*
X142272500Y-81454724D01*
X141227500Y-80945276D02*
X141227500Y-81454724D01*
%TO.C,C28*%
X97116267Y-102327500D02*
X96823733Y-102327500D01*
X97116267Y-101307500D02*
X96823733Y-101307500D01*
%TO.C,C23*%
X108990000Y-93633767D02*
X108990000Y-93341233D01*
X110010000Y-93633767D02*
X110010000Y-93341233D01*
%TO.C,R11*%
X96715276Y-102995000D02*
X97224724Y-102995000D01*
X96715276Y-104040000D02*
X97224724Y-104040000D01*
D14*
%TO.C,J3*%
X122050000Y-93775000D02*
X135650000Y-93775000D01*
X122050000Y-96275000D02*
X122050000Y-93775000D01*
X122050000Y-108225000D02*
X122050000Y-107275000D01*
X122050000Y-108225000D02*
X123600000Y-108225000D01*
X134100000Y-108225000D02*
X135650000Y-108225000D01*
X135650000Y-96275000D02*
X135650000Y-93775000D01*
X135650000Y-108225000D02*
X135650000Y-107275000D01*
X134100000Y-108225001D02*
G75*
G03*
X123600000Y-108225001I-5250000J-9038540D01*
G01*
X133150000Y-103700000D02*
G75*
G03*
X133150000Y-103700000I-100000J0D01*
G01*
D13*
%TO.C,FB1*%
X137504724Y-82722500D02*
X136995276Y-82722500D01*
X137504724Y-81677500D02*
X136995276Y-81677500D01*
%TO.C,D3*%
X102315276Y-84495000D02*
X102824724Y-84495000D01*
X102315276Y-85540000D02*
X102824724Y-85540000D01*
%TO.C,R1*%
X125222500Y-80945276D02*
X125222500Y-81454724D01*
X124177500Y-80945276D02*
X124177500Y-81454724D01*
%TO.C,C3*%
X131783767Y-84210000D02*
X131491233Y-84210000D01*
X131783767Y-83190000D02*
X131491233Y-83190000D01*
%TO.C,U4*%
X110190000Y-72840000D02*
X110190000Y-73790000D01*
X110190000Y-73790000D02*
X108850000Y-73790000D01*
X110190000Y-83060000D02*
X110190000Y-82110000D01*
X111140000Y-72840000D02*
X110190000Y-72840000D01*
X111140000Y-83060000D02*
X110190000Y-83060000D01*
X119460000Y-72840000D02*
X120410000Y-72840000D01*
X119460000Y-83060000D02*
X120410000Y-83060000D01*
X120410000Y-72840000D02*
X120410000Y-73790000D01*
X120410000Y-83060000D02*
X120410000Y-82110000D01*
%TO.C,R8*%
X97342224Y-80972500D02*
X96832776Y-80972500D01*
X97342224Y-79927500D02*
X96832776Y-79927500D01*
%TO.C,BOOT1*%
X96300000Y-66200000D02*
X96300000Y-68200000D01*
X97350000Y-64900000D02*
X97800000Y-64450000D01*
X97350000Y-69500000D02*
X97800000Y-69950000D01*
X97800000Y-64450000D02*
X100300000Y-64450000D01*
X97800000Y-69950000D02*
X100300000Y-69950000D01*
X100750000Y-64900000D02*
X100300000Y-64450000D01*
X100750000Y-69500000D02*
X100300000Y-69950000D01*
X101800000Y-66200000D02*
X101800000Y-68200000D01*
%TO.C,C12*%
X144958767Y-100091250D02*
X144666233Y-100091250D01*
X144958767Y-99071250D02*
X144666233Y-99071250D01*
%TO.C,C33*%
X104516267Y-102315000D02*
X104223733Y-102315000D01*
X104516267Y-101295000D02*
X104223733Y-101295000D01*
%TO.C,C7*%
X110590000Y-93633767D02*
X110590000Y-93341233D01*
X111610000Y-93633767D02*
X111610000Y-93341233D01*
%TO.C,C20*%
X103487795Y-74593505D02*
X103280942Y-74800358D01*
X102766546Y-73872256D02*
X102559693Y-74079109D01*
%TO.C,C14*%
X122010000Y-85003733D02*
X122010000Y-85296267D01*
X120990000Y-85003733D02*
X120990000Y-85296267D01*
%TO.C,J1*%
X147705000Y-81170000D02*
X149505000Y-81170000D01*
X153215000Y-81170000D02*
X151755000Y-81170000D01*
X147705000Y-72230000D02*
X149505000Y-72230000D01*
X153215000Y-72230000D02*
X153215000Y-81170000D01*
X153215000Y-72230000D02*
X151755000Y-72230000D01*
%TO.C,RESET1*%
X92750000Y-74700000D02*
X92750000Y-76700000D01*
X93800000Y-73400000D02*
X94250000Y-72950000D01*
X93800000Y-78000000D02*
X94250000Y-78450000D01*
X94250000Y-72950000D02*
X96750000Y-72950000D01*
X94250000Y-78450000D02*
X96750000Y-78450000D01*
X97200000Y-73400000D02*
X96750000Y-72950000D01*
X97200000Y-78000000D02*
X96750000Y-78450000D01*
X98250000Y-74700000D02*
X98250000Y-76700000D01*
%TO.C,C17*%
X109040000Y-68233767D02*
X109040000Y-67941233D01*
X110060000Y-68233767D02*
X110060000Y-67941233D01*
%TO.C,C19*%
X110740000Y-68233767D02*
X110740000Y-67941233D01*
X111760000Y-68233767D02*
X111760000Y-67941233D01*
%TO.C,C10*%
X144958767Y-93628750D02*
X144666233Y-93628750D01*
X144958767Y-92608750D02*
X144666233Y-92608750D01*
%TO.C,J5*%
X125840000Y-64030000D02*
X125840000Y-62700000D01*
X127170000Y-64030000D02*
X125840000Y-64030000D01*
X128440000Y-64030000D02*
X136120000Y-64030000D01*
X128440000Y-64030000D02*
X128440000Y-61370000D01*
X136120000Y-64030000D02*
X136120000Y-61370000D01*
X128440000Y-61370000D02*
X136120000Y-61370000D01*
%TO.C,R5*%
X112177500Y-93742224D02*
X112177500Y-93232776D01*
X113222500Y-93742224D02*
X113222500Y-93232776D01*
%TO.C,R7*%
X115622500Y-87045276D02*
X115622500Y-87554724D01*
X114577500Y-87045276D02*
X114577500Y-87554724D01*
%TO.C,C11*%
X144958767Y-91928750D02*
X144666233Y-91928750D01*
X144958767Y-90908750D02*
X144666233Y-90908750D01*
%TO.C,C27*%
X95560000Y-99363767D02*
X95560000Y-99071233D01*
X96580000Y-99363767D02*
X96580000Y-99071233D01*
%TO.C,J6*%
X109770000Y-108080000D02*
X109770000Y-106750000D01*
X111100000Y-108080000D02*
X109770000Y-108080000D01*
X112370000Y-108080000D02*
X120050000Y-108080000D01*
X112370000Y-108080000D02*
X112370000Y-105420000D01*
X120050000Y-108080000D02*
X120050000Y-105420000D01*
X112370000Y-105420000D02*
X120050000Y-105420000D01*
%TO.C,C30*%
X139940000Y-102946267D02*
X139940000Y-102653733D01*
X140960000Y-102946267D02*
X140960000Y-102653733D01*
%TO.C,R13*%
X126772500Y-73945276D02*
X126772500Y-74454724D01*
X125727500Y-73945276D02*
X125727500Y-74454724D01*
%TO.C,D6*%
X98580276Y-84495000D02*
X99089724Y-84495000D01*
X98580276Y-85540000D02*
X99089724Y-85540000D01*
%TO.C,C13*%
X144958767Y-101791250D02*
X144666233Y-101791250D01*
X144958767Y-100771250D02*
X144666233Y-100771250D01*
%TO.C,C29*%
X96612500Y-87763767D02*
X96612500Y-87471233D01*
X97632500Y-87763767D02*
X97632500Y-87471233D01*
%TO.C,C38*%
X104860000Y-65953733D02*
X104860000Y-66246267D01*
X103840000Y-65953733D02*
X103840000Y-66246267D01*
%TO.C,C4*%
X131783767Y-85910000D02*
X131491233Y-85910000D01*
X131783767Y-84890000D02*
X131491233Y-84890000D01*
D15*
%TO.C,U2*%
X134937500Y-77515000D02*
X136562500Y-77515000D01*
X134937500Y-74385000D02*
X136562500Y-74385000D01*
D14*
X138405000Y-76895000D02*
G75*
G03*
X138405000Y-76895000I-100000J0D01*
G01*
D13*
%TO.C,R10*%
X98392500Y-98962776D02*
X98392500Y-99472224D01*
X97347500Y-98962776D02*
X97347500Y-99472224D01*
%TO.C,R12*%
X104115276Y-102982500D02*
X104624724Y-102982500D01*
X104115276Y-104027500D02*
X104624724Y-104027500D01*
%TO.C,Y1*%
X107080420Y-76059530D02*
X105100521Y-74079631D01*
X105100521Y-74079631D02*
X102767068Y-76413084D01*
%TO.C,C15*%
X111383767Y-87260000D02*
X111091233Y-87260000D01*
X111383767Y-86240000D02*
X111091233Y-86240000D01*
%TO.C,R3*%
X147204724Y-70522500D02*
X146695276Y-70522500D01*
X147204724Y-69477500D02*
X146695276Y-69477500D01*
%TO.C,R2*%
X146729724Y-83522500D02*
X146220276Y-83522500D01*
X146729724Y-82477500D02*
X146220276Y-82477500D01*
%TO.C,U5*%
X100100000Y-91190000D02*
X96650000Y-91190000D01*
X100100000Y-91190000D02*
X102050000Y-91190000D01*
X100100000Y-96310000D02*
X98150000Y-96310000D01*
X100100000Y-96310000D02*
X102050000Y-96310000D01*
%TO.C,C32*%
X103860000Y-87763767D02*
X103860000Y-87471233D01*
X104880000Y-87763767D02*
X104880000Y-87471233D01*
%TO.C,FB2*%
X140653750Y-86532776D02*
X140653750Y-87042224D01*
X139608750Y-86532776D02*
X139608750Y-87042224D01*
%TO.C,D4*%
X95080276Y-84495000D02*
X95589724Y-84495000D01*
X95080276Y-85540000D02*
X95589724Y-85540000D01*
%TO.C,R4*%
X111622500Y-96732776D02*
X111622500Y-97242224D01*
X110577500Y-96732776D02*
X110577500Y-97242224D01*
%TO.C,C36*%
X120453733Y-87240000D02*
X120746267Y-87240000D01*
X120453733Y-88260000D02*
X120746267Y-88260000D01*
%TO.C,R9*%
X105792500Y-98962776D02*
X105792500Y-99472224D01*
X104747500Y-98962776D02*
X104747500Y-99472224D01*
%TO.C,C5*%
X127590000Y-81346267D02*
X127590000Y-81053733D01*
X128610000Y-81346267D02*
X128610000Y-81053733D01*
%TO.C,C18*%
X112440000Y-68233767D02*
X112440000Y-67941233D01*
X113460000Y-68233767D02*
X113460000Y-67941233D01*
%TO.C,D1*%
X127235000Y-79222500D02*
X127235000Y-77752500D01*
X127235000Y-77752500D02*
X124775000Y-77752500D01*
X124775000Y-79222500D02*
X127235000Y-79222500D01*
%TO.C,C8*%
X139390017Y-84697500D02*
X139097483Y-84697500D01*
X139390017Y-83677500D02*
X139097483Y-83677500D01*
%TO.C,D5*%
X105815276Y-84495000D02*
X106324724Y-84495000D01*
X105815276Y-85540000D02*
X106324724Y-85540000D01*
%TO.C,R13*%
X106622500Y-65845276D02*
X106622500Y-66354724D01*
X105577500Y-65845276D02*
X105577500Y-66354724D01*
%TO.C,D2*%
X114365000Y-92360000D02*
X115835000Y-92360000D01*
X115835000Y-92360000D02*
X115835000Y-89900000D01*
X114365000Y-89900000D02*
X114365000Y-92360000D01*
%TO.C,J2*%
X114520000Y-64030000D02*
X114520000Y-62700000D01*
X115850000Y-64030000D02*
X114520000Y-64030000D01*
X117120000Y-64030000D02*
X124800000Y-64030000D01*
X117120000Y-64030000D02*
X117120000Y-61370000D01*
X124800000Y-64030000D02*
X124800000Y-61370000D01*
X117120000Y-61370000D02*
X124800000Y-61370000D01*
%TO.C,C37*%
X93621267Y-80960000D02*
X93328733Y-80960000D01*
X93621267Y-79940000D02*
X93328733Y-79940000D01*
%TO.C,C16*%
X122553733Y-70840000D02*
X122846267Y-70840000D01*
X122553733Y-71860000D02*
X122846267Y-71860000D01*
%TO.C,C6*%
X125890000Y-81346267D02*
X125890000Y-81053733D01*
X126910000Y-81346267D02*
X126910000Y-81053733D01*
%TO.C,C24*%
X101653733Y-89590000D02*
X101946267Y-89590000D01*
X101653733Y-90610000D02*
X101946267Y-90610000D01*
%TD*%
M02*
