%TF.GenerationSoftware,KiCad,Pcbnew,7.0.7*%
%TF.CreationDate,2023-10-05T10:10:36+02:00*%
%TF.ProjectId,Apollo - DSP,41706f6c-6c6f-4202-9d20-4453502e6b69,rev?*%
%TF.SameCoordinates,Original*%
%TF.FileFunction,Soldermask,Bot*%
%TF.FilePolarity,Negative*%
%FSLAX46Y46*%
G04 Gerber Fmt 4.6, Leading zero omitted, Abs format (unit mm)*
G04 Created by KiCad (PCBNEW 7.0.7) date 2023-10-05 10:10:36*
%MOMM*%
%LPD*%
G01*
G04 APERTURE LIST*
%ADD10C,5.075000*%
%ADD11O,2.000000X0.900000*%
%ADD12O,1.700000X0.900000*%
%ADD13R,1.700000X1.700000*%
%ADD14O,1.700000X1.700000*%
G04 APERTURE END LIST*
D10*
X167237500Y-61700000D02*
G75*
G03*
X167237500Y-61700000I-2537500J0D01*
G01*
X102337500Y-61700000D02*
G75*
G03*
X102337500Y-61700000I-2537500J0D01*
G01*
X167137500Y-109600000D02*
G75*
G03*
X167137500Y-109600000I-2537500J0D01*
G01*
X102337500Y-109700000D02*
G75*
G03*
X102337500Y-109700000I-2537500J0D01*
G01*
D11*
%TO.C,J1*%
X158395000Y-82020000D03*
D12*
X162565000Y-82020000D03*
D11*
X158395000Y-73380000D03*
D12*
X162565000Y-73380000D03*
%TD*%
D13*
%TO.C,J3*%
X147500000Y-63700000D03*
D14*
X150040000Y-63700000D03*
X152580000Y-63700000D03*
X155120000Y-63700000D03*
%TD*%
D13*
%TO.C,J5*%
X106940000Y-107700000D03*
D14*
X109480000Y-107700000D03*
X112020000Y-107700000D03*
X114560000Y-107700000D03*
X117100000Y-107700000D03*
X119640000Y-107700000D03*
%TD*%
D13*
%TO.C,J6*%
X124500000Y-63700000D03*
D14*
X127040000Y-63700000D03*
X129580000Y-63700000D03*
X132120000Y-63700000D03*
%TD*%
D13*
%TO.C,J2*%
X136000000Y-63700000D03*
D14*
X138540000Y-63700000D03*
X141080000Y-63700000D03*
X143620000Y-63700000D03*
%TD*%
G36*
X164490563Y-56727503D02*
G01*
X164537843Y-56780467D01*
X164550014Y-56834494D01*
X164550041Y-59594387D01*
X164530040Y-59662508D01*
X164476384Y-59709001D01*
X164441973Y-59719105D01*
X164274327Y-59743209D01*
X164000177Y-59823707D01*
X163740276Y-59942400D01*
X163499918Y-60096869D01*
X163283980Y-60283980D01*
X163096869Y-60499918D01*
X162942400Y-60740276D01*
X162823707Y-61000177D01*
X162743211Y-61274321D01*
X162702548Y-61557142D01*
X162702548Y-61842857D01*
X162743211Y-62125678D01*
X162823707Y-62399822D01*
X162942400Y-62659723D01*
X163096869Y-62900081D01*
X163283980Y-63116019D01*
X163499918Y-63303130D01*
X163740276Y-63457599D01*
X164000177Y-63576292D01*
X164274321Y-63656788D01*
X164557143Y-63697452D01*
X164678087Y-63697452D01*
X164746208Y-63717454D01*
X164792701Y-63771110D01*
X164804087Y-63823451D01*
X164804091Y-64363489D01*
X164784089Y-64431610D01*
X164730434Y-64478103D01*
X164677857Y-64489490D01*
X164550092Y-64489252D01*
X164550334Y-87846097D01*
X164550000Y-87847234D01*
X164550000Y-88026624D01*
X164529998Y-88094745D01*
X164476342Y-88141238D01*
X164424000Y-88152624D01*
X161976000Y-88152624D01*
X161907879Y-88132622D01*
X161861386Y-88078966D01*
X161850000Y-88026624D01*
X161850000Y-83452479D01*
X161850289Y-83451491D01*
X161850092Y-64484205D01*
X161721855Y-64483965D01*
X161653772Y-64463835D01*
X161607379Y-64410092D01*
X161596091Y-64357966D01*
X161596066Y-61866051D01*
X161616067Y-61797930D01*
X161669723Y-61751437D01*
X161722153Y-61740050D01*
X161850064Y-61740138D01*
X161850022Y-57658470D01*
X161870023Y-57590349D01*
X161901074Y-57557183D01*
X161904518Y-57554635D01*
X161909156Y-57551511D01*
X162283647Y-57322785D01*
X162288553Y-57320080D01*
X162681867Y-57125516D01*
X162686994Y-57123257D01*
X163096036Y-56964383D01*
X163101344Y-56962589D01*
X163522881Y-56840662D01*
X163528327Y-56839346D01*
X163959008Y-56755337D01*
X163964549Y-56754509D01*
X164401015Y-56709070D01*
X164406612Y-56708738D01*
X164422155Y-56708509D01*
X164490563Y-56727503D01*
G37*
G36*
X164492407Y-83166002D02*
G01*
X164538900Y-83219658D01*
X164550286Y-83271999D01*
X164550334Y-87846097D01*
X164550000Y-87847234D01*
X164550000Y-105974000D01*
X164529998Y-106042121D01*
X164476342Y-106088614D01*
X164424000Y-106100000D01*
X161976000Y-106100000D01*
X161907879Y-106079998D01*
X161861386Y-106026342D01*
X161850000Y-105974000D01*
X161850000Y-83452480D01*
X161850289Y-83451492D01*
X161850288Y-83272001D01*
X161870289Y-83203880D01*
X161923944Y-83157387D01*
X161976288Y-83146000D01*
X164424286Y-83146000D01*
X164492407Y-83166002D01*
G37*
G36*
X102442121Y-65520002D02*
G01*
X102488614Y-65573658D01*
X102500000Y-65626000D01*
X102500000Y-105674000D01*
X102479998Y-105742121D01*
X102426342Y-105788614D01*
X102374000Y-105800000D01*
X99926000Y-105800000D01*
X99857879Y-105779998D01*
X99811386Y-105726342D01*
X99800000Y-105674000D01*
X99800000Y-104752831D01*
X99820002Y-104684710D01*
X99834947Y-104665737D01*
X99850000Y-104649999D01*
X99850000Y-66700000D01*
X99834945Y-66684260D01*
X99802314Y-66621207D01*
X99800000Y-66597168D01*
X99800000Y-65626000D01*
X99820002Y-65557879D01*
X99873658Y-65511386D01*
X99926000Y-65500000D01*
X102374000Y-65500000D01*
X102442121Y-65520002D01*
G37*
G36*
X162576784Y-61531563D02*
G01*
X162644867Y-61551693D01*
X162691259Y-61605435D01*
X162702548Y-61657563D01*
X162702548Y-61842857D01*
X162743211Y-62125678D01*
X162823707Y-62399822D01*
X162942400Y-62659723D01*
X163096869Y-62900081D01*
X163283980Y-63116019D01*
X163499918Y-63303130D01*
X163740276Y-63457599D01*
X164000177Y-63576292D01*
X164274321Y-63656788D01*
X164557143Y-63697452D01*
X164842857Y-63697452D01*
X165125678Y-63656788D01*
X165399822Y-63576292D01*
X165659723Y-63457599D01*
X165900081Y-63303130D01*
X166116019Y-63116019D01*
X166303130Y-62900081D01*
X166457599Y-62659723D01*
X166576292Y-62399822D01*
X166656788Y-62125677D01*
X166689013Y-61901552D01*
X166718506Y-61836971D01*
X166778232Y-61798587D01*
X166813967Y-61793483D01*
X169566501Y-61798628D01*
X169634584Y-61818758D01*
X169680976Y-61872500D01*
X169692251Y-61926493D01*
X169691261Y-61993393D01*
X169690929Y-61998986D01*
X169645490Y-62435450D01*
X169644662Y-62440991D01*
X169560653Y-62871672D01*
X169559337Y-62877118D01*
X169437410Y-63298655D01*
X169435616Y-63303963D01*
X169276742Y-63713005D01*
X169274483Y-63718132D01*
X169079919Y-64111446D01*
X169077214Y-64116352D01*
X168881482Y-64436822D01*
X168828905Y-64484531D01*
X168773717Y-64497146D01*
X164550093Y-64489252D01*
X164550094Y-64617016D01*
X164530092Y-64685137D01*
X164476437Y-64731630D01*
X164423858Y-64743017D01*
X161975858Y-64738441D01*
X161907775Y-64718311D01*
X161861383Y-64664569D01*
X161850094Y-64612442D01*
X161850093Y-64484205D01*
X157015388Y-64475168D01*
X156947305Y-64455038D01*
X156926497Y-64438232D01*
X156924999Y-64436733D01*
X156796913Y-64436645D01*
X156728806Y-64416596D01*
X156682350Y-64362908D01*
X156671000Y-64310645D01*
X156671000Y-61862644D01*
X156691002Y-61794523D01*
X156744658Y-61748030D01*
X156797087Y-61736644D01*
X161850063Y-61740138D01*
X161850062Y-61656443D01*
X161870063Y-61588322D01*
X161923717Y-61541828D01*
X161976298Y-61530440D01*
X162576784Y-61531563D01*
G37*
G36*
X165892035Y-106920048D02*
G01*
X165938571Y-106973666D01*
X165950000Y-107026101D01*
X165950000Y-107848198D01*
X165929998Y-107916319D01*
X165876342Y-107962812D01*
X165806068Y-107972916D01*
X165755880Y-107954196D01*
X165659729Y-107892403D01*
X165659724Y-107892401D01*
X165399822Y-107773707D01*
X165125678Y-107693211D01*
X164842857Y-107652548D01*
X164557143Y-107652548D01*
X164274321Y-107693211D01*
X164000177Y-107773707D01*
X163740276Y-107892400D01*
X163499918Y-108046869D01*
X163283980Y-108233980D01*
X163096869Y-108449918D01*
X162942400Y-108690276D01*
X162823707Y-108950177D01*
X162743209Y-109224327D01*
X162704343Y-109494648D01*
X162674850Y-109559229D01*
X162615124Y-109597612D01*
X162579728Y-109602716D01*
X104051102Y-109649898D01*
X103982965Y-109629951D01*
X103936429Y-109576333D01*
X103925000Y-109523898D01*
X103925000Y-107075898D01*
X103945002Y-107007777D01*
X103998658Y-106961284D01*
X104050898Y-106949898D01*
X165823898Y-106900101D01*
X165892035Y-106920048D01*
G37*
G36*
X162576635Y-61486642D02*
G01*
X162644742Y-61506691D01*
X162691198Y-61560379D01*
X162702548Y-61612642D01*
X162702548Y-61842857D01*
X162743211Y-62125678D01*
X162823708Y-62399825D01*
X162865063Y-62490377D01*
X162876450Y-62542720D01*
X162876450Y-64439134D01*
X162876374Y-64442230D01*
X162875378Y-64462477D01*
X162874772Y-64468629D01*
X162872024Y-64487159D01*
X162870816Y-64493227D01*
X162866262Y-64511408D01*
X162864467Y-64517326D01*
X162858159Y-64534957D01*
X162855791Y-64540674D01*
X162847781Y-64557610D01*
X162844865Y-64563065D01*
X162835238Y-64579128D01*
X162831802Y-64584270D01*
X162820637Y-64599324D01*
X162816711Y-64604109D01*
X162804134Y-64617985D01*
X162799761Y-64622358D01*
X162785885Y-64634935D01*
X162781100Y-64638861D01*
X162766046Y-64650026D01*
X162760904Y-64653462D01*
X162744841Y-64663089D01*
X162739386Y-64666005D01*
X162722450Y-64674015D01*
X162716733Y-64676383D01*
X162699102Y-64682691D01*
X162693184Y-64684486D01*
X162675003Y-64689040D01*
X162668935Y-64690248D01*
X162650403Y-64692996D01*
X162644247Y-64693602D01*
X162624019Y-64694596D01*
X162620884Y-64694672D01*
X161976007Y-64694227D01*
X161907900Y-64674178D01*
X161861444Y-64620490D01*
X161850094Y-64568228D01*
X161850093Y-64484205D01*
X157015389Y-64475168D01*
X156947306Y-64455038D01*
X156926498Y-64438232D01*
X156924999Y-64436732D01*
X103925913Y-64400087D01*
X103857806Y-64380038D01*
X103811350Y-64326350D01*
X103800000Y-64274087D01*
X103800000Y-61826087D01*
X103820002Y-61757966D01*
X103873658Y-61711473D01*
X103926087Y-61700087D01*
X161850065Y-61740138D01*
X161850063Y-61612228D01*
X161870064Y-61544107D01*
X161923719Y-61497613D01*
X161976150Y-61486226D01*
X162576635Y-61486642D01*
G37*
M02*
