%TF.GenerationSoftware,KiCad,Pcbnew,(7.0.0)*%
%TF.CreationDate,2023-05-22T23:29:19+02:00*%
%TF.ProjectId,Apollo - DSP,41706f6c-6c6f-4202-9d20-4453502e6b69,rev?*%
%TF.SameCoordinates,Original*%
%TF.FileFunction,Paste,Top*%
%TF.FilePolarity,Positive*%
%FSLAX46Y46*%
G04 Gerber Fmt 4.6, Leading zero omitted, Abs format (unit mm)*
G04 Created by KiCad (PCBNEW (7.0.0)) date 2023-05-22 23:29:19*
%MOMM*%
%LPD*%
G01*
G04 APERTURE LIST*
G04 Aperture macros list*
%AMRoundRect*
0 Rectangle with rounded corners*
0 $1 Rounding radius*
0 $2 $3 $4 $5 $6 $7 $8 $9 X,Y pos of 4 corners*
0 Add a 4 corners polygon primitive as box body*
4,1,4,$2,$3,$4,$5,$6,$7,$8,$9,$2,$3,0*
0 Add four circle primitives for the rounded corners*
1,1,$1+$1,$2,$3*
1,1,$1+$1,$4,$5*
1,1,$1+$1,$6,$7*
1,1,$1+$1,$8,$9*
0 Add four rect primitives between the rounded corners*
20,1,$1+$1,$2,$3,$4,$5,0*
20,1,$1+$1,$4,$5,$6,$7,0*
20,1,$1+$1,$6,$7,$8,$9,0*
20,1,$1+$1,$8,$9,$2,$3,0*%
%AMRotRect*
0 Rectangle, with rotation*
0 The origin of the aperture is its center*
0 $1 length*
0 $2 width*
0 $3 Rotation angle, in degrees counterclockwise*
0 Add horizontal line*
21,1,$1,$2,0,0,$3*%
G04 Aperture macros list end*
%ADD10RoundRect,0.237500X0.250000X0.237500X-0.250000X0.237500X-0.250000X-0.237500X0.250000X-0.237500X0*%
%ADD11RoundRect,0.237500X-0.250000X-0.237500X0.250000X-0.237500X0.250000X0.237500X-0.250000X0.237500X0*%
%ADD12RoundRect,0.150000X0.150000X-0.825000X0.150000X0.825000X-0.150000X0.825000X-0.150000X-0.825000X0*%
%ADD13RoundRect,0.237500X0.237500X-0.300000X0.237500X0.300000X-0.237500X0.300000X-0.237500X-0.300000X0*%
%ADD14RoundRect,0.237500X-0.287500X-0.237500X0.287500X-0.237500X0.287500X0.237500X-0.287500X0.237500X0*%
%ADD15RoundRect,0.237500X0.300000X0.237500X-0.300000X0.237500X-0.300000X-0.237500X0.300000X-0.237500X0*%
%ADD16RoundRect,0.237500X0.380070X-0.044194X-0.044194X0.380070X-0.380070X0.044194X0.044194X-0.380070X0*%
%ADD17RoundRect,0.237500X-0.237500X0.250000X-0.237500X-0.250000X0.237500X-0.250000X0.237500X0.250000X0*%
%ADD18R,0.800000X1.200000*%
%ADD19R,1.500000X2.000000*%
%ADD20RoundRect,0.237500X0.237500X-0.250000X0.237500X0.250000X-0.237500X0.250000X-0.237500X-0.250000X0*%
%ADD21RoundRect,0.237500X-0.300000X-0.237500X0.300000X-0.237500X0.300000X0.237500X-0.300000X0.237500X0*%
%ADD22RoundRect,0.150000X0.512500X0.150000X-0.512500X0.150000X-0.512500X-0.150000X0.512500X-0.150000X0*%
%ADD23RoundRect,0.075000X-0.700000X-0.075000X0.700000X-0.075000X0.700000X0.075000X-0.700000X0.075000X0*%
%ADD24RoundRect,0.075000X-0.075000X-0.700000X0.075000X-0.700000X0.075000X0.700000X-0.075000X0.700000X0*%
%ADD25R,1.700000X1.000000*%
%ADD26RoundRect,0.237500X-0.237500X0.300000X-0.237500X-0.300000X0.237500X-0.300000X0.237500X0.300000X0*%
%ADD27RoundRect,0.237500X0.044194X0.380070X-0.380070X-0.044194X-0.044194X-0.380070X0.380070X0.044194X0*%
%ADD28R,1.160000X0.600000*%
%ADD29R,1.160000X0.300000*%
%ADD30RoundRect,0.237500X0.287500X0.237500X-0.287500X0.237500X-0.287500X-0.237500X0.287500X-0.237500X0*%
%ADD31RoundRect,0.150000X-0.150000X0.512500X-0.150000X-0.512500X0.150000X-0.512500X0.150000X0.512500X0*%
%ADD32RoundRect,0.150000X-0.825000X-0.150000X0.825000X-0.150000X0.825000X0.150000X-0.825000X0.150000X0*%
%ADD33RoundRect,0.041300X0.563700X0.253700X-0.563700X0.253700X-0.563700X-0.253700X0.563700X-0.253700X0*%
%ADD34RotRect,1.150000X1.000000X225.000000*%
%ADD35RoundRect,0.150000X0.825000X0.150000X-0.825000X0.150000X-0.825000X-0.150000X0.825000X-0.150000X0*%
G04 APERTURE END LIST*
D10*
%TO.C,R11*%
X106912500Y-98100000D03*
X105087500Y-98100000D03*
%TD*%
D11*
%TO.C,R21*%
X114487500Y-87725000D03*
X116312500Y-87725000D03*
%TD*%
D12*
%TO.C,U5*%
X122995000Y-96375000D03*
X124265000Y-96375000D03*
X125535000Y-96375000D03*
X126805000Y-96375000D03*
X126805000Y-91425000D03*
X125535000Y-91425000D03*
X124265000Y-91425000D03*
X122995000Y-91425000D03*
%TD*%
D13*
%TO.C,C2*%
X146450000Y-83050000D03*
X146450000Y-81325000D03*
%TD*%
D11*
%TO.C,R15*%
X109587500Y-98100000D03*
X111412500Y-98100000D03*
%TD*%
D14*
%TO.C,D5*%
X109625000Y-104600000D03*
X111375000Y-104600000D03*
%TD*%
D13*
%TO.C,C8*%
X150381250Y-88662500D03*
X150381250Y-86937500D03*
%TD*%
%TO.C,C1*%
X151950000Y-83062500D03*
X151950000Y-81337500D03*
%TD*%
D15*
%TO.C,C34*%
X121462500Y-102900000D03*
X119737500Y-102900000D03*
%TD*%
D16*
%TO.C,C25*%
X115972796Y-77636913D03*
X114753036Y-76417153D03*
%TD*%
D15*
%TO.C,C33*%
X106862500Y-101300000D03*
X105137500Y-101300000D03*
%TD*%
D17*
%TO.C,F1*%
X153700000Y-81287500D03*
X153700000Y-83112500D03*
%TD*%
D11*
%TO.C,R16*%
X114487500Y-90900000D03*
X116312500Y-90900000D03*
%TD*%
D13*
%TO.C,C14*%
X145600000Y-95962500D03*
X145600000Y-94237500D03*
%TD*%
D18*
%TO.C,J4*%
X139374999Y-100624999D03*
X138274999Y-100624999D03*
X137174999Y-100624999D03*
X136074999Y-100624999D03*
X134974999Y-100624999D03*
X133874999Y-100624999D03*
X132774999Y-100624999D03*
X131674999Y-100624999D03*
D19*
X129204999Y-102824999D03*
X129204999Y-94624999D03*
X143094999Y-94624999D03*
X143094999Y-102824999D03*
%TD*%
D10*
%TO.C,FB1*%
X150112500Y-83200000D03*
X148287500Y-83200000D03*
%TD*%
D20*
%TO.C,R20*%
X112850000Y-91062500D03*
X112850000Y-89237500D03*
%TD*%
D17*
%TO.C,R1*%
X136650000Y-81287500D03*
X136650000Y-83112500D03*
%TD*%
D15*
%TO.C,C3*%
X144450000Y-84700000D03*
X142725000Y-84700000D03*
%TD*%
D21*
%TO.C,C38*%
X109637500Y-101300000D03*
X111362500Y-101300000D03*
%TD*%
D22*
%TO.C,U1*%
X144475000Y-83150000D03*
X144475000Y-82200000D03*
X144475000Y-81250000D03*
X142075000Y-81250000D03*
X142075000Y-83150000D03*
%TD*%
D11*
%TO.C,R12*%
X117925000Y-94112500D03*
X119750000Y-94112500D03*
%TD*%
D21*
%TO.C,C30*%
X105137500Y-99700000D03*
X106862500Y-99700000D03*
%TD*%
D10*
%TO.C,R17*%
X111400000Y-102900000D03*
X109575000Y-102900000D03*
%TD*%
D23*
%TO.C,U4*%
X121575000Y-75200000D03*
X121575000Y-75700000D03*
X121575000Y-76200000D03*
X121575000Y-76700000D03*
X121575000Y-77200000D03*
X121575000Y-77700000D03*
X121575000Y-78200000D03*
X121575000Y-78700000D03*
X121575000Y-79200000D03*
X121575000Y-79700000D03*
X121575000Y-80200000D03*
X121575000Y-80700000D03*
X121575000Y-81200000D03*
X121575000Y-81700000D03*
X121575000Y-82200000D03*
X121575000Y-82700000D03*
D24*
X123500000Y-84625000D03*
X124000000Y-84625000D03*
X124500000Y-84625000D03*
X125000000Y-84625000D03*
X125500000Y-84625000D03*
X126000000Y-84625000D03*
X126500000Y-84625000D03*
X127000000Y-84625000D03*
X127500000Y-84625000D03*
X128000000Y-84625000D03*
X128500000Y-84625000D03*
X129000000Y-84625000D03*
X129500000Y-84625000D03*
X130000000Y-84625000D03*
X130500000Y-84625000D03*
X131000000Y-84625000D03*
D23*
X132925000Y-82700000D03*
X132925000Y-82200000D03*
X132925000Y-81700000D03*
X132925000Y-81200000D03*
X132925000Y-80700000D03*
X132925000Y-80200000D03*
X132925000Y-79700000D03*
X132925000Y-79200000D03*
X132925000Y-78700000D03*
X132925000Y-78200000D03*
X132925000Y-77700000D03*
X132925000Y-77200000D03*
X132925000Y-76700000D03*
X132925000Y-76200000D03*
X132925000Y-75700000D03*
X132925000Y-75200000D03*
D24*
X131000000Y-73275000D03*
X130500000Y-73275000D03*
X130000000Y-73275000D03*
X129500000Y-73275000D03*
X129000000Y-73275000D03*
X128500000Y-73275000D03*
X128000000Y-73275000D03*
X127500000Y-73275000D03*
X127000000Y-73275000D03*
X126500000Y-73275000D03*
X126000000Y-73275000D03*
X125500000Y-73275000D03*
X125000000Y-73275000D03*
X124500000Y-73275000D03*
X124000000Y-73275000D03*
X123500000Y-73275000D03*
%TD*%
D10*
%TO.C,R6*%
X109925000Y-78600000D03*
X108100000Y-78600000D03*
%TD*%
D25*
%TO.C,BOOT1*%
X107849999Y-66299999D03*
X114149999Y-66299999D03*
X107849999Y-70099999D03*
X114149999Y-70099999D03*
%TD*%
D26*
%TO.C,C11*%
X150200000Y-100837500D03*
X150200000Y-102562500D03*
%TD*%
D21*
%TO.C,C40*%
X115437500Y-102900000D03*
X117162500Y-102900000D03*
%TD*%
D13*
%TO.C,C13*%
X147200000Y-95962500D03*
X147200000Y-94237500D03*
%TD*%
D27*
%TO.C,C24*%
X116072796Y-72417153D03*
X114853036Y-73636913D03*
%TD*%
D10*
%TO.C,R18*%
X116312500Y-89320000D03*
X114487500Y-89320000D03*
%TD*%
D26*
%TO.C,C15*%
X133450000Y-85287500D03*
X133450000Y-87012500D03*
%TD*%
D13*
%TO.C,C29*%
X119700000Y-86037500D03*
X119700000Y-84312500D03*
%TD*%
D28*
%TO.C,J1*%
X157814999Y-80899999D03*
X157814999Y-80099999D03*
D29*
X157814999Y-78949999D03*
X157814999Y-77949999D03*
X157814999Y-77449999D03*
X157814999Y-76449999D03*
D28*
X157814999Y-75299999D03*
X157814999Y-74499999D03*
X157814999Y-74499999D03*
X157814999Y-75299999D03*
D29*
X157814999Y-75949999D03*
X157814999Y-76949999D03*
X157814999Y-78449999D03*
X157814999Y-79449999D03*
D28*
X157814999Y-80099999D03*
X157814999Y-80899999D03*
%TD*%
D25*
%TO.C,RESET1*%
X104249999Y-72599999D03*
X110549999Y-72599999D03*
X104249999Y-76399999D03*
X110549999Y-76399999D03*
%TD*%
D13*
%TO.C,C18*%
X121500000Y-69950000D03*
X121500000Y-68225000D03*
%TD*%
%TO.C,C20*%
X123200000Y-69950000D03*
X123200000Y-68225000D03*
%TD*%
D30*
%TO.C,D3*%
X106875000Y-104600000D03*
X105125000Y-104600000D03*
%TD*%
D15*
%TO.C,C9*%
X153475000Y-94156250D03*
X151750000Y-94156250D03*
%TD*%
%TO.C,C26*%
X124062500Y-89300000D03*
X122337500Y-89300000D03*
%TD*%
D10*
%TO.C,R10*%
X113462500Y-83975000D03*
X111637500Y-83975000D03*
%TD*%
D20*
%TO.C,R5*%
X148800000Y-96012500D03*
X148800000Y-94187500D03*
%TD*%
D10*
%TO.C,R8*%
X109812500Y-80800000D03*
X107987500Y-80800000D03*
%TD*%
D15*
%TO.C,C10*%
X153475000Y-92456250D03*
X151750000Y-92456250D03*
%TD*%
D13*
%TO.C,C28*%
X145525000Y-103362500D03*
X145525000Y-101637500D03*
%TD*%
D17*
%TO.C,R13*%
X138200000Y-74287500D03*
X138200000Y-76112500D03*
%TD*%
D26*
%TO.C,C12*%
X151900000Y-100837500D03*
X151900000Y-102562500D03*
%TD*%
D31*
%TO.C,U2*%
X153475000Y-96337500D03*
X152525000Y-96337500D03*
X151575000Y-96337500D03*
X151575000Y-98737500D03*
X153475000Y-98737500D03*
%TD*%
D26*
%TO.C,C22*%
X116400000Y-65687500D03*
X116400000Y-67412500D03*
%TD*%
D15*
%TO.C,C4*%
X144450000Y-86400000D03*
X142725000Y-86400000D03*
%TD*%
D32*
%TO.C,U7*%
X105525000Y-92395000D03*
X105525000Y-93665000D03*
X105525000Y-94935000D03*
X105525000Y-96205000D03*
X110475000Y-96205000D03*
X110475000Y-94935000D03*
X110475000Y-93665000D03*
X110475000Y-92395000D03*
%TD*%
D21*
%TO.C,C35*%
X117975000Y-90912500D03*
X119700000Y-90912500D03*
%TD*%
D33*
%TO.C,U3*%
X148955000Y-77900000D03*
X148955000Y-76950000D03*
X148955000Y-76000000D03*
X146445000Y-76000000D03*
X146445000Y-76950000D03*
X146445000Y-77900000D03*
%TD*%
D15*
%TO.C,C41*%
X114862500Y-93140000D03*
X113137500Y-93140000D03*
%TD*%
D34*
%TO.C,Y1*%
X117486659Y-73813339D03*
X116249222Y-75050776D03*
X117239171Y-76040725D03*
X118476608Y-74803288D03*
%TD*%
D15*
%TO.C,C16*%
X124050000Y-87750000D03*
X122325000Y-87750000D03*
%TD*%
D10*
%TO.C,R14*%
X119750000Y-89312500D03*
X117925000Y-89312500D03*
%TD*%
D15*
%TO.C,C36*%
X111362500Y-99700000D03*
X109637500Y-99700000D03*
%TD*%
D10*
%TO.C,R3*%
X159812500Y-71000000D03*
X157987500Y-71000000D03*
%TD*%
%TO.C,R2*%
X159337500Y-84000000D03*
X157512500Y-84000000D03*
%TD*%
D17*
%TO.C,FB2*%
X152081250Y-86875000D03*
X152081250Y-88700000D03*
%TD*%
D13*
%TO.C,C37*%
X110500000Y-90562500D03*
X110500000Y-88837500D03*
%TD*%
D11*
%TO.C,R4*%
X146987500Y-97600000D03*
X148812500Y-97600000D03*
%TD*%
D21*
%TO.C,C23*%
X131687500Y-88750000D03*
X133412500Y-88750000D03*
%TD*%
D14*
%TO.C,D4*%
X119750000Y-104600000D03*
X121500000Y-104600000D03*
%TD*%
D10*
%TO.C,R9*%
X113475000Y-85575000D03*
X111650000Y-85575000D03*
%TD*%
D13*
%TO.C,C5*%
X140050000Y-83062500D03*
X140050000Y-81337500D03*
%TD*%
%TO.C,C32*%
X105500000Y-90562500D03*
X105500000Y-88837500D03*
%TD*%
D22*
%TO.C,U6*%
X117837500Y-86125000D03*
X117837500Y-85175000D03*
X117837500Y-84225000D03*
X115562500Y-84225000D03*
X115562500Y-85175000D03*
X115562500Y-86125000D03*
%TD*%
D35*
%TO.C,U8*%
X119475000Y-100605000D03*
X119475000Y-99335000D03*
X119475000Y-98065000D03*
X119475000Y-96795000D03*
X114525000Y-96795000D03*
X114525000Y-98065000D03*
X114525000Y-99335000D03*
X114525000Y-100605000D03*
%TD*%
D10*
%TO.C,R19*%
X114912500Y-94740000D03*
X113087500Y-94740000D03*
%TD*%
D13*
%TO.C,C19*%
X124900000Y-69950000D03*
X124900000Y-68225000D03*
%TD*%
%TO.C,C39*%
X113500000Y-104562500D03*
X113500000Y-102837500D03*
%TD*%
D30*
%TO.C,D1*%
X138400000Y-79487500D03*
X136650000Y-79487500D03*
%TD*%
D11*
%TO.C,R13*%
X105087500Y-102900000D03*
X106912500Y-102900000D03*
%TD*%
D15*
%TO.C,C7*%
X152056250Y-85187500D03*
X150331250Y-85187500D03*
%TD*%
D17*
%TO.C,R7*%
X118150000Y-65637500D03*
X118150000Y-67462500D03*
%TD*%
D14*
%TO.C,D2*%
X104625000Y-80800000D03*
X106375000Y-80800000D03*
%TD*%
D15*
%TO.C,C21*%
X106262500Y-78600000D03*
X104537500Y-78600000D03*
%TD*%
D21*
%TO.C,C17*%
X133787500Y-72350000D03*
X135512500Y-72350000D03*
%TD*%
D15*
%TO.C,C31*%
X119676577Y-92512500D03*
X117951577Y-92512500D03*
%TD*%
D13*
%TO.C,C6*%
X138350000Y-83062500D03*
X138350000Y-81337500D03*
%TD*%
D30*
%TO.C,D6*%
X117175000Y-104600000D03*
X115425000Y-104600000D03*
%TD*%
D26*
%TO.C,C42*%
X108000000Y-88837500D03*
X108000000Y-90562500D03*
%TD*%
M02*
