%TF.GenerationSoftware,KiCad,Pcbnew,7.0.7*%
%TF.CreationDate,2023-10-05T10:10:36+02:00*%
%TF.ProjectId,Apollo - DSP,41706f6c-6c6f-4202-9d20-4453502e6b69,rev?*%
%TF.SameCoordinates,Original*%
%TF.FileFunction,Copper,L3,Inr*%
%TF.FilePolarity,Positive*%
%FSLAX46Y46*%
G04 Gerber Fmt 4.6, Leading zero omitted, Abs format (unit mm)*
G04 Created by KiCad (PCBNEW 7.0.7) date 2023-10-05 10:10:36*
%MOMM*%
%LPD*%
G01*
G04 APERTURE LIST*
%TA.AperFunction,ComponentPad*%
%ADD10O,2.000000X0.900000*%
%TD*%
%TA.AperFunction,ComponentPad*%
%ADD11O,1.700000X0.900000*%
%TD*%
%TA.AperFunction,ComponentPad*%
%ADD12R,1.700000X1.700000*%
%TD*%
%TA.AperFunction,ComponentPad*%
%ADD13O,1.700000X1.700000*%
%TD*%
%TA.AperFunction,ViaPad*%
%ADD14C,0.800000*%
%TD*%
%TA.AperFunction,ViaPad*%
%ADD15C,0.600000*%
%TD*%
%TA.AperFunction,Conductor*%
%ADD16C,0.254000*%
%TD*%
%TA.AperFunction,Conductor*%
%ADD17C,0.508000*%
%TD*%
%TA.AperFunction,Conductor*%
%ADD18C,0.200000*%
%TD*%
%TA.AperFunction,Conductor*%
%ADD19C,0.250000*%
%TD*%
G04 APERTURE END LIST*
D10*
%TO.N,unconnected-(J1-SHIELD-PadS1)*%
%TO.C,J1*%
X158395000Y-82020000D03*
D11*
X162565000Y-82020000D03*
D10*
X158395000Y-73380000D03*
D11*
X162565000Y-73380000D03*
%TD*%
D12*
%TO.N,3.3V*%
%TO.C,J3*%
X147500000Y-63700000D03*
D13*
%TO.N,Rx*%
X150040000Y-63700000D03*
%TO.N,Tx*%
X152580000Y-63700000D03*
%TO.N,GND*%
X155120000Y-63700000D03*
%TD*%
D12*
%TO.N,AIN0*%
%TO.C,J5*%
X106940000Y-107700000D03*
D13*
%TO.N,AIN1*%
X109480000Y-107700000D03*
%TO.N,GND*%
X112020000Y-107700000D03*
X114560000Y-107700000D03*
%TO.N,OSC*%
X117100000Y-107700000D03*
%TO.N,AOUT*%
X119640000Y-107700000D03*
%TD*%
D12*
%TO.N,3.3V*%
%TO.C,J6*%
X124500000Y-63700000D03*
D13*
%TO.N,SDA*%
X127040000Y-63700000D03*
%TO.N,SCL*%
X129580000Y-63700000D03*
%TO.N,GND*%
X132120000Y-63700000D03*
%TD*%
D12*
%TO.N,3.3V*%
%TO.C,J2*%
X136000000Y-63700000D03*
D13*
%TO.N,SWCLK*%
X138540000Y-63700000D03*
%TO.N,SWDIO*%
X141080000Y-63700000D03*
%TO.N,GND*%
X143620000Y-63700000D03*
%TD*%
D14*
%TO.N,GND*%
X147320000Y-96520000D03*
X145288000Y-96520000D03*
X152400000Y-97536000D03*
X146304000Y-97536000D03*
X151384000Y-96520000D03*
X148336000Y-97536000D03*
X149352000Y-96520000D03*
X153416000Y-96520000D03*
X150368000Y-97536000D03*
X147320000Y-94488000D03*
X145288000Y-94488000D03*
X152400000Y-95504000D03*
X146304000Y-95504000D03*
X151384000Y-94488000D03*
X148336000Y-95504000D03*
X149352000Y-94488000D03*
X153416000Y-94488000D03*
X150368000Y-95504000D03*
X152400000Y-93472000D03*
X150368000Y-93472000D03*
X148336000Y-93472000D03*
X146304000Y-93472000D03*
X153416000Y-92456000D03*
X151384000Y-92456000D03*
X149352000Y-92456000D03*
X147320000Y-92456000D03*
X145288000Y-92456000D03*
X144526000Y-71120000D03*
X141478000Y-74168000D03*
X143510000Y-72136000D03*
X142494000Y-73152000D03*
X141478000Y-72136000D03*
X142494000Y-71120000D03*
X140462000Y-75184000D03*
X140462000Y-73152000D03*
X140462000Y-71120000D03*
X134850000Y-88750000D03*
X101250000Y-94600000D03*
D15*
X118057107Y-74907107D03*
D14*
X110050000Y-63100000D03*
X101250000Y-100600000D03*
X127950000Y-108200000D03*
X154250000Y-71800000D03*
X116050000Y-63100000D03*
X106050000Y-63100000D03*
D15*
X111725000Y-88900000D03*
X114125000Y-75250000D03*
D14*
X168250000Y-109700000D03*
X101250000Y-72600000D03*
X163350000Y-68600000D03*
X99850000Y-65200000D03*
X101250000Y-80600000D03*
D15*
X119392893Y-75267893D03*
D14*
X157925000Y-93500000D03*
X130450000Y-82150000D03*
X156250000Y-71800000D03*
X127250000Y-75750000D03*
X163350000Y-84600000D03*
D15*
X113088445Y-87929055D03*
D14*
X156900000Y-92475000D03*
X155925000Y-87500001D03*
X125900000Y-108200000D03*
X157950000Y-108200000D03*
X136023786Y-98676214D03*
X103600000Y-90750000D03*
X96350000Y-61700000D03*
X157925000Y-87500000D03*
X131050000Y-102850000D03*
X101250000Y-82600000D03*
D15*
X113125497Y-85500000D03*
D14*
X99850000Y-113100000D03*
X141150000Y-102850000D03*
X123975000Y-75250000D03*
X96350000Y-109700000D03*
X99850000Y-106200000D03*
X123900000Y-108200000D03*
X161250000Y-109700000D03*
X125750000Y-80050000D03*
X108250000Y-101300000D03*
X101250000Y-102600000D03*
X155950000Y-108200000D03*
X126950000Y-93500000D03*
X157925001Y-85500000D03*
X159297536Y-74897536D03*
X130850000Y-94950000D03*
X163350000Y-86600000D03*
X125250000Y-99962500D03*
X163350000Y-94600000D03*
X161250000Y-61700000D03*
X155925000Y-89500000D03*
D15*
X113425000Y-76950000D03*
D14*
X101250000Y-74600000D03*
X101250000Y-88600000D03*
X149950000Y-108200000D03*
D15*
X115557107Y-73817893D03*
D14*
X118050000Y-63100000D03*
D15*
X120050000Y-79325000D03*
D14*
X127900000Y-108200000D03*
X141200000Y-94600000D03*
D15*
X118935500Y-87750000D03*
X113425000Y-77950000D03*
D14*
X163350000Y-102600000D03*
X101250000Y-78600000D03*
X101250000Y-92600000D03*
D15*
X143500000Y-78200000D03*
D14*
X163350000Y-90600000D03*
X99850000Y-58200000D03*
X149275000Y-72775000D03*
X101250000Y-86600000D03*
X155925000Y-93500000D03*
X123150000Y-80750000D03*
X168250000Y-61700000D03*
X114928036Y-77286913D03*
X154250000Y-73800000D03*
D15*
X117642893Y-80732107D03*
D14*
X123650000Y-99962500D03*
X101250000Y-70600000D03*
X120050000Y-63100000D03*
X155925000Y-91500000D03*
X146200000Y-87750000D03*
X112050000Y-63100000D03*
X101250000Y-76600000D03*
X148250000Y-73800000D03*
X163350000Y-100600000D03*
X163350000Y-98600000D03*
X134550000Y-75050000D03*
X146200000Y-82200000D03*
X131950000Y-108200000D03*
X143950000Y-108200000D03*
X133950000Y-108200000D03*
X139950000Y-79700000D03*
D15*
X116642893Y-73492893D03*
D14*
X163350000Y-96600000D03*
X153275000Y-72775000D03*
X156887500Y-90537500D03*
X164750000Y-113200000D03*
D15*
X116650000Y-81073500D03*
D14*
X108050000Y-63100000D03*
D15*
X114125000Y-79675000D03*
D14*
X101250000Y-90600000D03*
D15*
X120100000Y-75975000D03*
D14*
X155212500Y-72762500D03*
X107864214Y-82485786D03*
D15*
X113425000Y-75950000D03*
D14*
X103600000Y-88750000D03*
X114050000Y-63100000D03*
X107250000Y-87250000D03*
X135950000Y-108200000D03*
X103350000Y-61700000D03*
X105014214Y-85335786D03*
D15*
X113417893Y-78967893D03*
D14*
X101250000Y-98600000D03*
D15*
X114832107Y-74542893D03*
D14*
X101250000Y-96600000D03*
X153950000Y-108200000D03*
X144500000Y-87750000D03*
X122050000Y-63100000D03*
D15*
X118350000Y-80025000D03*
D14*
X103900000Y-96205000D03*
X164750000Y-106200000D03*
X116400000Y-71650000D03*
X106439214Y-83910786D03*
X159300000Y-80300000D03*
X103600000Y-88750001D03*
D15*
X113122239Y-84010181D03*
D14*
X127250000Y-82150000D03*
X141950000Y-108200000D03*
X148250000Y-71800000D03*
D15*
X114132107Y-75242893D03*
D14*
X155950000Y-82200000D03*
X145950000Y-108200000D03*
X163350000Y-70600000D03*
X111325000Y-81050000D03*
D15*
X117350000Y-74200000D03*
D14*
X109250001Y-87250000D03*
X109275000Y-85250000D03*
X147950000Y-108200000D03*
D15*
X123638656Y-76822408D03*
D14*
X103350000Y-109700000D03*
X164750000Y-65200000D03*
X114000000Y-92050000D03*
X127250000Y-78950000D03*
D15*
X119050000Y-79325000D03*
D14*
X163350000Y-88600000D03*
X156250000Y-73800000D03*
X131812500Y-87012500D03*
X129950000Y-108200000D03*
X155950000Y-83950000D03*
X150250000Y-71800000D03*
X139950000Y-108200000D03*
X155925000Y-85500000D03*
X150250000Y-73800000D03*
X157925000Y-89500001D03*
X163350000Y-92600000D03*
X157925000Y-91500000D03*
X113340254Y-81050000D03*
X109300000Y-81050000D03*
D15*
X114825000Y-80375000D03*
D14*
X130450000Y-75750000D03*
X158275000Y-63150000D03*
X151384000Y-79502000D03*
X103600000Y-86750000D03*
X151950000Y-108200000D03*
X101250000Y-84600000D03*
X152250000Y-71800000D03*
X123050000Y-86450000D03*
X103600000Y-88749999D03*
X101250000Y-68600000D03*
X156887500Y-86537500D03*
X152250000Y-73800000D03*
D15*
X115525000Y-81075000D03*
D14*
X133900000Y-99026500D03*
D15*
X147700000Y-77950000D03*
D14*
X121300000Y-96400000D03*
X130450000Y-78950000D03*
X151212500Y-72762500D03*
X126850000Y-100062500D03*
X137950000Y-108200000D03*
X156900000Y-88475000D03*
X164750000Y-58300000D03*
D15*
%TO.N,+5V*%
X148350000Y-80450000D03*
X147700000Y-76050000D03*
D14*
%TO.N,3.3V*%
X121800000Y-91400000D03*
X140025000Y-84587500D03*
X122050000Y-73625000D03*
X121050000Y-84200000D03*
X138425000Y-84587500D03*
D15*
X130350000Y-71025000D03*
D14*
X136050000Y-102300000D03*
X133450000Y-73650000D03*
X131950000Y-84750000D03*
D15*
X122525000Y-69825000D03*
D14*
X124550000Y-86450000D03*
X135225000Y-84510000D03*
X139500000Y-88600000D03*
X136625000Y-84510000D03*
X135225000Y-83110000D03*
X111750000Y-72825000D03*
X138200000Y-72950000D03*
D15*
%TO.N,VAA*%
X103500000Y-98150000D03*
X111400000Y-97100000D03*
X119100000Y-95350000D03*
%TO.N,NRST*%
X123200000Y-78200000D03*
X107450000Y-74200000D03*
D14*
%TO.N,MOSI*%
X127900000Y-92750000D03*
X137175000Y-98800000D03*
%TO.N,SCK*%
X125800000Y-94150000D03*
X134900000Y-98300000D03*
%TO.N,Rx*%
X142400000Y-78184347D03*
%TO.N,Tx*%
X144550000Y-78218012D03*
%TO.N,/POW*%
X156025000Y-75300000D03*
X155300000Y-80322500D03*
%TO.N,BOOT1*%
X129000000Y-86375000D03*
X135125000Y-86700000D03*
D15*
%TO.N,SDA*%
X113900000Y-83825000D03*
D14*
X125300000Y-78600000D03*
D15*
%TO.N,SCL*%
X113925000Y-85500000D03*
D14*
X125625000Y-81600000D03*
%TO.N,Net-(C40-Pad1)*%
X111950000Y-90050000D03*
D15*
X116145421Y-100045482D03*
%TO.N,Net-(U4-PC3)*%
X119634000Y-80518000D03*
X111450000Y-78675000D03*
%TO.N,Net-(R16-Pad1)*%
X114850000Y-95800000D03*
X116450000Y-98200000D03*
D14*
%TO.N,+5VA*%
X151638000Y-87884000D03*
X108204000Y-99314000D03*
X112014000Y-86614000D03*
X107950000Y-92202000D03*
X112776000Y-100076000D03*
%TD*%
D16*
%TO.N,Net-(U4-PC3)*%
X112325000Y-79550000D02*
X111450000Y-78675000D01*
X112325000Y-81550000D02*
X112325000Y-79550000D01*
X119634000Y-80518000D02*
X118177000Y-81975000D01*
X118177000Y-81975000D02*
X112750000Y-81975000D01*
X112750000Y-81975000D02*
X112325000Y-81550000D01*
D17*
%TO.N,+5VA*%
X112014000Y-87920928D02*
X112014000Y-86614000D01*
X117057072Y-92964000D02*
X112014000Y-87920928D01*
X124968000Y-91440000D02*
X123444000Y-92964000D01*
X148082000Y-91440000D02*
X124968000Y-91440000D01*
X123444000Y-92964000D02*
X117057072Y-92964000D01*
X151638000Y-87884000D02*
X148082000Y-91440000D01*
D16*
%TO.N,+5V*%
X147073000Y-79173000D02*
X148350000Y-80450000D01*
X147700000Y-76050000D02*
X147073000Y-76677000D01*
X147073000Y-76677000D02*
X147073000Y-79173000D01*
%TO.N,VAA*%
X110350000Y-98150000D02*
X103500000Y-98150000D01*
X117300000Y-101150000D02*
X119100000Y-99350000D01*
X111400000Y-97100000D02*
X111600000Y-97100000D01*
X111400000Y-97100000D02*
X110350000Y-98150000D01*
X119100000Y-99350000D02*
X119100000Y-95350000D01*
X115650000Y-101150000D02*
X117300000Y-101150000D01*
X111600000Y-97100000D02*
X115650000Y-101150000D01*
D18*
%TO.N,NRST*%
X123200000Y-77850000D02*
X118000000Y-72650000D01*
X114700000Y-72650000D02*
X113150000Y-74200000D01*
X113150000Y-74200000D02*
X107450000Y-74200000D01*
X118000000Y-72650000D02*
X114700000Y-72650000D01*
X123200000Y-78200000D02*
X123200000Y-77850000D01*
D16*
%TO.N,MOSI*%
X127900000Y-92750000D02*
X128250000Y-93100000D01*
X131475000Y-93100000D02*
X137175000Y-98800000D01*
X128250000Y-93100000D02*
X131475000Y-93100000D01*
%TO.N,SCK*%
X129971866Y-98300000D02*
X134900000Y-98300000D01*
X125800000Y-94150000D02*
X125821866Y-94150000D01*
X125821866Y-94150000D02*
X129971866Y-98300000D01*
%TO.N,Rx*%
X150040000Y-63700000D02*
X150040000Y-67310000D01*
X150040000Y-67310000D02*
X142400000Y-74950000D01*
X142400000Y-74950000D02*
X142400000Y-78184347D01*
%TO.N,Tx*%
X144550000Y-78218012D02*
X144550000Y-74471866D01*
X144550000Y-74471866D02*
X152580000Y-66441866D01*
X152580000Y-66441866D02*
X152580000Y-63700000D01*
D17*
%TO.N,/POW*%
X155300000Y-80322500D02*
X155300000Y-76025000D01*
X155300000Y-76025000D02*
X156025000Y-75300000D01*
D16*
%TO.N,BOOT1*%
X129250000Y-86125000D02*
X129000000Y-86375000D01*
X134550000Y-86125000D02*
X129250000Y-86125000D01*
X135125000Y-86700000D02*
X134550000Y-86125000D01*
D18*
%TO.N,SDA*%
X124475000Y-79425000D02*
X124475000Y-81300000D01*
X119400000Y-83850000D02*
X113925000Y-83850000D01*
X125300000Y-78600000D02*
X124475000Y-79425000D01*
X124475000Y-81300000D02*
X123175000Y-82600000D01*
X123175000Y-82600000D02*
X120650000Y-82600000D01*
X113925000Y-83850000D02*
X113900000Y-83825000D01*
X120650000Y-82600000D02*
X119400000Y-83850000D01*
%TO.N,SCL*%
X125625000Y-81600000D02*
X121825000Y-85400000D01*
X114025000Y-85400000D02*
X113925000Y-85500000D01*
X121825000Y-85400000D02*
X114025000Y-85400000D01*
D19*
%TO.N,Net-(C40-Pad1)*%
X115966616Y-99875000D02*
X111950000Y-95858384D01*
X115974939Y-99875000D02*
X115966616Y-99875000D01*
X116145421Y-100045482D02*
X115974939Y-99875000D01*
X111950000Y-95858384D02*
X111950000Y-90050000D01*
%TO.N,Net-(R16-Pad1)*%
X114850000Y-95850000D02*
X114850000Y-95800000D01*
X116450000Y-97450000D02*
X114850000Y-95850000D01*
X116450000Y-98200000D02*
X116450000Y-97450000D01*
D17*
%TO.N,+5VA*%
X112776000Y-100076000D02*
X108966000Y-100076000D01*
X107950000Y-92202000D02*
X107950000Y-90678000D01*
X108966000Y-100076000D02*
X108204000Y-99314000D01*
X107950000Y-90678000D02*
X112014000Y-86614000D01*
%TD*%
M02*
