%TF.GenerationSoftware,KiCad,Pcbnew,(7.0.0)*%
%TF.CreationDate,2023-05-22T23:29:19+02:00*%
%TF.ProjectId,Apollo - DSP,41706f6c-6c6f-4202-9d20-4453502e6b69,rev?*%
%TF.SameCoordinates,Original*%
%TF.FileFunction,Copper,L3,Inr*%
%TF.FilePolarity,Positive*%
%FSLAX46Y46*%
G04 Gerber Fmt 4.6, Leading zero omitted, Abs format (unit mm)*
G04 Created by KiCad (PCBNEW (7.0.0)) date 2023-05-22 23:29:19*
%MOMM*%
%LPD*%
G01*
G04 APERTURE LIST*
%TA.AperFunction,ComponentPad*%
%ADD10O,2.000000X0.900000*%
%TD*%
%TA.AperFunction,ComponentPad*%
%ADD11O,1.700000X0.900000*%
%TD*%
%TA.AperFunction,ComponentPad*%
%ADD12R,1.700000X1.700000*%
%TD*%
%TA.AperFunction,ComponentPad*%
%ADD13O,1.700000X1.700000*%
%TD*%
%TA.AperFunction,ViaPad*%
%ADD14C,0.800000*%
%TD*%
%TA.AperFunction,ViaPad*%
%ADD15C,0.600000*%
%TD*%
%TA.AperFunction,Conductor*%
%ADD16C,0.254000*%
%TD*%
%TA.AperFunction,Conductor*%
%ADD17C,0.508000*%
%TD*%
%TA.AperFunction,Conductor*%
%ADD18C,0.250000*%
%TD*%
G04 APERTURE END LIST*
D10*
%TO.N,unconnected-(J1-SHIELD-PadS1)*%
%TO.C,J1*%
X158394999Y-82019999D03*
D11*
X162564999Y-82019999D03*
D10*
X158394999Y-73379999D03*
D11*
X162564999Y-73379999D03*
%TD*%
D12*
%TO.N,3.3V*%
%TO.C,J3*%
X139119999Y-63699999D03*
D13*
%TO.N,Rx*%
X141659999Y-63699999D03*
%TO.N,Tx*%
X144199999Y-63699999D03*
%TO.N,GND*%
X146739999Y-63699999D03*
%TD*%
D12*
%TO.N,AIN0*%
%TO.C,J5*%
X106939999Y-107699999D03*
D13*
%TO.N,AIN1*%
X109479999Y-107699999D03*
%TO.N,GND*%
X112019999Y-107699999D03*
X114559999Y-107699999D03*
%TO.N,OSC*%
X117099999Y-107699999D03*
%TO.N,AOUT*%
X119639999Y-107699999D03*
%TD*%
D12*
%TO.N,3.3V*%
%TO.C,J2*%
X127799999Y-63699999D03*
D13*
%TO.N,SWCLK*%
X130339999Y-63699999D03*
%TO.N,SWDIO*%
X132879999Y-63699999D03*
%TO.N,GND*%
X135419999Y-63699999D03*
%TD*%
D14*
%TO.N,GND*%
X122050000Y-63100000D03*
X124050000Y-78950000D03*
X150200000Y-104000000D03*
X134850000Y-88750000D03*
X101250000Y-94600000D03*
D15*
X104400000Y-86625000D03*
D14*
X137000000Y-93700000D03*
X110050000Y-63100000D03*
D15*
X104050000Y-90750000D03*
D14*
X101250000Y-100600000D03*
X127950000Y-108200000D03*
X154250000Y-71800000D03*
X116050000Y-63100000D03*
X157600000Y-97200000D03*
D15*
X108550000Y-84975000D03*
D14*
X106050000Y-63100000D03*
D15*
X111725000Y-88900000D03*
D14*
X168250000Y-109700000D03*
X160250000Y-102150000D03*
X122875000Y-100350000D03*
X152250000Y-73800000D03*
X155250000Y-102450000D03*
X101250000Y-72600000D03*
X163350000Y-68600000D03*
X99850000Y-65200000D03*
X160250000Y-97150000D03*
X101250000Y-80600000D03*
D15*
X105375000Y-85250000D03*
D14*
X130450000Y-82150000D03*
X156250000Y-71800000D03*
X160150000Y-99550000D03*
D15*
X111300000Y-80625000D03*
D14*
X157950000Y-85950000D03*
X125900000Y-108200000D03*
X127250000Y-75750000D03*
X121500000Y-66950000D03*
D15*
X108275000Y-86050000D03*
D14*
X127250000Y-82150000D03*
X163350000Y-84600000D03*
D15*
X116000000Y-78800000D03*
X114925000Y-80625000D03*
D14*
X155950000Y-87950000D03*
X141250000Y-91600000D03*
D15*
X113088445Y-87929055D03*
D14*
X125900000Y-108200000D03*
X107400000Y-72600000D03*
X152250000Y-69800000D03*
X127250000Y-78950000D03*
X157950000Y-108200000D03*
X136023786Y-98676214D03*
X160400000Y-93000000D03*
X138800000Y-89400000D03*
D15*
X114900000Y-71600000D03*
D14*
X96350000Y-61700000D03*
D15*
X118400000Y-77150000D03*
D14*
X153350000Y-66600000D03*
X153950000Y-85950000D03*
X101250000Y-82600000D03*
X99850000Y-113100000D03*
X130450000Y-78950000D03*
X96350000Y-109700000D03*
D15*
X120500000Y-74100000D03*
D14*
X135950000Y-108200000D03*
X99850000Y-106200000D03*
X123900000Y-108200000D03*
X161250000Y-109700000D03*
D15*
X118550000Y-80625000D03*
X116525000Y-83025000D03*
X119825000Y-82850000D03*
X116125000Y-80625000D03*
D14*
X125800000Y-104900000D03*
X124050000Y-78950000D03*
D15*
X143200000Y-82200000D03*
D14*
X101250000Y-102600000D03*
D15*
X112525000Y-80625000D03*
D14*
X155950000Y-108200000D03*
X153325000Y-104037500D03*
X126800000Y-94100000D03*
D15*
X116125000Y-80625000D03*
D14*
X142775000Y-100075000D03*
X124050000Y-63100000D03*
X159297536Y-74897536D03*
X163350000Y-86600000D03*
X147200000Y-92800000D03*
X163350000Y-94600000D03*
X153950000Y-87950000D03*
X161250000Y-61700000D03*
X101250000Y-74600000D03*
X133950000Y-108200000D03*
X101250000Y-88600000D03*
X149950000Y-108200000D03*
X156800000Y-94300000D03*
X153325000Y-102637500D03*
X138350000Y-86700000D03*
D15*
X104075000Y-89450000D03*
X104200000Y-88100000D03*
D14*
X118050000Y-63100000D03*
D15*
X114925000Y-80625000D03*
D14*
X124000000Y-74700000D03*
X127900000Y-108200000D03*
X145950000Y-108200000D03*
D15*
X113339172Y-74940726D03*
D14*
X146000000Y-90400000D03*
X133100000Y-70300000D03*
X148400000Y-105000000D03*
D15*
X116700000Y-86650000D03*
X118935500Y-87750000D03*
X113550000Y-72800000D03*
D14*
X163350000Y-102600000D03*
X101250000Y-78600000D03*
D15*
X119750000Y-80625000D03*
D14*
X101250000Y-92600000D03*
D15*
X143500000Y-78200000D03*
X113900000Y-77700000D03*
D14*
X163350000Y-90600000D03*
X99850000Y-58200000D03*
D15*
X107125000Y-83600000D03*
D14*
X138900000Y-95900000D03*
X139950000Y-108200000D03*
X155950000Y-89950000D03*
X160250000Y-104150000D03*
X101250000Y-86600000D03*
D15*
X119550000Y-77950000D03*
D14*
X124050000Y-82150000D03*
X168250000Y-61700000D03*
X114853036Y-74936913D03*
X154250000Y-73800000D03*
X154250000Y-69800000D03*
D15*
X107975000Y-82725000D03*
D14*
X145600000Y-92800000D03*
D15*
X113725000Y-80625000D03*
D14*
X101250000Y-70600000D03*
X142900000Y-72500000D03*
X155450000Y-104850000D03*
X103600000Y-104600000D03*
D15*
X118550000Y-80625000D03*
D14*
X120050000Y-63100000D03*
X127250000Y-75750000D03*
X157950000Y-63100000D03*
D15*
X117350000Y-80625000D03*
D14*
X112050000Y-63100000D03*
X155950000Y-85950000D03*
X101250000Y-76600000D03*
X163350000Y-100600000D03*
X163350000Y-98600000D03*
X127250000Y-78950000D03*
X134550000Y-75050000D03*
X142360500Y-97838794D03*
X131950000Y-108200000D03*
X143950000Y-108200000D03*
X133950000Y-108200000D03*
X139950000Y-79700000D03*
D15*
X119475000Y-73175000D03*
X106250000Y-84400000D03*
D14*
X163350000Y-96600000D03*
D15*
X118175000Y-72500000D03*
X117600000Y-78000000D03*
D14*
X164750000Y-113200000D03*
D15*
X110350000Y-86125000D03*
D14*
X108050000Y-63100000D03*
X101250000Y-90600000D03*
X108025000Y-87225000D03*
X126700000Y-100500000D03*
X147500000Y-72100000D03*
X114050000Y-63100000D03*
X135950000Y-108200000D03*
X103350000Y-61700000D03*
X101250000Y-98600000D03*
X101250000Y-96600000D03*
X153950000Y-108200000D03*
X123200000Y-66950000D03*
X150312500Y-92456250D03*
X122900000Y-104600000D03*
X103900000Y-96205000D03*
X164750000Y-106200000D03*
X119900000Y-71550000D03*
X147700000Y-81200000D03*
X147450000Y-86000000D03*
X146800000Y-88800000D03*
X159300000Y-80300000D03*
X157750000Y-99900000D03*
X127250000Y-82150000D03*
X141950000Y-108200000D03*
X157300000Y-103900000D03*
X127250000Y-78950000D03*
X108000000Y-94300000D03*
X143600000Y-91250000D03*
X155950000Y-82200000D03*
X150450000Y-81450000D03*
D15*
X108750000Y-82000000D03*
D14*
X145950000Y-108200000D03*
X135862386Y-104941181D03*
X163350000Y-70600000D03*
X149950000Y-63100000D03*
X137950000Y-108200000D03*
D15*
X114900000Y-83075000D03*
X118250000Y-83075000D03*
D14*
X153950000Y-63100000D03*
D15*
X110425000Y-84650000D03*
X113725000Y-80625000D03*
D14*
X153950000Y-89950000D03*
X147950000Y-108200000D03*
X131300000Y-104700000D03*
D15*
X152512500Y-97556250D03*
X123638656Y-76822408D03*
D14*
X103350000Y-109700000D03*
X150312500Y-94156250D03*
X164750000Y-65200000D03*
X157950000Y-89950000D03*
X114000000Y-92050000D03*
X152250000Y-71800000D03*
D15*
X110550000Y-87350000D03*
D14*
X127250000Y-78950000D03*
X141800000Y-88700000D03*
X151900000Y-104000000D03*
X163350000Y-88600000D03*
X156250000Y-73800000D03*
X150150000Y-66500000D03*
X131812500Y-87012500D03*
X151950000Y-63100000D03*
X140000000Y-71600000D03*
X129950000Y-108200000D03*
D15*
X112600000Y-82950000D03*
D14*
X156150000Y-66400000D03*
X155950000Y-83950000D03*
X155600000Y-100300000D03*
X124900000Y-66950000D03*
X128500000Y-70700000D03*
X139950000Y-108200000D03*
X163350000Y-92600000D03*
X157950000Y-87950000D03*
X130450000Y-75750000D03*
X151950000Y-108200000D03*
X101250000Y-84600000D03*
X156250000Y-69800000D03*
X123050000Y-86450000D03*
X101250000Y-68600000D03*
D15*
X117212500Y-71562500D03*
D14*
X155950000Y-63100000D03*
X133900000Y-99026500D03*
D15*
X147700000Y-77950000D03*
D14*
X121300000Y-96400000D03*
X130450000Y-78950000D03*
X148800000Y-92900000D03*
X137950000Y-108200000D03*
X164750000Y-58300000D03*
D15*
%TO.N,+5V*%
X147700000Y-75950000D03*
D14*
X149000000Y-80000000D03*
%TO.N,3.3V*%
X121800000Y-91400000D03*
X140025000Y-84587500D03*
X145500000Y-105000000D03*
X138425000Y-84587500D03*
X111650000Y-86725000D03*
X133450000Y-73650000D03*
X124900000Y-71250000D03*
X131950000Y-84750000D03*
X124550000Y-86450000D03*
X123200000Y-71250000D03*
X135225000Y-84510000D03*
X136625000Y-84510000D03*
X111425000Y-78550000D03*
X135225000Y-83110000D03*
X121700000Y-72300000D03*
X138200000Y-72950000D03*
X136100000Y-102400000D03*
%TO.N,VAA*%
X104000000Y-97500000D03*
X119700000Y-95300000D03*
X141300000Y-97700000D03*
X112700000Y-98900000D03*
%TO.N,+5VA*%
X154800000Y-96437500D03*
X108000000Y-92300000D03*
D15*
X113350000Y-87125000D03*
D14*
X112750000Y-100550000D03*
%TO.N,+3.3VA*%
X143500000Y-97700000D03*
D15*
X121075000Y-86025000D03*
D14*
%TO.N,MOSI*%
X126800000Y-93100000D03*
X137175000Y-98800000D03*
%TO.N,SCK*%
X125930450Y-93607163D03*
X134900000Y-98300000D03*
%TO.N,Rx*%
X142400000Y-78184347D03*
%TO.N,Tx*%
X144550000Y-78218012D03*
%TO.N,/POW*%
X156025000Y-75300000D03*
X155300000Y-80322500D03*
D15*
%TO.N,SDA*%
X116675500Y-84275000D03*
X123700000Y-75925000D03*
%TO.N,SCL*%
X124537500Y-76862500D03*
X116675500Y-85074503D03*
D14*
%TO.N,Net-(C40-Pad1)*%
X111950000Y-90050000D03*
X116800000Y-97250000D03*
%TO.N,Net-(R16-Pad1)*%
X115973500Y-94800000D03*
X116225500Y-99250000D03*
%TD*%
D16*
%TO.N,GND*%
X126200000Y-74700000D02*
X124000000Y-74700000D01*
X127250000Y-75750000D02*
X126200000Y-74700000D01*
%TO.N,+5V*%
X148400000Y-75950000D02*
X148950000Y-76500000D01*
X147700000Y-75950000D02*
X148400000Y-75950000D01*
X148950000Y-76500000D02*
X148950000Y-79950000D01*
X148950000Y-79950000D02*
X149000000Y-80000000D01*
D17*
%TO.N,VAA*%
X141300000Y-97700000D02*
X137400000Y-97700000D01*
X104000000Y-97500000D02*
X105400000Y-98900000D01*
X137400000Y-97700000D02*
X131000000Y-91300000D01*
X121100000Y-95300000D02*
X119700000Y-95300000D01*
X131000000Y-91300000D02*
X125100000Y-91300000D01*
X105400000Y-98900000D02*
X112700000Y-98900000D01*
X119700000Y-98100000D02*
X119700000Y-95300000D01*
X116900000Y-100900000D02*
X119700000Y-98100000D01*
X125100000Y-91300000D02*
X121100000Y-95300000D01*
X112700000Y-98900000D02*
X114700000Y-100900000D01*
X114700000Y-100900000D02*
X116900000Y-100900000D01*
%TO.N,+5VA*%
X147983500Y-103254000D02*
X154800000Y-96437500D01*
X105400000Y-101400000D02*
X102900000Y-98900000D01*
X115454000Y-103254000D02*
X122850000Y-103254000D01*
X112750000Y-100550000D02*
X111900000Y-101400000D01*
X102900000Y-93700000D02*
X104300000Y-92300000D01*
X111900000Y-101400000D02*
X105400000Y-101400000D01*
X112003739Y-87579000D02*
X111971000Y-87579000D01*
X113350000Y-87125000D02*
X112457739Y-87125000D01*
X112750000Y-100550000D02*
X115454000Y-103254000D01*
X108000000Y-91550000D02*
X108000000Y-92300000D01*
X102900000Y-98900000D02*
X102900000Y-93700000D01*
X112457739Y-87125000D02*
X112003739Y-87579000D01*
X111971000Y-87579000D02*
X108000000Y-91550000D01*
X122850000Y-103254000D02*
X147983500Y-103254000D01*
X104300000Y-92300000D02*
X108000000Y-92300000D01*
%TO.N,+3.3VA*%
X124850000Y-89800000D02*
X135528739Y-89800000D01*
X135528739Y-89800000D02*
X143428739Y-97700000D01*
X143428739Y-97700000D02*
X143500000Y-97700000D01*
X121075000Y-86025000D02*
X124850000Y-89800000D01*
D16*
%TO.N,MOSI*%
X126800000Y-93100000D02*
X131475000Y-93100000D01*
X131475000Y-93100000D02*
X137175000Y-98800000D01*
%TO.N,SCK*%
X129971866Y-98300000D02*
X134900000Y-98300000D01*
X125930450Y-93607163D02*
X125930450Y-94258584D01*
X125930450Y-94258584D02*
X129971866Y-98300000D01*
%TO.N,Rx*%
X141660000Y-77444347D02*
X142400000Y-78184347D01*
X141660000Y-63700000D02*
X141660000Y-77444347D01*
%TO.N,Tx*%
X144200000Y-63700000D02*
X144200000Y-77868012D01*
X144200000Y-77868012D02*
X144550000Y-78218012D01*
D17*
%TO.N,/POW*%
X155300000Y-80322500D02*
X155300000Y-76025000D01*
X155300000Y-76025000D02*
X156025000Y-75300000D01*
D16*
%TO.N,SDA*%
X120575000Y-84275000D02*
X121000000Y-83850000D01*
X121000000Y-83850000D02*
X121000000Y-78574352D01*
X121000000Y-78574352D02*
X123649352Y-75925000D01*
X116675500Y-84275000D02*
X120575000Y-84275000D01*
X123649352Y-75925000D02*
X123700000Y-75925000D01*
%TO.N,SCL*%
X122350000Y-84175000D02*
X121450497Y-85074503D01*
X124537500Y-76862500D02*
X122350000Y-79050000D01*
X121450497Y-85074503D02*
X116675500Y-85074503D01*
X122350000Y-79050000D02*
X122350000Y-84175000D01*
D18*
%TO.N,Net-(C40-Pad1)*%
X113700000Y-97250000D02*
X111950000Y-95500000D01*
X111950000Y-95500000D02*
X111950000Y-90050000D01*
X116800000Y-97250000D02*
X113700000Y-97250000D01*
%TO.N,Net-(R16-Pad1)*%
X116225500Y-99250000D02*
X117525000Y-97950500D01*
X117525000Y-96351500D02*
X115973500Y-94800000D01*
X117525000Y-97950500D02*
X117525000Y-96351500D01*
%TD*%
%TA.AperFunction,Conductor*%
%TO.N,SDA*%
G36*
X116801293Y-84002842D02*
G01*
X116906289Y-84050683D01*
X116906660Y-84050861D01*
X116989311Y-84092676D01*
X117062575Y-84123130D01*
X117150046Y-84141712D01*
X117240283Y-84146234D01*
X117264386Y-84147443D01*
X117272278Y-84151065D01*
X117275500Y-84159128D01*
X117275500Y-84390872D01*
X117272278Y-84398935D01*
X117264386Y-84402556D01*
X117259838Y-84402784D01*
X117150509Y-84408263D01*
X117150499Y-84408264D01*
X117150046Y-84408287D01*
X117149604Y-84408380D01*
X117149595Y-84408382D01*
X117063103Y-84426756D01*
X117063094Y-84426758D01*
X117062575Y-84426869D01*
X117062083Y-84427073D01*
X117062075Y-84427076D01*
X116989514Y-84457238D01*
X116989500Y-84457244D01*
X116989311Y-84457323D01*
X116989126Y-84457416D01*
X116989112Y-84457423D01*
X116906690Y-84499121D01*
X116906259Y-84499328D01*
X116801295Y-84547155D01*
X116795199Y-84548142D01*
X116789449Y-84545887D01*
X116785648Y-84541019D01*
X116768187Y-84499228D01*
X116676383Y-84279507D01*
X116675480Y-84275000D01*
X116676383Y-84270492D01*
X116785650Y-84008975D01*
X116789449Y-84004111D01*
X116795199Y-84001856D01*
X116801293Y-84002842D01*
G37*
%TD.AperFunction*%
%TD*%
%TA.AperFunction,Conductor*%
%TO.N,VAA*%
G36*
X120087411Y-95299968D02*
G01*
X120093501Y-95301696D01*
X120097800Y-95306345D01*
X120099048Y-95312552D01*
X120084894Y-95499261D01*
X120084554Y-95501310D01*
X120048743Y-95639626D01*
X120048421Y-95640666D01*
X120005484Y-95759591D01*
X120005479Y-95759606D01*
X120005392Y-95759848D01*
X120005329Y-95760088D01*
X120005324Y-95760107D01*
X119969312Y-95899201D01*
X119969184Y-95899697D01*
X119969145Y-95900205D01*
X119969145Y-95900208D01*
X119954820Y-96089184D01*
X119951107Y-96096880D01*
X119943153Y-96100000D01*
X119456847Y-96100000D01*
X119448893Y-96096880D01*
X119445180Y-96089184D01*
X119430816Y-95899697D01*
X119394608Y-95759848D01*
X119351576Y-95640660D01*
X119351256Y-95639626D01*
X119315445Y-95501310D01*
X119315105Y-95499261D01*
X119300951Y-95312550D01*
X119302199Y-95306345D01*
X119306498Y-95301696D01*
X119312587Y-95299968D01*
X119700000Y-95299000D01*
X120087411Y-95299968D01*
G37*
%TD.AperFunction*%
%TD*%
%TA.AperFunction,Conductor*%
%TO.N,+5VA*%
G36*
X113343961Y-86826818D02*
G01*
X113348396Y-86831100D01*
X113350040Y-86837041D01*
X113351000Y-87125000D01*
X113351000Y-87125078D01*
X113350040Y-87412958D01*
X113348396Y-87418899D01*
X113343961Y-87423181D01*
X113337965Y-87424613D01*
X113201386Y-87420230D01*
X113200503Y-87420168D01*
X113095712Y-87408833D01*
X113095238Y-87408772D01*
X113004632Y-87395207D01*
X113004596Y-87395202D01*
X113004526Y-87395192D01*
X113004422Y-87395180D01*
X113004416Y-87395180D01*
X112899268Y-87383807D01*
X112899261Y-87383806D01*
X112899053Y-87383784D01*
X112898840Y-87383777D01*
X112898838Y-87383777D01*
X112761325Y-87379363D01*
X112753295Y-87375808D01*
X112750000Y-87367669D01*
X112750000Y-86882331D01*
X112753295Y-86874192D01*
X112761325Y-86870637D01*
X112809574Y-86869087D01*
X112899053Y-86866216D01*
X113004526Y-86854808D01*
X113095246Y-86841225D01*
X113095704Y-86841166D01*
X113200527Y-86829829D01*
X113201362Y-86829770D01*
X113337966Y-86825386D01*
X113343961Y-86826818D01*
G37*
%TD.AperFunction*%
%TD*%
%TA.AperFunction,Conductor*%
%TO.N,SDA*%
G36*
X123433712Y-75814661D02*
G01*
X123696184Y-75922436D01*
X123700013Y-75924986D01*
X123702563Y-75928815D01*
X123810081Y-76190661D01*
X123810819Y-76196903D01*
X123808221Y-76202626D01*
X123803035Y-76206178D01*
X123692979Y-76243721D01*
X123691792Y-76244058D01*
X123599492Y-76265011D01*
X123599483Y-76265013D01*
X123599387Y-76265035D01*
X123599297Y-76265058D01*
X123599272Y-76265065D01*
X123521250Y-76285758D01*
X123521246Y-76285759D01*
X123520637Y-76285921D01*
X123520081Y-76286207D01*
X123520075Y-76286210D01*
X123441578Y-76326694D01*
X123441574Y-76326696D01*
X123440980Y-76327003D01*
X123440466Y-76327441D01*
X123440464Y-76327443D01*
X123353475Y-76401686D01*
X123345419Y-76404478D01*
X123337607Y-76401060D01*
X123173728Y-76237181D01*
X123170302Y-76229045D01*
X123173536Y-76220832D01*
X123250101Y-76140596D01*
X123304167Y-76071963D01*
X123341725Y-76005691D01*
X123376654Y-75924271D01*
X123418424Y-75821092D01*
X123422086Y-75816247D01*
X123427686Y-75813891D01*
X123433712Y-75814661D01*
G37*
%TD.AperFunction*%
%TD*%
%TA.AperFunction,Conductor*%
%TO.N,Net-(C40-Pad1)*%
G36*
X116647818Y-96886957D02*
G01*
X116651696Y-96891888D01*
X116799123Y-97245498D01*
X116800024Y-97250000D01*
X116799123Y-97254502D01*
X116651696Y-97608111D01*
X116647818Y-97613043D01*
X116641950Y-97615262D01*
X116635780Y-97614130D01*
X116490676Y-97543552D01*
X116489682Y-97543008D01*
X116380880Y-97476360D01*
X116380784Y-97476301D01*
X116380700Y-97476254D01*
X116380681Y-97476243D01*
X116285638Y-97423273D01*
X116285636Y-97423272D01*
X116285094Y-97422970D01*
X116284503Y-97422789D01*
X116284496Y-97422787D01*
X116170014Y-97387916D01*
X116170008Y-97387914D01*
X116169398Y-97387729D01*
X116168762Y-97387681D01*
X116168756Y-97387680D01*
X116010823Y-97375813D01*
X116003122Y-97372103D01*
X116000000Y-97364146D01*
X116000000Y-97135854D01*
X116003122Y-97127897D01*
X116010823Y-97124187D01*
X116101629Y-97117362D01*
X116169398Y-97112270D01*
X116285094Y-97077029D01*
X116380784Y-97023697D01*
X116489694Y-96956982D01*
X116490671Y-96956448D01*
X116635782Y-96885868D01*
X116641950Y-96884737D01*
X116647818Y-96886957D01*
G37*
%TD.AperFunction*%
%TD*%
%TA.AperFunction,Conductor*%
%TO.N,MOSI*%
G36*
X126964212Y-92735850D02*
G01*
X126976635Y-92741876D01*
X127109244Y-92806194D01*
X127110214Y-92806722D01*
X127219176Y-92872935D01*
X127314963Y-92925694D01*
X127430705Y-92960465D01*
X127517386Y-92966883D01*
X127589164Y-92972198D01*
X127596873Y-92975904D01*
X127600000Y-92983866D01*
X127600000Y-93216134D01*
X127596873Y-93224096D01*
X127589164Y-93227802D01*
X127431345Y-93239486D01*
X127431339Y-93239487D01*
X127430705Y-93239534D01*
X127430091Y-93239718D01*
X127430088Y-93239719D01*
X127315555Y-93274126D01*
X127315553Y-93274126D01*
X127314963Y-93274304D01*
X127314429Y-93274597D01*
X127314422Y-93274601D01*
X127219293Y-93326998D01*
X127219272Y-93327009D01*
X127219176Y-93327063D01*
X127219084Y-93327118D01*
X127219070Y-93327127D01*
X127110214Y-93393276D01*
X127109244Y-93393804D01*
X126964213Y-93464148D01*
X126958045Y-93465273D01*
X126952183Y-93463052D01*
X126948308Y-93458123D01*
X126893693Y-93327127D01*
X126800875Y-93104497D01*
X126799975Y-93100000D01*
X126800875Y-93095502D01*
X126948308Y-92741874D01*
X126952183Y-92736947D01*
X126958045Y-92734726D01*
X126964212Y-92735850D01*
G37*
%TD.AperFunction*%
%TD*%
%TA.AperFunction,Conductor*%
%TO.N,SCL*%
G36*
X124271506Y-76752281D02*
G01*
X124441574Y-76822114D01*
X124533684Y-76859936D01*
X124537513Y-76862486D01*
X124540063Y-76866315D01*
X124647717Y-77128491D01*
X124648472Y-77134621D01*
X124646001Y-77140281D01*
X124640992Y-77143894D01*
X124532943Y-77184298D01*
X124532493Y-77184456D01*
X124444523Y-77213319D01*
X124444349Y-77213390D01*
X124444324Y-77213400D01*
X124371678Y-77243385D01*
X124371671Y-77243388D01*
X124371183Y-77243590D01*
X124370735Y-77243880D01*
X124370733Y-77243882D01*
X124296583Y-77292048D01*
X124296577Y-77292052D01*
X124296193Y-77292302D01*
X124295855Y-77292606D01*
X124295848Y-77292613D01*
X124211291Y-77369100D01*
X124203149Y-77372119D01*
X124195169Y-77368696D01*
X124031303Y-77204830D01*
X124027880Y-77196850D01*
X124030899Y-77188708D01*
X124071434Y-77143894D01*
X124107696Y-77103805D01*
X124156408Y-77028815D01*
X124186679Y-76955475D01*
X124215554Y-76867465D01*
X124215685Y-76867092D01*
X124256106Y-76759004D01*
X124259719Y-76753998D01*
X124265379Y-76751527D01*
X124271506Y-76752281D01*
G37*
%TD.AperFunction*%
%TD*%
%TA.AperFunction,Conductor*%
%TO.N,+5VA*%
G36*
X112476080Y-100276036D02*
G01*
X112750707Y-100549293D01*
X112750749Y-100549335D01*
X113023963Y-100823919D01*
X113027048Y-100829448D01*
X113026800Y-100835774D01*
X113023293Y-100841046D01*
X112881260Y-100963061D01*
X112879571Y-100964269D01*
X112756447Y-101036749D01*
X112755484Y-101037257D01*
X112641021Y-101090993D01*
X112641007Y-101091000D01*
X112640782Y-101091106D01*
X112640573Y-101091228D01*
X112640554Y-101091239D01*
X112516733Y-101164130D01*
X112516726Y-101164134D01*
X112516291Y-101164391D01*
X112515903Y-101164724D01*
X112515902Y-101164725D01*
X112372147Y-101288222D01*
X112364081Y-101291039D01*
X112356250Y-101287620D01*
X112012379Y-100943749D01*
X112008960Y-100935919D01*
X112011776Y-100927854D01*
X112135608Y-100783707D01*
X112208892Y-100659217D01*
X112262748Y-100544495D01*
X112263233Y-100543574D01*
X112335736Y-100420415D01*
X112336931Y-100418744D01*
X112458954Y-100276704D01*
X112464225Y-100273199D01*
X112470551Y-100272951D01*
X112476080Y-100276036D01*
G37*
%TD.AperFunction*%
%TD*%
%TA.AperFunction,Conductor*%
%TO.N,VAA*%
G36*
X119899261Y-94915105D02*
G01*
X119901310Y-94915445D01*
X120039632Y-94951258D01*
X120040660Y-94951576D01*
X120159848Y-94994608D01*
X120299697Y-95030816D01*
X120489184Y-95045180D01*
X120496880Y-95048893D01*
X120500000Y-95056847D01*
X120500000Y-95543153D01*
X120496880Y-95551107D01*
X120489184Y-95554819D01*
X120440508Y-95558509D01*
X120300208Y-95569145D01*
X120300205Y-95569145D01*
X120299697Y-95569184D01*
X120299205Y-95569311D01*
X120299201Y-95569312D01*
X120160107Y-95605324D01*
X120160088Y-95605329D01*
X120159848Y-95605392D01*
X120159606Y-95605479D01*
X120159591Y-95605484D01*
X120040666Y-95648421D01*
X120039626Y-95648743D01*
X119901310Y-95684554D01*
X119899261Y-95684894D01*
X119712552Y-95699048D01*
X119706345Y-95697800D01*
X119701696Y-95693501D01*
X119699968Y-95687411D01*
X119699000Y-95300000D01*
X119699968Y-94912587D01*
X119701696Y-94906498D01*
X119706345Y-94902199D01*
X119712550Y-94900951D01*
X119899261Y-94915105D01*
G37*
%TD.AperFunction*%
%TD*%
%TA.AperFunction,Conductor*%
%TO.N,+5VA*%
G36*
X113035774Y-100273199D02*
G01*
X113041046Y-100276706D01*
X113163061Y-100418738D01*
X113164269Y-100420427D01*
X113236749Y-100543550D01*
X113237257Y-100544513D01*
X113290993Y-100658977D01*
X113291106Y-100659217D01*
X113291233Y-100659433D01*
X113291239Y-100659444D01*
X113364130Y-100783264D01*
X113364391Y-100783707D01*
X113488222Y-100927852D01*
X113491039Y-100935919D01*
X113487620Y-100943749D01*
X113143749Y-101287620D01*
X113135919Y-101291039D01*
X113127852Y-101288222D01*
X112983707Y-101164391D01*
X112983264Y-101164130D01*
X112859444Y-101091239D01*
X112859433Y-101091233D01*
X112859217Y-101091106D01*
X112858982Y-101090996D01*
X112858977Y-101090993D01*
X112744513Y-101037257D01*
X112743550Y-101036749D01*
X112620427Y-100964269D01*
X112618738Y-100963061D01*
X112476706Y-100841046D01*
X112473199Y-100835774D01*
X112472951Y-100829448D01*
X112476036Y-100823919D01*
X112515662Y-100784095D01*
X112749293Y-100549293D01*
X113023920Y-100276035D01*
X113029448Y-100272951D01*
X113035774Y-100273199D01*
G37*
%TD.AperFunction*%
%TD*%
%TA.AperFunction,Conductor*%
%TO.N,+3.3VA*%
G36*
X121290117Y-85818425D02*
G01*
X121295368Y-85821650D01*
X121388847Y-85921328D01*
X121389420Y-85921988D01*
X121455514Y-86004115D01*
X121455806Y-86004493D01*
X121470449Y-86024293D01*
X121510340Y-86078231D01*
X121576855Y-86160878D01*
X121577009Y-86161042D01*
X121671118Y-86261393D01*
X121674282Y-86269584D01*
X121670857Y-86277669D01*
X121327669Y-86620857D01*
X121319584Y-86624282D01*
X121311393Y-86621118D01*
X121211042Y-86527009D01*
X121210878Y-86526855D01*
X121128231Y-86460340D01*
X121128155Y-86460283D01*
X121128141Y-86460273D01*
X121054493Y-86405806D01*
X121054115Y-86405514D01*
X120971988Y-86339420D01*
X120971328Y-86338847D01*
X120871650Y-86245368D01*
X120868425Y-86240117D01*
X120868316Y-86233953D01*
X120871354Y-86228589D01*
X121020713Y-86078231D01*
X121074293Y-86024293D01*
X121278589Y-85821353D01*
X121283953Y-85818316D01*
X121290117Y-85818425D01*
G37*
%TD.AperFunction*%
%TD*%
%TA.AperFunction,Conductor*%
%TO.N,+5V*%
G36*
X147825793Y-75677842D02*
G01*
X147930789Y-75725683D01*
X147931160Y-75725861D01*
X148013811Y-75767676D01*
X148087075Y-75798130D01*
X148174546Y-75816712D01*
X148264783Y-75821234D01*
X148288886Y-75822443D01*
X148296778Y-75826065D01*
X148300000Y-75834128D01*
X148300000Y-76065872D01*
X148296778Y-76073935D01*
X148288886Y-76077556D01*
X148284338Y-76077784D01*
X148175009Y-76083263D01*
X148174999Y-76083264D01*
X148174546Y-76083287D01*
X148174104Y-76083380D01*
X148174095Y-76083382D01*
X148087603Y-76101756D01*
X148087594Y-76101758D01*
X148087075Y-76101869D01*
X148086583Y-76102073D01*
X148086575Y-76102076D01*
X148014014Y-76132238D01*
X148014000Y-76132244D01*
X148013811Y-76132323D01*
X148013626Y-76132416D01*
X148013612Y-76132423D01*
X147931190Y-76174121D01*
X147930759Y-76174328D01*
X147825795Y-76222155D01*
X147819699Y-76223142D01*
X147813949Y-76220887D01*
X147810148Y-76216019D01*
X147792687Y-76174228D01*
X147700883Y-75954507D01*
X147699980Y-75950000D01*
X147700883Y-75945492D01*
X147810150Y-75683975D01*
X147813949Y-75679111D01*
X147819699Y-75676856D01*
X147825793Y-75677842D01*
G37*
%TD.AperFunction*%
%TD*%
%TA.AperFunction,Conductor*%
%TO.N,+5VA*%
G36*
X154526080Y-96163536D02*
G01*
X154800707Y-96436793D01*
X154800749Y-96436835D01*
X155073963Y-96711419D01*
X155077048Y-96716948D01*
X155076800Y-96723274D01*
X155073293Y-96728546D01*
X154931260Y-96850561D01*
X154929571Y-96851769D01*
X154806447Y-96924249D01*
X154805484Y-96924757D01*
X154691021Y-96978493D01*
X154691007Y-96978500D01*
X154690782Y-96978606D01*
X154690573Y-96978728D01*
X154690554Y-96978739D01*
X154566733Y-97051630D01*
X154566726Y-97051634D01*
X154566291Y-97051891D01*
X154565903Y-97052224D01*
X154565902Y-97052225D01*
X154422147Y-97175722D01*
X154414081Y-97178539D01*
X154406250Y-97175120D01*
X154062379Y-96831249D01*
X154058960Y-96823419D01*
X154061776Y-96815354D01*
X154185608Y-96671207D01*
X154258892Y-96546717D01*
X154312748Y-96431995D01*
X154313233Y-96431074D01*
X154385736Y-96307915D01*
X154386931Y-96306244D01*
X154508954Y-96164204D01*
X154514225Y-96160699D01*
X154520551Y-96160451D01*
X154526080Y-96163536D01*
G37*
%TD.AperFunction*%
%TD*%
%TA.AperFunction,Conductor*%
%TO.N,GND*%
G36*
X124164212Y-74335850D02*
G01*
X124176635Y-74341876D01*
X124309244Y-74406194D01*
X124310214Y-74406722D01*
X124419176Y-74472935D01*
X124514963Y-74525694D01*
X124630705Y-74560465D01*
X124717386Y-74566883D01*
X124789164Y-74572198D01*
X124796873Y-74575904D01*
X124800000Y-74583866D01*
X124800000Y-74816134D01*
X124796873Y-74824096D01*
X124789164Y-74827802D01*
X124631345Y-74839486D01*
X124631339Y-74839487D01*
X124630705Y-74839534D01*
X124630091Y-74839718D01*
X124630088Y-74839719D01*
X124515555Y-74874126D01*
X124515553Y-74874126D01*
X124514963Y-74874304D01*
X124514429Y-74874597D01*
X124514422Y-74874601D01*
X124419293Y-74926998D01*
X124419272Y-74927009D01*
X124419176Y-74927063D01*
X124419084Y-74927118D01*
X124419070Y-74927127D01*
X124310214Y-74993276D01*
X124309244Y-74993804D01*
X124164213Y-75064148D01*
X124158045Y-75065273D01*
X124152183Y-75063052D01*
X124148308Y-75058123D01*
X124093693Y-74927127D01*
X124000875Y-74704498D01*
X123999975Y-74699999D01*
X124000874Y-74695503D01*
X124148308Y-74341874D01*
X124152183Y-74336947D01*
X124158045Y-74334726D01*
X124164212Y-74335850D01*
G37*
%TD.AperFunction*%
%TD*%
%TA.AperFunction,Conductor*%
%TO.N,VAA*%
G36*
X112985774Y-98623199D02*
G01*
X112991046Y-98626706D01*
X113113061Y-98768738D01*
X113114269Y-98770427D01*
X113186749Y-98893550D01*
X113187257Y-98894513D01*
X113240993Y-99008977D01*
X113241106Y-99009217D01*
X113241233Y-99009433D01*
X113241239Y-99009444D01*
X113314130Y-99133264D01*
X113314391Y-99133707D01*
X113438222Y-99277852D01*
X113441039Y-99285919D01*
X113437620Y-99293749D01*
X113093749Y-99637620D01*
X113085919Y-99641039D01*
X113077852Y-99638222D01*
X112933707Y-99514391D01*
X112933264Y-99514130D01*
X112809444Y-99441239D01*
X112809433Y-99441233D01*
X112809217Y-99441106D01*
X112808982Y-99440996D01*
X112808977Y-99440993D01*
X112694513Y-99387257D01*
X112693550Y-99386749D01*
X112570427Y-99314269D01*
X112568738Y-99313061D01*
X112426706Y-99191046D01*
X112423199Y-99185774D01*
X112422951Y-99179448D01*
X112426036Y-99173919D01*
X112465662Y-99134095D01*
X112699293Y-98899293D01*
X112973920Y-98626035D01*
X112979448Y-98622951D01*
X112985774Y-98623199D01*
G37*
%TD.AperFunction*%
%TD*%
%TA.AperFunction,Conductor*%
%TO.N,+5V*%
G36*
X149074283Y-79212958D02*
G01*
X149078085Y-79220443D01*
X149094549Y-79379689D01*
X149141351Y-79492314D01*
X149208633Y-79583766D01*
X149287074Y-79689249D01*
X149288055Y-79690813D01*
X149363650Y-79835621D01*
X149364948Y-79841867D01*
X149362777Y-79847866D01*
X149357780Y-79851834D01*
X149004502Y-79999123D01*
X149000000Y-80000024D01*
X148995498Y-79999123D01*
X148641574Y-79851565D01*
X148636707Y-79847774D01*
X148634445Y-79842035D01*
X148635416Y-79835944D01*
X148699307Y-79694709D01*
X148699425Y-79694461D01*
X148753231Y-79585738D01*
X148791891Y-79489369D01*
X148815197Y-79374447D01*
X148822471Y-79221091D01*
X148826083Y-79213179D01*
X148834158Y-79209946D01*
X149066447Y-79209946D01*
X149074283Y-79212958D01*
G37*
%TD.AperFunction*%
%TD*%
%TA.AperFunction,Conductor*%
%TO.N,/POW*%
G36*
X155551107Y-79525620D02*
G01*
X155554819Y-79533315D01*
X155569184Y-79722802D01*
X155569311Y-79723295D01*
X155569312Y-79723297D01*
X155605324Y-79862390D01*
X155605328Y-79862403D01*
X155605392Y-79862650D01*
X155605481Y-79862897D01*
X155605484Y-79862906D01*
X155648421Y-79981831D01*
X155648743Y-79982871D01*
X155684554Y-80121188D01*
X155684894Y-80123237D01*
X155699048Y-80309947D01*
X155697800Y-80316154D01*
X155693501Y-80320803D01*
X155687410Y-80322531D01*
X155300028Y-80323499D01*
X155299970Y-80323499D01*
X154912589Y-80322531D01*
X154906498Y-80320803D01*
X154902199Y-80316154D01*
X154900951Y-80309949D01*
X154915105Y-80123231D01*
X154915445Y-80121187D01*
X154951257Y-79982863D01*
X154951572Y-79981845D01*
X154994608Y-79862650D01*
X155030816Y-79722802D01*
X155045180Y-79533315D01*
X155048893Y-79525620D01*
X155056847Y-79522500D01*
X155543153Y-79522500D01*
X155551107Y-79525620D01*
G37*
%TD.AperFunction*%
%TD*%
%TA.AperFunction,Conductor*%
%TO.N,SCK*%
G36*
X134747816Y-97936947D02*
G01*
X134751691Y-97941876D01*
X134899123Y-98295498D01*
X134900024Y-98300000D01*
X134899123Y-98304502D01*
X134751691Y-98658123D01*
X134747816Y-98663052D01*
X134741954Y-98665273D01*
X134735786Y-98664148D01*
X134590753Y-98593804D01*
X134589783Y-98593276D01*
X134480928Y-98527127D01*
X134480823Y-98527063D01*
X134480705Y-98526998D01*
X134385576Y-98474601D01*
X134385572Y-98474599D01*
X134385036Y-98474304D01*
X134269294Y-98439534D01*
X134268657Y-98439486D01*
X134268653Y-98439486D01*
X134110836Y-98427802D01*
X134103127Y-98424096D01*
X134100000Y-98416134D01*
X134100000Y-98183866D01*
X134103127Y-98175904D01*
X134110836Y-98172198D01*
X134176368Y-98167345D01*
X134269294Y-98160465D01*
X134385036Y-98125694D01*
X134480823Y-98072935D01*
X134589792Y-98006716D01*
X134590744Y-98006198D01*
X134735787Y-97935850D01*
X134741954Y-97934726D01*
X134747816Y-97936947D01*
G37*
%TD.AperFunction*%
%TD*%
%TA.AperFunction,Conductor*%
%TO.N,GND*%
G36*
X126782346Y-75101607D02*
G01*
X126871713Y-75178653D01*
X126902689Y-75205358D01*
X127009117Y-75262613D01*
X127114155Y-75293038D01*
X127238031Y-75323268D01*
X127239063Y-75323572D01*
X127388911Y-75375536D01*
X127391374Y-75376391D01*
X127396531Y-75379957D01*
X127399106Y-75385673D01*
X127398361Y-75391897D01*
X127252563Y-75746195D01*
X127250016Y-75750016D01*
X127246195Y-75752563D01*
X126891897Y-75898361D01*
X126885673Y-75899106D01*
X126879957Y-75896531D01*
X126876391Y-75891374D01*
X126875536Y-75888911D01*
X126823572Y-75739063D01*
X126823268Y-75738031D01*
X126793038Y-75614155D01*
X126762613Y-75509117D01*
X126705358Y-75402689D01*
X126610858Y-75293077D01*
X126601607Y-75282346D01*
X126598776Y-75274274D01*
X126602194Y-75266434D01*
X126766434Y-75102194D01*
X126774274Y-75098776D01*
X126782346Y-75101607D01*
G37*
%TD.AperFunction*%
%TD*%
%TA.AperFunction,Conductor*%
%TO.N,/POW*%
G36*
X155751080Y-75026036D02*
G01*
X156025707Y-75299293D01*
X156025749Y-75299335D01*
X156298963Y-75573919D01*
X156302048Y-75579448D01*
X156301800Y-75585774D01*
X156298293Y-75591046D01*
X156156260Y-75713061D01*
X156154571Y-75714269D01*
X156031447Y-75786749D01*
X156030484Y-75787257D01*
X155916021Y-75840993D01*
X155916007Y-75841000D01*
X155915782Y-75841106D01*
X155915573Y-75841228D01*
X155915554Y-75841239D01*
X155791733Y-75914130D01*
X155791726Y-75914134D01*
X155791291Y-75914391D01*
X155790903Y-75914724D01*
X155790902Y-75914725D01*
X155647147Y-76038222D01*
X155639081Y-76041039D01*
X155631250Y-76037620D01*
X155287379Y-75693749D01*
X155283960Y-75685919D01*
X155286776Y-75677854D01*
X155410608Y-75533707D01*
X155483892Y-75409217D01*
X155537748Y-75294495D01*
X155538233Y-75293574D01*
X155610736Y-75170415D01*
X155611931Y-75168744D01*
X155733954Y-75026704D01*
X155739225Y-75023199D01*
X155745551Y-75022951D01*
X155751080Y-75026036D01*
G37*
%TD.AperFunction*%
%TD*%
%TA.AperFunction,Conductor*%
%TO.N,SCK*%
G36*
X125934237Y-93608322D02*
G01*
X126287644Y-93755103D01*
X126292753Y-93759215D01*
X126294846Y-93765431D01*
X126293266Y-93771796D01*
X126288417Y-93780122D01*
X126287589Y-93781356D01*
X126275464Y-93797159D01*
X126275172Y-93797863D01*
X126275169Y-93797869D01*
X126268305Y-93814438D01*
X126267606Y-93815849D01*
X126224046Y-93890633D01*
X126222939Y-93892216D01*
X126138556Y-93993891D01*
X126138543Y-93993906D01*
X126138429Y-93994045D01*
X126138327Y-93994184D01*
X126138316Y-93994199D01*
X126074862Y-94081248D01*
X126074860Y-94081251D01*
X126074048Y-94082366D01*
X126073829Y-94083729D01*
X126073828Y-94083733D01*
X126060201Y-94168713D01*
X126060201Y-94168715D01*
X126059862Y-94170832D01*
X126061011Y-94172641D01*
X126061012Y-94172642D01*
X126120283Y-94265925D01*
X126122038Y-94273481D01*
X126118681Y-94280473D01*
X125954330Y-94444824D01*
X125948929Y-94447893D01*
X125942719Y-94447765D01*
X125937449Y-94444475D01*
X125813155Y-94309464D01*
X125812148Y-94308206D01*
X125733432Y-94194662D01*
X125732422Y-94192896D01*
X125681365Y-94082189D01*
X125680983Y-94081256D01*
X125632283Y-93946118D01*
X125632262Y-93946059D01*
X125564975Y-93770852D01*
X125565141Y-93762053D01*
X125571394Y-93755859D01*
X125925252Y-93608328D01*
X125929743Y-93607428D01*
X125934237Y-93608322D01*
G37*
%TD.AperFunction*%
%TD*%
%TA.AperFunction,Conductor*%
%TO.N,Tx*%
G36*
X144324958Y-77565544D02*
G01*
X144329066Y-77572097D01*
X144358292Y-77700955D01*
X144441110Y-77765698D01*
X144442207Y-77766005D01*
X144442209Y-77766006D01*
X144475690Y-77775381D01*
X144558743Y-77798639D01*
X144559018Y-77798721D01*
X144692884Y-77840689D01*
X144693318Y-77840825D01*
X144696401Y-77842316D01*
X144821178Y-77927231D01*
X144825427Y-77932482D01*
X144826066Y-77939206D01*
X144822883Y-77945163D01*
X144553441Y-78215558D01*
X144549626Y-78218110D01*
X144545124Y-78218999D01*
X144161112Y-78218039D01*
X144153063Y-78214802D01*
X144149455Y-78206913D01*
X144142008Y-78055245D01*
X144141992Y-78054916D01*
X144122896Y-77939956D01*
X144100182Y-77841383D01*
X144100048Y-77840705D01*
X144081116Y-77726734D01*
X144080975Y-77725418D01*
X144073603Y-77575260D01*
X144074971Y-77569170D01*
X144079274Y-77564651D01*
X144085289Y-77562986D01*
X144317657Y-77562986D01*
X144324958Y-77565544D01*
G37*
%TD.AperFunction*%
%TD*%
%TA.AperFunction,Conductor*%
%TO.N,VAA*%
G36*
X141293654Y-97302199D02*
G01*
X141298303Y-97306498D01*
X141300031Y-97312589D01*
X141301000Y-97700000D01*
X141301000Y-97700058D01*
X141300031Y-98087410D01*
X141298303Y-98093501D01*
X141293654Y-98097800D01*
X141287447Y-98099048D01*
X141100737Y-98084894D01*
X141098688Y-98084554D01*
X140960371Y-98048743D01*
X140959331Y-98048421D01*
X140840406Y-98005484D01*
X140840397Y-98005481D01*
X140840150Y-98005392D01*
X140839903Y-98005328D01*
X140839890Y-98005324D01*
X140700797Y-97969312D01*
X140700795Y-97969311D01*
X140700302Y-97969184D01*
X140699792Y-97969145D01*
X140699790Y-97969145D01*
X140570858Y-97959371D01*
X140510815Y-97954819D01*
X140503120Y-97951107D01*
X140500000Y-97943153D01*
X140500000Y-97456847D01*
X140503120Y-97448893D01*
X140510815Y-97445180D01*
X140700302Y-97430816D01*
X140840150Y-97394608D01*
X140959343Y-97351574D01*
X140960359Y-97351259D01*
X141098690Y-97315444D01*
X141100735Y-97315105D01*
X141287449Y-97300951D01*
X141293654Y-97302199D01*
G37*
%TD.AperFunction*%
%TD*%
%TA.AperFunction,Conductor*%
%TO.N,Tx*%
G36*
X144205274Y-63701666D02*
G01*
X144938657Y-64072374D01*
X144943344Y-64076684D01*
X144945079Y-64082811D01*
X144943349Y-64088938D01*
X144778010Y-64358194D01*
X144777247Y-64359291D01*
X144609810Y-64572846D01*
X144609795Y-64572865D01*
X144609712Y-64572972D01*
X144609645Y-64573066D01*
X144609624Y-64573096D01*
X144466028Y-64778474D01*
X144466023Y-64778482D01*
X144465635Y-64779038D01*
X144465386Y-64779671D01*
X144465383Y-64779677D01*
X144365195Y-65034536D01*
X144365193Y-65034542D01*
X144364905Y-65035276D01*
X144364823Y-65036063D01*
X144364822Y-65036068D01*
X144328090Y-65389509D01*
X144324287Y-65396990D01*
X144316453Y-65400000D01*
X144083547Y-65400000D01*
X144075713Y-65396990D01*
X144071910Y-65389509D01*
X144035176Y-65036068D01*
X144035094Y-65035276D01*
X143934364Y-64779038D01*
X143790286Y-64572972D01*
X143622751Y-64359291D01*
X143621988Y-64358194D01*
X143456650Y-64088938D01*
X143454920Y-64082811D01*
X143456655Y-64076684D01*
X143461339Y-64072375D01*
X144194725Y-63701666D01*
X144200000Y-63700409D01*
X144205274Y-63701666D01*
G37*
%TD.AperFunction*%
%TD*%
%TA.AperFunction,Conductor*%
%TO.N,VAA*%
G36*
X112693654Y-98502199D02*
G01*
X112698303Y-98506498D01*
X112700031Y-98512589D01*
X112701000Y-98900000D01*
X112701000Y-98900058D01*
X112700031Y-99287410D01*
X112698303Y-99293501D01*
X112693654Y-99297800D01*
X112687447Y-99299048D01*
X112500737Y-99284894D01*
X112498688Y-99284554D01*
X112360371Y-99248743D01*
X112359331Y-99248421D01*
X112240406Y-99205484D01*
X112240397Y-99205481D01*
X112240150Y-99205392D01*
X112239903Y-99205328D01*
X112239890Y-99205324D01*
X112100797Y-99169312D01*
X112100795Y-99169311D01*
X112100302Y-99169184D01*
X112099792Y-99169145D01*
X112099790Y-99169145D01*
X111970858Y-99159371D01*
X111910815Y-99154819D01*
X111903120Y-99151107D01*
X111900000Y-99143153D01*
X111900000Y-98656847D01*
X111903120Y-98648893D01*
X111910815Y-98645180D01*
X112100302Y-98630816D01*
X112240150Y-98594608D01*
X112359343Y-98551574D01*
X112360359Y-98551259D01*
X112498690Y-98515444D01*
X112500735Y-98515105D01*
X112687449Y-98500951D01*
X112693654Y-98502199D01*
G37*
%TD.AperFunction*%
%TD*%
%TA.AperFunction,Conductor*%
%TO.N,Net-(R16-Pad1)*%
G36*
X116343537Y-94653479D02*
G01*
X116347100Y-94658642D01*
X116399797Y-94811153D01*
X116400115Y-94812241D01*
X116429949Y-94936410D01*
X116429982Y-94936526D01*
X116429989Y-94936553D01*
X116459729Y-95041181D01*
X116459731Y-95041186D01*
X116459901Y-95041784D01*
X116516791Y-95148512D01*
X116620496Y-95269069D01*
X116623318Y-95277137D01*
X116619899Y-95284971D01*
X116458471Y-95446399D01*
X116450637Y-95449818D01*
X116442569Y-95446996D01*
X116322012Y-95343291D01*
X116321447Y-95342990D01*
X116321446Y-95342989D01*
X116215834Y-95286694D01*
X116215832Y-95286693D01*
X116215284Y-95286401D01*
X116214686Y-95286231D01*
X116214681Y-95286229D01*
X116110053Y-95256489D01*
X116110026Y-95256482D01*
X116109910Y-95256449D01*
X116083184Y-95250027D01*
X115985741Y-95226615D01*
X115984653Y-95226297D01*
X115832142Y-95173600D01*
X115826979Y-95170037D01*
X115824399Y-95164319D01*
X115825142Y-95158092D01*
X115970937Y-94803801D01*
X115973483Y-94799983D01*
X115977301Y-94797437D01*
X116331592Y-94651642D01*
X116337819Y-94650899D01*
X116343537Y-94653479D01*
G37*
%TD.AperFunction*%
%TD*%
%TA.AperFunction,Conductor*%
%TO.N,Net-(R16-Pad1)*%
G36*
X116710471Y-98603600D02*
G01*
X116871899Y-98765028D01*
X116875318Y-98772862D01*
X116872496Y-98780931D01*
X116769209Y-98900999D01*
X116769205Y-98901004D01*
X116768791Y-98901486D01*
X116768492Y-98902045D01*
X116768489Y-98902051D01*
X116712194Y-99007663D01*
X116712191Y-99007668D01*
X116711901Y-99008214D01*
X116711731Y-99008808D01*
X116711729Y-99008816D01*
X116681989Y-99113444D01*
X116681979Y-99113481D01*
X116681949Y-99113588D01*
X116681915Y-99113726D01*
X116681913Y-99113737D01*
X116652115Y-99237756D01*
X116651797Y-99238844D01*
X116599100Y-99391357D01*
X116595537Y-99396520D01*
X116589819Y-99399100D01*
X116583590Y-99398356D01*
X116229304Y-99252563D01*
X116225483Y-99250016D01*
X116222936Y-99246195D01*
X116219690Y-99238307D01*
X116077142Y-98891907D01*
X116076399Y-98885680D01*
X116078979Y-98879962D01*
X116084139Y-98876400D01*
X116236669Y-98823695D01*
X116237724Y-98823386D01*
X116361910Y-98793549D01*
X116467284Y-98763598D01*
X116574012Y-98706707D01*
X116694571Y-98603001D01*
X116702637Y-98600181D01*
X116710471Y-98603600D01*
G37*
%TD.AperFunction*%
%TD*%
%TA.AperFunction,Conductor*%
%TO.N,MOSI*%
G36*
X136707346Y-98151607D02*
G01*
X136796713Y-98228653D01*
X136827689Y-98255358D01*
X136934117Y-98312613D01*
X137039155Y-98343038D01*
X137163031Y-98373268D01*
X137164063Y-98373572D01*
X137313911Y-98425536D01*
X137316374Y-98426391D01*
X137321531Y-98429957D01*
X137324106Y-98435673D01*
X137323361Y-98441897D01*
X137177563Y-98796195D01*
X137175016Y-98800016D01*
X137171195Y-98802563D01*
X136816897Y-98948361D01*
X136810673Y-98949106D01*
X136804957Y-98946531D01*
X136801391Y-98941374D01*
X136800536Y-98938911D01*
X136748572Y-98789063D01*
X136748268Y-98788031D01*
X136718038Y-98664155D01*
X136687613Y-98559117D01*
X136630358Y-98452689D01*
X136535858Y-98343077D01*
X136526607Y-98332346D01*
X136523776Y-98324274D01*
X136527194Y-98316434D01*
X136691434Y-98152194D01*
X136699274Y-98148776D01*
X136707346Y-98151607D01*
G37*
%TD.AperFunction*%
%TD*%
%TA.AperFunction,Conductor*%
%TO.N,GND*%
G36*
X126782346Y-75101607D02*
G01*
X126871713Y-75178653D01*
X126902689Y-75205358D01*
X127009117Y-75262613D01*
X127114155Y-75293038D01*
X127238031Y-75323268D01*
X127239063Y-75323572D01*
X127388911Y-75375536D01*
X127391374Y-75376391D01*
X127396531Y-75379957D01*
X127399106Y-75385673D01*
X127398361Y-75391897D01*
X127252563Y-75746195D01*
X127250016Y-75750016D01*
X127246195Y-75752563D01*
X126891897Y-75898361D01*
X126885673Y-75899106D01*
X126879957Y-75896531D01*
X126876391Y-75891374D01*
X126875536Y-75888911D01*
X126823572Y-75739063D01*
X126823268Y-75738031D01*
X126793038Y-75614155D01*
X126762613Y-75509117D01*
X126705358Y-75402689D01*
X126610858Y-75293077D01*
X126601607Y-75282346D01*
X126598776Y-75274274D01*
X126602194Y-75266434D01*
X126766434Y-75102194D01*
X126774274Y-75098776D01*
X126782346Y-75101607D01*
G37*
%TD.AperFunction*%
%TD*%
%TA.AperFunction,Conductor*%
%TO.N,SCL*%
G36*
X116801293Y-84802345D02*
G01*
X116906289Y-84850186D01*
X116906660Y-84850364D01*
X116989311Y-84892179D01*
X117062575Y-84922633D01*
X117150046Y-84941215D01*
X117240283Y-84945737D01*
X117264386Y-84946946D01*
X117272278Y-84950568D01*
X117275500Y-84958631D01*
X117275500Y-85190375D01*
X117272278Y-85198438D01*
X117264386Y-85202059D01*
X117259838Y-85202287D01*
X117150509Y-85207766D01*
X117150499Y-85207767D01*
X117150046Y-85207790D01*
X117149604Y-85207883D01*
X117149595Y-85207885D01*
X117063103Y-85226259D01*
X117063094Y-85226261D01*
X117062575Y-85226372D01*
X117062083Y-85226576D01*
X117062075Y-85226579D01*
X116989514Y-85256741D01*
X116989500Y-85256747D01*
X116989311Y-85256826D01*
X116989126Y-85256919D01*
X116989112Y-85256926D01*
X116906690Y-85298624D01*
X116906259Y-85298831D01*
X116801295Y-85346658D01*
X116795199Y-85347645D01*
X116789449Y-85345390D01*
X116785648Y-85340522D01*
X116768142Y-85298624D01*
X116676383Y-85079011D01*
X116675480Y-85074502D01*
X116676382Y-85069996D01*
X116785650Y-84808478D01*
X116789449Y-84803614D01*
X116795199Y-84801359D01*
X116801293Y-84802345D01*
G37*
%TD.AperFunction*%
%TD*%
%TA.AperFunction,Conductor*%
%TO.N,Rx*%
G36*
X141932346Y-77535954D02*
G01*
X142021713Y-77613000D01*
X142052689Y-77639705D01*
X142159117Y-77696960D01*
X142264155Y-77727385D01*
X142388031Y-77757615D01*
X142389063Y-77757919D01*
X142538911Y-77809883D01*
X142541374Y-77810738D01*
X142546531Y-77814304D01*
X142549106Y-77820020D01*
X142548361Y-77826244D01*
X142402563Y-78180542D01*
X142400016Y-78184363D01*
X142396195Y-78186910D01*
X142041897Y-78332708D01*
X142035673Y-78333453D01*
X142029957Y-78330878D01*
X142026391Y-78325721D01*
X142025536Y-78323258D01*
X141973572Y-78173410D01*
X141973268Y-78172378D01*
X141943038Y-78048502D01*
X141912613Y-77943464D01*
X141855358Y-77837036D01*
X141760858Y-77727424D01*
X141751607Y-77716693D01*
X141748776Y-77708621D01*
X141752194Y-77700781D01*
X141916434Y-77536541D01*
X141924274Y-77533123D01*
X141932346Y-77535954D01*
G37*
%TD.AperFunction*%
%TD*%
%TA.AperFunction,Conductor*%
%TO.N,+5VA*%
G36*
X107993654Y-91902199D02*
G01*
X107998303Y-91906498D01*
X108000031Y-91912589D01*
X108001000Y-92300000D01*
X108001000Y-92300058D01*
X108000031Y-92687410D01*
X107998303Y-92693501D01*
X107993654Y-92697800D01*
X107987447Y-92699048D01*
X107800737Y-92684894D01*
X107798688Y-92684554D01*
X107660371Y-92648743D01*
X107659331Y-92648421D01*
X107540406Y-92605484D01*
X107540397Y-92605481D01*
X107540150Y-92605392D01*
X107539903Y-92605328D01*
X107539890Y-92605324D01*
X107400797Y-92569312D01*
X107400795Y-92569311D01*
X107400302Y-92569184D01*
X107399792Y-92569145D01*
X107399790Y-92569145D01*
X107270858Y-92559371D01*
X107210815Y-92554819D01*
X107203120Y-92551107D01*
X107200000Y-92543153D01*
X107200000Y-92056847D01*
X107203120Y-92048893D01*
X107210815Y-92045180D01*
X107400302Y-92030816D01*
X107540150Y-91994608D01*
X107659343Y-91951574D01*
X107660359Y-91951259D01*
X107798690Y-91915444D01*
X107800735Y-91915105D01*
X107987449Y-91900951D01*
X107993654Y-91902199D01*
G37*
%TD.AperFunction*%
%TD*%
%TA.AperFunction,Conductor*%
%TO.N,+5VA*%
G36*
X107865242Y-91344531D02*
G01*
X108208330Y-91687619D01*
X108211686Y-91694609D01*
X108209935Y-91702163D01*
X108161339Y-91778708D01*
X108157308Y-91785057D01*
X108169955Y-91863013D01*
X108226888Y-91940833D01*
X108226985Y-91940950D01*
X108226990Y-91940956D01*
X108301472Y-92030488D01*
X108302584Y-92032078D01*
X108362809Y-92135363D01*
X108364392Y-92141729D01*
X108362300Y-92147947D01*
X108357190Y-92152061D01*
X108003789Y-92298839D01*
X107999293Y-92299734D01*
X107994799Y-92298833D01*
X107639971Y-92150897D01*
X107633953Y-92145219D01*
X107633196Y-92136983D01*
X107687189Y-91941629D01*
X107693607Y-91778794D01*
X107694178Y-91638988D01*
X107694605Y-91635908D01*
X107732808Y-91498644D01*
X107734750Y-91494726D01*
X107847645Y-91345736D01*
X107852923Y-91341826D01*
X107859478Y-91341376D01*
X107865242Y-91344531D01*
G37*
%TD.AperFunction*%
%TD*%
%TA.AperFunction,Conductor*%
%TO.N,+3.3VA*%
G36*
X143093639Y-97005184D02*
G01*
X143204585Y-97109327D01*
X143298169Y-97178906D01*
X143388918Y-97225837D01*
X143499622Y-97269794D01*
X143642040Y-97326087D01*
X143646937Y-97329737D01*
X143649327Y-97335359D01*
X143648558Y-97341419D01*
X143501603Y-97698527D01*
X143499035Y-97702369D01*
X143225858Y-97974185D01*
X143220425Y-97977246D01*
X143214190Y-97977081D01*
X143208926Y-97973736D01*
X143085538Y-97837212D01*
X143084668Y-97836127D01*
X143004025Y-97722202D01*
X143003615Y-97721581D01*
X142939601Y-97617725D01*
X142939596Y-97617718D01*
X142939507Y-97617573D01*
X142890451Y-97548271D01*
X142889196Y-97545998D01*
X142885036Y-97535953D01*
X142788782Y-97410512D01*
X142744189Y-97376295D01*
X142742645Y-97374871D01*
X142733623Y-97364888D01*
X142730609Y-97356749D01*
X142734031Y-97348773D01*
X143077362Y-97005442D01*
X143085449Y-97002017D01*
X143093639Y-97005184D01*
G37*
%TD.AperFunction*%
%TD*%
%TA.AperFunction,Conductor*%
%TO.N,Net-(C40-Pad1)*%
G36*
X111954497Y-90050875D02*
G01*
X112308111Y-90198303D01*
X112313043Y-90202181D01*
X112315262Y-90208049D01*
X112314130Y-90214220D01*
X112243549Y-90359326D01*
X112243005Y-90360319D01*
X112176357Y-90469123D01*
X112176301Y-90469215D01*
X112176262Y-90469284D01*
X112176252Y-90469302D01*
X112123273Y-90564360D01*
X112123273Y-90564361D01*
X112122970Y-90564905D01*
X112122791Y-90565492D01*
X112122787Y-90565502D01*
X112087916Y-90679984D01*
X112087914Y-90679992D01*
X112087729Y-90680601D01*
X112087681Y-90681234D01*
X112087680Y-90681242D01*
X112075813Y-90839177D01*
X112072103Y-90846878D01*
X112064146Y-90850000D01*
X111835854Y-90850000D01*
X111827897Y-90846878D01*
X111824187Y-90839177D01*
X111812318Y-90681242D01*
X111812270Y-90680601D01*
X111777029Y-90564905D01*
X111723697Y-90469215D01*
X111656992Y-90360319D01*
X111656448Y-90359326D01*
X111651554Y-90349264D01*
X111585868Y-90214217D01*
X111584737Y-90208049D01*
X111586957Y-90202181D01*
X111591886Y-90198303D01*
X111945502Y-90050875D01*
X111950000Y-90049975D01*
X111954497Y-90050875D01*
G37*
%TD.AperFunction*%
%TD*%
%TA.AperFunction,Conductor*%
%TO.N,VAA*%
G36*
X104285774Y-97223199D02*
G01*
X104291046Y-97226706D01*
X104413061Y-97368738D01*
X104414269Y-97370427D01*
X104486749Y-97493550D01*
X104487257Y-97494513D01*
X104540993Y-97608977D01*
X104541106Y-97609217D01*
X104541233Y-97609433D01*
X104541239Y-97609444D01*
X104614130Y-97733264D01*
X104614391Y-97733707D01*
X104738222Y-97877852D01*
X104741039Y-97885919D01*
X104737620Y-97893749D01*
X104393749Y-98237620D01*
X104385919Y-98241039D01*
X104377852Y-98238222D01*
X104233707Y-98114391D01*
X104233264Y-98114130D01*
X104109444Y-98041239D01*
X104109433Y-98041233D01*
X104109217Y-98041106D01*
X104108982Y-98040996D01*
X104108977Y-98040993D01*
X103994513Y-97987257D01*
X103993550Y-97986749D01*
X103870427Y-97914269D01*
X103868738Y-97913061D01*
X103726706Y-97791046D01*
X103723199Y-97785774D01*
X103722951Y-97779448D01*
X103726036Y-97773919D01*
X103765662Y-97734095D01*
X103999293Y-97499293D01*
X104273920Y-97226035D01*
X104279448Y-97222951D01*
X104285774Y-97223199D01*
G37*
%TD.AperFunction*%
%TD*%
%TA.AperFunction,Conductor*%
%TO.N,Rx*%
G36*
X141665274Y-63701666D02*
G01*
X142398657Y-64072374D01*
X142403344Y-64076684D01*
X142405079Y-64082811D01*
X142403349Y-64088938D01*
X142238010Y-64358194D01*
X142237247Y-64359291D01*
X142069810Y-64572846D01*
X142069795Y-64572865D01*
X142069712Y-64572972D01*
X142069645Y-64573066D01*
X142069624Y-64573096D01*
X141926028Y-64778474D01*
X141926023Y-64778482D01*
X141925635Y-64779038D01*
X141925386Y-64779671D01*
X141925383Y-64779677D01*
X141825195Y-65034536D01*
X141825193Y-65034542D01*
X141824905Y-65035276D01*
X141824823Y-65036063D01*
X141824822Y-65036068D01*
X141788090Y-65389509D01*
X141784287Y-65396990D01*
X141776453Y-65400000D01*
X141543547Y-65400000D01*
X141535713Y-65396990D01*
X141531910Y-65389509D01*
X141495176Y-65036068D01*
X141495094Y-65035276D01*
X141394364Y-64779038D01*
X141250286Y-64572972D01*
X141082751Y-64359291D01*
X141081988Y-64358194D01*
X140916650Y-64088938D01*
X140914920Y-64082811D01*
X140916655Y-64076684D01*
X140921339Y-64072375D01*
X141654725Y-63701666D01*
X141660000Y-63700409D01*
X141665274Y-63701666D01*
G37*
%TD.AperFunction*%
%TD*%
M02*
