%TF.GenerationSoftware,KiCad,Pcbnew,(7.0.0)*%
%TF.CreationDate,2023-05-08T13:38:34+02:00*%
%TF.ProjectId,Apollo - DSP,41706f6c-6c6f-4202-9d20-4453502e6b69,rev?*%
%TF.SameCoordinates,Original*%
%TF.FileFunction,Soldermask,Top*%
%TF.FilePolarity,Negative*%
%FSLAX46Y46*%
G04 Gerber Fmt 4.6, Leading zero omitted, Abs format (unit mm)*
G04 Created by KiCad (PCBNEW (7.0.0)) date 2023-05-08 13:38:34*
%MOMM*%
%LPD*%
G01*
G04 APERTURE LIST*
G04 Aperture macros list*
%AMRoundRect*
0 Rectangle with rounded corners*
0 $1 Rounding radius*
0 $2 $3 $4 $5 $6 $7 $8 $9 X,Y pos of 4 corners*
0 Add a 4 corners polygon primitive as box body*
4,1,4,$2,$3,$4,$5,$6,$7,$8,$9,$2,$3,0*
0 Add four circle primitives for the rounded corners*
1,1,$1+$1,$2,$3*
1,1,$1+$1,$4,$5*
1,1,$1+$1,$6,$7*
1,1,$1+$1,$8,$9*
0 Add four rect primitives between the rounded corners*
20,1,$1+$1,$2,$3,$4,$5,0*
20,1,$1+$1,$4,$5,$6,$7,0*
20,1,$1+$1,$6,$7,$8,$9,0*
20,1,$1+$1,$8,$9,$2,$3,0*%
%AMRotRect*
0 Rectangle, with rotation*
0 The origin of the aperture is its center*
0 $1 length*
0 $2 width*
0 $3 Rotation angle, in degrees counterclockwise*
0 Add horizontal line*
21,1,$1,$2,0,0,$3*%
G04 Aperture macros list end*
%ADD10C,5.075000*%
%ADD11RoundRect,0.237500X0.237500X-0.300000X0.237500X0.300000X-0.237500X0.300000X-0.237500X-0.300000X0*%
%ADD12RoundRect,0.150000X0.512500X0.150000X-0.512500X0.150000X-0.512500X-0.150000X0.512500X-0.150000X0*%
%ADD13RoundRect,0.150000X-0.150000X0.512500X-0.150000X-0.512500X0.150000X-0.512500X0.150000X0.512500X0*%
%ADD14RoundRect,0.237500X0.380070X-0.044194X-0.044194X0.380070X-0.380070X0.044194X0.044194X-0.380070X0*%
%ADD15RoundRect,0.237500X-0.237500X0.250000X-0.237500X-0.250000X0.237500X-0.250000X0.237500X0.250000X0*%
%ADD16RoundRect,0.237500X0.300000X0.237500X-0.300000X0.237500X-0.300000X-0.237500X0.300000X-0.237500X0*%
%ADD17RoundRect,0.237500X-0.250000X-0.237500X0.250000X-0.237500X0.250000X0.237500X-0.250000X0.237500X0*%
%ADD18R,0.800000X1.200000*%
%ADD19R,1.500000X2.000000*%
%ADD20RoundRect,0.237500X0.250000X0.237500X-0.250000X0.237500X-0.250000X-0.237500X0.250000X-0.237500X0*%
%ADD21RoundRect,0.075000X-0.700000X-0.075000X0.700000X-0.075000X0.700000X0.075000X-0.700000X0.075000X0*%
%ADD22RoundRect,0.075000X-0.075000X-0.700000X0.075000X-0.700000X0.075000X0.700000X-0.075000X0.700000X0*%
%ADD23R,1.700000X1.000000*%
%ADD24RoundRect,0.237500X0.044194X0.380070X-0.380070X-0.044194X-0.044194X-0.380070X0.380070X0.044194X0*%
%ADD25RoundRect,0.237500X-0.237500X0.300000X-0.237500X-0.300000X0.237500X-0.300000X0.237500X0.300000X0*%
%ADD26R,1.160000X0.600000*%
%ADD27R,1.160000X0.300000*%
%ADD28O,2.000000X0.900000*%
%ADD29O,1.700000X0.900000*%
%ADD30R,1.700000X1.700000*%
%ADD31O,1.700000X1.700000*%
%ADD32RoundRect,0.237500X0.237500X-0.250000X0.237500X0.250000X-0.237500X0.250000X-0.237500X-0.250000X0*%
%ADD33RoundRect,0.041300X0.563700X0.253700X-0.563700X0.253700X-0.563700X-0.253700X0.563700X-0.253700X0*%
%ADD34RotRect,1.150000X1.000000X225.000000*%
%ADD35RoundRect,0.150000X-0.825000X-0.150000X0.825000X-0.150000X0.825000X0.150000X-0.825000X0.150000X0*%
%ADD36RoundRect,0.237500X-0.300000X-0.237500X0.300000X-0.237500X0.300000X0.237500X-0.300000X0.237500X0*%
%ADD37RoundRect,0.237500X0.287500X0.237500X-0.287500X0.237500X-0.287500X-0.237500X0.287500X-0.237500X0*%
%ADD38RoundRect,0.237500X0.237500X-0.287500X0.237500X0.287500X-0.237500X0.287500X-0.237500X-0.287500X0*%
G04 APERTURE END LIST*
D10*
X90387500Y-108700000D02*
G75*
G03*
X90387500Y-108700000I-2537500J0D01*
G01*
X155287500Y-108600000D02*
G75*
G03*
X155287500Y-108600000I-2537500J0D01*
G01*
X155287500Y-60700000D02*
G75*
G03*
X155287500Y-60700000I-2537500J0D01*
G01*
X90387500Y-60700000D02*
G75*
G03*
X90387500Y-60700000I-2537500J0D01*
G01*
D11*
%TO.C,C2*%
X134500000Y-82050000D03*
X134500000Y-80325000D03*
%TD*%
D12*
%TO.C,U1*%
X132525000Y-82150000D03*
X132525000Y-81200000D03*
X132525000Y-80250000D03*
X130125000Y-80250000D03*
X130125000Y-82150000D03*
%TD*%
D11*
%TO.C,C9*%
X138431250Y-87662500D03*
X138431250Y-85937500D03*
%TD*%
%TO.C,C1*%
X140000000Y-82062500D03*
X140000000Y-80337500D03*
%TD*%
%TO.C,C26*%
X103470000Y-100067500D03*
X103470000Y-98342500D03*
%TD*%
D13*
%TO.C,U3*%
X145700000Y-95243750D03*
X144750000Y-95243750D03*
X143800000Y-95243750D03*
X143800000Y-97643750D03*
X145700000Y-97643750D03*
%TD*%
D14*
%TO.C,C21*%
X103533624Y-78946187D03*
X102313864Y-77726427D03*
%TD*%
D11*
%TO.C,C22*%
X138700000Y-103662500D03*
X138700000Y-101937500D03*
%TD*%
D15*
%TO.C,F1*%
X141750000Y-80287500D03*
X141750000Y-82112500D03*
%TD*%
D16*
%TO.C,C28*%
X97832500Y-101817500D03*
X96107500Y-101817500D03*
%TD*%
D11*
%TO.C,C23*%
X109500000Y-94350000D03*
X109500000Y-92625000D03*
%TD*%
D17*
%TO.C,R11*%
X96057500Y-103517500D03*
X97882500Y-103517500D03*
%TD*%
D18*
%TO.C,J3*%
X132074999Y-103624999D03*
X130974999Y-103624999D03*
X129874999Y-103624999D03*
X128774999Y-103624999D03*
X127674999Y-103624999D03*
X126574999Y-103624999D03*
X125474999Y-103624999D03*
X124374999Y-103624999D03*
D19*
X121904999Y-105824999D03*
X121904999Y-97624999D03*
X135794999Y-97624999D03*
X135794999Y-105824999D03*
%TD*%
D20*
%TO.C,FB1*%
X138162500Y-82200000D03*
X136337500Y-82200000D03*
%TD*%
D17*
%TO.C,D3*%
X101657500Y-85017500D03*
X103482500Y-85017500D03*
%TD*%
D15*
%TO.C,R1*%
X124700000Y-80287500D03*
X124700000Y-82112500D03*
%TD*%
D16*
%TO.C,C3*%
X132500000Y-83700000D03*
X130775000Y-83700000D03*
%TD*%
D21*
%TO.C,U4*%
X109625000Y-74200000D03*
X109625000Y-74700000D03*
X109625000Y-75200000D03*
X109625000Y-75700000D03*
X109625000Y-76200000D03*
X109625000Y-76700000D03*
X109625000Y-77200000D03*
X109625000Y-77700000D03*
X109625000Y-78200000D03*
X109625000Y-78700000D03*
X109625000Y-79200000D03*
X109625000Y-79700000D03*
X109625000Y-80200000D03*
X109625000Y-80700000D03*
X109625000Y-81200000D03*
X109625000Y-81700000D03*
D22*
X111550000Y-83625000D03*
X112050000Y-83625000D03*
X112550000Y-83625000D03*
X113050000Y-83625000D03*
X113550000Y-83625000D03*
X114050000Y-83625000D03*
X114550000Y-83625000D03*
X115050000Y-83625000D03*
X115550000Y-83625000D03*
X116050000Y-83625000D03*
X116550000Y-83625000D03*
X117050000Y-83625000D03*
X117550000Y-83625000D03*
X118050000Y-83625000D03*
X118550000Y-83625000D03*
X119050000Y-83625000D03*
D21*
X120975000Y-81700000D03*
X120975000Y-81200000D03*
X120975000Y-80700000D03*
X120975000Y-80200000D03*
X120975000Y-79700000D03*
X120975000Y-79200000D03*
X120975000Y-78700000D03*
X120975000Y-78200000D03*
X120975000Y-77700000D03*
X120975000Y-77200000D03*
X120975000Y-76700000D03*
X120975000Y-76200000D03*
X120975000Y-75700000D03*
X120975000Y-75200000D03*
X120975000Y-74700000D03*
X120975000Y-74200000D03*
D22*
X119050000Y-72275000D03*
X118550000Y-72275000D03*
X118050000Y-72275000D03*
X117550000Y-72275000D03*
X117050000Y-72275000D03*
X116550000Y-72275000D03*
X116050000Y-72275000D03*
X115550000Y-72275000D03*
X115050000Y-72275000D03*
X114550000Y-72275000D03*
X114050000Y-72275000D03*
X113550000Y-72275000D03*
X113050000Y-72275000D03*
X112550000Y-72275000D03*
X112050000Y-72275000D03*
X111550000Y-72275000D03*
%TD*%
D20*
%TO.C,R8*%
X98000000Y-80450000D03*
X96175000Y-80450000D03*
%TD*%
D23*
%TO.C,BOOT1*%
X95899999Y-65299999D03*
X102199999Y-65299999D03*
X95899999Y-69099999D03*
X102199999Y-69099999D03*
%TD*%
D16*
%TO.C,C12*%
X145675000Y-99581250D03*
X143950000Y-99581250D03*
%TD*%
%TO.C,C33*%
X105232500Y-101805000D03*
X103507500Y-101805000D03*
%TD*%
D11*
%TO.C,C7*%
X111100000Y-94350000D03*
X111100000Y-92625000D03*
%TD*%
D24*
%TO.C,C20*%
X103633624Y-73726427D03*
X102413864Y-74946187D03*
%TD*%
D25*
%TO.C,C14*%
X121500000Y-84287500D03*
X121500000Y-86012500D03*
%TD*%
D26*
%TO.C,J1*%
X145864999Y-79899999D03*
X145864999Y-79099999D03*
D27*
X145864999Y-77949999D03*
X145864999Y-76949999D03*
X145864999Y-76449999D03*
X145864999Y-75449999D03*
D26*
X145864999Y-74299999D03*
X145864999Y-73499999D03*
X145864999Y-73499999D03*
X145864999Y-74299999D03*
D27*
X145864999Y-74949999D03*
X145864999Y-75949999D03*
X145864999Y-77449999D03*
X145864999Y-78449999D03*
D26*
X145864999Y-79099999D03*
X145864999Y-79899999D03*
D28*
X146444999Y-81019999D03*
D29*
X150614999Y-81019999D03*
D28*
X146444999Y-72379999D03*
D29*
X150614999Y-72379999D03*
%TD*%
D23*
%TO.C,RESET1*%
X92349999Y-73799999D03*
X98649999Y-73799999D03*
X92349999Y-77599999D03*
X98649999Y-77599999D03*
%TD*%
D11*
%TO.C,C17*%
X109550000Y-68950000D03*
X109550000Y-67225000D03*
%TD*%
%TO.C,C19*%
X111250000Y-68950000D03*
X111250000Y-67225000D03*
%TD*%
D16*
%TO.C,C10*%
X145675000Y-93118750D03*
X143950000Y-93118750D03*
%TD*%
D30*
%TO.C,J5*%
X127169999Y-62699999D03*
D31*
X129709999Y-62699999D03*
X132249999Y-62699999D03*
X134789999Y-62699999D03*
%TD*%
D32*
%TO.C,R5*%
X112700000Y-94400000D03*
X112700000Y-92575000D03*
%TD*%
D15*
%TO.C,R7*%
X115100000Y-86387500D03*
X115100000Y-88212500D03*
%TD*%
D16*
%TO.C,C11*%
X145675000Y-91418750D03*
X143950000Y-91418750D03*
%TD*%
D11*
%TO.C,C27*%
X96070000Y-100080000D03*
X96070000Y-98355000D03*
%TD*%
D30*
%TO.C,J6*%
X111099999Y-106749999D03*
D31*
X113639999Y-106749999D03*
X116179999Y-106749999D03*
X118719999Y-106749999D03*
%TD*%
D11*
%TO.C,C30*%
X140450000Y-103662500D03*
X140450000Y-101937500D03*
%TD*%
D15*
%TO.C,R13*%
X126250000Y-73287500D03*
X126250000Y-75112500D03*
%TD*%
D17*
%TO.C,D6*%
X97922500Y-85017500D03*
X99747500Y-85017500D03*
%TD*%
D16*
%TO.C,C13*%
X145675000Y-101281250D03*
X143950000Y-101281250D03*
%TD*%
D11*
%TO.C,C29*%
X97122500Y-88480000D03*
X97122500Y-86755000D03*
%TD*%
D25*
%TO.C,C38*%
X104350000Y-65237500D03*
X104350000Y-66962500D03*
%TD*%
D16*
%TO.C,C4*%
X132500000Y-85400000D03*
X130775000Y-85400000D03*
%TD*%
D33*
%TO.C,U2*%
X137005000Y-76900000D03*
X137005000Y-75950000D03*
X137005000Y-75000000D03*
X134495000Y-75000000D03*
X134495000Y-75950000D03*
X134495000Y-76900000D03*
%TD*%
D15*
%TO.C,R10*%
X97870000Y-98305000D03*
X97870000Y-100130000D03*
%TD*%
D17*
%TO.C,R12*%
X103457500Y-103505000D03*
X105282500Y-103505000D03*
%TD*%
D34*
%TO.C,Y1*%
X105047487Y-75122613D03*
X103810050Y-76360050D03*
X104799999Y-77349999D03*
X106037436Y-76112562D03*
%TD*%
D16*
%TO.C,C15*%
X112100000Y-86750000D03*
X110375000Y-86750000D03*
%TD*%
D20*
%TO.C,R3*%
X147862500Y-70000000D03*
X146037500Y-70000000D03*
%TD*%
%TO.C,R2*%
X147387500Y-83000000D03*
X145562500Y-83000000D03*
%TD*%
D35*
%TO.C,U5*%
X97625000Y-91845000D03*
X97625000Y-93115000D03*
X97625000Y-94385000D03*
X97625000Y-95655000D03*
X102575000Y-95655000D03*
X102575000Y-94385000D03*
X102575000Y-93115000D03*
X102575000Y-91845000D03*
%TD*%
D11*
%TO.C,C32*%
X104370000Y-88480000D03*
X104370000Y-86755000D03*
%TD*%
D15*
%TO.C,FB2*%
X140131250Y-85875000D03*
X140131250Y-87700000D03*
%TD*%
D17*
%TO.C,D4*%
X94422500Y-85017500D03*
X96247500Y-85017500D03*
%TD*%
D15*
%TO.C,R4*%
X111100000Y-96075000D03*
X111100000Y-97900000D03*
%TD*%
D36*
%TO.C,C36*%
X119737500Y-87750000D03*
X121462500Y-87750000D03*
%TD*%
D15*
%TO.C,R9*%
X105270000Y-98305000D03*
X105270000Y-100130000D03*
%TD*%
D11*
%TO.C,C5*%
X128100000Y-82062500D03*
X128100000Y-80337500D03*
%TD*%
%TO.C,C18*%
X112950000Y-68950000D03*
X112950000Y-67225000D03*
%TD*%
D37*
%TO.C,D1*%
X126450000Y-78487500D03*
X124700000Y-78487500D03*
%TD*%
D16*
%TO.C,C8*%
X140106250Y-84187500D03*
X138381250Y-84187500D03*
%TD*%
D17*
%TO.C,D5*%
X105157500Y-85017500D03*
X106982500Y-85017500D03*
%TD*%
D15*
%TO.C,R13*%
X106100000Y-65187500D03*
X106100000Y-67012500D03*
%TD*%
D38*
%TO.C,D2*%
X115100000Y-91575000D03*
X115100000Y-89825000D03*
%TD*%
D30*
%TO.C,J2*%
X115849999Y-62699999D03*
D31*
X118389999Y-62699999D03*
X120929999Y-62699999D03*
X123469999Y-62699999D03*
%TD*%
D16*
%TO.C,C37*%
X94337500Y-80450000D03*
X92612500Y-80450000D03*
%TD*%
D36*
%TO.C,C16*%
X121837500Y-71350000D03*
X123562500Y-71350000D03*
%TD*%
D11*
%TO.C,C6*%
X126400000Y-82062500D03*
X126400000Y-80337500D03*
%TD*%
D36*
%TO.C,C24*%
X100937500Y-90100000D03*
X102662500Y-90100000D03*
%TD*%
G36*
X90587000Y-64616881D02*
G01*
X90633119Y-64663000D01*
X90650000Y-64726000D01*
X90650000Y-104674000D01*
X90633119Y-104737000D01*
X90587000Y-104783119D01*
X90524000Y-104800000D01*
X88076000Y-104800000D01*
X88013000Y-104783119D01*
X87966881Y-104737000D01*
X87950000Y-104674000D01*
X87950000Y-64726000D01*
X87966881Y-64663000D01*
X88013000Y-64616881D01*
X88076000Y-64600000D01*
X90524000Y-64600000D01*
X90587000Y-64616881D01*
G37*
G36*
X152637000Y-82416881D02*
G01*
X152683119Y-82463000D01*
X152700000Y-82526000D01*
X152700000Y-105883410D01*
X152703506Y-105896493D01*
X152716590Y-105900000D01*
X152828000Y-105900000D01*
X152891000Y-105916881D01*
X152937119Y-105963000D01*
X152954000Y-106026000D01*
X152954000Y-106529257D01*
X152935589Y-106594836D01*
X152885736Y-106641250D01*
X152819011Y-106654936D01*
X152754488Y-106650321D01*
X152745512Y-106650321D01*
X152469861Y-106670035D01*
X152460965Y-106671315D01*
X152190941Y-106730055D01*
X152182314Y-106732588D01*
X151923381Y-106829165D01*
X151915225Y-106832889D01*
X151721654Y-106938588D01*
X151661269Y-106954000D01*
X149802903Y-106954000D01*
X149797079Y-106953865D01*
X149782383Y-106953185D01*
X149770794Y-106952111D01*
X149759091Y-106950478D01*
X149747665Y-106948342D01*
X149736169Y-106945639D01*
X149724962Y-106942451D01*
X149713766Y-106938698D01*
X149702918Y-106934495D01*
X149692106Y-106929721D01*
X149681683Y-106924531D01*
X149671368Y-106918785D01*
X149661481Y-106912663D01*
X149651739Y-106905990D01*
X149642451Y-106898976D01*
X149633362Y-106891429D01*
X149624759Y-106883586D01*
X149616413Y-106875240D01*
X149608570Y-106866637D01*
X149601023Y-106857548D01*
X149594009Y-106848260D01*
X149587336Y-106838518D01*
X149581214Y-106828631D01*
X149575468Y-106818316D01*
X149570278Y-106807893D01*
X149565504Y-106797081D01*
X149561301Y-106786233D01*
X149557548Y-106775037D01*
X149554360Y-106763830D01*
X149551657Y-106752334D01*
X149549521Y-106740908D01*
X149547888Y-106729205D01*
X149546813Y-106717608D01*
X149546134Y-106702913D01*
X149546000Y-106697097D01*
X149546000Y-106026000D01*
X149562881Y-105963000D01*
X149609000Y-105916881D01*
X149672000Y-105900000D01*
X149783410Y-105900000D01*
X149796493Y-105896493D01*
X149800000Y-105883410D01*
X149800000Y-82526000D01*
X149816881Y-82463000D01*
X149863000Y-82416881D01*
X149926000Y-82400000D01*
X152574000Y-82400000D01*
X152637000Y-82416881D01*
G37*
G36*
X108287000Y-105916881D02*
G01*
X108333119Y-105963000D01*
X108350000Y-106026000D01*
X108350000Y-108474000D01*
X108333119Y-108537000D01*
X108287000Y-108583119D01*
X108224000Y-108600000D01*
X90013734Y-108600000D01*
X89953349Y-108584588D01*
X89907736Y-108542121D01*
X89888055Y-108482988D01*
X89879964Y-108369862D01*
X89878684Y-108360965D01*
X89819944Y-108090941D01*
X89817411Y-108082314D01*
X89720834Y-107823381D01*
X89717110Y-107815225D01*
X89584665Y-107572671D01*
X89579806Y-107565109D01*
X89414196Y-107343882D01*
X89408313Y-107337093D01*
X89212906Y-107141686D01*
X89206117Y-107135803D01*
X88984890Y-106970193D01*
X88977328Y-106965334D01*
X88734774Y-106832889D01*
X88726618Y-106829165D01*
X88467685Y-106732588D01*
X88459058Y-106730055D01*
X88189034Y-106671315D01*
X88180138Y-106670035D01*
X87904488Y-106650321D01*
X87895512Y-106650321D01*
X87619861Y-106670035D01*
X87610965Y-106671315D01*
X87340941Y-106730055D01*
X87332314Y-106732588D01*
X87073381Y-106829165D01*
X87065225Y-106832889D01*
X86836385Y-106957846D01*
X86773751Y-106973238D01*
X86711706Y-106955620D01*
X86666508Y-106909608D01*
X86650000Y-106847258D01*
X86650000Y-106026000D01*
X86666881Y-105963000D01*
X86713000Y-105916881D01*
X86776000Y-105900000D01*
X108224000Y-105900000D01*
X108287000Y-105916881D01*
G37*
G36*
X113487000Y-60716881D02*
G01*
X113533119Y-60763000D01*
X113550000Y-60826000D01*
X113550000Y-63274000D01*
X113533119Y-63337000D01*
X113487000Y-63383119D01*
X113424000Y-63400000D01*
X91976000Y-63400000D01*
X91913000Y-63383119D01*
X91866881Y-63337000D01*
X91850000Y-63274000D01*
X91850000Y-60826000D01*
X91866881Y-60763000D01*
X91913000Y-60716881D01*
X91976000Y-60700000D01*
X113424000Y-60700000D01*
X113487000Y-60716881D01*
G37*
G36*
X150700227Y-60815413D02*
G01*
X150745840Y-60857879D01*
X150765521Y-60917012D01*
X150770035Y-60980137D01*
X150771315Y-60989034D01*
X150830055Y-61259058D01*
X150832588Y-61267685D01*
X150929165Y-61526618D01*
X150932889Y-61534774D01*
X151065334Y-61777328D01*
X151070193Y-61784890D01*
X151235803Y-62006117D01*
X151241686Y-62012906D01*
X151437093Y-62208313D01*
X151443882Y-62214196D01*
X151665109Y-62379806D01*
X151672671Y-62384665D01*
X151915225Y-62517110D01*
X151923381Y-62520834D01*
X152182314Y-62617411D01*
X152190941Y-62619944D01*
X152460965Y-62678684D01*
X152469861Y-62679964D01*
X152745512Y-62699679D01*
X152754488Y-62699679D01*
X153030138Y-62679964D01*
X153039034Y-62678684D01*
X153309058Y-62619944D01*
X153317685Y-62617411D01*
X153576618Y-62520834D01*
X153584774Y-62517110D01*
X153827328Y-62384665D01*
X153834890Y-62379806D01*
X154056117Y-62214196D01*
X154062906Y-62208313D01*
X154258313Y-62012906D01*
X154264196Y-62006117D01*
X154429806Y-61784890D01*
X154434665Y-61777328D01*
X154567110Y-61534774D01*
X154570834Y-61526618D01*
X154667411Y-61267685D01*
X154669944Y-61259058D01*
X154728684Y-60989034D01*
X154729964Y-60980137D01*
X154734479Y-60917012D01*
X154754160Y-60857879D01*
X154799773Y-60815413D01*
X154860158Y-60800000D01*
X157616245Y-60800000D01*
X157679783Y-60817193D01*
X157725981Y-60864080D01*
X157742231Y-60927866D01*
X157741302Y-60990592D01*
X157740639Y-61001773D01*
X157695780Y-61432664D01*
X157694126Y-61443740D01*
X157611189Y-61868922D01*
X157608559Y-61879808D01*
X157488189Y-62295964D01*
X157484602Y-62306574D01*
X157327756Y-62710394D01*
X157323241Y-62720643D01*
X157131161Y-63108935D01*
X157125754Y-63118743D01*
X156929739Y-63439676D01*
X156883857Y-63483889D01*
X156822209Y-63500000D01*
X152716590Y-63500000D01*
X152703506Y-63503506D01*
X152700000Y-63516590D01*
X152700000Y-63628000D01*
X152683119Y-63691000D01*
X152637000Y-63737119D01*
X152574000Y-63754000D01*
X150126000Y-63754000D01*
X150063000Y-63737119D01*
X150016881Y-63691000D01*
X150000000Y-63628000D01*
X150000000Y-63516590D01*
X149996493Y-63503506D01*
X149983410Y-63500000D01*
X136726000Y-63500000D01*
X136663000Y-63483119D01*
X136616881Y-63437000D01*
X136600000Y-63374000D01*
X136600000Y-60926000D01*
X136616881Y-60863000D01*
X136663000Y-60816881D01*
X136726000Y-60800000D01*
X150639842Y-60800000D01*
X150700227Y-60815413D01*
G37*
G36*
X151484221Y-62252448D02*
G01*
X151519939Y-62271132D01*
X151665109Y-62379806D01*
X151672671Y-62384665D01*
X151915225Y-62517110D01*
X151923381Y-62520834D01*
X152182314Y-62617411D01*
X152190941Y-62619944D01*
X152460965Y-62678684D01*
X152469861Y-62679964D01*
X152745512Y-62699679D01*
X152754488Y-62699679D01*
X152819011Y-62695064D01*
X152885736Y-62708750D01*
X152935589Y-62755164D01*
X152954000Y-62820743D01*
X152954000Y-63374000D01*
X152937119Y-63437000D01*
X152891000Y-63483119D01*
X152828000Y-63500000D01*
X152716590Y-63500000D01*
X152703506Y-63503506D01*
X152700000Y-63516590D01*
X152700000Y-70874000D01*
X152683119Y-70937000D01*
X152637000Y-70983119D01*
X152574000Y-71000000D01*
X150126000Y-71000000D01*
X150063000Y-70983119D01*
X150016881Y-70937000D01*
X150000000Y-70874000D01*
X150000000Y-63516590D01*
X149996493Y-63503506D01*
X149983410Y-63500000D01*
X149872000Y-63500000D01*
X149809000Y-63483119D01*
X149762881Y-63437000D01*
X149746000Y-63374000D01*
X149746000Y-62502903D01*
X149746134Y-62497088D01*
X149746813Y-62482392D01*
X149747888Y-62470794D01*
X149749521Y-62459091D01*
X149751657Y-62447665D01*
X149754360Y-62436169D01*
X149757548Y-62424962D01*
X149761301Y-62413766D01*
X149765504Y-62402918D01*
X149770278Y-62392106D01*
X149775468Y-62381683D01*
X149781214Y-62371368D01*
X149787336Y-62361481D01*
X149794009Y-62351739D01*
X149801023Y-62342451D01*
X149808570Y-62333362D01*
X149816413Y-62324759D01*
X149824759Y-62316413D01*
X149833362Y-62308570D01*
X149842451Y-62301023D01*
X149851739Y-62294009D01*
X149861481Y-62287336D01*
X149871368Y-62281214D01*
X149881683Y-62275468D01*
X149892106Y-62270278D01*
X149902918Y-62265504D01*
X149913766Y-62261301D01*
X149924962Y-62257548D01*
X149936169Y-62254360D01*
X149947665Y-62251657D01*
X149959091Y-62249521D01*
X149970794Y-62247888D01*
X149982392Y-62246813D01*
X149997088Y-62246134D01*
X150002903Y-62246000D01*
X151444430Y-62246000D01*
X151484221Y-62252448D01*
G37*
G36*
X152637000Y-105662881D02*
G01*
X152683119Y-105709000D01*
X152700000Y-105772000D01*
X152700000Y-105883410D01*
X152703506Y-105896493D01*
X152716590Y-105900000D01*
X156852748Y-105900000D01*
X156914396Y-105916111D01*
X156960278Y-105960324D01*
X157125754Y-106231256D01*
X157131161Y-106241064D01*
X157323241Y-106629356D01*
X157327756Y-106639605D01*
X157484602Y-107043425D01*
X157488189Y-107054035D01*
X157608559Y-107470191D01*
X157611189Y-107481077D01*
X157694126Y-107906259D01*
X157695780Y-107917335D01*
X157740639Y-108348226D01*
X157741302Y-108359407D01*
X157742972Y-108472134D01*
X157726722Y-108535919D01*
X157680524Y-108582807D01*
X157616986Y-108600000D01*
X154863734Y-108600000D01*
X154803349Y-108584588D01*
X154757736Y-108542121D01*
X154738055Y-108482988D01*
X154729964Y-108369862D01*
X154728684Y-108360965D01*
X154669944Y-108090941D01*
X154667411Y-108082314D01*
X154570834Y-107823381D01*
X154567110Y-107815225D01*
X154434665Y-107572671D01*
X154429806Y-107565109D01*
X154264196Y-107343882D01*
X154258313Y-107337093D01*
X154062906Y-107141686D01*
X154056117Y-107135803D01*
X153834890Y-106970193D01*
X153827328Y-106965334D01*
X153584774Y-106832889D01*
X153576618Y-106829165D01*
X153317685Y-106732588D01*
X153309058Y-106730055D01*
X153039034Y-106671315D01*
X153030138Y-106670035D01*
X152754488Y-106650321D01*
X152745512Y-106650321D01*
X152469861Y-106670035D01*
X152460965Y-106671315D01*
X152190941Y-106730055D01*
X152182314Y-106732588D01*
X151923381Y-106829165D01*
X151915225Y-106832889D01*
X151672671Y-106965334D01*
X151665109Y-106970193D01*
X151443882Y-107135803D01*
X151437093Y-107141686D01*
X151241686Y-107337093D01*
X151235803Y-107343882D01*
X151070193Y-107565109D01*
X151065334Y-107572671D01*
X150932889Y-107815225D01*
X150929165Y-107823381D01*
X150832588Y-108082314D01*
X150830055Y-108090941D01*
X150771315Y-108360965D01*
X150770035Y-108369862D01*
X150761945Y-108482988D01*
X150742264Y-108542121D01*
X150696651Y-108584588D01*
X150636266Y-108600000D01*
X137376000Y-108600000D01*
X137313000Y-108583119D01*
X137266881Y-108537000D01*
X137250000Y-108474000D01*
X137250000Y-106026000D01*
X137266881Y-105963000D01*
X137313000Y-105916881D01*
X137376000Y-105900000D01*
X149783410Y-105900000D01*
X149796493Y-105896493D01*
X149800000Y-105883410D01*
X149800000Y-105772000D01*
X149816881Y-105709000D01*
X149863000Y-105662881D01*
X149926000Y-105646000D01*
X152574000Y-105646000D01*
X152637000Y-105662881D01*
G37*
M02*
