%TF.GenerationSoftware,KiCad,Pcbnew,(6.0.4)*%
%TF.CreationDate,2023-02-18T15:59:53+01:00*%
%TF.ProjectId,Apollo - DSP,41706f6c-6c6f-4202-9d20-4453502e6b69,rev?*%
%TF.SameCoordinates,Original*%
%TF.FileFunction,Paste,Top*%
%TF.FilePolarity,Positive*%
%FSLAX46Y46*%
G04 Gerber Fmt 4.6, Leading zero omitted, Abs format (unit mm)*
G04 Created by KiCad (PCBNEW (6.0.4)) date 2023-02-18 15:59:53*
%MOMM*%
%LPD*%
G01*
G04 APERTURE LIST*
G04 Aperture macros list*
%AMRoundRect*
0 Rectangle with rounded corners*
0 $1 Rounding radius*
0 $2 $3 $4 $5 $6 $7 $8 $9 X,Y pos of 4 corners*
0 Add a 4 corners polygon primitive as box body*
4,1,4,$2,$3,$4,$5,$6,$7,$8,$9,$2,$3,0*
0 Add four circle primitives for the rounded corners*
1,1,$1+$1,$2,$3*
1,1,$1+$1,$4,$5*
1,1,$1+$1,$6,$7*
1,1,$1+$1,$8,$9*
0 Add four rect primitives between the rounded corners*
20,1,$1+$1,$2,$3,$4,$5,0*
20,1,$1+$1,$4,$5,$6,$7,0*
20,1,$1+$1,$6,$7,$8,$9,0*
20,1,$1+$1,$8,$9,$2,$3,0*%
%AMRotRect*
0 Rectangle, with rotation*
0 The origin of the aperture is its center*
0 $1 length*
0 $2 width*
0 $3 Rotation angle, in degrees counterclockwise*
0 Add horizontal line*
21,1,$1,$2,0,0,$3*%
G04 Aperture macros list end*
%ADD10RoundRect,0.237500X0.237500X-0.300000X0.237500X0.300000X-0.237500X0.300000X-0.237500X-0.300000X0*%
%ADD11RoundRect,0.150000X0.512500X0.150000X-0.512500X0.150000X-0.512500X-0.150000X0.512500X-0.150000X0*%
%ADD12RoundRect,0.237500X0.380070X-0.044194X-0.044194X0.380070X-0.380070X0.044194X0.044194X-0.380070X0*%
%ADD13RoundRect,0.237500X-0.237500X0.300000X-0.237500X-0.300000X0.237500X-0.300000X0.237500X0.300000X0*%
%ADD14RoundRect,0.237500X0.250000X0.237500X-0.250000X0.237500X-0.250000X-0.237500X0.250000X-0.237500X0*%
%ADD15RoundRect,0.237500X0.300000X0.237500X-0.300000X0.237500X-0.300000X-0.237500X0.300000X-0.237500X0*%
%ADD16RoundRect,0.237500X-0.250000X-0.237500X0.250000X-0.237500X0.250000X0.237500X-0.250000X0.237500X0*%
%ADD17RoundRect,0.237500X-0.237500X0.250000X-0.237500X-0.250000X0.237500X-0.250000X0.237500X0.250000X0*%
%ADD18RoundRect,0.075000X-0.700000X-0.075000X0.700000X-0.075000X0.700000X0.075000X-0.700000X0.075000X0*%
%ADD19RoundRect,0.075000X-0.075000X-0.700000X0.075000X-0.700000X0.075000X0.700000X-0.075000X0.700000X0*%
%ADD20RoundRect,0.237500X0.044194X0.380070X-0.380070X-0.044194X-0.044194X-0.380070X0.380070X0.044194X0*%
%ADD21R,1.160000X0.600000*%
%ADD22R,1.160000X0.300000*%
%ADD23RoundRect,0.237500X0.237500X-0.250000X0.237500X0.250000X-0.237500X0.250000X-0.237500X-0.250000X0*%
%ADD24RoundRect,0.041300X0.563700X0.253700X-0.563700X0.253700X-0.563700X-0.253700X0.563700X-0.253700X0*%
%ADD25RotRect,1.150000X1.000000X225.000000*%
%ADD26RoundRect,0.150000X-0.825000X-0.150000X0.825000X-0.150000X0.825000X0.150000X-0.825000X0.150000X0*%
%ADD27R,1.200000X0.800000*%
%ADD28R,2.000000X1.500000*%
%ADD29RoundRect,0.237500X-0.300000X-0.237500X0.300000X-0.237500X0.300000X0.237500X-0.300000X0.237500X0*%
%ADD30RoundRect,0.237500X0.287500X0.237500X-0.287500X0.237500X-0.287500X-0.237500X0.287500X-0.237500X0*%
%ADD31RoundRect,0.150000X0.150000X-0.825000X0.150000X0.825000X-0.150000X0.825000X-0.150000X-0.825000X0*%
%ADD32RoundRect,0.237500X-0.287500X-0.237500X0.287500X-0.237500X0.287500X0.237500X-0.287500X0.237500X0*%
G04 APERTURE END LIST*
D10*
%TO.C,C2*%
X103425000Y-98262500D03*
X103425000Y-96537500D03*
%TD*%
D11*
%TO.C,U1*%
X97800000Y-98362500D03*
X97800000Y-97412500D03*
X97800000Y-96462500D03*
X95400000Y-96462500D03*
X95400000Y-98362500D03*
%TD*%
D10*
%TO.C,C9*%
X103425000Y-103362500D03*
X103425000Y-101637500D03*
%TD*%
%TO.C,C1*%
X108825000Y-98262500D03*
X108825000Y-96537500D03*
%TD*%
%TO.C,C26*%
X67470000Y-116617500D03*
X67470000Y-114892500D03*
%TD*%
D11*
%TO.C,U3*%
X97700000Y-106975000D03*
X97700000Y-106025000D03*
X97700000Y-105075000D03*
X95300000Y-105075000D03*
X95300000Y-106975000D03*
%TD*%
D12*
%TO.C,C21*%
X67533624Y-95496187D03*
X66313864Y-94276427D03*
%TD*%
D13*
%TO.C,C31*%
X104800000Y-117137500D03*
X104800000Y-118862500D03*
%TD*%
D14*
%TO.C,F1*%
X112437500Y-96500000D03*
X110612500Y-96500000D03*
%TD*%
D15*
%TO.C,C28*%
X61832500Y-118367500D03*
X60107500Y-118367500D03*
%TD*%
D10*
%TO.C,C23*%
X74100000Y-114912500D03*
X74100000Y-113187500D03*
%TD*%
D16*
%TO.C,R11*%
X60057500Y-120067500D03*
X61882500Y-120067500D03*
%TD*%
D14*
%TO.C,FB1*%
X107037500Y-98300000D03*
X105212500Y-98300000D03*
%TD*%
D16*
%TO.C,D3*%
X65657500Y-101567500D03*
X67482500Y-101567500D03*
%TD*%
D17*
%TO.C,R1*%
X89725000Y-96500000D03*
X89725000Y-98325000D03*
%TD*%
D10*
%TO.C,C3*%
X101525000Y-98275000D03*
X101525000Y-96550000D03*
%TD*%
D18*
%TO.C,U4*%
X73625000Y-90750000D03*
X73625000Y-91250000D03*
X73625000Y-91750000D03*
X73625000Y-92250000D03*
X73625000Y-92750000D03*
X73625000Y-93250000D03*
X73625000Y-93750000D03*
X73625000Y-94250000D03*
X73625000Y-94750000D03*
X73625000Y-95250000D03*
X73625000Y-95750000D03*
X73625000Y-96250000D03*
X73625000Y-96750000D03*
X73625000Y-97250000D03*
X73625000Y-97750000D03*
X73625000Y-98250000D03*
D19*
X75550000Y-100175000D03*
X76050000Y-100175000D03*
X76550000Y-100175000D03*
X77050000Y-100175000D03*
X77550000Y-100175000D03*
X78050000Y-100175000D03*
X78550000Y-100175000D03*
X79050000Y-100175000D03*
X79550000Y-100175000D03*
X80050000Y-100175000D03*
X80550000Y-100175000D03*
X81050000Y-100175000D03*
X81550000Y-100175000D03*
X82050000Y-100175000D03*
X82550000Y-100175000D03*
X83050000Y-100175000D03*
D18*
X84975000Y-98250000D03*
X84975000Y-97750000D03*
X84975000Y-97250000D03*
X84975000Y-96750000D03*
X84975000Y-96250000D03*
X84975000Y-95750000D03*
X84975000Y-95250000D03*
X84975000Y-94750000D03*
X84975000Y-94250000D03*
X84975000Y-93750000D03*
X84975000Y-93250000D03*
X84975000Y-92750000D03*
X84975000Y-92250000D03*
X84975000Y-91750000D03*
X84975000Y-91250000D03*
X84975000Y-90750000D03*
D19*
X83050000Y-88825000D03*
X82550000Y-88825000D03*
X82050000Y-88825000D03*
X81550000Y-88825000D03*
X81050000Y-88825000D03*
X80550000Y-88825000D03*
X80050000Y-88825000D03*
X79550000Y-88825000D03*
X79050000Y-88825000D03*
X78550000Y-88825000D03*
X78050000Y-88825000D03*
X77550000Y-88825000D03*
X77050000Y-88825000D03*
X76550000Y-88825000D03*
X76050000Y-88825000D03*
X75550000Y-88825000D03*
%TD*%
D10*
%TO.C,C12*%
X93125000Y-106950000D03*
X93125000Y-105225000D03*
%TD*%
D15*
%TO.C,C33*%
X69232500Y-118355000D03*
X67507500Y-118355000D03*
%TD*%
D10*
%TO.C,C7*%
X75700000Y-114912500D03*
X75700000Y-113187500D03*
%TD*%
D13*
%TO.C,C30*%
X106500000Y-117137500D03*
X106500000Y-118862500D03*
%TD*%
D20*
%TO.C,C20*%
X67633624Y-90276427D03*
X66413864Y-91496187D03*
%TD*%
D13*
%TO.C,C14*%
X85500000Y-100837500D03*
X85500000Y-102562500D03*
%TD*%
D21*
%TO.C,J1*%
X116015000Y-97000000D03*
X116015000Y-96200000D03*
D22*
X116015000Y-95050000D03*
X116015000Y-94050000D03*
X116015000Y-93550000D03*
X116015000Y-92550000D03*
D21*
X116015000Y-91400000D03*
X116015000Y-90600000D03*
X116015000Y-90600000D03*
X116015000Y-91400000D03*
D22*
X116015000Y-92050000D03*
X116015000Y-93050000D03*
X116015000Y-94550000D03*
X116015000Y-95550000D03*
D21*
X116015000Y-96200000D03*
X116015000Y-97000000D03*
%TD*%
D15*
%TO.C,C17*%
X73200000Y-88300000D03*
X71475000Y-88300000D03*
%TD*%
%TO.C,C19*%
X73200000Y-86600000D03*
X71475000Y-86600000D03*
%TD*%
D13*
%TO.C,C35*%
X93875000Y-115712500D03*
X93875000Y-117437500D03*
%TD*%
D23*
%TO.C,R6*%
X77500000Y-86212500D03*
X77500000Y-84387500D03*
%TD*%
D10*
%TO.C,C10*%
X99825000Y-106950000D03*
X99825000Y-105225000D03*
%TD*%
D23*
%TO.C,R5*%
X77300000Y-114962500D03*
X77300000Y-113137500D03*
%TD*%
D14*
%TO.C,R7*%
X66981250Y-87700000D03*
X65156250Y-87700000D03*
%TD*%
D10*
%TO.C,C11*%
X101525000Y-106950000D03*
X101525000Y-105225000D03*
%TD*%
%TO.C,C27*%
X60070000Y-116630000D03*
X60070000Y-114905000D03*
%TD*%
D17*
%TO.C,R13*%
X90200000Y-89887500D03*
X90200000Y-91712500D03*
%TD*%
D16*
%TO.C,D6*%
X61922500Y-101567500D03*
X63747500Y-101567500D03*
%TD*%
D10*
%TO.C,C13*%
X91425000Y-106950000D03*
X91425000Y-105225000D03*
%TD*%
%TO.C,C29*%
X61122500Y-105030000D03*
X61122500Y-103305000D03*
%TD*%
%TO.C,C4*%
X99825000Y-98275000D03*
X99825000Y-96550000D03*
%TD*%
D24*
%TO.C,U2*%
X112280000Y-94750000D03*
X112280000Y-93800000D03*
X112280000Y-92850000D03*
X109770000Y-92850000D03*
X109770000Y-93800000D03*
X109770000Y-94750000D03*
%TD*%
D17*
%TO.C,R10*%
X61870000Y-114855000D03*
X61870000Y-116680000D03*
%TD*%
D16*
%TO.C,R12*%
X67457500Y-120055000D03*
X69282500Y-120055000D03*
%TD*%
D25*
%TO.C,Y1*%
X69047488Y-91672614D03*
X67810051Y-92910051D03*
X68800000Y-93900000D03*
X70037437Y-92662563D03*
%TD*%
D13*
%TO.C,C22*%
X70300000Y-95637500D03*
X70300000Y-97362500D03*
%TD*%
D15*
%TO.C,C15*%
X76100000Y-103300000D03*
X74375000Y-103300000D03*
%TD*%
D14*
%TO.C,R3*%
X118012500Y-87100000D03*
X116187500Y-87100000D03*
%TD*%
D10*
%TO.C,C25*%
X59422500Y-105030000D03*
X59422500Y-103305000D03*
%TD*%
D14*
%TO.C,R2*%
X117537500Y-100100000D03*
X115712500Y-100100000D03*
%TD*%
D26*
%TO.C,U5*%
X61625000Y-108395000D03*
X61625000Y-109665000D03*
X61625000Y-110935000D03*
X61625000Y-112205000D03*
X66575000Y-112205000D03*
X66575000Y-110935000D03*
X66575000Y-109665000D03*
X66575000Y-108395000D03*
%TD*%
D10*
%TO.C,C32*%
X68370000Y-105030000D03*
X68370000Y-103305000D03*
%TD*%
D14*
%TO.C,FB2*%
X107037500Y-103400000D03*
X105212500Y-103400000D03*
%TD*%
D16*
%TO.C,D4*%
X58422500Y-101567500D03*
X60247500Y-101567500D03*
%TD*%
D17*
%TO.C,R4*%
X75700000Y-116637500D03*
X75700000Y-118462500D03*
%TD*%
D27*
%TO.C,J3*%
X118000000Y-108400000D03*
X118000000Y-109500000D03*
X118000000Y-110600000D03*
X118000000Y-111700000D03*
X118000000Y-112800000D03*
X118000000Y-113900000D03*
X118000000Y-115000000D03*
X118000000Y-116100000D03*
D28*
X120200000Y-118570000D03*
X112000000Y-118570000D03*
X112000000Y-104680000D03*
X120200000Y-104680000D03*
%TD*%
D29*
%TO.C,C36*%
X83737500Y-104300000D03*
X85462500Y-104300000D03*
%TD*%
D17*
%TO.C,R9*%
X69270000Y-114855000D03*
X69270000Y-116680000D03*
%TD*%
D10*
%TO.C,C5*%
X93125000Y-98275000D03*
X93125000Y-96550000D03*
%TD*%
D15*
%TO.C,C18*%
X73200000Y-84900000D03*
X71475000Y-84900000D03*
%TD*%
D30*
%TO.C,D1*%
X91475000Y-94700000D03*
X89725000Y-94700000D03*
%TD*%
D31*
%TO.C,U7*%
X97590000Y-120600000D03*
X98860000Y-120600000D03*
X100130000Y-120600000D03*
X101400000Y-120600000D03*
X101400000Y-115650000D03*
X100130000Y-115650000D03*
X98860000Y-115650000D03*
X97590000Y-115650000D03*
%TD*%
D10*
%TO.C,C8*%
X108800000Y-103362500D03*
X108800000Y-101637500D03*
%TD*%
D16*
%TO.C,D5*%
X69157500Y-101567500D03*
X70982500Y-101567500D03*
%TD*%
D13*
%TO.C,C34*%
X95575000Y-115712500D03*
X95575000Y-117437500D03*
%TD*%
D32*
%TO.C,D2*%
X61693750Y-87700000D03*
X63443750Y-87700000D03*
%TD*%
D29*
%TO.C,C16*%
X85837500Y-87900000D03*
X87562500Y-87900000D03*
%TD*%
D10*
%TO.C,C24*%
X66670000Y-105030000D03*
X66670000Y-103305000D03*
%TD*%
%TO.C,C6*%
X91425000Y-98275000D03*
X91425000Y-96550000D03*
%TD*%
D15*
%TO.C,C24*%
X64862500Y-106700000D03*
X63137500Y-106700000D03*
%TD*%
M02*
