%TF.GenerationSoftware,KiCad,Pcbnew,(6.0.4)*%
%TF.CreationDate,2023-02-18T15:55:05+01:00*%
%TF.ProjectId,Apollo - DSP,41706f6c-6c6f-4202-9d20-4453502e6b69,rev?*%
%TF.SameCoordinates,Original*%
%TF.FileFunction,Soldermask,Bot*%
%TF.FilePolarity,Negative*%
%FSLAX46Y46*%
G04 Gerber Fmt 4.6, Leading zero omitted, Abs format (unit mm)*
G04 Created by KiCad (PCBNEW (6.0.4)) date 2023-02-18 15:55:05*
%MOMM*%
%LPD*%
G01*
G04 APERTURE LIST*
%ADD10R,1.700000X1.700000*%
%ADD11O,1.700000X1.700000*%
%ADD12O,1.700000X0.900000*%
%ADD13O,2.000000X0.900000*%
G04 APERTURE END LIST*
D10*
%TO.C,J7*%
X86700000Y-110650000D03*
D11*
X86700000Y-113190000D03*
X86700000Y-115730000D03*
X86700000Y-118270000D03*
X86700000Y-120810000D03*
X86700000Y-123350000D03*
%TD*%
D12*
%TO.C,J1*%
X120765000Y-89480000D03*
D13*
X116595000Y-89480000D03*
D12*
X120765000Y-98120000D03*
D13*
X116595000Y-98120000D03*
%TD*%
D10*
%TO.C,J5*%
X102600000Y-80000000D03*
D11*
X105140000Y-80000000D03*
X107680000Y-80000000D03*
X110220000Y-80000000D03*
%TD*%
D10*
%TO.C,J6*%
X75100000Y-123300000D03*
D11*
X77640000Y-123300000D03*
X80180000Y-123300000D03*
X82720000Y-123300000D03*
%TD*%
D10*
%TO.C,J4*%
X79820000Y-80000000D03*
D11*
X82360000Y-80000000D03*
X84900000Y-80000000D03*
X87440000Y-80000000D03*
%TD*%
D10*
%TO.C,J2*%
X91200000Y-80000000D03*
D11*
X93740000Y-80000000D03*
X96280000Y-80000000D03*
X98820000Y-80000000D03*
%TD*%
G36*
X52234901Y-72692751D02*
G01*
X52245433Y-72693413D01*
X52686207Y-72739741D01*
X52696646Y-72741283D01*
X53131970Y-72824325D01*
X53142244Y-72826734D01*
X53569116Y-72945918D01*
X53579152Y-72949180D01*
X53994551Y-73103666D01*
X54004279Y-73107755D01*
X54405280Y-73296452D01*
X54414632Y-73301341D01*
X54798441Y-73522933D01*
X54807351Y-73528587D01*
X55171281Y-73781525D01*
X55179686Y-73787905D01*
X55521166Y-74070402D01*
X55529009Y-74077463D01*
X55845656Y-74387547D01*
X55852879Y-74395240D01*
X56142465Y-74730728D01*
X56149020Y-74738998D01*
X56409521Y-75097547D01*
X56415361Y-75106337D01*
X56644942Y-75485420D01*
X56650026Y-75494667D01*
X56847085Y-75891640D01*
X56851377Y-75901280D01*
X57014528Y-76313352D01*
X57017998Y-76323318D01*
X57146089Y-76747578D01*
X57148714Y-76757799D01*
X57240862Y-77191320D01*
X57242621Y-77201725D01*
X57298166Y-77641409D01*
X57299049Y-77651925D01*
X57317608Y-78094724D01*
X57317608Y-78105276D01*
X57299049Y-78548075D01*
X57298166Y-78558591D01*
X57242621Y-78998275D01*
X57240862Y-79008680D01*
X57148714Y-79442201D01*
X57146089Y-79452422D01*
X57017998Y-79876682D01*
X57014528Y-79886648D01*
X56851377Y-80298720D01*
X56847085Y-80308360D01*
X56650026Y-80705333D01*
X56644942Y-80714580D01*
X56415361Y-81093663D01*
X56409521Y-81102453D01*
X56149020Y-81461002D01*
X56142465Y-81469272D01*
X55852879Y-81804760D01*
X55845656Y-81812453D01*
X55529009Y-82122537D01*
X55521166Y-82129598D01*
X55179686Y-82412095D01*
X55171281Y-82418475D01*
X54807351Y-82671413D01*
X54798441Y-82677067D01*
X54414632Y-82898659D01*
X54405280Y-82903548D01*
X54004279Y-83092245D01*
X53994551Y-83096334D01*
X53579152Y-83250820D01*
X53569116Y-83254082D01*
X53142244Y-83373266D01*
X53131970Y-83375675D01*
X52696646Y-83458717D01*
X52686207Y-83460259D01*
X52245433Y-83506587D01*
X52234901Y-83507249D01*
X51791818Y-83516530D01*
X51781268Y-83516309D01*
X51338955Y-83488482D01*
X51328459Y-83487379D01*
X50890027Y-83422636D01*
X50879662Y-83420659D01*
X50448178Y-83319455D01*
X50438014Y-83316617D01*
X50016523Y-83179667D01*
X50006632Y-83175989D01*
X49598069Y-83004244D01*
X49588521Y-82999751D01*
X49195760Y-82794422D01*
X49186621Y-82789145D01*
X48812439Y-82551681D01*
X48803774Y-82545659D01*
X48450744Y-82277695D01*
X48442613Y-82270968D01*
X48113273Y-81974429D01*
X48105733Y-81967046D01*
X47802345Y-81643970D01*
X47795450Y-81635982D01*
X47520163Y-81288657D01*
X47513960Y-81280119D01*
X47268709Y-80910986D01*
X47263242Y-80901960D01*
X47049731Y-80513585D01*
X47045039Y-80504133D01*
X46864774Y-80099252D01*
X46860890Y-80089440D01*
X46715144Y-79670912D01*
X46712094Y-79660810D01*
X46601877Y-79231545D01*
X46599683Y-79221223D01*
X46525773Y-78784245D01*
X46524450Y-78773775D01*
X46487365Y-78332139D01*
X46486923Y-78321596D01*
X46486923Y-78105189D01*
X50400430Y-78105189D01*
X50420027Y-78341696D01*
X50421739Y-78351951D01*
X50479994Y-78581996D01*
X50483367Y-78591821D01*
X50578695Y-78809147D01*
X50583638Y-78818282D01*
X50713439Y-79016957D01*
X50719818Y-79025153D01*
X50880549Y-79199752D01*
X50888189Y-79206786D01*
X51075468Y-79352551D01*
X51084160Y-79358230D01*
X51292872Y-79471179D01*
X51302389Y-79475353D01*
X51526844Y-79552408D01*
X51536914Y-79554958D01*
X51770991Y-79594019D01*
X51781339Y-79594877D01*
X52018661Y-79594877D01*
X52029009Y-79594019D01*
X52263086Y-79554958D01*
X52273156Y-79552408D01*
X52497611Y-79475353D01*
X52507128Y-79471179D01*
X52715840Y-79358230D01*
X52724532Y-79352551D01*
X52911811Y-79206786D01*
X52919451Y-79199752D01*
X53080182Y-79025153D01*
X53086561Y-79016957D01*
X53216362Y-78818282D01*
X53221305Y-78809147D01*
X53316633Y-78591821D01*
X53320006Y-78581996D01*
X53378261Y-78351951D01*
X53379973Y-78341696D01*
X53399570Y-78105189D01*
X53399570Y-78094811D01*
X53379973Y-77858304D01*
X53378261Y-77848049D01*
X53320006Y-77618004D01*
X53316633Y-77608179D01*
X53221305Y-77390853D01*
X53216362Y-77381718D01*
X53086561Y-77183043D01*
X53080182Y-77174847D01*
X52919451Y-77000248D01*
X52911811Y-76993214D01*
X52724532Y-76847449D01*
X52715840Y-76841770D01*
X52507128Y-76728821D01*
X52497611Y-76724647D01*
X52273156Y-76647592D01*
X52263086Y-76645042D01*
X52029009Y-76605981D01*
X52018661Y-76605123D01*
X51781339Y-76605123D01*
X51770991Y-76605981D01*
X51536914Y-76645042D01*
X51526844Y-76647592D01*
X51302389Y-76724647D01*
X51292872Y-76728821D01*
X51084160Y-76841770D01*
X51075468Y-76847449D01*
X50888189Y-76993214D01*
X50880549Y-77000248D01*
X50719818Y-77174847D01*
X50713439Y-77183043D01*
X50583638Y-77381718D01*
X50578695Y-77390853D01*
X50483367Y-77608179D01*
X50479994Y-77618004D01*
X50421739Y-77848049D01*
X50420027Y-77858304D01*
X50400430Y-78094811D01*
X50400430Y-78105189D01*
X46486923Y-78105189D01*
X46486923Y-77878404D01*
X46487365Y-77867861D01*
X46524450Y-77426225D01*
X46525773Y-77415755D01*
X46599683Y-76978777D01*
X46601877Y-76968455D01*
X46712094Y-76539190D01*
X46715144Y-76529088D01*
X46860890Y-76110560D01*
X46864774Y-76100748D01*
X47045039Y-75695867D01*
X47049731Y-75686415D01*
X47263242Y-75298040D01*
X47268709Y-75289014D01*
X47513960Y-74919881D01*
X47520163Y-74911343D01*
X47795450Y-74564018D01*
X47802345Y-74556030D01*
X48105733Y-74232954D01*
X48113273Y-74225571D01*
X48442613Y-73929032D01*
X48450744Y-73922305D01*
X48803774Y-73654341D01*
X48812439Y-73648319D01*
X49186622Y-73410855D01*
X49195761Y-73405578D01*
X49588521Y-73200249D01*
X49598069Y-73195756D01*
X50006632Y-73024011D01*
X50016523Y-73020333D01*
X50438014Y-72883383D01*
X50448178Y-72880545D01*
X50879662Y-72779341D01*
X50890027Y-72777364D01*
X51328459Y-72712621D01*
X51338955Y-72711518D01*
X51781268Y-72683691D01*
X51791818Y-72683470D01*
X52234901Y-72692751D01*
G37*
G36*
X52217072Y-119792751D02*
G01*
X52227604Y-119793413D01*
X52668378Y-119839741D01*
X52678817Y-119841283D01*
X53114141Y-119924325D01*
X53124415Y-119926734D01*
X53551287Y-120045918D01*
X53561323Y-120049180D01*
X53976722Y-120203666D01*
X53986450Y-120207755D01*
X54387451Y-120396452D01*
X54396803Y-120401341D01*
X54780612Y-120622933D01*
X54789522Y-120628587D01*
X55153452Y-120881525D01*
X55161857Y-120887905D01*
X55503337Y-121170402D01*
X55511180Y-121177463D01*
X55827827Y-121487547D01*
X55835050Y-121495240D01*
X56124636Y-121830728D01*
X56131191Y-121838998D01*
X56391692Y-122197547D01*
X56397532Y-122206337D01*
X56627113Y-122585420D01*
X56632197Y-122594667D01*
X56829256Y-122991640D01*
X56833548Y-123001280D01*
X56996699Y-123413352D01*
X57000169Y-123423318D01*
X57128260Y-123847578D01*
X57130885Y-123857799D01*
X57223033Y-124291320D01*
X57224792Y-124301725D01*
X57280337Y-124741409D01*
X57281220Y-124751925D01*
X57299779Y-125194724D01*
X57299779Y-125205276D01*
X57281220Y-125648075D01*
X57280337Y-125658591D01*
X57224792Y-126098275D01*
X57223033Y-126108680D01*
X57130885Y-126542201D01*
X57128260Y-126552422D01*
X57000169Y-126976682D01*
X56996699Y-126986648D01*
X56833548Y-127398720D01*
X56829256Y-127408360D01*
X56632197Y-127805333D01*
X56627113Y-127814580D01*
X56397532Y-128193663D01*
X56391692Y-128202453D01*
X56131191Y-128561002D01*
X56124636Y-128569272D01*
X55835050Y-128904760D01*
X55827827Y-128912453D01*
X55511180Y-129222537D01*
X55503337Y-129229598D01*
X55161857Y-129512095D01*
X55153452Y-129518475D01*
X54789522Y-129771413D01*
X54780612Y-129777067D01*
X54396803Y-129998659D01*
X54387451Y-130003548D01*
X53986450Y-130192245D01*
X53976722Y-130196334D01*
X53561323Y-130350820D01*
X53551287Y-130354082D01*
X53124415Y-130473266D01*
X53114141Y-130475675D01*
X52678817Y-130558717D01*
X52668378Y-130560259D01*
X52227604Y-130606587D01*
X52217072Y-130607249D01*
X51773989Y-130616530D01*
X51763439Y-130616309D01*
X51321126Y-130588482D01*
X51310630Y-130587379D01*
X50872198Y-130522636D01*
X50861833Y-130520659D01*
X50430349Y-130419455D01*
X50420185Y-130416617D01*
X49998694Y-130279667D01*
X49988803Y-130275989D01*
X49580240Y-130104244D01*
X49570692Y-130099751D01*
X49177931Y-129894422D01*
X49168792Y-129889145D01*
X48794610Y-129651681D01*
X48785945Y-129645659D01*
X48432915Y-129377695D01*
X48424784Y-129370968D01*
X48095444Y-129074429D01*
X48087904Y-129067046D01*
X47784516Y-128743970D01*
X47777621Y-128735982D01*
X47502334Y-128388657D01*
X47496131Y-128380119D01*
X47250880Y-128010986D01*
X47245413Y-128001960D01*
X47031902Y-127613585D01*
X47027210Y-127604133D01*
X46846945Y-127199252D01*
X46843061Y-127189440D01*
X46697315Y-126770912D01*
X46694265Y-126760810D01*
X46584048Y-126331545D01*
X46581854Y-126321223D01*
X46507944Y-125884245D01*
X46506621Y-125873775D01*
X46469536Y-125432139D01*
X46469094Y-125421596D01*
X46469094Y-125205189D01*
X50400430Y-125205189D01*
X50420027Y-125441696D01*
X50421739Y-125451951D01*
X50479994Y-125681996D01*
X50483367Y-125691821D01*
X50578695Y-125909147D01*
X50583638Y-125918282D01*
X50713439Y-126116957D01*
X50719818Y-126125153D01*
X50880549Y-126299752D01*
X50888189Y-126306786D01*
X51075468Y-126452551D01*
X51084160Y-126458230D01*
X51292872Y-126571179D01*
X51302389Y-126575353D01*
X51526844Y-126652408D01*
X51536914Y-126654958D01*
X51770991Y-126694019D01*
X51781339Y-126694877D01*
X52018661Y-126694877D01*
X52029009Y-126694019D01*
X52263086Y-126654958D01*
X52273156Y-126652408D01*
X52497611Y-126575353D01*
X52507128Y-126571179D01*
X52715840Y-126458230D01*
X52724532Y-126452551D01*
X52911811Y-126306786D01*
X52919451Y-126299752D01*
X53080182Y-126125153D01*
X53086561Y-126116957D01*
X53216362Y-125918282D01*
X53221305Y-125909147D01*
X53316633Y-125691821D01*
X53320006Y-125681996D01*
X53378261Y-125451951D01*
X53379973Y-125441696D01*
X53399570Y-125205189D01*
X53399570Y-125194811D01*
X53379973Y-124958304D01*
X53378261Y-124948049D01*
X53320006Y-124718004D01*
X53316633Y-124708179D01*
X53221305Y-124490853D01*
X53216362Y-124481718D01*
X53086561Y-124283043D01*
X53080182Y-124274847D01*
X52919451Y-124100248D01*
X52911811Y-124093214D01*
X52724532Y-123947449D01*
X52715840Y-123941770D01*
X52507128Y-123828821D01*
X52497611Y-123824647D01*
X52273156Y-123747592D01*
X52263086Y-123745042D01*
X52029009Y-123705981D01*
X52018661Y-123705123D01*
X51781339Y-123705123D01*
X51770991Y-123705981D01*
X51536914Y-123745042D01*
X51526844Y-123747592D01*
X51302389Y-123824647D01*
X51292872Y-123828821D01*
X51084160Y-123941770D01*
X51075468Y-123947449D01*
X50888189Y-124093214D01*
X50880549Y-124100248D01*
X50719818Y-124274847D01*
X50713439Y-124283043D01*
X50583638Y-124481718D01*
X50578695Y-124490853D01*
X50483367Y-124708179D01*
X50479994Y-124718004D01*
X50421739Y-124948049D01*
X50420027Y-124958304D01*
X50400430Y-125194811D01*
X50400430Y-125205189D01*
X46469094Y-125205189D01*
X46469094Y-124978404D01*
X46469536Y-124967861D01*
X46506621Y-124526225D01*
X46507944Y-124515755D01*
X46581854Y-124078777D01*
X46584048Y-124068455D01*
X46694265Y-123639190D01*
X46697315Y-123629088D01*
X46843061Y-123210560D01*
X46846945Y-123200748D01*
X47027210Y-122795867D01*
X47031902Y-122786415D01*
X47245413Y-122398040D01*
X47250880Y-122389014D01*
X47496131Y-122019881D01*
X47502334Y-122011343D01*
X47777621Y-121664018D01*
X47784516Y-121656030D01*
X48087904Y-121332954D01*
X48095444Y-121325571D01*
X48424784Y-121029032D01*
X48432915Y-121022305D01*
X48785945Y-120754341D01*
X48794610Y-120748319D01*
X49168793Y-120510855D01*
X49177932Y-120505578D01*
X49570692Y-120300249D01*
X49580240Y-120295756D01*
X49988803Y-120124011D01*
X49998694Y-120120333D01*
X50420185Y-119983383D01*
X50430349Y-119980545D01*
X50861833Y-119879341D01*
X50872198Y-119877364D01*
X51310630Y-119812621D01*
X51321126Y-119811518D01*
X51763439Y-119783691D01*
X51773989Y-119783470D01*
X52217072Y-119792751D01*
G37*
G36*
X123117072Y-72692751D02*
G01*
X123127604Y-72693413D01*
X123568378Y-72739741D01*
X123578817Y-72741283D01*
X124014141Y-72824325D01*
X124024415Y-72826734D01*
X124451287Y-72945918D01*
X124461323Y-72949180D01*
X124876722Y-73103666D01*
X124886450Y-73107755D01*
X125287451Y-73296452D01*
X125296803Y-73301341D01*
X125680612Y-73522933D01*
X125689522Y-73528587D01*
X126053452Y-73781525D01*
X126061857Y-73787905D01*
X126403337Y-74070402D01*
X126411180Y-74077463D01*
X126727827Y-74387547D01*
X126735050Y-74395240D01*
X127024636Y-74730728D01*
X127031191Y-74738998D01*
X127291692Y-75097547D01*
X127297532Y-75106337D01*
X127527113Y-75485420D01*
X127532197Y-75494667D01*
X127729256Y-75891640D01*
X127733548Y-75901280D01*
X127896699Y-76313352D01*
X127900169Y-76323318D01*
X128028260Y-76747578D01*
X128030885Y-76757799D01*
X128123033Y-77191320D01*
X128124792Y-77201725D01*
X128180337Y-77641409D01*
X128181220Y-77651925D01*
X128199779Y-78094724D01*
X128199779Y-78105276D01*
X128181220Y-78548075D01*
X128180337Y-78558591D01*
X128124792Y-78998275D01*
X128123033Y-79008680D01*
X128030885Y-79442201D01*
X128028260Y-79452422D01*
X127900169Y-79876682D01*
X127896699Y-79886648D01*
X127733548Y-80298720D01*
X127729256Y-80308360D01*
X127532197Y-80705333D01*
X127527113Y-80714580D01*
X127297532Y-81093663D01*
X127291692Y-81102453D01*
X127031191Y-81461002D01*
X127024636Y-81469272D01*
X126735050Y-81804760D01*
X126727827Y-81812453D01*
X126411180Y-82122537D01*
X126403337Y-82129598D01*
X126061857Y-82412095D01*
X126053452Y-82418475D01*
X125689522Y-82671413D01*
X125680612Y-82677067D01*
X125296803Y-82898659D01*
X125287451Y-82903548D01*
X124886450Y-83092245D01*
X124876722Y-83096334D01*
X124461323Y-83250820D01*
X124451287Y-83254082D01*
X124024415Y-83373266D01*
X124014141Y-83375675D01*
X123578817Y-83458717D01*
X123568378Y-83460259D01*
X123127604Y-83506587D01*
X123117072Y-83507249D01*
X122673989Y-83516530D01*
X122663439Y-83516309D01*
X122221126Y-83488482D01*
X122210630Y-83487379D01*
X121772198Y-83422636D01*
X121761833Y-83420659D01*
X121330349Y-83319455D01*
X121320185Y-83316617D01*
X120898694Y-83179667D01*
X120888803Y-83175989D01*
X120480240Y-83004244D01*
X120470692Y-82999751D01*
X120077931Y-82794422D01*
X120068792Y-82789145D01*
X119694610Y-82551681D01*
X119685945Y-82545659D01*
X119332915Y-82277695D01*
X119324784Y-82270968D01*
X118995444Y-81974429D01*
X118987904Y-81967046D01*
X118684516Y-81643970D01*
X118677621Y-81635982D01*
X118402334Y-81288657D01*
X118396131Y-81280119D01*
X118150880Y-80910986D01*
X118145413Y-80901960D01*
X117931902Y-80513585D01*
X117927210Y-80504133D01*
X117746945Y-80099252D01*
X117743061Y-80089440D01*
X117597315Y-79670912D01*
X117594265Y-79660810D01*
X117484048Y-79231545D01*
X117481854Y-79221223D01*
X117407944Y-78784245D01*
X117406621Y-78773775D01*
X117369536Y-78332139D01*
X117369094Y-78321596D01*
X117369094Y-78105189D01*
X121300430Y-78105189D01*
X121320027Y-78341696D01*
X121321739Y-78351951D01*
X121379994Y-78581996D01*
X121383367Y-78591821D01*
X121478695Y-78809147D01*
X121483638Y-78818282D01*
X121613439Y-79016957D01*
X121619818Y-79025153D01*
X121780549Y-79199752D01*
X121788189Y-79206786D01*
X121975468Y-79352551D01*
X121984160Y-79358230D01*
X122192872Y-79471179D01*
X122202389Y-79475353D01*
X122426844Y-79552408D01*
X122436914Y-79554958D01*
X122670991Y-79594019D01*
X122681339Y-79594877D01*
X122918661Y-79594877D01*
X122929009Y-79594019D01*
X123163086Y-79554958D01*
X123173156Y-79552408D01*
X123397611Y-79475353D01*
X123407128Y-79471179D01*
X123615840Y-79358230D01*
X123624532Y-79352551D01*
X123811811Y-79206786D01*
X123819451Y-79199752D01*
X123980182Y-79025153D01*
X123986561Y-79016957D01*
X124116362Y-78818282D01*
X124121305Y-78809147D01*
X124216633Y-78591821D01*
X124220006Y-78581996D01*
X124278261Y-78351951D01*
X124279973Y-78341696D01*
X124299570Y-78105189D01*
X124299570Y-78094811D01*
X124279973Y-77858304D01*
X124278261Y-77848049D01*
X124220006Y-77618004D01*
X124216633Y-77608179D01*
X124121305Y-77390853D01*
X124116362Y-77381718D01*
X123986561Y-77183043D01*
X123980182Y-77174847D01*
X123819451Y-77000248D01*
X123811811Y-76993214D01*
X123624532Y-76847449D01*
X123615840Y-76841770D01*
X123407128Y-76728821D01*
X123397611Y-76724647D01*
X123173156Y-76647592D01*
X123163086Y-76645042D01*
X122929009Y-76605981D01*
X122918661Y-76605123D01*
X122681339Y-76605123D01*
X122670991Y-76605981D01*
X122436914Y-76645042D01*
X122426844Y-76647592D01*
X122202389Y-76724647D01*
X122192872Y-76728821D01*
X121984160Y-76841770D01*
X121975468Y-76847449D01*
X121788189Y-76993214D01*
X121780549Y-77000248D01*
X121619818Y-77174847D01*
X121613439Y-77183043D01*
X121483638Y-77381718D01*
X121478695Y-77390853D01*
X121383367Y-77608179D01*
X121379994Y-77618004D01*
X121321739Y-77848049D01*
X121320027Y-77858304D01*
X121300430Y-78094811D01*
X121300430Y-78105189D01*
X117369094Y-78105189D01*
X117369094Y-77878404D01*
X117369536Y-77867861D01*
X117406621Y-77426225D01*
X117407944Y-77415755D01*
X117481854Y-76978777D01*
X117484048Y-76968455D01*
X117594265Y-76539190D01*
X117597315Y-76529088D01*
X117743061Y-76110560D01*
X117746945Y-76100748D01*
X117927210Y-75695867D01*
X117931902Y-75686415D01*
X118145413Y-75298040D01*
X118150880Y-75289014D01*
X118396131Y-74919881D01*
X118402334Y-74911343D01*
X118677621Y-74564018D01*
X118684516Y-74556030D01*
X118987904Y-74232954D01*
X118995444Y-74225571D01*
X119324784Y-73929032D01*
X119332915Y-73922305D01*
X119685945Y-73654341D01*
X119694610Y-73648319D01*
X120068793Y-73410855D01*
X120077932Y-73405578D01*
X120470692Y-73200249D01*
X120480240Y-73195756D01*
X120888803Y-73024011D01*
X120898694Y-73020333D01*
X121320185Y-72883383D01*
X121330349Y-72880545D01*
X121761833Y-72779341D01*
X121772198Y-72777364D01*
X122210630Y-72712621D01*
X122221126Y-72711518D01*
X122663439Y-72683691D01*
X122673989Y-72683470D01*
X123117072Y-72692751D01*
G37*
G36*
X123117072Y-119792751D02*
G01*
X123127604Y-119793413D01*
X123568378Y-119839741D01*
X123578817Y-119841283D01*
X124014141Y-119924325D01*
X124024415Y-119926734D01*
X124451287Y-120045918D01*
X124461323Y-120049180D01*
X124876722Y-120203666D01*
X124886450Y-120207755D01*
X125287451Y-120396452D01*
X125296803Y-120401341D01*
X125680612Y-120622933D01*
X125689522Y-120628587D01*
X126053452Y-120881525D01*
X126061857Y-120887905D01*
X126403337Y-121170402D01*
X126411180Y-121177463D01*
X126727827Y-121487547D01*
X126735050Y-121495240D01*
X127024636Y-121830728D01*
X127031191Y-121838998D01*
X127291692Y-122197547D01*
X127297532Y-122206337D01*
X127527113Y-122585420D01*
X127532197Y-122594667D01*
X127729256Y-122991640D01*
X127733548Y-123001280D01*
X127896699Y-123413352D01*
X127900169Y-123423318D01*
X128028260Y-123847578D01*
X128030885Y-123857799D01*
X128123033Y-124291320D01*
X128124792Y-124301725D01*
X128180337Y-124741409D01*
X128181220Y-124751925D01*
X128199779Y-125194724D01*
X128199779Y-125205276D01*
X128181220Y-125648075D01*
X128180337Y-125658591D01*
X128124792Y-126098275D01*
X128123033Y-126108680D01*
X128030885Y-126542201D01*
X128028260Y-126552422D01*
X127900169Y-126976682D01*
X127896699Y-126986648D01*
X127733548Y-127398720D01*
X127729256Y-127408360D01*
X127532197Y-127805333D01*
X127527113Y-127814580D01*
X127297532Y-128193663D01*
X127291692Y-128202453D01*
X127031191Y-128561002D01*
X127024636Y-128569272D01*
X126735050Y-128904760D01*
X126727827Y-128912453D01*
X126411180Y-129222537D01*
X126403337Y-129229598D01*
X126061857Y-129512095D01*
X126053452Y-129518475D01*
X125689522Y-129771413D01*
X125680612Y-129777067D01*
X125296803Y-129998659D01*
X125287451Y-130003548D01*
X124886450Y-130192245D01*
X124876722Y-130196334D01*
X124461323Y-130350820D01*
X124451287Y-130354082D01*
X124024415Y-130473266D01*
X124014141Y-130475675D01*
X123578817Y-130558717D01*
X123568378Y-130560259D01*
X123127604Y-130606587D01*
X123117072Y-130607249D01*
X122673989Y-130616530D01*
X122663439Y-130616309D01*
X122221126Y-130588482D01*
X122210630Y-130587379D01*
X121772198Y-130522636D01*
X121761833Y-130520659D01*
X121330349Y-130419455D01*
X121320185Y-130416617D01*
X120898694Y-130279667D01*
X120888803Y-130275989D01*
X120480240Y-130104244D01*
X120470692Y-130099751D01*
X120077931Y-129894422D01*
X120068792Y-129889145D01*
X119694610Y-129651681D01*
X119685945Y-129645659D01*
X119332915Y-129377695D01*
X119324784Y-129370968D01*
X118995444Y-129074429D01*
X118987904Y-129067046D01*
X118684516Y-128743970D01*
X118677621Y-128735982D01*
X118402334Y-128388657D01*
X118396131Y-128380119D01*
X118150880Y-128010986D01*
X118145413Y-128001960D01*
X117931902Y-127613585D01*
X117927210Y-127604133D01*
X117746945Y-127199252D01*
X117743061Y-127189440D01*
X117597315Y-126770912D01*
X117594265Y-126760810D01*
X117484048Y-126331545D01*
X117481854Y-126321223D01*
X117407944Y-125884245D01*
X117406621Y-125873775D01*
X117369536Y-125432139D01*
X117369094Y-125421596D01*
X117369094Y-125205189D01*
X121300430Y-125205189D01*
X121320027Y-125441696D01*
X121321739Y-125451951D01*
X121379994Y-125681996D01*
X121383367Y-125691821D01*
X121478695Y-125909147D01*
X121483638Y-125918282D01*
X121613439Y-126116957D01*
X121619818Y-126125153D01*
X121780549Y-126299752D01*
X121788189Y-126306786D01*
X121975468Y-126452551D01*
X121984160Y-126458230D01*
X122192872Y-126571179D01*
X122202389Y-126575353D01*
X122426844Y-126652408D01*
X122436914Y-126654958D01*
X122670991Y-126694019D01*
X122681339Y-126694877D01*
X122918661Y-126694877D01*
X122929009Y-126694019D01*
X123163086Y-126654958D01*
X123173156Y-126652408D01*
X123397611Y-126575353D01*
X123407128Y-126571179D01*
X123615840Y-126458230D01*
X123624532Y-126452551D01*
X123811811Y-126306786D01*
X123819451Y-126299752D01*
X123980182Y-126125153D01*
X123986561Y-126116957D01*
X124116362Y-125918282D01*
X124121305Y-125909147D01*
X124216633Y-125691821D01*
X124220006Y-125681996D01*
X124278261Y-125451951D01*
X124279973Y-125441696D01*
X124299570Y-125205189D01*
X124299570Y-125194811D01*
X124279973Y-124958304D01*
X124278261Y-124948049D01*
X124220006Y-124718004D01*
X124216633Y-124708179D01*
X124121305Y-124490853D01*
X124116362Y-124481718D01*
X123986561Y-124283043D01*
X123980182Y-124274847D01*
X123819451Y-124100248D01*
X123811811Y-124093214D01*
X123624532Y-123947449D01*
X123615840Y-123941770D01*
X123407128Y-123828821D01*
X123397611Y-123824647D01*
X123173156Y-123747592D01*
X123163086Y-123745042D01*
X122929009Y-123705981D01*
X122918661Y-123705123D01*
X122681339Y-123705123D01*
X122670991Y-123705981D01*
X122436914Y-123745042D01*
X122426844Y-123747592D01*
X122202389Y-123824647D01*
X122192872Y-123828821D01*
X121984160Y-123941770D01*
X121975468Y-123947449D01*
X121788189Y-124093214D01*
X121780549Y-124100248D01*
X121619818Y-124274847D01*
X121613439Y-124283043D01*
X121483638Y-124481718D01*
X121478695Y-124490853D01*
X121383367Y-124708179D01*
X121379994Y-124718004D01*
X121321739Y-124948049D01*
X121320027Y-124958304D01*
X121300430Y-125194811D01*
X121300430Y-125205189D01*
X117369094Y-125205189D01*
X117369094Y-124978404D01*
X117369536Y-124967861D01*
X117406621Y-124526225D01*
X117407944Y-124515755D01*
X117481854Y-124078777D01*
X117484048Y-124068455D01*
X117594265Y-123639190D01*
X117597315Y-123629088D01*
X117743061Y-123210560D01*
X117746945Y-123200748D01*
X117927210Y-122795867D01*
X117931902Y-122786415D01*
X118145413Y-122398040D01*
X118150880Y-122389014D01*
X118396131Y-122019881D01*
X118402334Y-122011343D01*
X118677621Y-121664018D01*
X118684516Y-121656030D01*
X118987904Y-121332954D01*
X118995444Y-121325571D01*
X119324784Y-121029032D01*
X119332915Y-121022305D01*
X119685945Y-120754341D01*
X119694610Y-120748319D01*
X120068793Y-120510855D01*
X120077932Y-120505578D01*
X120470692Y-120300249D01*
X120480240Y-120295756D01*
X120888803Y-120124011D01*
X120898694Y-120120333D01*
X121320185Y-119983383D01*
X121330349Y-119980545D01*
X121761833Y-119879341D01*
X121772198Y-119877364D01*
X122210630Y-119812621D01*
X122221126Y-119811518D01*
X122663439Y-119783691D01*
X122673989Y-119783470D01*
X123117072Y-119792751D01*
G37*
M02*
