%TF.GenerationSoftware,KiCad,Pcbnew,(7.0.0)*%
%TF.CreationDate,2023-05-22T23:29:19+02:00*%
%TF.ProjectId,Apollo - DSP,41706f6c-6c6f-4202-9d20-4453502e6b69,rev?*%
%TF.SameCoordinates,Original*%
%TF.FileFunction,Soldermask,Bot*%
%TF.FilePolarity,Negative*%
%FSLAX46Y46*%
G04 Gerber Fmt 4.6, Leading zero omitted, Abs format (unit mm)*
G04 Created by KiCad (PCBNEW (7.0.0)) date 2023-05-22 23:29:19*
%MOMM*%
%LPD*%
G01*
G04 APERTURE LIST*
%ADD10C,5.075000*%
%ADD11O,2.000000X0.900000*%
%ADD12O,1.700000X0.900000*%
%ADD13R,1.700000X1.700000*%
%ADD14O,1.700000X1.700000*%
G04 APERTURE END LIST*
D10*
X167237500Y-61700000D02*
G75*
G03*
X167237500Y-61700000I-2537500J0D01*
G01*
X102337500Y-61700000D02*
G75*
G03*
X102337500Y-61700000I-2537500J0D01*
G01*
X167137500Y-109600000D02*
G75*
G03*
X167137500Y-109600000I-2537500J0D01*
G01*
X102337500Y-109700000D02*
G75*
G03*
X102337500Y-109700000I-2537500J0D01*
G01*
D11*
%TO.C,J1*%
X158394999Y-82019999D03*
D12*
X162564999Y-82019999D03*
D11*
X158394999Y-73379999D03*
D12*
X162564999Y-73379999D03*
%TD*%
D13*
%TO.C,J3*%
X139119999Y-63699999D03*
D14*
X141659999Y-63699999D03*
X144199999Y-63699999D03*
X146739999Y-63699999D03*
%TD*%
D13*
%TO.C,J5*%
X106939999Y-107699999D03*
D14*
X109479999Y-107699999D03*
X112019999Y-107699999D03*
X114559999Y-107699999D03*
X117099999Y-107699999D03*
X119639999Y-107699999D03*
%TD*%
D13*
%TO.C,J2*%
X127799999Y-63699999D03*
D14*
X130339999Y-63699999D03*
X132879999Y-63699999D03*
X135419999Y-63699999D03*
%TD*%
G36*
X164485922Y-56724761D02*
G01*
X164532808Y-56770958D01*
X164550000Y-56834495D01*
X164550000Y-59593418D01*
X164534587Y-59653804D01*
X164492120Y-59699416D01*
X164432988Y-59719097D01*
X164419861Y-59720035D01*
X164410965Y-59721315D01*
X164140941Y-59780055D01*
X164132314Y-59782588D01*
X163873381Y-59879165D01*
X163865225Y-59882889D01*
X163622671Y-60015334D01*
X163615109Y-60020193D01*
X163393882Y-60185803D01*
X163387093Y-60191686D01*
X163191686Y-60387093D01*
X163185803Y-60393882D01*
X163020193Y-60615109D01*
X163015334Y-60622671D01*
X162882889Y-60865225D01*
X162879165Y-60873381D01*
X162782588Y-61132314D01*
X162780055Y-61140941D01*
X162721315Y-61410965D01*
X162720035Y-61419861D01*
X162700321Y-61695512D01*
X162700321Y-61704488D01*
X162720035Y-61980138D01*
X162721315Y-61989034D01*
X162780055Y-62259058D01*
X162782588Y-62267685D01*
X162879165Y-62526618D01*
X162882889Y-62534774D01*
X163015334Y-62777328D01*
X163020193Y-62784890D01*
X163185803Y-63006117D01*
X163191686Y-63012906D01*
X163387093Y-63208313D01*
X163393882Y-63214196D01*
X163615109Y-63379806D01*
X163622671Y-63384665D01*
X163865225Y-63517110D01*
X163873381Y-63520834D01*
X164132314Y-63617411D01*
X164140941Y-63619944D01*
X164410965Y-63678684D01*
X164419862Y-63679964D01*
X164686988Y-63699069D01*
X164746121Y-63718750D01*
X164788588Y-63764363D01*
X164804000Y-63824748D01*
X164804000Y-64374000D01*
X164787119Y-64437000D01*
X164741000Y-64483119D01*
X164678000Y-64500000D01*
X164566590Y-64500000D01*
X164553506Y-64503506D01*
X164550000Y-64516590D01*
X164550000Y-71974000D01*
X164533119Y-72037000D01*
X164487000Y-72083119D01*
X164424000Y-72100000D01*
X161976000Y-72100000D01*
X161913000Y-72083119D01*
X161866881Y-72037000D01*
X161850000Y-71974000D01*
X161850000Y-64516590D01*
X161846493Y-64503506D01*
X161833410Y-64500000D01*
X161722000Y-64500000D01*
X161659000Y-64483119D01*
X161612881Y-64437000D01*
X161596000Y-64374000D01*
X161596000Y-61926000D01*
X161612881Y-61863000D01*
X161659000Y-61816881D01*
X161722000Y-61800000D01*
X161833410Y-61800000D01*
X161846493Y-61796493D01*
X161850000Y-61783410D01*
X161850000Y-57658487D01*
X161863465Y-57601813D01*
X161900984Y-57557252D01*
X161902208Y-57556345D01*
X161911548Y-57550050D01*
X162281256Y-57324245D01*
X162291064Y-57318838D01*
X162679356Y-57126758D01*
X162689605Y-57122243D01*
X163093425Y-56965397D01*
X163104035Y-56961810D01*
X163520191Y-56841440D01*
X163531077Y-56838810D01*
X163956259Y-56755873D01*
X163967335Y-56754219D01*
X164398227Y-56709360D01*
X164409413Y-56708697D01*
X164422139Y-56708509D01*
X164485922Y-56724761D01*
G37*
G36*
X164487000Y-83416881D02*
G01*
X164533119Y-83463000D01*
X164550000Y-83526000D01*
X164550000Y-105974000D01*
X164533119Y-106037000D01*
X164487000Y-106083119D01*
X164424000Y-106100000D01*
X161976000Y-106100000D01*
X161913000Y-106083119D01*
X161866881Y-106037000D01*
X161850000Y-105974000D01*
X161850000Y-83526000D01*
X161866881Y-83463000D01*
X161913000Y-83416881D01*
X161976000Y-83400000D01*
X164424000Y-83400000D01*
X164487000Y-83416881D01*
G37*
G36*
X102437000Y-65516881D02*
G01*
X102483119Y-65563000D01*
X102500000Y-65626000D01*
X102500000Y-105674000D01*
X102483119Y-105737000D01*
X102437000Y-105783119D01*
X102374000Y-105800000D01*
X99926000Y-105800000D01*
X99863000Y-105783119D01*
X99816881Y-105737000D01*
X99800000Y-105674000D01*
X99800000Y-104746965D01*
X99809062Y-104700044D01*
X99834946Y-104659872D01*
X99846341Y-104647958D01*
X99850000Y-104633887D01*
X99850000Y-66716113D01*
X99846341Y-66702041D01*
X99834946Y-66690128D01*
X99809062Y-66649956D01*
X99800000Y-66603035D01*
X99800000Y-65626000D01*
X99816881Y-65563000D01*
X99863000Y-65516881D01*
X99926000Y-65500000D01*
X102374000Y-65500000D01*
X102437000Y-65516881D01*
G37*
G36*
X162641260Y-61564411D02*
G01*
X162687675Y-61614264D01*
X162701360Y-61680990D01*
X162700321Y-61695515D01*
X162700321Y-61704488D01*
X162720035Y-61980138D01*
X162721315Y-61989034D01*
X162780055Y-62259058D01*
X162782588Y-62267685D01*
X162879165Y-62526618D01*
X162882889Y-62534774D01*
X163015334Y-62777328D01*
X163020193Y-62784890D01*
X163185803Y-63006117D01*
X163191686Y-63012906D01*
X163387093Y-63208313D01*
X163393882Y-63214196D01*
X163615109Y-63379806D01*
X163622671Y-63384665D01*
X163865225Y-63517110D01*
X163873381Y-63520834D01*
X164132314Y-63617411D01*
X164140941Y-63619944D01*
X164410965Y-63678684D01*
X164419861Y-63679964D01*
X164695512Y-63699679D01*
X164704488Y-63699679D01*
X164980138Y-63679964D01*
X164989034Y-63678684D01*
X165259058Y-63619944D01*
X165267685Y-63617411D01*
X165526618Y-63520834D01*
X165534774Y-63517110D01*
X165777328Y-63384665D01*
X165784890Y-63379806D01*
X166006117Y-63214196D01*
X166012906Y-63208313D01*
X166208313Y-63012906D01*
X166214196Y-63006117D01*
X166379806Y-62784890D01*
X166384665Y-62777328D01*
X166517110Y-62534774D01*
X166520834Y-62526618D01*
X166617411Y-62267685D01*
X166619944Y-62259058D01*
X166678684Y-61989034D01*
X166679964Y-61980137D01*
X166684479Y-61917012D01*
X166704160Y-61857879D01*
X166749773Y-61815413D01*
X166810158Y-61800000D01*
X169566245Y-61800000D01*
X169629783Y-61817193D01*
X169675981Y-61864080D01*
X169692231Y-61927866D01*
X169691302Y-61990592D01*
X169690639Y-62001773D01*
X169645780Y-62432664D01*
X169644126Y-62443740D01*
X169561189Y-62868922D01*
X169558559Y-62879808D01*
X169438189Y-63295964D01*
X169434602Y-63306574D01*
X169277756Y-63710394D01*
X169273241Y-63720643D01*
X169081161Y-64108935D01*
X169075754Y-64118743D01*
X168879739Y-64439676D01*
X168833857Y-64483889D01*
X168772209Y-64500000D01*
X164566590Y-64500000D01*
X164553506Y-64503506D01*
X164550000Y-64516590D01*
X164550000Y-64628000D01*
X164533119Y-64691000D01*
X164487000Y-64737119D01*
X164424000Y-64754000D01*
X161976000Y-64754000D01*
X161913000Y-64737119D01*
X161866881Y-64691000D01*
X161850000Y-64628000D01*
X161850000Y-64516590D01*
X161846493Y-64503506D01*
X161833410Y-64500000D01*
X148726000Y-64500000D01*
X148663000Y-64483119D01*
X148616881Y-64437000D01*
X148600000Y-64374000D01*
X148600000Y-61926000D01*
X148616881Y-61863000D01*
X148663000Y-61816881D01*
X148726000Y-61800000D01*
X161833410Y-61800000D01*
X161846493Y-61796493D01*
X161850000Y-61783410D01*
X161850000Y-61672000D01*
X161866881Y-61609000D01*
X161913000Y-61562881D01*
X161976000Y-61546000D01*
X162575681Y-61546000D01*
X162641260Y-61564411D01*
G37*
G36*
X165887000Y-106916881D02*
G01*
X165933119Y-106963000D01*
X165950000Y-107026000D01*
X165950000Y-107847258D01*
X165933492Y-107909608D01*
X165888294Y-107955620D01*
X165826249Y-107973238D01*
X165763615Y-107957846D01*
X165534774Y-107832889D01*
X165526618Y-107829165D01*
X165267685Y-107732588D01*
X165259058Y-107730055D01*
X164989034Y-107671315D01*
X164980138Y-107670035D01*
X164704488Y-107650321D01*
X164695512Y-107650321D01*
X164419861Y-107670035D01*
X164410965Y-107671315D01*
X164140941Y-107730055D01*
X164132314Y-107732588D01*
X163873381Y-107829165D01*
X163865225Y-107832889D01*
X163622671Y-107965334D01*
X163615109Y-107970193D01*
X163393882Y-108135803D01*
X163387093Y-108141686D01*
X163191686Y-108337093D01*
X163185803Y-108343882D01*
X163020193Y-108565109D01*
X163015334Y-108572671D01*
X162882889Y-108815225D01*
X162879165Y-108823381D01*
X162782588Y-109082314D01*
X162780055Y-109090941D01*
X162721315Y-109360965D01*
X162720035Y-109369862D01*
X162711945Y-109482988D01*
X162692264Y-109542121D01*
X162646651Y-109584588D01*
X162586266Y-109600000D01*
X121676000Y-109600000D01*
X121613000Y-109583119D01*
X121566881Y-109537000D01*
X121550000Y-109474000D01*
X121550000Y-107026000D01*
X121566881Y-106963000D01*
X121613000Y-106916881D01*
X121676000Y-106900000D01*
X165824000Y-106900000D01*
X165887000Y-106916881D01*
G37*
G36*
X125437000Y-61716881D02*
G01*
X125483119Y-61763000D01*
X125500000Y-61826000D01*
X125500000Y-64274000D01*
X125483119Y-64337000D01*
X125437000Y-64383119D01*
X125374000Y-64400000D01*
X103926000Y-64400000D01*
X103863000Y-64383119D01*
X103816881Y-64337000D01*
X103800000Y-64274000D01*
X103800000Y-61826000D01*
X103816881Y-61763000D01*
X103863000Y-61716881D01*
X103926000Y-61700000D01*
X125374000Y-61700000D01*
X125437000Y-61716881D01*
G37*
M02*
