%TF.GenerationSoftware,KiCad,Pcbnew,(7.0.0)*%
%TF.CreationDate,2023-05-08T13:38:34+02:00*%
%TF.ProjectId,Apollo - DSP,41706f6c-6c6f-4202-9d20-4453502e6b69,rev?*%
%TF.SameCoordinates,Original*%
%TF.FileFunction,Paste,Top*%
%TF.FilePolarity,Positive*%
%FSLAX46Y46*%
G04 Gerber Fmt 4.6, Leading zero omitted, Abs format (unit mm)*
G04 Created by KiCad (PCBNEW (7.0.0)) date 2023-05-08 13:38:34*
%MOMM*%
%LPD*%
G01*
G04 APERTURE LIST*
G04 Aperture macros list*
%AMRoundRect*
0 Rectangle with rounded corners*
0 $1 Rounding radius*
0 $2 $3 $4 $5 $6 $7 $8 $9 X,Y pos of 4 corners*
0 Add a 4 corners polygon primitive as box body*
4,1,4,$2,$3,$4,$5,$6,$7,$8,$9,$2,$3,0*
0 Add four circle primitives for the rounded corners*
1,1,$1+$1,$2,$3*
1,1,$1+$1,$4,$5*
1,1,$1+$1,$6,$7*
1,1,$1+$1,$8,$9*
0 Add four rect primitives between the rounded corners*
20,1,$1+$1,$2,$3,$4,$5,0*
20,1,$1+$1,$4,$5,$6,$7,0*
20,1,$1+$1,$6,$7,$8,$9,0*
20,1,$1+$1,$8,$9,$2,$3,0*%
%AMRotRect*
0 Rectangle, with rotation*
0 The origin of the aperture is its center*
0 $1 length*
0 $2 width*
0 $3 Rotation angle, in degrees counterclockwise*
0 Add horizontal line*
21,1,$1,$2,0,0,$3*%
G04 Aperture macros list end*
%ADD10RoundRect,0.237500X0.237500X-0.300000X0.237500X0.300000X-0.237500X0.300000X-0.237500X-0.300000X0*%
%ADD11RoundRect,0.150000X0.512500X0.150000X-0.512500X0.150000X-0.512500X-0.150000X0.512500X-0.150000X0*%
%ADD12RoundRect,0.150000X-0.150000X0.512500X-0.150000X-0.512500X0.150000X-0.512500X0.150000X0.512500X0*%
%ADD13RoundRect,0.237500X0.380070X-0.044194X-0.044194X0.380070X-0.380070X0.044194X0.044194X-0.380070X0*%
%ADD14RoundRect,0.237500X-0.237500X0.250000X-0.237500X-0.250000X0.237500X-0.250000X0.237500X0.250000X0*%
%ADD15RoundRect,0.237500X0.300000X0.237500X-0.300000X0.237500X-0.300000X-0.237500X0.300000X-0.237500X0*%
%ADD16RoundRect,0.237500X-0.250000X-0.237500X0.250000X-0.237500X0.250000X0.237500X-0.250000X0.237500X0*%
%ADD17R,0.800000X1.200000*%
%ADD18R,1.500000X2.000000*%
%ADD19RoundRect,0.237500X0.250000X0.237500X-0.250000X0.237500X-0.250000X-0.237500X0.250000X-0.237500X0*%
%ADD20RoundRect,0.075000X-0.700000X-0.075000X0.700000X-0.075000X0.700000X0.075000X-0.700000X0.075000X0*%
%ADD21RoundRect,0.075000X-0.075000X-0.700000X0.075000X-0.700000X0.075000X0.700000X-0.075000X0.700000X0*%
%ADD22R,1.700000X1.000000*%
%ADD23RoundRect,0.237500X0.044194X0.380070X-0.380070X-0.044194X-0.044194X-0.380070X0.380070X0.044194X0*%
%ADD24RoundRect,0.237500X-0.237500X0.300000X-0.237500X-0.300000X0.237500X-0.300000X0.237500X0.300000X0*%
%ADD25R,1.160000X0.600000*%
%ADD26R,1.160000X0.300000*%
%ADD27RoundRect,0.237500X0.237500X-0.250000X0.237500X0.250000X-0.237500X0.250000X-0.237500X-0.250000X0*%
%ADD28RoundRect,0.041300X0.563700X0.253700X-0.563700X0.253700X-0.563700X-0.253700X0.563700X-0.253700X0*%
%ADD29RotRect,1.150000X1.000000X225.000000*%
%ADD30RoundRect,0.150000X-0.825000X-0.150000X0.825000X-0.150000X0.825000X0.150000X-0.825000X0.150000X0*%
%ADD31RoundRect,0.237500X-0.300000X-0.237500X0.300000X-0.237500X0.300000X0.237500X-0.300000X0.237500X0*%
%ADD32RoundRect,0.237500X0.287500X0.237500X-0.287500X0.237500X-0.287500X-0.237500X0.287500X-0.237500X0*%
%ADD33RoundRect,0.237500X0.237500X-0.287500X0.237500X0.287500X-0.237500X0.287500X-0.237500X-0.287500X0*%
G04 APERTURE END LIST*
D10*
%TO.C,C2*%
X134500000Y-82050000D03*
X134500000Y-80325000D03*
%TD*%
D11*
%TO.C,U1*%
X132525000Y-82150000D03*
X132525000Y-81200000D03*
X132525000Y-80250000D03*
X130125000Y-80250000D03*
X130125000Y-82150000D03*
%TD*%
D10*
%TO.C,C9*%
X138431250Y-87662500D03*
X138431250Y-85937500D03*
%TD*%
%TO.C,C1*%
X140000000Y-82062500D03*
X140000000Y-80337500D03*
%TD*%
%TO.C,C26*%
X103470000Y-100067500D03*
X103470000Y-98342500D03*
%TD*%
D12*
%TO.C,U3*%
X145700000Y-95243750D03*
X144750000Y-95243750D03*
X143800000Y-95243750D03*
X143800000Y-97643750D03*
X145700000Y-97643750D03*
%TD*%
D13*
%TO.C,C21*%
X103533624Y-78946187D03*
X102313864Y-77726427D03*
%TD*%
D10*
%TO.C,C22*%
X138700000Y-103662500D03*
X138700000Y-101937500D03*
%TD*%
D14*
%TO.C,F1*%
X141750000Y-80287500D03*
X141750000Y-82112500D03*
%TD*%
D15*
%TO.C,C28*%
X97832500Y-101817500D03*
X96107500Y-101817500D03*
%TD*%
D10*
%TO.C,C23*%
X109500000Y-94350000D03*
X109500000Y-92625000D03*
%TD*%
D16*
%TO.C,R11*%
X96057500Y-103517500D03*
X97882500Y-103517500D03*
%TD*%
D17*
%TO.C,J3*%
X132074999Y-103624999D03*
X130974999Y-103624999D03*
X129874999Y-103624999D03*
X128774999Y-103624999D03*
X127674999Y-103624999D03*
X126574999Y-103624999D03*
X125474999Y-103624999D03*
X124374999Y-103624999D03*
D18*
X121904999Y-105824999D03*
X121904999Y-97624999D03*
X135794999Y-97624999D03*
X135794999Y-105824999D03*
%TD*%
D19*
%TO.C,FB1*%
X138162500Y-82200000D03*
X136337500Y-82200000D03*
%TD*%
D16*
%TO.C,D3*%
X101657500Y-85017500D03*
X103482500Y-85017500D03*
%TD*%
D14*
%TO.C,R1*%
X124700000Y-80287500D03*
X124700000Y-82112500D03*
%TD*%
D15*
%TO.C,C3*%
X132500000Y-83700000D03*
X130775000Y-83700000D03*
%TD*%
D20*
%TO.C,U4*%
X109625000Y-74200000D03*
X109625000Y-74700000D03*
X109625000Y-75200000D03*
X109625000Y-75700000D03*
X109625000Y-76200000D03*
X109625000Y-76700000D03*
X109625000Y-77200000D03*
X109625000Y-77700000D03*
X109625000Y-78200000D03*
X109625000Y-78700000D03*
X109625000Y-79200000D03*
X109625000Y-79700000D03*
X109625000Y-80200000D03*
X109625000Y-80700000D03*
X109625000Y-81200000D03*
X109625000Y-81700000D03*
D21*
X111550000Y-83625000D03*
X112050000Y-83625000D03*
X112550000Y-83625000D03*
X113050000Y-83625000D03*
X113550000Y-83625000D03*
X114050000Y-83625000D03*
X114550000Y-83625000D03*
X115050000Y-83625000D03*
X115550000Y-83625000D03*
X116050000Y-83625000D03*
X116550000Y-83625000D03*
X117050000Y-83625000D03*
X117550000Y-83625000D03*
X118050000Y-83625000D03*
X118550000Y-83625000D03*
X119050000Y-83625000D03*
D20*
X120975000Y-81700000D03*
X120975000Y-81200000D03*
X120975000Y-80700000D03*
X120975000Y-80200000D03*
X120975000Y-79700000D03*
X120975000Y-79200000D03*
X120975000Y-78700000D03*
X120975000Y-78200000D03*
X120975000Y-77700000D03*
X120975000Y-77200000D03*
X120975000Y-76700000D03*
X120975000Y-76200000D03*
X120975000Y-75700000D03*
X120975000Y-75200000D03*
X120975000Y-74700000D03*
X120975000Y-74200000D03*
D21*
X119050000Y-72275000D03*
X118550000Y-72275000D03*
X118050000Y-72275000D03*
X117550000Y-72275000D03*
X117050000Y-72275000D03*
X116550000Y-72275000D03*
X116050000Y-72275000D03*
X115550000Y-72275000D03*
X115050000Y-72275000D03*
X114550000Y-72275000D03*
X114050000Y-72275000D03*
X113550000Y-72275000D03*
X113050000Y-72275000D03*
X112550000Y-72275000D03*
X112050000Y-72275000D03*
X111550000Y-72275000D03*
%TD*%
D19*
%TO.C,R8*%
X98000000Y-80450000D03*
X96175000Y-80450000D03*
%TD*%
D22*
%TO.C,BOOT1*%
X95899999Y-65299999D03*
X102199999Y-65299999D03*
X95899999Y-69099999D03*
X102199999Y-69099999D03*
%TD*%
D15*
%TO.C,C12*%
X145675000Y-99581250D03*
X143950000Y-99581250D03*
%TD*%
%TO.C,C33*%
X105232500Y-101805000D03*
X103507500Y-101805000D03*
%TD*%
D10*
%TO.C,C7*%
X111100000Y-94350000D03*
X111100000Y-92625000D03*
%TD*%
D23*
%TO.C,C20*%
X103633624Y-73726427D03*
X102413864Y-74946187D03*
%TD*%
D24*
%TO.C,C14*%
X121500000Y-84287500D03*
X121500000Y-86012500D03*
%TD*%
D25*
%TO.C,J1*%
X145864999Y-79899999D03*
X145864999Y-79099999D03*
D26*
X145864999Y-77949999D03*
X145864999Y-76949999D03*
X145864999Y-76449999D03*
X145864999Y-75449999D03*
D25*
X145864999Y-74299999D03*
X145864999Y-73499999D03*
X145864999Y-73499999D03*
X145864999Y-74299999D03*
D26*
X145864999Y-74949999D03*
X145864999Y-75949999D03*
X145864999Y-77449999D03*
X145864999Y-78449999D03*
D25*
X145864999Y-79099999D03*
X145864999Y-79899999D03*
%TD*%
D22*
%TO.C,RESET1*%
X92349999Y-73799999D03*
X98649999Y-73799999D03*
X92349999Y-77599999D03*
X98649999Y-77599999D03*
%TD*%
D10*
%TO.C,C17*%
X109550000Y-68950000D03*
X109550000Y-67225000D03*
%TD*%
%TO.C,C19*%
X111250000Y-68950000D03*
X111250000Y-67225000D03*
%TD*%
D15*
%TO.C,C10*%
X145675000Y-93118750D03*
X143950000Y-93118750D03*
%TD*%
D27*
%TO.C,R5*%
X112700000Y-94400000D03*
X112700000Y-92575000D03*
%TD*%
D14*
%TO.C,R7*%
X115100000Y-86387500D03*
X115100000Y-88212500D03*
%TD*%
D15*
%TO.C,C11*%
X145675000Y-91418750D03*
X143950000Y-91418750D03*
%TD*%
D10*
%TO.C,C27*%
X96070000Y-100080000D03*
X96070000Y-98355000D03*
%TD*%
%TO.C,C30*%
X140450000Y-103662500D03*
X140450000Y-101937500D03*
%TD*%
D14*
%TO.C,R13*%
X126250000Y-73287500D03*
X126250000Y-75112500D03*
%TD*%
D16*
%TO.C,D6*%
X97922500Y-85017500D03*
X99747500Y-85017500D03*
%TD*%
D15*
%TO.C,C13*%
X145675000Y-101281250D03*
X143950000Y-101281250D03*
%TD*%
D10*
%TO.C,C29*%
X97122500Y-88480000D03*
X97122500Y-86755000D03*
%TD*%
D24*
%TO.C,C38*%
X104350000Y-65237500D03*
X104350000Y-66962500D03*
%TD*%
D15*
%TO.C,C4*%
X132500000Y-85400000D03*
X130775000Y-85400000D03*
%TD*%
D28*
%TO.C,U2*%
X137005000Y-76900000D03*
X137005000Y-75950000D03*
X137005000Y-75000000D03*
X134495000Y-75000000D03*
X134495000Y-75950000D03*
X134495000Y-76900000D03*
%TD*%
D14*
%TO.C,R10*%
X97870000Y-98305000D03*
X97870000Y-100130000D03*
%TD*%
D16*
%TO.C,R12*%
X103457500Y-103505000D03*
X105282500Y-103505000D03*
%TD*%
D29*
%TO.C,Y1*%
X105047487Y-75122613D03*
X103810050Y-76360050D03*
X104799999Y-77349999D03*
X106037436Y-76112562D03*
%TD*%
D15*
%TO.C,C15*%
X112100000Y-86750000D03*
X110375000Y-86750000D03*
%TD*%
D19*
%TO.C,R3*%
X147862500Y-70000000D03*
X146037500Y-70000000D03*
%TD*%
%TO.C,R2*%
X147387500Y-83000000D03*
X145562500Y-83000000D03*
%TD*%
D30*
%TO.C,U5*%
X97625000Y-91845000D03*
X97625000Y-93115000D03*
X97625000Y-94385000D03*
X97625000Y-95655000D03*
X102575000Y-95655000D03*
X102575000Y-94385000D03*
X102575000Y-93115000D03*
X102575000Y-91845000D03*
%TD*%
D10*
%TO.C,C32*%
X104370000Y-88480000D03*
X104370000Y-86755000D03*
%TD*%
D14*
%TO.C,FB2*%
X140131250Y-85875000D03*
X140131250Y-87700000D03*
%TD*%
D16*
%TO.C,D4*%
X94422500Y-85017500D03*
X96247500Y-85017500D03*
%TD*%
D14*
%TO.C,R4*%
X111100000Y-96075000D03*
X111100000Y-97900000D03*
%TD*%
D31*
%TO.C,C36*%
X119737500Y-87750000D03*
X121462500Y-87750000D03*
%TD*%
D14*
%TO.C,R9*%
X105270000Y-98305000D03*
X105270000Y-100130000D03*
%TD*%
D10*
%TO.C,C5*%
X128100000Y-82062500D03*
X128100000Y-80337500D03*
%TD*%
%TO.C,C18*%
X112950000Y-68950000D03*
X112950000Y-67225000D03*
%TD*%
D32*
%TO.C,D1*%
X126450000Y-78487500D03*
X124700000Y-78487500D03*
%TD*%
D15*
%TO.C,C8*%
X140106250Y-84187500D03*
X138381250Y-84187500D03*
%TD*%
D16*
%TO.C,D5*%
X105157500Y-85017500D03*
X106982500Y-85017500D03*
%TD*%
D14*
%TO.C,R13*%
X106100000Y-65187500D03*
X106100000Y-67012500D03*
%TD*%
D33*
%TO.C,D2*%
X115100000Y-91575000D03*
X115100000Y-89825000D03*
%TD*%
D15*
%TO.C,C37*%
X94337500Y-80450000D03*
X92612500Y-80450000D03*
%TD*%
D31*
%TO.C,C16*%
X121837500Y-71350000D03*
X123562500Y-71350000D03*
%TD*%
D10*
%TO.C,C6*%
X126400000Y-82062500D03*
X126400000Y-80337500D03*
%TD*%
D31*
%TO.C,C24*%
X100937500Y-90100000D03*
X102662500Y-90100000D03*
%TD*%
M02*
